<svg width="17" height="17" viewBox="0 0 17 17" fill="none" xmlns="http://www.w3.org/2000/svg">
<path d="M15.4999 8.4999C15.4999 12.403 12.2465 15.5896 8.20503 15.5896C4.16353 15.5896 0.910156 12.403 0.910156 8.4999C0.910156 4.59683 4.16353 1.41016 8.20503 1.41016C12.2465 1.41016 15.4999 4.59683 15.4999 8.4999Z" stroke="#87363C"/>
<path d="M7.85879 13.0342H7.25488C7.24447 13.0257 7.2329 13.0187 7.22043 13.0134C7.04094 12.9443 6.89408 12.8129 6.80801 12.6445C6.72193 12.4761 6.70282 12.2827 6.75444 12.1013C7.02848 10.9989 7.31074 9.8981 7.58478 8.79562C7.6229 8.64294 7.65037 8.4879 7.66685 8.33167C7.67819 8.29217 7.66537 8.24987 7.634 8.22263C7.60252 8.1954 7.558 8.18804 7.51919 8.20366C7.45406 8.2175 7.39076 8.23848 7.33044 8.26605C7.19262 8.32208 7.05973 8.3877 6.9218 8.44049C6.82187 8.49585 6.69539 8.4713 6.62476 8.38279V8.16683C6.71839 8.03871 6.82438 7.91974 6.94149 7.81169C7.35505 7.49172 7.78007 7.18926 8.20669 6.88523C8.29804 6.82641 8.39613 6.77809 8.49881 6.74126C8.63354 6.684 8.78326 6.66894 8.92714 6.69807C9.17027 6.72909 9.38685 6.86347 9.51892 7.06504C9.6509 7.2666 9.68478 7.51469 9.61141 7.74284C9.34333 8.80947 9.07536 9.87084 8.80729 10.9268C8.76449 11.0996 8.73266 11.275 8.71217 11.4516C8.70164 11.4912 8.71629 11.5332 8.74949 11.5582C8.78268 11.5833 8.82801 11.5867 8.86476 11.5668C8.96652 11.5364 9.06164 11.4884 9.16007 11.4499C9.25852 11.4115 9.40126 11.3524 9.52443 11.3123V11.3124C9.59609 11.2865 9.67656 11.3093 9.72303 11.3684C9.77511 11.4263 9.78301 11.5102 9.74272 11.5764C9.71284 11.6381 9.67472 11.6957 9.62951 11.7476C9.52786 11.8566 9.41821 11.9582 9.30122 12.0516C8.85356 12.4229 8.37061 12.752 7.85883 13.034L7.85879 13.0342Z" fill="#87363C"/>
<path d="M8.63997 6.19893C8.33481 6.2015 8.04107 6.08542 7.82373 5.87661C7.60635 5.66769 7.48319 5.38299 7.48146 5.08533C7.47975 4.78779 7.59948 4.50173 7.81444 4.29047C8.02929 4.07909 8.32165 3.9599 8.62682 3.95899C8.9321 3.9581 9.22502 4.07573 9.44125 4.28587C9.65736 4.49592 9.77882 4.7813 9.77882 5.07896C9.781 5.37493 9.66207 5.65964 9.44825 5.86981C9.23454 6.08008 8.94368 6.1985 8.64 6.19896L8.63997 6.19893Z" fill="#87363C"/>
</svg>
