<svg width="20" height="20" viewBox="0 0 20 20" fill="none" xmlns="http://www.w3.org/2000/svg">
<path d="M11.4472 6.00156H17.5011V4.85933C17.5011 3.87902 16.7061 3.08398 15.7258 3.08398H4.49312C3.51281 3.08398 2.71777 3.87902 2.71777 4.85933V6.00156H8.77175" stroke="#1D1D1D" stroke-width="0.7" stroke-miterlimit="10" stroke-linecap="round"/>
<path d="M8.57768 6H4.17651L4.94675 17.5084C5.00656 18.3939 5.74179 19.081 6.62874 19.081H13.7185C14.6127 19.081 15.3508 18.3822 15.4004 17.4894L16.0408 6H11.7141" stroke="#1D1D1D" stroke-width="0.7" stroke-miterlimit="10" stroke-linecap="round"/>
<path d="M11.119 1.01758H9.10005C8.31523 1.01758 7.67773 1.65507 7.67773 2.4399V3.08468H12.5399V2.4399C12.5413 1.65361 11.9038 1.01758 11.119 1.01758Z" stroke="#1D1D1D" stroke-width="0.7" stroke-miterlimit="10" stroke-linecap="round"/>
<path d="M7.70532 9.11328L12.674 14.2307" stroke="#1D1D1D" stroke-width="0.7" stroke-miterlimit="10" stroke-linecap="round"/>
<path d="M12.674 9.11328L7.70532 14.2307" stroke="#1D1D1D" stroke-width="0.7" stroke-miterlimit="10" stroke-linecap="round"/>
</svg>
