<svg width="20" height="20" viewBox="0 0 20 20" fill="none" xmlns="http://www.w3.org/2000/svg">
<path d="M16.7227 18.3028L16.7223 3.88548L13.7088 0.761719H4.23674C4.02194 0.761719 3.83398 0.949673 3.83398 1.16448V18.3028V19.2857L5.12185 17.3199L6.40972 19.2857L7.69759 17.3199L8.98546 19.2857L10.2733 17.3199L11.5612 19.2857L12.8491 17.3199L14.1369 19.2857L15.4344 17.3199L16.7223 19.2857L16.7227 18.3028Z" stroke="#1D1D1D" stroke-width="0.8" stroke-miterlimit="10" stroke-linejoin="round"/>
<path d="M8.86009 13.1969C8.86009 13.4178 9.03917 13.5969 9.26009 13.5969C9.481 13.5969 9.66009 13.4178 9.66009 13.1969H8.86009ZM9.26009 6.5293V6.1293C9.03917 6.1293 8.86009 6.30838 8.86009 6.5293H9.26009ZM8.49341 9.75892C8.27249 9.75892 8.09341 9.938 8.09341 10.1589C8.09341 10.3798 8.27249 10.5589 8.49341 10.5589V9.75892ZM9.66009 13.1969V6.5293H8.86009V13.1969H9.66009ZM9.26009 6.5293C9.26009 6.9293 9.26009 6.9293 9.26009 6.9293C9.26009 6.9293 9.2601 6.9293 9.2601 6.9293C9.26011 6.9293 9.26011 6.9293 9.26012 6.9293C9.26013 6.9293 9.26014 6.9293 9.26015 6.9293C9.26016 6.9293 9.26017 6.9293 9.26019 6.9293C9.2602 6.9293 9.26022 6.9293 9.26023 6.9293C9.26025 6.9293 9.26027 6.9293 9.26028 6.9293C9.2603 6.9293 9.26032 6.9293 9.26034 6.9293C9.26037 6.9293 9.26039 6.9293 9.26041 6.9293C9.26044 6.9293 9.26046 6.9293 9.26049 6.9293C9.26052 6.9293 9.26055 6.9293 9.26058 6.9293C9.26061 6.9293 9.26064 6.9293 9.26067 6.9293C9.2607 6.9293 9.26074 6.9293 9.26077 6.9293C9.26081 6.9293 9.26084 6.9293 9.26088 6.9293C9.26092 6.9293 9.26096 6.9293 9.261 6.9293C9.26104 6.9293 9.26108 6.9293 9.26113 6.9293C9.26117 6.9293 9.26122 6.9293 9.26126 6.9293C9.26131 6.9293 9.26136 6.9293 9.26141 6.9293C9.26146 6.9293 9.26151 6.9293 9.26156 6.9293C9.26161 6.9293 9.26166 6.9293 9.26172 6.9293C9.26177 6.9293 9.26183 6.9293 9.26189 6.9293C9.26195 6.9293 9.262 6.9293 9.26207 6.9293C9.26213 6.9293 9.26219 6.9293 9.26225 6.9293C9.26231 6.9293 9.26238 6.9293 9.26245 6.9293C9.26251 6.9293 9.26258 6.9293 9.26265 6.9293C9.26272 6.9293 9.26279 6.9293 9.26286 6.9293C9.26293 6.9293 9.263 6.9293 9.26308 6.9293C9.26315 6.9293 9.26323 6.9293 9.26331 6.9293C9.26339 6.9293 9.26346 6.9293 9.26354 6.9293C9.26363 6.9293 9.26371 6.9293 9.26379 6.9293C9.26387 6.9293 9.26396 6.9293 9.26404 6.9293C9.26413 6.9293 9.26422 6.9293 9.26431 6.9293C9.2644 6.9293 9.26449 6.9293 9.26458 6.9293C9.26467 6.9293 9.26476 6.9293 9.26486 6.9293C9.26495 6.9293 9.26505 6.9293 9.26515 6.9293C9.26525 6.9293 9.26535 6.9293 9.26545 6.9293C9.26555 6.9293 9.26565 6.9293 9.26575 6.9293C9.26586 6.9293 9.26596 6.9293 9.26607 6.9293C9.26617 6.9293 9.26628 6.9293 9.26639 6.9293C9.2665 6.9293 9.26661 6.9293 9.26672 6.9293C9.26684 6.9293 9.26695 6.9293 9.26707 6.9293C9.26718 6.9293 9.2673 6.9293 9.26742 6.9293C9.26753 6.9293 9.26765 6.9293 9.26778 6.9293C9.2679 6.9293 9.26802 6.9293 9.26814 6.9293C9.26827 6.9293 9.26839 6.9293 9.26852 6.9293C9.26865 6.9293 9.26878 6.9293 9.26891 6.9293C9.26904 6.9293 9.26917 6.9293 9.2693 6.9293C9.26944 6.9293 9.26957 6.9293 9.26971 6.9293C9.26984 6.9293 9.26998 6.9293 9.27012 6.9293C9.27026 6.9293 9.2704 6.9293 9.27054 6.9293C9.27068 6.9293 9.27083 6.9293 9.27097 6.9293C9.27112 6.9293 9.27126 6.9293 9.27141 6.9293C9.27156 6.9293 9.27171 6.9293 9.27186 6.9293C9.27201 6.9293 9.27217 6.9293 9.27232 6.9293C9.27247 6.9293 9.27263 6.9293 9.27279 6.9293C9.27294 6.9293 9.2731 6.9293 9.27326 6.9293C9.27342 6.9293 9.27359 6.9293 9.27375 6.9293C9.27391 6.9293 9.27408 6.9293 9.27424 6.9293C9.27441 6.9293 9.27458 6.9293 9.27475 6.9293C9.27492 6.9293 9.27509 6.9293 9.27526 6.9293C9.27543 6.9293 9.27561 6.9293 9.27578 6.9293C9.27596 6.9293 9.27614 6.9293 9.27632 6.9293C9.27649 6.9293 9.27667 6.9293 9.27686 6.9293C9.27704 6.9293 9.27722 6.9293 9.27741 6.9293C9.27759 6.9293 9.27778 6.9293 9.27797 6.9293C9.27815 6.9293 9.27834 6.9293 9.27853 6.9293C9.27873 6.9293 9.27892 6.9293 9.27911 6.9293C9.27931 6.9293 9.2795 6.9293 9.2797 6.9293C9.2799 6.9293 9.2801 6.9293 9.2803 6.9293C9.2805 6.9293 9.2807 6.9293 9.2809 6.9293C9.28111 6.9293 9.28131 6.9293 9.28152 6.9293C9.28173 6.9293 9.28193 6.9293 9.28214 6.9293C9.28235 6.9293 9.28257 6.9293 9.28278 6.9293C9.28299 6.9293 9.28321 6.9293 9.28342 6.9293C9.28364 6.9293 9.28386 6.9293 9.28408 6.9293C9.2843 6.9293 9.28452 6.9293 9.28474 6.9293C9.28496 6.9293 9.28519 6.9293 9.28541 6.9293C9.28564 6.9293 9.28587 6.9293 9.28609 6.9293C9.28632 6.9293 9.28655 6.9293 9.28679 6.9293C9.28702 6.9293 9.28725 6.9293 9.28749 6.9293C9.28772 6.9293 9.28796 6.9293 9.2882 6.9293C9.28844 6.9293 9.28868 6.9293 9.28892 6.9293C9.28916 6.9293 9.2894 6.9293 9.28965 6.9293C9.28989 6.9293 9.29014 6.9293 9.29039 6.9293C9.29064 6.9293 9.29089 6.9293 9.29114 6.9293C9.29139 6.9293 9.29164 6.9293 9.2919 6.9293C9.29215 6.9293 9.29241 6.9293 9.29267 6.9293C9.29293 6.9293 9.29319 6.9293 9.29345 6.9293C9.29371 6.9293 9.29397 6.9293 9.29424 6.9293C9.2945 6.9293 9.29477 6.9293 9.29503 6.9293C9.2953 6.9293 9.29557 6.9293 9.29584 6.9293C9.29611 6.9293 9.29639 6.9293 9.29666 6.9293C9.29694 6.9293 9.29721 6.9293 9.29749 6.9293C9.29777 6.9293 9.29805 6.9293 9.29833 6.9293C9.29861 6.9293 9.29889 6.9293 9.29918 6.9293C9.29946 6.9293 9.29975 6.9293 9.30003 6.9293C9.30032 6.9293 9.30061 6.9293 9.3009 6.9293C9.30119 6.9293 9.30148 6.9293 9.30178 6.9293C9.30207 6.9293 9.30237 6.9293 9.30267 6.9293C9.30296 6.9293 9.30326 6.9293 9.30356 6.9293C9.30386 6.9293 9.30417 6.9293 9.30447 6.9293C9.30478 6.9293 9.30508 6.9293 9.30539 6.9293C9.3057 6.9293 9.30601 6.9293 9.30632 6.9293C9.30663 6.9293 9.30694 6.9293 9.30725 6.9293C9.30757 6.9293 9.30788 6.9293 9.3082 6.9293C9.30852 6.9293 9.30884 6.9293 9.30916 6.9293C9.30948 6.9293 9.3098 6.9293 9.31013 6.9293C9.31045 6.9293 9.31078 6.9293 9.31111 6.9293C9.31143 6.9293 9.31176 6.9293 9.3121 6.9293C9.31243 6.9293 9.31276 6.9293 9.31309 6.9293C9.31343 6.9293 9.31377 6.9293 9.3141 6.9293C9.31444 6.9293 9.31478 6.9293 9.31512 6.9293C9.31546 6.9293 9.31581 6.9293 9.31615 6.9293C9.3165 6.9293 9.31684 6.9293 9.31719 6.9293C9.31754 6.9293 9.31789 6.9293 9.31824 6.9293C9.31859 6.9293 9.31895 6.9293 9.3193 6.9293C9.31966 6.9293 9.32001 6.9293 9.32037 6.9293C9.32073 6.9293 9.32109 6.9293 9.32145 6.9293C9.32182 6.9293 9.32218 6.9293 9.32255 6.9293C9.32291 6.9293 9.32328 6.9293 9.32365 6.9293C9.32402 6.9293 9.32439 6.9293 9.32476 6.9293C9.32513 6.9293 9.32551 6.9293 9.32588 6.9293C9.32626 6.9293 9.32664 6.9293 9.32702 6.9293C9.32739 6.9293 9.32778 6.9293 9.32816 6.9293C9.32854 6.9293 9.32893 6.9293 9.32931 6.9293C9.3297 6.9293 9.33009 6.9293 9.33048 6.9293C9.33087 6.9293 9.33126 6.9293 9.33165 6.9293C9.33205 6.9293 9.33244 6.9293 9.33284 6.9293C9.33324 6.9293 9.33363 6.9293 9.33404 6.9293C9.33444 6.9293 9.33484 6.9293 9.33524 6.9293C9.33565 6.9293 9.33605 6.9293 9.33646 6.9293C9.33687 6.9293 9.33728 6.9293 9.33769 6.9293C9.3381 6.9293 9.33851 6.9293 9.33893 6.9293C9.33934 6.9293 9.33976 6.9293 9.34018 6.9293C9.34059 6.9293 9.34101 6.9293 9.34144 6.9293C9.34186 6.9293 9.34228 6.9293 9.34271 6.9293C9.34313 6.9293 9.34356 6.9293 9.34399 6.9293C9.34442 6.9293 9.34485 6.9293 9.34528 6.9293C9.34571 6.9293 9.34615 6.9293 9.34658 6.9293C9.34702 6.9293 9.34746 6.9293 9.3479 6.9293C9.34834 6.9293 9.34878 6.9293 9.34922 6.9293C9.34967 6.9293 9.35011 6.9293 9.35056 6.9293C9.35101 6.9293 9.35145 6.9293 9.3519 6.9293C9.35236 6.9293 9.35281 6.9293 9.35326 6.9293C9.35372 6.9293 9.35417 6.9293 9.35463 6.9293C9.35509 6.9293 9.35555 6.9293 9.35601 6.9293C9.35647 6.9293 9.35693 6.9293 9.3574 6.9293C9.35786 6.9293 9.35833 6.9293 9.3588 6.9293C9.35927 6.9293 9.35974 6.9293 9.36021 6.9293C9.36069 6.9293 9.36116 6.9293 9.36164 6.9293C9.36211 6.9293 9.36259 6.9293 9.36307 6.9293C9.36355 6.9293 9.36403 6.9293 9.36451 6.9293C9.365 6.9293 9.36548 6.9293 9.36597 6.9293C9.36646 6.9293 9.36695 6.9293 9.36744 6.9293C9.36793 6.9293 9.36842 6.9293 9.36892 6.9293C9.36941 6.9293 9.36991 6.9293 9.37041 6.9293C9.3709 6.9293 9.3714 6.9293 9.37191 6.9293C9.37241 6.9293 9.37291 6.9293 9.37342 6.9293C9.37392 6.9293 9.37443 6.9293 9.37494 6.9293C9.37545 6.9293 9.37596 6.9293 9.37647 6.9293C9.37699 6.9293 9.3775 6.9293 9.37802 6.9293C9.37854 6.9293 9.37906 6.9293 9.37958 6.9293C9.3801 6.9293 9.38062 6.9293 9.38114 6.9293C9.38167 6.9293 9.3822 6.9293 9.38272 6.9293C9.38325 6.9293 9.38378 6.9293 9.38431 6.9293C9.38485 6.9293 9.38538 6.9293 9.38592 6.9293C9.38645 6.9293 9.38699 6.9293 9.38753 6.9293C9.38807 6.9293 9.38861 6.9293 9.38915 6.9293C9.3897 6.9293 9.39024 6.9293 9.39079 6.9293C9.39134 6.9293 9.39188 6.9293 9.39244 6.9293C9.39299 6.9293 9.39354 6.9293 9.39409 6.9293C9.39465 6.9293 9.39521 6.9293 9.39576 6.9293C9.39632 6.9293 9.39688 6.9293 9.39744 6.9293C9.39801 6.9293 9.39857 6.9293 9.39914 6.9293C9.3997 6.9293 9.40027 6.9293 9.40084 6.9293C9.40141 6.9293 9.40198 6.9293 9.40256 6.9293C9.40313 6.9293 9.40371 6.9293 9.40429 6.9293C9.40486 6.9293 9.40544 6.9293 9.40602 6.9293C9.40661 6.9293 9.40719 6.9293 9.40777 6.9293C9.40836 6.9293 9.40895 6.9293 9.40954 6.9293C9.41013 6.9293 9.41072 6.9293 9.41131 6.9293C9.4119 6.9293 9.4125 6.9293 9.4131 6.9293C9.41369 6.9293 9.41429 6.9293 9.41489 6.9293C9.41549 6.9293 9.4161 6.9293 9.4167 6.9293C9.41731 6.9293 9.41791 6.9293 9.41852 6.9293C9.41913 6.9293 9.41974 6.9293 9.42035 6.9293C9.42097 6.9293 9.42158 6.9293 9.4222 6.9293C9.42281 6.9293 9.42343 6.9293 9.42405 6.9293C9.42467 6.9293 9.4253 6.9293 9.42592 6.9293C9.42654 6.9293 9.42717 6.9293 9.4278 6.9293C9.42843 6.9293 9.42906 6.9293 9.42969 6.9293C9.43032 6.9293 9.43096 6.9293 9.43159 6.9293C9.43223 6.9293 9.43287 6.9293 9.43351 6.9293C9.43415 6.9293 9.43479 6.9293 9.43543 6.9293C9.43608 6.9293 9.43672 6.9293 9.43737 6.9293C9.43802 6.9293 9.43867 6.9293 9.43932 6.9293C9.43997 6.9293 9.44063 6.9293 9.44128 6.9293C9.44194 6.9293 9.4426 6.9293 9.44326 6.9293C9.44392 6.9293 9.44458 6.9293 9.44524 6.9293C9.44591 6.9293 9.44657 6.9293 9.44724 6.9293C9.44791 6.9293 9.44858 6.9293 9.44925 6.9293C9.44992 6.9293 9.4506 6.9293 9.45127 6.9293C9.45195 6.9293 9.45263 6.9293 9.45331 6.9293C9.45399 6.9293 9.45467 6.9293 9.45535 6.9293C9.45604 6.9293 9.45672 6.9293 9.45741 6.9293C9.4581 6.9293 9.45879 6.9293 9.45948 6.9293C9.46018 6.9293 9.46087 6.9293 9.46157 6.9293C9.46226 6.9293 9.46296 6.9293 9.46366 6.9293C9.46436 6.9293 9.46506 6.9293 9.46577 6.9293C9.46647 6.9293 9.46718 6.9293 9.46789 6.9293C9.46859 6.9293 9.4693 6.9293 9.47002 6.9293C9.47073 6.9293 9.47144 6.9293 9.47216 6.9293C9.47288 6.9293 9.4736 6.9293 9.47432 6.9293C9.47504 6.9293 9.47576 6.9293 9.47648 6.9293C9.47721 6.9293 9.47794 6.9293 9.47866 6.9293C9.47939 6.9293 9.48012 6.9293 9.48086 6.9293C9.48159 6.9293 9.48232 6.9293 9.48306 6.9293C9.4838 6.9293 9.48454 6.9293 9.48528 6.9293C9.48602 6.9293 9.48676 6.9293 9.48751 6.9293C9.48825 6.9293 9.489 6.9293 9.48975 6.9293C9.4905 6.9293 9.49125 6.9293 9.492 6.9293C9.49276 6.9293 9.49351 6.9293 9.49427 6.9293C9.49503 6.9293 9.49579 6.9293 9.49655 6.9293C9.49731 6.9293 9.49808 6.9293 9.49884 6.9293C9.49961 6.9293 9.50038 6.9293 9.50115 6.9293C9.50192 6.9293 9.50269 6.9293 9.50346 6.9293C9.50424 6.9293 9.50501 6.9293 9.50579 6.9293C9.50657 6.9293 9.50735 6.9293 9.50813 6.9293C9.50892 6.9293 9.5097 6.9293 9.51049 6.9293C9.51128 6.9293 9.51206 6.9293 9.51286 6.9293C9.51365 6.9293 9.51444 6.9293 9.51524 6.9293C9.51603 6.9293 9.51683 6.9293 9.51763 6.9293C9.51843 6.9293 9.51923 6.9293 9.52003 6.9293C9.52084 6.9293 9.52164 6.9293 9.52245 6.9293C9.52326 6.9293 9.52407 6.9293 9.52488 6.9293C9.52569 6.9293 9.52651 6.9293 9.52732 6.9293C9.52814 6.9293 9.52896 6.9293 9.52978 6.9293C9.5306 6.9293 9.53142 6.9293 9.53225 6.9293C9.53307 6.9293 9.5339 6.9293 9.53473 6.9293C9.53556 6.9293 9.53639 6.9293 9.53722 6.9293C9.53805 6.9293 9.53889 6.9293 9.53973 6.9293C9.54057 6.9293 9.5414 6.9293 9.54225 6.9293C9.54309 6.9293 9.54393 6.9293 9.54478 6.9293C9.54563 6.9293 9.54647 6.9293 9.54732 6.9293C9.54817 6.9293 9.54903 6.9293 9.54988 6.9293C9.55074 6.9293 9.55159 6.9293 9.55245 6.9293C9.55331 6.9293 9.55417 6.9293 9.55504 6.9293C9.5559 6.9293 9.55677 6.9293 9.55763 6.9293C9.5585 6.9293 9.55937 6.9293 9.56024 6.9293C9.56112 6.9293 9.56199 6.9293 9.56287 6.9293C9.56374 6.9293 9.56462 6.9293 9.5655 6.9293C9.56638 6.9293 9.56727 6.9293 9.56815 6.9293C9.56904 6.9293 9.56992 6.9293 9.57081 6.9293C9.5717 6.9293 9.57259 6.9293 9.57349 6.9293C9.57438 6.9293 9.57528 6.9293 9.57618 6.9293C9.57707 6.9293 9.57797 6.9293 9.57888 6.9293C9.57978 6.9293 9.58068 6.9293 9.58159 6.9293C9.5825 6.9293 9.58341 6.9293 9.58432 6.9293C9.58523 6.9293 9.58614 6.9293 9.58706 6.9293C9.58797 6.9293 9.58889 6.9293 9.58981 6.9293C9.59073 6.9293 9.59165 6.9293 9.59258 6.9293C9.5935 6.9293 9.59443 6.9293 9.59536 6.9293C9.59629 6.9293 9.59722 6.9293 9.59815 6.9293C9.59909 6.9293 9.60002 6.9293 9.60096 6.9293C9.6019 6.9293 9.60284 6.9293 9.60378 6.9293C9.60472 6.9293 9.60566 6.9293 9.60661 6.9293C9.60756 6.9293 9.60851 6.9293 9.60946 6.9293C9.61041 6.9293 9.61136 6.9293 9.61232 6.9293C9.61327 6.9293 9.61423 6.9293 9.61519 6.9293C9.61615 6.9293 9.61711 6.9293 9.61808 6.9293C9.61904 6.9293 9.62001 6.9293 9.62098 6.9293C9.62195 6.9293 9.62292 6.9293 9.62389 6.9293C9.62486 6.9293 9.62584 6.9293 9.62682 6.9293C9.62779 6.9293 9.62878 6.9293 9.62976 6.9293C9.63074 6.9293 9.63172 6.9293 9.63271 6.9293C9.6337 6.9293 9.63469 6.9293 9.63568 6.9293C9.63667 6.9293 9.63766 6.9293 9.63866 6.9293C9.63965 6.9293 9.64065 6.9293 9.64165 6.9293C9.64265 6.9293 9.64366 6.9293 9.64466 6.9293C9.64567 6.9293 9.64667 6.9293 9.64768 6.9293C9.64869 6.9293 9.6497 6.9293 9.65072 6.9293C9.65173 6.9293 9.65275 6.9293 9.65377 6.9293C9.65478 6.9293 9.65581 6.9293 9.65683 6.9293C9.65785 6.9293 9.65888 6.9293 9.6599 6.9293C9.66093 6.9293 9.66196 6.9293 9.66299 6.9293C9.66403 6.9293 9.66506 6.9293 9.6661 6.9293C9.66713 6.9293 9.66817 6.9293 9.66921 6.9293C9.67026 6.9293 9.6713 6.9293 9.67234 6.9293C9.67339 6.9293 9.67444 6.9293 9.67549 6.9293C9.67654 6.9293 9.67759 6.9293 9.67865 6.9293C9.6797 6.9293 9.68076 6.9293 9.68182 6.9293C9.68288 6.9293 9.68394 6.9293 9.68501 6.9293C9.68607 6.9293 9.68714 6.9293 9.6882 6.9293C9.68927 6.9293 9.69034 6.9293 9.69142 6.9293C9.69249 6.9293 9.69357 6.9293 9.69465 6.9293C9.69572 6.9293 9.6968 6.9293 9.69789 6.9293C9.69897 6.9293 9.70005 6.9293 9.70114 6.9293C9.70223 6.9293 9.70332 6.9293 9.70441 6.9293C9.7055 6.9293 9.7066 6.9293 9.70769 6.9293C9.70879 6.9293 9.70989 6.9293 9.71099 6.9293C9.71209 6.9293 9.7132 6.9293 9.7143 6.9293C9.71541 6.9293 9.71652 6.9293 9.71763 6.9293C9.71874 6.9293 9.71985 6.9293 9.72097 6.9293C9.72208 6.9293 9.7232 6.9293 9.72432 6.9293C9.72544 6.9293 9.72656 6.9293 9.72769 6.9293C9.72881 6.9293 9.72994 6.9293 9.73107 6.9293C9.7322 6.9293 9.73333 6.9293 9.73446 6.9293C9.7356 6.9293 9.73673 6.9293 9.73787 6.9293C9.73901 6.9293 9.74015 6.9293 9.7413 6.9293C9.74244 6.9293 9.74359 6.9293 9.74474 6.9293C9.74588 6.9293 9.74703 6.9293 9.74819 6.9293C9.74934 6.9293 9.7505 6.9293 9.75165 6.9293C9.75281 6.9293 9.75397 6.9293 9.75513 6.9293C9.7563 6.9293 9.75746 6.9293 9.75863 6.9293C9.7598 6.9293 9.76097 6.9293 9.76214 6.9293C9.76331 6.9293 9.76448 6.9293 9.76566 6.9293C9.76684 6.9293 9.76802 6.9293 9.7692 6.9293C9.77038 6.9293 9.77156 6.9293 9.77275 6.9293C9.77394 6.9293 9.77513 6.9293 9.77632 6.9293C9.77751 6.9293 9.7787 6.9293 9.7799 6.9293C9.78109 6.9293 9.78229 6.9293 9.78349 6.9293C9.78469 6.9293 9.7859 6.9293 9.7871 6.9293C9.78831 6.9293 9.78952 6.9293 9.79073 6.9293C9.79194 6.9293 9.79315 6.9293 9.79437 6.9293C9.79558 6.9293 9.7968 6.9293 9.79802 6.9293C9.79924 6.9293 9.80046 6.9293 9.80169 6.9293C9.80291 6.9293 9.80414 6.9293 9.80537 6.9293C9.8066 6.9293 9.80783 6.9293 9.80906 6.9293C9.8103 6.9293 9.81154 6.9293 9.81278 6.9293C9.81401 6.9293 9.81526 6.9293 9.8165 6.9293C9.81774 6.9293 9.81899 6.9293 9.82024 6.9293C9.82149 6.9293 9.82274 6.9293 9.824 6.9293C9.82525 6.9293 9.82651 6.9293 9.82776 6.9293C9.82902 6.9293 9.83029 6.9293 9.83155 6.9293C9.83281 6.9293 9.83408 6.9293 9.83535 6.9293C9.83662 6.9293 9.83789 6.9293 9.83916 6.9293C9.84043 6.9293 9.84171 6.9293 9.84299 6.9293C9.84427 6.9293 9.84555 6.9293 9.84683 6.9293C9.84812 6.9293 9.8494 6.9293 9.85069 6.9293C9.85198 6.9293 9.85327 6.9293 9.85456 6.9293C9.85586 6.9293 9.85715 6.9293 9.85845 6.9293C9.85975 6.9293 9.86105 6.9293 9.86235 6.9293C9.86365 6.9293 9.86496 6.9293 9.86627 6.9293C9.86758 6.9293 9.86889 6.9293 9.8702 6.9293C9.87151 6.9293 9.87283 6.9293 9.87415 6.9293C9.87546 6.9293 9.87678 6.9293 9.87811 6.9293C9.87943 6.9293 9.88076 6.9293 9.88208 6.9293C9.88341 6.9293 9.88474 6.9293 9.88607 6.9293C9.88741 6.9293 9.88874 6.9293 9.89008 6.9293C9.89142 6.9293 9.89276 6.9293 9.8941 6.9293C9.89544 6.9293 9.89679 6.9293 9.89814 6.9293C9.89949 6.9293 9.90084 6.9293 9.90219 6.9293C9.90354 6.9293 9.9049 6.9293 9.90626 6.9293C9.90761 6.9293 9.90897 6.9293 9.91034 6.9293C9.9117 6.9293 9.91306 6.9293 9.91443 6.9293C9.9158 6.9293 9.91717 6.9293 9.91854 6.9293C9.91992 6.9293 9.92129 6.9293 9.92267 6.9293C9.92405 6.9293 9.92543 6.9293 9.92681 6.9293C9.9282 6.9293 9.92958 6.9293 9.93097 6.9293C9.93236 6.9293 9.93375 6.9293 9.93514 6.9293C9.93653 6.9293 9.93793 6.9293 9.93933 6.9293C9.94073 6.9293 9.94213 6.9293 9.94353 6.9293C9.94493 6.9293 9.94634 6.9293 9.94775 6.9293C9.94916 6.9293 9.95057 6.9293 9.95198 6.9293C9.95339 6.9293 9.95481 6.9293 9.95623 6.9293C9.95765 6.9293 9.95907 6.9293 9.96049 6.9293C9.96192 6.9293 9.96334 6.9293 9.96477 6.9293C9.9662 6.9293 9.96763 6.9293 9.96906 6.9293C9.9705 6.9293 9.97193 6.9293 9.97337 6.9293C9.97481 6.9293 9.97625 6.9293 9.9777 6.9293C9.97914 6.9293 9.98059 6.9293 9.98204 6.9293C9.98349 6.9293 9.98494 6.9293 9.98639 6.9293C9.98785 6.9293 9.98931 6.9293 9.99076 6.9293C9.99222 6.9293 9.99369 6.9293 9.99515 6.9293C9.99662 6.9293 9.99808 6.9293 9.99955 6.9293C10.001 6.9293 10.0025 6.9293 10.004 6.9293C10.0054 6.9293 10.0069 6.9293 10.0084 6.9293C10.0099 6.9293 10.0114 6.9293 10.0129 6.9293C10.0143 6.9293 10.0158 6.9293 10.0173 6.9293C10.0188 6.9293 10.0203 6.9293 10.0218 6.9293C10.0233 6.9293 10.0248 6.9293 10.0263 6.9293C10.0278 6.9293 10.0293 6.9293 10.0308 6.9293C10.0323 6.9293 10.0338 6.9293 10.0353 6.9293C10.0368 6.9293 10.0384 6.9293 10.0399 6.9293C10.0414 6.9293 10.0429 6.9293 10.0444 6.9293C10.0459 6.9293 10.0475 6.9293 10.049 6.9293C10.0505 6.9293 10.0521 6.9293 10.0536 6.9293C10.0551 6.9293 10.0567 6.9293 10.0582 6.9293C10.0597 6.9293 10.0613 6.9293 10.0628 6.9293C10.0644 6.9293 10.0659 6.9293 10.0674 6.9293C10.069 6.9293 10.0705 6.9293 10.0721 6.9293C10.0737 6.9293 10.0752 6.9293 10.0768 6.9293C10.0783 6.9293 10.0799 6.9293 10.0815 6.9293C10.083 6.9293 10.0846 6.9293 10.0862 6.9293C10.0877 6.9293 10.0893 6.9293 10.0909 6.9293C10.0924 6.9293 10.094 6.9293 10.0956 6.9293C10.0972 6.9293 10.0988 6.9293 10.1003 6.9293C10.1019 6.9293 10.1035 6.9293 10.1051 6.9293C10.1067 6.9293 10.1083 6.9293 10.1099 6.9293C10.1115 6.9293 10.1131 6.9293 10.1147 6.9293C10.1163 6.9293 10.1179 6.9293 10.1195 6.9293C10.1211 6.9293 10.1227 6.9293 10.1243 6.9293C10.1259 6.9293 10.1275 6.9293 10.1292 6.9293C10.1308 6.9293 10.1324 6.9293 10.134 6.9293C10.1356 6.9293 10.1373 6.9293 10.1389 6.9293C10.1405 6.9293 10.1422 6.9293 10.1438 6.9293C10.1454 6.9293 10.1471 6.9293 10.1487 6.9293C10.1503 6.9293 10.152 6.9293 10.1536 6.9293C10.1553 6.9293 10.1569 6.9293 10.1586 6.9293C10.1602 6.9293 10.1619 6.9293 10.1635 6.9293C10.1652 6.9293 10.1668 6.9293 10.1685 6.9293C10.1701 6.9293 10.1718 6.9293 10.1735 6.9293C10.1751 6.9293 10.1768 6.9293 10.1785 6.9293C10.1801 6.9293 10.1818 6.9293 10.1835 6.9293C10.1852 6.9293 10.1869 6.9293 10.1885 6.9293C10.1902 6.9293 10.1919 6.9293 10.1936 6.9293C10.1953 6.9293 10.197 6.9293 10.1987 6.9293C10.2003 6.9293 10.202 6.9293 10.2037 6.9293C10.2054 6.9293 10.2071 6.9293 10.2088 6.9293C10.2105 6.9293 10.2123 6.9293 10.214 6.9293C10.2157 6.9293 10.2174 6.9293 10.2191 6.9293C10.2208 6.9293 10.2225 6.9293 10.2242 6.9293C10.226 6.9293 10.2277 6.9293 10.2294 6.9293C10.2311 6.9293 10.2329 6.9293 10.2346 6.9293C10.2363 6.9293 10.2381 6.9293 10.2398 6.9293C10.2415 6.9293 10.2433 6.9293 10.245 6.9293C10.2468 6.9293 10.2485 6.9293 10.2502 6.9293C10.252 6.9293 10.2537 6.9293 10.2555 6.9293C10.2573 6.9293 10.259 6.9293 10.2608 6.9293C10.2625 6.9293 10.2643 6.9293 10.266 6.9293C10.2678 6.9293 10.2696 6.9293 10.2713 6.9293C10.2731 6.9293 10.2749 6.9293 10.2767 6.9293C10.2784 6.9293 10.2802 6.9293 10.282 6.9293C10.2838 6.9293 10.2856 6.9293 10.2873 6.9293C10.2891 6.9293 10.2909 6.9293 10.2927 6.9293C10.2945 6.9293 10.2963 6.9293 10.2981 6.9293C10.2999 6.9293 10.3017 6.9293 10.3035 6.9293C10.3053 6.9293 10.3071 6.9293 10.3089 6.9293C10.3107 6.9293 10.3125 6.9293 10.3143 6.9293C10.3162 6.9293 10.318 6.9293 10.3198 6.9293C10.3216 6.9293 10.3234 6.9293 10.3253 6.9293C10.3271 6.9293 10.3289 6.9293 10.3307 6.9293C10.3326 6.9293 10.3344 6.9293 10.3362 6.9293C10.3381 6.9293 10.3399 6.9293 10.3418 6.9293C10.3436 6.9293 10.3454 6.9293 10.3473 6.9293C10.3491 6.9293 10.351 6.9293 10.3528 6.9293C10.3547 6.9293 10.3565 6.9293 10.3584 6.9293C10.3603 6.9293 10.3621 6.9293 10.364 6.9293C10.3659 6.9293 10.3677 6.9293 10.3696 6.9293C10.3715 6.9293 10.3733 6.9293 10.3752 6.9293C10.3771 6.9293 10.379 6.9293 10.3808 6.9293C10.3827 6.9293 10.3846 6.9293 10.3865 6.9293C10.3884 6.9293 10.3903 6.9293 10.3922 6.9293C10.3941 6.9293 10.396 6.9293 10.3979 6.9293C10.3998 6.9293 10.4017 6.9293 10.4036 6.9293C10.4055 6.9293 10.4074 6.9293 10.4093 6.9293C10.4112 6.9293 10.4131 6.9293 10.415 6.9293C10.4169 6.9293 10.4188 6.9293 10.4208 6.9293C10.4227 6.9293 10.4246 6.9293 10.4265 6.9293C10.4285 6.9293 10.4304 6.9293 10.4323 6.9293C10.4343 6.9293 10.4362 6.9293 10.4381 6.9293C10.4401 6.9293 10.442 6.9293 10.444 6.9293C10.4459 6.9293 10.4479 6.9293 10.4498 6.9293C10.4518 6.9293 10.4537 6.9293 10.4557 6.9293C10.4576 6.9293 10.4596 6.9293 10.4615 6.9293C10.4635 6.9293 10.4655 6.9293 10.4674 6.9293C10.4694 6.9293 10.4714 6.9293 10.4733 6.9293C10.4753 6.9293 10.4773 6.9293 10.4793 6.9293C10.4812 6.9293 10.4832 6.9293 10.4852 6.9293C10.4872 6.9293 10.4892 6.9293 10.4912 6.9293C10.4932 6.9293 10.4952 6.9293 10.4971 6.9293C10.4991 6.9293 10.5011 6.9293 10.5031 6.9293C10.5051 6.9293 10.5071 6.9293 10.5092 6.9293C10.5112 6.9293 10.5132 6.9293 10.5152 6.9293C10.5172 6.9293 10.5192 6.9293 10.5212 6.9293C10.5233 6.9293 10.5253 6.9293 10.5273 6.9293C10.5293 6.9293 10.5314 6.9293 10.5334 6.9293C10.5354 6.9293 10.5375 6.9293 10.5395 6.9293C10.5415 6.9293 10.5436 6.9293 10.5456 6.9293C10.5476 6.9293 10.5497 6.9293 10.5517 6.9293C10.5538 6.9293 10.5558 6.9293 10.5579 6.9293C10.5599 6.9293 10.562 6.9293 10.5641 6.9293C10.5661 6.9293 10.5682 6.9293 10.5703 6.9293C10.5723 6.9293 10.5744 6.9293 10.5765 6.9293C10.5785 6.9293 10.5806 6.9293 10.5827 6.9293C10.5848 6.9293 10.5868 6.9293 10.5889 6.9293C10.591 6.9293 10.5931 6.9293 10.5952 6.9293C10.5973 6.9293 10.5994 6.9293 10.6015 6.9293C10.6036 6.9293 10.6057 6.9293 10.6078 6.9293C10.6099 6.9293 10.612 6.9293 10.6141 6.9293C10.6162 6.9293 10.6183 6.9293 10.6204 6.9293C10.6225 6.9293 10.6246 6.9293 10.6268 6.9293C10.6289 6.9293 10.631 6.9293 10.6331 6.9293C10.6352 6.9293 10.6374 6.9293 10.6395 6.9293C10.6416 6.9293 10.6438 6.9293 10.6459 6.9293C10.648 6.9293 10.6502 6.9293 10.6523 6.9293C10.6545 6.9293 10.6566 6.9293 10.6588 6.9293C10.6609 6.9293 10.6631 6.9293 10.6652 6.9293C10.6674 6.9293 10.6695 6.9293 10.6717 6.9293C10.6738 6.9293 10.676 6.9293 10.6782 6.9293C10.6803 6.9293 10.6825 6.9293 10.6847 6.9293C10.6869 6.9293 10.689 6.9293 10.6912 6.9293C10.6934 6.9293 10.6956 6.9293 10.6978 6.9293C10.6999 6.9293 10.7021 6.9293 10.7043 6.9293C10.7065 6.9293 10.7087 6.9293 10.7109 6.9293C10.7131 6.9293 10.7153 6.9293 10.7175 6.9293C10.7197 6.9293 10.7219 6.9293 10.7241 6.9293C10.7263 6.9293 10.7285 6.9293 10.7308 6.9293C10.733 6.9293 10.7352 6.9293 10.7374 6.9293C10.7396 6.9293 10.7419 6.9293 10.7441 6.9293C10.7463 6.9293 10.7485 6.9293 10.7508 6.9293C10.753 6.9293 10.7552 6.9293 10.7575 6.9293V6.1293C10.7552 6.1293 10.753 6.1293 10.7508 6.1293C10.7485 6.1293 10.7463 6.1293 10.7441 6.1293C10.7419 6.1293 10.7396 6.1293 10.7374 6.1293C10.7352 6.1293 10.733 6.1293 10.7308 6.1293C10.7285 6.1293 10.7263 6.1293 10.7241 6.1293C10.7219 6.1293 10.7197 6.1293 10.7175 6.1293C10.7153 6.1293 10.7131 6.1293 10.7109 6.1293C10.7087 6.1293 10.7065 6.1293 10.7043 6.1293C10.7021 6.1293 10.6999 6.1293 10.6978 6.1293C10.6956 6.1293 10.6934 6.1293 10.6912 6.1293C10.689 6.1293 10.6869 6.1293 10.6847 6.1293C10.6825 6.1293 10.6803 6.1293 10.6782 6.1293C10.676 6.1293 10.6738 6.1293 10.6717 6.1293C10.6695 6.1293 10.6674 6.1293 10.6652 6.1293C10.6631 6.1293 10.6609 6.1293 10.6588 6.1293C10.6566 6.1293 10.6545 6.1293 10.6523 6.1293C10.6502 6.1293 10.648 6.1293 10.6459 6.1293C10.6438 6.1293 10.6416 6.1293 10.6395 6.1293C10.6374 6.1293 10.6352 6.1293 10.6331 6.1293C10.631 6.1293 10.6289 6.1293 10.6268 6.1293C10.6246 6.1293 10.6225 6.1293 10.6204 6.1293C10.6183 6.1293 10.6162 6.1293 10.6141 6.1293C10.612 6.1293 10.6099 6.1293 10.6078 6.1293C10.6057 6.1293 10.6036 6.1293 10.6015 6.1293C10.5994 6.1293 10.5973 6.1293 10.5952 6.1293C10.5931 6.1293 10.591 6.1293 10.5889 6.1293C10.5868 6.1293 10.5848 6.1293 10.5827 6.1293C10.5806 6.1293 10.5785 6.1293 10.5765 6.1293C10.5744 6.1293 10.5723 6.1293 10.5703 6.1293C10.5682 6.1293 10.5661 6.1293 10.5641 6.1293C10.562 6.1293 10.5599 6.1293 10.5579 6.1293C10.5558 6.1293 10.5538 6.1293 10.5517 6.1293C10.5497 6.1293 10.5476 6.1293 10.5456 6.1293C10.5436 6.1293 10.5415 6.1293 10.5395 6.1293C10.5375 6.1293 10.5354 6.1293 10.5334 6.1293C10.5314 6.1293 10.5293 6.1293 10.5273 6.1293C10.5253 6.1293 10.5233 6.1293 10.5212 6.1293C10.5192 6.1293 10.5172 6.1293 10.5152 6.1293C10.5132 6.1293 10.5112 6.1293 10.5092 6.1293C10.5071 6.1293 10.5051 6.1293 10.5031 6.1293C10.5011 6.1293 10.4991 6.1293 10.4971 6.1293C10.4952 6.1293 10.4932 6.1293 10.4912 6.1293C10.4892 6.1293 10.4872 6.1293 10.4852 6.1293C10.4832 6.1293 10.4812 6.1293 10.4793 6.1293C10.4773 6.1293 10.4753 6.1293 10.4733 6.1293C10.4714 6.1293 10.4694 6.1293 10.4674 6.1293C10.4655 6.1293 10.4635 6.1293 10.4615 6.1293C10.4596 6.1293 10.4576 6.1293 10.4557 6.1293C10.4537 6.1293 10.4518 6.1293 10.4498 6.1293C10.4479 6.1293 10.4459 6.1293 10.444 6.1293C10.442 6.1293 10.4401 6.1293 10.4381 6.1293C10.4362 6.1293 10.4343 6.1293 10.4323 6.1293C10.4304 6.1293 10.4285 6.1293 10.4265 6.1293C10.4246 6.1293 10.4227 6.1293 10.4208 6.1293C10.4188 6.1293 10.4169 6.1293 10.415 6.1293C10.4131 6.1293 10.4112 6.1293 10.4093 6.1293C10.4074 6.1293 10.4055 6.1293 10.4036 6.1293C10.4017 6.1293 10.3998 6.1293 10.3979 6.1293C10.396 6.1293 10.3941 6.1293 10.3922 6.1293C10.3903 6.1293 10.3884 6.1293 10.3865 6.1293C10.3846 6.1293 10.3827 6.1293 10.3808 6.1293C10.379 6.1293 10.3771 6.1293 10.3752 6.1293C10.3733 6.1293 10.3715 6.1293 10.3696 6.1293C10.3677 6.1293 10.3659 6.1293 10.364 6.1293C10.3621 6.1293 10.3603 6.1293 10.3584 6.1293C10.3565 6.1293 10.3547 6.1293 10.3528 6.1293C10.351 6.1293 10.3491 6.1293 10.3473 6.1293C10.3454 6.1293 10.3436 6.1293 10.3418 6.1293C10.3399 6.1293 10.3381 6.1293 10.3362 6.1293C10.3344 6.1293 10.3326 6.1293 10.3307 6.1293C10.3289 6.1293 10.3271 6.1293 10.3253 6.1293C10.3234 6.1293 10.3216 6.1293 10.3198 6.1293C10.318 6.1293 10.3162 6.1293 10.3143 6.1293C10.3125 6.1293 10.3107 6.1293 10.3089 6.1293C10.3071 6.1293 10.3053 6.1293 10.3035 6.1293C10.3017 6.1293 10.2999 6.1293 10.2981 6.1293C10.2963 6.1293 10.2945 6.1293 10.2927 6.1293C10.2909 6.1293 10.2891 6.1293 10.2873 6.1293C10.2856 6.1293 10.2838 6.1293 10.282 6.1293C10.2802 6.1293 10.2784 6.1293 10.2767 6.1293C10.2749 6.1293 10.2731 6.1293 10.2713 6.1293C10.2696 6.1293 10.2678 6.1293 10.266 6.1293C10.2643 6.1293 10.2625 6.1293 10.2608 6.1293C10.259 6.1293 10.2573 6.1293 10.2555 6.1293C10.2537 6.1293 10.252 6.1293 10.2502 6.1293C10.2485 6.1293 10.2468 6.1293 10.245 6.1293C10.2433 6.1293 10.2415 6.1293 10.2398 6.1293C10.2381 6.1293 10.2363 6.1293 10.2346 6.1293C10.2329 6.1293 10.2311 6.1293 10.2294 6.1293C10.2277 6.1293 10.226 6.1293 10.2242 6.1293C10.2225 6.1293 10.2208 6.1293 10.2191 6.1293C10.2174 6.1293 10.2157 6.1293 10.214 6.1293C10.2123 6.1293 10.2105 6.1293 10.2088 6.1293C10.2071 6.1293 10.2054 6.1293 10.2037 6.1293C10.202 6.1293 10.2003 6.1293 10.1987 6.1293C10.197 6.1293 10.1953 6.1293 10.1936 6.1293C10.1919 6.1293 10.1902 6.1293 10.1885 6.1293C10.1869 6.1293 10.1852 6.1293 10.1835 6.1293C10.1818 6.1293 10.1801 6.1293 10.1785 6.1293C10.1768 6.1293 10.1751 6.1293 10.1735 6.1293C10.1718 6.1293 10.1701 6.1293 10.1685 6.1293C10.1668 6.1293 10.1652 6.1293 10.1635 6.1293C10.1619 6.1293 10.1602 6.1293 10.1586 6.1293C10.1569 6.1293 10.1553 6.1293 10.1536 6.1293C10.152 6.1293 10.1503 6.1293 10.1487 6.1293C10.1471 6.1293 10.1454 6.1293 10.1438 6.1293C10.1422 6.1293 10.1405 6.1293 10.1389 6.1293C10.1373 6.1293 10.1356 6.1293 10.134 6.1293C10.1324 6.1293 10.1308 6.1293 10.1292 6.1293C10.1275 6.1293 10.1259 6.1293 10.1243 6.1293C10.1227 6.1293 10.1211 6.1293 10.1195 6.1293C10.1179 6.1293 10.1163 6.1293 10.1147 6.1293C10.1131 6.1293 10.1115 6.1293 10.1099 6.1293C10.1083 6.1293 10.1067 6.1293 10.1051 6.1293C10.1035 6.1293 10.1019 6.1293 10.1003 6.1293C10.0988 6.1293 10.0972 6.1293 10.0956 6.1293C10.094 6.1293 10.0924 6.1293 10.0909 6.1293C10.0893 6.1293 10.0877 6.1293 10.0862 6.1293C10.0846 6.1293 10.083 6.1293 10.0815 6.1293C10.0799 6.1293 10.0783 6.1293 10.0768 6.1293C10.0752 6.1293 10.0737 6.1293 10.0721 6.1293C10.0705 6.1293 10.069 6.1293 10.0674 6.1293C10.0659 6.1293 10.0644 6.1293 10.0628 6.1293C10.0613 6.1293 10.0597 6.1293 10.0582 6.1293C10.0567 6.1293 10.0551 6.1293 10.0536 6.1293C10.0521 6.1293 10.0505 6.1293 10.049 6.1293C10.0475 6.1293 10.0459 6.1293 10.0444 6.1293C10.0429 6.1293 10.0414 6.1293 10.0399 6.1293C10.0384 6.1293 10.0368 6.1293 10.0353 6.1293C10.0338 6.1293 10.0323 6.1293 10.0308 6.1293C10.0293 6.1293 10.0278 6.1293 10.0263 6.1293C10.0248 6.1293 10.0233 6.1293 10.0218 6.1293C10.0203 6.1293 10.0188 6.1293 10.0173 6.1293C10.0158 6.1293 10.0143 6.1293 10.0129 6.1293C10.0114 6.1293 10.0099 6.1293 10.0084 6.1293C10.0069 6.1293 10.0054 6.1293 10.004 6.1293C10.0025 6.1293 10.001 6.1293 9.99955 6.1293C9.99808 6.1293 9.99662 6.1293 9.99515 6.1293C9.99369 6.1293 9.99222 6.1293 9.99076 6.1293C9.98931 6.1293 9.98785 6.1293 9.98639 6.1293C9.98494 6.1293 9.98349 6.1293 9.98204 6.1293C9.98059 6.1293 9.97914 6.1293 9.9777 6.1293C9.97625 6.1293 9.97481 6.1293 9.97337 6.1293C9.97193 6.1293 9.9705 6.1293 9.96906 6.1293C9.96763 6.1293 9.9662 6.1293 9.96477 6.1293C9.96334 6.1293 9.96192 6.1293 9.96049 6.1293C9.95907 6.1293 9.95765 6.1293 9.95623 6.1293C9.95481 6.1293 9.95339 6.1293 9.95198 6.1293C9.95057 6.1293 9.94916 6.1293 9.94775 6.1293C9.94634 6.1293 9.94493 6.1293 9.94353 6.1293C9.94213 6.1293 9.94073 6.1293 9.93933 6.1293C9.93793 6.1293 9.93653 6.1293 9.93514 6.1293C9.93375 6.1293 9.93236 6.1293 9.93097 6.1293C9.92958 6.1293 9.9282 6.1293 9.92681 6.1293C9.92543 6.1293 9.92405 6.1293 9.92267 6.1293C9.92129 6.1293 9.91992 6.1293 9.91854 6.1293C9.91717 6.1293 9.9158 6.1293 9.91443 6.1293C9.91306 6.1293 9.9117 6.1293 9.91034 6.1293C9.90897 6.1293 9.90761 6.1293 9.90626 6.1293C9.9049 6.1293 9.90354 6.1293 9.90219 6.1293C9.90084 6.1293 9.89949 6.1293 9.89814 6.1293C9.89679 6.1293 9.89544 6.1293 9.8941 6.1293C9.89276 6.1293 9.89142 6.1293 9.89008 6.1293C9.88874 6.1293 9.88741 6.1293 9.88607 6.1293C9.88474 6.1293 9.88341 6.1293 9.88208 6.1293C9.88076 6.1293 9.87943 6.1293 9.87811 6.1293C9.87678 6.1293 9.87546 6.1293 9.87415 6.1293C9.87283 6.1293 9.87151 6.1293 9.8702 6.1293C9.86889 6.1293 9.86758 6.1293 9.86627 6.1293C9.86496 6.1293 9.86365 6.1293 9.86235 6.1293C9.86105 6.1293 9.85975 6.1293 9.85845 6.1293C9.85715 6.1293 9.85586 6.1293 9.85456 6.1293C9.85327 6.1293 9.85198 6.1293 9.85069 6.1293C9.8494 6.1293 9.84812 6.1293 9.84683 6.1293C9.84555 6.1293 9.84427 6.1293 9.84299 6.1293C9.84171 6.1293 9.84043 6.1293 9.83916 6.1293C9.83789 6.1293 9.83662 6.1293 9.83535 6.1293C9.83408 6.1293 9.83281 6.1293 9.83155 6.1293C9.83029 6.1293 9.82902 6.1293 9.82776 6.1293C9.82651 6.1293 9.82525 6.1293 9.824 6.1293C9.82274 6.1293 9.82149 6.1293 9.82024 6.1293C9.81899 6.1293 9.81774 6.1293 9.8165 6.1293C9.81526 6.1293 9.81401 6.1293 9.81278 6.1293C9.81154 6.1293 9.8103 6.1293 9.80906 6.1293C9.80783 6.1293 9.8066 6.1293 9.80537 6.1293C9.80414 6.1293 9.80291 6.1293 9.80169 6.1293C9.80046 6.1293 9.79924 6.1293 9.79802 6.1293C9.7968 6.1293 9.79558 6.1293 9.79437 6.1293C9.79315 6.1293 9.79194 6.1293 9.79073 6.1293C9.78952 6.1293 9.78831 6.1293 9.7871 6.1293C9.7859 6.1293 9.78469 6.1293 9.78349 6.1293C9.78229 6.1293 9.78109 6.1293 9.7799 6.1293C9.7787 6.1293 9.77751 6.1293 9.77632 6.1293C9.77513 6.1293 9.77394 6.1293 9.77275 6.1293C9.77156 6.1293 9.77038 6.1293 9.7692 6.1293C9.76802 6.1293 9.76684 6.1293 9.76566 6.1293C9.76448 6.1293 9.76331 6.1293 9.76214 6.1293C9.76097 6.1293 9.7598 6.1293 9.75863 6.1293C9.75746 6.1293 9.7563 6.1293 9.75513 6.1293C9.75397 6.1293 9.75281 6.1293 9.75165 6.1293C9.7505 6.1293 9.74934 6.1293 9.74819 6.1293C9.74703 6.1293 9.74588 6.1293 9.74474 6.1293C9.74359 6.1293 9.74244 6.1293 9.7413 6.1293C9.74015 6.1293 9.73901 6.1293 9.73787 6.1293C9.73673 6.1293 9.7356 6.1293 9.73446 6.1293C9.73333 6.1293 9.7322 6.1293 9.73107 6.1293C9.72994 6.1293 9.72881 6.1293 9.72769 6.1293C9.72656 6.1293 9.72544 6.1293 9.72432 6.1293C9.7232 6.1293 9.72208 6.1293 9.72097 6.1293C9.71985 6.1293 9.71874 6.1293 9.71763 6.1293C9.71652 6.1293 9.71541 6.1293 9.7143 6.1293C9.7132 6.1293 9.71209 6.1293 9.71099 6.1293C9.70989 6.1293 9.70879 6.1293 9.70769 6.1293C9.7066 6.1293 9.7055 6.1293 9.70441 6.1293C9.70332 6.1293 9.70223 6.1293 9.70114 6.1293C9.70005 6.1293 9.69897 6.1293 9.69789 6.1293C9.6968 6.1293 9.69572 6.1293 9.69465 6.1293C9.69357 6.1293 9.69249 6.1293 9.69142 6.1293C9.69034 6.1293 9.68927 6.1293 9.6882 6.1293C9.68714 6.1293 9.68607 6.1293 9.68501 6.1293C9.68394 6.1293 9.68288 6.1293 9.68182 6.1293C9.68076 6.1293 9.6797 6.1293 9.67865 6.1293C9.67759 6.1293 9.67654 6.1293 9.67549 6.1293C9.67444 6.1293 9.67339 6.1293 9.67234 6.1293C9.6713 6.1293 9.67026 6.1293 9.66921 6.1293C9.66817 6.1293 9.66713 6.1293 9.6661 6.1293C9.66506 6.1293 9.66403 6.1293 9.66299 6.1293C9.66196 6.1293 9.66093 6.1293 9.6599 6.1293C9.65888 6.1293 9.65785 6.1293 9.65683 6.1293C9.65581 6.1293 9.65478 6.1293 9.65377 6.1293C9.65275 6.1293 9.65173 6.1293 9.65072 6.1293C9.6497 6.1293 9.64869 6.1293 9.64768 6.1293C9.64667 6.1293 9.64567 6.1293 9.64466 6.1293C9.64366 6.1293 9.64265 6.1293 9.64165 6.1293C9.64065 6.1293 9.63965 6.1293 9.63866 6.1293C9.63766 6.1293 9.63667 6.1293 9.63568 6.1293C9.63469 6.1293 9.6337 6.1293 9.63271 6.1293C9.63172 6.1293 9.63074 6.1293 9.62976 6.1293C9.62878 6.1293 9.62779 6.1293 9.62682 6.1293C9.62584 6.1293 9.62486 6.1293 9.62389 6.1293C9.62292 6.1293 9.62195 6.1293 9.62098 6.1293C9.62001 6.1293 9.61904 6.1293 9.61808 6.1293C9.61711 6.1293 9.61615 6.1293 9.61519 6.1293C9.61423 6.1293 9.61327 6.1293 9.61232 6.1293C9.61136 6.1293 9.61041 6.1293 9.60946 6.1293C9.60851 6.1293 9.60756 6.1293 9.60661 6.1293C9.60566 6.1293 9.60472 6.1293 9.60378 6.1293C9.60284 6.1293 9.6019 6.1293 9.60096 6.1293C9.60002 6.1293 9.59909 6.1293 9.59815 6.1293C9.59722 6.1293 9.59629 6.1293 9.59536 6.1293C9.59443 6.1293 9.5935 6.1293 9.59258 6.1293C9.59165 6.1293 9.59073 6.1293 9.58981 6.1293C9.58889 6.1293 9.58797 6.1293 9.58706 6.1293C9.58614 6.1293 9.58523 6.1293 9.58432 6.1293C9.58341 6.1293 9.5825 6.1293 9.58159 6.1293C9.58068 6.1293 9.57978 6.1293 9.57888 6.1293C9.57797 6.1293 9.57707 6.1293 9.57618 6.1293C9.57528 6.1293 9.57438 6.1293 9.57349 6.1293C9.57259 6.1293 9.5717 6.1293 9.57081 6.1293C9.56992 6.1293 9.56904 6.1293 9.56815 6.1293C9.56727 6.1293 9.56638 6.1293 9.5655 6.1293C9.56462 6.1293 9.56374 6.1293 9.56287 6.1293C9.56199 6.1293 9.56112 6.1293 9.56024 6.1293C9.55937 6.1293 9.5585 6.1293 9.55763 6.1293C9.55677 6.1293 9.5559 6.1293 9.55504 6.1293C9.55417 6.1293 9.55331 6.1293 9.55245 6.1293C9.55159 6.1293 9.55074 6.1293 9.54988 6.1293C9.54903 6.1293 9.54817 6.1293 9.54732 6.1293C9.54647 6.1293 9.54563 6.1293 9.54478 6.1293C9.54393 6.1293 9.54309 6.1293 9.54225 6.1293C9.5414 6.1293 9.54057 6.1293 9.53973 6.1293C9.53889 6.1293 9.53805 6.1293 9.53722 6.1293C9.53639 6.1293 9.53556 6.1293 9.53473 6.1293C9.5339 6.1293 9.53307 6.1293 9.53225 6.1293C9.53142 6.1293 9.5306 6.1293 9.52978 6.1293C9.52896 6.1293 9.52814 6.1293 9.52732 6.1293C9.52651 6.1293 9.52569 6.1293 9.52488 6.1293C9.52407 6.1293 9.52326 6.1293 9.52245 6.1293C9.52164 6.1293 9.52084 6.1293 9.52003 6.1293C9.51923 6.1293 9.51843 6.1293 9.51763 6.1293C9.51683 6.1293 9.51603 6.1293 9.51524 6.1293C9.51444 6.1293 9.51365 6.1293 9.51286 6.1293C9.51206 6.1293 9.51128 6.1293 9.51049 6.1293C9.5097 6.1293 9.50892 6.1293 9.50813 6.1293C9.50735 6.1293 9.50657 6.1293 9.50579 6.1293C9.50501 6.1293 9.50424 6.1293 9.50346 6.1293C9.50269 6.1293 9.50192 6.1293 9.50115 6.1293C9.50038 6.1293 9.49961 6.1293 9.49884 6.1293C9.49808 6.1293 9.49731 6.1293 9.49655 6.1293C9.49579 6.1293 9.49503 6.1293 9.49427 6.1293C9.49351 6.1293 9.49276 6.1293 9.492 6.1293C9.49125 6.1293 9.4905 6.1293 9.48975 6.1293C9.489 6.1293 9.48825 6.1293 9.48751 6.1293C9.48676 6.1293 9.48602 6.1293 9.48528 6.1293C9.48454 6.1293 9.4838 6.1293 9.48306 6.1293C9.48232 6.1293 9.48159 6.1293 9.48086 6.1293C9.48012 6.1293 9.47939 6.1293 9.47866 6.1293C9.47794 6.1293 9.47721 6.1293 9.47648 6.1293C9.47576 6.1293 9.47504 6.1293 9.47432 6.1293C9.4736 6.1293 9.47288 6.1293 9.47216 6.1293C9.47144 6.1293 9.47073 6.1293 9.47002 6.1293C9.4693 6.1293 9.46859 6.1293 9.46789 6.1293C9.46718 6.1293 9.46647 6.1293 9.46577 6.1293C9.46506 6.1293 9.46436 6.1293 9.46366 6.1293C9.46296 6.1293 9.46226 6.1293 9.46157 6.1293C9.46087 6.1293 9.46018 6.1293 9.45948 6.1293C9.45879 6.1293 9.4581 6.1293 9.45741 6.1293C9.45672 6.1293 9.45604 6.1293 9.45535 6.1293C9.45467 6.1293 9.45399 6.1293 9.45331 6.1293C9.45263 6.1293 9.45195 6.1293 9.45127 6.1293C9.4506 6.1293 9.44992 6.1293 9.44925 6.1293C9.44858 6.1293 9.44791 6.1293 9.44724 6.1293C9.44657 6.1293 9.44591 6.1293 9.44524 6.1293C9.44458 6.1293 9.44392 6.1293 9.44326 6.1293C9.4426 6.1293 9.44194 6.1293 9.44128 6.1293C9.44063 6.1293 9.43997 6.1293 9.43932 6.1293C9.43867 6.1293 9.43802 6.1293 9.43737 6.1293C9.43672 6.1293 9.43608 6.1293 9.43543 6.1293C9.43479 6.1293 9.43415 6.1293 9.43351 6.1293C9.43287 6.1293 9.43223 6.1293 9.43159 6.1293C9.43096 6.1293 9.43032 6.1293 9.42969 6.1293C9.42906 6.1293 9.42843 6.1293 9.4278 6.1293C9.42717 6.1293 9.42654 6.1293 9.42592 6.1293C9.4253 6.1293 9.42467 6.1293 9.42405 6.1293C9.42343 6.1293 9.42281 6.1293 9.4222 6.1293C9.42158 6.1293 9.42097 6.1293 9.42035 6.1293C9.41974 6.1293 9.41913 6.1293 9.41852 6.1293C9.41791 6.1293 9.41731 6.1293 9.4167 6.1293C9.4161 6.1293 9.41549 6.1293 9.41489 6.1293C9.41429 6.1293 9.41369 6.1293 9.4131 6.1293C9.4125 6.1293 9.4119 6.1293 9.41131 6.1293C9.41072 6.1293 9.41013 6.1293 9.40954 6.1293C9.40895 6.1293 9.40836 6.1293 9.40777 6.1293C9.40719 6.1293 9.40661 6.1293 9.40602 6.1293C9.40544 6.1293 9.40486 6.1293 9.40429 6.1293C9.40371 6.1293 9.40313 6.1293 9.40256 6.1293C9.40198 6.1293 9.40141 6.1293 9.40084 6.1293C9.40027 6.1293 9.3997 6.1293 9.39914 6.1293C9.39857 6.1293 9.39801 6.1293 9.39744 6.1293C9.39688 6.1293 9.39632 6.1293 9.39576 6.1293C9.39521 6.1293 9.39465 6.1293 9.39409 6.1293C9.39354 6.1293 9.39299 6.1293 9.39244 6.1293C9.39188 6.1293 9.39134 6.1293 9.39079 6.1293C9.39024 6.1293 9.3897 6.1293 9.38915 6.1293C9.38861 6.1293 9.38807 6.1293 9.38753 6.1293C9.38699 6.1293 9.38645 6.1293 9.38592 6.1293C9.38538 6.1293 9.38485 6.1293 9.38431 6.1293C9.38378 6.1293 9.38325 6.1293 9.38272 6.1293C9.3822 6.1293 9.38167 6.1293 9.38114 6.1293C9.38062 6.1293 9.3801 6.1293 9.37958 6.1293C9.37906 6.1293 9.37854 6.1293 9.37802 6.1293C9.3775 6.1293 9.37699 6.1293 9.37647 6.1293C9.37596 6.1293 9.37545 6.1293 9.37494 6.1293C9.37443 6.1293 9.37392 6.1293 9.37342 6.1293C9.37291 6.1293 9.37241 6.1293 9.37191 6.1293C9.3714 6.1293 9.3709 6.1293 9.37041 6.1293C9.36991 6.1293 9.36941 6.1293 9.36892 6.1293C9.36842 6.1293 9.36793 6.1293 9.36744 6.1293C9.36695 6.1293 9.36646 6.1293 9.36597 6.1293C9.36548 6.1293 9.365 6.1293 9.36451 6.1293C9.36403 6.1293 9.36355 6.1293 9.36307 6.1293C9.36259 6.1293 9.36211 6.1293 9.36164 6.1293C9.36116 6.1293 9.36069 6.1293 9.36021 6.1293C9.35974 6.1293 9.35927 6.1293 9.3588 6.1293C9.35833 6.1293 9.35786 6.1293 9.3574 6.1293C9.35693 6.1293 9.35647 6.1293 9.35601 6.1293C9.35555 6.1293 9.35509 6.1293 9.35463 6.1293C9.35417 6.1293 9.35372 6.1293 9.35326 6.1293C9.35281 6.1293 9.35236 6.1293 9.3519 6.1293C9.35145 6.1293 9.35101 6.1293 9.35056 6.1293C9.35011 6.1293 9.34967 6.1293 9.34922 6.1293C9.34878 6.1293 9.34834 6.1293 9.3479 6.1293C9.34746 6.1293 9.34702 6.1293 9.34658 6.1293C9.34615 6.1293 9.34571 6.1293 9.34528 6.1293C9.34485 6.1293 9.34442 6.1293 9.34399 6.1293C9.34356 6.1293 9.34313 6.1293 9.34271 6.1293C9.34228 6.1293 9.34186 6.1293 9.34144 6.1293C9.34101 6.1293 9.34059 6.1293 9.34018 6.1293C9.33976 6.1293 9.33934 6.1293 9.33893 6.1293C9.33851 6.1293 9.3381 6.1293 9.33769 6.1293C9.33728 6.1293 9.33687 6.1293 9.33646 6.1293C9.33605 6.1293 9.33565 6.1293 9.33524 6.1293C9.33484 6.1293 9.33444 6.1293 9.33404 6.1293C9.33363 6.1293 9.33324 6.1293 9.33284 6.1293C9.33244 6.1293 9.33205 6.1293 9.33165 6.1293C9.33126 6.1293 9.33087 6.1293 9.33048 6.1293C9.33009 6.1293 9.3297 6.1293 9.32931 6.1293C9.32893 6.1293 9.32854 6.1293 9.32816 6.1293C9.32778 6.1293 9.32739 6.1293 9.32702 6.1293C9.32664 6.1293 9.32626 6.1293 9.32588 6.1293C9.32551 6.1293 9.32513 6.1293 9.32476 6.1293C9.32439 6.1293 9.32402 6.1293 9.32365 6.1293C9.32328 6.1293 9.32291 6.1293 9.32255 6.1293C9.32218 6.1293 9.32182 6.1293 9.32145 6.1293C9.32109 6.1293 9.32073 6.1293 9.32037 6.1293C9.32001 6.1293 9.31966 6.1293 9.3193 6.1293C9.31895 6.1293 9.31859 6.1293 9.31824 6.1293C9.31789 6.1293 9.31754 6.1293 9.31719 6.1293C9.31684 6.1293 9.3165 6.1293 9.31615 6.1293C9.31581 6.1293 9.31546 6.1293 9.31512 6.1293C9.31478 6.1293 9.31444 6.1293 9.3141 6.1293C9.31377 6.1293 9.31343 6.1293 9.31309 6.1293C9.31276 6.1293 9.31243 6.1293 9.3121 6.1293C9.31176 6.1293 9.31143 6.1293 9.31111 6.1293C9.31078 6.1293 9.31045 6.1293 9.31013 6.1293C9.3098 6.1293 9.30948 6.1293 9.30916 6.1293C9.30884 6.1293 9.30852 6.1293 9.3082 6.1293C9.30788 6.1293 9.30757 6.1293 9.30725 6.1293C9.30694 6.1293 9.30663 6.1293 9.30632 6.1293C9.30601 6.1293 9.3057 6.1293 9.30539 6.1293C9.30508 6.1293 9.30478 6.1293 9.30447 6.1293C9.30417 6.1293 9.30386 6.1293 9.30356 6.1293C9.30326 6.1293 9.30296 6.1293 9.30267 6.1293C9.30237 6.1293 9.30207 6.1293 9.30178 6.1293C9.30148 6.1293 9.30119 6.1293 9.3009 6.1293C9.30061 6.1293 9.30032 6.1293 9.30003 6.1293C9.29975 6.1293 9.29946 6.1293 9.29918 6.1293C9.29889 6.1293 9.29861 6.1293 9.29833 6.1293C9.29805 6.1293 9.29777 6.1293 9.29749 6.1293C9.29721 6.1293 9.29694 6.1293 9.29666 6.1293C9.29639 6.1293 9.29611 6.1293 9.29584 6.1293C9.29557 6.1293 9.2953 6.1293 9.29503 6.1293C9.29477 6.1293 9.2945 6.1293 9.29424 6.1293C9.29397 6.1293 9.29371 6.1293 9.29345 6.1293C9.29319 6.1293 9.29293 6.1293 9.29267 6.1293C9.29241 6.1293 9.29215 6.1293 9.2919 6.1293C9.29164 6.1293 9.29139 6.1293 9.29114 6.1293C9.29089 6.1293 9.29064 6.1293 9.29039 6.1293C9.29014 6.1293 9.28989 6.1293 9.28965 6.1293C9.2894 6.1293 9.28916 6.1293 9.28892 6.1293C9.28868 6.1293 9.28844 6.1293 9.2882 6.1293C9.28796 6.1293 9.28772 6.1293 9.28749 6.1293C9.28725 6.1293 9.28702 6.1293 9.28679 6.1293C9.28655 6.1293 9.28632 6.1293 9.28609 6.1293C9.28587 6.1293 9.28564 6.1293 9.28541 6.1293C9.28519 6.1293 9.28496 6.1293 9.28474 6.1293C9.28452 6.1293 9.2843 6.1293 9.28408 6.1293C9.28386 6.1293 9.28364 6.1293 9.28342 6.1293C9.28321 6.1293 9.28299 6.1293 9.28278 6.1293C9.28257 6.1293 9.28235 6.1293 9.28214 6.1293C9.28193 6.1293 9.28173 6.1293 9.28152 6.1293C9.28131 6.1293 9.28111 6.1293 9.2809 6.1293C9.2807 6.1293 9.2805 6.1293 9.2803 6.1293C9.2801 6.1293 9.2799 6.1293 9.2797 6.1293C9.2795 6.1293 9.27931 6.1293 9.27911 6.1293C9.27892 6.1293 9.27873 6.1293 9.27853 6.1293C9.27834 6.1293 9.27815 6.1293 9.27797 6.1293C9.27778 6.1293 9.27759 6.1293 9.27741 6.1293C9.27722 6.1293 9.27704 6.1293 9.27686 6.1293C9.27667 6.1293 9.27649 6.1293 9.27632 6.1293C9.27614 6.1293 9.27596 6.1293 9.27578 6.1293C9.27561 6.1293 9.27543 6.1293 9.27526 6.1293C9.27509 6.1293 9.27492 6.1293 9.27475 6.1293C9.27458 6.1293 9.27441 6.1293 9.27424 6.1293C9.27408 6.1293 9.27391 6.1293 9.27375 6.1293C9.27359 6.1293 9.27342 6.1293 9.27326 6.1293C9.2731 6.1293 9.27294 6.1293 9.27279 6.1293C9.27263 6.1293 9.27247 6.1293 9.27232 6.1293C9.27217 6.1293 9.27201 6.1293 9.27186 6.1293C9.27171 6.1293 9.27156 6.1293 9.27141 6.1293C9.27126 6.1293 9.27112 6.1293 9.27097 6.1293C9.27083 6.1293 9.27068 6.1293 9.27054 6.1293C9.2704 6.1293 9.27026 6.1293 9.27012 6.1293C9.26998 6.1293 9.26984 6.1293 9.26971 6.1293C9.26957 6.1293 9.26944 6.1293 9.2693 6.1293C9.26917 6.1293 9.26904 6.1293 9.26891 6.1293C9.26878 6.1293 9.26865 6.1293 9.26852 6.1293C9.26839 6.1293 9.26827 6.1293 9.26814 6.1293C9.26802 6.1293 9.2679 6.1293 9.26778 6.1293C9.26765 6.1293 9.26753 6.1293 9.26742 6.1293C9.2673 6.1293 9.26718 6.1293 9.26707 6.1293C9.26695 6.1293 9.26684 6.1293 9.26672 6.1293C9.26661 6.1293 9.2665 6.1293 9.26639 6.1293C9.26628 6.1293 9.26617 6.1293 9.26607 6.1293C9.26596 6.1293 9.26586 6.1293 9.26575 6.1293C9.26565 6.1293 9.26555 6.1293 9.26545 6.1293C9.26535 6.1293 9.26525 6.1293 9.26515 6.1293C9.26505 6.1293 9.26495 6.1293 9.26486 6.1293C9.26476 6.1293 9.26467 6.1293 9.26458 6.1293C9.26449 6.1293 9.2644 6.1293 9.26431 6.1293C9.26422 6.1293 9.26413 6.1293 9.26404 6.1293C9.26396 6.1293 9.26387 6.1293 9.26379 6.1293C9.26371 6.1293 9.26363 6.1293 9.26354 6.1293C9.26346 6.1293 9.26339 6.1293 9.26331 6.1293C9.26323 6.1293 9.26315 6.1293 9.26308 6.1293C9.263 6.1293 9.26293 6.1293 9.26286 6.1293C9.26279 6.1293 9.26272 6.1293 9.26265 6.1293C9.26258 6.1293 9.26251 6.1293 9.26245 6.1293C9.26238 6.1293 9.26231 6.1293 9.26225 6.1293C9.26219 6.1293 9.26213 6.1293 9.26207 6.1293C9.262 6.1293 9.26195 6.1293 9.26189 6.1293C9.26183 6.1293 9.26177 6.1293 9.26172 6.1293C9.26166 6.1293 9.26161 6.1293 9.26156 6.1293C9.26151 6.1293 9.26146 6.1293 9.26141 6.1293C9.26136 6.1293 9.26131 6.1293 9.26126 6.1293C9.26122 6.1293 9.26117 6.1293 9.26113 6.1293C9.26108 6.1293 9.26104 6.1293 9.261 6.1293C9.26096 6.1293 9.26092 6.1293 9.26088 6.1293C9.26084 6.1293 9.26081 6.1293 9.26077 6.1293C9.26074 6.1293 9.2607 6.1293 9.26067 6.1293C9.26064 6.1293 9.26061 6.1293 9.26058 6.1293C9.26055 6.1293 9.26052 6.1293 9.26049 6.1293C9.26046 6.1293 9.26044 6.1293 9.26041 6.1293C9.26039 6.1293 9.26037 6.1293 9.26034 6.1293C9.26032 6.1293 9.2603 6.1293 9.26028 6.1293C9.26027 6.1293 9.26025 6.1293 9.26023 6.1293C9.26022 6.1293 9.2602 6.1293 9.26019 6.1293C9.26017 6.1293 9.26016 6.1293 9.26015 6.1293C9.26014 6.1293 9.26013 6.1293 9.26012 6.1293C9.26011 6.1293 9.26011 6.1293 9.2601 6.1293C9.2601 6.1293 9.26009 6.1293 9.26009 6.1293C9.26009 6.1293 9.26009 6.1293 9.26009 6.5293ZM10.7575 6.9293C11.2488 6.9293 11.6169 7.07868 11.8605 7.31714C12.1027 7.55425 12.2634 7.92003 12.2634 8.43521H13.0634C13.0634 7.74787 12.8443 7.16068 12.4202 6.74547C11.9974 6.33161 11.4125 6.1293 10.7575 6.1293V6.9293ZM12.2634 8.43521C12.2634 8.91459 12.073 9.23369 11.8241 9.44015C11.5638 9.65609 11.2254 9.75892 10.9397 9.75892V10.5589C11.3952 10.5589 11.9187 10.4012 12.3349 10.0559C12.7626 9.70111 13.0634 9.15835 13.0634 8.43521H12.2634ZM10.9397 9.75892C10.9382 9.75892 10.9368 9.75892 10.9353 9.75892C10.9339 9.75892 10.9324 9.75892 10.931 9.75892C10.9295 9.75892 10.928 9.75892 10.9266 9.75892C10.9251 9.75892 10.9236 9.75892 10.9221 9.75892C10.9207 9.75892 10.9192 9.75892 10.9177 9.75892C10.9162 9.75892 10.9147 9.75892 10.9132 9.75892C10.9117 9.75892 10.9102 9.75892 10.9087 9.75892C10.9072 9.75892 10.9057 9.75892 10.9042 9.75892C10.9027 9.75892 10.9012 9.75892 10.8997 9.75892C10.8982 9.75892 10.8967 9.75892 10.8952 9.75892C10.8936 9.75892 10.8921 9.75892 10.8906 9.75892C10.8891 9.75892 10.8875 9.75892 10.886 9.75892C10.8845 9.75892 10.8829 9.75892 10.8814 9.75892C10.8799 9.75892 10.8783 9.75892 10.8768 9.75892C10.8752 9.75892 10.8737 9.75892 10.8721 9.75892C10.8706 9.75892 10.869 9.75892 10.8674 9.75892C10.8659 9.75892 10.8643 9.75892 10.8628 9.75892C10.8612 9.75892 10.8596 9.75892 10.858 9.75892C10.8565 9.75892 10.8549 9.75892 10.8533 9.75892C10.8517 9.75892 10.8501 9.75892 10.8486 9.75892C10.847 9.75892 10.8454 9.75892 10.8438 9.75892C10.8422 9.75892 10.8406 9.75892 10.839 9.75892C10.8374 9.75892 10.8358 9.75892 10.8342 9.75892C10.8326 9.75892 10.831 9.75892 10.8294 9.75892C10.8278 9.75892 10.8261 9.75892 10.8245 9.75892C10.8229 9.75892 10.8213 9.75892 10.8196 9.75892C10.818 9.75892 10.8164 9.75892 10.8148 9.75892C10.8131 9.75892 10.8115 9.75892 10.8099 9.75892C10.8082 9.75892 10.8066 9.75892 10.8049 9.75892C10.8033 9.75892 10.8016 9.75892 10.8 9.75892C10.7983 9.75892 10.7967 9.75892 10.795 9.75892C10.7934 9.75892 10.7917 9.75892 10.7901 9.75892C10.7884 9.75892 10.7867 9.75892 10.7851 9.75892C10.7834 9.75892 10.7817 9.75892 10.78 9.75892C10.7784 9.75892 10.7767 9.75892 10.775 9.75892C10.7733 9.75892 10.7716 9.75892 10.77 9.75892C10.7683 9.75892 10.7666 9.75892 10.7649 9.75892C10.7632 9.75892 10.7615 9.75892 10.7598 9.75892C10.7581 9.75892 10.7564 9.75892 10.7547 9.75892C10.753 9.75892 10.7513 9.75892 10.7496 9.75892C10.7479 9.75892 10.7462 9.75892 10.7444 9.75892C10.7427 9.75892 10.741 9.75892 10.7393 9.75892C10.7376 9.75892 10.7358 9.75892 10.7341 9.75892C10.7324 9.75892 10.7306 9.75892 10.7289 9.75892C10.7272 9.75892 10.7254 9.75892 10.7237 9.75892C10.722 9.75892 10.7202 9.75892 10.7185 9.75892C10.7167 9.75892 10.715 9.75892 10.7132 9.75892C10.7115 9.75892 10.7097 9.75892 10.708 9.75892C10.7062 9.75892 10.7045 9.75892 10.7027 9.75892C10.701 9.75892 10.6992 9.75892 10.6974 9.75892C10.6957 9.75892 10.6939 9.75892 10.6921 9.75892C10.6904 9.75892 10.6886 9.75892 10.6868 9.75892C10.685 9.75892 10.6832 9.75892 10.6815 9.75892C10.6797 9.75892 10.6779 9.75892 10.6761 9.75892C10.6743 9.75892 10.6725 9.75892 10.6707 9.75892C10.669 9.75892 10.6672 9.75892 10.6654 9.75892C10.6636 9.75892 10.6618 9.75892 10.66 9.75892C10.6582 9.75892 10.6564 9.75892 10.6545 9.75892C10.6527 9.75892 10.6509 9.75892 10.6491 9.75892C10.6473 9.75892 10.6455 9.75892 10.6437 9.75892C10.6419 9.75892 10.64 9.75892 10.6382 9.75892C10.6364 9.75892 10.6346 9.75892 10.6327 9.75892C10.6309 9.75892 10.6291 9.75892 10.6272 9.75892C10.6254 9.75892 10.6236 9.75892 10.6217 9.75892C10.6199 9.75892 10.6181 9.75892 10.6162 9.75892C10.6144 9.75892 10.6125 9.75892 10.6107 9.75892C10.6088 9.75892 10.607 9.75892 10.6051 9.75892C10.6033 9.75892 10.6014 9.75892 10.5996 9.75892C10.5977 9.75892 10.5959 9.75892 10.594 9.75892C10.5922 9.75892 10.5903 9.75892 10.5884 9.75892C10.5866 9.75892 10.5847 9.75892 10.5828 9.75892C10.581 9.75892 10.5791 9.75892 10.5772 9.75892C10.5753 9.75892 10.5735 9.75892 10.5716 9.75892C10.5697 9.75892 10.5678 9.75892 10.5659 9.75892C10.5641 9.75892 10.5622 9.75892 10.5603 9.75892C10.5584 9.75892 10.5565 9.75892 10.5546 9.75892C10.5527 9.75892 10.5508 9.75892 10.5489 9.75892C10.547 9.75892 10.5451 9.75892 10.5432 9.75892C10.5413 9.75892 10.5394 9.75892 10.5375 9.75892C10.5356 9.75892 10.5337 9.75892 10.5318 9.75892C10.5299 9.75892 10.528 9.75892 10.5261 9.75892C10.5242 9.75892 10.5222 9.75892 10.5203 9.75892C10.5184 9.75892 10.5165 9.75892 10.5146 9.75892C10.5127 9.75892 10.5107 9.75892 10.5088 9.75892C10.5069 9.75892 10.505 9.75892 10.503 9.75892C10.5011 9.75892 10.4992 9.75892 10.4972 9.75892C10.4953 9.75892 10.4934 9.75892 10.4914 9.75892C10.4895 9.75892 10.4875 9.75892 10.4856 9.75892C10.4837 9.75892 10.4817 9.75892 10.4798 9.75892C10.4778 9.75892 10.4759 9.75892 10.4739 9.75892C10.472 9.75892 10.47 9.75892 10.4681 9.75892C10.4661 9.75892 10.4642 9.75892 10.4622 9.75892C10.4603 9.75892 10.4583 9.75892 10.4564 9.75892C10.4544 9.75892 10.4524 9.75892 10.4505 9.75892C10.4485 9.75892 10.4465 9.75892 10.4446 9.75892C10.4426 9.75892 10.4406 9.75892 10.4387 9.75892C10.4367 9.75892 10.4347 9.75892 10.4328 9.75892C10.4308 9.75892 10.4288 9.75892 10.4268 9.75892C10.4248 9.75892 10.4229 9.75892 10.4209 9.75892C10.4189 9.75892 10.4169 9.75892 10.4149 9.75892C10.413 9.75892 10.411 9.75892 10.409 9.75892C10.407 9.75892 10.405 9.75892 10.403 9.75892C10.401 9.75892 10.399 9.75892 10.397 9.75892C10.395 9.75892 10.393 9.75892 10.391 9.75892C10.3891 9.75892 10.3871 9.75892 10.3851 9.75892C10.3831 9.75892 10.381 9.75892 10.379 9.75892C10.377 9.75892 10.375 9.75892 10.373 9.75892C10.371 9.75892 10.369 9.75892 10.367 9.75892C10.365 9.75892 10.363 9.75892 10.361 9.75892C10.359 9.75892 10.3569 9.75892 10.3549 9.75892C10.3529 9.75892 10.3509 9.75892 10.3489 9.75892C10.3469 9.75892 10.3448 9.75892 10.3428 9.75892C10.3408 9.75892 10.3388 9.75892 10.3367 9.75892C10.3347 9.75892 10.3327 9.75892 10.3307 9.75892C10.3286 9.75892 10.3266 9.75892 10.3246 9.75892C10.3225 9.75892 10.3205 9.75892 10.3185 9.75892C10.3164 9.75892 10.3144 9.75892 10.3124 9.75892C10.3103 9.75892 10.3083 9.75892 10.3063 9.75892C10.3042 9.75892 10.3022 9.75892 10.3001 9.75892C10.2981 9.75892 10.2961 9.75892 10.294 9.75892C10.292 9.75892 10.2899 9.75892 10.2879 9.75892C10.2858 9.75892 10.2838 9.75892 10.2817 9.75892C10.2797 9.75892 10.2776 9.75892 10.2756 9.75892C10.2735 9.75892 10.2715 9.75892 10.2694 9.75892C10.2674 9.75892 10.2653 9.75892 10.2633 9.75892C10.2612 9.75892 10.2592 9.75892 10.2571 9.75892C10.255 9.75892 10.253 9.75892 10.2509 9.75892C10.2489 9.75892 10.2468 9.75892 10.2447 9.75892C10.2427 9.75892 10.2406 9.75892 10.2385 9.75892C10.2365 9.75892 10.2344 9.75892 10.2323 9.75892C10.2303 9.75892 10.2282 9.75892 10.2261 9.75892C10.2241 9.75892 10.222 9.75892 10.2199 9.75892C10.2178 9.75892 10.2158 9.75892 10.2137 9.75892C10.2116 9.75892 10.2096 9.75892 10.2075 9.75892C10.2054 9.75892 10.2033 9.75892 10.2012 9.75892C10.1992 9.75892 10.1971 9.75892 10.195 9.75892C10.1929 9.75892 10.1908 9.75892 10.1888 9.75892C10.1867 9.75892 10.1846 9.75892 10.1825 9.75892C10.1804 9.75892 10.1783 9.75892 10.1763 9.75892C10.1742 9.75892 10.1721 9.75892 10.17 9.75892C10.1679 9.75892 10.1658 9.75892 10.1637 9.75892C10.1616 9.75892 10.1596 9.75892 10.1575 9.75892C10.1554 9.75892 10.1533 9.75892 10.1512 9.75892C10.1491 9.75892 10.147 9.75892 10.1449 9.75892C10.1428 9.75892 10.1407 9.75892 10.1386 9.75892C10.1365 9.75892 10.1344 9.75892 10.1323 9.75892C10.1302 9.75892 10.1281 9.75892 10.126 9.75892C10.1239 9.75892 10.1218 9.75892 10.1197 9.75892C10.1176 9.75892 10.1155 9.75892 10.1134 9.75892C10.1113 9.75892 10.1092 9.75892 10.1071 9.75892C10.105 9.75892 10.1029 9.75892 10.1008 9.75892C10.0987 9.75892 10.0966 9.75892 10.0945 9.75892C10.0924 9.75892 10.0903 9.75892 10.0882 9.75892C10.0861 9.75892 10.084 9.75892 10.0819 9.75892C10.0797 9.75892 10.0776 9.75892 10.0755 9.75892C10.0734 9.75892 10.0713 9.75892 10.0692 9.75892C10.0671 9.75892 10.065 9.75892 10.0629 9.75892C10.0608 9.75892 10.0586 9.75892 10.0565 9.75892C10.0544 9.75892 10.0523 9.75892 10.0502 9.75892C10.0481 9.75892 10.046 9.75892 10.0438 9.75892C10.0417 9.75892 10.0396 9.75892 10.0375 9.75892C10.0354 9.75892 10.0333 9.75892 10.0311 9.75892C10.029 9.75892 10.0269 9.75892 10.0248 9.75892C10.0227 9.75892 10.0206 9.75892 10.0184 9.75892C10.0163 9.75892 10.0142 9.75892 10.0121 9.75892C10.01 9.75892 10.0078 9.75892 10.0057 9.75892C10.0036 9.75892 10.0015 9.75892 9.99936 9.75892C9.99724 9.75892 9.99511 9.75892 9.99299 9.75892C9.99087 9.75892 9.98875 9.75892 9.98663 9.75892C9.9845 9.75892 9.98238 9.75892 9.98026 9.75892C9.97813 9.75892 9.97601 9.75892 9.97389 9.75892C9.97176 9.75892 9.96964 9.75892 9.96752 9.75892C9.96539 9.75892 9.96327 9.75892 9.96114 9.75892C9.95902 9.75892 9.95689 9.75892 9.95477 9.75892C9.95264 9.75892 9.95052 9.75892 9.94839 9.75892C9.94627 9.75892 9.94414 9.75892 9.94201 9.75892C9.93989 9.75892 9.93776 9.75892 9.93564 9.75892C9.93351 9.75892 9.93138 9.75892 9.92926 9.75892C9.92713 9.75892 9.925 9.75892 9.92288 9.75892C9.92075 9.75892 9.91862 9.75892 9.9165 9.75892C9.91437 9.75892 9.91224 9.75892 9.91011 9.75892C9.90799 9.75892 9.90586 9.75892 9.90373 9.75892C9.9016 9.75892 9.89948 9.75892 9.89735 9.75892C9.89522 9.75892 9.89309 9.75892 9.89097 9.75892C9.88884 9.75892 9.88671 9.75892 9.88458 9.75892C9.88246 9.75892 9.88033 9.75892 9.8782 9.75892C9.87607 9.75892 9.87395 9.75892 9.87182 9.75892C9.86969 9.75892 9.86757 9.75892 9.86544 9.75892C9.86331 9.75892 9.86118 9.75892 9.85906 9.75892C9.85693 9.75892 9.8548 9.75892 9.85267 9.75892C9.85055 9.75892 9.84842 9.75892 9.84629 9.75892C9.84417 9.75892 9.84204 9.75892 9.83991 9.75892C9.83779 9.75892 9.83566 9.75892 9.83353 9.75892C9.83141 9.75892 9.82928 9.75892 9.82716 9.75892C9.82503 9.75892 9.82291 9.75892 9.82078 9.75892C9.81865 9.75892 9.81653 9.75892 9.8144 9.75892C9.81228 9.75892 9.81015 9.75892 9.80803 9.75892C9.8059 9.75892 9.80378 9.75892 9.80166 9.75892C9.79953 9.75892 9.79741 9.75892 9.79528 9.75892C9.79316 9.75892 9.79104 9.75892 9.78891 9.75892C9.78679 9.75892 9.78467 9.75892 9.78255 9.75892C9.78042 9.75892 9.7783 9.75892 9.77618 9.75892C9.77406 9.75892 9.77194 9.75892 9.76982 9.75892C9.7677 9.75892 9.76557 9.75892 9.76345 9.75892C9.76133 9.75892 9.75921 9.75892 9.75709 9.75892C9.75498 9.75892 9.75286 9.75892 9.75074 9.75892C9.74862 9.75892 9.7465 9.75892 9.74438 9.75892C9.74227 9.75892 9.74015 9.75892 9.73803 9.75892C9.73591 9.75892 9.7338 9.75892 9.73168 9.75892C9.72957 9.75892 9.72745 9.75892 9.72534 9.75892C9.72322 9.75892 9.72111 9.75892 9.71899 9.75892C9.71688 9.75892 9.71476 9.75892 9.71265 9.75892C9.71054 9.75892 9.70843 9.75892 9.70631 9.75892C9.7042 9.75892 9.70209 9.75892 9.69998 9.75892C9.69787 9.75892 9.69576 9.75892 9.69365 9.75892C9.69154 9.75892 9.68943 9.75892 9.68732 9.75892C9.68521 9.75892 9.68311 9.75892 9.681 9.75892C9.67889 9.75892 9.67679 9.75892 9.67468 9.75892C9.67258 9.75892 9.67047 9.75892 9.66837 9.75892C9.66626 9.75892 9.66416 9.75892 9.66205 9.75892C9.65995 9.75892 9.65785 9.75892 9.65575 9.75892C9.65365 9.75892 9.65155 9.75892 9.64945 9.75892C9.64735 9.75892 9.64525 9.75892 9.64315 9.75892C9.64105 9.75892 9.63895 9.75892 9.63685 9.75892C9.63476 9.75892 9.63266 9.75892 9.63056 9.75892C9.62847 9.75892 9.62637 9.75892 9.62428 9.75892C9.62219 9.75892 9.62009 9.75892 9.618 9.75892C9.61591 9.75892 9.61382 9.75892 9.61173 9.75892C9.60964 9.75892 9.60755 9.75892 9.60546 9.75892C9.60337 9.75892 9.60128 9.75892 9.59919 9.75892C9.59711 9.75892 9.59502 9.75892 9.59293 9.75892C9.59085 9.75892 9.58877 9.75892 9.58668 9.75892C9.5846 9.75892 9.58252 9.75892 9.58043 9.75892C9.57835 9.75892 9.57627 9.75892 9.57419 9.75892C9.57211 9.75892 9.57003 9.75892 9.56796 9.75892C9.56588 9.75892 9.5638 9.75892 9.56173 9.75892C9.55965 9.75892 9.55758 9.75892 9.5555 9.75892C9.55343 9.75892 9.55136 9.75892 9.54929 9.75892C9.54721 9.75892 9.54514 9.75892 9.54307 9.75892C9.54101 9.75892 9.53894 9.75892 9.53687 9.75892C9.5348 9.75892 9.53274 9.75892 9.53067 9.75892C9.52861 9.75892 9.52654 9.75892 9.52448 9.75892C9.52242 9.75892 9.52036 9.75892 9.5183 9.75892C9.51624 9.75892 9.51418 9.75892 9.51212 9.75892C9.51006 9.75892 9.508 9.75892 9.50595 9.75892C9.50389 9.75892 9.50184 9.75892 9.49978 9.75892C9.49773 9.75892 9.49568 9.75892 9.49363 9.75892C9.49158 9.75892 9.48953 9.75892 9.48748 9.75892C9.48543 9.75892 9.48338 9.75892 9.48134 9.75892C9.47929 9.75892 9.47725 9.75892 9.4752 9.75892C9.47316 9.75892 9.47112 9.75892 9.46908 9.75892C9.46704 9.75892 9.465 9.75892 9.46296 9.75892C9.46092 9.75892 9.45889 9.75892 9.45685 9.75892C9.45482 9.75892 9.45278 9.75892 9.45075 9.75892C9.44872 9.75892 9.44669 9.75892 9.44466 9.75892C9.44263 9.75892 9.4406 9.75892 9.43857 9.75892C9.43654 9.75892 9.43452 9.75892 9.43249 9.75892C9.43047 9.75892 9.42845 9.75892 9.42643 9.75892C9.4244 9.75892 9.42238 9.75892 9.42037 9.75892C9.41835 9.75892 9.41633 9.75892 9.41432 9.75892C9.4123 9.75892 9.41029 9.75892 9.40827 9.75892C9.40626 9.75892 9.40425 9.75892 9.40224 9.75892C9.40023 9.75892 9.39822 9.75892 9.39622 9.75892C9.39421 9.75892 9.39221 9.75892 9.3902 9.75892C9.3882 9.75892 9.3862 9.75892 9.3842 9.75892C9.3822 9.75892 9.3802 9.75892 9.3782 9.75892C9.37621 9.75892 9.37421 9.75892 9.37222 9.75892C9.37023 9.75892 9.36823 9.75892 9.36624 9.75892C9.36425 9.75892 9.36226 9.75892 9.36028 9.75892C9.35829 9.75892 9.35631 9.75892 9.35432 9.75892C9.35234 9.75892 9.35036 9.75892 9.34838 9.75892C9.3464 9.75892 9.34442 9.75892 9.34244 9.75892C9.34047 9.75892 9.33849 9.75892 9.33652 9.75892C9.33454 9.75892 9.33257 9.75892 9.3306 9.75892C9.32863 9.75892 9.32667 9.75892 9.3247 9.75892C9.32273 9.75892 9.32077 9.75892 9.31881 9.75892C9.31684 9.75892 9.31488 9.75892 9.31292 9.75892C9.31097 9.75892 9.30901 9.75892 9.30705 9.75892C9.3051 9.75892 9.30314 9.75892 9.30119 9.75892C9.29924 9.75892 9.29729 9.75892 9.29534 9.75892C9.2934 9.75892 9.29145 9.75892 9.28951 9.75892C9.28756 9.75892 9.28562 9.75892 9.28368 9.75892C9.28174 9.75892 9.2798 9.75892 9.27787 9.75892C9.27593 9.75892 9.274 9.75892 9.27206 9.75892C9.27013 9.75892 9.2682 9.75892 9.26627 9.75892C9.26435 9.75892 9.26242 9.75892 9.2605 9.75892C9.25857 9.75892 9.25665 9.75892 9.25473 9.75892C9.25281 9.75892 9.25089 9.75892 9.24897 9.75892C9.24706 9.75892 9.24514 9.75892 9.24323 9.75892C9.24132 9.75892 9.23941 9.75892 9.2375 9.75892C9.23559 9.75892 9.23369 9.75892 9.23178 9.75892C9.22988 9.75892 9.22798 9.75892 9.22608 9.75892C9.22418 9.75892 9.22228 9.75892 9.22039 9.75892C9.21849 9.75892 9.2166 9.75892 9.21471 9.75892C9.21282 9.75892 9.21093 9.75892 9.20904 9.75892C9.20716 9.75892 9.20527 9.75892 9.20339 9.75892C9.20151 9.75892 9.19963 9.75892 9.19775 9.75892C9.19587 9.75892 9.194 9.75892 9.19212 9.75892C9.19025 9.75892 9.18838 9.75892 9.18651 9.75892C9.18464 9.75892 9.18278 9.75892 9.18091 9.75892C9.17905 9.75892 9.17719 9.75892 9.17533 9.75892C9.17347 9.75892 9.17161 9.75892 9.16976 9.75892C9.1679 9.75892 9.16605 9.75892 9.1642 9.75892C9.16235 9.75892 9.1605 9.75892 9.15865 9.75892C9.15681 9.75892 9.15497 9.75892 9.15313 9.75892C9.15128 9.75892 9.14945 9.75892 9.14761 9.75892C9.14577 9.75892 9.14394 9.75892 9.14211 9.75892C9.14028 9.75892 9.13845 9.75892 9.13662 9.75892C9.1348 9.75892 9.13297 9.75892 9.13115 9.75892C9.12933 9.75892 9.12751 9.75892 9.1257 9.75892C9.12388 9.75892 9.12207 9.75892 9.12026 9.75892C9.11844 9.75892 9.11664 9.75892 9.11483 9.75892C9.11302 9.75892 9.11122 9.75892 9.10942 9.75892C9.10762 9.75892 9.10582 9.75892 9.10402 9.75892C9.10223 9.75892 9.10043 9.75892 9.09864 9.75892C9.09685 9.75892 9.09506 9.75892 9.09328 9.75892C9.09149 9.75892 9.08971 9.75892 9.08793 9.75892C9.08615 9.75892 9.08437 9.75892 9.08259 9.75892C9.08082 9.75892 9.07905 9.75892 9.07728 9.75892C9.07551 9.75892 9.07374 9.75892 9.07197 9.75892C9.07021 9.75892 9.06845 9.75892 9.06669 9.75892C9.06493 9.75892 9.06317 9.75892 9.06142 9.75892C9.05966 9.75892 9.05791 9.75892 9.05617 9.75892C9.05442 9.75892 9.05267 9.75892 9.05093 9.75892C9.04919 9.75892 9.04745 9.75892 9.04571 9.75892C9.04397 9.75892 9.04224 9.75892 9.04051 9.75892C9.03877 9.75892 9.03705 9.75892 9.03532 9.75892C9.03359 9.75892 9.03187 9.75892 9.03015 9.75892C9.02843 9.75892 9.02671 9.75892 9.025 9.75892C9.02328 9.75892 9.02157 9.75892 9.01986 9.75892C9.01815 9.75892 9.01645 9.75892 9.01474 9.75892C9.01304 9.75892 9.01134 9.75892 9.00964 9.75892C9.00795 9.75892 9.00625 9.75892 9.00456 9.75892C9.00287 9.75892 9.00118 9.75892 8.9995 9.75892C8.99781 9.75892 8.99613 9.75892 8.99445 9.75892C8.99277 9.75892 8.99109 9.75892 8.98942 9.75892C8.98774 9.75892 8.98607 9.75892 8.98441 9.75892C8.98274 9.75892 8.98107 9.75892 8.97941 9.75892C8.97775 9.75892 8.97609 9.75892 8.97444 9.75892C8.97278 9.75892 8.97113 9.75892 8.96948 9.75892C8.96783 9.75892 8.96619 9.75892 8.96454 9.75892C8.9629 9.75892 8.96126 9.75892 8.95962 9.75892C8.95799 9.75892 8.95635 9.75892 8.95472 9.75892C8.95309 9.75892 8.95147 9.75892 8.94984 9.75892C8.94822 9.75892 8.9466 9.75892 8.94498 9.75892C8.94336 9.75892 8.94175 9.75892 8.94013 9.75892C8.93852 9.75892 8.93691 9.75892 8.93531 9.75892C8.9337 9.75892 8.9321 9.75892 8.9305 9.75892C8.92891 9.75892 8.92731 9.75892 8.92572 9.75892C8.92413 9.75892 8.92254 9.75892 8.92095 9.75892C8.91937 9.75892 8.91778 9.75892 8.91621 9.75892C8.91463 9.75892 8.91305 9.75892 8.91148 9.75892C8.90991 9.75892 8.90834 9.75892 8.90677 9.75892C8.90521 9.75892 8.90364 9.75892 8.90208 9.75892C8.90053 9.75892 8.89897 9.75892 8.89742 9.75892C8.89587 9.75892 8.89432 9.75892 8.89277 9.75892C8.89123 9.75892 8.88968 9.75892 8.88815 9.75892C8.88661 9.75892 8.88507 9.75892 8.88354 9.75892C8.88201 9.75892 8.88048 9.75892 8.87896 9.75892C8.87743 9.75892 8.87591 9.75892 8.87439 9.75892C8.87287 9.75892 8.87136 9.75892 8.86985 9.75892C8.86834 9.75892 8.86683 9.75892 8.86533 9.75892C8.86382 9.75892 8.86232 9.75892 8.86083 9.75892C8.85933 9.75892 8.85784 9.75892 8.85635 9.75892C8.85486 9.75892 8.85337 9.75892 8.85189 9.75892C8.85041 9.75892 8.84893 9.75892 8.84745 9.75892C8.84598 9.75892 8.8445 9.75892 8.84304 9.75892C8.84157 9.75892 8.8401 9.75892 8.83864 9.75892C8.83718 9.75892 8.83572 9.75892 8.83427 9.75892C8.83282 9.75892 8.83137 9.75892 8.82992 9.75892C8.82847 9.75892 8.82703 9.75892 8.82559 9.75892C8.82415 9.75892 8.82272 9.75892 8.82129 9.75892C8.81986 9.75892 8.81843 9.75892 8.817 9.75892C8.81558 9.75892 8.81416 9.75892 8.81274 9.75892C8.81133 9.75892 8.80991 9.75892 8.80851 9.75892C8.8071 9.75892 8.80569 9.75892 8.80429 9.75892C8.80289 9.75892 8.80149 9.75892 8.8001 9.75892C8.7987 9.75892 8.79731 9.75892 8.79593 9.75892C8.79454 9.75892 8.79316 9.75892 8.79178 9.75892C8.7904 9.75892 8.78903 9.75892 8.78766 9.75892C8.78629 9.75892 8.78492 9.75892 8.78356 9.75892C8.78219 9.75892 8.78084 9.75892 8.77948 9.75892C8.77813 9.75892 8.77677 9.75892 8.77543 9.75892C8.77408 9.75892 8.77274 9.75892 8.7714 9.75892C8.77006 9.75892 8.76872 9.75892 8.76739 9.75892C8.76606 9.75892 8.76473 9.75892 8.76341 9.75892C8.76209 9.75892 8.76077 9.75892 8.75945 9.75892C8.75814 9.75892 8.75683 9.75892 8.75552 9.75892C8.75421 9.75892 8.75291 9.75892 8.75161 9.75892C8.75031 9.75892 8.74901 9.75892 8.74772 9.75892C8.74643 9.75892 8.74514 9.75892 8.74386 9.75892C8.74258 9.75892 8.7413 9.75892 8.74003 9.75892C8.73875 9.75892 8.73748 9.75892 8.73621 9.75892C8.73495 9.75892 8.73369 9.75892 8.73243 9.75892C8.73117 9.75892 8.72992 9.75892 8.72867 9.75892C8.72742 9.75892 8.72617 9.75892 8.72493 9.75892C8.72369 9.75892 8.72245 9.75892 8.72122 9.75892C8.71998 9.75892 8.71876 9.75892 8.71753 9.75892C8.71631 9.75892 8.71509 9.75892 8.71387 9.75892C8.71265 9.75892 8.71144 9.75892 8.71023 9.75892C8.70903 9.75892 8.70782 9.75892 8.70663 9.75892C8.70543 9.75892 8.70423 9.75892 8.70304 9.75892C8.70185 9.75892 8.70067 9.75892 8.69948 9.75892C8.6983 9.75892 8.69712 9.75892 8.69595 9.75892C8.69478 9.75892 8.69361 9.75892 8.69245 9.75892C8.69128 9.75892 8.69012 9.75892 8.68897 9.75892C8.68781 9.75892 8.68666 9.75892 8.68551 9.75892C8.68437 9.75892 8.68322 9.75892 8.68209 9.75892C8.68095 9.75892 8.67982 9.75892 8.67869 9.75892C8.67756 9.75892 8.67643 9.75892 8.67531 9.75892C8.67419 9.75892 8.67308 9.75892 8.67197 9.75892C8.67086 9.75892 8.66975 9.75892 8.66865 9.75892C8.66755 9.75892 8.66645 9.75892 8.66535 9.75892C8.66426 9.75892 8.66317 9.75892 8.66209 9.75892C8.66101 9.75892 8.65993 9.75892 8.65885 9.75892C8.65778 9.75892 8.65671 9.75892 8.65564 9.75892C8.65458 9.75892 8.65351 9.75892 8.65246 9.75892C8.6514 9.75892 8.65035 9.75892 8.6493 9.75892C8.64826 9.75892 8.64721 9.75892 8.64618 9.75892C8.64514 9.75892 8.64411 9.75892 8.64308 9.75892C8.64205 9.75892 8.64102 9.75892 8.64001 9.75892C8.63899 9.75892 8.63797 9.75892 8.63696 9.75892C8.63595 9.75892 8.63495 9.75892 8.63395 9.75892C8.63295 9.75892 8.63195 9.75892 8.63096 9.75892C8.62997 9.75892 8.62898 9.75892 8.628 9.75892C8.62702 9.75892 8.62605 9.75892 8.62507 9.75892C8.6241 9.75892 8.62314 9.75892 8.62217 9.75892C8.62121 9.75892 8.62025 9.75892 8.6193 9.75892C8.61835 9.75892 8.6174 9.75892 8.61646 9.75892C8.61552 9.75892 8.61458 9.75892 8.61365 9.75892C8.61271 9.75892 8.61178 9.75892 8.61086 9.75892C8.60994 9.75892 8.60902 9.75892 8.60811 9.75892C8.60719 9.75892 8.60628 9.75892 8.60538 9.75892C8.60448 9.75892 8.60358 9.75892 8.60268 9.75892C8.60179 9.75892 8.6009 9.75892 8.60002 9.75892C8.59914 9.75892 8.59826 9.75892 8.59738 9.75892C8.59651 9.75892 8.59564 9.75892 8.59478 9.75892C8.59391 9.75892 8.59305 9.75892 8.5922 9.75892C8.59135 9.75892 8.5905 9.75892 8.58965 9.75892C8.58881 9.75892 8.58797 9.75892 8.58714 9.75892C8.5863 9.75892 8.58548 9.75892 8.58465 9.75892C8.58383 9.75892 8.58301 9.75892 8.5822 9.75892C8.58139 9.75892 8.58058 9.75892 8.57977 9.75892C8.57897 9.75892 8.57817 9.75892 8.57738 9.75892C8.57659 9.75892 8.5758 9.75892 8.57502 9.75892C8.57424 9.75892 8.57346 9.75892 8.57269 9.75892C8.57192 9.75892 8.57115 9.75892 8.57039 9.75892C8.56963 9.75892 8.56887 9.75892 8.56812 9.75892C8.56737 9.75892 8.56662 9.75892 8.56588 9.75892C8.56514 9.75892 8.5644 9.75892 8.56367 9.75892C8.56294 9.75892 8.56222 9.75892 8.5615 9.75892C8.56078 9.75892 8.56007 9.75892 8.55936 9.75892C8.55865 9.75892 8.55794 9.75892 8.55725 9.75892C8.55655 9.75892 8.55586 9.75892 8.55517 9.75892C8.55448 9.75892 8.5538 9.75892 8.55312 9.75892C8.55244 9.75892 8.55177 9.75892 8.55111 9.75892C8.55044 9.75892 8.54978 9.75892 8.54912 9.75892C8.54847 9.75892 8.54782 9.75892 8.54717 9.75892C8.54653 9.75892 8.54589 9.75892 8.54526 9.75892C8.54462 9.75892 8.544 9.75892 8.54337 9.75892C8.54275 9.75892 8.54213 9.75892 8.54152 9.75892C8.54091 9.75892 8.5403 9.75892 8.5397 9.75892C8.5391 9.75892 8.53851 9.75892 8.53792 9.75892C8.53733 9.75892 8.53674 9.75892 8.53617 9.75892C8.53559 9.75892 8.53501 9.75892 8.53445 9.75892C8.53388 9.75892 8.53332 9.75892 8.53276 9.75892C8.5322 9.75892 8.53165 9.75892 8.53111 9.75892C8.53056 9.75892 8.53002 9.75892 8.52949 9.75892C8.52896 9.75892 8.52843 9.75892 8.52791 9.75892C8.52738 9.75892 8.52687 9.75892 8.52635 9.75892C8.52584 9.75892 8.52534 9.75892 8.52484 9.75892C8.52434 9.75892 8.52384 9.75892 8.52336 9.75892C8.52287 9.75892 8.52238 9.75892 8.52191 9.75892C8.52143 9.75892 8.52096 9.75892 8.52049 9.75892C8.52003 9.75892 8.51957 9.75892 8.51911 9.75892C8.51866 9.75892 8.51821 9.75892 8.51777 9.75892C8.51733 9.75892 8.51689 9.75892 8.51646 9.75892C8.51603 9.75892 8.5156 9.75892 8.51518 9.75892C8.51476 9.75892 8.51435 9.75892 8.51394 9.75892C8.51353 9.75892 8.51313 9.75892 8.51274 9.75892C8.51234 9.75892 8.51195 9.75892 8.51157 9.75892C8.51118 9.75892 8.5108 9.75892 8.51043 9.75892C8.51006 9.75892 8.50969 9.75892 8.50933 9.75892C8.50897 9.75892 8.50862 9.75892 8.50827 9.75892C8.50792 9.75892 8.50758 9.75892 8.50724 9.75892C8.5069 9.75892 8.50657 9.75892 8.50625 9.75892C8.50592 9.75892 8.50561 9.75892 8.50529 9.75892C8.50498 9.75892 8.50467 9.75892 8.50437 9.75892C8.50407 9.75892 8.50378 9.75892 8.50349 9.75892C8.5032 9.75892 8.50292 9.75892 8.50264 9.75892C8.50236 9.75892 8.50209 9.75892 8.50183 9.75892C8.50156 9.75892 8.50131 9.75892 8.50105 9.75892C8.5008 9.75892 8.50056 9.75892 8.50032 9.75892C8.50008 9.75892 8.49984 9.75892 8.49961 9.75892C8.49939 9.75892 8.49916 9.75892 8.49895 9.75892C8.49873 9.75892 8.49852 9.75892 8.49832 9.75892C8.49812 9.75892 8.49792 9.75892 8.49773 9.75892C8.49754 9.75892 8.49736 9.75892 8.49718 9.75892C8.497 9.75892 8.49683 9.75892 8.49666 9.75892C8.4965 9.75892 8.49634 9.75892 8.49618 9.75892C8.49603 9.75892 8.49588 9.75892 8.49574 9.75892C8.4956 9.75892 8.49547 9.75892 8.49534 9.75892C8.49521 9.75892 8.49509 9.75892 8.49497 9.75892C8.49486 9.75892 8.49475 9.75892 8.49465 9.75892C8.49454 9.75892 8.49445 9.75892 8.49436 9.75892C8.49427 9.75892 8.49418 9.75892 8.49411 9.75892C8.49403 9.75892 8.49396 9.75892 8.49389 9.75892C8.49383 9.75892 8.49377 9.75892 8.49372 9.75892C8.49367 9.75892 8.49362 9.75892 8.49358 9.75892C8.49354 9.75892 8.49351 9.75892 8.49349 9.75892C8.49346 9.75892 8.49344 9.75892 8.49343 9.75892C8.49341 9.75892 8.49341 9.75892 8.49341 10.1589C8.49341 10.5589 8.49341 10.5589 8.49343 10.5589C8.49344 10.5589 8.49346 10.5589 8.49349 10.5589C8.49351 10.5589 8.49354 10.5589 8.49358 10.5589C8.49362 10.5589 8.49367 10.5589 8.49372 10.5589C8.49377 10.5589 8.49383 10.5589 8.49389 10.5589C8.49396 10.5589 8.49403 10.5589 8.49411 10.5589C8.49418 10.5589 8.49427 10.5589 8.49436 10.5589C8.49445 10.5589 8.49454 10.5589 8.49465 10.5589C8.49475 10.5589 8.49486 10.5589 8.49497 10.5589C8.49509 10.5589 8.49521 10.5589 8.49534 10.5589C8.49547 10.5589 8.4956 10.5589 8.49574 10.5589C8.49588 10.5589 8.49603 10.5589 8.49618 10.5589C8.49634 10.5589 8.4965 10.5589 8.49666 10.5589C8.49683 10.5589 8.497 10.5589 8.49718 10.5589C8.49736 10.5589 8.49754 10.5589 8.49773 10.5589C8.49792 10.5589 8.49812 10.5589 8.49832 10.5589C8.49852 10.5589 8.49873 10.5589 8.49895 10.5589C8.49916 10.5589 8.49939 10.5589 8.49961 10.5589C8.49984 10.5589 8.50008 10.5589 8.50032 10.5589C8.50056 10.5589 8.5008 10.5589 8.50105 10.5589C8.50131 10.5589 8.50156 10.5589 8.50183 10.5589C8.50209 10.5589 8.50236 10.5589 8.50264 10.5589C8.50292 10.5589 8.5032 10.5589 8.50349 10.5589C8.50378 10.5589 8.50407 10.5589 8.50437 10.5589C8.50467 10.5589 8.50498 10.5589 8.50529 10.5589C8.50561 10.5589 8.50592 10.5589 8.50625 10.5589C8.50657 10.5589 8.5069 10.5589 8.50724 10.5589C8.50758 10.5589 8.50792 10.5589 8.50827 10.5589C8.50862 10.5589 8.50897 10.5589 8.50933 10.5589C8.50969 10.5589 8.51006 10.5589 8.51043 10.5589C8.5108 10.5589 8.51118 10.5589 8.51157 10.5589C8.51195 10.5589 8.51234 10.5589 8.51274 10.5589C8.51313 10.5589 8.51353 10.5589 8.51394 10.5589C8.51435 10.5589 8.51476 10.5589 8.51518 10.5589C8.5156 10.5589 8.51603 10.5589 8.51646 10.5589C8.51689 10.5589 8.51733 10.5589 8.51777 10.5589C8.51821 10.5589 8.51866 10.5589 8.51911 10.5589C8.51957 10.5589 8.52003 10.5589 8.52049 10.5589C8.52096 10.5589 8.52143 10.5589 8.52191 10.5589C8.52238 10.5589 8.52287 10.5589 8.52336 10.5589C8.52384 10.5589 8.52434 10.5589 8.52484 10.5589C8.52534 10.5589 8.52584 10.5589 8.52635 10.5589C8.52687 10.5589 8.52738 10.5589 8.52791 10.5589C8.52843 10.5589 8.52896 10.5589 8.52949 10.5589C8.53002 10.5589 8.53056 10.5589 8.53111 10.5589C8.53165 10.5589 8.5322 10.5589 8.53276 10.5589C8.53332 10.5589 8.53388 10.5589 8.53445 10.5589C8.53501 10.5589 8.53559 10.5589 8.53617 10.5589C8.53674 10.5589 8.53733 10.5589 8.53792 10.5589C8.53851 10.5589 8.5391 10.5589 8.5397 10.5589C8.5403 10.5589 8.54091 10.5589 8.54152 10.5589C8.54213 10.5589 8.54275 10.5589 8.54337 10.5589C8.544 10.5589 8.54462 10.5589 8.54526 10.5589C8.54589 10.5589 8.54653 10.5589 8.54717 10.5589C8.54782 10.5589 8.54847 10.5589 8.54912 10.5589C8.54978 10.5589 8.55044 10.5589 8.55111 10.5589C8.55177 10.5589 8.55244 10.5589 8.55312 10.5589C8.5538 10.5589 8.55448 10.5589 8.55517 10.5589C8.55586 10.5589 8.55655 10.5589 8.55725 10.5589C8.55794 10.5589 8.55865 10.5589 8.55936 10.5589C8.56007 10.5589 8.56078 10.5589 8.5615 10.5589C8.56222 10.5589 8.56294 10.5589 8.56367 10.5589C8.5644 10.5589 8.56514 10.5589 8.56588 10.5589C8.56662 10.5589 8.56737 10.5589 8.56812 10.5589C8.56887 10.5589 8.56963 10.5589 8.57039 10.5589C8.57115 10.5589 8.57192 10.5589 8.57269 10.5589C8.57346 10.5589 8.57424 10.5589 8.57502 10.5589C8.5758 10.5589 8.57659 10.5589 8.57738 10.5589C8.57817 10.5589 8.57897 10.5589 8.57977 10.5589C8.58058 10.5589 8.58139 10.5589 8.5822 10.5589C8.58301 10.5589 8.58383 10.5589 8.58465 10.5589C8.58548 10.5589 8.5863 10.5589 8.58714 10.5589C8.58797 10.5589 8.58881 10.5589 8.58965 10.5589C8.5905 10.5589 8.59135 10.5589 8.5922 10.5589C8.59305 10.5589 8.59391 10.5589 8.59478 10.5589C8.59564 10.5589 8.59651 10.5589 8.59738 10.5589C8.59826 10.5589 8.59914 10.5589 8.60002 10.5589C8.6009 10.5589 8.60179 10.5589 8.60268 10.5589C8.60358 10.5589 8.60448 10.5589 8.60538 10.5589C8.60628 10.5589 8.60719 10.5589 8.60811 10.5589C8.60902 10.5589 8.60994 10.5589 8.61086 10.5589C8.61178 10.5589 8.61271 10.5589 8.61365 10.5589C8.61458 10.5589 8.61552 10.5589 8.61646 10.5589C8.6174 10.5589 8.61835 10.5589 8.6193 10.5589C8.62025 10.5589 8.62121 10.5589 8.62217 10.5589C8.62314 10.5589 8.6241 10.5589 8.62507 10.5589C8.62605 10.5589 8.62702 10.5589 8.628 10.5589C8.62898 10.5589 8.62997 10.5589 8.63096 10.5589C8.63195 10.5589 8.63295 10.5589 8.63395 10.5589C8.63495 10.5589 8.63595 10.5589 8.63696 10.5589C8.63797 10.5589 8.63899 10.5589 8.64001 10.5589C8.64102 10.5589 8.64205 10.5589 8.64308 10.5589C8.64411 10.5589 8.64514 10.5589 8.64618 10.5589C8.64721 10.5589 8.64826 10.5589 8.6493 10.5589C8.65035 10.5589 8.6514 10.5589 8.65246 10.5589C8.65351 10.5589 8.65458 10.5589 8.65564 10.5589C8.65671 10.5589 8.65778 10.5589 8.65885 10.5589C8.65993 10.5589 8.66101 10.5589 8.66209 10.5589C8.66317 10.5589 8.66426 10.5589 8.66535 10.5589C8.66645 10.5589 8.66755 10.5589 8.66865 10.5589C8.66975 10.5589 8.67086 10.5589 8.67197 10.5589C8.67308 10.5589 8.67419 10.5589 8.67531 10.5589C8.67643 10.5589 8.67756 10.5589 8.67869 10.5589C8.67982 10.5589 8.68095 10.5589 8.68209 10.5589C8.68322 10.5589 8.68437 10.5589 8.68551 10.5589C8.68666 10.5589 8.68781 10.5589 8.68897 10.5589C8.69012 10.5589 8.69128 10.5589 8.69245 10.5589C8.69361 10.5589 8.69478 10.5589 8.69595 10.5589C8.69712 10.5589 8.6983 10.5589 8.69948 10.5589C8.70067 10.5589 8.70185 10.5589 8.70304 10.5589C8.70423 10.5589 8.70543 10.5589 8.70663 10.5589C8.70782 10.5589 8.70903 10.5589 8.71023 10.5589C8.71144 10.5589 8.71265 10.5589 8.71387 10.5589C8.71509 10.5589 8.71631 10.5589 8.71753 10.5589C8.71876 10.5589 8.71998 10.5589 8.72122 10.5589C8.72245 10.5589 8.72369 10.5589 8.72493 10.5589C8.72617 10.5589 8.72742 10.5589 8.72867 10.5589C8.72992 10.5589 8.73117 10.5589 8.73243 10.5589C8.73369 10.5589 8.73495 10.5589 8.73621 10.5589C8.73748 10.5589 8.73875 10.5589 8.74003 10.5589C8.7413 10.5589 8.74258 10.5589 8.74386 10.5589C8.74514 10.5589 8.74643 10.5589 8.74772 10.5589C8.74901 10.5589 8.75031 10.5589 8.75161 10.5589C8.75291 10.5589 8.75421 10.5589 8.75552 10.5589C8.75683 10.5589 8.75814 10.5589 8.75945 10.5589C8.76077 10.5589 8.76209 10.5589 8.76341 10.5589C8.76473 10.5589 8.76606 10.5589 8.76739 10.5589C8.76872 10.5589 8.77006 10.5589 8.7714 10.5589C8.77274 10.5589 8.77408 10.5589 8.77543 10.5589C8.77677 10.5589 8.77813 10.5589 8.77948 10.5589C8.78084 10.5589 8.78219 10.5589 8.78356 10.5589C8.78492 10.5589 8.78629 10.5589 8.78766 10.5589C8.78903 10.5589 8.7904 10.5589 8.79178 10.5589C8.79316 10.5589 8.79454 10.5589 8.79593 10.5589C8.79731 10.5589 8.7987 10.5589 8.8001 10.5589C8.80149 10.5589 8.80289 10.5589 8.80429 10.5589C8.80569 10.5589 8.8071 10.5589 8.80851 10.5589C8.80991 10.5589 8.81133 10.5589 8.81274 10.5589C8.81416 10.5589 8.81558 10.5589 8.817 10.5589C8.81843 10.5589 8.81986 10.5589 8.82129 10.5589C8.82272 10.5589 8.82415 10.5589 8.82559 10.5589C8.82703 10.5589 8.82847 10.5589 8.82992 10.5589C8.83137 10.5589 8.83282 10.5589 8.83427 10.5589C8.83572 10.5589 8.83718 10.5589 8.83864 10.5589C8.8401 10.5589 8.84157 10.5589 8.84304 10.5589C8.8445 10.5589 8.84598 10.5589 8.84745 10.5589C8.84893 10.5589 8.85041 10.5589 8.85189 10.5589C8.85337 10.5589 8.85486 10.5589 8.85635 10.5589C8.85784 10.5589 8.85933 10.5589 8.86083 10.5589C8.86232 10.5589 8.86382 10.5589 8.86533 10.5589C8.86683 10.5589 8.86834 10.5589 8.86985 10.5589C8.87136 10.5589 8.87287 10.5589 8.87439 10.5589C8.87591 10.5589 8.87743 10.5589 8.87896 10.5589C8.88048 10.5589 8.88201 10.5589 8.88354 10.5589C8.88507 10.5589 8.88661 10.5589 8.88815 10.5589C8.88968 10.5589 8.89123 10.5589 8.89277 10.5589C8.89432 10.5589 8.89587 10.5589 8.89742 10.5589C8.89897 10.5589 8.90053 10.5589 8.90208 10.5589C8.90364 10.5589 8.90521 10.5589 8.90677 10.5589C8.90834 10.5589 8.90991 10.5589 8.91148 10.5589C8.91305 10.5589 8.91463 10.5589 8.91621 10.5589C8.91778 10.5589 8.91937 10.5589 8.92095 10.5589C8.92254 10.5589 8.92413 10.5589 8.92572 10.5589C8.92731 10.5589 8.92891 10.5589 8.9305 10.5589C8.9321 10.5589 8.9337 10.5589 8.93531 10.5589C8.93691 10.5589 8.93852 10.5589 8.94013 10.5589C8.94175 10.5589 8.94336 10.5589 8.94498 10.5589C8.9466 10.5589 8.94822 10.5589 8.94984 10.5589C8.95147 10.5589 8.95309 10.5589 8.95472 10.5589C8.95635 10.5589 8.95799 10.5589 8.95962 10.5589C8.96126 10.5589 8.9629 10.5589 8.96454 10.5589C8.96619 10.5589 8.96783 10.5589 8.96948 10.5589C8.97113 10.5589 8.97278 10.5589 8.97444 10.5589C8.97609 10.5589 8.97775 10.5589 8.97941 10.5589C8.98107 10.5589 8.98274 10.5589 8.98441 10.5589C8.98607 10.5589 8.98774 10.5589 8.98942 10.5589C8.99109 10.5589 8.99277 10.5589 8.99445 10.5589C8.99613 10.5589 8.99781 10.5589 8.9995 10.5589C9.00118 10.5589 9.00287 10.5589 9.00456 10.5589C9.00625 10.5589 9.00795 10.5589 9.00964 10.5589C9.01134 10.5589 9.01304 10.5589 9.01474 10.5589C9.01645 10.5589 9.01815 10.5589 9.01986 10.5589C9.02157 10.5589 9.02328 10.5589 9.025 10.5589C9.02671 10.5589 9.02843 10.5589 9.03015 10.5589C9.03187 10.5589 9.03359 10.5589 9.03532 10.5589C9.03705 10.5589 9.03877 10.5589 9.04051 10.5589C9.04224 10.5589 9.04397 10.5589 9.04571 10.5589C9.04745 10.5589 9.04919 10.5589 9.05093 10.5589C9.05267 10.5589 9.05442 10.5589 9.05617 10.5589C9.05791 10.5589 9.05966 10.5589 9.06142 10.5589C9.06317 10.5589 9.06493 10.5589 9.06669 10.5589C9.06845 10.5589 9.07021 10.5589 9.07197 10.5589C9.07374 10.5589 9.07551 10.5589 9.07728 10.5589C9.07905 10.5589 9.08082 10.5589 9.08259 10.5589C9.08437 10.5589 9.08615 10.5589 9.08793 10.5589C9.08971 10.5589 9.09149 10.5589 9.09328 10.5589C9.09506 10.5589 9.09685 10.5589 9.09864 10.5589C9.10043 10.5589 9.10223 10.5589 9.10402 10.5589C9.10582 10.5589 9.10762 10.5589 9.10942 10.5589C9.11122 10.5589 9.11302 10.5589 9.11483 10.5589C9.11664 10.5589 9.11844 10.5589 9.12026 10.5589C9.12207 10.5589 9.12388 10.5589 9.1257 10.5589C9.12751 10.5589 9.12933 10.5589 9.13115 10.5589C9.13297 10.5589 9.1348 10.5589 9.13662 10.5589C9.13845 10.5589 9.14028 10.5589 9.14211 10.5589C9.14394 10.5589 9.14577 10.5589 9.14761 10.5589C9.14945 10.5589 9.15128 10.5589 9.15313 10.5589C9.15497 10.5589 9.15681 10.5589 9.15865 10.5589C9.1605 10.5589 9.16235 10.5589 9.1642 10.5589C9.16605 10.5589 9.1679 10.5589 9.16976 10.5589C9.17161 10.5589 9.17347 10.5589 9.17533 10.5589C9.17719 10.5589 9.17905 10.5589 9.18091 10.5589C9.18278 10.5589 9.18464 10.5589 9.18651 10.5589C9.18838 10.5589 9.19025 10.5589 9.19212 10.5589C9.194 10.5589 9.19587 10.5589 9.19775 10.5589C9.19963 10.5589 9.20151 10.5589 9.20339 10.5589C9.20527 10.5589 9.20716 10.5589 9.20904 10.5589C9.21093 10.5589 9.21282 10.5589 9.21471 10.5589C9.2166 10.5589 9.21849 10.5589 9.22039 10.5589C9.22228 10.5589 9.22418 10.5589 9.22608 10.5589C9.22798 10.5589 9.22988 10.5589 9.23178 10.5589C9.23369 10.5589 9.23559 10.5589 9.2375 10.5589C9.23941 10.5589 9.24132 10.5589 9.24323 10.5589C9.24514 10.5589 9.24706 10.5589 9.24897 10.5589C9.25089 10.5589 9.25281 10.5589 9.25473 10.5589C9.25665 10.5589 9.25857 10.5589 9.2605 10.5589C9.26242 10.5589 9.26435 10.5589 9.26627 10.5589C9.2682 10.5589 9.27013 10.5589 9.27206 10.5589C9.274 10.5589 9.27593 10.5589 9.27787 10.5589C9.2798 10.5589 9.28174 10.5589 9.28368 10.5589C9.28562 10.5589 9.28756 10.5589 9.28951 10.5589C9.29145 10.5589 9.2934 10.5589 9.29534 10.5589C9.29729 10.5589 9.29924 10.5589 9.30119 10.5589C9.30314 10.5589 9.3051 10.5589 9.30705 10.5589C9.30901 10.5589 9.31097 10.5589 9.31292 10.5589C9.31488 10.5589 9.31684 10.5589 9.31881 10.5589C9.32077 10.5589 9.32273 10.5589 9.3247 10.5589C9.32667 10.5589 9.32863 10.5589 9.3306 10.5589C9.33257 10.5589 9.33454 10.5589 9.33652 10.5589C9.33849 10.5589 9.34047 10.5589 9.34244 10.5589C9.34442 10.5589 9.3464 10.5589 9.34838 10.5589C9.35036 10.5589 9.35234 10.5589 9.35432 10.5589C9.35631 10.5589 9.35829 10.5589 9.36028 10.5589C9.36226 10.5589 9.36425 10.5589 9.36624 10.5589C9.36823 10.5589 9.37023 10.5589 9.37222 10.5589C9.37421 10.5589 9.37621 10.5589 9.3782 10.5589C9.3802 10.5589 9.3822 10.5589 9.3842 10.5589C9.3862 10.5589 9.3882 10.5589 9.3902 10.5589C9.39221 10.5589 9.39421 10.5589 9.39622 10.5589C9.39822 10.5589 9.40023 10.5589 9.40224 10.5589C9.40425 10.5589 9.40626 10.5589 9.40827 10.5589C9.41029 10.5589 9.4123 10.5589 9.41432 10.5589C9.41633 10.5589 9.41835 10.5589 9.42037 10.5589C9.42238 10.5589 9.4244 10.5589 9.42643 10.5589C9.42845 10.5589 9.43047 10.5589 9.43249 10.5589C9.43452 10.5589 9.43654 10.5589 9.43857 10.5589C9.4406 10.5589 9.44263 10.5589 9.44466 10.5589C9.44669 10.5589 9.44872 10.5589 9.45075 10.5589C9.45278 10.5589 9.45482 10.5589 9.45685 10.5589C9.45889 10.5589 9.46092 10.5589 9.46296 10.5589C9.465 10.5589 9.46704 10.5589 9.46908 10.5589C9.47112 10.5589 9.47316 10.5589 9.4752 10.5589C9.47725 10.5589 9.47929 10.5589 9.48134 10.5589C9.48338 10.5589 9.48543 10.5589 9.48748 10.5589C9.48953 10.5589 9.49158 10.5589 9.49363 10.5589C9.49568 10.5589 9.49773 10.5589 9.49978 10.5589C9.50184 10.5589 9.50389 10.5589 9.50595 10.5589C9.508 10.5589 9.51006 10.5589 9.51212 10.5589C9.51418 10.5589 9.51624 10.5589 9.5183 10.5589C9.52036 10.5589 9.52242 10.5589 9.52448 10.5589C9.52654 10.5589 9.52861 10.5589 9.53067 10.5589C9.53274 10.5589 9.5348 10.5589 9.53687 10.5589C9.53894 10.5589 9.54101 10.5589 9.54307 10.5589C9.54514 10.5589 9.54721 10.5589 9.54929 10.5589C9.55136 10.5589 9.55343 10.5589 9.5555 10.5589C9.55758 10.5589 9.55965 10.5589 9.56173 10.5589C9.5638 10.5589 9.56588 10.5589 9.56796 10.5589C9.57003 10.5589 9.57211 10.5589 9.57419 10.5589C9.57627 10.5589 9.57835 10.5589 9.58043 10.5589C9.58252 10.5589 9.5846 10.5589 9.58668 10.5589C9.58877 10.5589 9.59085 10.5589 9.59293 10.5589C9.59502 10.5589 9.59711 10.5589 9.59919 10.5589C9.60128 10.5589 9.60337 10.5589 9.60546 10.5589C9.60755 10.5589 9.60964 10.5589 9.61173 10.5589C9.61382 10.5589 9.61591 10.5589 9.618 10.5589C9.62009 10.5589 9.62219 10.5589 9.62428 10.5589C9.62637 10.5589 9.62847 10.5589 9.63056 10.5589C9.63266 10.5589 9.63476 10.5589 9.63685 10.5589C9.63895 10.5589 9.64105 10.5589 9.64315 10.5589C9.64525 10.5589 9.64735 10.5589 9.64945 10.5589C9.65155 10.5589 9.65365 10.5589 9.65575 10.5589C9.65785 10.5589 9.65995 10.5589 9.66205 10.5589C9.66416 10.5589 9.66626 10.5589 9.66837 10.5589C9.67047 10.5589 9.67258 10.5589 9.67468 10.5589C9.67679 10.5589 9.67889 10.5589 9.681 10.5589C9.68311 10.5589 9.68521 10.5589 9.68732 10.5589C9.68943 10.5589 9.69154 10.5589 9.69365 10.5589C9.69576 10.5589 9.69787 10.5589 9.69998 10.5589C9.70209 10.5589 9.7042 10.5589 9.70631 10.5589C9.70843 10.5589 9.71054 10.5589 9.71265 10.5589C9.71476 10.5589 9.71688 10.5589 9.71899 10.5589C9.72111 10.5589 9.72322 10.5589 9.72534 10.5589C9.72745 10.5589 9.72957 10.5589 9.73168 10.5589C9.7338 10.5589 9.73591 10.5589 9.73803 10.5589C9.74015 10.5589 9.74227 10.5589 9.74438 10.5589C9.7465 10.5589 9.74862 10.5589 9.75074 10.5589C9.75286 10.5589 9.75498 10.5589 9.75709 10.5589C9.75921 10.5589 9.76133 10.5589 9.76345 10.5589C9.76557 10.5589 9.7677 10.5589 9.76982 10.5589C9.77194 10.5589 9.77406 10.5589 9.77618 10.5589C9.7783 10.5589 9.78042 10.5589 9.78255 10.5589C9.78467 10.5589 9.78679 10.5589 9.78891 10.5589C9.79104 10.5589 9.79316 10.5589 9.79528 10.5589C9.79741 10.5589 9.79953 10.5589 9.80166 10.5589C9.80378 10.5589 9.8059 10.5589 9.80803 10.5589C9.81015 10.5589 9.81228 10.5589 9.8144 10.5589C9.81653 10.5589 9.81865 10.5589 9.82078 10.5589C9.82291 10.5589 9.82503 10.5589 9.82716 10.5589C9.82928 10.5589 9.83141 10.5589 9.83353 10.5589C9.83566 10.5589 9.83779 10.5589 9.83991 10.5589C9.84204 10.5589 9.84417 10.5589 9.84629 10.5589C9.84842 10.5589 9.85055 10.5589 9.85267 10.5589C9.8548 10.5589 9.85693 10.5589 9.85906 10.5589C9.86118 10.5589 9.86331 10.5589 9.86544 10.5589C9.86757 10.5589 9.86969 10.5589 9.87182 10.5589C9.87395 10.5589 9.87607 10.5589 9.8782 10.5589C9.88033 10.5589 9.88246 10.5589 9.88458 10.5589C9.88671 10.5589 9.88884 10.5589 9.89097 10.5589C9.89309 10.5589 9.89522 10.5589 9.89735 10.5589C9.89948 10.5589 9.9016 10.5589 9.90373 10.5589C9.90586 10.5589 9.90799 10.5589 9.91011 10.5589C9.91224 10.5589 9.91437 10.5589 9.9165 10.5589C9.91862 10.5589 9.92075 10.5589 9.92288 10.5589C9.925 10.5589 9.92713 10.5589 9.92926 10.5589C9.93138 10.5589 9.93351 10.5589 9.93564 10.5589C9.93776 10.5589 9.93989 10.5589 9.94201 10.5589C9.94414 10.5589 9.94627 10.5589 9.94839 10.5589C9.95052 10.5589 9.95264 10.5589 9.95477 10.5589C9.95689 10.5589 9.95902 10.5589 9.96114 10.5589C9.96327 10.5589 9.96539 10.5589 9.96752 10.5589C9.96964 10.5589 9.97176 10.5589 9.97389 10.5589C9.97601 10.5589 9.97813 10.5589 9.98026 10.5589C9.98238 10.5589 9.9845 10.5589 9.98663 10.5589C9.98875 10.5589 9.99087 10.5589 9.99299 10.5589C9.99511 10.5589 9.99724 10.5589 9.99936 10.5589C10.0015 10.5589 10.0036 10.5589 10.0057 10.5589C10.0078 10.5589 10.01 10.5589 10.0121 10.5589C10.0142 10.5589 10.0163 10.5589 10.0184 10.5589C10.0206 10.5589 10.0227 10.5589 10.0248 10.5589C10.0269 10.5589 10.029 10.5589 10.0311 10.5589C10.0333 10.5589 10.0354 10.5589 10.0375 10.5589C10.0396 10.5589 10.0417 10.5589 10.0438 10.5589C10.046 10.5589 10.0481 10.5589 10.0502 10.5589C10.0523 10.5589 10.0544 10.5589 10.0565 10.5589C10.0586 10.5589 10.0608 10.5589 10.0629 10.5589C10.065 10.5589 10.0671 10.5589 10.0692 10.5589C10.0713 10.5589 10.0734 10.5589 10.0755 10.5589C10.0776 10.5589 10.0797 10.5589 10.0819 10.5589C10.084 10.5589 10.0861 10.5589 10.0882 10.5589C10.0903 10.5589 10.0924 10.5589 10.0945 10.5589C10.0966 10.5589 10.0987 10.5589 10.1008 10.5589C10.1029 10.5589 10.105 10.5589 10.1071 10.5589C10.1092 10.5589 10.1113 10.5589 10.1134 10.5589C10.1155 10.5589 10.1176 10.5589 10.1197 10.5589C10.1218 10.5589 10.1239 10.5589 10.126 10.5589C10.1281 10.5589 10.1302 10.5589 10.1323 10.5589C10.1344 10.5589 10.1365 10.5589 10.1386 10.5589C10.1407 10.5589 10.1428 10.5589 10.1449 10.5589C10.147 10.5589 10.1491 10.5589 10.1512 10.5589C10.1533 10.5589 10.1554 10.5589 10.1575 10.5589C10.1596 10.5589 10.1616 10.5589 10.1637 10.5589C10.1658 10.5589 10.1679 10.5589 10.17 10.5589C10.1721 10.5589 10.1742 10.5589 10.1763 10.5589C10.1783 10.5589 10.1804 10.5589 10.1825 10.5589C10.1846 10.5589 10.1867 10.5589 10.1888 10.5589C10.1908 10.5589 10.1929 10.5589 10.195 10.5589C10.1971 10.5589 10.1992 10.5589 10.2012 10.5589C10.2033 10.5589 10.2054 10.5589 10.2075 10.5589C10.2096 10.5589 10.2116 10.5589 10.2137 10.5589C10.2158 10.5589 10.2178 10.5589 10.2199 10.5589C10.222 10.5589 10.2241 10.5589 10.2261 10.5589C10.2282 10.5589 10.2303 10.5589 10.2323 10.5589C10.2344 10.5589 10.2365 10.5589 10.2385 10.5589C10.2406 10.5589 10.2427 10.5589 10.2447 10.5589C10.2468 10.5589 10.2489 10.5589 10.2509 10.5589C10.253 10.5589 10.255 10.5589 10.2571 10.5589C10.2592 10.5589 10.2612 10.5589 10.2633 10.5589C10.2653 10.5589 10.2674 10.5589 10.2694 10.5589C10.2715 10.5589 10.2735 10.5589 10.2756 10.5589C10.2776 10.5589 10.2797 10.5589 10.2817 10.5589C10.2838 10.5589 10.2858 10.5589 10.2879 10.5589C10.2899 10.5589 10.292 10.5589 10.294 10.5589C10.2961 10.5589 10.2981 10.5589 10.3001 10.5589C10.3022 10.5589 10.3042 10.5589 10.3063 10.5589C10.3083 10.5589 10.3103 10.5589 10.3124 10.5589C10.3144 10.5589 10.3164 10.5589 10.3185 10.5589C10.3205 10.5589 10.3225 10.5589 10.3246 10.5589C10.3266 10.5589 10.3286 10.5589 10.3307 10.5589C10.3327 10.5589 10.3347 10.5589 10.3367 10.5589C10.3388 10.5589 10.3408 10.5589 10.3428 10.5589C10.3448 10.5589 10.3469 10.5589 10.3489 10.5589C10.3509 10.5589 10.3529 10.5589 10.3549 10.5589C10.3569 10.5589 10.359 10.5589 10.361 10.5589C10.363 10.5589 10.365 10.5589 10.367 10.5589C10.369 10.5589 10.371 10.5589 10.373 10.5589C10.375 10.5589 10.377 10.5589 10.379 10.5589C10.381 10.5589 10.3831 10.5589 10.3851 10.5589C10.3871 10.5589 10.3891 10.5589 10.391 10.5589C10.393 10.5589 10.395 10.5589 10.397 10.5589C10.399 10.5589 10.401 10.5589 10.403 10.5589C10.405 10.5589 10.407 10.5589 10.409 10.5589C10.411 10.5589 10.413 10.5589 10.4149 10.5589C10.4169 10.5589 10.4189 10.5589 10.4209 10.5589C10.4229 10.5589 10.4248 10.5589 10.4268 10.5589C10.4288 10.5589 10.4308 10.5589 10.4328 10.5589C10.4347 10.5589 10.4367 10.5589 10.4387 10.5589C10.4406 10.5589 10.4426 10.5589 10.4446 10.5589C10.4465 10.5589 10.4485 10.5589 10.4505 10.5589C10.4524 10.5589 10.4544 10.5589 10.4564 10.5589C10.4583 10.5589 10.4603 10.5589 10.4622 10.5589C10.4642 10.5589 10.4661 10.5589 10.4681 10.5589C10.47 10.5589 10.472 10.5589 10.4739 10.5589C10.4759 10.5589 10.4778 10.5589 10.4798 10.5589C10.4817 10.5589 10.4837 10.5589 10.4856 10.5589C10.4875 10.5589 10.4895 10.5589 10.4914 10.5589C10.4934 10.5589 10.4953 10.5589 10.4972 10.5589C10.4992 10.5589 10.5011 10.5589 10.503 10.5589C10.505 10.5589 10.5069 10.5589 10.5088 10.5589C10.5107 10.5589 10.5127 10.5589 10.5146 10.5589C10.5165 10.5589 10.5184 10.5589 10.5203 10.5589C10.5222 10.5589 10.5242 10.5589 10.5261 10.5589C10.528 10.5589 10.5299 10.5589 10.5318 10.5589C10.5337 10.5589 10.5356 10.5589 10.5375 10.5589C10.5394 10.5589 10.5413 10.5589 10.5432 10.5589C10.5451 10.5589 10.547 10.5589 10.5489 10.5589C10.5508 10.5589 10.5527 10.5589 10.5546 10.5589C10.5565 10.5589 10.5584 10.5589 10.5603 10.5589C10.5622 10.5589 10.5641 10.5589 10.5659 10.5589C10.5678 10.5589 10.5697 10.5589 10.5716 10.5589C10.5735 10.5589 10.5753 10.5589 10.5772 10.5589C10.5791 10.5589 10.581 10.5589 10.5828 10.5589C10.5847 10.5589 10.5866 10.5589 10.5884 10.5589C10.5903 10.5589 10.5922 10.5589 10.594 10.5589C10.5959 10.5589 10.5977 10.5589 10.5996 10.5589C10.6014 10.5589 10.6033 10.5589 10.6051 10.5589C10.607 10.5589 10.6088 10.5589 10.6107 10.5589C10.6125 10.5589 10.6144 10.5589 10.6162 10.5589C10.6181 10.5589 10.6199 10.5589 10.6217 10.5589C10.6236 10.5589 10.6254 10.5589 10.6272 10.5589C10.6291 10.5589 10.6309 10.5589 10.6327 10.5589C10.6346 10.5589 10.6364 10.5589 10.6382 10.5589C10.64 10.5589 10.6419 10.5589 10.6437 10.5589C10.6455 10.5589 10.6473 10.5589 10.6491 10.5589C10.6509 10.5589 10.6527 10.5589 10.6545 10.5589C10.6564 10.5589 10.6582 10.5589 10.66 10.5589C10.6618 10.5589 10.6636 10.5589 10.6654 10.5589C10.6672 10.5589 10.669 10.5589 10.6707 10.5589C10.6725 10.5589 10.6743 10.5589 10.6761 10.5589C10.6779 10.5589 10.6797 10.5589 10.6815 10.5589C10.6832 10.5589 10.685 10.5589 10.6868 10.5589C10.6886 10.5589 10.6904 10.5589 10.6921 10.5589C10.6939 10.5589 10.6957 10.5589 10.6974 10.5589C10.6992 10.5589 10.701 10.5589 10.7027 10.5589C10.7045 10.5589 10.7062 10.5589 10.708 10.5589C10.7097 10.5589 10.7115 10.5589 10.7132 10.5589C10.715 10.5589 10.7167 10.5589 10.7185 10.5589C10.7202 10.5589 10.722 10.5589 10.7237 10.5589C10.7254 10.5589 10.7272 10.5589 10.7289 10.5589C10.7306 10.5589 10.7324 10.5589 10.7341 10.5589C10.7358 10.5589 10.7376 10.5589 10.7393 10.5589C10.741 10.5589 10.7427 10.5589 10.7444 10.5589C10.7462 10.5589 10.7479 10.5589 10.7496 10.5589C10.7513 10.5589 10.753 10.5589 10.7547 10.5589C10.7564 10.5589 10.7581 10.5589 10.7598 10.5589C10.7615 10.5589 10.7632 10.5589 10.7649 10.5589C10.7666 10.5589 10.7683 10.5589 10.77 10.5589C10.7716 10.5589 10.7733 10.5589 10.775 10.5589C10.7767 10.5589 10.7784 10.5589 10.78 10.5589C10.7817 10.5589 10.7834 10.5589 10.7851 10.5589C10.7867 10.5589 10.7884 10.5589 10.7901 10.5589C10.7917 10.5589 10.7934 10.5589 10.795 10.5589C10.7967 10.5589 10.7983 10.5589 10.8 10.5589C10.8016 10.5589 10.8033 10.5589 10.8049 10.5589C10.8066 10.5589 10.8082 10.5589 10.8099 10.5589C10.8115 10.5589 10.8131 10.5589 10.8148 10.5589C10.8164 10.5589 10.818 10.5589 10.8196 10.5589C10.8213 10.5589 10.8229 10.5589 10.8245 10.5589C10.8261 10.5589 10.8278 10.5589 10.8294 10.5589C10.831 10.5589 10.8326 10.5589 10.8342 10.5589C10.8358 10.5589 10.8374 10.5589 10.839 10.5589C10.8406 10.5589 10.8422 10.5589 10.8438 10.5589C10.8454 10.5589 10.847 10.5589 10.8486 10.5589C10.8501 10.5589 10.8517 10.5589 10.8533 10.5589C10.8549 10.5589 10.8565 10.5589 10.858 10.5589C10.8596 10.5589 10.8612 10.5589 10.8628 10.5589C10.8643 10.5589 10.8659 10.5589 10.8674 10.5589C10.869 10.5589 10.8706 10.5589 10.8721 10.5589C10.8737 10.5589 10.8752 10.5589 10.8768 10.5589C10.8783 10.5589 10.8799 10.5589 10.8814 10.5589C10.8829 10.5589 10.8845 10.5589 10.886 10.5589C10.8875 10.5589 10.8891 10.5589 10.8906 10.5589C10.8921 10.5589 10.8936 10.5589 10.8952 10.5589C10.8967 10.5589 10.8982 10.5589 10.8997 10.5589C10.9012 10.5589 10.9027 10.5589 10.9042 10.5589C10.9057 10.5589 10.9072 10.5589 10.9087 10.5589C10.9102 10.5589 10.9117 10.5589 10.9132 10.5589C10.9147 10.5589 10.9162 10.5589 10.9177 10.5589C10.9192 10.5589 10.9207 10.5589 10.9221 10.5589C10.9236 10.5589 10.9251 10.5589 10.9266 10.5589C10.928 10.5589 10.9295 10.5589 10.931 10.5589C10.9324 10.5589 10.9339 10.5589 10.9353 10.5589C10.9368 10.5589 10.9382 10.5589 10.9397 10.5589V9.75892Z" fill="#1D1D1D"/>
<path d="M8.49341 11.6137C8.27249 11.6137 8.09341 11.7928 8.09341 12.0137C8.09341 12.2346 8.27249 12.4137 8.49341 12.4137V11.6137ZM11.1986 12.4137C11.4195 12.4137 11.5986 12.2346 11.5986 12.0137C11.5986 11.7928 11.4195 11.6137 11.1986 11.6137V12.4137ZM8.49341 12.4137H11.1986V11.6137H8.49341V12.4137Z" fill="#1D1D1D"/>
<path d="M13.7087 0.761719V3.88548H16.7227" stroke="#1D1D1D" stroke-width="0.8" stroke-miterlimit="10" stroke-linejoin="round"/>
</svg>
