<svg width="152" height="230" viewBox="0 0 152 230" fill="none" xmlns="http://www.w3.org/2000/svg">
<g clip-path="url(#clip0_993_25063)">
<path d="M122.055 84.6875C121.887 84.9319 121.739 85.1711 121.617 85.4155C121.734 85.1711 121.882 84.9268 122.055 84.6875Z" stroke="#1D1D1D" stroke-miterlimit="10" stroke-linecap="round" stroke-linejoin="round"/>
<path d="M151.251 163.109C150.121 195.467 150.35 225.331 144.465 228.049C138.585 230.763 103.513 229.403 81.7905 229.403C60.0675 229.403 14.1371 228.955 6.22066 226.919C-1.70083 224.883 0.788635 184.155 0.335542 152.25C-0.117551 120.345 1.46573 86.8562 1.91882 85.0031C2.06646 84.4024 2.14791 84.0918 2.33628 83.9238C2.7181 83.5674 3.52756 83.822 6.22066 83.3434C6.90285 83.2213 8.89849 82.9922 11.7545 82.7122C11.5509 82.9412 11.3676 83.1805 11.1894 83.4402C10.7567 84.0765 10.5021 84.774 10.3952 85.4918C9.89122 88.7093 12.2891 92.2934 14.3662 92.1661C16.9014 92.0083 17.7007 88.9893 17.7007 88.9893C17.7007 88.9893 18.8105 93.2759 21.3967 93.2759C23.988 93.2759 25.4746 88.8366 25.4746 88.8366C25.4746 88.8366 26.1109 92.1661 28.8091 92.1712C31.5073 92.1712 32.1437 90.2621 32.4593 87.2482C32.4848 87.0191 32.4746 86.7849 32.439 86.5457C45.5379 86.8918 61.3097 86.9631 76.3585 86.6627C91.7178 86.3522 108.014 86.2809 121.327 86.1282C121.301 86.2046 121.281 86.2758 121.266 86.3471C121.235 86.4489 121.22 86.5558 121.21 86.6627C121.199 86.7035 121.194 86.7493 121.194 86.79C121.179 86.9428 121.179 87.0955 121.194 87.2482C121.515 90.2621 122.151 92.1712 124.85 92.1712C127.548 92.1661 128.184 88.8366 128.184 88.8366C128.184 88.8366 129.671 93.2759 132.257 93.2759C134.848 93.2759 135.958 88.9893 135.958 88.9893C135.958 88.9893 136.757 92.0083 139.293 92.1661C141.349 92.2934 143.717 88.7857 143.284 85.5936C143.182 84.8453 142.922 84.1071 142.469 83.4402C142.25 83.1143 142.011 82.814 141.751 82.5391C145.834 83.1347 148.813 83.7813 149.444 84.438C149.48 84.4787 149.52 84.5296 149.556 84.5958C151.511 88.1595 152.366 131.346 151.251 163.109Z" stroke="#1D1D1D" stroke-miterlimit="10" stroke-linecap="round" stroke-linejoin="round"/>
<path d="M108.74 90.5C106.791 91.7386 105.237 93.7526 104.688 96.0386C104.683 96.0542 104.68 96.0692 104.677 96.0832L104.66 96.1441L104.273 97.5H98.2566H98.256L93.6331 97.4891L94.1324 95.3976C95.0266 93.0967 96.9992 91.2029 99.2001 90.5H108.74Z" fill="#C3FF5C" stroke="#1D1D1D"/>
<path d="M110.697 107.277C110.524 110.631 111.033 113.564 109.17 115.799C108.529 116.568 107.119 116.939 104.858 117.107C104.899 115.392 104.924 113.773 104.94 112.301C105.123 112.23 105.271 112.154 105.393 112.067C107.047 110.871 106.594 109.303 106.747 107.516C106.874 106.044 106.996 104.823 104.945 104.268C104.502 104.151 103.952 104.059 103.28 104.008C101.529 103.871 98.4182 103.764 94.32 103.687C89.5905 103.601 83.5475 103.56 76.7664 103.56C69.9751 103.56 63.4842 103.626 58.3016 103.82C53.8114 103.993 50.2987 104.263 48.4252 104.68C47.6666 104.848 47.1321 105.021 46.7554 105.215C45.615 105.79 45.9052 106.503 45.8645 107.516C45.7728 109.603 45.2484 111.12 46.7757 111.894C46.791 113.325 46.8266 114.898 46.8826 116.583C46.5823 116.552 46.3023 116.527 46.0426 116.496C40.9517 115.941 42.0004 112.586 42.1379 107.277C42.2041 104.751 41.5932 103.224 45.0244 101.967C49.5808 100.292 62.6696 99.8691 76.9344 99.8691C91.1992 99.8691 102.552 100.149 106.793 100.709C111.033 101.264 110.865 103.922 110.697 107.277Z" stroke="#1D1D1D" stroke-miterlimit="10" stroke-linecap="round" stroke-linejoin="round"/>
<path d="M95.9841 117.204C92.2422 117.164 87.6655 117.108 82.1877 117.199C72.8509 117.357 64.3032 117.296 57.6748 117.113C57.7206 115.565 57.7766 114.099 57.8326 112.74C58.021 108.107 58.2399 104.752 58.301 103.82C63.4836 103.627 69.9745 103.561 76.7658 103.561C83.5469 103.561 89.5899 103.601 94.3194 103.688C94.4263 104.385 94.9557 107.908 95.5157 112.826C95.6735 114.19 95.8314 115.657 95.9841 117.204Z" stroke="#1D1D1D" stroke-miterlimit="10" stroke-linecap="round" stroke-linejoin="round"/>
<path d="M104.94 112.301C104.925 113.773 104.899 115.392 104.858 117.107C104.655 125.854 104.1 137.257 102.669 146.324C99.9559 159.522 87.5136 169.36 78.2328 169.36C68.9572 169.36 58.5513 168.344 52.2131 150.241C48.4611 139.509 47.3669 127.603 47.0003 116.5C46.9443 114.815 47.0157 113.431 47.0004 112C46.9546 109.088 47.4852 106.446 47.5005 105C47.8772 104.807 47.6669 104.848 48.4254 104.68C50.2989 104.263 53.8116 103.993 58.3018 103.82C58.2407 104.752 58.0218 108.106 57.8335 112.739C57.7775 114.099 57.7215 115.565 57.6757 117.112C57.4211 125.696 57.3753 136.769 58.3222 145.418C60.1346 157.933 64.2073 165.287 76.7819 165.287C89.3616 165.287 94.7529 156.35 96.5602 144.965C97.5122 136.876 96.8402 125.843 95.9849 117.204C95.8322 115.656 95.6744 114.19 95.5166 112.826C94.9566 107.908 94.4271 104.385 94.3202 103.688C98.4184 103.764 101.529 103.871 103.28 104.008C103.952 104.059 104.502 104.151 104.945 104.268C104.96 105.541 104.981 108.442 104.94 112.301Z" fill="#C3FF5C" stroke="#1D1D1D" stroke-miterlimit="10" stroke-linecap="round" stroke-linejoin="round"/>
<path d="M95.5161 112.826C91.8863 112.811 87.2281 112.755 81.4295 112.811C72.2505 112.902 63.9319 112.857 57.833 112.74C58.0214 108.107 58.2403 104.752 58.3014 103.82C63.4839 103.627 69.9749 103.561 76.7662 103.561C83.5473 103.561 89.5903 103.601 94.3197 103.688C94.4266 104.385 94.9561 107.908 95.5161 112.826Z" stroke="#1D1D1D" stroke-miterlimit="10" stroke-linecap="round" stroke-linejoin="round"/>
<path d="M143.284 85.5951C147.321 85.3711 149.627 85.0555 149.556 84.5973C149.546 84.5464 149.51 84.4955 149.444 84.4395" stroke="#1D1D1D" stroke-miterlimit="10" stroke-linecap="round" stroke-linejoin="round"/>
<path d="M10.3955 85.493C5.21292 85.045 2.19908 84.5156 2.33654 83.925V83.9199" stroke="#1D1D1D" stroke-miterlimit="10" stroke-linecap="round" stroke-linejoin="round"/>
<path d="M95.4655 45.0404C95.4655 47.3822 93.5716 49.2812 91.2298 49.2812C88.888 49.2812 86.9941 47.3822 86.9941 45.0404C86.9941 42.7036 88.888 40.8047 91.2298 40.8047C93.5716 40.8047 95.4655 42.7036 95.4655 45.0404Z" fill="#1D1D1D"/>
<path d="M126.515 56.835C126.301 54.9819 126.082 53.0982 125.853 51.1942C125.608 49.168 125.354 47.1214 125.094 45.0748C124.712 42.0763 124.31 39.0726 123.898 36.13C120.563 12.4824 114.531 0.253906 114.531 0.253906C114.531 0.253906 111.196 2.16302 107.546 9.30566C103.896 16.4483 100.088 23.4331 100.088 23.4331C100.088 23.4331 96.7073 22.7255 91.2294 22.14C91.1887 22.4251 89.7429 32.8361 87.7574 31.8994C85.833 30.9881 86.9123 22.4862 87.0039 21.748C85.2018 21.6156 83.257 21.5036 81.1952 21.4374C81.1952 21.4374 79.8206 34.6485 77.545 34.6485C75.2694 34.6485 75.0606 21.3865 75.0606 21.3865C72.6475 21.4222 70.3821 21.5393 68.2999 21.6971C68.2999 21.6971 69.0279 31.8994 66.8031 31.8994C64.5784 31.8994 63.6417 22.1502 63.6417 22.1502C57.7871 22.8426 54.2132 23.7487 54.2132 23.7487C54.2132 23.7487 51.6678 18.3523 49.2852 12.4824C46.9078 6.60235 40.5594 0.253906 40.5594 0.253906C40.5594 0.253906 31.8284 23.1124 29.6037 41.3686C29.4917 42.285 29.3797 43.2217 29.2728 44.1839C28.9979 46.5767 28.728 49.0916 28.4735 51.6524C28.3309 53.0728 28.1884 54.5033 28.0509 55.9339C27.1702 65.1485 26.4269 74.4192 25.9688 80.4571C26.5644 80.7015 27.1448 80.9866 27.7048 81.3022C30.1637 82.7124 32.1441 84.7692 32.4393 86.5459C45.5383 86.8921 61.31 86.9634 76.3588 86.663C91.7182 86.3524 108.014 86.2812 121.327 86.1284C121.363 86.0113 121.403 85.8943 121.454 85.7721V85.767C121.505 85.6499 121.556 85.5328 121.617 85.4157C121.734 85.1713 121.882 84.927 122.055 84.6877C122.136 84.5706 122.228 84.4484 122.32 84.3313C122.411 84.2091 122.508 84.0921 122.61 83.975C122.615 83.975 122.615 83.9699 122.615 83.9699C122.722 83.8528 122.829 83.7357 122.941 83.6186C123.053 83.4964 123.17 83.3844 123.292 83.2673C123.414 83.1502 123.536 83.0382 123.669 82.9262C123.791 82.8193 123.918 82.7124 124.046 82.6055C124.086 82.5749 124.127 82.5393 124.168 82.5088C124.407 82.3204 124.662 82.1371 124.926 81.9538C125.074 81.852 125.222 81.7553 125.379 81.6535C125.69 81.4549 126.006 81.2666 126.331 81.0935C126.479 81.0171 126.627 80.9407 126.779 80.8644C126.79 80.8593 126.8 80.8542 126.81 80.8491H126.815C126.983 80.7676 127.151 80.6862 127.324 80.6149C127.681 80.452 128.042 80.3095 128.403 80.1873C128.582 80.1211 128.765 80.0651 128.943 80.0142C128.403 74.3938 127.568 66.0242 126.515 56.835ZM112.866 9.46348C112.866 9.46348 113.976 15.873 114.851 19.732C115.707 23.5146 116.715 28.8499 116.75 29.0637C116.674 28.9823 115.371 27.6688 111.873 26.1313C108.259 24.5429 106.991 24.2273 106.991 24.2273L112.866 9.46348ZM103.31 49.28C104.985 49.28 106.349 50.6393 106.349 52.3142C106.349 53.9942 104.985 55.3535 103.31 55.3535C101.63 55.3535 100.271 53.9942 100.271 52.3142C100.271 50.6393 101.63 49.28 103.31 49.28ZM91.2294 40.8035C93.5712 40.8035 95.4651 42.7024 95.4651 45.0392C95.4651 47.381 93.5712 49.28 91.2294 49.28C88.8876 49.28 86.9938 47.381 86.9938 45.0392C86.9938 42.7024 88.8876 40.8035 91.2294 40.8035ZM74.633 45.141C75.6919 43.9955 80.457 44.5963 82.1472 44.5963C83.8425 44.5963 83.8221 48.1192 78.7414 48.1192C75.249 48.1192 73.5741 46.2916 74.633 45.141ZM64.6089 40.8035C66.9457 40.8035 68.8446 42.7024 68.8446 45.0392C68.8446 47.381 66.9457 49.28 64.6089 49.28C62.2671 49.28 60.3682 47.381 60.3682 45.0392C60.3682 42.7024 62.2671 40.8035 64.6089 40.8035ZM50.1049 49.28C51.7798 49.28 53.1442 50.6393 53.1442 52.3142C53.1442 53.9942 51.7798 55.3535 50.1049 55.3535C48.4249 55.3535 47.0656 53.9942 47.0656 52.3142C47.0656 50.6393 48.4249 49.28 50.1049 49.28ZM42.3056 11.449L47.0656 24.8586C47.0656 24.8586 45.8743 25.0215 42.6212 26.1313C39.3681 27.2412 38.1768 28.015 38.1768 28.015C38.0954 27.4804 42.3056 11.449 42.3056 11.449Z" stroke="#1D1D1D" stroke-miterlimit="10" stroke-linecap="round" stroke-linejoin="round"/>
<path d="M91.2294 22.1401C91.1581 22.1299 91.0818 22.1197 91.0105 22.1146C89.7734 21.9822 88.4345 21.86 87.0039 21.748" stroke="#1D1D1D" stroke-miterlimit="10" stroke-linecap="round" stroke-linejoin="round"/>
<path d="M81.1951 21.4385H81.1188C79.7697 21.3926 78.3747 21.3672 76.934 21.3672C76.2976 21.3672 75.6766 21.3723 75.0605 21.3875" stroke="#1D1D1D" stroke-miterlimit="10" stroke-linecap="round" stroke-linejoin="round"/>
<path d="M68.2998 21.6973C66.6351 21.8245 65.0874 21.9824 63.6772 22.1453L63.6416 22.1504" stroke="#1D1D1D" stroke-miterlimit="10" stroke-linecap="round" stroke-linejoin="round"/>
<path d="M32.4602 87.2487C32.1445 90.2626 31.5082 92.1717 28.81 92.1717C26.1118 92.1666 25.4754 88.8371 25.4754 88.8371C25.4754 88.8371 23.9888 93.2764 21.3976 93.2764C18.8114 93.2764 17.7015 88.9898 17.7015 88.9898C17.7015 88.9898 16.9023 92.0088 14.367 92.1666C12.2899 92.2939 9.89206 88.7098 10.3961 85.4923C10.503 84.7745 10.7575 84.0771 11.1902 83.4407C11.3684 83.181 11.5517 82.9418 11.7553 82.7127C14.2295 79.8566 18.3583 79.3374 22.6194 79.6276C23.7139 79.7039 24.8594 79.9992 25.9692 80.4574C26.5649 80.7017 27.1452 80.9868 27.7052 81.3025C30.1642 82.7127 32.1445 84.7694 32.4398 86.5462C32.4754 86.7855 32.4856 87.0196 32.4602 87.2487Z" stroke="#1D1D1D" stroke-miterlimit="10" stroke-linecap="round" stroke-linejoin="round"/>
<path d="M139.293 92.1669C136.758 92.009 135.959 88.9901 135.959 88.9901C135.959 88.9901 134.849 93.2767 132.258 93.2767C129.671 93.2767 128.185 88.8374 128.185 88.8374C128.185 88.8374 127.549 92.1669 124.85 92.172C122.152 92.172 121.516 90.2628 121.195 87.249C121.18 87.0963 121.18 86.9435 121.195 86.7908C121.195 86.7501 121.2 86.7043 121.21 86.6635C121.221 86.5566 121.236 86.4497 121.266 86.3479C121.282 86.2766 121.302 86.2053 121.327 86.129C121.363 86.0119 121.404 85.8948 121.455 85.7726V85.7675C121.506 85.6504 121.557 85.5333 121.618 85.4162C121.74 85.1719 121.887 84.9326 122.055 84.6882C122.137 84.5711 122.229 84.449 122.32 84.3319C122.412 84.2097 122.509 84.0926 122.61 83.9755C122.615 83.9755 122.615 83.9704 122.615 83.9704C122.722 83.8533 122.829 83.7362 122.941 83.6191C123.053 83.4969 123.17 83.3849 123.293 83.2678C123.415 83.1508 123.537 83.0388 123.669 82.9268C123.791 82.8198 123.919 82.7129 124.046 82.606C124.087 82.5755 124.127 82.5398 124.168 82.5093C124.407 82.3209 124.662 82.1377 124.927 81.9544C125.074 81.8526 125.222 81.7558 125.38 81.654C125.69 81.4555 126.006 81.2671 126.332 81.094C126.479 81.0176 126.627 80.9413 126.78 80.8649C126.79 80.8598 126.8 80.8547 126.81 80.8496H126.815C126.983 80.7682 127.151 80.6867 127.325 80.6155C127.681 80.4525 128.042 80.31 128.404 80.1878C128.582 80.1216 128.765 80.0656 128.943 80.0147C129.651 79.8111 130.354 79.6787 131.041 79.6278C135.221 79.3427 139.263 79.8365 141.752 82.5398C142.012 82.8148 142.251 83.1151 142.47 83.4409C142.923 84.1079 143.183 84.8461 143.285 85.5944C143.717 88.7865 141.35 92.2941 139.293 92.1669Z" stroke="#1D1D1D" stroke-miterlimit="10" stroke-linecap="round" stroke-linejoin="round"/>
<path d="M122.055 84.6875C121.887 84.9319 121.739 85.1711 121.617 85.4155C121.734 85.1711 121.882 84.9268 122.055 84.6875Z" stroke="#1D1D1D" stroke-miterlimit="10" stroke-linecap="round" stroke-linejoin="round"/>
<path d="M33.0813 48.3027C32.1141 47.1216 31.0348 46.0372 29.7977 45.1565C28.5657 44.2707 27.1657 43.6241 25.674 43.2321C24.1875 42.835 22.6246 42.6925 21.0566 42.7078C19.4886 42.723 17.9155 42.891 16.3525 43.1303C17.89 42.7688 19.4529 42.4685 21.0362 42.3259C22.6195 42.1834 24.2384 42.1936 25.842 42.4837C27.4406 42.7688 29.0086 43.339 30.4188 44.1892C31.8341 45.0292 33.0966 46.1085 34.2268 47.2845C34.517 47.59 34.5068 48.0736 34.2064 48.3638C33.9061 48.654 33.4173 48.6438 33.1272 48.3435C33.1068 48.3384 33.0966 48.3231 33.0813 48.3027Z" fill="#1D1D1D"/>
<path d="M29.6898 53.3015C28.5342 52.4564 27.3226 51.703 26.0244 51.1175C24.7313 50.5321 23.3516 50.135 21.9313 49.9771C20.5109 49.8091 19.0498 49.9059 17.6192 50.1706C16.1836 50.4353 14.7734 50.8579 13.3887 51.367C14.7225 50.7459 16.097 50.1961 17.5327 49.799C18.9632 49.4069 20.4651 49.1728 21.9822 49.2186C23.4942 49.2542 25.0113 49.5546 26.4469 50.0586C27.8877 50.5626 29.252 51.255 30.5451 52.039C30.9066 52.2579 31.0186 52.7263 30.7997 53.0877C30.5808 53.4492 30.1124 53.5612 29.7509 53.3423C29.7306 53.3321 29.7153 53.3168 29.6949 53.3066L29.6898 53.3015Z" fill="#1D1D1D"/>
<path d="M30.4535 57.1249C28.9364 56.7379 27.3938 56.4478 25.8411 56.3307C24.2884 56.2136 22.7204 56.2848 21.188 56.6056C19.6556 56.9212 18.1691 57.4863 16.7742 58.25C15.3792 59.0085 14.076 59.9504 12.8389 60.9635C13.9945 59.8536 15.2214 58.8049 16.5807 57.919C17.9349 57.0332 19.4265 56.3256 20.9996 55.8623C22.5778 55.399 24.2273 55.1903 25.8767 55.1801C27.5262 55.1699 29.1655 55.3481 30.7793 55.6281C31.1968 55.6994 31.4768 56.0965 31.4055 56.5088C31.3342 56.9263 30.9371 57.2063 30.5248 57.135C30.5044 57.1299 30.484 57.1299 30.4688 57.1249H30.4535Z" fill="#1D1D1D"/>
<path d="M120.054 48.2377C121.184 47.0566 122.447 45.9824 123.862 45.1423C125.272 44.2922 126.84 43.722 128.439 43.4369C130.038 43.1467 131.656 43.1365 133.245 43.2791C134.833 43.4216 136.391 43.722 137.928 44.0834C136.366 43.8442 134.792 43.6762 133.224 43.6609C131.656 43.6456 130.094 43.7882 128.607 44.1852C127.12 44.5773 125.72 45.2238 124.483 46.1096C123.246 46.9904 122.162 48.0697 121.2 49.2559C120.935 49.5817 120.451 49.6326 120.125 49.3628C119.8 49.098 119.749 48.6144 120.019 48.2886C120.024 48.2682 120.039 48.2529 120.054 48.2377Z" fill="#1D1D1D"/>
<path d="M122.905 52.0351C124.198 51.2511 125.563 50.5587 127.003 50.0547C128.439 49.5507 129.956 49.2503 131.468 49.2147C132.985 49.1689 134.482 49.403 135.918 49.795C137.353 50.1871 138.728 50.7369 140.062 51.3631C138.677 50.8591 137.267 50.4314 135.831 50.1667C134.4 49.902 132.939 49.8103 131.519 49.9732C130.099 50.1311 128.719 50.5332 127.426 51.1136C126.128 51.694 124.916 52.4525 123.76 53.2976L123.755 53.3027C123.414 53.5522 122.936 53.4758 122.686 53.1398C122.437 52.7987 122.513 52.3202 122.849 52.0707C122.87 52.0605 122.885 52.0453 122.905 52.0351Z" fill="#1D1D1D"/>
<path d="M123.501 56.5754C125.115 56.2954 126.754 56.1172 128.404 56.1274C130.048 56.1375 131.703 56.3463 133.281 56.8096C134.859 57.2677 136.346 57.9805 137.7 58.8663C139.059 59.7521 140.286 60.7958 141.442 61.9107C140.205 60.8925 138.901 59.9558 137.506 59.1972C136.111 58.4387 134.625 57.8736 133.092 57.5528C131.56 57.2321 129.992 57.1608 128.439 57.2779C126.887 57.3899 125.344 57.6852 123.827 58.0721H123.822C123.415 58.1739 122.997 57.9296 122.89 57.5223C122.788 57.115 123.033 56.6976 123.44 56.5906C123.46 56.5856 123.481 56.5805 123.501 56.5754Z" fill="#1D1D1D"/>
<path d="M66.8031 31.8996C64.5783 31.8996 63.6416 22.1504 63.6416 22.1504L63.6772 22.1453L68.2998 21.6973C68.2998 21.6973 69.0278 31.8996 66.8031 31.8996Z" fill="#1D1D1D"/>
<path d="M81.1951 21.4376C81.1951 21.4376 79.8206 34.6487 77.5449 34.6487C75.2693 34.6487 75.0605 21.3867 75.0605 21.3867L81.1188 21.4376H81.1951Z" fill="#1D1D1D"/>
<path d="M91.2296 22.1351C91.2296 22.1351 91.2296 22.1351 91.2296 22.1402C91.1888 22.4253 89.743 32.8363 87.7576 31.8996C85.8332 30.9883 86.9125 22.4864 87.0041 21.7482C87.0143 21.7125 87.0143 21.6973 87.0143 21.6973L91.0107 22.1147L91.2296 22.1351Z" fill="#1D1D1D"/>
<path d="M78.7414 48.1198C75.249 48.1198 73.5741 46.2922 74.633 45.1416C75.6919 43.9962 80.457 44.5969 82.1472 44.5969C83.8425 44.5969 83.8221 48.1198 78.7414 48.1198Z" fill="#1D1D1D"/>
<path d="M75.0557 60.7346L78.7364 53.0625L81.1954 61.2641" stroke="#1D1D1D" stroke-miterlimit="10" stroke-linecap="round" stroke-linejoin="round"/>
<path d="M78.7414 48.1191L78.7363 53.0625" stroke="#1D1D1D" stroke-miterlimit="10" stroke-linecap="round" stroke-linejoin="round"/>
<path d="M47.0657 24.8588C47.0657 24.8588 45.8744 25.0218 42.6213 26.1316C39.3682 27.2414 38.1769 28.0153 38.1769 28.0153C38.0955 27.4807 42.3057 11.4492 42.3057 11.4492L47.0657 24.8588Z" fill="#EC294C"/>
<path d="M116.751 29.0651C116.674 28.9836 115.371 27.6702 111.873 26.1327C108.259 24.5443 106.991 24.2287 106.991 24.2287L112.866 9.46484C112.866 9.46484 113.976 15.8744 114.852 19.7333C115.707 23.5159 116.715 28.8513 116.751 29.0651Z" fill="#EC294C"/>
<path d="M68.8446 45.0404C68.8446 47.3822 66.9457 49.2812 64.6089 49.2812C62.2671 49.2812 60.3682 47.3822 60.3682 45.0404C60.3682 42.7036 62.2671 40.8047 64.6089 40.8047C66.9457 40.8047 68.8446 42.7036 68.8446 45.0404Z" fill="#1D1D1D"/>
<path d="M65.9274 45.142C66.7147 45.142 67.3529 44.5038 67.3529 43.7165C67.3529 42.9292 66.7147 42.291 65.9274 42.291C65.1402 42.291 64.502 42.9292 64.502 43.7165C64.502 44.5038 65.1402 45.142 65.9274 45.142Z" fill="white"/>
<path d="M92.655 45.142C93.4422 45.142 94.0804 44.5038 94.0804 43.7165C94.0804 42.9292 93.4422 42.291 92.655 42.291C91.8677 42.291 91.2295 42.9292 91.2295 43.7165C91.2295 44.5038 91.8677 45.142 92.655 45.142Z" fill="white"/>
<path d="M53.144 52.3155C53.144 53.9955 51.7796 55.3548 50.1047 55.3548C48.4247 55.3548 47.0654 53.9955 47.0654 52.3155C47.0654 50.6405 48.4247 49.2812 50.1047 49.2812C51.7796 49.2812 53.144 50.6405 53.144 52.3155Z" fill="#EC294C"/>
<path d="M106.35 52.3155C106.35 53.9955 104.986 55.3548 103.311 55.3548C101.631 55.3548 100.271 53.9955 100.271 52.3155C100.271 50.6405 101.631 49.2812 103.311 49.2812C104.986 49.2812 106.35 50.6405 106.35 52.3155Z" fill="#EC294C"/>
</g>
<defs>
<clipPath id="clip0_993_25063">
<rect width="152" height="230" fill="white"/>
</clipPath>
</defs>
</svg>
