<svg width="16" height="16" viewBox="0 0 16 16" fill="none" xmlns="http://www.w3.org/2000/svg">
<path d="M3.51423 13C3.3825 13 3.25077 12.9499 3.15069 12.8491C2.94977 12.6481 2.94977 12.3224 3.15069 12.1215L12.1217 3.15069C12.3227 2.94977 12.6484 2.94977 12.8493 3.15069C13.0502 3.3516 13.0502 3.67733 12.8493 3.87837L3.87839 12.8491C3.77756 12.9493 3.64583 13 3.51423 13Z" fill="#87363C"/>
<path d="M12.4859 13C12.3542 13 12.2226 12.9499 12.1224 12.8491L3.15069 3.87837C2.94977 3.67733 2.94977 3.3516 3.15069 3.15069C3.35161 2.94977 3.67735 2.94977 3.87839 3.15069L12.8493 12.1215C13.0502 12.3224 13.0502 12.6481 12.8493 12.8491C12.7485 12.9493 12.6169 13 12.4859 13Z" fill="#87363C"/>
</svg>
