<svg width="16" height="16" viewBox="0 0 16 16" fill="none" xmlns="http://www.w3.org/2000/svg">
<g clip-path="url(#clip0_931_20025)">
<path d="M0.82714 16C0.616381 16 0.405621 15.9199 0.245492 15.7585C-0.0759713 15.4371 -0.0759713 14.9159 0.245492 14.5944L14.5988 0.241098C14.9203 -0.0803659 15.4415 -0.0803659 15.7629 0.241098C16.0844 0.562561 16.0844 1.08373 15.7629 1.4054L1.40979 15.7585C1.24846 15.9189 1.0377 16 0.82714 16Z" fill="#BDBDBD"/>
<path d="M15.1815 16C14.9707 16 14.7602 15.9199 14.5998 15.7585L0.245492 1.4054C-0.0759713 1.08373 -0.0759713 0.562561 0.245492 0.241098C0.566956 -0.0803659 1.08813 -0.0803659 1.40979 0.241098L15.7629 14.5944C16.0844 14.9159 16.0844 15.4371 15.7629 15.7585C15.6016 15.9189 15.391 16 15.1815 16Z" fill="#BDBDBD"/>
</g>
<defs>
<clipPath id="clip0_931_20025">
<rect width="16" height="16" fill="white"/>
</clipPath>
</defs>
</svg>
