<svg width="24" height="24" viewBox="0 0 24 24" fill="none" xmlns="http://www.w3.org/2000/svg">
<path d="M9.26076 6.12047C9.21774 6.11958 9.17516 6.11914 9.13214 6.11914C8.86424 6.11914 8.59944 6.13156 8.33775 6.15551C7.79264 6.20608 7.26261 6.30765 6.75165 6.45579C6.6594 6.4824 6.56803 6.51079 6.4771 6.5405C3.06272 7.65646 0.596191 10.8677 0.596191 14.6547C0.596191 19.3691 4.41774 23.1906 9.13214 23.1906C12.8787 23.1906 16.062 20.7764 17.2095 17.4184C17.2205 17.3873 17.2312 17.3563 17.2414 17.3252C17.437 16.7313 17.5692 16.1086 17.6295 15.465C17.6463 15.2876 17.6574 15.1084 17.6632 14.9283C17.6663 14.8374 17.6676 14.746 17.6676 14.6547C17.6676 9.98372 13.9153 6.18878 9.26076 6.12047Z" stroke="#1D1D1D" stroke-miterlimit="10"/>
<path d="M23.3656 9.2191C23.3656 9.49277 23.3528 9.76244 23.3275 10.0295C23.2672 10.673 23.135 11.2958 22.9394 11.8897C22.0634 14.5522 19.9127 16.636 17.2093 17.4189C17.2204 17.3878 17.231 17.3568 17.2412 17.3257C17.4368 16.7318 17.569 16.1091 17.6293 15.4655C17.6462 15.2881 17.6573 15.1089 17.663 14.9288C17.6661 14.8379 17.6675 14.7465 17.6675 14.6551C17.6675 9.98421 13.9151 6.18927 9.26058 6.12097C9.21755 6.12008 9.17497 6.11964 9.13195 6.11964C8.86405 6.11964 8.59926 6.13206 8.33757 6.15601C7.79246 6.20657 7.26242 6.30814 6.75146 6.45629C7.61548 3.92899 9.63226 1.93615 12.1751 1.10496C12.7694 0.910687 13.3922 0.779399 14.0357 0.719964C14.2974 0.696013 14.5622 0.683594 14.8301 0.683594C19.5441 0.683594 23.3656 4.50515 23.3656 9.2191Z" stroke="#1D1D1D" stroke-miterlimit="10"/>
<path d="M21.2022 9.22002C21.2022 9.65158 21.1592 10.0729 21.0771 10.4806C20.9689 11.0217 20.7919 11.5371 20.5559 12.0192C19.939 13.2789 18.9188 14.3052 17.6632 14.9293C17.6663 14.8384 17.6676 14.747 17.6676 14.6556C17.6676 9.98469 13.9153 6.18974 9.26074 6.12144C9.89456 4.9842 10.8672 4.06119 12.0417 3.48857C12.5243 3.25394 13.0402 3.07785 13.5813 2.97052C13.9853 2.89024 14.4027 2.84766 14.8303 2.84766C18.3493 2.84766 21.2022 5.70052 21.2022 9.22002Z" stroke="#1D1D1D" stroke-miterlimit="10"/>
<path d="M11.7262 11.9267C11.5437 11.616 11.2686 11.3838 10.9017 11.2302C10.5344 11.0766 10.0707 11 9.51011 11C8.94584 11 8.44208 11 7.99932 11H7.42806C7.14267 11 6.91128 11.2487 6.91128 11.5554V11.8661C6.91128 12.1478 6.91128 12.4356 6.91128 12.7293C6.91128 13.023 6.91128 13.3367 6.91128 13.671V16.3705C6.91128 16.4835 6.91128 16.5941 6.91128 16.7027H6.34747C6.16496 16.7027 6.00527 16.8538 6.00015 17.0505C5.99456 17.2536 6.14587 17.4202 6.3335 17.4202H6.91128C6.91128 17.5203 6.91128 17.6189 6.91128 17.7145V18.4845C6.91128 18.7502 7.09751 18.9819 7.34426 18.9989C7.61429 19.0179 7.83917 18.7877 7.83917 18.5015V17.7145C7.83917 17.6184 7.83917 17.5203 7.83917 17.4202C7.85174 17.4202 7.86477 17.4202 7.87734 17.4202H8.30567C8.58408 17.4202 8.88159 17.4202 9.19818 17.4202H9.84067C10.0232 17.4202 10.1829 17.2691 10.188 17.0725C10.1936 16.8693 10.0423 16.7027 9.85464 16.7027H9.19818C8.88159 16.7027 8.58408 16.7027 8.30567 16.7027H7.87734C7.86477 16.7027 7.85174 16.7027 7.83917 16.7027C7.83917 16.5941 7.83917 16.483 7.83917 16.3705V15.4378C7.94532 15.4378 8.06404 15.4378 8.19719 15.4378C8.38528 15.4378 8.5771 15.4378 8.77218 15.4378C8.96725 15.4378 9.15022 15.4378 9.32016 15.4378C9.99617 15.4378 10.5297 15.3347 10.9203 15.129C11.311 14.9229 11.5884 14.6442 11.7532 14.2924C11.9176 13.9407 12 13.5454 12 13.1061C12 12.6302 11.9087 12.2374 11.7262 11.9267ZM10.8119 14.0197C10.6601 14.2334 10.4431 14.385 10.161 14.4746C9.87885 14.5641 9.54084 14.6087 9.1465 14.6087H7.83917V13.8156C7.83917 13.4543 7.83917 13.1286 7.83917 12.8389C7.83917 12.5491 7.83917 12.2694 7.83917 11.9992C7.83917 11.9562 7.83917 11.9122 7.83917 11.8681H9.45052C9.60974 11.8681 9.78061 11.8796 9.96311 11.9032C10.1456 11.9267 10.3193 11.9792 10.4841 12.0608C10.6484 12.1423 10.7825 12.2679 10.8854 12.4371C10.9883 12.6062 11.04 12.8384 11.04 13.1336C11.04 13.5104 10.9636 13.8061 10.8119 14.0197Z" fill="#1D1D1D"/>
</svg>
