<svg width="34" height="34" viewBox="0 0 34 34" fill="none" xmlns="http://www.w3.org/2000/svg">
<path d="M6.35327 27.1523H3.14941" stroke="#1D1D1D" stroke-width="1.8" stroke-miterlimit="10" stroke-linecap="round" stroke-linejoin="round"/>
<path d="M3.42285 8.25H19.6885V17.2922H30.3204L32.5469 19.9266V27.1512H28.5631" stroke="#1D1D1D" stroke-width="1.8" stroke-miterlimit="10" stroke-linecap="round" stroke-linejoin="round"/>
<path d="M21.6559 27.1523H13.2588" stroke="#1D1D1D" stroke-width="1.8" stroke-miterlimit="10" stroke-linecap="round" stroke-linejoin="round"/>
<path d="M19.6885 10.0898H24.8868C26.2301 10.0898 27.4477 10.8791 27.9966 12.1038L30.3203 17.2909H19.6885V10.0898V10.0898Z" stroke="#1D1D1D" stroke-width="1.8" stroke-miterlimit="10" stroke-linecap="round" stroke-linejoin="round"/>
<path d="M2 14H9" stroke="#1D1D1D" stroke-width="1.8" stroke-miterlimit="10" stroke-linecap="round" stroke-linejoin="round"/>
<path d="M1 19H8" stroke="#1D1D1D" stroke-width="1.8" stroke-miterlimit="10" stroke-linecap="round" stroke-linejoin="round"/>
<path d="M13.2591 27.1506C13.2591 29.0582 11.7134 30.6039 9.80682 30.6039C7.89922 30.6039 6.35352 29.0582 6.35352 27.1506C6.35352 25.244 7.89922 23.6973 9.80682 23.6973C11.7134 23.6973 13.2591 25.244 13.2591 27.1506Z" stroke="#1D1D1D" stroke-width="1.8" stroke-miterlimit="10" stroke-linecap="round" stroke-linejoin="round"/>
<path d="M26.4303 30.3407C28.1924 29.6108 29.0292 27.5907 28.2993 25.8286C27.5694 24.0665 25.5493 23.2298 23.7872 23.9597C22.0251 24.6896 21.1884 26.7097 21.9183 28.4717C22.6481 30.2338 24.6683 31.0706 26.4303 30.3407Z" stroke="#1D1D1D" stroke-width="1.8" stroke-miterlimit="10" stroke-linecap="round" stroke-linejoin="round"/>
</svg>
