<svg width="60" height="60" viewBox="0 0 60 60" fill="none" xmlns="http://www.w3.org/2000/svg">
<circle cx="30" cy="30" r="29.1" fill="#FFCA64" stroke="#1D1D1D" stroke-width="1.8"/>
<path d="M27.4401 40.0682C27.5023 39.8942 27.5838 39.7302 27.6818 39.5747C27.7882 39.4205 27.9069 39.2749 28.034 39.1377C28.69 38.4689 29.6277 38.1776 30.5365 38.36C30.7201 38.3996 30.8997 38.4562 31.0737 38.5311C31.2367 38.5948 31.3927 38.6782 31.5377 38.7786C31.691 38.8832 31.8333 39.0034 31.9645 39.1391C32.2255 39.405 32.4327 39.7203 32.5749 40.0682C32.6357 40.2421 32.6854 40.4188 32.7227 40.5998C32.76 40.7808 32.7793 40.9661 32.7793 41.1499C32.7738 42.1015 32.3097 42.9909 31.5377 43.5212C31.3927 43.6216 31.2367 43.7036 31.0737 43.7672C30.8997 43.8407 30.7201 43.8987 30.5365 43.9369C30.1815 44.0133 29.8155 44.0133 29.4606 43.9369C29.2825 43.9001 29.1084 43.8436 28.9413 43.7672C28.7728 43.7036 28.6113 43.6202 28.4607 43.5212C28.3102 43.4109 28.1679 43.2907 28.034 43.1606C27.5119 42.6275 27.2192 41.9035 27.2192 41.1499C27.2178 40.778 27.2937 40.4089 27.4401 40.0682Z" fill="black"/>
<path d="M30.4484 16.0271C31.4317 16.1487 32.3266 16.6662 32.937 17.4637C33.5488 18.2626 33.825 19.2765 33.7049 20.2819L32.0048 34.6468C31.9247 35.3213 31.527 35.9138 30.9386 36.2305C30.3503 36.5459 29.6487 36.5459 29.0604 36.2305C28.4721 35.9152 28.0743 35.3227 27.9942 34.6468L26.2928 20.2819C26.2582 19.9764 26.2582 19.6682 26.2928 19.3628C26.4129 18.356 26.917 17.4397 27.6959 16.8147C28.4748 16.1897 29.465 15.9069 30.4484 16.0271Z" fill="black"/>
</svg>
