<svg width="44" height="36" viewBox="0 0 44 36" fill="none" xmlns="http://www.w3.org/2000/svg">
<path d="M16.8339 24.5138C21.4107 24.5138 25.1209 20.7943 25.1209 16.2061C25.1209 11.6179 21.4107 7.89844 16.8339 7.89844C12.2571 7.89844 8.54688 11.6179 8.54688 16.2061C8.54688 20.7943 12.2571 24.5138 16.8339 24.5138Z" fill="#EE0005"/>
<path d="M27.1229 24.5138C31.6997 24.5138 35.41 20.7943 35.41 16.2061C35.41 11.6179 31.6997 7.89844 27.1229 7.89844C22.5462 7.89844 18.8359 11.6179 18.8359 16.2061C18.8359 20.7943 22.5462 24.5138 27.1229 24.5138Z" fill="#F9A000"/>
<path d="M18.8438 16.2069C18.8438 18.844 20.068 21.1915 21.9828 22.7146C23.8976 21.1915 25.1218 18.844 25.1218 16.2069C25.1218 13.5698 23.8976 11.2223 21.9828 9.69922C20.068 11.2223 18.8438 13.5698 18.8438 16.2069Z" fill="#FF6300"/>
<path d="M10.3538 26.2958L10.4103 26.579C10.4731 26.4783 10.561 26.3965 10.674 26.3273C10.787 26.258 10.9188 26.2266 11.0632 26.2266C11.3897 26.2266 11.6094 26.3524 11.7224 26.5979C11.8856 26.3524 12.1242 26.2266 12.4381 26.2266C12.6955 26.2266 12.8901 26.2958 13.0345 26.4343C13.1789 26.5727 13.248 26.7741 13.248 27.0447V28.5489H12.6892V27.1706C12.6892 27.0322 12.6516 26.9189 12.5825 26.8371C12.5134 26.7552 12.413 26.7175 12.2874 26.7175C12.1368 26.7175 12.0175 26.7741 11.9421 26.8811C11.8668 26.9881 11.8229 27.1266 11.8229 27.2902V28.5489H11.2641V27.1266C11.2641 26.8496 11.1386 26.7175 10.8874 26.7175C10.743 26.7175 10.6238 26.7741 10.5359 26.8811C10.448 26.9944 10.4103 27.1517 10.4103 27.3594V28.5426H9.85156V26.2958H10.3538Z" fill="black"/>
<path d="M15.6206 26.2962H16.0914V28.5431H15.6206L15.5578 28.2787C15.3757 28.499 15.1434 28.6123 14.8484 28.6123C14.5408 28.6123 14.2771 28.5053 14.0573 28.285C13.8376 28.0648 13.7246 27.7752 13.7246 27.4165C13.7246 27.0578 13.8376 26.7683 14.0636 26.548C14.2896 26.3277 14.547 26.2207 14.8484 26.2207C15.156 26.2207 15.3946 26.3277 15.5578 26.5354L15.6206 26.2962ZM15.3883 26.9193C15.2627 26.7934 15.1121 26.7242 14.93 26.7242C14.7479 26.7242 14.591 26.7871 14.4717 26.9193C14.3461 27.0452 14.2896 27.2151 14.2896 27.4228C14.2896 27.6305 14.3524 27.8004 14.4717 27.9263C14.5973 28.0522 14.7479 28.1214 14.93 28.1214C15.1121 28.1214 15.269 28.0585 15.3883 27.9263C15.5138 27.8004 15.5703 27.6305 15.5703 27.4228C15.5703 27.2151 15.5138 27.0452 15.3883 26.9193Z" fill="black"/>
<path d="M17.8563 28.0769C17.9254 28.0329 17.9631 27.9699 17.9631 27.8818C17.9631 27.8 17.9254 27.7308 17.8501 27.6867C17.7747 27.6426 17.6429 27.6112 17.4545 27.5923C17.1971 27.5608 16.99 27.4853 16.8456 27.3657C16.7012 27.2461 16.6258 27.0825 16.6258 26.8874C16.6258 26.686 16.7075 26.5224 16.877 26.4028C17.0465 26.2832 17.2599 26.2266 17.511 26.2266C17.781 26.2266 17.9882 26.2895 18.1451 26.4154C18.3021 26.5412 18.3962 26.7112 18.4276 26.9315L17.9254 27.0133C17.9066 26.8937 17.8626 26.8056 17.7873 26.7426C17.7119 26.6797 17.6178 26.6482 17.5048 26.6482C17.4043 26.6482 17.3164 26.6671 17.2536 26.7112C17.1846 26.7552 17.1532 26.8119 17.1532 26.8811C17.1532 27.0447 17.3227 27.1454 17.6554 27.1769C18.2205 27.2336 18.4967 27.4601 18.4967 27.844C18.4967 28.0643 18.4088 28.2468 18.2393 28.3916C18.0698 28.5363 17.8438 28.6056 17.5675 28.6056C17.2725 28.6056 17.0339 28.5301 16.8456 28.379C16.6572 28.228 16.5505 28.0266 16.5254 27.7811L17.0402 27.6867C17.0716 27.8315 17.1281 27.9447 17.2034 28.0203C17.285 28.0958 17.4043 28.1336 17.5613 28.1336C17.6868 28.1461 17.781 28.121 17.8563 28.0769Z" fill="black"/>
<path d="M19.0918 25.7168H19.6505V26.2958H20.09V26.7301H19.6505V27.7874C19.6505 27.9951 19.7384 28.1021 19.9142 28.1021C19.977 28.1021 20.0335 28.0895 20.0963 28.0706V28.549C20.0272 28.5741 19.9205 28.5867 19.7949 28.5867C19.5815 28.5867 19.412 28.5301 19.2801 28.4105C19.1483 28.2909 19.0855 28.1084 19.0855 27.863V26.7364H18.7402V26.3021H19.0855V25.7168H19.0918Z" fill="black"/>
<path d="M22.6957 27.5739H20.9568C20.9756 27.7438 21.0446 27.8822 21.1576 27.9829C21.2707 28.0836 21.4088 28.134 21.5845 28.134C21.8608 28.134 22.0491 28.0144 22.1558 27.7752L22.6769 27.9389C22.5827 28.1529 22.4446 28.3228 22.25 28.4361C22.0617 28.5557 21.8357 28.6123 21.5845 28.6123C21.2267 28.6123 20.9379 28.499 20.7245 28.2787C20.511 28.0585 20.4043 27.769 20.4043 27.4165C20.4043 27.0704 20.5173 26.7871 20.7496 26.5606C20.9819 26.334 21.2581 26.2207 21.5908 26.2207C21.911 26.2207 22.181 26.3214 22.3881 26.5228C22.6016 26.7242 22.702 27.0074 22.702 27.3725V27.5739H22.6957ZM21.5845 26.6801C21.4276 26.6801 21.2958 26.7242 21.1953 26.8123C21.0886 26.9004 21.0195 27.02 20.9819 27.1648H22.1621C22.1119 26.8438 21.9236 26.6801 21.5845 26.6801Z" fill="black"/>
<path d="M24.5165 26.2655L24.4161 26.7501C24.3596 26.7312 24.3031 26.7186 24.234 26.7186C24.0959 26.7186 23.9829 26.7753 23.8887 26.8949C23.7945 27.0144 23.7443 27.1592 23.7443 27.3354V28.5501H23.1855V26.3033H23.6878L23.7443 26.5991C23.7945 26.4921 23.8636 26.404 23.964 26.3347C24.0645 26.2655 24.1838 26.234 24.3219 26.234C24.3972 26.2277 24.46 26.2403 24.5165 26.2655Z" fill="black"/>
<path d="M26.4073 27.7056L26.9409 27.8881C26.7714 28.3727 26.4135 28.6182 25.8736 28.6182C25.5409 28.6182 25.2584 28.5112 25.0324 28.2909C24.8064 28.0706 24.6934 27.7811 24.6934 27.4224C24.6934 27.0636 24.8064 26.7741 25.0324 26.5538C25.2584 26.3336 25.5409 26.2266 25.8736 26.2266C26.1561 26.2266 26.3884 26.2958 26.5705 26.428C26.7526 26.5664 26.8718 26.7615 26.9221 27.0133L26.4073 27.114C26.3759 27.0007 26.3131 26.9063 26.2189 26.8308C26.1248 26.7552 26.0055 26.7238 25.8736 26.7238C25.6853 26.7238 25.5346 26.7867 25.4279 26.9189C25.3149 27.051 25.2584 27.2147 25.2584 27.4224C25.2584 27.6238 25.3149 27.7937 25.4279 27.9259C25.5409 28.058 25.6916 28.121 25.8736 28.121C26.1436 28.1147 26.3194 27.9825 26.4073 27.7056Z" fill="black"/>
<path d="M29.1948 26.2962H29.6656V28.5431H29.1948L29.132 28.2787C28.9499 28.499 28.7177 28.6123 28.4226 28.6123C28.115 28.6123 27.8513 28.5053 27.6316 28.285C27.4118 28.0648 27.2988 27.7752 27.2988 27.4165C27.2988 27.0578 27.4118 26.7683 27.6378 26.548C27.8638 26.3277 28.1212 26.2207 28.4226 26.2207C28.7302 26.2207 28.9688 26.3277 29.132 26.5354L29.1948 26.2962ZM28.9625 26.9193C28.8369 26.7934 28.6863 26.7242 28.5042 26.7242C28.3221 26.7242 28.1652 26.7871 28.0459 26.9193C27.9204 27.0452 27.8639 27.2151 27.8639 27.4228C27.8639 27.6305 27.9266 27.8004 28.0459 27.9263C28.1715 28.0522 28.3221 28.1214 28.5042 28.1214C28.6863 28.1214 28.8432 28.0585 28.9625 27.9263C29.0881 27.8004 29.1446 27.6305 29.1446 27.4228C29.1446 27.2151 29.0881 27.0452 28.9625 26.9193Z" fill="black"/>
<path d="M31.5868 26.2655L31.4864 26.7501C31.4299 26.7312 31.3734 26.7186 31.3043 26.7186C31.1662 26.7186 31.0532 26.7753 30.959 26.8949C30.8648 27.0144 30.8146 27.1592 30.8146 27.3354V28.5501H30.2559V26.3033H30.7581L30.8146 26.5991C30.8648 26.4921 30.9339 26.404 31.0343 26.3347C31.1348 26.2655 31.2541 26.234 31.3922 26.234C31.4675 26.2277 31.5303 26.2403 31.5868 26.2655Z" fill="black"/>
<path d="M34.1093 25.4844V28.5494H33.6384L33.5757 28.2851C33.3936 28.5054 33.1613 28.6186 32.8788 28.6186C32.5712 28.6186 32.3075 28.5116 32.094 28.2914C31.8806 28.0711 31.7676 27.7816 31.7676 27.4228C31.7676 27.0641 31.8743 26.7746 32.094 26.5543C32.3138 26.334 32.5712 26.227 32.86 26.227C33.1613 26.227 33.3873 26.3277 33.538 26.5228V25.4844H34.1093ZM33.4124 26.9193C33.2931 26.7935 33.1425 26.7242 32.9604 26.7242C32.7783 26.7242 32.6277 26.7872 32.5084 26.9193C32.3891 27.0452 32.3326 27.2151 32.3326 27.4228C32.3326 27.6305 32.3891 27.8005 32.5084 27.9263C32.6277 28.0522 32.7783 28.1214 32.9604 28.1214C33.1425 28.1214 33.2931 28.0585 33.4124 27.9263C33.5317 27.8005 33.5882 27.6305 33.5882 27.4228C33.5945 27.2151 33.5317 27.0452 33.4124 26.9193Z" fill="black"/>
<path d="M34.4629 21.1465H34.8207V21.2157H34.6826V21.6185H34.6073V21.2157H34.4692V21.1465H34.4629Z" fill="#F9A000"/>
<path d="M35.1413 21.3731L35.3234 21.1465H35.3862V21.6185H35.3108V21.2724L35.1413 21.4863L34.9718 21.2724V21.6122H34.8965V21.1465H34.9593L35.1413 21.3731Z" fill="#F9A000"/>
</svg>
