<svg width="44" height="36" viewBox="0 0 44 36" fill="none" xmlns="http://www.w3.org/2000/svg">
<path d="M15.8718 11.6875C15.8718 15.7721 15.8718 19.819 15.8718 23.8847C14.6539 23.8847 13.4359 23.8847 12.1803 23.8847C12.1803 23.7589 12.1803 23.6393 12.1803 23.5134C12.1803 21.3295 12.1803 19.1519 12.1803 16.9679C12.1803 16.7791 12.1866 16.584 11.9543 16.5525C11.7158 16.5211 11.6781 16.7225 11.6216 16.8924C10.9498 19.1078 10.2718 21.3169 9.60635 23.5386C9.52474 23.8155 9.41801 23.9288 9.11038 23.9162C8.45119 23.891 7.792 23.8973 7.13281 23.9162C6.88796 23.9225 6.78752 23.8407 6.71846 23.6078C6.05299 21.3924 5.37496 19.177 4.70321 16.9616C4.6781 16.8798 4.67182 16.7854 4.6216 16.7288C4.55254 16.6532 4.43326 16.5463 4.35792 16.5651C4.26375 16.5903 4.18213 16.7099 4.13191 16.8106C4.09424 16.8861 4.11935 16.9931 4.11935 17.0875C4.11935 19.2148 4.11935 21.3484 4.11935 23.4756C4.11935 23.6015 4.11935 23.7274 4.11935 23.8784C2.87003 23.8784 1.64581 23.8784 0.396484 23.8784C0.396484 19.8316 0.396484 15.7847 0.396484 11.7064C0.496933 11.7001 0.609937 11.6875 0.716664 11.6875C1.92832 11.6875 3.14626 11.6875 4.35792 11.6875C5.29334 11.6875 5.92743 12.1532 6.19738 13.0469C6.7624 14.9099 7.32742 16.7728 7.89873 18.6358C7.94267 18.7868 8.01173 18.9379 8.06823 19.0826C8.1059 19.0826 8.14357 19.0889 8.18124 19.0889C8.24402 18.9442 8.32563 18.8057 8.36958 18.6609C8.92832 16.8358 9.48079 15.0169 10.0333 13.1917C10.3597 12.1155 10.931 11.6875 12.0485 11.6875C13.1974 11.6875 14.3525 11.6875 15.5014 11.6875C15.6333 11.6875 15.7463 11.6875 15.8718 11.6875Z" fill="#4DB45F"/>
<path d="M17.6621 23.9167C17.6621 19.8195 17.6621 15.7726 17.6621 11.7069C18.8863 11.7069 20.0917 11.7069 21.3536 11.7069C21.3536 11.8265 21.3536 11.9461 21.3536 12.0656C21.3536 14.2244 21.3536 16.3831 21.3536 18.5482C21.3536 18.6426 21.3285 18.7496 21.3662 18.8251C21.4101 18.9195 21.498 19.0265 21.5922 19.0454C21.6612 19.0642 21.7993 18.9824 21.8433 18.9132C21.9626 18.7055 22.0567 18.4789 22.1572 18.2649C23.0236 16.402 23.8899 14.5454 24.7437 12.6761C25.0576 11.9964 25.5662 11.6754 26.3007 11.6817C27.324 11.688 28.3536 11.6817 29.3769 11.6817C29.4899 11.6817 29.6029 11.6817 29.7348 11.6817C29.7348 15.7601 29.7348 19.8132 29.7348 23.8852C28.5168 23.8852 27.3052 23.8852 26.0559 23.8852C26.0559 23.7342 26.0559 23.6146 26.0559 23.4887C26.0559 21.33 26.0559 19.1712 26.0559 17.0062C26.0559 16.9244 26.081 16.83 26.0496 16.7545C26.0056 16.6412 25.9554 16.4587 25.8612 16.4335C25.7671 16.4083 25.6101 16.5531 25.5662 16.6475C25.2648 17.258 24.9823 17.8747 24.6935 18.4978C24.0029 19.9894 23.3061 21.481 22.6218 22.9726C22.333 23.602 21.8621 23.9167 21.1653 23.9104C20.1168 23.9041 19.0747 23.9104 18.0262 23.9104C17.9132 23.9167 17.8002 23.9167 17.6621 23.9167Z" fill="#4DB45F"/>
<path d="M31.1719 11.6949C31.31 11.6949 31.423 11.6949 31.536 11.6949C34.1414 11.6949 36.7468 11.6886 39.3521 11.7012C40.8714 11.7075 42.1145 12.2865 42.9557 13.5956C43.345 14.1935 43.6087 14.8481 43.5647 15.5907C43.5521 15.811 43.5521 16.0313 43.5773 16.2516C43.6087 16.5096 43.5082 16.5915 43.2696 16.5915C42.5351 16.5852 41.8069 16.5977 41.0723 16.5915C39.5844 16.5852 38.0965 16.6544 36.6149 16.5537C34.3548 16.3963 32.597 15.3579 31.5611 13.2621C31.3351 12.7837 31.1907 12.274 31.1719 11.6949Z" fill="url(#paint0_linear_1155_24995)"/>
<path d="M35.3454 19.9958C35.3454 21.3363 35.3454 22.6454 35.3454 23.9734C34.1023 23.9734 32.8906 23.9734 31.6602 23.9734C31.6602 21.7391 31.6602 19.5175 31.6602 17.2832C35.5714 17.2832 39.4637 17.2832 43.4001 17.2832C43.3687 17.3776 43.3498 17.4657 43.3122 17.5412C42.5462 19.1021 41.2969 19.9391 39.5579 19.9706C38.2646 19.9958 36.9651 19.9769 35.6718 19.9769C35.5714 19.9769 35.4835 19.9895 35.3454 19.9958Z" fill="#4DB45F"/>
<defs>
<linearGradient id="paint0_linear_1155_24995" x1="31.1736" y1="14.1521" x2="43.5852" y2="14.1521" gradientUnits="userSpaceOnUse">
<stop stop-color="#00D9FF"/>
<stop offset="1" stop-color="#0097FF"/>
</linearGradient>
</defs>
</svg>
