<svg width="34" height="34" viewBox="0 0 34 34" fill="none" xmlns="http://www.w3.org/2000/svg">
<path d="M2.01939 8.81431C2.00485 8.91369 2 9.01549 2 9.11729V8.79492L2.01939 8.81431Z" stroke="#1D1D1D" stroke-width="1.8" stroke-miterlimit="10" stroke-linecap="round" stroke-linejoin="round"/>
<path d="M21.4974 20.6551C21.4901 21.7507 21.9288 22.7396 22.6463 23.4547C23.354 24.1624 24.3332 24.6011 25.4167 24.6011H29.147V27.6455C29.147 28.821 28.1944 29.7736 27.0189 29.7736H4.12813C2.95257 29.7736 2 28.821 2 27.6455V9.11523C2 10.5889 3.19253 11.7815 4.66622 11.7815H27.5836C28.4465 11.7815 29.147 12.4819 29.147 13.3448V16.7649H25.5161C23.3467 16.7649 21.5143 18.4858 21.4974 20.6551Z" stroke="#1D1D1D" stroke-width="1.8" stroke-miterlimit="10" stroke-linecap="round" stroke-linejoin="round"/>
<path d="M4.66622 6.44922H16.2473L7.19671 11.7817H4.66622C3.19253 11.7817 2 10.5891 2 9.11544C2 9.01364 2.00485 8.91184 2.01939 8.81246C2.08726 8.19681 2.366 7.64659 2.78048 7.22969C3.26282 6.74735 3.92938 6.44922 4.66622 6.44922Z" stroke="#1D1D1D" stroke-width="1.8" stroke-miterlimit="10" stroke-linecap="round" stroke-linejoin="round"/>
<path d="M25.3752 7.83808V11.7817L21.9697 6.44922H23.9888C24.7547 6.44922 25.3752 7.07215 25.3752 7.83808Z" stroke="#1D1D1D" stroke-width="1.8" stroke-miterlimit="10" stroke-linecap="round" stroke-linejoin="round"/>
<path d="M25.3761 11.7829H7.19727L16.2479 6.4505L20.4072 4L21.9706 6.4505L25.3761 11.7829Z" stroke="#1D1D1D" stroke-width="1.8" stroke-miterlimit="10" stroke-linecap="round" stroke-linejoin="round"/>
<path d="M32.0006 18.0595V23.3119C32.0006 24.0245 31.4213 24.6038 30.7087 24.6038H25.4175C24.334 24.6038 23.3548 24.1651 22.647 23.4574C21.9296 22.7423 21.4909 21.7534 21.4981 20.6578C21.5127 18.4885 23.3475 16.7676 25.5169 16.7676H30.7087C31.4238 16.7676 32.0006 17.3445 32.0006 18.0595Z" stroke="#1D1D1D" stroke-width="1.8" stroke-miterlimit="10" stroke-linecap="round" stroke-linejoin="round"/>
<path d="M25.3758 21.906C26.0559 21.906 26.6071 21.3547 26.6071 20.6747C26.6071 19.9946 26.0559 19.4434 25.3758 19.4434C24.6958 19.4434 24.1445 19.9946 24.1445 20.6747C24.1445 21.3547 24.6958 21.906 25.3758 21.906Z" stroke="#1D1D1D" stroke-width="1.8" stroke-miterlimit="10" stroke-linecap="round" stroke-linejoin="round"/>
</svg>
