<svg width="24" height="24" viewBox="0 0 24 24" fill="none" xmlns="http://www.w3.org/2000/svg">
<g clip-path="url(#clip0_1922_16861)">
<path d="M6.89405 10.7677C6.88784 10.7731 6.88163 10.7784 6.87542 10.7842C6.83728 10.8188 6.80091 10.8542 6.76631 10.8915C6.6949 10.9687 6.63192 11.0516 6.57781 11.1385C6.56805 11.1541 6.55873 11.17 6.54942 11.186C6.20434 11.7848 6.26422 12.5619 6.75123 13.1039C7.35755 13.7785 8.39632 13.8339 9.07095 13.2276C9.60719 12.7459 9.75223 11.9906 9.48477 11.3625C9.48256 11.3568 9.47989 11.351 9.47723 11.3452C9.42889 11.2352 9.36768 11.1288 9.29361 11.029C9.2732 11.0015 9.25191 10.9744 9.22929 10.9478C9.2182 10.9345 9.20667 10.9212 9.1947 10.9079C8.59414 10.2395 7.56912 10.1787 6.89405 10.7677Z" stroke="#1D1D1D" stroke-miterlimit="10"/>
<path d="M14.1282 11.1545C14.122 11.1598 14.1158 11.1651 14.1096 11.1709C14.0714 11.2055 14.035 11.241 14.0004 11.2782C13.929 11.3554 13.866 11.4383 13.8119 11.5253C13.8022 11.5408 13.7929 11.5568 13.7836 11.5727C13.4385 12.1715 13.4984 12.9486 13.9854 13.4906C14.5917 14.1652 15.6305 14.2207 16.3051 13.6143C16.8413 13.1327 16.9864 12.3773 16.7189 11.7493C16.7167 11.7435 16.714 11.7377 16.7114 11.732C16.663 11.622 16.6018 11.5155 16.5277 11.4157C16.5073 11.3882 16.4861 11.3612 16.4634 11.3345C16.4523 11.3212 16.4408 11.3079 16.4288 11.2946C15.8283 10.6262 14.8033 10.5654 14.1282 11.1545Z" stroke="#1D1D1D" stroke-miterlimit="10"/>
<path d="M11.3267 16.0143L11.7937 8.45898" stroke="#1D1D1D" stroke-miterlimit="10" stroke-linecap="round"/>
<path d="M21.9885 12.1137L9.61509 23.2333L0.496338 13.0859L12.8698 1.9668L20.2295 4.52381L21.9885 12.1137Z" stroke="#1D1D1D" stroke-miterlimit="10" stroke-linecap="round" stroke-linejoin="round"/>
<path d="M17.8019 3.68029C18.8119 2.34523 21.5534 0.304942 22.9643 1.87508C24.3752 3.44521 22.6454 6.30826 20.8096 7.0268C18.5586 7.90767 17.6223 6.86624 17.6223 6.86624" stroke="#1D1D1D" stroke-miterlimit="10" stroke-linecap="round" stroke-linejoin="round"/>
</g>
<defs>
<clipPath id="clip0_1922_16861">
<rect width="24" height="24" fill="white"/>
</clipPath>
</defs>
</svg>
