<svg width="17" height="17" viewBox="0 0 17 17" fill="none" xmlns="http://www.w3.org/2000/svg">
<path d="M8.23126 0.5C12.7358 0.514397 16.4362 4.12543 16.4101 8.48715C16.4084 9.89541 16.0265 11.2783 15.3029 12.4972C14.5792 13.7159 13.5393 14.7274 12.2876 15.43C11.0359 16.1326 9.61663 16.5017 8.17221 16.5C3.66448 16.508 -0.0212988 12.8697 9.26457e-05 8.42969C0.0192084 6.31575 0.895662 4.29512 2.43799 2.8094C3.98031 1.32357 6.0631 0.493429 8.23126 0.500257V0.5ZM8.26903 2.01363C7.09702 2.00258 5.94285 2.29454 4.92406 2.85994C3.90541 3.42523 3.05849 4.24366 2.46967 5.23183C1.88084 6.22012 1.57122 7.34278 1.57213 8.48555C1.53104 12.0198 4.5391 14.9704 8.17389 14.9784C9.34567 14.981 10.4973 14.6813 11.5118 14.1097C12.5265 13.5381 13.3679 12.715 13.9509 11.724C14.5339 10.7328 14.8375 9.60901 14.8312 8.46652C14.8098 4.92252 11.8561 2.01852 8.26874 2.01366L8.26903 2.01363Z" fill="#C3FF5C"/>
<path d="M15.4999 8.4999C15.4999 12.403 12.2465 15.5896 8.20503 15.5896C4.16353 15.5896 0.910156 12.403 0.910156 8.4999C0.910156 4.59683 4.16353 1.41016 8.20503 1.41016C12.2465 1.41016 15.4999 4.59683 15.4999 8.4999Z" stroke="#C3FF5C"/>
<path d="M7.85904 13.0342H7.25513C7.24471 13.0257 7.23315 13.0187 7.22067 13.0134C7.04119 12.9443 6.89432 12.8129 6.80826 12.6445C6.72218 12.4761 6.70306 12.2827 6.75469 12.1013C7.02872 10.9989 7.31098 9.8981 7.58503 8.79562C7.62314 8.64294 7.65062 8.4879 7.6671 8.33167C7.67843 8.29217 7.66561 8.24987 7.63425 8.22263C7.60277 8.1954 7.55824 8.18804 7.51944 8.20366C7.4543 8.2175 7.39101 8.23848 7.33068 8.26605C7.19287 8.32208 7.05997 8.3877 6.92205 8.44049C6.82212 8.49585 6.69563 8.4713 6.625 8.38279V8.16683C6.71863 8.03871 6.82463 7.91974 6.94174 7.81169C7.3553 7.49172 7.78031 7.18926 8.20694 6.88523C8.29828 6.82641 8.39638 6.77809 8.49906 6.74126C8.63379 6.684 8.7835 6.66894 8.92738 6.69807C9.17051 6.72909 9.38709 6.86347 9.51916 7.06504C9.65114 7.2666 9.68503 7.51469 9.61165 7.74284C9.34357 8.80947 9.07561 9.87084 8.80754 10.9268C8.76473 11.0996 8.73291 11.275 8.71242 11.4516C8.70189 11.4912 8.71654 11.5332 8.74973 11.5582C8.78293 11.5833 8.82826 11.5867 8.865 11.5668C8.96676 11.5364 9.06188 11.4884 9.16032 11.4499C9.25876 11.4115 9.4015 11.3524 9.52468 11.3123V11.3124C9.59633 11.2865 9.6768 11.3093 9.72327 11.3684C9.77535 11.4263 9.78325 11.5102 9.74296 11.5764C9.71309 11.6381 9.67497 11.6957 9.62975 11.7476C9.52811 11.8566 9.41845 11.9582 9.30147 12.0516C8.8538 12.4229 8.37085 12.752 7.85907 13.034L7.85904 13.0342Z" fill="#C3FF5C"/>
<path d="M8.64095 6.19893C8.33579 6.2015 8.04205 6.08542 7.8247 5.87661C7.60733 5.66769 7.48417 5.38299 7.48244 5.08533C7.48072 4.78779 7.60045 4.50173 7.81542 4.29047C8.03027 4.07909 8.32263 3.9599 8.62779 3.95899C8.93308 3.9581 9.22599 4.07573 9.44222 4.28587C9.65834 4.49592 9.7798 4.7813 9.7798 5.07896C9.78197 5.37493 9.66304 5.65964 9.44923 5.86981C9.23552 6.08008 8.94465 6.1985 8.64098 6.19896L8.64095 6.19893Z" fill="#C3FF5C"/>
</svg>
