<svg width="34" height="34" viewBox="0 0 34 34" fill="none" xmlns="http://www.w3.org/2000/svg">
<path d="M27.2579 28.5571C27.2579 29.0542 27.6608 29.4571 28.1579 29.4571C28.6549 29.4571 29.0579 29.0542 29.0579 28.5571H27.2579ZM4.94082 28.5571C4.94082 29.0542 5.34376 29.4571 5.84082 29.4571C6.33788 29.4571 6.74082 29.0542 6.74082 28.5571H4.94082ZM13.1421 22.1559H20.8566V20.3559H13.1421V22.1559ZM20.8566 22.1559C24.3919 22.1559 27.2579 25.0218 27.2579 28.5571H29.0579C29.0579 24.0277 25.386 20.3559 20.8566 20.3559V22.1559ZM13.1421 20.3559C8.61265 20.3559 4.94082 24.0277 4.94082 28.5571H6.74082C6.74082 25.0218 9.60676 22.1559 13.1421 22.1559V20.3559Z" fill="#1D1D1D"/>
<rect x="11.8375" y="5.9" width="10.1851" height="11.976" rx="5.09254" stroke="#1D1D1D" stroke-width="1.8"/>
</svg>
