<svg width="44" height="36" viewBox="0 0 44 36" fill="none" xmlns="http://www.w3.org/2000/svg">
<g clip-path="url(#clip0_1155_24965)">
<path d="M12.013 22.9346L16.8157 11.7129L13.9278 11.7129L13.2686 11.7129L10.9834 17.5975L10.9708 17.5849L9.92239 20.2094L9.65871 18.4849C9.06858 16.4143 7.16634 14.136 5.0632 13.0283L5.09459 13.1479C5.0632 13.129 5.03181 13.1101 4.99414 13.0912L7.95109 24.1367L11.4982 24.1367L11.5296 24.0674L11.5672 24.0674L12.013 22.9346Z" fill="#00579F"/>
<path d="M41.0429 19.0314L39.3981 11.6426L37.6339 11.6426L36.8429 11.6426C36.0519 11.6426 35.4617 11.7118 35.1353 12.5426L30.207 24.0726L30.6653 24.0726L33.7541 24.0726L34.4133 22.002L38.6133 22.002L39.0088 24.0726L42.1604 24.0726L41.0429 19.0314ZM37.1066 15.0286L37.3012 16.1992C37.3012 16.1992 37.9164 19.1195 38.0734 19.9251L35.3299 19.9251C35.5936 19.2328 36.642 16.2685 36.642 16.2685C36.642 16.2685 36.9057 15.5132 37.1066 15.0286Z" fill="#00579F"/>
<path d="M18.6542 11.6504L18.0578 11.6504L15.9609 24.0742L19.3071 24.0742L21.3412 11.6504L18.6542 11.6504Z" fill="#00579F"/>
<path d="M30.6722 20.0015C30.6722 18.554 29.8184 17.4463 27.8471 16.5526C26.6668 15.9295 25.9448 15.5833 25.9448 14.9665C25.9448 14.4127 26.535 13.8589 27.8471 13.8588C28.9646 13.8588 29.7493 14.0665 30.3394 14.3435L30.6659 14.4819L31.1933 11.7882C30.5341 11.5113 29.4856 11.2344 28.1735 11.2344C24.8901 11.2344 22.5233 12.9589 22.5233 15.4449C22.5233 17.3078 24.1682 18.277 25.4803 18.8938C26.3843 19.3218 26.8489 19.6491 27.056 19.9952L26.8614 19.7938C26.9744 19.9134 27.0623 20.0141 27.1188 20.1211C27.169 20.2407 27.1879 20.3602 27.1879 20.4861C27.1879 21.3169 26.1395 21.726 25.2166 21.726C23.9045 21.726 23.1825 21.5183 22.065 21.0337L21.6067 20.826L21.1484 23.6582C21.1547 23.6582 21.1547 23.6582 21.161 23.6644L21.1484 23.7274C21.9395 24.0735 23.3834 24.4197 24.8901 24.4197C26.9933 24.4197 28.7009 23.7966 29.6865 22.6952L29.6489 22.6575C30.3081 21.9463 30.6722 21.0463 30.6722 20.0015Z" fill="#00579F"/>
<path d="M9.5575 18.4083C9.57005 18.4335 9.57633 18.4587 9.58889 18.4838L9.46961 17.9552L8.40862 12.681C8.214 11.8503 7.61759 11.6426 6.89562 11.6426L0.787109 11.6426L2.88397 12.316C5.47051 13.3545 7.61759 15.0223 8.8418 16.9671C9.14315 17.4706 9.39427 17.9992 9.58889 18.5405L9.5575 18.4083Z" fill="#F79510"/>
</g>
<defs>
<clipPath id="clip0_1155_24965">
<rect width="44" height="36" fill="white"/>
</clipPath>
</defs>
</svg>
