<svg width="20" height="20" viewBox="0 0 20 20" fill="none" xmlns="http://www.w3.org/2000/svg">
<g clip-path="url(#clip0_1301_24100)">
<path d="M0.98721 9.61728C0.74852 8.02481 1.98191 6.59277 3.59218 6.59277H16.4081C18.0184 6.59277 19.2518 8.02481 19.0131 9.61729L17.9393 16.7817C17.746 18.0713 16.6383 19.0254 15.3343 19.0254H4.66603C3.36206 19.0254 2.25435 18.0713 2.06106 16.7817L0.98721 9.61728Z" stroke="#333333" stroke-width="1.5"/>
<path d="M13.8568 9.55061C13.8568 9.96483 14.1926 10.3006 14.6068 10.3006C15.021 10.3006 15.3568 9.96483 15.3568 9.55061H13.8568ZM5.09277 9.55061C5.09277 9.96483 5.42856 10.3006 5.84277 10.3006C6.25699 10.3006 6.59277 9.96483 6.59277 9.55061H5.09277ZM13.8568 5.28095V9.55061H15.3568V5.28095H13.8568ZM6.59277 9.55061V5.28095H5.09277V9.55061H6.59277ZM10.2248 1.64893C12.2307 1.64893 13.8568 3.27504 13.8568 5.28095H15.3568C15.3568 2.44661 13.0591 0.148926 10.2248 0.148926V1.64893ZM10.2248 0.148926C7.39046 0.148926 5.09277 2.44661 5.09277 5.28095H6.59277C6.59277 3.27504 8.21889 1.64893 10.2248 1.64893V0.148926Z" fill="#333333"/>
</g>
<defs>
<clipPath id="clip0_1301_24100">
<rect width="20" height="20" fill="white"/>
</clipPath>
</defs>
</svg>
