<svg width="18" height="18" viewBox="0 0 18 18" fill="none" xmlns="http://www.w3.org/2000/svg">
<g clip-path="url(#clip0_2432_63487)">
<path d="M9.00035 3.40617L8.98339 3.42285L8.5099 2.94157C7.68145 2.0995 6.52129 1.57499 5.23321 1.57499C2.70586 1.57499 0.674999 3.5889 0.674999 6.05099C0.674999 8.97585 2.72534 11.5654 4.94258 13.4909C6.03442 14.439 7.12952 15.1936 7.9531 15.7116C8.36419 15.9701 8.70586 16.1686 8.94329 16.3016C8.96292 16.3126 8.98183 16.3232 9 16.3333C9.01817 16.3232 9.03708 16.3126 9.05671 16.3016C9.29414 16.1686 9.63581 15.9701 10.0469 15.7116C10.8705 15.1936 11.9656 14.439 13.0574 13.4909C15.2747 11.5654 17.325 8.97585 17.325 6.05099C17.325 3.58886 15.2945 1.57504 12.7669 1.57535H12.7668C11.4791 1.57535 10.3192 2.09981 9.4902 2.94148L9.01669 3.42225L9.00035 3.40617Z" stroke="#333333" stroke-width="1.35"/>
</g>
<defs>
<clipPath id="clip0_2432_63487">
<rect width="18" height="18" fill="white"/>
</clipPath>
</defs>
</svg>
