<svg width="22" height="22" viewBox="0 0 22 22" fill="none" xmlns="http://www.w3.org/2000/svg">
<g clip-path="url(#clip0_2147_35170)">
<path d="M21.8597 12.7621C22.833 6.76501 18.7603 1.11437 12.7632 0.141081C6.76611 -0.832212 1.11548 3.2404 0.142186 9.23752C-0.831107 15.2346 3.24151 20.8853 9.23862 21.8586C15.2357 22.8318 20.8864 18.7592 21.8597 12.7621Z" fill="#FFD05D"/>
<path d="M16.755 1.61191C17.8507 3.32189 18.4857 5.35579 18.4857 7.53682C18.4857 13.6114 13.5609 18.5375 7.48503 18.5375C5.37498 18.5375 3.40431 17.9425 1.73047 16.9127C3.68565 19.9648 7.1069 21.9871 11.0005 21.9871C17.0751 21.9871 22.0011 17.0624 22.0011 10.9865C21.9998 7.02189 19.9014 3.54773 16.755 1.61191Z" fill="#FDC453"/>
<path d="M1.49451 12.1609C1.49451 6.51987 6.06693 1.94745 11.7079 1.94745C15.0053 1.94745 17.9361 3.51031 19.8035 5.93525C18.0406 2.87278 14.7343 0.811768 10.9478 0.811768C5.30679 0.811768 0.734375 5.38418 0.734375 11.0252C0.734375 13.3688 1.52419 15.5279 2.85217 17.2508C1.98879 15.7525 1.49451 14.0141 1.49451 12.1609Z" fill="#FFD77F"/>
<path d="M6.3252 13.2514C6.58976 15.5989 8.58237 17.425 11.0009 17.425C13.4193 17.425 15.4107 15.6002 15.6765 13.2514H6.3252Z" fill="#695342"/>
<path d="M7.77051 16.1396C8.61324 16.9359 9.74892 17.425 10.9995 17.425C12.1971 17.425 13.2889 16.9772 14.1187 16.2416L14.0761 16.1409C10.9362 14.609 7.8131 16.1177 7.77051 16.1396Z" fill="#F06669"/>
<path d="M9.48271 7.80137C9.48271 7.7962 9.48271 7.79104 9.48271 7.78459C9.48271 6.76893 8.74838 5.83844 7.64367 5.83844C6.7661 5.83844 6.25633 6.46952 6.0834 7.0593C5.90917 6.46823 5.4007 5.83844 4.52312 5.83844C3.41841 5.83844 2.68409 6.76893 2.68409 7.78459C2.68409 7.78975 2.68409 7.79491 2.68409 7.80137C2.67764 8.02205 2.68409 10.2715 6.08211 12.1041C9.484 10.2715 9.48916 8.02205 9.48271 7.80137Z" fill="#E62728"/>
<path d="M19.3157 7.80137C19.3157 7.7962 19.3157 7.79104 19.3157 7.78459C19.3157 6.76893 18.5814 5.83844 17.4767 5.83844C16.5991 5.83844 16.0893 6.46952 15.9164 7.0593C15.7422 6.46823 15.2337 5.83844 14.3561 5.83844C13.2514 5.83844 12.5171 6.76893 12.5171 7.78459C12.5171 7.78975 12.5171 7.79491 12.5171 7.80137C12.5106 8.02205 12.5171 10.2715 15.9151 12.1041C19.3157 10.2715 19.3222 8.02205 19.3157 7.80137Z" fill="#E62728"/>
</g>
<defs>
<clipPath id="clip0_2147_35170">
<rect width="22" height="22" fill="white"/>
</clipPath>
</defs>
</svg>
