<svg width="20" height="20" viewBox="0 0 20 20" fill="none" xmlns="http://www.w3.org/2000/svg">
<path d="M16.3344 7.59626V7.21572C16.3344 3.72702 13.5062 0.898874 10.0175 0.898874V0.898874C6.52883 0.898874 3.70068 3.72702 3.70068 7.21572V7.59626" stroke="#333333" stroke-width="1.5"/>
<path d="M11.6917 18.7078L12.9094 18.7078V18.7078C14.8009 18.7078 16.3342 17.1745 16.3342 15.283L16.3342 14.7503" stroke="#333333" stroke-width="1.5"/>
<mask id="path-3-inside-1_251_5950" fill="white">
<path d="M1.46069 10.1396C1.46069 8.65525 2.66402 7.45192 4.1484 7.45192H5.16401V14.8585H4.1484C2.66402 14.8585 1.46069 13.6552 1.46069 12.1708V10.1396Z"/>
</mask>
<path d="M5.16401 7.45192H6.66401V5.95192H5.16401V7.45192ZM5.16401 14.8585V16.3585H6.66401V14.8585H5.16401ZM4.1484 8.95192H5.16401V5.95192H4.1484V8.95192ZM3.66401 7.45192V14.8585H6.66401V7.45192H3.66401ZM5.16401 13.3585H4.1484V16.3585H5.16401V13.3585ZM2.96069 12.1708V10.1396H-0.0393066V12.1708H2.96069ZM4.1484 13.3585C3.49245 13.3585 2.96069 12.8268 2.96069 12.1708H-0.0393066C-0.0393066 14.4836 1.83559 16.3585 4.1484 16.3585V13.3585ZM4.1484 5.95192C1.8356 5.95192 -0.0393066 7.82682 -0.0393066 10.1396H2.96069C2.96069 9.48368 3.49245 8.95192 4.1484 8.95192V5.95192Z" fill="#333333" mask="url(#path-3-inside-1_251_5950)"/>
<mask id="path-5-inside-2_251_5950" fill="white">
<path d="M18.6306 10.1396C18.6306 8.65525 17.4273 7.45192 15.9429 7.45192H14.9273V14.8585H15.9429C17.4273 14.8585 18.6306 13.6552 18.6306 12.1708V10.1396Z"/>
</mask>
<path d="M14.9273 7.45192H13.4273V5.95192H14.9273V7.45192ZM14.9273 14.8585V16.3585H13.4273V14.8585H14.9273ZM15.9429 8.95192H14.9273V5.95192H15.9429V8.95192ZM16.4273 7.45192V14.8585H13.4273V7.45192H16.4273ZM14.9273 13.3585H15.9429V16.3585H14.9273V13.3585ZM17.1306 12.1708V10.1396H20.1306V12.1708H17.1306ZM15.9429 13.3585C16.5989 13.3585 17.1306 12.8268 17.1306 12.1708H20.1306C20.1306 14.4836 18.2557 16.3585 15.9429 16.3585V13.3585ZM15.9429 5.95192C18.2557 5.95192 20.1306 7.82682 20.1306 10.1396H17.1306C17.1306 9.48368 16.5989 8.95192 15.9429 8.95192V5.95192Z" fill="#333333" mask="url(#path-5-inside-2_251_5950)"/>
<mask id="path-7-inside-3_251_5950" fill="white">
<rect x="9.31616" y="17.7763" width="2.80554" height="1.90777" rx="0.790503"/>
</mask>
<rect x="9.31616" y="17.7763" width="2.80554" height="1.90777" rx="0.790503" stroke="#333333" stroke-width="1.90777" mask="url(#path-7-inside-3_251_5950)"/>
</svg>
