<svg width="20" height="20" viewBox="0 0 20 20" fill="none" xmlns="http://www.w3.org/2000/svg">
<g clip-path="url(#clip0_251_5961)">
<path d="M18.3512 19.4382C18.3512 19.8524 18.687 20.1882 19.1012 20.1882C19.5154 20.1882 19.8512 19.8524 19.8512 19.4382H18.3512ZM0.148926 19.4382C0.148926 19.8524 0.484712 20.1882 0.898926 20.1882C1.31314 20.1882 1.64893 19.8524 1.64893 19.4382H0.148926ZM6.53903 14.2332H13.4611V12.7332H6.53903V14.2332ZM18.3512 19.1233V19.4382H19.8512V19.1233H18.3512ZM1.64893 19.4382V19.1233H0.148926V19.4382H1.64893ZM13.4611 14.2332C16.1618 14.2332 18.3512 16.4225 18.3512 19.1233H19.8512C19.8512 15.5941 16.9902 12.7332 13.4611 12.7332V14.2332ZM6.53903 12.7332C3.00987 12.7332 0.148926 15.5941 0.148926 19.1233H1.64893C1.64893 16.4225 3.8383 14.2332 6.53903 14.2332V12.7332Z" fill="#333333"/>
<rect x="5.80615" y="0.974749" width="8.27528" height="9.73596" rx="4.13764" stroke="#333333" stroke-width="1.5"/>
</g>
<defs>
<clipPath id="clip0_251_5961">
<rect width="20" height="20" fill="white"/>
</clipPath>
</defs>
</svg>
