<svg width="18" height="18" viewBox="0 0 18 18" fill="none" xmlns="http://www.w3.org/2000/svg">
<path d="M2.19063 15.5824C2.22292 15.5823 2.25508 15.5791 2.28663 15.5726L6.77227 14.6755H6.77788C6.79857 14.6713 6.81889 14.6656 6.83884 14.6587L6.85081 14.6544C6.87138 14.6469 6.89157 14.638 6.91102 14.6279C6.92922 14.6177 6.9468 14.6064 6.96363 14.5942L6.97622 14.5851C6.99355 14.5723 7.00988 14.5582 7.02522 14.5431L16.1459 5.42054C16.4654 5.10101 16.6449 4.66767 16.6449 4.21576C16.6449 3.76384 16.4654 3.3305 16.1459 3.01097L14.2717 1.13683C13.9519 0.817807 13.5186 0.638672 13.0669 0.638672C12.6151 0.638672 12.1819 0.81782 11.8621 1.13683L2.7415 10.2565C2.72617 10.2718 2.71208 10.2886 2.69949 10.3063C2.696 10.3099 2.69301 10.3139 2.69039 10.3181C2.67805 10.3348 2.66708 10.3524 2.65735 10.3707C2.64725 10.3902 2.63828 10.4104 2.6308 10.431L2.62656 10.443V10.4429C2.6197 10.4628 2.61409 10.4832 2.60973 10.5039V10.5095L1.71263 14.9951C1.68383 15.1391 1.72123 15.2884 1.81436 15.4021C1.90736 15.5157 2.04649 15.5817 2.19348 15.5817L2.19063 15.5824ZM3.3898 11.5988L5.68381 13.8928L2.81658 14.4662L3.3898 11.5988ZM12.5558 1.83063C12.6914 1.69537 12.8752 1.61932 13.0668 1.61932C13.2584 1.61932 13.442 1.69537 13.5777 1.83063L15.4518 3.7055C15.5873 3.84102 15.6635 4.02478 15.6635 4.21652C15.6635 4.40814 15.5873 4.59191 15.4518 4.72742L6.67905 13.5002L3.78239 10.6035L12.5558 1.83063Z" fill="#555555"/>
<path d="M16.5361 16.375H1.47997C1.30468 16.375 1.14263 16.4685 1.05499 16.6203C0.967347 16.7722 0.967347 16.9592 1.05499 17.1109C1.14263 17.2628 1.3047 17.3563 1.47997 17.3563H16.5361C16.7114 17.3563 16.8735 17.2628 16.9611 17.1109C17.0487 16.9592 17.0487 16.7722 16.9611 16.6203C16.8734 16.4685 16.7114 16.375 16.5361 16.375Z" fill="#555555"/>
</svg>
