<svg width="380" height="15" viewBox="0 0 380 15" fill="none" xmlns="http://www.w3.org/2000/svg">
<rect width="380" height="4" transform="matrix(1 0 0 -1 0 4)" fill="#F5F5F5"/>
<path d="M5.46821 15L0 4H11L5.46821 15Z" fill="#F5F5F5"/>
<path d="M16.4682 15L11 4H22L16.4682 15Z" fill="#F5F5F5"/>
<path d="M27.4682 15L22 4H33L27.4682 15Z" fill="#F5F5F5"/>
<path d="M37.9711 15L33 4H43L37.9711 15Z" fill="#F5F5F5"/>
<path d="M48.4682 15L43 4H54L48.4682 15Z" fill="#F5F5F5"/>
<path d="M59.4682 15L54 4H65L59.4682 15Z" fill="#F5F5F5"/>
<path d="M70.4682 15L65 4H76L70.4682 15Z" fill="#F5F5F5"/>
<path d="M81.4682 15L76 4H87L81.4682 15Z" fill="#F5F5F5"/>
<path d="M92.4682 15L87 4H98L92.4682 15Z" fill="#F5F5F5"/>
<path d="M103.468 15L98 4H109L103.468 15Z" fill="#F5F5F5"/>
<path d="M113.971 15L109 4H119L113.971 15Z" fill="#F5F5F5"/>
<path d="M124.468 15L119 4H130L124.468 15Z" fill="#F5F5F5"/>
<path d="M135.468 15L130 4H141L135.468 15Z" fill="#F5F5F5"/>
<path d="M146.468 15L141 4H152L146.468 15Z" fill="#F5F5F5"/>
<path d="M157.468 15L152 4H163L157.468 15Z" fill="#F5F5F5"/>
<path d="M168.468 15L163 4H174L168.468 15Z" fill="#F5F5F5"/>
<path d="M179.468 15L174 4H185L179.468 15Z" fill="#F5F5F5"/>
<path d="M189.971 15L185 4H195L189.971 15Z" fill="#F5F5F5"/>
<path d="M200.468 15L195 4H206L200.468 15Z" fill="#F5F5F5"/>
<path d="M211.468 15L206 4H217L211.468 15Z" fill="#F5F5F5"/>
<path d="M222.468 15L217 4H228L222.468 15Z" fill="#F5F5F5"/>
<path d="M233.468 15L228 4H239L233.468 15Z" fill="#F5F5F5"/>
<path d="M244.468 15L239 4H250L244.468 15Z" fill="#F5F5F5"/>
<path d="M255.468 15L250 4H261L255.468 15Z" fill="#F5F5F5"/>
<path d="M265.971 15L261 4H271L265.971 15Z" fill="#F5F5F5"/>
<path d="M276.468 15L271 4H282L276.468 15Z" fill="#F5F5F5"/>
<path d="M287.468 15L282 4H293L287.468 15Z" fill="#F5F5F5"/>
<path d="M298.468 15L293 4H304L298.468 15Z" fill="#F5F5F5"/>
<path d="M309.468 15L304 4H315L309.468 15Z" fill="#F5F5F5"/>
<path d="M320.468 15L315 4H326L320.468 15Z" fill="#F5F5F5"/>
<path d="M331.468 15L326 4H337L331.468 15Z" fill="#F5F5F5"/>
<path d="M341.971 15L337 4H347L341.971 15Z" fill="#F5F5F5"/>
<path d="M352.468 15L347 4H358L352.468 15Z" fill="#F5F5F5"/>
<path d="M363.468 15L358 4H369L363.468 15Z" fill="#F5F5F5"/>
<path d="M374.468 15L369 4H380L374.468 15Z" fill="#F5F5F5"/>
</svg>
