<svg width="60" height="60" viewBox="0 0 60 60" fill="none" xmlns="http://www.w3.org/2000/svg">
<circle cx="22.5" cy="36.5" r="20.5" fill="#C3FF5C"/>
<path d="M23.4579 15.968C23.3553 15.9659 23.2538 15.9648 23.1511 15.9648C22.5121 15.9648 21.8805 15.9945 21.2563 16.0516C19.9561 16.1722 18.6918 16.4145 17.473 16.7678C17.253 16.8313 17.035 16.899 16.8181 16.9699C8.67389 19.6318 2.79053 27.2915 2.79053 36.3244C2.79053 47.5696 11.906 56.685 23.1511 56.685C32.0878 56.685 39.6808 50.9265 42.4178 42.9166C42.4443 42.8426 42.4696 42.7685 42.494 42.6945C42.9605 41.2778 43.2758 39.7924 43.4197 38.2573C43.4599 37.8341 43.4864 37.4067 43.5001 36.9772C43.5075 36.7603 43.5107 36.5424 43.5107 36.3244C43.5107 25.1829 34.5603 16.1309 23.4579 15.968Z" stroke="#1D1D1D" stroke-width="2" stroke-miterlimit="10"/>
<path d="M57.1043 23.3596C57.1043 24.0123 57.0736 24.6556 57.0133 25.2925C56.8694 26.8276 56.5541 28.313 56.0875 29.7296C53.9981 36.0806 48.868 41.0509 42.4196 42.9183C42.4461 42.8442 42.4715 42.7701 42.4958 42.6961C42.9624 41.2795 43.2777 39.7941 43.4215 38.259C43.4617 37.8358 43.4882 37.4084 43.5019 36.9788C43.5094 36.7619 43.5125 36.544 43.5125 36.3261C43.5125 25.1846 34.5621 16.1326 23.4598 15.9697C23.3572 15.9675 23.2556 15.9665 23.153 15.9665C22.514 15.9665 21.8824 15.9961 21.2581 16.0532C19.9579 16.1738 18.6936 16.4161 17.4749 16.7695C19.5358 10.7412 24.3464 5.98771 30.4117 4.00507C31.8294 3.54168 33.3148 3.22852 34.8499 3.08675C35.4741 3.02962 36.1057 3 36.7447 3C47.9888 3 57.1043 12.1155 57.1043 23.3596Z" stroke="#1D1D1D" stroke-width="2" stroke-miterlimit="10"/>
<path d="M51.9404 23.36C51.9404 24.3894 51.8378 25.3945 51.6421 26.3668C51.384 27.6575 50.9618 28.8869 50.399 30.0369C48.9274 33.0415 46.494 35.4896 43.4989 36.9782C43.5063 36.7613 43.5095 36.5434 43.5095 36.3254C43.5095 25.184 34.5591 16.132 23.4568 15.969C24.9686 13.2564 27.2887 11.0548 30.0902 9.68892C31.2413 9.12926 32.4717 8.70924 33.7624 8.45321C34.7263 8.26172 35.7218 8.16016 36.7417 8.16016C45.1356 8.16016 51.9404 14.965 51.9404 23.36Z" stroke="#1D1D1D" stroke-width="2" stroke-miterlimit="10"/>
<path d="M29.3447 29.8198C28.9094 29.0786 28.2531 28.5248 27.378 28.1584C26.5018 27.792 25.3957 27.6094 24.0586 27.6094C22.7127 27.6094 21.5111 27.6094 20.455 27.6094H19.0924C18.4116 27.6094 17.8597 28.2026 17.8597 28.9342V29.6754C17.8597 30.3473 17.8597 31.0336 17.8597 31.7342C17.8597 32.4348 17.8597 33.1831 17.8597 33.9804V40.4194C17.8597 40.6892 17.8597 40.9529 17.8597 41.2119H16.5148C16.0795 41.2119 15.6986 41.5724 15.6864 42.0414C15.6731 42.526 16.034 42.9234 16.4815 42.9234H17.8597C17.8597 43.1621 17.8597 43.3973 17.8597 43.6252V45.462C17.8597 46.0958 18.3039 46.6484 18.8925 46.689C19.5366 46.7343 20.073 46.1853 20.073 45.5026V43.6252C20.073 43.3961 20.073 43.1621 20.073 42.9234C20.1029 42.9234 20.134 42.9234 20.164 42.9234H21.1857C21.8498 42.9234 22.5594 42.9234 23.3146 42.9234H24.8471C25.2824 42.9234 25.6633 42.563 25.6755 42.0939C25.6889 41.6094 25.328 41.2119 24.8804 41.2119H23.3146C22.5594 41.2119 21.8498 41.2119 21.1857 41.2119H20.164C20.134 41.2119 20.1029 41.2119 20.073 41.2119C20.073 40.9529 20.073 40.688 20.073 40.4194V38.1947C20.3262 38.1947 20.6093 38.1947 20.927 38.1947C21.3756 38.1947 21.8331 38.1947 22.2984 38.1947C22.7638 38.1947 23.2002 38.1947 23.6055 38.1947C25.218 38.1947 26.4907 37.9488 27.4224 37.4583C28.3541 36.9666 29.016 36.3018 29.4091 35.4627C29.8011 34.6237 29.9977 33.6808 29.9977 32.6329C29.9977 31.4979 29.78 30.5609 29.3447 29.8198ZM27.1637 34.8123C26.8016 35.3219 26.2841 35.6835 25.6111 35.8972C24.9382 36.1108 24.1319 36.217 23.1913 36.217H20.073V34.3253C20.073 33.4636 20.073 32.6866 20.073 31.9956C20.073 31.3045 20.073 30.6373 20.073 29.9928C20.073 29.8902 20.073 29.7852 20.073 29.6801H23.9165C24.2963 29.6801 24.7038 29.7076 25.1392 29.7637C25.5745 29.8198 25.9887 29.9451 26.3818 30.1396C26.7739 30.3342 27.0937 30.6338 27.3391 31.0372C27.5845 31.4406 27.7078 31.9944 27.7078 32.6985C27.7078 33.5973 27.5257 34.3026 27.1637 34.8123Z" fill="#1D1D1D"/>
</svg>
