<svg width="60" height="60" viewBox="0 0 60 60" fill="none" xmlns="http://www.w3.org/2000/svg">
<path d="M56.7059 17.3191L56.7064 17.3234L57.8821 27.2022C57.8822 27.2024 57.8822 27.2026 57.8822 27.2028C57.9117 27.4559 57.8238 27.7063 57.652 27.8775L57.6519 27.8775L57.6453 27.8843L28.2464 57.7481L28.2445 57.7501C27.9192 58.0823 27.3849 58.0858 27.0573 57.762L27.0534 57.7581L6.581 37.7404C6.58072 37.7402 6.58045 37.7399 6.58018 37.7396C6.25147 37.4165 6.24834 36.8858 6.56909 36.5609L6.57001 36.5599L35.9674 6.69756C35.9676 6.69737 35.9678 6.69717 35.968 6.69697C36.1509 6.5123 36.404 6.42371 36.6502 6.44982L36.6502 6.44984L36.6575 6.45057L46.5885 7.42923L46.5888 7.42926C46.7696 7.44703 46.9483 7.52944 47.0931 7.67085L56.4593 16.8302L56.4595 16.8304C56.6014 16.969 56.686 17.1459 56.7059 17.3191ZM49.9097 19.9639L49.9097 19.9638C51.55 18.2983 51.5278 15.6116 49.8487 13.9755C48.1795 12.3434 45.4908 12.3659 43.8515 14.0305L43.8499 14.0321C42.2117 15.7031 42.2342 18.3808 43.9041 20.0222L43.9074 20.0255C45.5823 21.6565 48.2644 21.6343 49.9097 19.9639Z" fill="#C3FF5C" stroke="#1D1D1D" stroke-width="2"/>
<path d="M52.5289 13.2642L47.2487 8.08501C46.9626 7.80445 46.5922 7.6305 46.1882 7.59122L36.7108 6.64853C36.1833 6.59803 35.6559 6.78881 35.2799 7.16476L7.62764 35.3445L1.54504 16.7712C1.24203 15.851 1.74704 14.8522 2.66729 14.5548L40.7397 2.08657C41.2447 1.92385 41.8002 1.99118 42.2491 2.28297L50.2283 7.47899C50.565 7.69783 50.8175 8.02329 50.941 8.40485L52.5289 13.2642Z" stroke="#1D1D1D" stroke-width="2" stroke-linecap="round" stroke-linejoin="round"/>
<path d="M56.909 6.44531L46.3711 17.1853" stroke="#1D1D1D" stroke-width="2" stroke-linecap="round" stroke-linejoin="round"/>
<path d="M29.6074 35.9772L29.4392 36.1454C28.4677 37.1169 26.8982 37.1169 25.9266 36.1454L24.8579 35.0766C23.8863 34.105 23.8863 32.5356 24.8579 31.564L25.026 31.3958C25.9976 30.4243 27.5671 30.4243 28.5387 31.3958L29.6074 32.4646C30.5752 33.4324 30.5752 35.0094 29.6074 35.9772Z" stroke="#1D1D1D" stroke-width="2" stroke-linecap="round" stroke-linejoin="round"/>
<path d="M41.7578 34.0944L41.5896 34.2626C40.6181 35.2341 39.0486 35.2341 38.077 34.2626L37.0083 33.1938C36.0367 32.2222 36.0367 30.6528 37.0083 29.6812L37.1764 29.513C38.148 28.5414 39.7175 28.5414 40.6891 29.513L41.7578 30.5818C42.7256 31.5496 42.7256 33.1266 41.7578 34.0944Z" stroke="#1D1D1D" stroke-width="2" stroke-linecap="round" stroke-linejoin="round"/>
<path d="M33.6333 41.4799L32.7643 23.2327" stroke="#1D1D1D" stroke-width="2" stroke-linecap="round" stroke-linejoin="round"/>
</svg>
