<svg width="60" height="60" viewBox="0 0 60 60" fill="none" xmlns="http://www.w3.org/2000/svg">
<g clip-path="url(#clip0_1755_31464)">
<path d="M1.72739 28.1651C0.898052 22.6319 5.18353 17.6562 10.7785 17.6562H40.1306C45.7255 17.6562 50.011 22.6319 49.1817 28.1651L46.8789 43.5287C46.2073 48.0093 42.3585 51.3242 37.8278 51.3242H13.0813C8.55058 51.3242 4.70176 48.0093 4.03018 43.5286L1.72739 28.1651Z" stroke="#1D1D1D" stroke-width="2"/>
<path d="M36.2478 26.1487C36.2478 26.7009 36.6955 27.1487 37.2478 27.1487C37.8001 27.1487 38.2478 26.7009 38.2478 26.1487H36.2478ZM13.8115 26.1487C13.8115 26.7009 14.2592 27.1487 14.8115 27.1487C15.3638 27.1487 15.8115 26.7009 15.8115 26.1487H13.8115ZM36.2478 15.2181V26.1487H38.2478V15.2181H36.2478ZM15.8115 26.1487V15.2182H13.8115V26.1487H15.8115ZM26.0297 5C31.673 5 36.2478 9.57482 36.2478 15.2181H38.2478C38.2478 8.47025 32.7776 3 26.0297 3V5ZM26.0297 3C19.2818 3 13.8115 8.47026 13.8115 15.2182H15.8115C15.8115 9.57483 20.3863 5 26.0297 5V3Z" fill="#1D1D1D"/>
<circle cx="42.499" cy="41.5" r="15.5" fill="#C3FF5C"/>
<path d="M43.2985 26.0024C43.2232 26.0008 43.1488 26 43.0735 26C42.6051 26 42.142 26.0226 41.6844 26.066C40.7312 26.1579 39.8044 26.3423 38.9109 26.6113C38.7496 26.6596 38.5898 26.7112 38.4308 26.7652C32.4603 28.7916 28.1472 34.6229 28.1472 41.4996C28.1472 50.0605 34.8297 57 43.0735 57C49.625 57 55.1914 52.6161 57.1979 46.5182C57.2173 46.4618 57.2359 46.4054 57.2537 46.3491C57.5958 45.2706 57.8269 44.1398 57.9324 42.9711C57.9618 42.6489 57.9812 42.3235 57.9913 41.9965C57.9967 41.8314 57.9991 41.6655 57.9991 41.4996C57.9991 33.0177 51.4375 26.1265 43.2985 26.0024Z" stroke="#1D1D1D" stroke-width="2" stroke-miterlimit="10"/>
<path d="M49.4059 35.085C49.0105 34.3859 48.4143 33.8635 47.6194 33.5179C46.8235 33.1722 45.8188 33 44.6043 33C43.3817 33 42.2902 33 41.3309 33H40.0932C39.4748 33 38.9735 33.5595 38.9735 34.2497V34.9488C38.9735 35.5827 38.9735 36.23 38.9735 36.8909C38.9735 37.5517 38.9735 38.2576 38.9735 39.0097V45.0835C38.9735 45.338 38.9735 45.5868 38.9735 45.8311H37.7519C37.3564 45.8311 37.0104 46.1711 36.9993 46.6135C36.9872 47.0706 37.3151 47.4455 37.7216 47.4455H38.9735C38.9735 47.6707 38.9735 47.8925 38.9735 48.1075V49.8402C38.9735 50.438 39.377 50.9592 39.9116 50.9975C40.4967 51.0403 40.9839 50.5224 40.9839 49.8785V48.1075C40.9839 47.8914 40.9839 47.6707 40.9839 47.4455C41.0111 47.4455 41.0394 47.4455 41.0666 47.4455H41.9946C42.5979 47.4455 43.2425 47.4455 43.9284 47.4455H45.3205C45.7159 47.4455 46.0619 47.1055 46.073 46.6631C46.0851 46.206 45.7573 45.8311 45.3507 45.8311H43.9284C43.2425 45.8311 42.5979 45.8311 41.9946 45.8311H41.0666C41.0394 45.8311 41.0111 45.8311 40.9839 45.8311C40.9839 45.5868 40.9839 45.3369 40.9839 45.0835V42.985C41.2139 42.985 41.4711 42.985 41.7596 42.985C42.1671 42.985 42.5827 42.985 43.0054 42.985C43.4281 42.985 43.8245 42.985 44.1927 42.985C45.6574 42.985 46.8134 42.7531 47.6597 42.2904C48.5061 41.8265 49.1073 41.1994 49.4644 40.408C49.8205 39.6165 49.999 38.7271 49.999 37.7386C49.999 36.668 49.8013 35.7842 49.4059 35.085ZM47.4247 39.7944C47.0959 40.2751 46.6258 40.6162 46.0145 40.8178C45.4032 41.0193 44.6708 41.1195 43.8164 41.1195H40.9839V39.335C40.9839 38.5222 40.9839 37.7893 40.9839 37.1374C40.9839 36.4856 40.9839 35.8562 40.9839 35.2483C40.9839 35.1515 40.9839 35.0524 40.9839 34.9533H44.4751C44.8201 34.9533 45.1903 34.9792 45.5858 35.0321C45.9812 35.085 46.3575 35.2032 46.7146 35.3868C47.0706 35.5703 47.3612 35.8529 47.5841 36.2334C47.807 36.6139 47.919 37.1363 47.919 37.8005C47.919 38.6483 47.7536 39.3137 47.4247 39.7944Z" fill="#1D1D1D"/>
</g>
<defs>
<clipPath id="clip0_1755_31464">
<rect width="60" height="60" fill="white"/>
</clipPath>
</defs>
</svg>
