<svg width="283" height="172" viewBox="0 0 283 172" fill="none" xmlns="http://www.w3.org/2000/svg">
<path d="M280 0.661303C255.625 -4.05597 239.497 17.5934 226.156 34.2975C219.075 43.1624 210.714 52.4374 199.475 55.8329C193.147 57.7472 186.75 56.9724 180.286 56.4027C174.232 55.8785 168.292 55.9925 162.33 57.223C150.954 59.5703 140.674 65.7233 132.838 74.2235C125.277 82.4274 119.817 92.2266 113.992 101.661C108.258 110.913 101.702 120.188 92.45 126.273C88.1553 129.099 83.3124 131.218 78.1496 131.811C71.9132 132.517 65.791 130.785 59.7373 129.623C46.5791 127.093 32.5071 127.116 20.3084 133.292C10.0971 138.442 1.87322 148.15 0.0456882 159.59C0.0228441 159.727 0 159.864 0 160H280V0.661303Z" fill="#C3FF5C"/>
<g clip-path="url(#clip0_2515_41426)">
<path d="M70.581 171.28C69.552 148.458 77.7099 125.411 93.0712 108.584C100.349 100.621 109.104 94.0857 118.738 89.323C128.611 84.4402 139.633 81.21 150.654 80.6992C156.47 80.4287 162.585 81.0598 167.805 83.8542C172.279 86.2431 176.142 90.2395 177.708 95.1524C179.572 100.997 177.365 106.721 174.606 111.874C173.263 114.383 171.936 117.103 170.012 119.221C168.327 121.084 165.747 122.526 163.182 121.79C160.557 121.039 159.886 118.32 160.273 115.901C160.691 113.377 161.929 111.123 163.241 108.975C166.075 104.302 169.55 100.05 173.457 96.2491C181.496 88.4366 191.25 82.5922 201.54 78.3103C213.069 73.5026 225.238 70.5278 237.408 67.9587C249.295 65.4497 261.807 63.0909 273.888 65.5549C276.706 66.1258 279.451 66.9822 282.105 68.0939C282.985 68.4695 283.373 67.0122 282.508 66.6516C270.651 61.6336 257.467 62.7003 245.104 64.9238C232.129 67.2526 219.064 70.2274 206.641 74.7496C195.44 78.8212 184.732 84.4101 175.665 92.2377C171.354 95.9637 167.462 100.17 164.181 104.843C161.481 108.704 157.842 113.872 158.827 118.89C159.289 121.204 161.064 122.992 163.375 123.398C165.881 123.833 168.387 122.827 170.236 121.159C172.354 119.251 173.711 116.622 175.083 114.158C176.604 111.424 178.081 108.614 179.005 105.594C180.676 100.185 179.96 94.5965 176.753 89.909C173.711 85.4318 169.117 82.3218 164.002 80.7142C158.006 78.8362 151.564 78.9263 145.389 79.7226C139.737 80.4588 134.159 81.7509 128.745 83.5988C118.022 87.2497 108.015 92.9889 99.4096 100.396C90.5657 107.953 83.3324 117.388 78.1871 127.905C72.9374 138.632 69.8204 150.411 69.1344 162.37C68.9703 165.345 68.9554 168.305 69.0896 171.28C69.1344 172.241 70.6258 172.241 70.581 171.28Z" fill="#1D1D1D"/>
</g>
<defs>
<clipPath id="clip0_2515_41426">
<rect width="214" height="109" fill="white" transform="translate(69 63)"/>
</clipPath>
</defs>
</svg>
