<svg width="239" height="126" viewBox="0 0 239 126" fill="none" xmlns="http://www.w3.org/2000/svg">
<path d="M32.5015 2.34258C55.1451 -1.09014 78.8932 -0.315009 101.629 1.95501C122.45 4.02203 143.381 8.35906 162.748 16.4426C182.004 24.4891 199.512 36.6698 212.656 53.0398C223.849 66.9921 234.508 84.7647 239 102.999H14V6.03367C20.1303 4.48341 26.3343 3.26535 32.5015 2.34258Z" fill="#C3FF5C"/>
<path d="M74.8111 117.491C74.8111 117.491 102.552 79.3467 88.5367 51.5723C74.5212 23.7979 50.3074 59.6592 50.3074 59.6592C50.3074 59.6592 12.4892 44.9577 5.58238 67.0634C-4.2945 98.6666 29.821 106.652 46.0186 108.189C76.1512 111.02 74.8111 117.491 74.8111 117.491Z" stroke="#1D1D1D" stroke-width="1.5" stroke-miterlimit="10"/>
</svg>
