<svg width="246" height="222" viewBox="0 0 246 222" fill="none" xmlns="http://www.w3.org/2000/svg">
<g clip-path="url(#clip0_2515_41427)">
<path d="M70.2223 206.668H203.003L221 120.453L156.555 189.957L189.875 116.515L123.217 165.076L149.327 17.619L102.86 113.669L86.8545 0.667969L61.4267 88.2512L53 62.0391V189.31C53 198.886 60.7076 206.668 70.2223 206.668Z" fill="#C3FF5C"/>
<path d="M89.8327 124.637L91.0129 137.433L102.068 143.722L90.4108 148.821L87.93 161.422L79.5724 151.759L67 153.264L73.4548 142.216L68.1561 130.537L80.5359 133.354L89.8327 124.637Z" fill="white"/>
<path d="M92.3179 123L93.4157 134.943L103.699 140.813L92.8556 145.572L90.5479 157.333L82.7734 148.314L71.0781 149.719L77.0826 139.407L72.1536 128.507L83.6696 131.136L92.3179 123Z" stroke="#1D1D1D" stroke-width="1.5" stroke-miterlimit="10"/>
</g>
<g clip-path="url(#clip1_2515_41427)">
<path d="M45.258 212.773C62.1219 210.052 78.5881 205.103 94.1695 198.122C109.751 191.141 124.44 182.171 137.718 171.447C149.989 161.534 161.031 150.126 170.544 137.541C179.596 125.558 187.279 112.549 193.4 98.8369C199.524 85.1356 204.108 70.7218 206.96 55.9828C207.309 54.1881 207.626 52.3816 207.928 50.5692C208.037 49.9174 209.052 50.0188 208.942 50.6706C206.495 65.5791 202.314 80.1891 196.537 94.1378C190.76 108.086 183.397 121.395 174.631 133.693C165.572 146.412 154.997 158.04 143.179 168.231C130.172 179.433 115.687 188.913 100.263 196.411C84.8878 203.874 68.545 209.382 51.762 212.656C49.6617 213.074 47.5418 213.449 45.4179 213.787C44.774 213.897 44.6141 212.883 45.258 212.773Z" fill="#1D1D1D"/>
<path d="M39.9153 205.687C56.7743 202.954 73.2405 198.006 88.8218 191.025C104.403 184.044 119.082 175.078 132.37 164.349C144.642 154.437 155.684 143.028 165.196 130.444C174.249 118.461 181.932 105.451 188.052 91.7392C194.177 78.038 198.761 63.6241 201.613 48.8851C201.961 47.0905 202.279 45.284 202.58 43.4716C202.689 42.8198 203.704 42.9212 203.595 43.573C201.147 58.4815 196.967 73.0915 191.19 87.0401C185.413 100.989 178.049 114.298 169.283 126.595C160.225 139.314 149.649 150.942 137.831 161.133C124.824 172.336 110.345 181.826 94.9153 189.314C79.5401 196.777 63.1973 202.285 46.4192 205.569C44.3141 205.977 42.1941 206.352 40.0752 206.7C39.4313 206.81 39.2714 205.796 39.9153 205.687Z" fill="#1D1D1D"/>
<path d="M34.5735 198.601C51.4325 195.868 67.8987 190.92 83.48 183.939C99.0614 176.958 113.74 167.992 127.028 157.264C139.3 147.351 150.342 135.942 159.854 123.358C168.907 111.375 176.59 98.3653 182.71 84.6532C188.835 70.952 193.419 56.5382 196.271 41.7992C196.62 40.0045 196.937 38.198 197.238 36.3856C197.348 35.7338 198.362 35.8352 198.253 36.487C195.805 51.3955 191.625 66.0055 185.848 79.9542C180.071 93.9028 172.707 107.212 163.942 119.509C154.883 132.228 144.308 143.856 132.49 154.047C119.493 165.245 105.009 174.724 89.5735 182.228C74.1983 189.691 57.8555 195.199 41.0774 198.483C38.9723 198.891 36.8523 199.266 34.7334 199.614C34.0846 199.713 33.9247 198.699 34.5735 198.601Z" fill="#1D1D1D"/>
</g>
<defs>
<clipPath id="clip0_2515_41427">
<rect width="168" height="206" fill="white" transform="translate(53 0.667969)"/>
</clipPath>
<clipPath id="clip1_2515_41427">
<rect width="220.68" height="105.824" fill="white" transform="matrix(0.910296 -0.413957 -0.413957 -0.910296 44.4541 221.855)"/>
</clipPath>
</defs>
</svg>
