<svg width="60" height="60" viewBox="0 0 60 60" fill="none" xmlns="http://www.w3.org/2000/svg">
<path d="M19.6284 50.4367H8.82216C7.66169 50.4367 6.7207 49.4957 6.7207 48.3352V43.0854L6.93766 42.543C6.93766 42.543 6.93766 42.543 9.03281 43.4991C11.1267 44.4552 12.5647 47.62 14.3306 48.2923C14.9348 48.5232 17.0754 49.3923 19.6284 50.4367Z" stroke="#1D1D1D" stroke-width="2" stroke-miterlimit="10" stroke-linecap="round" stroke-linejoin="round"/>
<path d="M29.9488 50.4341H29.916L23.5801 47.7852L29.9488 50.4341Z" stroke="#1D1D1D" stroke-width="2" stroke-miterlimit="10" stroke-linecap="round" stroke-linejoin="round"/>
<path d="M51.289 26.8718V48.3329C51.289 49.4946 50.348 50.4356 49.1863 50.4356H34.9516C35.3061 49.5085 34.8658 48.4476 33.9286 48.0566L24.9312 44.2965L35.6138 48.7289C35.8686 48.8349 36.1323 48.8841 36.3921 48.8841C37.1918 48.8841 37.9499 48.4098 38.2728 47.624C38.703 46.5795 38.1971 45.3838 37.1477 44.9637L35.325 44.2346C35.5495 44.3242 35.7816 44.3671 36.0099 44.3671C36.71 44.3671 37.376 43.9672 37.6863 43.2962C38.1316 42.3337 37.6749 41.1935 36.6873 40.805L23.7909 35.7191L30.509 33.3994C31.2041 33.1597 31.6493 32.5076 31.6493 31.8012C31.6493 31.6751 31.6355 31.5477 31.6064 31.4203C31.3996 30.5172 30.5065 29.9483 29.6009 30.1438C26.1585 30.8842 18.2497 32.5732 15.5491 33.0286C12.0601 33.6176 10.8088 32.8482 10.8088 32.8482L11.027 32.2995C11.3033 31.6082 10.9665 30.8224 10.2753 30.5462L6.7207 29.1271V14.9492H36.7693C36.7049 15.4311 36.6734 15.9243 36.6747 16.4225C36.6873 22.3611 41.4641 27.2767 47.4002 27.4507C48.7637 27.4911 50.073 27.2842 51.289 26.8718Z" stroke="#1D1D1D" stroke-width="2" stroke-miterlimit="10" stroke-linecap="round" stroke-linejoin="round"/>
<path d="M39.3128 9.23047C37.9618 10.8135 37.0511 12.7825 36.7686 14.9496H6.71875L9.24151 9.23047H39.3128Z" stroke="#1D1D1D" stroke-width="2" stroke-miterlimit="10" stroke-linecap="round" stroke-linejoin="round"/>
<path d="M33.4443 14.9483H22.792L24.4848 9.23047H31.7516L33.4443 14.9483Z" stroke="#1D1D1D" stroke-width="2" stroke-miterlimit="10" stroke-linecap="round" stroke-linejoin="round"/>
<path d="M22.7893 14.9492H33.4404V26.7469C33.4404 27.2401 32.8665 27.51 32.4868 27.1972L28.0026 23.4988L23.7518 27.1556C23.3734 27.481 22.7881 27.2123 22.7881 26.7141V14.9492H22.7893Z" stroke="#1D1D1D" stroke-width="2" stroke-miterlimit="10" stroke-linecap="round" stroke-linejoin="round"/>
<path d="M10.2422 30.5341C10.9524 30.8179 11.298 31.6226 11.0142 32.3328L6.72045 43.0848L6.65612 43.245C6.43033 43.8101 5.79081 44.085 5.22571 43.8593L1.94613 42.5499C1.30535 42.2939 0.992525 41.5661 1.24858 40.9253L5.80216 29.5224C5.94722 29.1604 6.35843 28.9838 6.72045 29.1289L10.2422 30.5341Z" stroke="#1D1D1D" stroke-width="2" stroke-miterlimit="10" stroke-linecap="round" stroke-linejoin="round"/>
<path d="M38.2727 47.6241C37.9498 48.41 37.1917 48.8842 36.392 48.8842C36.1321 48.8842 35.8685 48.835 35.6137 48.7291L24.9311 44.2966L33.9285 48.0568C34.8657 48.4478 35.3059 49.5086 34.9515 50.4357C34.9288 50.4963 34.9023 50.5568 34.872 50.6174C34.5453 51.2607 33.8919 51.6391 33.2095 51.6391C32.9711 51.6391 32.7289 51.5924 32.4956 51.4953L29.9488 50.4357L23.5801 47.7868L29.916 50.4357L30.712 50.7687C31.7185 51.1888 32.1853 52.3543 31.7463 53.3533C31.4272 54.0849 30.7107 54.5226 29.9577 54.5226C29.7104 54.5226 29.4582 54.4759 29.2147 54.375C26.9568 53.4454 22.9431 51.793 19.6282 50.4357C17.0752 49.3913 14.9346 48.5222 14.3304 48.2914C12.5645 47.6191 11.1265 44.4543 9.03265 43.4981C6.9375 42.542 6.9375 42.542 6.9375 42.542L10.8087 32.8483C10.8087 32.8483 12.06 33.6178 15.5489 33.0287C18.2495 32.5733 26.1584 30.8844 29.6007 30.1439C30.5064 29.9484 31.3994 30.5173 31.6063 31.4204C31.6353 31.5478 31.6492 31.6752 31.6492 31.8014C31.6492 32.5078 31.2039 33.1599 30.5089 33.3995L23.7908 35.7192L36.6871 40.8051C37.6748 41.1936 38.1314 42.3339 37.6861 43.2963C37.3758 43.9674 36.7098 44.3672 36.0098 44.3672C35.7814 44.3672 35.5494 44.3243 35.3248 44.2348L37.1475 44.9639C38.197 45.3839 38.7028 46.5797 38.2727 47.6241Z" stroke="#1D1D1D" stroke-width="2" stroke-miterlimit="10" stroke-linecap="round" stroke-linejoin="round"/>
<path d="M58.7918 16.3984C58.7918 21.261 55.6522 25.3907 51.2891 26.8716C50.1728 27.25 48.977 27.4556 47.7333 27.4556C41.6257 27.4556 36.6748 22.5047 36.6748 16.3984C36.6748 15.9077 36.7063 15.4233 36.7694 14.949C37.052 12.782 37.9627 10.813 39.3136 9.22994C41.3419 6.84971 44.3604 5.33984 47.7333 5.33984C53.8409 5.33984 58.7918 10.2908 58.7918 16.3984Z" fill="#C3FF5C" stroke="#1D1D1D" stroke-width="2" stroke-miterlimit="10" stroke-linecap="round" stroke-linejoin="round"/>
<path d="M42.999 16.2371L46.8535 20L52.999 14" stroke="#1D1D1D" stroke-width="2" stroke-miterlimit="10" stroke-linecap="round" stroke-linejoin="round"/>
<path d="M35.3243 44.2354L25.9951 40.8789" stroke="#1D1D1D" stroke-width="2" stroke-miterlimit="10" stroke-linecap="round" stroke-linejoin="round"/>
</svg>
