<svg width="350" height="201" viewBox="0 0 350 201" fill="none" xmlns="http://www.w3.org/2000/svg">
<path d="M0 200.175C30.4658 206.1 50.6241 178.878 67.3275 157.896C76.1788 146.761 86.6291 135.11 100.677 130.845C108.586 128.441 116.581 129.414 124.661 130.129C132.228 130.788 139.652 130.645 147.104 129.099C161.323 126.151 174.172 118.422 183.966 107.745C193.417 97.4397 200.241 85.1309 207.522 73.2801C214.688 61.6584 222.883 50.008 234.447 42.3651C239.843 38.8156 245.868 36.1534 252.321 35.4092C260.116 34.5218 267.768 36.6973 275.334 38.1572C291.781 41.3346 309.369 41.3059 324.617 33.5486C337.38 27.0793 347.659 14.885 349.943 0.515251C349.971 0.343501 349.971 0.17175 350 0L0 0L0 200.175Z" fill="#C3FF5C"/>
<g clip-path="url(#clip0_2528_41416)">
<path d="M72.1262 23.8036C67.189 32.9068 70.1713 39.4278 79.8203 42.1276C89.4693 44.8273 118.349 46.84 136.039 53.9674C153.729 61.0948 174.448 80.817 180.581 92.4685C186.714 104.12 191.105 111.558 193.632 109.811C196.155 108.071 190.91 93.9912 186.527 87.1443C182.145 80.2974 171.695 62.1442 149.271 45.5028C126.853 28.8656 108.458 20.9441 95.9366 19.698C83.4175 18.4628 75.3399 17.882 72.1262 23.8036Z" fill="#C9C9C9"/>
<path d="M82.3078 36.9668C82.2148 37.812 80.9093 37.5862 81.0089 36.7453C81.7036 30.7347 84.6521 24.4122 89.5534 20.6481C89.3631 20.6646 89.1686 20.6877 88.9872 20.7195C88.2112 20.8514 87.4489 21.0488 86.7001 21.3118C85.1849 21.8356 83.6668 22.5936 82.3865 23.5645C82.3038 23.6329 82.2143 23.6685 82.1335 23.6908C81.9407 23.9984 81.7522 24.2994 81.5661 24.6113C80.856 25.8061 80.225 27.0529 79.706 28.345C78.7734 30.6681 78.4943 33.232 79.2668 35.6471C79.4565 36.2345 78.5549 36.5575 78.3652 35.9701C77.5376 33.481 77.7281 30.7644 78.4496 28.2742C78.867 26.8209 79.5038 25.4646 80.2502 24.1427C80.5207 23.6596 80.8152 23.1829 81.1163 22.7105C81.1687 21.9991 81.3196 21.2958 81.5384 20.6183C80.4122 21.3978 79.3411 22.2514 78.367 23.216C78.0518 23.5375 77.3582 23.5441 77.2301 23.0066C77.2301 23.0066 77.2301 23.0066 77.2278 22.9957C76.8608 24.8032 76.5157 26.6061 76.4355 28.4512C76.3437 30.5151 76.5102 32.6167 77.0066 34.6331C77.1325 35.1596 76.9566 35.7143 76.4 35.9148C75.9219 36.082 75.2551 35.8324 75.1183 35.3082C74.5394 33.0582 74.2885 30.7689 74.4422 28.4529C74.5878 26.2355 75.1004 23.9195 76.1885 21.963C76.3701 21.6293 76.7571 21.5721 77.0379 21.6907C76.9919 20.9995 77.0269 20.3144 77.1627 19.6484C75.9575 20.7348 74.772 21.8342 73.5204 22.8618C73.1308 23.1816 72.4322 22.7506 72.5757 22.2596C73.0636 20.541 73.6877 18.9026 74.6056 17.3629C74.9737 16.7457 75.9984 17.2118 75.6261 17.8356C75.1259 18.668 74.707 19.535 74.3692 20.4364C75.7877 19.1693 77.2371 17.9413 78.6073 16.6328C79.2249 16.0381 80.1311 16.785 79.628 17.4928C78.8061 18.6424 78.3378 20.0151 78.3576 21.4065C79.8412 20.0405 81.3976 18.779 83.1127 17.7069C83.9147 17.2051 84.7107 18.1627 84.1903 18.8969C83.9301 19.2639 83.7137 19.6504 83.5237 20.0542C83.7232 20.1098 83.8884 20.2751 83.9094 20.4872C84.6157 20.0735 85.3508 19.7165 86.1454 19.427C87.0142 19.1108 87.912 18.8797 88.8168 18.7098C89.7325 18.5377 90.6527 18.3874 91.5389 18.734C91.7495 18.8158 91.8751 18.9551 91.9417 19.1122C92.1881 18.9815 92.4389 18.8443 92.6985 18.7223C93.3791 18.405 93.8014 19.4285 93.2657 19.8411C90.507 21.9548 87.9075 24.3433 85.948 27.2374C83.9558 30.1668 82.7163 33.4305 82.3078 36.9668ZM198.382 112.208C197.858 109.919 197.056 107.721 196.217 105.536C195.374 103.357 194.505 101.19 193.561 99.0497C191.7 94.8146 189.585 90.6949 187.24 86.7079C185.921 84.4626 184.525 82.2791 183.075 80.1178C183.089 80.1265 183.098 80.1417 183.111 80.1504C183.601 80.4821 184.226 80.0908 184.063 79.4923C183.926 78.9965 183.534 78.5876 183.219 78.1914C182.888 77.7756 182.542 77.3687 182.187 76.9749C181.521 76.2352 180.83 75.5351 180.088 74.8681C179.542 74.377 178.975 73.919 178.392 73.4698C176.882 71.4008 175.342 69.3494 173.769 67.3333C174.592 67.978 175.412 68.6116 176.221 69.276C177.354 70.2096 178.443 71.2092 179.596 72.1274C180.264 72.6614 181.053 71.7067 180.447 71.1198C179.399 70.1003 178.234 69.1735 177.096 68.2464C175.986 67.3367 174.86 66.4359 173.723 65.5657C172.593 64.6999 171.45 63.8538 170.287 63.0232C167.237 59.3755 163.983 55.867 160.102 53.0976C155.905 50.1027 151.434 47.4552 147.012 44.803C138.084 39.4424 128.958 34.4243 119.651 29.74C119.568 29.6946 119.486 29.6601 119.403 29.6147C120.495 29.6624 121.583 29.7736 122.676 29.9067C123.541 30.0128 123.767 28.7357 122.908 28.5771C121.226 28.264 119.473 28.1876 117.766 28.227C117.442 28.2312 117.121 28.2748 116.795 28.2966C114.291 27.037 111.738 25.7929 109.119 24.7222C109.559 24.785 110.004 24.8697 110.44 24.9676C110.858 25.0634 111.275 25.1767 111.689 25.3075C112.16 25.4664 112.615 25.737 113.115 25.5938C113.502 25.4797 113.582 25.0132 113.405 24.708C113.151 24.2764 112.517 24.1622 112.066 24.0163C111.608 23.8661 111.143 23.74 110.67 23.627C109.736 23.4098 108.781 23.2824 107.825 23.2294C106.949 23.1825 106.083 23.2077 105.217 23.2898C101.965 22.2472 98.6289 21.5923 95.1895 21.6252C94.1502 21.6406 93.1136 21.7238 92.0797 21.8748C90.7528 22.0692 90.9214 24.1534 92.2592 23.9567C93.7741 23.7348 95.2726 23.6814 96.7522 23.7573C95.5948 24.1104 94.4799 24.6142 93.4091 25.1659C91.8127 25.9856 90.307 26.9689 88.9514 28.1547C86.238 30.5154 84.1076 33.3822 82.5221 36.5978C82.0598 37.5307 83.5191 38.1975 83.988 37.269C85.4704 34.3538 87.6399 31.7865 90.1494 29.7072C91.3901 28.6818 92.6991 27.7392 94.0789 26.9186C95.5284 26.0495 97.089 25.4422 98.5917 24.693C98.8709 24.5556 98.9982 24.2616 98.9877 23.9903C99.8615 24.1117 100.736 24.2899 101.603 24.4922C101.623 24.8925 101.989 25.3125 102.5 25.167C102.795 25.0776 103.097 25.021 103.396 24.9534C106.68 25.904 109.879 27.2992 112.965 28.7805C112.877 28.7986 112.788 28.8057 112.689 28.8261C112.329 28.9006 112.035 29.1606 112.073 29.563C112.101 29.8932 112.449 30.2542 112.81 30.1797C113.564 30.0239 114.32 29.9075 115.081 29.8129C115.346 29.9403 115.607 30.0743 115.873 30.2017C125.05 34.725 134.059 39.5906 142.883 44.7791C147.261 47.3549 151.618 49.9746 155.876 52.746C158.003 54.135 160.117 55.5722 162.09 57.1809C163.386 58.2404 164.577 59.4012 165.74 60.5907C165.45 60.8442 165.342 61.2825 165.75 61.5512C166.623 62.1342 167.489 62.7413 168.348 63.3441C170.714 65.8912 172.97 68.5637 175.116 71.3157C175.11 71.3114 175.103 71.3071 175.096 71.3027C174.334 70.8678 173.776 72.1054 174.531 72.536C175.589 73.1376 176.602 73.8225 177.57 74.5625C179.954 77.8293 182.205 81.1977 184.295 84.6393C189.049 92.4859 193.104 100.779 195.63 109.616C195.942 110.708 196.266 111.78 196.625 112.856C196.995 114.016 198.648 113.356 198.382 112.208ZM195.893 115.406C195.12 112.575 193.738 109.967 192.38 107.365C191.022 104.764 189.57 102.204 188.023 99.7042C184.928 94.7046 181.46 89.9415 177.664 85.4627C169.762 76.1417 160.438 67.821 149.833 61.7074C140.186 56.1478 129.538 52.612 118.814 49.7813C107.958 46.9207 96.9254 44.7461 86.0911 41.7957C83.3864 41.0559 80.688 40.292 78.0217 39.4075C75.3752 38.5361 72.4646 37.4343 70.5822 35.2714C67.4171 31.642 68.4943 26.6004 70.3921 22.6083C70.8713 21.5921 71.434 20.6214 71.9858 19.653C72.2498 19.194 71.4949 18.8487 71.2309 19.3077C69.1103 23.0212 66.6213 27.295 67.0742 31.747C67.6833 37.699 73.4555 40.1346 78.4587 41.7153C89.3048 45.1361 100.437 47.4325 111.479 50.095C122.415 52.734 133.33 55.7758 143.475 60.7086C154.506 66.0734 164.199 73.8622 172.531 82.8151C180.623 91.5156 187.4 101.513 192.49 112.253C193.118 113.581 193.782 114.839 194.547 116.088C195.029 116.849 196.106 116.188 195.893 115.406ZM73.8302 33.3471C73.6074 33.0685 73.3976 32.7701 73.2097 32.4671C73.1257 32.3364 73.0527 32.2034 72.9839 32.0638C72.964 32.0223 72.9197 31.946 72.9152 31.9242C72.8753 31.8413 72.8397 31.7518 72.7998 31.6689C72.6577 31.3394 72.5417 30.9988 72.4367 30.656C72.3942 30.5053 72.3582 30.3589 72.3223 30.2125C72.3133 30.1688 72.2973 30.0639 72.2907 30.0596C72.277 29.9656 72.2589 29.8782 72.2452 29.7842C72.1927 29.4475 72.1664 29.0998 72.1467 28.7564C72.1456 28.5857 72.1402 28.4217 72.15 28.2488C72.1542 28.2137 72.1535 28.1 72.1621 28.0868C72.1765 27.9357 72.1799 27.7869 72.1877 27.6315C72.1875 27.603 72.1918 27.5965 72.1896 27.5855C72.1896 27.5855 72.1896 27.5855 72.1917 27.568C72.1954 27.4761 72.2036 27.3776 72.2139 27.29C72.2304 27.1214 72.2511 26.9462 72.2676 26.7776C72.3046 26.4054 72.3482 26.0376 72.3852 25.6654C72.4203 25.3391 72.2804 25.0206 71.971 24.8738C71.6945 24.7486 71.2966 24.808 71.1058 25.0696C70.082 26.4831 69.9162 28.2718 70.1742 29.9615C70.4255 31.6184 71.0659 33.2291 72.1246 34.5483C72.4643 34.9794 73.1088 35.1766 73.5813 34.8169C73.984 34.4774 74.1919 33.8021 73.8302 33.3471ZM107.752 26.9014C103.692 27.0455 99.6568 28.3862 95.9849 30.0507C92.2432 31.7353 88.7562 33.9083 85.587 36.517C84.6576 37.2844 85.7002 38.8291 86.6538 38.0681C89.7451 35.6065 93.1539 33.5236 96.7715 31.9274C100.409 30.3157 104.231 29.3264 108.029 28.1884C108.78 27.9648 108.483 26.8815 107.752 26.9014ZM114.348 31.8897C110.452 31.7263 106.507 32.3423 102.772 33.4273C98.9194 34.5481 95.4829 36.4145 92.1426 38.6085C91.5914 38.9731 92.17 39.8162 92.7213 39.4516C95.8916 37.3725 99.5143 35.8834 103.106 34.6855C106.761 33.4631 110.501 32.8157 114.325 32.4412C114.627 32.413 114.67 31.9029 114.348 31.8897ZM130.299 40.1113C126.244 38.7958 121.834 38.4826 117.595 38.3959C113.282 38.3074 108.967 38.6522 104.743 39.5194C102.361 40.0116 99.9953 40.6371 97.6784 41.3608C96.8006 41.6333 97.2838 42.9518 98.153 42.6925C102.156 41.5292 106.283 40.8246 110.433 40.4568C114.584 40.089 118.745 39.9924 122.9 40.3641C125.262 40.5766 127.606 40.9468 129.971 41.1702C130.553 41.2321 130.941 40.326 130.299 40.1113ZM143.641 46.9863C139.342 45.6703 134.874 44.9702 130.401 44.5501C125.97 44.1386 121.499 44.0599 117.055 44.3289C114.535 44.485 112.023 44.7308 109.526 45.0815C108.978 45.155 109.049 46.0232 109.602 45.9431C118.389 44.6399 127.339 44.7841 136.101 46.2205C138.589 46.6291 141.063 47.1319 143.532 47.6413C143.959 47.7239 144.036 47.1042 143.641 46.9863ZM156.56 71.1059C155.907 70.5915 155.134 70.2157 154.412 69.8068C153.703 69.4065 152.996 69.0172 152.278 68.6301C150.787 67.8388 149.277 67.0913 147.743 66.3944C147.396 66.2325 147.144 66.7745 147.49 66.9364C148.994 67.6226 150.477 68.3527 151.937 69.1333C152.653 69.5095 153.367 69.9031 154.072 70.31C154.801 70.7233 155.506 71.2154 156.261 71.5607C156.542 71.6793 156.8 71.3013 156.56 71.1059ZM163.604 78.3143C163.033 77.7031 162.214 77.2401 161.519 76.7741C160.884 76.3471 160.234 75.929 159.577 75.5349C158.156 74.6666 156.674 73.8905 155.164 73.2C154.831 73.0468 154.596 73.5625 154.929 73.7157C156.419 74.3932 157.866 75.1651 159.261 76.0161C159.973 76.4558 160.667 76.9218 161.348 77.4075C161.99 77.8673 162.587 78.439 163.272 78.8328C163.606 79.0145 163.822 78.5427 163.604 78.3143ZM196.289 122.945C195.961 121.965 195.441 121.019 194.96 120.099C194.466 119.141 193.948 118.206 193.382 117.286C192.256 115.451 190.996 113.706 189.609 112.068C189.323 111.728 188.747 112.115 189.036 112.465C190.37 114.069 191.582 115.772 192.653 117.562C193.201 118.48 193.726 119.419 194.194 120.388C194.644 121.326 194.996 122.313 195.461 123.242C195.701 123.739 196.472 123.5 196.289 122.945ZM66.3769 37.0006C66.5008 36.525 66.099 35.9586 65.9299 35.5265C65.752 35.0791 65.6069 34.6249 65.4661 34.1641C65.1998 33.2337 65.0275 32.2896 64.936 31.323C64.7617 29.3768 64.9571 27.4282 65.5031 25.5495C65.6058 25.1922 65.284 24.8201 64.9532 24.7632C64.5567 24.6913 64.2718 24.9666 64.1668 25.313C63.5822 27.3078 63.3922 29.4205 63.587 31.4935C63.6812 32.5279 63.8825 33.5572 64.1623 34.5531C64.301 35.0314 64.4573 35.5118 64.6397 35.9811C64.8266 36.4722 65.0152 37.2193 65.5286 37.4436C65.9213 37.6074 66.283 37.3731 66.3769 37.0006Z" fill="#1E2124"/>
<path d="M33.2299 90.439C31.7317 91.5689 29.7972 93.9224 37.4856 100.724C44.1574 106.631 51.7349 108.733 60.4499 124.169C69.1605 139.612 90.8815 156.131 111.385 155.978C131.888 155.825 147.797 146.619 159.477 120.555C159.477 120.555 143.382 133.519 125.712 135.781C108.047 138.035 96.5516 136.708 78.6104 123.789C60.6692 110.869 53.4738 102.125 47.6414 98.4888C41.8089 94.8523 33.2299 90.439 33.2299 90.439Z" fill="#C9C9C9"/>
<path d="M105.384 81.6738L82.0645 77.3786C82.0645 77.3786 68.834 83.6442 65.2601 93.4738C61.6797 103.299 64.2929 111.976 68.0686 116.658C68.0686 116.658 91.3732 131.357 100.661 134.018C100.661 134.018 116.15 126.801 121.446 114.639C127.655 100.386 118.436 86.9797 118.436 86.9797L105.384 81.6738Z" fill="#7C8287"/>
<path d="M72.4172 111.324C72.7139 111.188 72.9312 111.633 72.6433 111.784C71.8538 112.181 71.0488 112.558 70.2504 112.939C69.9385 113.083 69.7101 112.612 70.0155 112.464C70.8182 112.076 71.6143 111.683 72.4172 111.324ZM86.6826 114.642C86.8407 114.387 86.4581 114.107 86.2957 114.368C85.737 115.276 85.1783 116.183 84.6218 117.101C84.468 117.349 84.8307 117.616 84.9954 117.366C85.5608 116.463 86.1238 115.549 86.6826 114.642ZM81.6795 123.371C81.9305 122.932 82.1815 122.493 82.4325 122.053C82.9475 121.155 83.4516 120.259 83.9667 119.361C84.1766 118.999 83.6468 118.613 83.4325 118.982L81.8571 121.722C81.5931 122.181 81.3334 122.634 81.0694 123.093C80.8184 123.532 80.5105 123.971 80.3297 124.447C80.205 124.781 80.6483 124.997 80.8677 124.735C81.1998 124.33 81.4264 123.828 81.6795 123.371ZM106.819 128.674C106.519 127.335 106.084 126.029 105.527 124.766C105.429 124.541 105.083 124.71 105.18 124.934C105.724 126.161 106.141 127.436 106.441 128.747C106.497 128.991 106.875 128.919 106.819 128.674ZM116.238 102.861L114.404 102.75C114.15 102.734 114.128 103.126 114.382 103.142C114.993 103.175 115.606 103.219 116.216 103.253C116.47 103.269 116.492 102.877 116.238 102.861ZM103.473 83.403C103.543 83.2691 103.539 83.0875 103.39 82.9988C103.267 82.9274 103.057 82.9309 102.986 83.0823C102.718 83.6332 102.45 84.1841 102.182 84.735C102.117 84.8624 102.119 85.033 102.261 85.1174C102.378 85.1845 102.57 85.1789 102.644 85.0384L103.473 83.403ZM120.466 115.63C118.693 114.577 116.812 113.69 114.992 112.739C114.648 112.56 114.303 113.069 114.654 113.253C116.505 114.215 118.332 115.256 120.237 116.121C120.511 116.235 120.731 115.785 120.466 115.63ZM118.466 117.997C117.518 116.968 116.255 116.175 115.125 115.366C113.929 114.514 112.716 113.688 111.497 112.886C110.154 112.013 108.797 111.148 107.428 110.315C107.58 110.113 107.71 109.886 107.849 109.675C109.01 110.25 110.171 110.825 111.351 111.355C111.597 111.47 111.811 111.044 111.563 110.919C110.426 110.35 109.263 109.822 108.107 109.297C108.449 108.748 108.765 108.182 109.03 107.591C109.743 107.928 110.454 108.283 111.165 108.608C112.651 109.293 114.135 109.966 115.62 110.65C117.167 111.355 118.698 112.23 120.301 112.793C120.694 112.928 121.003 112.329 120.625 112.128C119.207 111.356 117.632 110.821 116.162 110.156C114.668 109.485 113.195 108.781 111.718 108.084C110.91 107.704 110.111 107.311 109.308 106.924C109.401 106.683 109.493 106.442 109.572 106.192C109.706 105.874 109.802 105.541 109.912 105.216C113.361 105.728 116.783 106.354 120.189 107.177C120.596 107.275 120.798 106.652 120.393 106.565C117.005 105.801 113.572 105.149 110.123 104.637C110.268 104.1 110.383 103.552 110.471 102.987C110.709 102.927 110.746 102.583 110.54 102.495C110.6 101.987 110.643 101.477 110.675 100.969C113.554 100.869 116.439 100.831 119.321 100.771C119.684 100.765 119.72 100.193 119.352 100.207C116.464 100.291 113.581 100.397 110.698 100.446C110.718 99.8547 110.706 99.2706 110.686 98.6821C111.898 98.5628 113.109 98.4435 114.327 98.3569C116.851 98.1658 119.422 98.0903 121.897 97.556C122.192 97.495 122.17 97.0269 121.861 97.0223C119.334 96.975 116.809 97.3827 114.308 97.6831C113.09 97.8266 111.87 97.9591 110.656 98.0674C110.617 97.466 110.557 96.869 110.459 96.2854C113.302 95.7378 116.15 95.1836 118.995 94.6469C119.253 94.5993 119.176 94.1994 118.918 94.2469C116.073 94.7837 113.229 95.3029 110.382 95.8286C110.253 95.1774 110.082 94.5462 109.875 93.9283C111.937 92.3857 114.013 90.8518 116.101 89.3549C116.485 89.0877 116 88.5329 115.623 88.8044C113.606 90.2636 111.603 91.7314 109.597 93.2167C109.306 92.4966 108.943 91.814 108.518 91.1669C110.639 89.2191 112.747 87.2627 114.852 85.2953C115.272 84.901 114.681 84.2199 114.262 84.6142C112.202 86.5835 110.138 88.5593 108.094 90.5482C107.629 89.921 107.1 89.3183 106.477 88.7862C107.837 86.9899 109.198 85.1935 110.552 83.3929C110.801 83.0565 110.261 82.7012 110.011 83.0375C108.684 84.8271 107.345 86.6188 106.017 88.4084C105.747 88.2022 105.476 87.9961 105.186 87.8054C105.114 87.7577 105.039 87.7276 104.965 87.6974C104.76 87.5346 104.551 87.3784 104.331 87.2245C104.947 86.3453 105.572 85.4814 106.216 84.6305C106.516 84.2326 105.87 83.8079 105.57 84.2058C104.926 85.0567 104.308 85.9249 103.696 86.7975C101.952 85.6599 99.971 84.8673 97.9249 84.4756C97.925 83.8148 97.9361 83.1517 97.9363 82.4909C97.9336 82.0643 97.2703 82.0247 97.2731 82.4514C97.2727 83.0837 97.2614 83.7184 97.2545 84.3464C96.4551 84.2267 95.6474 84.1772 94.8444 84.1779C94.807 83.804 94.7521 83.428 94.719 83.0475C94.6839 82.6845 94.1201 82.7953 94.1618 83.1627C94.199 83.5081 94.2515 83.8448 94.2887 84.1902C93.4356 84.2241 92.5851 84.3258 91.7483 84.5215C91.7155 84.5283 91.6894 84.5394 91.6566 84.5462C91.261 82.9077 90.8721 81.2735 90.5027 79.6239C90.3947 79.1563 89.667 79.301 89.775 79.7685C90.151 81.4225 90.5401 83.0851 90.9488 84.7323C90.3374 84.9156 89.7458 85.1404 89.172 85.3957C88.6716 83.4427 88.1822 81.4876 87.6818 79.5346C87.6121 79.2528 87.1642 79.3454 87.2381 79.6206C87.7519 81.6107 88.27 83.5941 88.7837 85.5841C88.3955 85.7726 88.0006 85.9567 87.6191 86.1779C87.2014 85.1763 86.7946 84.1724 86.3616 83.1796C86.2194 82.8501 85.7243 83.1005 85.8708 83.4234C86.3236 84.4292 86.7436 85.4418 87.1854 86.4498C87.0394 86.5427 86.8957 86.6464 86.7453 86.7458C85.5193 84.2308 84.2628 81.7336 82.9538 79.2585C82.7878 78.951 82.3014 79.1882 82.4674 79.4957C83.7961 81.9838 85.0943 84.4896 86.3553 87.0087C85.8827 87.3399 85.4231 87.6798 84.9945 88.0589C84.3313 86.9997 83.7401 85.9029 83.1991 84.773C82.9773 84.3061 82.2531 84.6608 82.4749 85.1277C83.047 86.3253 83.6868 87.4918 84.3811 88.6186C84.3615 88.634 84.3485 88.6538 84.3332 88.6626C82.7496 87.0361 81.177 85.4073 79.5891 83.7873C79.2631 83.4502 78.7082 83.9351 79.0385 84.2656C80.6549 85.8854 82.2733 87.4877 83.894 89.1009C83.8614 89.1361 83.8222 89.167 83.7853 89.2088C83.7853 89.2088 83.4505 89.5457 83.2811 89.7459C82.9141 90.1749 82.569 90.6278 82.2504 91.0981C78.7711 89.6696 75.2399 88.3487 71.6853 87.1351C71.2753 86.9977 71.0606 87.6401 71.4749 87.771C75.0116 88.9256 78.4901 90.2118 81.9276 91.6034C81.7175 91.9373 81.5051 92.2603 81.3148 92.6072C80.9006 92.5049 80.4887 92.4134 80.0679 92.3067C77.9046 91.7341 75.767 91.065 73.6509 90.3346C73.2584 90.1993 73.0544 90.811 73.4469 90.9464C75.6003 91.6919 77.773 92.3651 79.9692 92.9593C80.3133 93.0534 80.6552 93.1366 80.9971 93.2197C80.5674 94.1174 80.2122 95.0452 79.9602 96.003C76.1081 95.1414 72.226 94.3828 68.3295 93.7469C67.9527 93.688 67.9172 94.2878 68.2982 94.34C72.1769 94.917 76.0258 95.6255 79.8536 96.4522C79.8005 96.691 79.7407 96.9255 79.6941 97.1687C78.6703 97.2037 77.6511 97.2605 76.6382 97.2932C74.7852 97.34 72.9279 97.3935 71.0684 97.436C70.7227 97.4447 70.6868 97.9876 71.039 97.9831L76.6965 97.8508C77.6547 97.8294 78.6349 97.8319 79.6063 97.8191C79.5167 98.5155 79.473 99.2137 79.4687 99.9096C78.4415 100.093 77.412 100.266 76.3782 100.446C73.5675 100.93 70.7588 101.396 67.9481 101.88C67.5088 101.959 67.6488 102.637 68.0881 102.557C70.89 102.058 73.6983 101.535 76.5001 101.036C77.4946 100.859 78.4781 100.684 79.4725 100.507C79.4985 101.157 79.5639 101.804 79.6664 102.438C78.8253 102.64 77.9908 102.847 77.1497 103.049C75.343 103.485 73.5406 103.914 71.7404 104.355C71.2249 104.478 71.3876 105.293 71.9032 105.17C73.7033 104.729 75.5078 104.282 77.3079 103.842C78.149 103.64 78.9945 103.431 79.829 103.224C79.9193 103.661 79.9987 104.101 80.1261 104.524C78.7726 105.003 77.4059 105.474 76.0501 105.942C73.2948 106.887 70.5418 107.843 67.7865 108.789C67.4088 108.918 67.688 109.47 68.0591 109.336C70.775 108.393 73.4909 107.45 76.2025 106.514C77.5736 106.037 78.9403 105.567 80.3136 105.101C80.4943 105.644 80.723 106.172 80.9561 106.694C80.9103 106.721 80.8536 106.749 80.8078 106.776C79.0087 107.717 77.2073 108.648 75.4125 109.583C75.129 109.727 75.3462 110.172 75.6298 110.027C77.4312 109.097 79.2303 108.156 81.0317 107.225C81.0775 107.199 81.1298 107.176 81.1822 107.154C81.3595 107.516 81.5608 107.856 81.7578 108.203C79.7968 109.491 77.8845 110.877 76.1728 112.49C75.8444 112.803 76.2741 113.284 76.6291 113.017C78.4801 111.637 80.3202 110.26 82.2684 109.02C82.4407 109.275 82.6043 109.543 82.7919 109.789C81.2826 110.893 79.7799 112.001 78.2707 113.105C77.038 114.003 75.8118 114.906 74.5857 115.808C73.3444 116.72 72.0348 117.577 70.8596 118.561C70.6267 118.757 70.8942 119.197 71.1667 119.027C72.4219 118.238 73.5931 117.289 74.7975 116.42C76.0673 115.508 77.3415 114.59 78.6047 113.673C80.1401 112.559 81.6822 111.448 83.2199 110.344C83.6169 110.832 84.0421 111.291 84.4869 111.735C83.2959 113 82.1445 114.292 80.9469 115.553C79.3234 117.262 77.7064 118.974 76.0828 120.683C75.8437 120.931 76.2008 121.336 76.4333 121.083C78.0437 119.366 79.665 117.647 81.2688 115.926C82.4575 114.649 83.6946 113.413 84.8899 112.141C85.515 112.713 86.1747 113.231 86.8909 113.693C87.5874 114.141 88.3163 114.526 89.0667 114.85C87.4106 119.35 85.7545 123.85 84.1291 128.362C84.0194 128.658 84.4842 128.812 84.5939 128.516C86.3028 124.05 87.9852 119.567 89.6633 115.091C90.3324 115.351 91.0121 115.581 91.7134 115.749C91.4229 116.522 91.1324 117.294 90.8529 118.063C89.8528 120.776 88.8724 123.502 87.9052 126.237C87.787 126.575 88.3133 126.751 88.4315 126.413C89.4009 123.689 90.3879 120.968 91.3923 118.248C91.6849 117.459 91.984 116.673 92.2765 115.884C93.1398 116.064 94.0177 116.151 94.9019 116.184C94.8063 117.32 94.7042 118.452 94.6042 119.595C94.3286 122.7 94.0749 125.799 93.8519 128.91C93.8197 129.361 94.5289 129.402 94.5545 128.947C94.7272 125.841 94.9284 122.735 95.1865 119.629C95.2755 118.488 95.3886 117.354 95.5017 116.22C96.2303 116.217 96.9519 116.154 97.6777 116.055C97.8642 120.596 98.0485 125.126 98.2809 129.67C98.294 130.009 98.826 130.047 98.8172 129.701C98.6524 125.127 98.4416 120.551 98.2242 115.971C98.3947 115.941 98.574 115.927 98.7422 115.886C98.9944 116.996 99.2574 118.104 99.5096 119.214C100.466 123.374 101.324 127.582 102.427 131.706C102.515 132.047 103.035 131.945 102.963 131.596C102.12 127.407 101.019 123.265 100.023 119.108C99.76 118 99.497 116.892 99.2296 115.791C99.9942 115.605 100.732 115.344 101.461 115.04C101.712 115.592 101.967 116.137 102.202 116.698C102.989 118.575 103.64 120.513 104.256 122.448C104.339 122.71 104.763 122.64 104.682 122.36C103.955 119.805 103.066 117.266 102.041 114.789C102.726 114.465 103.385 114.067 104.025 113.638C105.873 116.902 107.81 120.13 109.911 123.239C110.077 123.49 110.501 123.202 110.347 122.95C108.405 119.728 106.468 116.5 104.618 113.225C104.696 113.164 104.783 113.117 104.866 113.049C105.101 112.863 105.308 112.65 105.534 112.449C105.843 112.813 106.145 113.172 106.453 113.535C107.644 114.941 108.858 116.325 109.979 117.779C111.142 119.271 112.239 120.776 113.567 122.13C113.906 122.476 114.406 122.031 114.126 121.639C113.04 120.132 111.773 118.827 110.517 117.463C109.246 116.08 108.057 114.628 106.843 113.187C106.534 112.824 106.23 112.454 105.921 112.09C106.352 111.665 106.76 111.216 107.136 110.746C108.484 111.566 109.809 112.409 111.101 113.315C112.273 114.133 113.427 114.976 114.553 115.849C115.698 116.734 116.795 117.795 118.04 118.529C118.341 118.689 118.737 118.288 118.466 117.997Z" fill="#1E2124"/>
<path d="M114.596 100.045C114.963 99.474 115.256 98.8551 115.394 98.2C115.492 97.764 115.533 97.3283 115.546 96.8928C115.634 95.9689 115.436 95.0643 115.13 94.1932C115.061 93.9967 114.97 93.8048 114.879 93.6128C114.807 93.3201 114.698 93.0407 114.495 92.775C112.805 90.4927 109.653 89.2985 106.878 89.9573C103.962 90.6454 101.721 93.0622 101.243 96.0147C100.806 98.7197 102.177 101.746 104.536 103.155C107.044 104.653 110.235 104.467 112.561 102.71C113.445 102.055 114.157 101.087 114.596 100.045Z" fill="#DBDBDB"/>
<path d="M80.7138 101.305C77.5243 100.039 74.124 104.837 77.9995 107.3C81.8726 109.753 85.6779 103.276 80.7138 101.305Z" fill="#DBDBDB"/>
<path d="M109.501 148.877C110.019 149.038 109.998 149.874 109.44 149.961C108.717 150.071 107.988 149.959 107.267 149.892C106.558 149.822 105.855 149.728 105.152 149.634C103.755 149.433 102.364 149.179 100.983 148.895C98.1767 148.295 95.4125 147.488 92.7062 146.521C92.0044 146.267 92.3651 145.173 93.0712 145.42C95.729 146.346 98.4424 147.073 101.196 147.637C102.564 147.913 103.939 148.147 105.327 148.333C106.03 148.427 106.738 148.514 107.443 148.591C108.128 148.654 108.839 148.678 109.501 148.877ZM139.408 83.3605C138.313 82.2538 137.01 81.3213 135.774 80.3861C134.499 79.4249 133.202 78.4967 131.883 77.6015C129.246 75.8109 126.516 74.1479 123.703 72.6386C118.111 69.6417 112.199 67.2463 106.095 65.5173C102.695 64.5565 99.2417 63.8062 95.7505 63.2573C95.4504 63.2111 95.4228 63.6839 95.7229 63.7301C108.153 65.7186 120.141 70.4471 130.579 77.4894C132.003 78.454 133.399 79.4757 134.762 80.5326C136.167 81.6264 137.483 82.8696 138.923 83.9106C139.26 84.1601 139.709 83.6628 139.408 83.3605ZM164.914 121.233C163.145 122.76 161.314 124.209 159.397 125.545C158.456 126.201 157.5 126.838 156.53 127.465C156.023 127.792 155.519 128.113 155.007 128.418C154.532 128.71 153.975 128.967 153.644 129.429C153.357 129.835 153.761 130.327 154.209 130.263C154.769 130.187 155.278 129.757 155.74 129.457C156.202 129.156 156.668 128.849 157.128 128.538C158.117 127.866 159.093 127.158 160.042 126.432C161.928 125 163.774 123.513 165.56 121.959C166.035 121.554 165.393 120.82 164.914 121.233ZM53.2079 64.5636C50.7161 65.6538 48.3219 66.9403 46.0427 68.4252C44.9532 69.1346 43.888 69.8787 42.8514 70.6511C42.2939 71.0682 41.743 71.4897 41.2076 71.9307C40.696 72.3497 40.1188 72.7538 39.7547 73.3075C39.5424 73.6305 39.9084 74.0789 40.2683 73.8906C40.8287 73.5982 41.2741 73.1074 41.7463 72.6909C42.2424 72.2523 42.7516 71.8224 43.2631 71.4034C44.3167 70.5477 45.4166 69.7508 46.5453 69.0106C48.7678 67.5545 51.1053 66.2968 53.5448 65.2288C53.9856 65.0466 53.6531 64.3748 53.2079 64.5636ZM90.3625 62.4055C89.5429 62.216 88.6199 62.2701 87.7838 62.2207C86.9192 62.1715 86.0633 62.1091 85.1964 62.049C83.4429 61.9158 81.6895 61.7826 79.9317 61.6559C79.5267 61.6257 79.487 62.2605 79.8963 62.2841L85.1608 62.6488C86.0277 62.7089 86.8836 62.7713 87.7484 62.8489C88.5891 62.9201 89.4873 63.1047 90.3271 63.0337C90.6375 62.9924 90.6561 62.4759 90.3625 62.4055ZM60.7915 96.4388C60.8902 95.7861 61.0239 95.1376 61.1774 94.5021C61.4909 93.2354 61.9207 92.0074 62.4383 90.8181C63.4971 88.3892 64.9049 86.1331 66.7064 84.183C67.0453 83.8111 66.5405 83.2148 66.184 83.5846C64.3038 85.5396 62.699 87.7795 61.5374 90.2353C60.9545 91.4665 60.4726 92.7452 60.0936 94.0539C59.903 94.7028 59.7388 95.369 59.603 96.035C59.4757 96.6594 59.1986 97.4686 59.3951 98.0887C59.5225 98.5124 60.1477 98.7535 60.416 98.2879C60.7188 97.7411 60.6991 97.0389 60.7915 96.4388ZM127.968 109.016C128.042 108.545 128.115 108.074 128.165 107.597C128.277 106.651 128.336 105.699 128.361 104.743C128.399 102.832 128.253 100.914 127.933 99.0323C127.794 98.1667 126.454 98.4378 126.604 99.3011C126.902 101.102 127.045 102.924 127.007 104.749C126.988 105.653 126.928 106.548 126.829 107.446C126.779 107.895 126.723 108.339 126.649 108.782C126.576 109.253 126.454 109.711 126.514 110.194C126.578 110.699 127.343 110.843 127.601 110.408C127.841 109.971 127.897 109.498 127.968 109.016ZM123.63 118.428C123.842 118.02 123.246 117.619 123.03 118.034C122.09 119.823 121.022 121.548 119.794 123.157C119.171 123.975 118.507 124.756 117.816 125.52C117.49 125.872 117.164 126.224 116.829 126.561C116.477 126.924 116.022 127.257 115.777 127.701C115.6 128.028 115.909 128.477 116.291 128.284C116.744 128.054 117.081 127.614 117.42 127.242C117.722 126.912 118.022 126.571 118.321 126.23C119.01 125.427 119.67 124.595 120.301 123.736C121.529 122.041 122.657 120.281 123.63 118.428ZM163.933 112.099C162.985 112.307 162.034 112.475 161.077 112.638C161.391 112.892 161.712 113.151 162.022 113.411C163.126 114.317 161.902 116.193 160.796 115.277C159.896 114.534 158.979 113.818 158.071 113.089C154.924 110.207 145.861 103.673 139.709 99.7602C132.004 94.8643 121.952 89.9353 121.952 89.9353C122.699 90.8517 123.386 92.5212 123.386 92.5212C124.195 94.4218 124.796 96.4223 125.164 98.4767C126.718 107.269 123.8 115.613 118.28 122.473C115.08 126.449 111.17 130.487 106.594 133.125C107.941 133.387 109.29 133.633 110.655 133.812C112.05 134.002 113.455 134.133 114.865 134.229L114.867 134.24C119.283 134.906 129.67 133.984 134.917 132.25C138.618 131.03 142.133 129.215 145.059 127.58C145.066 127.584 145.066 127.584 145.068 127.595C145.426 127.396 145.774 127.181 146.132 126.982C146.947 126.518 147.721 126.073 148.412 125.668L148.41 125.657C152.139 123.417 155.762 120.965 159.465 118.622C160.326 118.074 161.243 119.479 160.448 120.099C158.639 121.516 156.792 122.86 154.839 124.078C152.045 125.829 149.22 127.54 146.327 129.112C147.215 130.159 148.139 131.181 149.132 132.127C151.758 134.609 154.894 136.387 158.241 137.701C159.189 138.069 158.712 139.569 157.75 139.209C154.203 137.869 150.951 136.052 148.147 133.481C146.949 132.373 145.846 131.165 144.796 129.918C144.05 130.306 143.3 130.7 142.543 131.062C142.076 131.284 141.607 131.494 141.138 131.705C141.839 132.836 142.679 133.87 143.598 134.843C145.904 137.294 148.217 139.721 150.652 142.049C151.172 142.551 150.33 143.272 149.808 142.787C148.503 141.57 147.208 140.351 145.886 139.16C144.607 138.018 143.309 136.89 142.133 135.635C141.183 134.624 140.34 133.55 139.624 132.371C139.284 132.516 138.939 132.667 138.598 132.811C139.077 134.108 139.641 135.375 140.285 136.592C141.681 139.237 143.455 141.65 145.55 143.792C146.307 144.564 145.043 145.668 144.292 144.901C142.11 142.663 140.249 140.109 138.783 137.341C138.118 136.083 137.545 134.772 137.058 133.431C136.741 133.554 136.422 133.694 136.106 133.816C135.768 133.943 135.425 134.076 135.082 134.21C135.547 135.441 136.093 136.65 136.716 137.814C138.182 140.581 139.91 143.294 141.718 145.843C142.224 146.553 141.204 147.459 140.696 146.738C139.738 145.381 138.697 144.092 137.762 142.713C136.852 141.369 136.001 139.978 135.226 138.543C134.584 137.337 134.024 136.092 133.544 134.813C132.66 135.166 131.778 135.502 130.869 135.792C130.885 135.84 130.901 135.888 130.916 135.936C131.408 137.213 131.961 138.455 132.562 139.681C133.799 142.222 135.099 144.653 137.005 146.766C137.287 147.083 136.791 147.522 136.509 147.204C134.6 145.052 132.658 142.851 131.225 140.35C130.512 139.107 129.909 137.785 129.392 136.445C129.366 136.371 129.345 136.301 129.314 136.233C127.634 136.649 125.914 136.953 124.17 137.165C124.37 137.665 124.581 138.163 124.803 138.658C125.335 139.83 125.929 140.966 126.575 142.08C126.61 142.141 126.652 142.206 126.688 142.267C127.749 142.219 128.805 142.177 129.866 142.129C130.516 142.103 130.589 143.198 129.952 143.262C129.143 143.343 128.341 143.401 127.533 143.437C127.494 143.439 127.455 143.442 127.415 143.444C128.54 145.194 129.804 146.847 131.199 148.387C131.887 149.15 130.697 150.2 129.998 149.438C128.31 147.611 126.816 145.618 125.519 143.5C123.744 143.542 121.97 143.555 120.195 143.512C121.018 145.318 121.968 147.048 123.123 148.694C123.452 149.156 122.799 149.747 122.453 149.283C121.095 147.456 119.831 145.501 118.773 143.464C116.265 143.373 113.756 143.196 111.26 142.915C111.672 143.809 112.137 144.681 112.631 145.525C114.159 145.671 115.685 145.777 117.222 145.909C117.703 145.952 117.669 146.694 117.183 146.658C115.804 146.573 114.429 146.424 113.053 146.247C113.694 147.282 114.397 148.282 115.179 149.231C115.698 149.864 114.753 150.697 114.22 150.073C113.148 148.802 112.166 147.438 111.29 146.013C110.804 145.948 110.312 145.879 109.83 145.808C107.771 145.521 105.723 145.175 103.688 144.781C103.963 145.425 104.234 146.075 104.543 146.712C104.92 147.489 103.731 148.076 103.343 147.302C102.875 146.362 102.438 145.404 102.021 144.431C99.9062 143.985 97.8091 143.484 95.7225 142.924C95.8933 143.282 96.0422 143.644 96.2239 144C96.5761 144.684 95.5117 145.212 95.1551 144.534C94.8074 143.871 94.4858 143.197 94.1795 142.514C92.8972 142.152 91.6213 141.767 90.3475 141.363C90.2997 141.766 89.6447 141.987 89.3792 141.529C89.2642 141.331 89.1666 141.135 89.0516 140.936C87.5342 140.429 86.0256 139.91 84.5254 139.348C84.192 139.223 84.3614 138.693 84.6948 138.818C86.0108 139.315 87.331 139.777 88.6598 140.225C88.0311 139.085 87.4264 137.923 86.8892 136.729C85.4039 136.102 83.938 135.431 82.4959 134.709C82.7306 135.487 82.9872 136.26 83.2983 137.021C83.4894 137.477 82.809 137.823 82.6004 137.365C82.1297 136.3 81.7071 135.22 81.3302 134.113C80.3269 133.585 79.3367 133.038 78.3571 132.46C78.5924 133.682 78.8868 134.885 79.2576 136.073C79.5034 136.877 78.2337 137.128 77.9901 136.335C77.4899 134.741 77.0681 133.114 76.7404 131.473C75.6618 130.801 74.5939 130.099 73.5586 129.362C73.8323 131.789 74.2721 134.193 74.9414 136.549C75.1495 137.281 73.9957 137.514 73.7832 136.789C72.9885 133.963 72.318 131.076 71.9275 128.167C71.7582 128.036 71.5868 127.924 71.4218 127.787C69.2274 126.099 67.1763 124.25 65.1927 122.341C65.0503 123.333 64.9451 124.34 64.8968 125.347C64.8499 126.223 63.4907 126.151 63.5376 125.275C63.6031 123.883 63.741 122.51 63.9641 121.137C62.8191 120.006 61.6894 118.867 60.564 117.721C60.4164 118.247 60.2885 118.786 60.1935 119.319C60.1239 119.726 59.846 120.063 59.3907 120.037C59.0164 120.018 58.6027 119.642 58.6679 119.241C58.826 118.297 59.0389 117.37 59.3175 116.458C58.2339 115.349 57.146 114.246 56.0342 113.166C55.8052 112.94 55.5718 112.72 55.3428 112.494C55.2567 112.712 55.1508 112.916 55.0712 113.137C54.8692 113.703 53.9834 113.413 54.1854 112.847C54.31 112.486 54.4653 112.135 54.6163 111.79C49.8877 107.293 44.7064 103.169 38.4676 101.012C38.2154 100.922 38.3442 100.525 38.5964 100.615C39.4253 100.905 40.2412 101.215 41.0443 101.573C46.2621 103.861 50.6916 107.435 54.808 111.312C55.0626 110.752 55.3413 110.199 55.6464 109.663C55.7308 109.521 55.8239 109.365 55.9127 109.215C54.5746 108.005 53.2409 106.788 51.9159 105.558C48.3611 102.249 44.6526 98.8566 40.2367 96.7274C39.1173 96.1897 37.9505 95.753 36.7581 95.4127C35.6752 95.1067 34.523 94.9062 33.5585 94.2909C31.6582 93.0887 31.0662 90.83 32.0249 88.8262C32.8864 87.0134 34.5331 85.8586 36.1409 84.7631C38.0036 83.4952 39.9217 82.3299 41.9326 81.3106C45.7885 79.3518 49.897 77.8705 54.078 76.7958C62.7197 74.5657 71.8145 74.0876 80.6979 74.764C81.1379 74.7984 81.5825 74.8546 82.0291 74.8933C83.1832 75.0479 86.3388 75.461 87.4531 75.5611L87.5162 75.5082C88.878 74.6002 90.2265 73.6836 91.5065 72.6558C92.0529 72.2125 92.7824 73.0415 92.2295 73.4804C91.2477 74.27 90.2221 75.0402 89.1544 75.745C90.1246 75.892 91.0928 76.0565 92.0589 76.2385C92.6169 75.9067 93.1881 75.5836 93.7439 75.2409C94.8859 74.5378 95.9201 73.726 96.8989 72.8118C97.4144 72.3293 98.1373 73.154 97.6152 73.6321C96.5993 74.5597 95.5373 75.457 94.4553 76.3129C94.3138 76.4276 94.1634 76.527 94.0263 76.6351C94.7581 76.7858 95.4985 76.9233 96.2216 77.0871C96.854 76.7571 97.4953 76.4423 98.0923 76.0512C99.2581 75.2976 100.338 74.4309 101.362 73.49C101.745 73.1375 102.281 73.7446 101.898 74.0971C100.847 75.049 99.7261 75.9358 98.5695 76.7615C98.2667 76.9778 97.9596 77.2008 97.6459 77.4194C98.7241 77.6751 99.8002 77.9483 100.863 78.2413C101.358 77.9909 101.853 77.7405 102.337 77.4639C103.807 76.6077 105.161 75.6101 106.434 74.4926C106.906 74.0761 107.541 74.805 107.082 75.2302C105.807 76.3937 104.434 77.4636 102.991 78.4224C102.841 78.5219 102.677 78.6126 102.52 78.7077C103.502 78.9946 104.485 79.31 105.456 79.6276C106.045 79.3351 106.618 79.0229 107.181 78.6845C108.362 77.979 109.444 77.1232 110.431 76.1672C111.001 75.6166 111.795 76.5349 111.243 77.0876C110.227 78.1006 109.117 79.0135 107.941 79.8262C107.716 79.9808 107.485 80.1311 107.252 80.2704C107.794 80.4661 108.344 80.6485 108.888 80.8551C108.98 80.8874 109.075 80.9305 109.162 80.9693C109.907 80.6845 110.651 80.3997 111.384 80.0887C113.191 79.3223 114.819 78.2682 116.327 77.0224C116.784 76.6431 117.395 77.3372 116.938 77.7165C115.394 78.9866 113.715 80.1198 112.006 81.1394C111.67 81.3341 111.328 81.5244 110.977 81.6995C111.834 82.0463 112.707 82.3843 113.563 82.7486C113.589 82.7375 113.615 82.7264 113.641 82.7153C114.722 82.2358 115.804 81.7388 116.861 81.2069C118.482 80.3935 120.018 79.4494 121.504 78.4247C119.878 77.6102 118.247 76.8023 116.605 76.025C108.577 72.21 100.245 69.0729 91.4396 67.6456C83.7363 66.395 75.7772 66.2226 68.0381 67.2522C60.2487 68.2865 52.6052 70.578 45.5045 73.925C45.2339 74.0493 45.0235 73.6371 45.2983 73.5062C46.1709 73.0981 47.0458 72.7008 47.9318 72.3298C55.1829 69.2422 62.8814 67.3267 70.7111 66.4322C78.5298 65.5399 86.4172 65.8069 94.1591 67.2716C103.123 68.9736 111.552 72.4382 119.721 76.4121C120.628 76.8571 121.541 77.3064 122.443 77.7579C122.641 77.6145 122.846 77.4753 123.038 77.3275C123.724 76.8155 124.61 77.8229 123.917 78.3306C123.873 78.368 123.828 78.3946 123.778 78.4277C124.937 79.0198 126.096 79.612 127.253 80.2216C127.712 79.9102 128.166 79.5944 128.614 79.2568C128.989 78.9743 129.484 79.5269 129.099 79.8116C128.733 80.0809 128.354 80.3415 127.982 80.6065C129.178 81.2421 130.364 81.88 131.552 82.5289C132.042 82.1997 132.523 81.8553 132.983 81.487C133.501 81.0723 134.19 81.8469 133.668 82.2681C133.318 82.557 132.965 82.8349 132.606 83.1085C134.373 84.0819 136.123 85.0816 137.865 86.0945C138.606 85.7134 139.343 85.3105 140.061 84.8661C140.612 84.53 141.036 85.4222 140.502 85.7604C139.987 86.0831 139.455 86.4038 138.928 86.7179C140.101 87.404 141.258 88.099 142.422 88.7983C143.227 88.3927 144.01 87.9633 144.786 87.501C145.252 87.2224 145.634 87.9923 145.165 88.26C144.533 88.6185 143.903 88.9595 143.261 89.3028C144.156 89.8528 145.054 90.3963 145.939 90.9595C146.078 91.0505 146.22 91.135 146.359 91.226C146.941 90.9291 147.526 90.6146 148.108 90.2893C148.45 90.0989 148.716 90.642 148.38 90.8367C147.916 91.0979 147.438 91.3504 146.967 91.6072C148.147 92.3545 149.333 93.1062 150.505 93.8668C151.831 93.1997 153.115 92.4388 154.381 91.6759C155.043 91.2712 155.582 92.3618 154.917 92.7555C153.821 93.4036 152.693 93.9841 151.557 94.5493C152.55 95.1928 153.535 95.8495 154.526 96.5105C156.347 95.7068 158.141 94.8464 159.876 93.8442C160.722 93.3618 161.389 94.7163 160.543 95.1987C159.106 96.0196 157.665 96.8472 156.207 97.6442C157.055 98.2208 157.899 98.804 158.736 99.3828C159.23 99.2068 159.732 99.0461 160.221 98.8482C161.947 98.1611 163.625 97.3759 165.271 96.523C165.816 96.2394 166.229 97.077 165.692 97.3758C164.037 98.2988 162.354 99.165 160.67 100.031C160.469 100.135 160.273 100.233 160.073 100.337C160.846 100.884 161.622 101.441 162.387 102.001C165.24 100.978 168.076 99.8681 170.84 98.6361C171.649 98.2808 172.259 99.4935 171.454 99.8706C169.033 101.026 166.655 102.258 164.214 103.343C165.19 104.07 166.158 104.81 167.116 105.563C167.896 105.368 168.68 105.166 169.46 104.942C171.349 104.409 173.25 103.931 175.101 103.269C176.029 102.935 176.749 104.296 175.802 104.674C173.914 105.434 172.033 106.228 170.087 106.818C169.744 106.923 169.403 107.01 169.065 107.109C169.535 107.484 170.006 107.86 170.472 108.242C170.624 108.37 170.676 108.536 170.67 108.702C174.88 107.684 178.896 106.171 182.797 104.288C183.252 104.069 183.589 104.762 183.14 104.986C179.046 107.034 174.747 108.748 170.426 110.251C168.304 111.008 166.146 111.619 163.933 112.099ZM115.454 83.6052C116.282 83.9697 117.107 84.3233 117.927 84.7119C118.312 84.5869 118.687 84.4467 119.063 84.3064C120.165 83.8793 121.272 83.474 122.352 82.9945C123.713 82.3885 125.006 81.6713 126.261 80.8822C125.128 80.2789 123.994 79.6932 122.848 79.1098C121.151 80.2977 119.394 81.3898 117.611 82.4362C116.898 82.8455 116.181 83.233 115.454 83.6052ZM61.5222 108.768C61.9337 109.133 62.3604 109.489 62.7828 109.852C62.5551 109.136 62.3492 108.415 62.1913 107.679C60.7478 100.914 62.3147 93.7487 66.2411 88.0785C68.9534 84.1687 72.5591 81.054 76.6314 78.7087C68.2055 78.3992 59.7849 79.2734 51.7207 81.817C47.9452 83.0074 44.2841 84.6411 40.8815 86.6714C39.3142 87.6048 37.4105 88.619 36.205 90.0074C36.0856 90.146 35.7442 90.4786 35.7411 90.6843C35.7415 90.7411 35.7328 90.7543 35.7175 90.7632C35.7264 90.7784 35.733 90.7828 35.7418 90.798C36.113 91.3536 38.0942 91.5138 38.7234 91.7199C47.9079 94.6524 54.4899 102.605 61.5222 108.768ZM59.5002 115.936C59.6591 115.464 59.8355 114.995 60.0383 114.543C60.2174 114.142 60.4053 113.755 60.6041 113.367C59.2907 112.248 57.9969 111.114 56.7117 109.967C56.6554 110.053 56.5902 110.123 56.5339 110.209C56.1547 110.8 55.8393 111.423 55.5545 112.058C56.2501 112.723 56.9349 113.39 57.6153 114.064C58.2494 114.679 58.8748 115.308 59.5002 115.936ZM64.0824 120.469C64.129 120.226 64.1647 119.985 64.2178 119.746C64.3981 118.854 64.5982 117.975 64.8574 117.107C64.8789 117.046 64.8938 116.98 64.9196 116.912C63.897 116.098 62.883 115.271 61.8843 114.435C61.7654 114.659 61.6508 114.876 61.5385 115.105C61.2255 115.767 60.952 116.456 60.7267 117.158C61.841 118.278 62.9574 119.38 64.0824 120.469ZM71.8275 127.242C71.702 126.083 71.6115 124.928 71.5647 123.764C71.5433 123.165 71.4998 122.513 71.4979 121.87C69.6846 120.593 67.9126 119.267 66.1731 117.906C65.9763 118.608 65.7795 119.309 65.622 120.008C65.5008 120.552 65.4014 121.091 65.3042 121.64C67.3867 123.614 69.5408 125.493 71.8275 127.242ZM76.5481 130.487C76.4618 129.987 76.3798 129.479 76.3153 128.974C76.1564 127.737 76.0522 126.488 76.0092 125.233C76.0019 125.115 76.0032 124.983 75.9959 124.865C75.0446 124.259 74.102 123.639 73.1746 123.01C73.1742 123.284 73.1694 123.564 73.1755 123.842C73.1999 125.255 73.292 126.666 73.4169 128.07C73.4308 128.192 73.4448 128.314 73.4521 128.433C74.4676 129.157 75.4959 129.833 76.5481 130.487ZM80.9843 133.045C80.7699 132.366 80.5708 131.678 80.3958 130.996C80.1197 129.909 79.9376 128.807 79.8145 127.687C79.7914 127.493 79.7835 127.289 79.7713 127.093C79.0621 126.692 78.3484 126.299 77.6456 125.874C77.6738 126.865 77.7327 127.867 77.8353 128.86C77.9262 129.741 78.0565 130.62 78.2021 131.49C79.1114 132.031 80.0381 132.546 80.9843 133.045ZM86.4316 135.645C86.336 135.402 86.2228 135.158 86.1315 134.909C85.6997 133.757 85.2788 132.602 84.9387 131.425C84.7708 130.833 84.6139 130.239 84.4831 129.633C84.4786 129.612 84.4675 129.585 84.4629 129.564C83.4159 129.045 82.3733 128.52 81.3414 127.964C81.4018 128.863 81.5016 129.76 81.6189 130.658C81.7501 131.679 81.9469 132.687 82.2027 133.676C83.59 134.381 85.0011 135.035 86.4316 135.645ZM88.0199 136.302C88.915 136.664 89.8164 137.002 90.7222 137.333C91.2814 137.531 91.8383 137.717 92.3996 137.898C92.1049 136.967 91.8472 136.024 91.6485 135.062C91.4837 134.265 91.3387 133.48 91.3336 132.684C91.0726 132.578 90.8138 132.483 90.5505 132.367C89.12 131.757 87.7068 131.12 86.3001 130.46C86.3452 130.678 86.3904 130.897 86.4355 131.115C86.6988 132.252 86.9839 133.383 87.3541 134.486C87.5725 135.101 87.7952 135.71 88.0199 136.302ZM93.2175 134.744C93.3949 135.795 93.6073 136.851 93.8721 137.884C93.9148 138.063 93.975 138.244 94.0287 138.421C96.1158 139.066 98.2331 139.637 100.372 140.118C100.09 139.253 99.8268 138.391 99.5936 137.51C99.4523 136.964 99.3196 136.405 99.222 135.85L99.1319 135.441C99.1319 135.441 95.3276 134.177 92.992 133.349C93.0693 133.806 93.138 134.276 93.2175 134.744ZM93.8756 141.87C93.4669 140.912 93.0953 139.941 92.7499 138.959C91.3247 138.484 89.9102 137.979 88.5085 137.426C88.4953 137.417 88.4778 137.415 88.4646 137.406C88.9422 138.532 89.4722 139.636 90.0764 140.713C90.6136 140.887 91.1464 141.067 91.6813 141.23C92.418 141.46 93.1435 141.663 93.8756 141.87ZM101.747 143.798C101.385 142.927 101.034 142.054 100.72 141.168C98.5679 140.679 96.4331 140.106 94.3219 139.454C94.63 140.421 95.0014 141.364 95.4166 142.298C97.5141 142.856 99.6221 143.354 101.747 143.798ZM109.606 142.989C109.56 142.902 109.528 142.805 109.493 142.716C108.855 142.637 108.216 142.547 107.577 142.457C105.849 142.199 104.133 141.892 102.431 141.538C102.725 142.411 103.046 143.273 103.382 144.127C103.642 144.176 103.905 144.235 104.166 144.284C106.341 144.694 108.521 145.042 110.715 145.323C110.767 145.329 110.813 145.331 110.855 145.34C110.413 144.577 109.983 143.794 109.606 142.989ZM118.033 137.596C118.351 138.721 118.701 139.839 119.111 140.939C119.3 141.441 119.502 141.924 119.705 142.406C119.779 142.408 119.853 142.409 119.928 142.411C121.569 142.442 123.197 142.408 124.831 142.349C124.266 141.355 123.733 140.343 123.267 139.3C122.991 138.685 122.661 138.024 122.383 137.341C120.929 137.471 119.477 137.554 118.033 137.596ZM109.259 137.228C109.366 137.667 109.47 138.112 109.6 138.547C109.922 139.665 110.325 140.761 110.774 141.83C113.25 142.099 115.741 142.274 118.236 142.356C118.107 142.092 117.972 141.824 117.848 141.553C117.282 140.275 116.803 138.95 116.407 137.613C114.016 137.646 111.632 137.495 109.259 137.228ZM103.225 136.338C102.432 136.195 101.643 136.016 100.859 135.831C100.969 136.281 101.063 136.74 101.167 137.185C101.43 138.264 101.728 139.348 102.056 140.413C102.061 140.435 102.072 140.462 102.083 140.488C104.379 140.959 106.696 141.34 109.024 141.634C108.68 140.794 108.357 139.949 108.093 139.086C107.895 138.455 107.632 137.735 107.459 137.007C106.035 136.817 104.629 136.601 103.225 136.338ZM117.428 88.7739C117.256 88.5474 117.156 88.3118 117.113 88.0757C112.509 86.219 107.803 84.6167 103.048 83.2183C96.6798 81.3443 90.0541 79.9337 83.3694 79.2018C76.1028 81.9394 69.3908 87.2226 66.5298 94.5752C63.8303 101.524 64.6825 109.921 69.8382 115.52C69.8471 115.535 69.8559 115.55 69.8691 115.559C79.3606 122.734 89.8552 128.671 101.269 131.861C103.79 130.998 106.118 129.611 108.241 127.92C114.404 123.012 120.165 116.074 121.797 108.206C123.17 101.509 121.533 94.22 117.428 88.7739ZM126.761 85.091C128.046 84.5292 129.311 83.8975 130.512 83.1766C129.348 82.5342 128.187 81.9027 127.01 81.28C125.581 82.2475 124.108 83.1671 122.619 84.0387C121.679 84.5917 120.72 85.1032 119.738 85.5624C120.541 85.949 121.345 86.3355 122.139 86.7352C123.698 86.2308 125.255 85.7439 126.761 85.091ZM130.918 88.806C132.909 88.2179 134.815 87.5165 136.667 86.6666C135.016 85.7035 133.351 84.7601 131.682 83.8233C130.343 84.8121 128.949 85.7269 127.457 86.4738C126.445 86.9791 125.373 87.4454 124.277 87.82C125.445 88.4274 126.62 89.0391 127.775 89.6663C128.83 89.397 129.876 89.1124 130.918 88.806ZM135.889 91.1396C137.457 90.6789 139.034 90.2618 140.555 89.657C140.775 89.5659 140.996 89.4747 141.21 89.3793C140.096 88.7037 138.971 88.0304 137.849 87.368C135.774 88.5716 133.617 89.6837 131.404 90.5512C130.998 90.7091 130.596 90.8604 130.181 91.0031C130.871 91.3904 131.556 91.7842 132.241 92.1781C133.462 91.8574 134.681 91.4974 135.889 91.1396ZM136.959 94.6665C138.18 94.2604 139.407 93.8303 140.654 93.4985C142.213 93.0794 143.693 92.4945 145.133 91.8268C144.263 91.2831 143.406 90.7197 142.532 90.1826C142.396 90.1025 142.253 90.0181 142.121 89.9314C141.674 90.1662 141.234 90.4053 140.793 90.6444C139.376 91.4215 137.961 92.2095 136.473 92.836C135.844 93.1025 135.207 93.3254 134.552 93.5462C135.046 93.8428 135.551 94.1372 136.045 94.4338C136.228 94.5442 136.405 94.6612 136.588 94.7717C136.712 94.7402 136.841 94.7022 136.959 94.6665ZM143.967 96.3569C145.749 95.7438 147.555 95.2225 149.283 94.461C148.132 93.7134 146.974 92.99 145.814 92.2556C144.246 93.1037 142.668 93.9539 141.12 94.8434C140.315 95.3058 139.467 95.692 138.605 96.041C139.327 96.5068 140.05 96.9726 140.769 97.445C141.832 97.0772 142.897 96.7203 143.967 96.3569ZM145.514 100.121C147.147 99.5618 148.756 98.9389 150.353 98.2898C151.316 97.9029 152.269 97.5008 153.227 97.0921C152.274 96.4461 151.309 95.8024 150.347 95.1697C150.135 95.276 149.923 95.3824 149.705 95.4844C148.015 96.3179 146.38 97.2539 144.652 97.987C144.008 98.2624 143.346 98.5073 142.692 98.7565C143.448 99.2725 144.219 99.7796 144.966 100.309C145.147 100.248 145.333 100.182 145.514 100.121ZM149.873 102.279C151.618 101.794 153.343 101.238 155.057 100.656C155.808 100.404 156.555 100.158 157.313 99.9105C156.546 99.3684 155.785 98.8306 155.014 98.295C153.745 98.9617 152.462 99.5913 151.144 100.16C149.783 100.737 148.394 101.269 146.999 101.768C147.435 102.083 147.868 102.386 148.298 102.707C148.82 102.56 149.351 102.427 149.873 102.279ZM155.131 104.263C156.92 103.854 158.674 103.326 160.396 102.731C160.582 102.664 160.767 102.597 160.96 102.535C160.254 102.014 159.54 101.507 158.83 100.993C157.791 101.509 156.749 102.004 155.673 102.42C153.933 103.098 152.154 103.694 150.361 104.224C150.684 104.464 151.011 104.699 151.33 104.946C152.595 104.702 153.879 104.545 155.131 104.263ZM158.093 107.354C159.993 107.092 161.89 106.763 163.767 106.363C164.372 106.233 164.975 106.091 165.578 105.949C164.681 105.275 163.773 104.602 162.872 103.934C162.248 104.194 161.615 104.439 160.973 104.668C159.163 105.31 157.316 105.879 155.439 106.307C154.851 106.44 154.242 106.577 153.623 106.699C154.065 107.047 154.516 107.381 154.956 107.717C155.006 107.712 155.067 107.705 155.118 107.701C156.113 107.609 157.103 107.496 158.093 107.354ZM163.545 110.22C165.588 109.855 167.627 109.439 169.646 108.982C168.993 108.496 168.346 108.015 167.693 107.529C166.566 107.836 165.435 108.121 164.294 108.362C162.304 108.791 160.297 109.142 158.286 109.416C157.943 109.464 157.602 109.494 157.252 109.538C157.819 109.996 158.398 110.452 158.965 110.91C159.376 110.859 159.78 110.804 160.185 110.749C161.309 110.591 162.434 110.415 163.545 110.22Z" fill="#1E2124"/>
</g>
<defs>
<clipPath id="clip0_2528_41416">
<rect width="164.24" height="121.537" fill="white" transform="translate(80.7703) rotate(33.3247)"/>
</clipPath>
</defs>
</svg>
