<svg width="163" height="80" viewBox="0 0 163 80" fill="none" xmlns="http://www.w3.org/2000/svg">
<path d="M0 60.7496C14.1884 62.5479 23.5764 54.2863 31.3554 47.9186C35.4776 44.5393 40.3444 41.0036 46.8868 39.7092C50.5702 38.9795 54.2934 39.2748 58.0566 39.492C61.5804 39.6918 65.0378 39.6484 68.5084 39.1793C75.1305 38.2845 81.1144 35.939 85.6754 32.6986C90.0769 29.5712 93.2549 25.8357 96.6458 22.2392C99.9834 18.7122 103.8 15.1765 109.185 12.8571C111.698 11.7798 114.504 10.9719 117.509 10.7461C121.14 10.4768 124.703 11.137 128.227 11.58C135.887 12.5443 144.078 12.5356 151.179 10.1814C157.123 8.2181 161.91 4.51735 162.973 0.15637C162.987 0.104246 162.987 0.0521232 163 0L0 0L0 60.7496Z" fill="#C3FF5C"/>
<g clip-path="url(#clip0_2412_41447)">
<path d="M23.7789 9.81278C21.7591 13.5655 22.9791 16.2538 26.9264 17.3667C30.8736 18.4797 42.6879 19.3094 49.9246 22.2476C57.1613 25.1859 65.6374 33.3163 68.1463 38.1196C70.6552 42.9229 72.4514 45.989 73.4852 45.2689C74.5171 44.5515 72.3716 38.7473 70.5787 35.9247C68.7859 33.1021 64.511 25.6185 55.3375 18.7582C46.1668 11.8996 38.6417 8.63395 33.5193 8.12025C28.3979 7.61105 25.0935 7.37161 23.7789 9.81278Z" fill="#C9C9C9"/>
<path d="M27.9441 15.2373C27.906 15.5857 27.372 15.4926 27.4127 15.146C27.6969 12.6681 28.9031 10.0617 30.9082 8.50998C30.8303 8.51679 30.7507 8.52632 30.6765 8.53943C30.3591 8.59378 30.0472 8.67517 29.7409 8.78357C29.1211 8.99953 28.5001 9.31201 27.9763 9.71226C27.9424 9.74044 27.9058 9.75511 27.8728 9.76434C27.7939 9.89113 27.7168 10.0152 27.6407 10.1438C27.3502 10.6363 27.0921 11.1503 26.8797 11.683C26.4982 12.6407 26.3841 13.6977 26.7001 14.6932C26.7777 14.9354 26.4088 15.0685 26.3312 14.8264C25.9926 13.8003 26.0706 12.6804 26.3657 11.6538C26.5365 11.0547 26.797 10.4956 27.1024 9.95059C27.213 9.75144 27.3335 9.55493 27.4567 9.36021C27.4781 9.06691 27.5398 8.77697 27.6293 8.49768C27.1686 8.81905 26.7305 9.17094 26.332 9.56858C26.203 9.7011 25.9193 9.70383 25.8669 9.48227C25.8669 9.48227 25.8669 9.48227 25.8659 9.47777C25.7158 10.2229 25.5746 10.9662 25.5418 11.7268C25.5042 12.5776 25.5724 13.444 25.7755 14.2752C25.827 14.4923 25.755 14.721 25.5273 14.8036C25.3317 14.8725 25.0589 14.7696 25.003 14.5535C24.7662 13.626 24.6635 12.6822 24.7264 11.7275C24.786 10.8134 24.9956 9.8586 25.4408 9.05205C25.5151 8.91446 25.6734 8.89089 25.7882 8.93977C25.7694 8.65485 25.7838 8.37243 25.8393 8.09786C25.3463 8.54572 24.8613 8.99894 24.3493 9.42257C24.1899 9.55439 23.9041 9.37672 23.9628 9.1743C24.1624 8.46584 24.4177 7.79039 24.7932 7.15567C24.9438 6.90124 25.363 7.09338 25.2107 7.35053C25.0061 7.6937 24.8347 8.0511 24.6965 8.42271C25.2768 7.90033 25.8698 7.3941 26.4303 6.8547C26.6829 6.60954 27.0536 6.91744 26.8478 7.20921C26.5116 7.68313 26.32 8.24902 26.3281 8.82264C26.935 8.2595 27.5717 7.73946 28.2734 7.29747C28.6015 7.09061 28.9271 7.4854 28.7142 7.78804C28.6077 7.93936 28.5192 8.09868 28.4415 8.26515C28.5231 8.28808 28.5907 8.3562 28.5993 8.44364C28.8882 8.2731 29.1889 8.12595 29.514 8.0066C29.8694 7.87623 30.2367 7.78096 30.6068 7.71093C30.9814 7.63997 31.3579 7.57802 31.7204 7.72091C31.8065 7.75463 31.8579 7.81203 31.8852 7.8768C31.986 7.82293 32.0886 7.76635 32.1948 7.71606C32.4732 7.58528 32.6459 8.00721 32.4268 8.1773C31.2983 9.04868 30.2348 10.0333 29.4332 11.2264C28.6183 12.434 28.1112 13.7795 27.9441 15.2373ZM75.4284 46.2553C75.2139 45.3114 74.8859 44.4052 74.5428 43.5045C74.1979 42.6065 73.8422 41.7131 73.4562 40.8307C72.6951 39.0848 71.8295 37.3864 70.8703 35.7428C70.331 34.8172 69.7596 33.9171 69.1667 33.0261C69.1721 33.0297 69.1758 33.036 69.1812 33.0395C69.3816 33.1762 69.6375 33.0149 69.5706 32.7682C69.5147 32.5638 69.3543 32.3953 69.2253 32.2319C69.0899 32.0605 68.9483 31.8928 68.8032 31.7304C68.5309 31.4255 68.2481 31.1369 67.9447 30.8619C67.7214 30.6595 67.4893 30.4706 67.2509 30.2855C66.6333 29.4325 66.0031 28.5869 65.3597 27.7558C65.6961 28.0215 66.0316 28.2827 66.3628 28.5566C66.8262 28.9415 67.2719 29.3536 67.7433 29.7321C68.0168 29.9522 68.3392 29.5587 68.0915 29.3167C67.6628 28.8964 67.186 28.5143 66.7208 28.1322C66.2664 27.7571 65.8058 27.3858 65.3407 27.0271C64.8784 26.6701 64.4107 26.3213 63.9351 25.9789C62.6876 24.4752 61.3564 23.0288 59.7684 21.8871C58.0519 20.6525 56.2226 19.5611 54.4138 18.4677C50.7612 16.2578 47.0281 14.1892 43.2207 12.2581C43.1866 12.2394 43.1533 12.2251 43.1192 12.2064C43.566 12.2261 44.0111 12.2719 44.4581 12.3268C44.812 12.3705 44.9044 11.8441 44.5531 11.7787C43.8649 11.6496 43.1477 11.6181 42.4496 11.6343C42.3172 11.6361 42.1857 11.6541 42.0524 11.663C41.0278 11.1438 39.9836 10.6309 38.912 10.1895C39.0921 10.2154 39.274 10.2503 39.4524 10.2907C39.6236 10.3301 39.794 10.3769 39.9635 10.4308C40.1564 10.4963 40.3423 10.6079 40.547 10.5488C40.7051 10.5018 40.7379 10.3095 40.6655 10.1836C40.5614 10.0057 40.3024 9.95867 40.1177 9.89852C39.9302 9.83658 39.7401 9.78458 39.5465 9.73802C39.1646 9.64847 38.774 9.59596 38.3827 9.57412C38.0245 9.55477 37.6701 9.56517 37.3159 9.59902C35.9858 9.16919 34.6208 8.89924 33.2138 8.91279C32.7887 8.91913 32.3646 8.95343 31.9416 9.01568C31.3988 9.09584 31.4678 9.95501 32.0151 9.87392C32.6348 9.78244 33.2478 9.76046 33.8531 9.79175C33.3796 9.93731 32.9235 10.145 32.4855 10.3724C31.8324 10.7104 31.2165 11.1157 30.6619 11.6046C29.5519 12.5777 28.6804 13.7596 28.0318 15.0852C27.8426 15.4697 28.4396 15.7446 28.6314 15.3618C29.2379 14.1601 30.1254 13.1017 31.152 12.2445C31.6595 11.8218 32.195 11.4332 32.7595 11.095C33.3524 10.7367 33.9909 10.4863 34.6056 10.1775C34.7198 10.1208 34.7719 9.99962 34.7676 9.8878C35.1251 9.93782 35.4827 10.0113 35.8377 10.0947C35.8459 10.2597 35.9955 10.4328 36.2046 10.3729C36.3252 10.336 36.4486 10.3127 36.571 10.2848C37.9144 10.6767 39.2231 11.2519 40.4854 11.8625C40.4497 11.87 40.413 11.8729 40.3728 11.8813C40.2253 11.912 40.1051 12.0192 40.1205 12.1851C40.1321 12.3212 40.2745 12.47 40.422 12.4393C40.7304 12.3751 41.0398 12.3271 41.351 12.2881C41.4597 12.3407 41.5665 12.3959 41.6752 12.4484C45.4294 14.3131 49.1146 16.3189 52.7247 18.4579C54.5153 19.5197 56.298 20.5997 58.04 21.7422C58.9101 22.3148 59.7749 22.9073 60.582 23.5705C61.112 24.0072 61.5992 24.4858 62.075 24.9761C61.9566 25.0806 61.9121 25.2613 62.0793 25.3721C62.4361 25.6124 62.7904 25.8627 63.1419 26.1112C64.1099 27.1612 65.0326 28.263 65.9107 29.3975C65.908 29.3957 65.9053 29.3939 65.9026 29.3921C65.5909 29.2128 65.3623 29.723 65.6713 29.9005C66.1043 30.1485 66.5187 30.4309 66.9145 30.7359C67.8897 32.0827 68.8106 33.4713 69.6655 34.89C71.6104 38.1248 73.2692 41.5436 74.3028 45.1865C74.4301 45.6366 74.5627 46.0787 74.7096 46.5224C74.8612 47.0004 75.5371 46.7282 75.4284 46.2553ZM74.4101 47.5734C74.0939 46.4064 73.5286 45.3312 72.9731 44.2587C72.4176 43.1862 71.8237 42.131 71.1906 41.1005C69.9245 39.0394 68.5058 37.0759 66.9528 35.2295C63.7204 31.387 59.9062 27.9568 55.5678 25.4365C51.6212 23.1446 47.2653 21.687 42.8782 20.52C38.4374 19.3407 33.924 18.4443 29.4918 17.228C28.3853 16.923 27.2815 16.6081 26.1907 16.2435C25.1081 15.8842 23.9174 15.43 23.1473 14.5384C21.8525 13.0421 22.2932 10.9638 23.0695 9.31804C23.2656 8.89915 23.4958 8.49898 23.7215 8.09975C23.8295 7.91053 23.5207 7.7682 23.4127 7.95741C22.5452 9.48829 21.527 11.2501 21.7122 13.0854C21.9614 15.5391 24.3227 16.5432 26.3695 17.1948C30.8065 18.605 35.3604 19.5517 39.8778 20.6493C44.3512 21.7373 48.8167 22.9912 52.9668 25.0247C57.4795 27.2363 61.4445 30.4473 64.8531 34.138C68.1635 37.7248 70.9358 41.8463 73.0181 46.2735C73.2748 46.8212 73.5466 47.3399 73.8596 47.8547C74.0567 48.1683 74.4972 47.8958 74.4101 47.5734ZM24.476 13.7451C24.3849 13.6302 24.2991 13.5072 24.2222 13.3823C24.1878 13.3284 24.1579 13.2736 24.1298 13.216C24.1217 13.1989 24.1036 13.1675 24.1017 13.1585C24.0854 13.1243 24.0708 13.0874 24.0545 13.0533C23.9964 12.9174 23.9489 12.777 23.906 12.6357C23.8886 12.5735 23.8739 12.5132 23.8592 12.4529C23.8555 12.4349 23.8489 12.3916 23.8462 12.3898C23.8406 12.3511 23.8332 12.315 23.8276 12.2763C23.8061 12.1375 23.7954 11.9942 23.7873 11.8526C23.7869 11.7822 23.7847 11.7146 23.7887 11.6433C23.7904 11.6289 23.7901 11.582 23.7936 11.5765C23.7995 11.5143 23.8009 11.4529 23.8041 11.3888C23.804 11.3771 23.8058 11.3744 23.8049 11.3699C23.8049 11.3699 23.8049 11.3699 23.8057 11.3627C23.8073 11.3248 23.8106 11.2842 23.8148 11.2481C23.8216 11.1786 23.8301 11.1064 23.8368 11.0369C23.8519 10.8834 23.8697 10.7318 23.8849 10.5783C23.8993 10.4438 23.842 10.3125 23.7154 10.252C23.6023 10.2004 23.4396 10.2249 23.3615 10.3327C22.9427 10.9154 22.8749 11.6528 22.9804 12.3494C23.0832 13.0324 23.3452 13.6964 23.7783 14.2403C23.9172 14.418 24.1809 14.4993 24.3742 14.351C24.5389 14.211 24.624 13.9327 24.476 13.7451ZM38.3529 11.0879C36.692 11.1473 35.0413 11.7 33.5392 12.3861C32.0085 13.0806 30.582 13.9765 29.2856 15.0519C28.9054 15.3682 29.3319 16.005 29.722 15.6913C30.9866 14.6765 32.3811 13.8179 33.861 13.1598C35.3489 12.4954 36.9127 12.0875 38.4664 11.6184C38.7737 11.5263 38.6518 11.0796 38.3529 11.0879ZM41.0512 13.1443C39.4575 13.0769 37.8435 13.3309 36.3157 13.7781C34.7396 14.2402 33.3338 15.0096 31.9674 15.9141C31.7419 16.0644 31.9786 16.4119 32.2041 16.2616C33.501 15.4045 34.983 14.7906 36.4523 14.2968C37.9475 13.7929 39.4774 13.526 41.0419 13.3716C41.1654 13.36 41.1828 13.1497 41.0512 13.1443ZM47.5764 16.5336C45.918 15.9913 44.1135 15.8622 42.3795 15.8264C40.615 15.79 38.8499 15.9321 37.1219 16.2896C36.1476 16.4925 35.1798 16.7504 34.232 17.0487C33.8729 17.161 34.0706 17.7046 34.4261 17.5977C36.0638 17.1181 37.7519 16.8276 39.4499 16.676C41.1478 16.5244 42.85 16.4846 44.5499 16.6378C45.5162 16.7254 46.475 16.878 47.4423 16.9701C47.6805 16.9956 47.8393 16.6221 47.5764 16.5336ZM53.0348 19.3678C51.2761 18.8253 49.4482 18.5366 47.6185 18.3635C45.8057 18.1938 43.9768 18.1614 42.1587 18.2723C41.1279 18.3366 40.1001 18.438 39.0788 18.5825C38.8543 18.6128 38.8835 18.9708 39.1097 18.9377C42.7046 18.4005 46.3659 18.4599 49.9501 19.0521C50.968 19.2205 51.9798 19.4278 52.9899 19.6378C53.1647 19.6718 53.1962 19.4164 53.0348 19.3678ZM58.3197 29.311C58.0525 29.0989 57.7365 28.944 57.4409 28.7754C57.1508 28.6104 56.8615 28.4499 56.5678 28.2903C55.958 27.9641 55.3402 27.656 54.7127 27.3687C54.5709 27.3019 54.4675 27.5254 54.6094 27.5921C55.2243 27.875 55.8313 28.176 56.4286 28.4978C56.7214 28.6528 57.0133 28.8151 57.3017 28.9829C57.5999 29.1532 57.8886 29.3561 58.1974 29.4985C58.3123 29.5473 58.4178 29.3915 58.3197 29.311ZM61.201 32.2826C60.9676 32.0306 60.6325 31.8398 60.3485 31.6477C60.0887 31.4716 59.8226 31.2993 59.554 31.1368C58.9726 30.7789 58.3664 30.4589 57.7487 30.1742C57.6123 30.1111 57.5161 30.3237 57.6525 30.3868C58.262 30.6662 58.8539 30.9844 59.4245 31.3352C59.7157 31.5164 59.9998 31.7085 60.2785 31.9088C60.5411 32.0983 60.7851 32.334 61.0654 32.4964C61.202 32.5712 61.2902 32.3767 61.201 32.2826ZM74.5721 50.6816C74.438 50.2774 74.2251 49.8873 74.0285 49.5079C73.8264 49.1133 73.6145 48.7277 73.383 48.3485C72.9226 47.592 72.4069 46.8728 71.8396 46.1972C71.7224 46.0572 71.4871 46.2166 71.6052 46.3611C72.151 47.0223 72.6468 47.7245 73.0847 48.4623C73.3091 48.8406 73.5237 49.228 73.7151 49.6272C73.8992 50.0139 74.0432 50.4207 74.2336 50.8037C74.3316 51.0088 74.6469 50.9102 74.5721 50.6816ZM21.427 15.2512C21.4777 15.0551 21.3133 14.8217 21.2441 14.6435C21.1713 14.4591 21.112 14.2718 21.0544 14.0819C20.9454 13.6983 20.875 13.3091 20.8375 12.9107C20.7662 12.1083 20.8462 11.305 21.0695 10.5306C21.1115 10.3833 20.9799 10.2299 20.8446 10.2064C20.6824 10.1768 20.5658 10.2903 20.5229 10.4331C20.2837 11.2554 20.206 12.1264 20.2857 12.981C20.3242 13.4074 20.4065 13.8317 20.521 14.2423C20.5778 14.4394 20.6417 14.6375 20.7163 14.8309C20.7928 15.0334 20.8699 15.3414 21.0799 15.4338C21.2406 15.5014 21.3886 15.4048 21.427 15.2512Z" fill="#1E2124"/>
<path d="M7.86672 37.2827C7.25384 37.7485 6.46245 38.7187 9.60766 41.5227C12.337 43.9577 15.4369 44.8245 19.002 51.1878C22.5654 57.5538 31.4512 64.3637 39.8387 64.3008C48.2263 64.2379 54.7347 60.4428 59.5128 49.698C59.5128 49.698 52.9282 55.0423 45.7 55.9746C38.4735 56.9041 33.7707 56.357 26.4312 51.0309C19.0917 45.7048 16.1482 42.1003 13.7622 40.6012C11.3763 39.1021 7.86672 37.2827 7.86672 37.2827Z" fill="#C9C9C9"/>
<path d="M37.3836 33.6709L27.8441 31.9003C27.8441 31.9003 22.4317 34.4832 20.9697 38.5354C19.505 42.5858 20.574 46.1627 22.1186 48.093C22.1186 48.093 31.6522 54.1527 35.4516 55.2495C35.4516 55.2495 41.788 52.2746 43.9546 47.2608C46.4944 41.385 42.7233 35.8583 42.7233 35.8583L37.3836 33.6709Z" fill="#7C8287"/>
<path d="M23.8977 45.8945C24.0191 45.8387 24.1079 46.0221 23.9902 46.0842C23.6672 46.2478 23.3379 46.4032 23.0113 46.5605C22.8836 46.6199 22.7902 46.4257 22.9151 46.3645C23.2435 46.2045 23.5692 46.0427 23.8977 45.8945ZM29.7334 47.2623C29.7981 47.1573 29.6416 47.0419 29.5752 47.1497C29.3466 47.5237 29.118 47.8977 28.8904 48.2762C28.8275 48.3785 28.9759 48.4885 29.0432 48.3853C29.2745 48.0131 29.5049 47.6363 29.7334 47.2623ZM27.6867 50.861C27.7894 50.6799 27.8921 50.4989 27.9948 50.3178C28.2055 49.9475 28.4117 49.5782 28.6224 49.2079C28.7083 49.0585 28.4915 48.8993 28.4039 49.0515L27.7594 50.1813C27.6514 50.3705 27.5452 50.557 27.4372 50.7462C27.3345 50.9273 27.2085 51.1085 27.1346 51.3047C27.0835 51.4421 27.2649 51.5312 27.3546 51.4233C27.4905 51.2564 27.5832 51.0493 27.6867 50.861ZM37.9709 53.0472C37.8484 52.4951 37.6704 51.9568 37.4425 51.436C37.4025 51.3434 37.2606 51.4128 37.3006 51.5055C37.5231 52.011 37.6938 52.5366 37.8163 53.0771C37.8393 53.1779 37.9939 53.1481 37.9709 53.0472ZM41.8241 42.4058L41.0737 42.3601C40.9698 42.3535 40.961 42.5151 41.0649 42.5216C41.3147 42.5353 41.5655 42.5536 41.8153 42.5673C41.9192 42.5738 41.928 42.4123 41.8241 42.4058ZM36.6024 34.3844C36.6307 34.3292 36.6293 34.2543 36.5682 34.2177C36.5179 34.1883 36.432 34.1897 36.4028 34.2522C36.2933 34.4793 36.1837 34.7064 36.0741 34.9335C36.0476 34.986 36.0481 35.0563 36.1065 35.0911C36.1541 35.1188 36.2328 35.1165 36.2629 35.0586L36.6024 34.3844ZM43.5536 47.6696C42.8285 47.2359 42.0591 46.8701 41.3146 46.478C41.1736 46.4041 41.0326 46.6142 41.1763 46.69C41.9334 47.0865 42.6808 47.5156 43.46 47.8723C43.5722 47.9194 43.6623 47.7339 43.5536 47.6696ZM42.7354 48.6454C42.3478 48.2213 41.8311 47.8945 41.3689 47.561C40.8797 47.2096 40.3835 46.8692 39.8846 46.5386C39.3354 46.1786 38.78 45.8223 38.2202 45.4786C38.2823 45.3953 38.3354 45.302 38.3922 45.215C38.8672 45.4519 39.3422 45.6888 39.8251 45.9076C39.9257 45.9548 40.0132 45.7792 39.9117 45.7275C39.4466 45.4933 38.9708 45.2754 38.4977 45.0592C38.6377 44.8328 38.7669 44.5993 38.8755 44.3559C39.1672 44.4948 39.4582 44.6408 39.749 44.7752C40.3568 45.0572 40.9637 45.3347 41.5714 45.6168C42.2043 45.9076 42.8305 46.268 43.4863 46.5001C43.6468 46.5559 43.7733 46.3089 43.6188 46.226C43.0385 45.9077 42.3945 45.6872 41.793 45.4133C41.1817 45.1367 40.5793 44.8465 39.975 44.559C39.6446 44.4024 39.3178 44.2403 38.9892 44.081C39.027 43.9815 39.0649 43.8821 39.0974 43.779C39.152 43.6479 39.1915 43.5105 39.2363 43.3767C40.6474 43.5878 42.0471 43.8458 43.4403 44.185C43.607 44.2254 43.6895 43.9687 43.5237 43.9328C42.1379 43.6179 40.7336 43.3491 39.3225 43.1381C39.3819 42.9167 39.4288 42.6909 39.465 42.4579C39.5624 42.4329 39.5776 42.2912 39.4932 42.2548C39.5178 42.0454 39.5353 41.8351 39.5483 41.6257C40.726 41.5848 41.9065 41.5691 43.0852 41.5444C43.2338 41.5416 43.2484 41.3061 43.0981 41.3116C41.9168 41.3462 40.7373 41.3899 39.5577 41.4101C39.566 41.1665 39.5609 40.9257 39.5531 40.6831C40.0487 40.6339 40.5442 40.5847 41.0426 40.5491C42.075 40.4703 43.1266 40.4391 44.1393 40.2189C44.26 40.1937 44.2507 40.0008 44.1245 39.9989C43.0905 39.9794 42.0578 40.1474 41.0345 40.2713C40.5364 40.3304 40.0372 40.385 39.5407 40.4297C39.5248 40.1818 39.5 39.9357 39.46 39.6951C40.6231 39.4693 41.788 39.2409 42.952 39.0196C43.0575 39 43.026 38.8351 42.9205 38.8547C41.7565 39.076 40.5933 39.29 39.4284 39.5068C39.3757 39.2383 39.306 38.9781 39.2211 38.7234C40.0648 38.0874 40.9138 37.4551 41.7683 36.838C41.9251 36.7279 41.7268 36.4991 41.5726 36.6111C40.7476 37.2126 39.9279 37.8177 39.1074 38.43C38.9882 38.1331 38.8397 37.8518 38.6661 37.585C39.5338 36.782 40.396 35.9755 41.2573 35.1645C41.4291 35.0019 41.1874 34.7211 41.0157 34.8837C40.1731 35.6955 39.3289 36.51 38.4926 37.3299C38.3021 37.0714 38.0858 36.8229 37.831 36.6036C38.3876 35.863 38.9441 35.1225 39.498 34.3802C39.6 34.2415 39.3789 34.095 39.2769 34.2337C38.7337 34.9714 38.1861 35.7101 37.643 36.4478C37.5324 36.3628 37.4217 36.2779 37.3031 36.1992C37.2734 36.1796 37.2429 36.1672 37.2124 36.1547C37.1287 36.0876 37.0433 36.0232 36.9534 35.9597C37.2053 35.5973 37.4608 35.2412 37.7244 34.8904C37.8469 34.7264 37.5827 34.5513 37.4602 34.7153C37.1965 35.0661 36.9437 35.424 36.6936 35.7837C35.9799 35.3148 35.1695 34.988 34.3325 34.8265C34.3326 34.5541 34.3371 34.2808 34.3372 34.0084C34.3361 33.8325 34.0647 33.8162 34.0659 33.9921C34.0657 34.2528 34.0611 34.5144 34.0583 34.7733C33.7312 34.724 33.4008 34.7035 33.0723 34.7038C33.057 34.5497 33.0346 34.3947 33.021 34.2378C33.0067 34.0882 32.776 34.1339 32.7931 34.2853C32.8083 34.4277 32.8298 34.5665 32.845 34.7089C32.496 34.7229 32.1481 34.7648 31.8058 34.8455C31.7924 34.8483 31.7816 34.8528 31.7682 34.8556C31.6064 34.1802 31.4473 33.5065 31.2962 32.8264C31.252 32.6337 30.9543 32.6933 30.9985 32.8861C31.1523 33.5679 31.3115 34.2533 31.4787 34.9324C31.2286 35.0079 30.9866 35.1006 30.7518 35.2058C30.5471 34.4008 30.3469 33.5947 30.1422 32.7897C30.1137 32.6735 29.9305 32.7116 29.9607 32.8251C30.1709 33.6455 30.3828 34.4631 30.593 35.2835C30.4342 35.3612 30.2726 35.4371 30.1166 35.5283C29.9457 35.1154 29.7792 34.7015 29.6021 34.2923C29.544 34.1564 29.3414 34.2597 29.4013 34.3928C29.5866 34.8074 29.7584 35.2248 29.9391 35.6404C29.8794 35.6787 29.8206 35.7215 29.7591 35.7624C29.2576 34.7256 28.7435 33.6961 28.2081 32.6758C28.1401 32.5491 27.9411 32.6469 28.0091 32.7736C28.5526 33.7993 29.0837 34.8323 29.5996 35.8708C29.4062 36.0073 29.2182 36.1475 29.0429 36.3037C28.7716 35.8671 28.5297 35.4149 28.3084 34.9491C28.2176 34.7567 27.9214 34.9029 28.0121 35.0954C28.2462 35.5891 28.5079 36.0699 28.7919 36.5345C28.7839 36.5408 28.7786 36.549 28.7723 36.5526C28.1245 35.8821 27.4812 35.2106 26.8316 34.5428C26.6982 34.4038 26.4712 34.6037 26.6064 34.74C27.2676 35.4077 27.9297 36.0683 28.5927 36.7333C28.5793 36.7478 28.5633 36.7605 28.5482 36.7778C28.5482 36.7778 28.4112 36.9167 28.3419 36.9992C28.1918 37.176 28.0506 37.3628 27.9203 37.5566C26.4969 36.9677 25.0524 36.4232 23.5983 35.9229C23.4305 35.8663 23.3427 36.1311 23.5122 36.185C24.959 36.661 26.382 37.1913 27.7882 37.7649C27.7023 37.9026 27.6154 38.0358 27.5375 38.1788C27.3681 38.1366 27.1996 38.0989 27.0275 38.0549C26.1425 37.8188 25.268 37.543 24.4024 37.2419C24.2418 37.1861 24.1583 37.4383 24.3189 37.4941C25.1998 37.8014 26.0886 38.0789 26.9871 38.3239C27.1279 38.3627 27.2677 38.397 27.4076 38.4313C27.2318 38.8013 27.0865 39.1838 26.9834 39.5786C25.4076 39.2235 23.8195 38.9107 22.2254 38.6486C22.0713 38.6243 22.0568 38.8716 22.2127 38.8931C23.7994 39.131 25.3739 39.423 26.9398 39.7638C26.918 39.8623 26.8936 39.959 26.8745 40.0592C26.4557 40.0736 26.0388 40.0971 25.6244 40.1105C24.8664 40.1298 24.1066 40.1519 23.3459 40.1694C23.2045 40.173 23.1898 40.3968 23.3339 40.395L25.6482 40.3404C26.0402 40.3316 26.4413 40.3326 26.8386 40.3273C26.802 40.6144 26.7841 40.9023 26.7823 41.1891C26.3621 41.2649 25.941 41.3361 25.5181 41.4101C24.3682 41.6096 23.2192 41.8019 22.0694 42.0015C21.8897 42.0342 21.947 42.3134 22.1267 42.2807C23.2729 42.0749 24.4217 41.8592 25.5679 41.6533C25.9747 41.5804 26.3771 41.5083 26.7839 41.4354C26.7945 41.7032 26.8213 41.97 26.8632 42.2313C26.5191 42.3147 26.1778 42.3999 25.8337 42.4833C25.0946 42.663 24.3572 42.8401 23.6208 43.0216C23.4099 43.0725 23.4765 43.4086 23.6874 43.3576C24.4238 43.1761 25.162 42.9918 25.8984 42.8103C26.2425 42.7269 26.5883 42.6408 26.9297 42.5556C26.9667 42.7358 26.9991 42.9169 27.0513 43.0915C26.4976 43.289 25.9385 43.4829 25.3838 43.6759C24.2567 44.0656 23.1304 44.4598 22.0033 44.8495C21.8488 44.9028 21.963 45.1303 22.1148 45.0752C23.2259 44.6865 24.3369 44.2978 25.4462 43.9119C26.0071 43.7152 26.5662 43.5213 27.128 43.3292C27.2019 43.5533 27.2955 43.771 27.3908 43.986C27.3721 43.9969 27.3489 44.0088 27.3301 44.0197C26.5941 44.4078 25.8572 44.7914 25.123 45.1768C25.007 45.2361 25.0959 45.4196 25.2119 45.3602C25.9488 44.9766 26.6848 44.5885 27.4217 44.2049C27.4405 44.194 27.4619 44.1848 27.4833 44.1757C27.5559 44.325 27.6382 44.4651 27.7188 44.608C26.9165 45.1391 26.1343 45.7106 25.434 46.3753C25.2997 46.5043 25.4755 46.7025 25.6207 46.5924C26.3779 46.0238 27.1307 45.4561 27.9277 44.945C27.9981 45.05 28.0651 45.1605 28.1418 45.262C27.5244 45.717 26.9097 46.1737 26.2922 46.6287C25.788 46.9991 25.2864 47.3712 24.7848 47.7433C24.277 48.1191 23.7412 48.4726 23.2605 48.8779C23.1652 48.9588 23.2746 49.1403 23.3861 49.0702C23.8996 48.7448 24.3787 48.3539 24.8714 47.9953C25.3909 47.6195 25.9121 47.2409 26.4289 46.8632C27.057 46.4037 27.6878 45.9459 28.3169 45.4909C28.4793 45.6919 28.6532 45.8811 28.8352 46.0639C28.348 46.5857 27.877 47.1182 27.3871 47.6382C26.7229 48.3424 26.0614 49.0485 25.3972 49.7527C25.2994 49.8552 25.4455 50.0221 25.5406 49.9177C26.1994 49.2099 26.8626 48.5012 27.5187 47.7916C28.005 47.2653 28.5111 46.756 29.0001 46.2315C29.2558 46.4671 29.5257 46.681 29.8187 46.8712C30.1036 47.0561 30.4018 47.2147 30.7087 47.3481C30.0312 49.2034 29.3538 51.0586 28.6888 52.9183C28.644 53.0404 28.8341 53.1041 28.879 52.9821C29.5781 51.1411 30.2663 49.2929 30.9528 47.4475C31.2265 47.5549 31.5046 47.6496 31.7915 47.7191C31.6726 48.0373 31.5538 48.3556 31.4395 48.6729C31.0303 49.7914 30.6293 50.9151 30.2336 52.0425C30.1853 52.1817 30.4005 52.2543 30.4489 52.1151C30.8455 50.9922 31.2492 49.8702 31.6601 48.7491C31.7798 48.4236 31.9022 48.0999 32.0218 47.7744C32.375 47.8488 32.7341 47.8844 33.0959 47.8983C33.0567 48.3667 33.0149 48.8333 32.9741 49.3044C32.8613 50.5842 32.7575 51.8621 32.6663 53.1444C32.6531 53.3303 32.9433 53.3474 32.9537 53.1597C33.0244 51.8793 33.1067 50.5988 33.2123 49.3182C33.2487 48.848 33.2949 48.3805 33.3412 47.913C33.6393 47.9119 33.9345 47.8857 34.2314 47.845C34.3077 49.7171 34.3831 51.5847 34.4782 53.4575C34.4835 53.5973 34.7011 53.613 34.6975 53.4705C34.6301 51.5849 34.5439 49.6984 34.455 47.8102C34.5247 47.798 34.5981 47.7921 34.6669 47.7754C34.77 48.233 34.8776 48.6896 34.9808 49.1472C35.372 50.8621 35.7232 52.5971 36.1743 54.2972C36.2101 54.4377 36.4229 54.3957 36.3933 54.2516C36.0485 52.5247 35.5982 50.8174 35.1908 49.1034C35.0832 48.6468 34.9756 48.1902 34.8662 47.7363C35.179 47.6594 35.4809 47.5519 35.7791 47.4264C35.8816 47.654 35.986 47.8788 36.0823 48.11C36.4041 48.8837 36.6705 49.6829 36.9226 50.4805C36.9564 50.5885 37.1299 50.5595 37.0969 50.4442C36.7994 49.3908 36.4356 48.3441 36.0165 47.323C36.2967 47.1895 36.566 47.0254 36.828 46.8487C37.584 48.1942 38.3765 49.525 39.2358 50.8066C39.3036 50.9099 39.4774 50.7915 39.4141 50.6873C38.6198 49.3592 37.8273 48.0284 37.0704 46.6785C37.1025 46.653 37.1382 46.6339 37.172 46.6057C37.2682 46.5293 37.3527 46.4412 37.4452 46.3586C37.5715 46.5084 37.6951 46.6564 37.8213 46.8063C38.3083 47.3858 38.8052 47.9563 39.2637 48.5559C39.7393 49.1707 40.1881 49.7911 40.7313 50.3496C40.8701 50.4921 41.0748 50.3086 40.9601 50.147C40.5158 49.5256 39.9977 48.9878 39.4839 48.4255C38.9638 47.8552 38.4776 47.2567 37.9806 46.6627C37.8544 46.5129 37.7299 46.3603 37.6036 46.2105C37.7797 46.0353 37.9469 45.8502 38.1005 45.6562C38.6522 45.9945 39.1942 46.3419 39.7228 46.7156C40.2021 47.0525 40.6742 47.4004 41.1348 47.76C41.6034 48.125 42.0519 48.5623 42.5614 48.8648C42.6844 48.9308 42.8463 48.7656 42.7354 48.6454Z" fill="#1E2124"/>
<path d="M41.1524 41.2432C41.3021 41.0077 41.4223 40.7526 41.4787 40.4825C41.5188 40.3028 41.5355 40.1232 41.5407 39.9436C41.5767 39.5627 41.4956 39.1898 41.3707 38.8307C41.3425 38.7497 41.3053 38.6706 41.2681 38.5915C41.2387 38.4708 41.1941 38.3556 41.111 38.2461C40.4194 37.3052 39.1301 36.8129 37.995 37.0845C36.8018 37.3682 35.8853 38.3645 35.6898 39.5816C35.5107 40.6968 36.0718 41.9443 37.0368 42.5253C38.0629 43.1429 39.3683 43.0659 40.3197 42.3418C40.6814 42.0716 40.9725 41.6728 41.1524 41.2432Z" fill="#DBDBDB"/>
<path d="M27.2916 41.7657C25.9868 41.2437 24.5958 43.2217 26.1812 44.2371C27.7656 45.248 29.3223 42.578 27.2916 41.7657Z" fill="#DBDBDB"/>
<path d="M39.0683 61.3745C39.28 61.4408 39.2714 61.7854 39.0434 61.8212C38.7474 61.8664 38.4491 61.8205 38.1544 61.7926C37.8642 61.7638 37.5766 61.7251 37.2891 61.6863C36.7175 61.6034 36.1484 61.4988 35.5838 61.3816C34.4356 61.1346 33.3047 60.8018 32.1977 60.403C31.9106 60.2984 32.0581 59.8474 32.347 59.9493C33.4342 60.331 34.5443 60.6306 35.6709 60.8633C36.2301 60.9769 36.7929 61.0734 37.3608 61.1501C37.6484 61.1888 37.9378 61.2248 38.2262 61.2564C38.5065 61.2825 38.7975 61.2924 39.0683 61.3745ZM51.3026 34.3655C50.8548 33.9092 50.3216 33.5248 49.8161 33.1393C49.2944 32.743 48.7639 32.3604 48.2245 31.9913C47.1457 31.2532 46.0288 30.5676 44.8782 29.9454C42.5906 28.7099 40.172 27.7224 37.6747 27.0097C36.2839 26.6136 34.8712 26.3043 33.443 26.078C33.3203 26.059 33.309 26.2539 33.4317 26.2729C38.5166 27.0927 43.4206 29.042 47.6907 31.9451C48.2733 32.3428 48.8443 32.764 49.402 33.1997C49.9769 33.6506 50.5154 34.1631 51.1044 34.5923C51.242 34.6951 51.426 34.4901 51.3026 34.3655ZM61.7371 49.9781C61.0133 50.6078 60.2643 51.2052 59.4801 51.756C59.0952 52.0264 58.7039 52.2887 58.3072 52.5474C58.0995 52.6822 57.8936 52.8143 57.684 52.9402C57.4896 53.0605 57.2621 53.1666 57.1263 53.3569C57.0092 53.5245 57.1743 53.7273 57.3576 53.7008C57.5866 53.6696 57.7949 53.4924 57.9839 53.3685C58.1729 53.2446 58.3636 53.118 58.5517 52.9896C58.9563 52.7128 59.3554 52.4207 59.7438 52.1214C60.5152 51.5311 61.2704 50.9183 62.0012 50.2776C62.1953 50.1104 61.9329 49.8081 61.7371 49.9781ZM16.0395 26.6165C15.0201 27.066 14.0406 27.5963 13.1082 28.2085C12.6625 28.5009 12.2268 28.8077 11.8027 29.1261C11.5747 29.298 11.3493 29.4718 11.1303 29.6536C10.921 29.8263 10.6849 29.9929 10.5359 30.2212C10.4491 30.3543 10.5988 30.5392 10.746 30.4615C10.9753 30.341 11.1575 30.1387 11.3507 29.967C11.5536 29.7862 11.7619 29.6089 11.9712 29.4362C12.4022 29.0835 12.8521 28.7549 13.3139 28.4498C14.2231 27.8495 15.1793 27.331 16.1773 26.8908C16.3576 26.8156 16.2216 26.5387 16.0395 26.6165ZM31.2389 25.7269C30.9036 25.6488 30.526 25.671 30.184 25.6507C29.8303 25.6304 29.4801 25.6047 29.1255 25.5799C28.4082 25.525 27.6909 25.4701 26.9718 25.4179C26.8061 25.4054 26.7898 25.6671 26.9573 25.6768L29.111 25.8271C29.4656 25.8519 29.8157 25.8776 30.1695 25.9096C30.5134 25.939 30.8809 26.0151 31.2244 25.9858C31.3514 25.9688 31.359 25.7559 31.2389 25.7269ZM19.1418 39.7569C19.1822 39.4879 19.2369 39.2205 19.2996 38.9585C19.4279 38.4363 19.6037 37.9301 19.8155 37.4398C20.2486 36.4385 20.8245 35.5085 21.5615 34.7045C21.7002 34.5512 21.4936 34.3054 21.3478 34.4579C20.5786 35.2638 19.9221 36.1872 19.4469 37.1996C19.2085 37.7071 19.0113 38.2343 18.8563 38.7738C18.7783 39.0413 18.7111 39.3159 18.6556 39.5905C18.6035 39.8479 18.4902 40.1814 18.5705 40.4371C18.6227 40.6118 18.8784 40.7111 18.9882 40.5192C19.1121 40.2938 19.104 40.0043 19.1418 39.7569ZM46.6228 44.9419C46.6529 44.7477 46.683 44.5536 46.7032 44.3568C46.7491 43.9669 46.7735 43.5743 46.7835 43.1801C46.7991 42.3925 46.7395 41.6019 46.6084 40.8261C46.5515 40.4692 46.0035 40.581 46.0649 40.9369C46.1868 41.6794 46.2453 42.4304 46.2294 43.1828C46.222 43.5553 46.1974 43.9244 46.1568 44.2945C46.1365 44.4795 46.1135 44.6628 46.0833 44.8452C46.0532 45.0393 46.0034 45.2282 46.0279 45.4274C46.0543 45.6356 46.3671 45.6949 46.4725 45.5156C46.5707 45.3355 46.5936 45.1405 46.6228 44.9419ZM44.8482 48.822C44.9349 48.6537 44.6912 48.4883 44.6028 48.6594C44.2181 49.397 43.7813 50.1079 43.2789 50.7714C43.0241 51.1086 42.7523 51.4305 42.4696 51.7454C42.3363 51.8905 42.2029 52.0357 42.066 52.1746C41.9219 52.3244 41.7357 52.4618 41.6357 52.6446C41.5632 52.7795 41.6897 52.9645 41.8458 52.885C42.0314 52.79 42.169 52.6087 42.3076 52.4554C42.4312 52.3193 42.5538 52.1787 42.6765 52.0381C42.9581 51.707 43.228 51.3643 43.4863 51.01C43.9885 50.3113 44.4502 49.5858 44.8482 48.822ZM61.3355 46.2129C60.9476 46.2984 60.5586 46.3677 60.167 46.4351C60.2957 46.5398 60.427 46.6463 60.5539 46.7538C61.0056 47.127 60.5048 47.9005 60.0522 47.5228C59.6841 47.2167 59.309 46.9214 58.9374 46.6207C57.6499 45.4329 53.9424 42.739 51.4259 41.1262C48.274 39.1079 44.1616 37.0759 44.1616 37.0759C44.4674 37.4537 44.7484 38.1419 44.7484 38.1419C45.0792 38.9254 45.3252 39.7501 45.4755 40.597C46.1116 44.2217 44.9178 47.6616 42.6595 50.4894C41.3505 52.1287 39.7507 53.7933 37.8788 54.8805C38.43 54.9888 38.982 55.0899 39.5401 55.1639C40.1108 55.2423 40.6858 55.2963 41.2625 55.3359L41.2634 55.3404C43.0697 55.6147 47.319 55.2347 49.4654 54.5201C50.9794 54.017 52.4175 53.269 53.6145 52.5947C53.6172 52.5965 53.6172 52.5965 53.6181 52.601C53.7644 52.5189 53.907 52.4304 54.0533 52.3483C54.3869 52.1568 54.7035 51.9734 54.9862 51.8065L54.9852 51.802C56.5109 50.8785 57.9931 49.8677 59.5077 48.9019C59.8599 48.6759 60.235 49.2553 59.9099 49.5108C59.1698 50.0947 58.4142 50.6489 57.6154 51.151C56.4725 51.8727 55.3169 52.5783 54.1332 53.2264C54.4966 53.6579 54.8743 54.0794 55.2805 54.4692C56.3548 55.4924 57.6377 56.2256 59.007 56.767C59.3947 56.9188 59.1999 57.537 58.806 57.3889C57.3551 56.8362 56.0247 56.0871 54.8777 55.0274C54.3878 54.5705 53.9362 54.0728 53.5069 53.5587C53.2018 53.7185 52.8949 53.8811 52.5853 54.0301C52.3943 54.1215 52.2024 54.2084 52.0105 54.2954C52.2972 54.7617 52.6409 55.1879 53.0167 55.5887C53.9603 56.5992 54.9065 57.5998 55.9025 58.5594C56.1151 58.7664 55.7706 59.0636 55.5571 58.8638C55.0232 58.3621 54.4937 57.8595 53.9526 57.3687C53.4296 56.8976 52.8985 56.4328 52.4173 55.9155C52.0289 55.4985 51.6841 55.056 51.391 54.5699C51.2518 54.6295 51.1108 54.6917 50.9715 54.7512C51.1673 55.2858 51.398 55.8084 51.6616 56.31C52.2324 57.4005 52.9584 58.3952 53.8152 59.2782C54.1252 59.5964 53.608 60.0516 53.3008 59.7352C52.4079 58.8128 51.6466 57.7596 51.0469 56.6188C50.7751 56.1001 50.5407 55.5595 50.3412 55.0069C50.2117 55.0574 50.0814 55.1151 49.9519 55.1655C49.8135 55.2178 49.6733 55.2728 49.5331 55.3278C49.7234 55.8354 49.9468 56.3336 50.2013 56.8137C50.8011 57.9545 51.5082 59.0729 52.2479 60.1235C52.4547 60.4163 52.0373 60.7897 51.8295 60.4924C51.4375 59.933 51.0117 59.4017 50.6294 58.8332C50.2572 58.2791 49.9089 57.7058 49.5919 57.1144C49.3292 56.6172 49.1003 56.1037 48.9037 55.5763C48.5421 55.7221 48.1813 55.8606 47.8097 55.9803C47.8161 56.0001 47.8225 56.0199 47.8289 56.0397C48.0301 56.566 48.2562 57.0778 48.5019 57.5832C49.008 58.6308 49.5398 59.6331 50.3196 60.5039C50.435 60.6349 50.232 60.8157 50.1166 60.6847C49.3359 59.7977 48.5415 58.8899 47.955 57.8591C47.6635 57.3468 47.4166 56.8018 47.2055 56.2493C47.1945 56.2187 47.1863 56.1899 47.1736 56.162C46.4863 56.3333 45.7827 56.4587 45.0689 56.5463C45.1508 56.7523 45.2371 56.9574 45.3279 57.1616C45.5458 57.6446 45.7887 58.113 46.0529 58.5722C46.0674 58.5974 46.0846 58.6243 46.0991 58.6495C46.5331 58.6295 46.9653 58.6123 47.3993 58.5924C47.6651 58.5817 47.6948 59.0334 47.4345 59.0594C47.1035 59.0931 46.7752 59.1169 46.445 59.1316C46.4289 59.1326 46.4127 59.1336 46.3966 59.1346C46.8568 59.856 47.374 60.5373 47.9446 61.1723C48.2259 61.4871 47.739 61.9195 47.4533 61.6057C46.7629 60.8524 46.1517 60.031 45.6207 59.1577C44.8949 59.175 44.169 59.1805 43.443 59.1626C43.7798 59.9073 44.1683 60.6201 44.6407 61.299C44.7753 61.4894 44.5083 61.7328 44.3666 61.5416C43.8113 60.7884 43.2942 59.9826 42.8611 59.1429C41.835 59.1053 40.8088 59.0326 39.7876 58.9164C39.9565 59.2852 40.1467 59.6448 40.3485 59.9925C40.9737 60.0526 41.5978 60.0964 42.2265 60.151C42.4236 60.1686 42.4094 60.4745 42.2106 60.4595C41.6465 60.4244 41.0839 60.363 40.5214 60.29C40.7836 60.7168 41.0709 61.1289 41.3911 61.5202C41.6031 61.7813 41.2168 62.1247 40.9986 61.8673C40.5603 61.3433 40.1584 60.7812 39.8002 60.1936C39.6013 60.1669 39.3997 60.1385 39.2026 60.109C38.3605 59.9909 37.5227 59.8483 36.6901 59.6859C36.8028 59.9513 36.9137 60.2194 37.0398 60.4819C37.1939 60.8021 36.7077 61.0442 36.549 60.725C36.3577 60.3375 36.1788 59.9427 36.008 59.5415C35.1431 59.3576 34.2852 59.1511 33.4316 58.9203C33.5014 59.0678 33.5624 59.2171 33.6367 59.3637C33.7808 59.646 33.3454 59.8635 33.1995 59.5839C33.0572 59.3106 32.9257 59.0327 32.8004 58.7512C32.2758 58.6021 31.7538 58.4431 31.2327 58.2769C31.2132 58.443 30.9452 58.534 30.8366 58.3453C30.7896 58.2635 30.7497 58.1826 30.7026 58.1008C30.0819 57.8919 29.4647 57.6776 28.851 57.4461C28.7146 57.3947 28.7839 57.1759 28.9203 57.2274C29.4587 57.4323 29.9987 57.6227 30.5423 57.8078C30.2851 57.3377 30.0377 56.8585 29.818 56.3665C29.2104 56.1079 28.6107 55.8312 28.0208 55.5338C28.1168 55.8543 28.2217 56.1729 28.349 56.4869C28.4272 56.6749 28.1488 56.8174 28.0635 56.6285C27.871 56.1896 27.6981 55.7442 27.5439 55.2879C27.1335 55.0704 26.7284 54.8448 26.3276 54.6065C26.4239 55.1101 26.5443 55.6064 26.696 56.0961C26.7966 56.4274 26.2772 56.5309 26.1775 56.2041C25.9729 55.5469 25.8003 54.876 25.6663 54.1995C25.225 53.9227 24.7882 53.6332 24.3647 53.3293C24.4766 54.3298 24.6565 55.3209 24.9303 56.2924C25.0155 56.594 24.5435 56.6899 24.4565 56.391C24.1314 55.2259 23.8571 54.0361 23.6974 52.8366C23.6281 52.7829 23.558 52.7364 23.4905 52.68C22.5928 51.984 21.7537 51.2218 20.9423 50.4351C20.884 50.8441 20.841 51.2593 20.8212 51.6743C20.802 52.0352 20.246 52.0054 20.2652 51.6445C20.292 51.0707 20.3484 50.5047 20.4397 49.9386C19.9713 49.4726 19.5091 49.0029 19.0487 48.5305C18.9883 48.7473 18.936 48.9696 18.8972 49.189C18.8687 49.357 18.755 49.4957 18.5687 49.4852C18.4156 49.4771 18.2464 49.3222 18.2731 49.1569C18.3377 48.7678 18.4248 48.3857 18.5388 48.0097C18.0955 47.5525 17.6505 47.098 17.1956 46.6527C17.102 46.5595 17.0065 46.469 16.9128 46.3758C16.8776 46.4653 16.8343 46.5495 16.8017 46.6408C16.719 46.874 16.3567 46.7546 16.4393 46.5213C16.4903 46.3722 16.5538 46.2274 16.6156 46.0854C14.6812 44.2316 12.5616 42.5314 10.0094 41.6422C9.90623 41.605 9.9589 41.4414 10.0621 41.4786C10.4012 41.5982 10.735 41.7259 11.0635 41.8735C13.198 42.8169 15.0101 44.2899 16.694 45.8883C16.7982 45.6576 16.9122 45.4296 17.037 45.2087C17.0715 45.1498 17.1096 45.0855 17.1459 45.024C16.5986 44.5251 16.053 44.0234 15.5109 43.5164C14.0567 42.152 12.5396 40.7537 10.7331 39.8759C10.2752 39.6542 9.79786 39.4742 9.31004 39.3339C8.86707 39.2078 8.39572 39.1251 8.00117 38.8715C7.22377 38.3759 6.98157 37.4447 7.37377 36.6187C7.72618 35.8714 8.39987 35.3953 9.05759 34.9437C9.81959 34.421 10.6042 33.9406 11.4269 33.5204C13.0043 32.7129 14.685 32.1022 16.3954 31.6592C19.9306 30.7399 23.6512 30.5428 27.2852 30.8216C27.4652 30.8358 27.6471 30.8589 27.8298 30.8749C28.3019 30.9386 29.5928 31.1089 30.0487 31.1502L30.0745 31.1284C30.6316 30.7541 31.1833 30.3762 31.7069 29.9525C31.9304 29.7698 32.2288 30.1115 32.0026 30.2925C31.601 30.618 31.1814 30.9355 30.7447 31.226C31.1416 31.2866 31.5376 31.3544 31.9329 31.4294C32.1611 31.2927 32.3948 31.1595 32.6222 31.0182C33.0894 30.7284 33.5124 30.3937 33.9128 30.0168C34.1237 29.8179 34.4194 30.1579 34.2059 30.355C33.7903 30.7374 33.3558 31.1073 32.9132 31.4601C32.8553 31.5074 32.7938 31.5484 32.7377 31.5929C33.037 31.6551 33.3399 31.7117 33.6358 31.7793C33.8945 31.6432 34.1568 31.5135 34.401 31.3522C34.878 31.0416 35.3197 30.6843 35.7388 30.2964C35.8954 30.1511 36.1145 30.4013 35.9579 30.5467C35.528 30.9391 35.0694 31.3046 34.5962 31.645C34.4724 31.7342 34.3468 31.8261 34.2184 31.9163C34.6595 32.0217 35.0997 32.1343 35.5346 32.2551C35.7371 32.1519 35.9396 32.0486 36.1376 31.9346C36.7387 31.5817 37.2928 31.1704 37.8136 30.7097C38.0067 30.538 38.2664 30.8385 38.0787 31.0138C37.5572 31.4934 36.9951 31.9345 36.4051 32.3298C36.3436 32.3708 36.2767 32.4082 36.2125 32.4474C36.6142 32.5657 37.0161 32.6957 37.4134 32.8266C37.6543 32.706 37.8889 32.5773 38.119 32.4378C38.6023 32.147 39.0449 31.7941 39.4488 31.4001C39.6819 31.1731 40.0065 31.5516 39.7806 31.7795C39.3652 32.1971 38.9111 32.5734 38.4299 32.9085C38.3381 32.9722 38.2436 33.0341 38.1482 33.0916C38.3698 33.1722 38.5949 33.2475 38.8175 33.3326C38.8551 33.3459 38.8937 33.3637 38.9296 33.3797C39.2341 33.2623 39.5386 33.1449 39.8386 33.0167C40.5777 32.7007 41.2436 32.2662 41.8606 31.7526C42.0476 31.5963 42.2974 31.8824 42.1104 32.0387C41.4791 32.5623 40.7919 33.0295 40.0928 33.4498C39.9555 33.5301 39.8154 33.6085 39.6718 33.6807C40.0227 33.8237 40.3798 33.963 40.7299 34.1132C40.7406 34.1086 40.7513 34.1041 40.762 34.0995C41.2038 33.9018 41.6465 33.6969 42.0792 33.4776C42.7422 33.1423 43.3707 32.7531 43.9785 32.3307C43.3131 31.9949 42.646 31.6619 41.9744 31.3415C38.6902 29.7687 35.2815 28.4755 31.6795 27.8871C28.5282 27.3715 25.2723 27.3004 22.1063 27.7249C18.9198 28.1513 15.7929 29.0959 12.8881 30.4757C12.7774 30.527 12.6913 30.357 12.8037 30.3031C13.1607 30.1348 13.5186 29.9711 13.8811 29.8181C16.8474 28.5452 19.9967 27.7556 23.1998 27.3868C26.3983 27.019 29.6249 27.1291 32.792 27.7329C36.4592 28.4345 39.9072 29.8628 43.2491 31.501C43.62 31.6845 43.9935 31.8697 44.3626 32.0558C44.4436 31.9967 44.5274 31.9393 44.6058 31.8784C44.8864 31.6673 45.2489 32.0826 44.9656 32.2919C44.9478 32.3073 44.929 32.3183 44.9085 32.3319C45.3827 32.576 45.8568 32.8202 46.3302 33.0715C46.5182 32.9431 46.7036 32.8129 46.8871 32.6737C47.0403 32.5573 47.2431 32.7851 47.0854 32.9025C46.9358 33.0135 46.7807 33.1209 46.6283 33.2301C47.1178 33.4922 47.6028 33.7551 48.0888 34.0226C48.2893 33.8869 48.4862 33.745 48.6741 33.5931C48.8861 33.4222 49.1683 33.7415 48.9546 33.9151C48.8112 34.0342 48.6669 34.1488 48.5199 34.2616C49.243 34.6628 49.959 35.075 50.6715 35.4925C50.9748 35.3354 51.2763 35.1693 51.5696 34.9861C51.7952 34.8476 51.9685 35.2154 51.7501 35.3548C51.5397 35.4879 51.3221 35.62 51.1063 35.7495C51.5861 36.0324 52.0596 36.3189 52.5359 36.6072C52.8651 36.44 53.1853 36.2629 53.5028 36.0724C53.6936 35.9575 53.8496 36.2749 53.6578 36.3853C53.3992 36.5331 53.1414 36.6736 52.8791 36.8151C53.2449 37.0419 53.6124 37.2659 53.9746 37.4981C54.0312 37.5356 54.0896 37.5704 54.1462 37.608C54.3844 37.4856 54.6235 37.3559 54.8616 37.2218C55.0017 37.1433 55.1105 37.3672 54.9732 37.4475C54.7832 37.5552 54.5878 37.6593 54.3952 37.7651C54.8778 38.0732 55.3631 38.3831 55.8422 38.6966C56.3846 38.4216 56.9099 38.108 57.4279 37.7934C57.699 37.6266 57.9193 38.0762 57.6474 38.2385C57.1988 38.5057 56.7376 38.745 56.2727 38.978C56.679 39.2433 57.0817 39.514 57.4871 39.7865C58.2324 39.4552 58.9659 39.1005 59.6758 38.6873C60.0218 38.4885 60.2948 39.0468 59.9488 39.2457C59.361 39.5841 58.7715 39.9253 58.1748 40.2538C58.5218 40.4915 58.867 40.732 59.2096 40.9706C59.4114 40.898 59.6169 40.8318 59.8169 40.7502C60.5231 40.4669 61.2094 40.1432 61.8829 39.7916C62.106 39.6747 62.2747 40.02 62.0552 40.1432C61.3783 40.5237 60.6895 40.8808 60.0008 41.2379C59.9187 41.2808 59.8384 41.321 59.7563 41.364C60.0728 41.5892 60.3902 41.819 60.7032 42.0497C61.8704 41.6282 63.0302 41.1706 64.1611 40.6628C64.4923 40.5163 64.7416 41.0162 64.4123 41.1717C63.4217 41.648 62.4493 42.1558 61.4505 42.6033C61.8498 42.9029 62.2456 43.2079 62.6378 43.5184C62.9569 43.4379 63.2777 43.3546 63.5966 43.2624C64.3695 43.0427 65.147 42.8456 65.9043 42.5728C66.2839 42.4351 66.5783 42.9961 66.1908 43.1519C65.4186 43.4653 64.6491 43.7923 63.8531 44.0356C63.7128 44.0788 63.5734 44.1149 63.4349 44.1555C63.6274 44.3103 63.82 44.4651 64.0107 44.6226C64.0728 44.6755 64.0938 44.7439 64.0916 44.8125C65.8138 44.3928 67.4568 43.7688 69.0524 42.9928C69.2389 42.9023 69.3767 43.1882 69.1929 43.2805C67.5182 44.1247 65.7593 44.8315 63.9918 45.4508C63.1237 45.7631 62.241 46.015 61.3355 46.2129ZM41.5037 34.4663C41.8421 34.6166 42.1795 34.7624 42.5153 34.9226C42.6725 34.871 42.8261 34.8132 42.9797 34.7554C43.4306 34.5793 43.8834 34.4123 44.3252 34.2146C44.8822 33.9648 45.4111 33.6691 45.9246 33.3438C45.4612 33.0951 44.9969 32.8536 44.5281 32.6131C43.8339 33.1029 43.1153 33.5531 42.3859 33.9844C42.0942 34.1532 41.8008 34.3129 41.5037 34.4663ZM19.4407 44.8396C19.609 44.9901 19.7836 45.1369 19.9564 45.2864C19.8632 44.9912 19.779 44.694 19.7144 44.3905C19.1239 41.6016 19.7649 38.648 21.3712 36.3104C22.4807 34.6986 23.9558 33.4146 25.6217 32.4478C22.1748 32.3202 18.73 32.6806 15.4311 33.7292C13.8865 34.2199 12.3888 34.8934 10.9969 35.7304C10.3557 36.1151 9.57696 36.5333 9.0838 37.1056C9.03493 37.1628 8.89527 37.2999 8.89402 37.3847C8.89417 37.4081 8.89062 37.4135 8.88438 37.4172C8.888 37.4235 8.89069 37.4253 8.89431 37.4316C9.04614 37.6606 9.85662 37.7266 10.1141 37.8116C13.8713 39.0205 16.5639 42.2991 19.4407 44.8396ZM18.6135 47.7945C18.6785 47.6002 18.7507 47.4067 18.8337 47.2203C18.9069 47.0548 18.9838 46.8955 19.0651 46.7354C18.5278 46.2743 17.9986 45.8068 17.4728 45.334C17.4498 45.3693 17.4231 45.3983 17.4001 45.4336C17.245 45.6773 17.1159 45.9343 16.9994 46.1957C17.284 46.4699 17.5641 46.745 17.8424 47.0229C18.1018 47.2765 18.3577 47.5355 18.6135 47.7945ZM20.4881 49.6632C20.5071 49.5629 20.5217 49.4636 20.5435 49.3652C20.6172 48.9976 20.6991 48.6353 20.8051 48.2774C20.8139 48.2521 20.82 48.225 20.8306 48.197C20.4122 47.8614 19.9974 47.5204 19.5889 47.1758C19.5402 47.2681 19.4933 47.3577 19.4474 47.4518C19.3193 47.725 19.2074 48.009 19.1153 48.2982C19.5711 48.7598 20.0278 49.2142 20.4881 49.6632ZM23.6565 52.4553C23.6051 51.9775 23.5681 51.5015 23.5489 51.0218C23.5402 50.7747 23.5224 50.506 23.5216 50.2408C22.7798 49.7143 22.0549 49.1678 21.3434 48.6068C21.2628 48.896 21.1823 49.1852 21.1179 49.4733C21.0683 49.6973 21.0276 49.9195 20.9879 50.1461C21.8398 50.9597 22.721 51.7343 23.6565 52.4553ZM25.5876 53.7932C25.5523 53.5868 25.5187 53.3778 25.4924 53.1696C25.4274 52.6595 25.3847 52.1447 25.3671 51.6271C25.3641 51.5784 25.3647 51.5242 25.3617 51.4756C24.9725 51.2255 24.5869 50.97 24.2076 50.7109C24.2074 50.8236 24.2054 50.9391 24.2079 51.0536C24.2179 51.6363 24.2556 52.2178 24.3067 52.7966C24.3124 52.847 24.3181 52.8975 24.3211 52.9462C24.7365 53.2448 25.1572 53.5235 25.5876 53.7932ZM27.4024 54.8477C27.3147 54.5677 27.2332 54.2841 27.1616 54.0031C27.0487 53.5547 26.9742 53.1005 26.9238 52.639C26.9144 52.5588 26.9112 52.4749 26.9062 52.3938C26.616 52.2288 26.3241 52.0665 26.0365 51.8916C26.0481 52.3001 26.0722 52.7131 26.1142 53.1223C26.1514 53.4856 26.2047 53.8478 26.2642 54.2065C26.6362 54.4296 27.0153 54.6418 27.4024 54.8477ZM29.6308 55.9194C29.5917 55.8195 29.5454 55.7188 29.508 55.6162C29.3314 55.1411 29.1592 54.665 29.0201 54.1797C28.9514 53.9357 28.8872 53.6908 28.8337 53.4413C28.8318 53.4323 28.8273 53.4215 28.8255 53.4125C28.3971 53.1987 27.9706 52.9823 27.5485 52.7532C27.5732 53.1238 27.614 53.4933 27.662 53.8637C27.7157 54.2846 27.7962 54.6999 27.9008 55.1079C28.4683 55.3983 29.0456 55.6679 29.6308 55.9194ZM30.2806 56.1903C30.6467 56.3395 31.0155 56.4788 31.386 56.6153C31.6148 56.6968 31.8426 56.7738 32.0722 56.8481C31.9517 56.4646 31.8463 56.0756 31.765 55.6793C31.6976 55.3505 31.6382 55.027 31.6361 54.6987C31.5294 54.6552 31.4235 54.6162 31.3158 54.5682C30.7306 54.3167 30.1525 54.0543 29.577 53.782C29.5955 53.8721 29.6139 53.9621 29.6324 54.0522C29.7401 54.5206 29.8567 54.9871 30.0082 55.4416C30.0975 55.6954 30.1886 55.9465 30.2806 56.1903ZM32.4068 55.548C32.4794 55.9814 32.5663 56.4165 32.6746 56.8424C32.6921 56.9163 32.7167 56.991 32.7387 57.0639C33.5925 57.3299 34.4586 57.5652 35.3335 57.7634C35.2185 57.407 35.1106 57.0514 35.0152 56.6885C34.9574 56.4633 34.9031 56.2328 34.8632 56.0039L34.8263 55.8355C34.8263 55.8355 33.27 55.3142 32.3146 54.9731C32.3462 55.1614 32.3743 55.3551 32.4068 55.548ZM32.6761 58.4859C32.5089 58.091 32.3568 57.6906 32.2155 57.2856C31.6325 57.09 31.0538 56.8817 30.4804 56.6536C30.475 56.65 30.4679 56.6491 30.4625 56.6456C30.6578 57.1098 30.8747 57.5648 31.1218 58.0088C31.3416 58.0804 31.5596 58.1548 31.7784 58.222C32.0797 58.3165 32.3765 58.4003 32.6761 58.4859ZM35.8963 59.2806C35.7481 58.9217 35.6044 58.5618 35.4759 58.1964C34.5956 57.9946 33.7223 57.7585 32.8586 57.4898C32.9847 57.8886 33.1366 58.2773 33.3064 58.6622C34.1645 58.8921 35.0269 59.0977 35.8963 59.2806ZM39.1111 58.9469C39.0921 58.911 39.0793 58.8714 39.0648 58.8345C38.8041 58.8019 38.5425 58.7648 38.2809 58.7277C37.574 58.6213 36.8723 58.495 36.1759 58.3488C36.2963 58.7089 36.4275 59.0643 36.5649 59.4161C36.6715 59.4362 36.7791 59.4607 36.8857 59.4808C37.7756 59.6501 38.6672 59.7932 39.5648 59.9092C39.5863 59.9117 39.6051 59.9125 39.6221 59.916C39.4411 59.6015 39.2654 59.2788 39.1111 58.9469ZM42.5584 56.7239C42.6885 57.1876 42.8319 57.6485 42.9995 58.102C43.0769 58.309 43.1596 58.5078 43.2423 58.7066C43.2727 58.7073 43.3032 58.708 43.3336 58.7087C44.005 58.7216 44.6709 58.7074 45.3394 58.6832C45.1085 58.2734 44.8902 57.8563 44.6995 57.4263C44.5869 57.1727 44.4518 56.9002 44.3381 56.6186C43.7432 56.6721 43.1491 56.7066 42.5584 56.7239ZM38.969 56.572C39.0131 56.753 39.0555 56.9367 39.1085 57.1159C39.2403 57.5769 39.4052 58.0286 39.5888 58.4694C40.6018 58.5802 41.6209 58.6521 42.6416 58.6861C42.5889 58.5773 42.5336 58.4667 42.4828 58.3552C42.2512 57.8281 42.0553 57.2819 41.8934 56.7309C40.9151 56.7444 39.94 56.6821 38.969 56.572ZM36.5007 56.2054C36.1763 56.1461 35.8536 56.0724 35.5327 55.996C35.5777 56.1815 35.6165 56.3707 35.6588 56.5545C35.7664 56.9994 35.8882 57.446 36.0226 57.8853C36.0245 57.8943 36.029 57.9051 36.0335 57.9159C36.9728 58.1101 37.9208 58.2673 38.8731 58.3883C38.7322 58.042 38.6002 57.6937 38.4923 57.3381C38.411 57.078 38.3035 56.781 38.2327 56.4811C37.6504 56.4027 37.0751 56.3135 36.5007 56.2054ZM42.3111 36.5971C42.2407 36.5038 42.1998 36.4066 42.1822 36.3093C40.2985 35.5439 38.3735 34.8833 36.4283 34.3068C33.8232 33.5343 31.1127 32.9528 28.3781 32.6511C25.4055 33.7796 22.6597 35.9576 21.4892 38.9887C20.3849 41.8533 20.7335 45.3148 22.8427 47.623C22.8463 47.6293 22.8499 47.6356 22.8553 47.6392C26.7382 50.5972 31.0313 53.0447 35.7004 54.3596C36.732 54.0039 37.6844 53.4322 38.5527 52.7348C41.0739 50.7116 43.4305 47.8515 44.0983 44.6081C44.6599 41.847 43.9902 38.8422 42.3111 36.5971ZM46.1289 35.0788C46.6547 34.8473 47.1722 34.5869 47.6635 34.2896C47.1874 34.0248 46.7123 33.7645 46.2309 33.5078C45.6462 33.9066 45.0435 34.2857 44.4344 34.645C44.0501 34.873 43.6576 35.0839 43.256 35.2732C43.5846 35.4325 43.9132 35.5919 44.2383 35.7567C44.8761 35.5487 45.513 35.348 46.1289 35.0788ZM47.8295 36.6103C48.6443 36.3679 49.4238 36.0787 50.1816 35.7284C49.5059 35.3313 48.825 34.9424 48.1423 34.5563C47.5944 34.9639 47.0239 35.341 46.4136 35.6489C45.9996 35.8572 45.5613 36.0494 45.113 36.2039C45.5907 36.4543 46.0712 36.7064 46.5437 36.965C46.9753 36.854 47.4033 36.7367 47.8295 36.6103ZM49.8629 37.5724C50.5044 37.3824 51.1496 37.2105 51.7719 36.9612C51.8621 36.9236 51.9522 36.886 52.0397 36.8467C51.5841 36.5682 51.1241 36.2906 50.665 36.0175C49.816 36.5137 48.9336 36.9722 48.0283 37.3298C47.8622 37.3949 47.6979 37.4573 47.5282 37.5161C47.8102 37.6757 48.0905 37.8381 48.3708 38.0005C48.8704 37.8683 49.3689 37.7199 49.8629 37.5724ZM50.3009 39.0263C50.8002 38.8589 51.3021 38.6816 51.8124 38.5448C52.4504 38.372 53.0557 38.1309 53.6447 37.8556C53.2889 37.6315 52.9383 37.3992 52.5807 37.1778C52.525 37.1448 52.4665 37.11 52.4126 37.0743C52.2297 37.1711 52.0495 37.2697 51.8694 37.3682C51.2896 37.6886 50.7107 38.0134 50.1019 38.2717C49.8448 38.3816 49.584 38.4735 49.3161 38.5645C49.5182 38.6867 49.7249 38.8081 49.927 38.9304C50.0016 38.9759 50.0744 39.0241 50.149 39.0697C50.1999 39.0567 50.2527 39.041 50.3009 39.0263ZM53.1678 39.7232C53.8966 39.4704 54.6355 39.2555 55.3425 38.9416C54.8715 38.6334 54.3979 38.3352 53.9233 38.0324C53.282 38.382 52.6361 38.7326 52.0029 39.0992C51.6739 39.2899 51.3267 39.4491 50.974 39.5929C51.2697 39.785 51.5654 39.977 51.8594 40.1717C52.2943 40.0201 52.7302 39.873 53.1678 39.7232ZM53.8006 41.2751C54.4687 41.0444 55.1268 40.7876 55.7803 40.52C56.174 40.3605 56.5641 40.1947 56.956 40.0262C56.5659 39.7599 56.1712 39.4946 55.7775 39.2337C55.691 39.2776 55.6044 39.3214 55.5152 39.3635C54.8237 39.7071 54.1548 40.093 53.4478 40.3952C53.1844 40.5087 52.9139 40.6097 52.646 40.7124C52.9552 40.9251 53.2708 41.1341 53.5765 41.3523C53.6506 41.3274 53.7265 41.2999 53.8006 41.2751ZM55.5839 42.1647C56.2979 41.9644 57.0035 41.7352 57.7047 41.4953C58.0119 41.3914 58.3174 41.2902 58.6274 41.1881C58.3136 40.9646 58.0024 40.7429 57.6869 40.5222C57.1677 40.797 56.643 41.0565 56.1038 41.2909C55.5468 41.529 54.9789 41.7483 54.4082 41.954C54.5863 42.0836 54.7634 42.2088 54.9397 42.3411C55.1532 42.2802 55.3704 42.2256 55.5839 42.1647ZM57.7347 42.9825C58.4667 42.8137 59.1841 42.5962 59.8888 42.3508C59.9647 42.3233 60.0406 42.2957 60.1192 42.27C59.8305 42.0553 59.5383 41.8461 59.2478 41.6342C58.8231 41.8471 58.3965 42.051 57.9563 42.2225C57.2447 42.5022 56.5167 42.7477 55.7832 42.9662C55.9155 43.0655 56.0494 43.162 56.1799 43.264C56.6975 43.1633 57.2225 43.0986 57.7347 42.9825ZM58.9466 44.2565C59.7238 44.1487 60.4999 44.0129 61.2677 43.8483C61.5153 43.7944 61.762 43.736 62.0087 43.6776C61.6417 43.3994 61.2703 43.1222 60.9016 42.8467C60.6462 42.9539 60.3873 43.0548 60.1247 43.1494C59.3844 43.4139 58.6286 43.6488 57.8608 43.8251C57.6204 43.8799 57.371 43.9365 57.118 43.9868C57.2989 44.13 57.4832 44.2677 57.6631 44.4064C57.6837 44.4044 57.7087 44.4016 57.7293 44.3996C58.1363 44.3618 58.5415 44.315 58.9466 44.2565ZM61.1766 45.4382C62.0126 45.2876 62.8466 45.1163 63.6725 44.9279C63.4054 44.7276 63.141 44.529 62.8739 44.3287C62.4128 44.4552 61.9499 44.5728 61.4833 44.6723C60.669 44.8489 59.8482 44.994 59.0254 45.1066C58.885 45.1264 58.7455 45.1391 58.6024 45.1571C58.8345 45.346 59.0711 45.5339 59.3032 45.7227C59.4714 45.7018 59.6368 45.6791 59.8023 45.6563C60.2619 45.5911 60.7224 45.5187 61.1766 45.4382Z" fill="#1E2124"/>
</g>
<defs>
<clipPath id="clip0_2412_41447">
<rect width="67.3453" height="49.9875" fill="white" transform="matrix(0.833623 0.552334 -0.546433 0.837503 27.3149 0)"/>
</clipPath>
</defs>
</svg>
