<svg width="211" height="50" viewBox="0 0 211 50" fill="none" xmlns="http://www.w3.org/2000/svg">
<g clip-path="url(#clip0_2063_35968)">
<path d="M198.355 19.743C195.209 18.9367 194.521 18.5371 194.521 17.8992V17.78C194.521 17.142 195.091 16.7985 196.355 16.7985C198.986 16.7985 202.993 17.8992 206.306 19.743L210.424 11.9471C206.653 9.64062 201.556 8.30859 196.41 8.30859C188.285 8.30859 182.792 12.1785 182.792 19.112V19.2242C182.792 25.7511 187.653 27.8894 195.549 29.8523C198.695 30.6656 199.264 31.0652 199.264 31.7032V31.8223C199.264 32.5725 198.632 32.8599 197.375 32.8599C193.827 32.8599 189.598 31.7032 185.82 29.3336L181.417 36.7859C185.882 39.7935 191.368 41.3498 197.438 41.3498C205.903 41.3498 210.993 37.3608 210.993 30.4903V30.3711C211 23.9073 206.25 21.706 198.355 19.743Z" fill="#C3FF5C"/>
<path d="M179.729 0C177.083 0.834268 174.736 3.14778 173.688 5.95205L172.965 9.05777H165.569L160.59 25.687L155.153 9.05777H141.708L143.778 14.1826C141.125 10.5791 136.875 8.30763 130.882 8.30763C124.514 8.30763 119.389 11.6096 116.75 16.6713L119.042 9.05777H106.806L103.486 21.8732L99.6528 8.93859H89.2986L85.5208 21.7611L82.3194 9.05777H71.7361H69.9028H58.75V12.4019C56.4653 10.0393 53.7708 8.30062 49.1944 8.30062C43.8958 8.30062 39.2778 11.4554 37.2083 16.6363V14.4209H37.2222C37.2222 14.3789 37.2083 14.3368 37.2083 14.2947V7.04571H37.2222C37.2222 7.00365 37.2083 6.96158 37.2083 6.91952C37.2083 3.68059 39.3125 0.932417 42.2222 0.00701066H28.5208C26.1319 0.764162 24.2847 2.74818 23.6944 5.22995V8.95962H30.6736C27.2847 8.95962 24.4514 11.3292 23.6944 14.5191V22.8407C23.6944 28.0356 22.4167 30.5665 18.6042 30.5665C14.7917 30.5665 13.5069 27.8533 13.5069 22.5393V9.07179H0V23.2473C0 37.4299 5.82639 41.3979 18.4792 41.3979C29.3819 41.3979 35.3958 38.5376 36.8542 28.4072C38.7222 34.0858 43.6528 37.5911 49.9444 37.5911C54.2917 37.5911 57.2083 35.2776 58.9792 33.2586V34.184C58.9792 38.5726 56.4028 41.1175 51.5417 41.1175C47.25 41.1175 43.7639 39.9607 40.2708 38.1169L36.2639 46.032C41.2986 48.5698 46.6736 49.9579 53.5972 49.9579C60.5764 49.9579 64.8681 48.1702 67.6667 45.3379C70.5278 42.4565 71.7292 38.4675 71.7292 32.6346V15.2342L79.3333 40.8301H90.1458L94.4444 27.3065L98.618 40.8231H109.486L114.931 22.7145C114.847 23.4226 114.806 24.1447 114.806 24.8808V25C114.806 34.8149 121.729 41.3418 131.972 41.3418C138.722 41.3418 143.125 38.5095 146.215 34.4714L139.236 28.8629C137.181 31.0011 135.229 32.0948 132.882 32.0948C130.076 32.0948 127.903 30.6506 126.993 27.8814H147.069C147.125 27.1873 147.125 26.3811 147.125 25.687C147.125 24.2989 147.014 22.9529 146.799 21.6629L153.951 39.3718C153.264 39.7224 152.576 39.8345 151.833 39.8345C150.632 39.8345 148.458 39.0844 146.111 37.7594L142.333 46.712C145.826 48.682 149.882 50.007 154.403 50.007C161.611 50.007 164.931 46.6629 167.958 38.3974L178.771 9.07179H185.833L186.375 7.12283H186.389C186.396 7.08076 186.396 7.0387 186.41 6.98962C187.174 3.70864 189.84 0.932417 192.847 0H179.729V0ZM30.7986 7.05973C30.7569 7.05973 30.7153 7.04571 30.6736 7.04571H30.7986V7.05973ZM59.0347 23.03C59.0347 25.8062 57.0347 28.0006 53.8264 28.0006C50.6806 28.0006 48.6181 25.8623 48.6181 23.1492V23.03C48.6181 20.2608 50.6181 18.0104 53.8264 18.0104C56.9722 18.0104 59.0347 20.2047 59.0347 22.9178V23.03ZM126.826 22.1116C127.229 19.2232 128.771 17.3724 130.944 17.3724C133.229 17.3724 135.007 19.104 135.292 22.1116H126.826ZM180.208 7.13685C180.167 7.13685 180.132 7.12283 180.09 7.12283H180.215L180.208 7.13685Z" fill="#C3FF5C"/>
</g>
<defs>
<clipPath id="clip0_2063_35968">
<rect width="211" height="50" fill="white"/>
</clipPath>
</defs>
</svg>
