<svg width="30" height="30" viewBox="0 0 30 30" fill="none" xmlns="http://www.w3.org/2000/svg">
<path d="M25.5847 10.5788C24.9903 9.18756 24.1439 7.94042 23.0679 6.8644C20.8887 4.68981 18.0163 3.49219 14.9771 3.49219H14.9366C11.866 3.50119 8.98022 4.70779 6.81007 6.88239C4.63996 9.06152 3.44238 11.9521 3.44238 15.0271C3.44238 18.1066 4.64 21.0016 6.81909 23.1808C8.99817 25.36 11.8933 26.5575 14.9728 26.5575C15.378 26.5575 15.7067 26.2288 15.7067 25.8236C15.7067 25.4184 15.378 25.0897 14.9728 25.0897C12.2849 25.0897 9.759 24.0452 7.85929 22.1407C5.95934 20.2408 4.91028 17.7148 4.91028 15.0272C4.91028 12.3438 5.95481 9.82247 7.84575 7.92277C9.73669 6.02306 12.2581 4.97375 14.937 4.96478C17.5979 4.95577 20.1146 6.00029 22.0283 7.90478C23.9688 9.83626 25.0358 12.3982 25.0358 15.1084V19.2549C25.0358 20.3939 24.1084 21.3214 22.9693 21.3214C21.8302 21.3214 20.9027 20.3939 20.9027 19.2549V15.0273C20.9027 11.7542 18.2419 9.09317 14.9686 9.09317C11.6953 9.09317 9.04345 11.754 9.04345 15.0273C9.04345 18.3006 11.7043 20.9615 14.9776 20.9615C16.756 20.9615 18.3543 20.1736 19.4394 18.931V19.2551C19.4394 21.2046 21.0242 22.7894 22.9736 22.7894C24.9231 22.7894 26.5079 21.2046 26.5079 19.2551V15.1087C26.5124 13.5464 26.1973 12.0202 25.5849 10.5795L25.5847 10.5788ZM14.9772 19.4887C12.5144 19.4887 10.5154 17.4851 10.5154 15.0269C10.5154 12.5687 12.519 10.5652 14.9772 10.5652C17.4354 10.5652 19.4389 12.5687 19.4389 15.0269C19.4389 17.4851 17.4399 19.4887 14.9772 19.4887Z" fill="black"/>
</svg>
