<svg width="61" height="72" viewBox="0 0 61 72" fill="none" xmlns="http://www.w3.org/2000/svg">
<path d="M60 30.3026C60 34.2106 58.2076 38.6932 55.3821 43.2964C52.5701 47.8776 48.8052 52.4662 45.0161 56.5601C41.2306 60.6502 37.4418 64.2244 34.5977 66.7771C33.1763 68.0529 31.9924 69.0721 31.165 69.7716C30.9076 69.9891 30.6847 70.1757 30.5 70.3294C30.3153 70.1757 30.0924 69.9891 29.835 69.7716C29.0076 69.0721 27.8237 68.0529 26.4023 66.7771C23.5582 64.2244 19.7694 60.6502 15.9839 56.5601C12.1948 52.4662 8.4299 47.8776 5.61788 43.2964C2.79243 38.6932 1 34.2106 1 30.3026C1 14.1253 14.2015 1 30.5 1C46.7985 1 60 14.1253 60 30.3026Z" fill="#C3FF5C" stroke="#1D1D1D" stroke-width="2"/>
<path d="M36.9517 17.9062V17.916C36.9291 17.916 36.9021 17.9062 36.8795 17.9062C34.9407 17.9062 33.3175 19.3582 32.8847 21.3121V23.5972H36.8795C34.9407 23.5972 33.3175 25.0492 32.8847 27.003V32.1044C32.8847 35.291 32.1542 36.8404 29.9719 36.8404C27.7896 36.8404 27.0547 35.1789 27.0547 31.9193V23.6752H19.3174V32.3627C19.3174 41.0551 22.654 43.4864 29.8998 43.4864C37.1456 43.4864 40.6219 41.133 40.6219 32.1775V26.9543H40.6309C40.6309 26.9299 40.6219 26.9007 40.6219 26.8764V22.4327H40.6309C40.6309 22.4084 40.6219 22.3791 40.6219 22.3548C40.6219 19.8991 42.4616 17.9111 44.734 17.9111H40.6219H36.9517V17.9062Z" fill="#1D1D1D"/>
</svg>
