<svg width="73" height="60" viewBox="0 0 73 60" fill="none" xmlns="http://www.w3.org/2000/svg">
<path d="M27.9276 40.8563C35.5209 40.8563 41.6765 34.6572 41.6765 27.0102C41.6765 19.3632 35.5209 13.1641 27.9276 13.1641C20.3343 13.1641 14.1787 19.3632 14.1787 27.0102C14.1787 34.6572 20.3343 40.8563 27.9276 40.8563Z" fill="#EE0005"/>
<path d="M44.9989 40.8563C52.5922 40.8563 58.7478 34.6572 58.7478 27.0102C58.7478 19.3632 52.5922 13.1641 44.9989 13.1641C37.4056 13.1641 31.25 19.3632 31.25 27.0102C31.25 34.6572 37.4056 40.8563 44.9989 40.8563Z" fill="#F9A000"/>
<path d="M31.2607 27.0102C31.2607 31.4053 33.2918 35.3179 36.4687 37.8564C39.6455 35.3179 41.6766 31.4053 41.6766 27.0102C41.6766 22.6151 39.6455 18.7025 36.4687 16.1641C33.2918 18.7025 31.2607 22.6151 31.2607 27.0102Z" fill="#FF6300"/>
<path d="M17.178 43.8263L17.2717 44.2983C17.3759 44.1305 17.5217 43.9942 17.7092 43.8788C17.8967 43.7634 18.1154 43.7109 18.355 43.7109C18.8966 43.7109 19.2612 43.9207 19.4486 44.3298C19.7195 43.9207 20.1153 43.7109 20.636 43.7109C21.0631 43.7109 21.386 43.8263 21.6255 44.0571C21.8651 44.2879 21.9797 44.6235 21.9797 45.0746V47.5816H21.0527V45.2844C21.0527 45.0536 20.9902 44.8648 20.8756 44.7284C20.761 44.5921 20.5944 44.5291 20.3861 44.5291C20.1361 44.5291 19.9382 44.6235 19.8132 44.8018C19.6882 44.9802 19.6153 45.2109 19.6153 45.4837V47.5816H18.6883V45.2109C18.6883 44.7494 18.48 44.5291 18.0633 44.5291C17.8238 44.5291 17.6259 44.6235 17.4801 44.8018C17.3342 44.9907 17.2717 45.2529 17.2717 45.599V47.5711H16.3447V43.8263H17.178Z" fill="#1D1D1D"/>
<path d="M25.9171 43.8251H26.6982V47.5698H25.9171L25.8129 47.1293C25.5108 47.4964 25.1255 47.6852 24.6359 47.6852C24.1255 47.6852 23.6881 47.5069 23.3235 47.1398C22.959 46.7726 22.7715 46.2901 22.7715 45.6922C22.7715 45.0943 22.959 44.6118 23.3339 44.2447C23.7089 43.8775 24.136 43.6992 24.6359 43.6992C25.1463 43.6992 25.5421 43.8775 25.8129 44.2237L25.9171 43.8251ZM25.5317 44.8636C25.3234 44.6538 25.0734 44.5384 24.7713 44.5384C24.4693 44.5384 24.2089 44.6433 24.011 44.8636C23.8026 45.0733 23.7089 45.3566 23.7089 45.7027C23.7089 46.0489 23.8131 46.3321 24.011 46.5419C24.2193 46.7517 24.4693 46.867 24.7713 46.867C25.0734 46.867 25.3338 46.7622 25.5317 46.5419C25.74 46.3321 25.8337 46.0489 25.8337 45.7027C25.8337 45.3566 25.74 45.0733 25.5317 44.8636Z" fill="#1D1D1D"/>
<path d="M29.6251 46.7948C29.7397 46.7214 29.8022 46.6165 29.8022 46.4697C29.8022 46.3333 29.7397 46.2179 29.6147 46.1445C29.4897 46.0711 29.271 46.0186 28.9585 45.9872C28.5315 45.9347 28.1878 45.8088 27.9482 45.6095C27.7086 45.4102 27.5836 45.1375 27.5836 44.8123C27.5836 44.4767 27.7191 44.2039 28.0003 44.0046C28.2815 43.8053 28.6356 43.7109 29.0523 43.7109C29.5002 43.7109 29.8439 43.8158 30.1043 44.0256C30.3647 44.2354 30.5209 44.5186 30.573 44.8858L29.7397 45.0221C29.7085 44.8228 29.6356 44.676 29.5106 44.5711C29.3856 44.4662 29.2293 44.4137 29.0419 44.4137C28.8752 44.4137 28.7294 44.4452 28.6252 44.5186C28.5107 44.5921 28.4586 44.6865 28.4586 44.8018C28.4586 45.0746 28.7398 45.2424 29.2918 45.2948C30.2293 45.3893 30.6876 45.7669 30.6876 46.4067C30.6876 46.7739 30.5417 47.0781 30.2605 47.3193C29.9793 47.5606 29.6043 47.676 29.146 47.676C28.6565 47.676 28.2607 47.5501 27.9482 47.2983C27.6357 47.0466 27.4587 46.7109 27.417 46.3018L28.2711 46.1445C28.3232 46.3858 28.4169 46.5746 28.5419 46.7004C28.6773 46.8263 28.8752 46.8893 29.1356 46.8893C29.3439 46.9102 29.5002 46.8683 29.6251 46.7948Z" fill="#1D1D1D"/>
<path d="M31.677 42.8594H32.604V43.8244H33.3332V44.5482H32.604V46.3104C32.604 46.6566 32.7499 46.8349 33.0415 46.8349C33.1457 46.8349 33.2394 46.8139 33.3436 46.7825V47.5797C33.229 47.6216 33.0519 47.6426 32.8436 47.6426C32.4895 47.6426 32.2082 47.5482 31.9895 47.3489C31.7708 47.1496 31.6666 46.8454 31.6666 46.4363V44.5587H31.0938V43.8349H31.6666V42.8594H31.677Z" fill="#1D1D1D"/>
<path d="M37.6552 45.9545H34.7701C34.8013 46.2377 34.9159 46.4685 35.1034 46.6363C35.2909 46.8041 35.52 46.888 35.8117 46.888C36.2699 46.888 36.5824 46.6887 36.7595 46.2901L37.624 46.5629C37.4677 46.9195 37.2386 47.2027 36.9157 47.3915C36.6033 47.5908 36.2283 47.6852 35.8117 47.6852C35.218 47.6852 34.7388 47.4964 34.3847 47.1293C34.0306 46.7622 33.8535 46.2796 33.8535 45.6922C33.8535 45.1153 34.041 44.6433 34.4264 44.2657C34.8118 43.888 35.27 43.6992 35.8221 43.6992C36.3533 43.6992 36.8011 43.867 37.1449 44.2027C37.499 44.5384 37.6656 45.0104 37.6656 45.6188V45.9545H37.6552ZM35.8117 44.465C35.5513 44.465 35.3325 44.5384 35.1659 44.6852C34.9888 44.8321 34.8742 45.0314 34.8118 45.2726H36.7699C36.6866 44.7377 36.3741 44.465 35.8117 44.465Z" fill="#1D1D1D"/>
<path d="M40.676 43.7739L40.5093 44.5816C40.4156 44.5501 40.3218 44.5291 40.2073 44.5291C39.9781 44.5291 39.7906 44.6235 39.6344 44.8228C39.4781 45.0221 39.3948 45.2634 39.3948 45.5571V47.5816H38.4678V43.8368H39.3011L39.3948 44.3298C39.4781 44.1515 39.5927 44.0046 39.7594 43.8893C39.926 43.7739 40.1239 43.7214 40.3531 43.7214C40.4781 43.7109 40.5822 43.7319 40.676 43.7739Z" fill="#1D1D1D"/>
<path d="M43.8113 46.176L44.6966 46.4802C44.4154 47.2879 43.8217 47.6969 42.926 47.6969C42.3739 47.6969 41.9052 47.5186 41.5302 47.1515C41.1553 46.7844 40.9678 46.3018 40.9678 45.7039C40.9678 45.106 41.1553 44.6235 41.5302 44.2564C41.9052 43.8893 42.3739 43.7109 42.926 43.7109C43.3947 43.7109 43.78 43.8263 44.0821 44.0466C44.3842 44.2774 44.5821 44.6025 44.6654 45.0221L43.8113 45.19C43.7592 45.0011 43.6551 44.8438 43.4988 44.7179C43.3426 44.5921 43.1447 44.5396 42.926 44.5396C42.6135 44.5396 42.3635 44.6445 42.1864 44.8648C41.9989 45.0851 41.9052 45.3578 41.9052 45.7039C41.9052 46.0396 41.9989 46.3228 42.1864 46.5431C42.3739 46.7634 42.6239 46.8683 42.926 46.8683C43.3738 46.8578 43.6655 46.6375 43.8113 46.176Z" fill="#1D1D1D"/>
<path d="M48.4356 43.8251H49.2168V47.5698H48.4356L48.3315 47.1293C48.0294 47.4964 47.644 47.6852 47.1545 47.6852C46.6441 47.6852 46.2066 47.5069 45.8421 47.1398C45.4775 46.7726 45.29 46.2901 45.29 45.6922C45.29 45.0943 45.4775 44.6118 45.8525 44.2447C46.2275 43.8775 46.6545 43.6992 47.1545 43.6992C47.6648 43.6992 48.0606 43.8775 48.3315 44.2237L48.4356 43.8251ZM48.0502 44.8636C47.8419 44.6538 47.5919 44.5384 47.2899 44.5384C46.9878 44.5384 46.7274 44.6433 46.5295 44.8636C46.3212 45.0733 46.2275 45.3566 46.2275 45.7027C46.2275 46.0489 46.3316 46.3321 46.5295 46.5419C46.7378 46.7517 46.9878 46.867 47.2899 46.867C47.5919 46.867 47.8523 46.7622 48.0502 46.5419C48.2585 46.3321 48.3523 46.0489 48.3523 45.7027C48.3523 45.3566 48.2585 45.0733 48.0502 44.8636Z" fill="#1D1D1D"/>
<path d="M52.4045 43.7739L52.2378 44.5816C52.1441 44.5501 52.0503 44.5291 51.9357 44.5291C51.7066 44.5291 51.5191 44.6235 51.3629 44.8228C51.2066 45.0221 51.1233 45.2634 51.1233 45.5571V47.5816H50.1963V43.8368H51.0296L51.1233 44.3298C51.2066 44.1515 51.3212 44.0046 51.4879 43.8893C51.6545 43.7739 51.8524 43.7214 52.0816 43.7214C52.2065 43.7109 52.3107 43.7319 52.4045 43.7739Z" fill="#1D1D1D"/>
<path d="M56.5912 42.4727V47.581H55.81L55.7058 47.1405C55.4038 47.5076 55.0184 47.6964 54.5497 47.6964C54.0393 47.6964 53.6018 47.5181 53.2477 47.151C52.8935 46.7838 52.7061 46.3013 52.7061 45.7034C52.7061 45.1055 52.8831 44.623 53.2477 44.2559C53.6122 43.8887 54.0393 43.7104 54.5184 43.7104C55.0184 43.7104 55.3933 43.8783 55.6433 44.2034V42.4727H56.5912ZM55.435 44.8643C55.2371 44.6545 54.9871 44.5391 54.6851 44.5391C54.383 44.5391 54.133 44.644 53.9351 44.8643C53.7372 45.0741 53.6435 45.3573 53.6435 45.7034C53.6435 46.0496 53.7372 46.3328 53.9351 46.5426C54.133 46.7524 54.383 46.8678 54.6851 46.8678C54.9871 46.8678 55.2371 46.7629 55.435 46.5426C55.6329 46.3328 55.7266 46.0496 55.7266 45.7034C55.7371 45.3573 55.6329 45.0741 55.435 44.8643Z" fill="#1D1D1D"/>
<path d="M57.1748 35.2461H57.7685V35.3615H57.5394V36.0328H57.4144V35.3615H57.1852V35.2461H57.1748Z" fill="#F9A000"/>
<path d="M58.2998 35.6237L58.6018 35.2461H58.706V36.0328H58.581V35.4559L58.2998 35.8125L58.0185 35.4559V36.0223H57.8936V35.2461H57.9977L58.2998 35.6237Z" fill="#F9A000"/>
</svg>
