<svg width="73" height="60" viewBox="0 0 73 60" fill="none" xmlns="http://www.w3.org/2000/svg">
<path d="M26.3342 19.4805C26.3342 26.2882 26.3342 33.033 26.3342 39.8092C24.3135 39.8092 22.2928 39.8092 20.2097 39.8092C20.2097 39.5994 20.2097 39.4001 20.2097 39.1903C20.2097 35.5504 20.2097 31.9211 20.2097 28.2812C20.2097 27.9665 20.2201 27.6413 19.8347 27.5889C19.4389 27.5364 19.3764 27.8721 19.2827 28.1553C18.1682 31.8476 17.0433 35.5295 15.9392 39.2323C15.8038 39.6938 15.6267 39.8826 15.1163 39.8616C14.0227 39.8197 12.929 39.8302 11.8354 39.8616C11.4291 39.8721 11.2625 39.7358 11.1479 39.3477C10.0438 35.6553 8.91892 31.963 7.80443 28.2707C7.76277 28.1343 7.75235 27.977 7.66902 27.8826C7.55445 27.7567 7.35655 27.5784 7.23156 27.6099C7.07532 27.6518 6.93992 27.8511 6.85659 28.019C6.79409 28.1448 6.83576 28.3231 6.83576 28.4805C6.83576 32.026 6.83576 35.5819 6.83576 39.1274C6.83576 39.3372 6.83576 39.547 6.83576 39.7987C4.76301 39.7987 2.73193 39.7987 0.65918 39.7987C0.65918 33.0539 0.65918 26.3092 0.65918 19.5119C0.825833 19.5014 1.01332 19.4805 1.19039 19.4805C3.20064 19.4805 5.22131 19.4805 7.23156 19.4805C8.78352 19.4805 9.83551 20.2567 10.2834 21.7462C11.2208 24.8511 12.1582 27.956 13.1061 31.0609C13.179 31.3127 13.2936 31.5644 13.3873 31.8057C13.4498 31.8057 13.5123 31.8162 13.5748 31.8162C13.6789 31.5749 13.8144 31.3441 13.8873 31.1029C14.8143 28.0609 15.7309 25.0294 16.6475 21.9875C17.1891 20.1938 18.1369 19.4805 19.9909 19.4805C21.897 19.4805 23.8135 19.4805 25.7196 19.4805C25.9384 19.4805 26.1259 19.4805 26.3342 19.4805Z" fill="#21A94F"/>
<path d="M29.3027 39.8605C29.3027 33.0318 29.3027 26.2871 29.3027 19.5109C31.3338 19.5109 33.3337 19.5109 35.4273 19.5109C35.4273 19.7102 35.4273 19.9095 35.4273 20.1088C35.4273 23.7067 35.4273 27.3046 35.4273 30.913C35.4273 31.0703 35.3856 31.2486 35.4481 31.3745C35.521 31.5318 35.6668 31.7102 35.8231 31.7416C35.9376 31.7731 36.1668 31.6367 36.2397 31.5213C36.4376 31.1752 36.5938 30.7976 36.7605 30.4409C38.1979 27.336 39.6353 24.2416 41.0518 21.1262C41.5726 19.9934 42.4163 19.4584 43.6349 19.4689C45.3327 19.4794 47.0409 19.4689 48.7387 19.4689C48.9262 19.4689 49.1137 19.4689 49.3324 19.4689C49.3324 26.2661 49.3324 33.0213 49.3324 39.8081C47.3117 39.8081 45.3015 39.8081 43.2287 39.8081C43.2287 39.5563 43.2287 39.357 43.2287 39.1472C43.2287 35.5493 43.2287 31.9514 43.2287 28.343C43.2287 28.2067 43.2704 28.0493 43.2183 27.9234C43.1454 27.7346 43.0621 27.4304 42.9058 27.3885C42.7496 27.3465 42.4892 27.5878 42.4163 27.7451C41.9163 28.7626 41.4476 29.7906 40.9685 30.829C39.8227 33.3151 38.6666 35.8011 37.5312 38.2871C37.0521 39.336 36.2709 39.8605 35.1148 39.85C33.3753 39.8395 31.6463 39.85 29.9069 39.85C29.7194 39.8605 29.5319 39.8605 29.3027 39.8605Z" fill="#21A94F"/>
<path d="M51.7178 19.4909C51.9469 19.4909 52.1344 19.4909 52.3219 19.4909C56.6445 19.4909 60.967 19.4804 65.2896 19.5014C67.8102 19.5119 69.8726 20.4769 71.2683 22.6587C71.9141 23.6553 72.3515 24.7462 72.2786 25.9839C72.2578 26.3511 72.2578 26.7182 72.2994 27.0853C72.3515 27.5154 72.1849 27.6518 71.7891 27.6518C70.5704 27.6413 69.3622 27.6623 68.1435 27.6518C65.675 27.6413 63.2064 27.7567 60.7483 27.5888C56.9986 27.3266 54.0822 25.5958 52.3636 22.1028C51.9886 21.3056 51.749 20.4559 51.7178 19.4909Z" fill="url(#paint0_linear_1764_33179)"/>
<path d="M58.6444 33.3257C58.6444 35.5599 58.6444 37.7417 58.6444 39.955C56.582 39.955 54.5718 39.955 52.5303 39.955C52.5303 36.2313 52.5303 32.5285 52.5303 28.8047C59.0193 28.8047 65.4771 28.8047 72.0078 28.8047C71.9558 28.962 71.9245 29.1089 71.862 29.2348C70.5913 31.8362 68.5185 33.2313 65.6334 33.2837C63.4877 33.3257 61.3316 33.2942 59.186 33.2942C59.0193 33.2942 58.8735 33.3152 58.6444 33.3257Z" fill="#21A94F"/>
<defs>
<linearGradient id="paint0_linear_1764_33179" x1="51.7207" y1="23.5861" x2="72.3126" y2="23.5861" gradientUnits="userSpaceOnUse">
<stop stop-color="#00D9FF"/>
<stop offset="1" stop-color="#0097FF"/>
</linearGradient>
</defs>
</svg>
