<svg width="179" height="180" viewBox="0 0 179 180" fill="none" xmlns="http://www.w3.org/2000/svg">
<g clip-path="url(#clip0_2067_36682)">
<path d="M138.031 41.6337C138.497 41.3283 138.957 41.0348 139.412 40.7391C139.868 40.4434 140.361 40.1271 140.896 39.7761L143.731 37.9436C144.255 37.6023 144.744 37.2838 145.2 36.9881C145.655 36.6923 146.132 36.3875 146.634 36.0656L147.463 37.0582C147.097 37.7505 146.747 38.4148 146.408 39.0592C146.069 39.7036 145.728 40.3416 145.394 40.978L143.393 44.7513L143.457 44.8249L147.499 43.5119C148.188 43.2871 148.873 43.06 149.558 42.8431C150.239 42.624 150.956 42.3884 151.702 42.1379L152.532 43.1306C152.132 43.5593 151.748 43.9703 151.379 44.3636C151.01 44.757 150.608 45.1897 150.177 45.6537L147.845 48.1472C147.419 48.6032 147.028 49.0262 146.661 49.4156C146.298 49.8072 145.921 50.2062 145.534 50.6213L144.747 49.6743C145.367 49.0107 145.957 48.3785 146.52 47.7777C147.08 47.1808 147.602 46.621 148.086 46.1022L150.177 43.863L150.117 43.7917L146.786 44.9079C145.976 45.1754 145.169 45.4492 144.358 45.7207C143.546 45.9922 142.791 46.2483 142.091 46.4828L141.532 45.8104C141.756 45.4027 141.995 44.9505 142.263 44.4567C142.525 43.9645 142.796 43.4565 143.071 42.9404C143.347 42.4243 143.609 41.922 143.869 41.4338L145.542 38.2953L145.482 38.2239L142.925 39.8866C142.326 40.2752 141.689 40.6946 141.002 41.1442C140.316 41.5938 139.595 42.0661 138.834 42.563L138.031 41.6337Z" fill="black"/>
<path d="M147.078 53.2121C147.569 52.937 148.049 52.6715 148.502 52.4168C148.955 52.1622 149.459 51.8836 150.009 51.5788L152.985 49.9233C153.547 49.6088 154.059 49.3245 154.518 49.0681C154.98 48.8078 155.46 48.5423 155.951 48.2671L156.558 49.3709C156.061 49.6478 155.578 49.9172 155.119 50.1736C154.657 50.4339 154.147 50.7142 153.592 51.027L149.617 53.2443L149.669 53.3379L153.459 53.7497C154.393 53.852 155.348 53.9554 156.318 54.0616C157.289 54.1639 158.293 54.2742 159.326 54.3902L159.861 55.3621C159.37 55.6373 158.889 55.9027 158.428 56.1631C157.962 56.4212 157.454 56.7077 156.895 57.0182L153.917 58.6778C153.366 58.9825 152.867 59.2634 152.41 59.5158C151.953 59.7682 151.476 60.0359 150.985 60.3111L150.378 59.2073C150.869 58.9322 151.35 58.6667 151.809 58.4103C152.268 58.154 152.772 57.8754 153.318 57.5683L157.332 55.3305L157.28 55.2369L153.496 54.8234C152.347 54.6987 151.299 54.5838 150.343 54.4804C149.388 54.3771 148.478 54.2783 147.609 54.1818L147.078 53.2121Z" fill="black"/>
<path d="M153.764 67.8668C153.495 67.1118 153.379 66.3861 153.408 65.6913C153.438 64.9965 153.6 64.3566 153.894 63.7715C154.188 63.1864 154.595 62.6716 155.113 62.231C155.633 61.7864 156.249 61.4401 156.957 61.1833C157.923 60.836 158.848 60.7255 159.73 60.8557C160.611 60.9858 161.392 61.3287 162.063 61.8797C162.734 62.4307 163.237 63.1823 163.571 64.1182C163.683 64.4377 163.771 64.7538 163.834 65.0665C163.895 65.3831 163.936 65.6883 163.958 65.9822C163.977 66.28 163.983 66.5543 163.975 66.8156C163.967 67.0769 163.945 67.3085 163.911 67.5064L162.707 67.8175C162.785 67.3955 162.834 66.9985 162.845 66.622C162.855 66.2455 162.831 65.8918 162.782 65.5551C162.732 65.2185 162.647 64.8984 162.541 64.604C162.297 63.9164 161.92 63.3593 161.418 62.9374C160.915 62.5155 160.321 62.2532 159.633 62.1545C158.944 62.0559 158.201 62.154 157.401 62.4427C156.867 62.6351 156.396 62.8949 155.986 63.222C155.575 63.5491 155.242 63.9362 154.997 64.3799C154.753 64.8235 154.612 65.3163 154.575 65.8582C154.538 66.4001 154.629 66.9781 154.852 67.6006C154.933 67.8277 155.03 68.0537 155.138 68.27C155.25 68.4885 155.373 68.6974 155.517 68.8972C155.661 69.097 155.82 69.2893 156.002 69.4686C156.185 69.6478 156.384 69.8157 156.601 69.9722L155.483 70.4819C155.297 70.3374 155.118 70.1707 154.949 69.9778C154.78 69.7849 154.622 69.572 154.477 69.3454C154.333 69.1188 154.202 68.8785 154.081 68.6286C153.958 68.3826 153.857 68.1275 153.764 67.8668Z" fill="black"/>
<path d="M156.368 78.1202C156.218 77.3328 156.213 76.5969 156.351 75.9165C156.489 75.236 156.743 74.6281 157.125 74.0933C157.506 73.5585 157.983 73.1156 158.57 72.7572C159.15 72.4005 159.812 72.1494 160.554 72.0079C161.56 71.8113 162.491 71.8474 163.344 72.1099C164.197 72.3723 164.915 72.8332 165.492 73.484C166.068 74.1348 166.448 74.9537 166.636 75.9327C166.698 76.2659 166.738 76.5917 166.749 76.9117C166.761 77.2318 166.756 77.5427 166.73 77.8359C166.704 78.1291 166.667 78.4051 166.618 78.6641C166.572 78.9191 166.511 79.1443 166.448 79.3365L165.215 79.4605C165.358 79.0545 165.464 78.6689 165.533 78.2999C165.603 77.9309 165.632 77.576 165.632 77.236C165.633 76.8961 165.599 76.5686 165.542 76.2542C165.407 75.5336 165.121 74.9281 164.693 74.4321C164.261 73.9338 163.715 73.5876 163.051 73.3812C162.386 73.1788 161.641 73.1594 160.803 73.3202C160.251 73.427 159.742 73.6126 159.287 73.8713C158.829 74.1339 158.446 74.4605 158.134 74.8653C157.824 75.2661 157.609 75.732 157.491 76.259C157.371 76.79 157.372 77.3753 157.495 78.0252C157.538 78.2625 157.598 78.4988 157.677 78.7299C157.755 78.9609 157.846 79.1886 157.952 79.4089C158.062 79.6315 158.193 79.8449 158.345 80.0493C158.497 80.2536 158.667 80.4528 158.859 80.6429L157.677 80.9718C157.517 80.7999 157.364 80.6059 157.225 80.3879C157.086 80.1698 156.967 79.9364 156.861 79.6893C156.754 79.4422 156.659 79.1855 156.581 78.9173C156.481 78.6582 156.419 78.3889 156.368 78.1202Z" fill="black"/>
<path d="M157.393 84.0164C157.957 84.0008 158.5 83.9841 159.021 83.9702C159.541 83.9564 160.118 83.9374 160.741 83.9191L164.139 83.8183C164.779 83.7988 165.363 83.7844 165.89 83.7689C166.417 83.7533 166.964 83.7389 167.53 83.7193L167.561 84.9801C166.991 84.9973 166.443 85.0118 165.917 85.0273C165.39 85.0429 164.809 85.0596 164.169 85.0791L159.628 85.212L159.629 85.3193L162.799 87.4352C163.58 87.9595 164.378 88.4929 165.188 89.0331C165.997 89.5734 166.836 90.1359 167.699 90.7122L167.726 91.8223C167.163 91.8379 166.619 91.8546 166.086 91.8719C165.559 91.8874 164.973 91.9058 164.335 91.9213L160.937 92.022C160.314 92.0404 159.74 92.0554 159.217 92.0732C158.696 92.0871 158.153 92.1038 157.589 92.1194L157.559 90.8586C158.123 90.8431 158.666 90.8264 159.189 90.8085C159.712 90.7906 160.286 90.7757 160.913 90.7596L165.498 90.625L165.496 90.5177L162.333 88.4001C161.376 87.7587 160.497 87.1734 159.702 86.636C158.904 86.1025 158.146 85.592 157.415 85.1077L157.393 84.0164Z" fill="black"/>
<path d="M157.474 94.7182C157.704 94.962 157.965 95.2343 158.263 95.5437C158.56 95.8531 158.86 96.1688 159.171 96.4913C159.48 96.8178 159.768 97.1164 160.034 97.3973L161.808 99.2469L161.205 99.5054C161.293 98.8654 161.444 98.3362 161.669 97.9182C161.887 97.5019 162.153 97.177 162.463 96.9513C162.772 96.7256 163.118 96.5741 163.496 96.5048C163.874 96.4355 164.265 96.4267 164.677 96.4829C165.339 96.5718 165.853 96.7718 166.216 97.0767C166.58 97.3816 166.817 97.8051 166.928 98.3471C167.038 98.8828 167.041 99.5383 166.937 100.307C166.874 100.776 166.814 101.219 166.754 101.647C166.693 102.074 166.64 102.468 166.592 102.828C166.541 103.192 166.497 103.507 166.46 103.783C165.902 103.706 165.36 103.639 164.836 103.566C164.313 103.493 163.732 103.419 163.104 103.334L159.738 102.884C159.118 102.804 158.55 102.727 158.034 102.658C157.518 102.59 156.978 102.518 156.42 102.441L156.593 101.176C157.151 101.253 157.687 101.322 158.207 101.393C158.723 101.461 159.291 101.538 159.911 101.619L163.096 102.044C163.73 102.127 164.308 102.205 164.828 102.275C165.347 102.346 165.891 102.42 166.452 102.493L165.482 103.077L165.875 100.216C165.908 99.975 165.925 99.7246 165.926 99.465C165.927 99.2055 165.885 98.9579 165.806 98.7268C165.728 98.4957 165.567 98.297 165.348 98.128C165.125 97.963 164.803 97.8521 164.386 97.7976C163.634 97.6995 163.073 97.8388 162.698 98.2236C162.323 98.6084 162.078 99.2374 161.961 100.121L161.69 102.09L160.634 101.95L160.956 99.5902L161.468 100.501L159.389 98.3808C159.055 98.0343 158.715 97.6792 158.363 97.3173C158.015 96.9577 157.652 96.5786 157.272 96.1904L157.474 94.7182Z" fill="black"/>
<path d="M151.145 130.354C149.511 129.483 148.426 128.163 147.886 126.391C147.349 124.615 147.516 122.91 148.391 121.268C149.263 119.624 150.588 118.532 152.36 117.979C154.135 117.428 155.834 117.588 157.468 118.459C159.108 119.329 160.195 120.655 160.733 122.431C161.27 124.206 161.099 125.919 160.226 127.558C159.354 129.202 158.029 130.294 156.26 130.843C154.489 131.386 152.785 131.224 151.145 130.354ZM151.602 129.496C153.003 130.239 154.455 130.378 155.971 129.912C157.486 129.445 158.617 128.507 159.361 127.103C160.108 125.695 160.254 124.238 159.795 122.72C159.336 121.202 158.406 120.072 157.009 119.332C155.615 118.593 154.163 118.454 152.648 118.92C151.132 119.387 150.001 120.325 149.257 121.729C148.51 123.138 148.365 124.594 148.824 126.112C149.282 127.63 150.208 128.758 151.602 129.496ZM153.86 120.654L153.886 121.407C152.735 121.425 151.906 121.91 151.397 122.86C150.892 123.812 150.955 124.768 151.587 125.726L150.94 126.135C150.518 125.509 150.272 124.89 150.207 124.268C150.142 123.646 150.267 123.033 150.587 122.431C150.911 121.82 151.349 121.371 151.901 121.083C152.452 120.795 153.108 120.657 153.86 120.654ZM156.342 123.532C156.139 123.426 155.999 123.256 155.929 123.029C155.858 122.803 155.877 122.585 155.993 122.375C156.1 122.171 156.27 122.03 156.501 121.961C156.727 121.889 156.943 121.908 157.148 122.02C157.359 122.131 157.499 122.302 157.563 122.53C157.63 122.754 157.61 122.972 157.497 123.177C157.386 123.39 157.215 123.53 156.991 123.598C156.774 123.664 156.553 123.643 156.342 123.532ZM153.92 128.094C153.716 127.988 153.577 127.817 153.506 127.59C153.436 127.364 153.455 127.146 153.57 126.937C153.677 126.733 153.848 126.592 154.078 126.522C154.308 126.453 154.521 126.469 154.726 126.582C154.937 126.692 155.076 126.863 155.141 127.091C155.207 127.316 155.188 127.533 155.075 127.739C154.964 127.951 154.793 128.092 154.569 128.159C154.345 128.227 154.131 128.205 153.92 128.094Z" fill="black"/>
<path d="M137.239 138.752C137.535 139.22 137.83 139.682 138.117 140.139C138.403 140.596 138.72 141.092 139.062 141.628L140.86 144.475C141.196 145.003 141.509 145.496 141.798 145.949C142.087 146.403 142.386 146.883 142.705 147.385L141.706 148.213C141.02 147.845 140.361 147.492 139.722 147.151C139.084 146.81 138.451 146.467 137.82 146.131L134.078 144.121L134 144.182L135.267 148.237C135.486 148.931 135.703 149.619 135.912 150.303C136.122 150.986 136.353 151.704 136.594 152.453L135.595 153.281C135.171 152.878 134.767 152.497 134.375 152.122C133.986 151.75 133.563 151.347 133.102 150.917L130.639 148.575C130.188 148.146 129.77 147.751 129.384 147.385C128.997 147.019 128.601 146.642 128.195 146.255L129.144 145.468C129.799 146.094 130.424 146.688 131.017 147.247C131.607 147.81 132.157 148.333 132.67 148.82L134.881 150.92L134.952 150.861L133.872 147.519C133.609 146.709 133.348 145.895 133.085 145.084C132.824 144.27 132.578 143.512 132.347 142.811L133.024 142.25C133.43 142.473 133.875 142.718 134.366 142.985C134.853 143.249 135.357 143.523 135.87 143.797C136.383 144.071 136.879 144.341 137.364 144.599L140.475 146.283L140.547 146.223L138.911 143.656C138.526 143.057 138.115 142.412 137.676 141.723C137.237 141.035 136.771 140.31 136.285 139.547L137.239 138.752Z" fill="black"/>
<path d="M125.608 147.803C125.878 148.298 126.136 148.776 126.386 149.234C126.636 149.691 126.911 150.195 127.207 150.747L128.83 153.732C129.135 154.295 129.416 154.808 129.667 155.271C129.919 155.734 130.181 156.215 130.451 156.71L129.347 157.318C129.075 156.816 128.812 156.335 128.561 155.872C128.309 155.409 128.028 154.896 127.725 154.339L125.555 150.349L125.461 150.401L125.013 154.202C124.901 155.142 124.79 156.098 124.674 157.072C124.557 158.046 124.439 159.052 124.319 160.087L123.346 160.622C123.076 160.126 122.813 159.646 122.562 159.182C122.31 158.719 122.029 158.207 121.724 157.643L120.101 154.659C119.803 154.11 119.528 153.606 119.28 153.145C119.031 152.688 118.772 152.21 118.502 151.714L119.607 151.107C119.877 151.602 120.136 152.081 120.387 152.544C120.637 153.001 120.91 153.509 121.212 154.06L123.402 158.088L123.496 158.036L123.949 154.243C124.084 153.089 124.208 152.039 124.323 151.085C124.438 150.131 124.547 149.216 124.649 148.34L125.608 147.803Z" fill="black"/>
<path d="M110.917 154.487C111.672 154.22 112.396 154.1 113.091 154.134C113.781 154.164 114.42 154.33 115.002 154.623C115.585 154.915 116.092 155.329 116.526 155.85C116.961 156.371 117.304 156.988 117.555 157.701C117.89 158.67 117.993 159.595 117.853 160.481C117.713 161.368 117.364 162.149 116.804 162.82C116.243 163.491 115.494 163.995 114.554 164.325C114.234 164.439 113.921 164.525 113.605 164.587C113.289 164.65 112.987 164.688 112.69 164.708C112.395 164.725 112.115 164.734 111.857 164.723C111.599 164.713 111.368 164.692 111.171 164.658L110.872 163.45C111.294 163.533 111.69 163.58 112.065 163.589C112.441 163.598 112.795 163.579 113.127 163.526C113.459 163.472 113.78 163.392 114.078 163.287C114.769 163.041 115.328 162.667 115.755 162.164C116.181 161.66 116.449 161.065 116.551 160.375C116.656 159.686 116.568 158.939 116.287 158.141C116.102 157.609 115.847 157.133 115.525 156.719C115.203 156.305 114.822 155.975 114.379 155.725C113.936 155.475 113.452 155.335 112.911 155.3C112.373 155.261 111.793 155.352 111.169 155.573C110.943 155.654 110.719 155.749 110.499 155.856C110.279 155.963 110.072 156.094 109.87 156.233C109.669 156.372 109.478 156.538 109.294 156.719C109.111 156.901 108.943 157.101 108.786 157.319L108.291 156.195C108.436 156.007 108.607 155.83 108.8 155.659C108.993 155.489 109.204 155.334 109.434 155.19C109.665 155.047 109.905 154.914 110.152 154.796C110.401 154.684 110.656 154.581 110.917 154.487Z" fill="black"/>
<path d="M100.667 157.082C101.454 156.935 102.188 156.927 102.868 157.068C103.546 157.203 104.15 157.466 104.676 157.848C105.201 158.23 105.642 158.713 105.993 159.297C106.344 159.882 106.585 160.546 106.719 161.288C106.905 162.297 106.861 163.228 106.585 164.084C106.313 164.943 105.849 165.658 105.19 166.235C104.534 166.814 103.714 167.192 102.736 167.378C102.405 167.438 102.08 167.479 101.757 167.49C101.438 167.503 101.13 167.496 100.834 167.469C100.538 167.442 100.265 167.401 100.011 167.356C99.7553 167.305 99.5326 167.251 99.3435 167.185L99.2315 165.946C99.6335 166.092 100.021 166.199 100.387 166.271C100.755 166.339 101.106 166.371 101.449 166.372C101.788 166.371 102.116 166.342 102.426 166.281C103.143 166.146 103.75 165.863 104.252 165.43C104.755 164.997 105.107 164.45 105.315 163.784C105.524 163.118 105.553 162.369 105.4 161.532C105.298 160.974 105.119 160.468 104.866 160.008C104.612 159.549 104.284 159.164 103.888 158.851C103.492 158.538 103.028 158.324 102.502 158.202C101.975 158.079 101.387 158.081 100.741 158.203C100.504 158.247 100.268 158.308 100.036 158.382C99.8034 158.455 99.5759 158.547 99.3535 158.658C99.1311 158.77 98.92 158.898 98.7116 159.049C98.5072 159.202 98.3078 159.374 98.1157 159.561L97.7992 158.375C97.9712 158.214 98.1694 158.062 98.3851 157.926C98.6031 157.786 98.8363 157.665 99.0832 157.557C99.33 157.45 99.5882 157.359 99.852 157.277C100.116 157.195 100.395 157.133 100.667 157.082Z" fill="black"/>
<path d="M94.7834 158.109C94.7965 158.674 94.8045 159.22 94.8121 159.74C94.8237 160.262 94.8322 160.835 94.8455 161.465L94.9109 164.87C94.9236 165.51 94.9354 166.096 94.9464 166.628C94.9573 167.16 94.9654 167.707 94.9785 168.272L93.7195 168.302C93.7087 167.733 93.6967 167.184 93.6857 166.652C93.6747 166.119 93.6646 165.54 93.6519 164.9L93.5656 160.346L93.4586 160.348L91.3152 163.524C90.7851 164.308 90.248 165.104 89.6956 165.917C89.1431 166.731 88.5808 167.571 87.9946 168.434L86.8858 168.46C86.8727 167.895 86.8646 167.348 86.8537 166.816C86.8427 166.284 86.8348 165.7 86.8182 165.058L86.7529 161.653C86.7395 161.023 86.731 160.45 86.7194 159.928C86.7079 159.406 86.6998 158.86 86.6907 158.297L87.9497 158.267C87.9628 158.832 87.9708 159.379 87.9824 159.901C87.9917 160.426 88.0042 161.002 88.0135 161.629L88.1013 166.227L88.2082 166.225L90.3511 163.059C90.9987 162.098 91.5942 161.219 92.1374 160.422C92.6745 159.626 93.1931 158.862 93.6871 158.131L94.7834 158.109Z" fill="black"/>
<path d="M84.1105 158.172C83.8665 158.403 83.5898 158.663 83.2823 158.959C82.9748 159.255 82.6524 159.558 82.3278 159.866C82.0008 160.177 81.6979 160.465 81.4127 160.731L79.551 162.507L79.3021 161.902C79.9376 161.991 80.4664 162.147 80.8783 162.368C81.2901 162.589 81.6107 162.858 81.8344 163.168C82.0581 163.477 82.2014 163.825 82.2689 164.204C82.3364 164.583 82.3373 164.976 82.2817 165.385C82.1862 166.048 81.9845 166.564 81.675 166.928C81.3654 167.291 80.9421 167.531 80.4034 167.641C79.8647 167.751 79.2134 167.753 78.4494 167.648C77.985 167.583 77.5387 167.522 77.1153 167.459C76.6918 167.396 76.2984 167.345 75.9357 167.296C75.5731 167.246 75.2553 167.202 74.9864 167.164C75.0655 166.604 75.1456 166.06 75.2205 165.535C75.2954 165.009 75.3796 164.431 75.4693 163.797L75.9528 160.42C76.0418 159.797 76.1255 159.229 76.1958 158.712C76.2723 158.192 76.3478 157.657 76.4269 157.097L77.6837 157.273C77.6047 157.833 77.5269 158.373 77.4526 158.888C77.3783 159.403 77.2964 159.977 77.2096 160.597L76.7538 163.787C76.6641 164.421 76.5799 165 76.505 165.525C76.4324 166.046 76.3523 166.59 76.2709 167.154L75.699 166.182L78.5509 166.58C78.7914 166.612 79.0387 166.632 79.3015 166.635C79.5643 166.637 79.8091 166.598 80.0422 166.514C80.2753 166.43 80.4734 166.279 80.6452 166.053C80.8107 165.83 80.9267 165.509 80.9891 165.088C81.0942 164.335 80.9599 163.769 80.5818 163.398C80.1997 163.024 79.5718 162.774 78.6959 162.652L76.7342 162.379L76.8846 161.318L79.2334 161.644L78.3189 162.159L80.4558 160.079C80.8067 159.745 81.1623 159.402 81.5224 159.052C81.8825 158.701 82.2661 158.337 82.6565 157.962L84.1105 158.172Z" fill="black"/>
<path d="M48.646 151.773C49.5297 150.135 50.8566 149.05 52.629 148.513C54.4013 147.977 56.1041 148.149 57.7357 149.024C59.365 149.903 60.4453 151.232 60.9728 153.007C61.5042 154.784 61.325 156.492 60.4452 158.132C59.5592 159.774 58.2301 160.863 56.4514 161.402C54.6728 161.94 52.9723 161.764 51.343 160.884C49.7137 160.005 48.6374 158.679 48.1099 156.904C47.5785 155.127 47.76 153.414 48.646 151.773ZM49.4975 152.231C48.743 153.635 48.5912 155.093 49.0397 156.611C49.4923 158.13 50.4137 159.266 51.8104 160.017C53.2071 160.767 54.6609 160.913 56.1758 160.457C57.6929 159.996 58.8296 159.067 59.5841 157.663C60.334 156.268 60.4859 154.809 60.0373 153.292C59.5848 151.772 58.6633 150.636 57.2706 149.888C55.8739 149.137 54.4201 148.991 52.9053 149.448C51.3819 149.91 50.2475 150.835 49.4975 152.231ZM50.8709 154.556C50.9817 154.355 51.1486 154.212 51.3725 154.144C51.5963 154.076 51.813 154.095 52.024 154.205C52.2248 154.316 52.3645 154.486 52.431 154.711C52.4993 154.941 52.476 155.156 52.3692 155.36C52.2538 155.57 52.0853 155.707 51.8614 155.775C51.6335 155.84 51.4192 155.818 51.2161 155.711C51.0073 155.597 50.8694 155.432 50.8028 155.208C50.7362 154.984 50.7555 154.766 50.8709 154.556ZM58.2877 154.506L57.5322 154.533C57.526 153.377 57.0524 152.546 56.1096 152.036C55.1644 151.529 54.2096 151.59 53.2491 152.222L52.8468 151.571C53.4701 151.149 54.097 150.904 54.7174 150.836C55.3378 150.768 55.948 150.901 56.5448 151.224C57.1496 151.55 57.5956 151.988 57.8744 152.541C58.1611 153.099 58.2983 153.752 58.2877 154.506ZM55.3929 156.994C55.5037 156.792 55.6705 156.649 55.8944 156.581C56.1183 156.514 56.3349 156.532 56.546 156.643C56.7468 156.753 56.8864 156.924 56.953 157.148C57.0212 157.379 56.9979 157.594 56.8911 157.798C56.7757 158.008 56.6072 158.144 56.3833 158.212C56.1555 158.278 55.9411 158.255 55.738 158.149C55.5293 158.034 55.3913 157.87 55.3247 157.645C55.2582 157.421 55.2814 157.206 55.3929 156.994Z" fill="black"/>
<path d="M40.4233 137.816C39.9554 138.115 39.492 138.406 39.0309 138.694C38.5699 138.981 38.0722 139.295 37.5381 139.636L34.6809 141.434C34.149 141.771 33.6577 142.083 33.2006 142.372C32.7435 142.662 32.263 142.964 31.7591 143.28L30.9405 142.278C31.3148 141.59 31.6731 140.93 32.0199 140.29C32.3667 139.65 32.7112 139.015 33.0574 138.385L35.098 134.635L35.0369 134.557L30.9816 135.82C30.2905 136.038 29.6017 136.253 28.9129 136.468C28.2263 136.678 27.5102 136.903 26.7621 137.148L25.9434 136.145C26.3449 135.723 26.7372 135.316 27.11 134.925C27.4868 134.537 27.8906 134.11 28.3252 133.648L30.6847 131.181C31.1125 130.731 31.5139 130.309 31.8822 129.926C32.2527 129.539 32.6302 129.14 33.0224 128.733L33.8009 129.686C33.1696 130.343 32.5732 130.966 32.0053 131.559C31.4375 132.151 30.9131 132.705 30.4179 133.216L28.2998 135.429L28.3591 135.501L31.7048 134.425C32.5155 134.163 33.3263 133.902 34.1434 133.639C34.9564 133.374 35.7148 133.13 36.4207 132.904L36.9713 133.582C36.7435 133.988 36.4966 134.436 36.2245 134.927C35.9547 135.415 35.6797 135.92 35.4001 136.434C35.1204 136.948 34.85 137.446 34.5865 137.932L32.8779 141.05L32.9372 141.121L35.5155 139.486C36.1158 139.104 36.7653 138.691 37.4512 138.252C38.1434 137.811 38.8699 137.347 39.6369 136.859L40.4233 137.816Z" fill="black"/>
<path d="M31.5123 126.135C31.0132 126.405 30.5375 126.663 30.0766 126.913C29.6157 127.163 29.1103 127.435 28.5621 127.736L25.5675 129.36C25.0045 129.668 24.4906 129.946 24.0235 130.198C23.5563 130.449 23.0783 130.711 22.5792 130.982L21.9847 129.874C22.4838 129.604 22.9681 129.341 23.4352 129.089C23.9023 128.837 24.4123 128.557 24.973 128.252L28.9744 126.082L28.9225 125.988L25.1375 125.531C24.2034 125.419 23.2512 125.301 22.2802 125.189C21.3115 125.072 20.3081 124.952 19.2763 124.825L18.7499 123.848C19.249 123.577 19.727 123.316 20.1942 123.064C20.6613 122.812 21.1752 122.534 21.7382 122.226L24.7328 120.602C25.285 120.304 25.7904 120.032 26.2473 119.779C26.7081 119.529 27.1839 119.272 27.683 119.001L28.2775 120.108C27.7784 120.379 27.3027 120.636 26.8418 120.886C26.3809 121.136 25.8733 121.413 25.3211 121.711L21.2816 123.902L21.3334 123.996L25.1122 124.454C26.2583 124.593 27.3066 124.718 28.2588 124.836C29.211 124.954 30.1206 125.063 30.9915 125.166L31.5123 126.135Z" fill="black"/>
<path d="M24.9947 111.393C25.2548 112.154 25.3672 112.877 25.3273 113.572C25.2874 114.266 25.1215 114.903 24.8194 115.484C24.5212 116.067 24.1062 116.577 23.5807 117.013C23.0552 117.449 22.4345 117.793 21.7211 118.041C20.7518 118.376 19.8275 118.476 18.9442 118.34C18.0632 118.199 17.2874 117.849 16.623 117.286C15.9586 116.723 15.4658 115.971 15.1429 115.026C15.0347 114.709 14.9493 114.389 14.8923 114.074C14.8353 113.76 14.7964 113.451 14.7814 113.155C14.7664 112.86 14.7627 112.581 14.7743 112.322C14.7858 112.063 14.808 111.832 14.8488 111.632L16.0563 111.333C15.9711 111.757 15.9185 112.152 15.9041 112.526C15.8897 112.9 15.9072 113.256 15.9567 113.592C16.0062 113.929 16.0814 114.249 16.1885 114.549C16.4263 115.239 16.7909 115.799 17.2927 116.231C17.7945 116.663 18.3825 116.927 19.0663 117.034C19.7501 117.141 20.4968 117.055 21.2986 116.773C21.8337 116.587 22.3071 116.333 22.7251 116.011C23.1431 115.688 23.4744 115.305 23.7229 114.864C23.9715 114.422 24.1201 113.934 24.1633 113.39C24.2041 112.851 24.1223 112.267 23.9092 111.645C23.8308 111.414 23.7375 111.19 23.6294 110.974C23.5235 110.754 23.4006 110.545 23.2588 110.341C23.121 110.14 22.9582 109.945 22.7799 109.768C22.5999 109.585 22.4005 109.417 22.1863 109.256L23.3111 108.762C23.4953 108.91 23.6719 109.081 23.841 109.274C24.0078 109.471 24.1615 109.681 24.3037 109.912C24.4458 110.142 24.5732 110.38 24.6914 110.634C24.8039 110.88 24.9056 111.135 24.9947 111.393Z" fill="black"/>
<path d="M22.5105 101.11C22.6476 101.901 22.6484 102.634 22.5045 103.316C22.3605 103.999 22.0941 104.6 21.7086 105.132C21.3254 105.661 20.8346 106.101 20.2526 106.451C19.6666 106.799 19.0027 107.044 18.2591 107.179C17.2496 107.363 16.3198 107.317 15.4736 107.043C14.6235 106.766 13.9142 106.299 13.3458 105.643C12.7775 104.986 12.4062 104.162 12.2314 103.179C12.1733 102.848 12.1397 102.521 12.1305 102.197C12.1214 101.873 12.1337 101.567 12.1619 101.269C12.1941 100.974 12.2314 100.698 12.2839 100.442C12.3364 100.185 12.3949 99.9637 12.4619 99.7738L13.6991 99.6623C13.5514 100.066 13.4357 100.451 13.3662 100.82C13.2926 101.187 13.2567 101.543 13.2527 101.881C13.2488 102.219 13.2761 102.548 13.3331 102.862C13.458 103.582 13.7354 104.194 14.1612 104.694C14.587 105.194 15.1302 105.554 15.7912 105.764C16.4523 105.975 17.2024 106.003 18.0354 105.85C18.59 105.749 19.1 105.57 19.5592 105.314C20.0184 105.057 20.4057 104.733 20.7234 104.337C21.0372 103.938 21.2602 103.477 21.3846 102.948C21.509 102.42 21.5137 101.833 21.4009 101.183C21.3577 100.946 21.302 100.712 21.2298 100.479C21.1576 100.246 21.0666 100.019 20.9608 99.7984C20.8549 99.5781 20.7263 99.3607 20.5743 99.1563C20.4223 98.952 20.2539 98.7488 20.0683 98.557L21.2542 98.2407C21.4143 98.4125 21.5646 98.6106 21.6972 98.8303C21.8297 99.05 21.9531 99.2857 22.0554 99.5305C22.1594 99.7816 22.2508 100.036 22.3251 100.302C22.4034 100.57 22.4652 100.839 22.5105 101.11Z" fill="black"/>
<path d="M21.5541 95.1954C20.9887 95.2047 20.4476 95.2174 19.9254 95.225C19.4032 95.2326 18.8314 95.2436 18.2062 95.2557L14.8071 95.313C14.1677 95.3222 13.5834 95.3366 13.055 95.3459C12.5265 95.3552 11.9815 95.3657 11.416 95.3749L11.4019 94.1131C11.9713 94.1061 12.5186 94.0917 13.0471 94.0823C13.5756 94.073 14.1576 94.0626 14.793 94.0511L19.3356 93.9718L19.3339 93.8646L16.1916 91.711C15.4144 91.1788 14.6276 90.6356 13.8187 90.0851C13.012 89.5306 12.1815 88.9624 11.3256 88.3741L11.3107 87.2606C11.8762 87.2513 12.4212 87.2409 12.9497 87.2316C13.4782 87.2223 14.0601 87.2119 14.7019 87.1987L18.1009 87.1413C18.7262 87.1292 19.3019 87.1205 19.8201 87.1106C20.3384 87.1008 20.8834 87.0903 21.4489 87.0811L21.463 88.3429C20.8975 88.3522 20.3525 88.3626 19.8303 88.3702C19.308 88.3778 18.73 88.3905 18.1071 88.3986L13.5213 88.4796L13.5231 88.5869L16.659 90.7421C17.6096 91.3955 18.4815 91.9928 19.2683 92.5359C20.0551 93.079 20.8125 93.5998 21.5324 94.0938L21.5541 95.1954Z" fill="black"/>
<path d="M21.5947 84.5015C21.365 84.2578 21.1087 83.9775 20.8173 83.6664C20.5259 83.3552 20.2289 83.0356 19.9223 82.705C19.6156 82.3745 19.3299 82.0719 19.0657 81.7871L17.3134 79.9181L17.9182 79.6658C17.824 80.3075 17.6649 80.8322 17.4364 81.2479C17.2142 81.6619 16.9401 81.9823 16.629 82.2017C16.3156 82.4251 15.9678 82.5703 15.5921 82.6356C15.2123 82.6987 14.8198 82.7012 14.4145 82.6433C13.7529 82.5441 13.2454 82.3424 12.8801 82.0312C12.521 81.7183 12.2899 81.2931 12.1829 80.7534C12.0798 80.216 12.0865 79.5611 12.1984 78.7967C12.2656 78.3307 12.3355 77.8875 12.3963 77.4603C12.461 77.0354 12.5176 76.6429 12.5746 76.2773C12.6293 75.9157 12.6753 75.5968 12.7165 75.323C13.2724 75.4039 13.8141 75.4819 14.3393 75.561C14.8645 75.6401 15.4409 75.7221 16.0702 75.8133L19.4301 76.3018C20.0491 76.3924 20.6152 76.4739 21.1325 76.5484C21.6497 76.6229 22.1852 76.7026 22.7411 76.7835L22.5538 78.0463C21.9979 77.9655 21.4602 77.8898 20.9452 77.8113C20.428 77.7367 19.8618 77.6553 19.2428 77.5647L16.0642 77.1008C15.431 77.0074 14.8546 76.9253 14.3334 76.8485C13.8122 76.7717 13.2705 76.6937 12.7106 76.6106L13.6839 76.0391L13.2565 78.8957C13.2195 79.1346 13.2023 79.3851 13.1947 79.6463C13.1871 79.9076 13.2257 80.1529 13.3082 80.3863C13.3866 80.6174 13.5386 80.8217 13.7608 80.9868C13.9806 81.1558 14.3003 81.2707 14.7198 81.3315C15.4713 81.4398 16.0339 81.3068 16.4124 80.9243C16.7886 80.5458 17.0444 79.9173 17.1756 79.0366L17.4671 77.0688L18.5198 77.223L18.1678 79.581L17.6644 78.6645L19.7145 80.8058C20.0467 81.1563 20.3845 81.5154 20.7302 81.879C21.0759 82.2427 21.4329 82.6234 21.8075 83.0196L21.5947 84.5015Z" fill="black"/>
<path d="M28.3337 48.9581C29.9584 49.8453 31.0302 51.1792 31.5451 52.9578C32.064 54.7386 31.8768 56.4424 30.9852 58.0755C30.0935 59.7087 28.7587 60.7893 26.9807 61.3173C25.2027 61.8454 23.5022 61.669 21.8775 60.7819C20.2489 59.8924 19.1731 58.5562 18.6605 56.7736C18.1478 54.9911 18.3271 53.2827 19.2187 51.6496C20.1104 50.0164 21.4429 48.9398 23.2209 48.4118C24.9989 47.8837 26.7011 48.0664 28.3337 48.9581ZM27.8652 49.8095C26.4731 49.0508 25.02 48.8946 23.5012 49.3487C21.9807 49.7965 20.84 50.7232 20.0776 52.1226C19.3151 53.5219 19.153 54.9799 19.5993 56.5011C20.0393 58.024 20.9585 59.1639 22.3506 59.9225C23.7347 60.6766 25.1839 60.8305 26.7044 60.3827C28.2249 59.9349 29.3655 59.0082 30.128 57.6088C30.8905 56.2095 31.0526 54.7515 30.6063 53.2303C30.1623 51.7051 29.2511 50.5698 27.8652 49.8095ZM25.5346 51.1882C25.7354 51.2985 25.8711 51.4669 25.9416 51.6934C26.0121 51.9199 25.9866 52.139 25.8712 52.3488C25.7604 52.5507 25.5919 52.6875 25.3617 52.7569C25.1316 52.8263 24.9172 52.8039 24.7124 52.6914C24.5037 52.5765 24.368 52.4082 24.3037 52.1799C24.2395 51.9517 24.2627 51.7366 24.3758 51.5308C24.4912 51.3209 24.6597 51.1842 24.8836 51.1164C25.1075 51.0487 25.3258 51.0734 25.5346 51.1882ZM23.0583 55.7239C23.2591 55.8341 23.3948 56.0025 23.4653 56.229C23.5359 56.4555 23.5103 56.6746 23.3949 56.8844C23.2818 57.0903 23.1133 57.2271 22.8855 57.2925C22.6576 57.3579 22.441 57.3395 22.2362 57.227C22.0274 57.1122 21.8917 56.9438 21.8275 56.7155C21.7632 56.4873 21.7865 56.2723 21.8996 56.0664C22.015 55.8566 22.1835 55.7198 22.4074 55.6521C22.6313 55.5843 22.8496 55.609 23.0583 55.7239ZM25.5062 58.6254L25.4861 57.87C26.6409 57.8652 27.4749 57.3889 27.9922 56.4435C28.5095 55.498 28.4563 54.543 27.8349 53.5745L28.4837 53.1722C28.8998 53.7995 29.1372 54.4249 29.1961 55.0485C29.2549 55.672 29.1216 56.2806 28.7915 56.8822C28.4591 57.4878 28.0171 57.9347 27.4639 58.2167C26.917 58.4969 26.2616 58.635 25.5062 58.6254Z" fill="black"/>
<path d="M42.344 40.7146C42.054 40.2449 41.7656 39.7815 41.4836 39.3163C41.2032 38.8575 40.8945 38.3558 40.5594 37.8176L38.7956 34.9486C38.4661 34.4189 38.1592 33.9235 37.8748 33.4624C37.5904 33.0012 37.2948 32.523 36.9845 32.015L37.9931 31.1983C38.675 31.5748 39.329 31.9352 39.9632 32.2842C40.5974 32.6333 41.2277 32.98 41.8516 33.3285L45.5689 35.3826L45.6466 35.3211L44.4259 31.2505C44.2132 30.5543 44.0085 29.8628 43.8015 29.1752C43.5945 28.4877 43.3791 27.7687 43.1451 27.0178L44.1538 26.2011C44.571 26.6059 44.9746 26.9975 45.3584 27.3777C45.7421 27.7579 46.1656 28.161 46.6179 28.5966L49.0548 30.9658C49.4992 31.3969 49.9124 31.7994 50.2968 32.1693C50.6812 32.5393 51.0689 32.9218 51.4725 33.3134L50.5135 34.0897C49.8637 33.4554 49.2467 32.8559 48.6648 32.2873C48.0789 31.7164 47.5355 31.1912 47.0271 30.6968L44.8427 28.5685L44.7713 28.6283L45.8113 31.984C46.062 32.7976 46.3167 33.6136 46.5675 34.4273C46.8222 35.2432 47.0555 36.0044 47.2778 36.7114L46.5953 37.2642C46.192 37.0374 45.749 36.7878 45.26 36.517C44.775 36.2486 44.2741 35.9709 43.7653 35.6888C43.2564 35.4066 42.7595 35.1312 42.2802 34.8713L39.1898 33.1513L39.1184 33.2112L40.7226 35.7972C41.0989 36.4016 41.5035 37.0488 41.9341 37.7428C42.3646 38.4368 42.8217 39.1673 43.299 39.9361L42.344 40.7146Z" fill="black"/>
<path d="M54.096 31.7945C53.8323 31.2974 53.5799 30.8175 53.3348 30.3524C53.0914 29.8935 52.8243 29.3839 52.529 28.8315L50.9401 25.824C50.6414 25.259 50.3687 24.7408 50.1197 24.2734C49.8706 23.806 49.6205 23.3221 49.3528 22.8227L50.465 22.2303C50.7304 22.7336 50.9868 23.2158 51.2336 23.6872C51.4803 24.1586 51.7514 24.6705 52.0483 25.2292L54.172 29.2457L54.2656 29.1933L54.758 25.3967C54.8805 24.4578 55.0059 23.5046 55.1302 22.535C55.2569 21.5613 55.3854 20.5568 55.5197 19.5238L56.5024 19.0003C56.7662 19.4973 57.0202 19.9835 57.2693 20.4509C57.5184 20.9183 57.7871 21.4342 58.0897 22.0015L59.6787 25.009C59.974 25.5615 60.2371 26.0688 60.4845 26.5299C60.7279 26.9887 60.9843 27.471 61.2457 27.972L60.1335 28.5645C59.8698 28.0674 59.6134 27.5852 59.3722 27.1224C59.1271 26.6573 58.8578 26.1516 58.5688 25.5975L56.4248 21.5427L56.3312 21.5952L55.8332 25.3832C55.6834 26.5349 55.5439 27.5861 55.4185 28.5393C55.2931 29.4924 55.1742 30.4068 55.06 31.2761L54.096 31.7945Z" fill="black"/>
<path d="M68.8459 25.2832C68.0886 25.5433 67.3611 25.6506 66.669 25.6136C65.9769 25.5765 65.3424 25.4026 64.7648 25.1021C64.1873 24.8016 63.6865 24.386 63.2563 23.8568C62.8261 23.3277 62.4896 22.7091 62.2514 21.9929C61.9281 21.0206 61.8384 20.0924 61.9822 19.2083C62.1323 18.3225 62.4872 17.5492 63.0554 16.8828C63.6236 16.2163 64.3787 15.7211 65.3223 15.4035C65.6391 15.2937 65.9603 15.2129 66.274 15.1544C66.5878 15.0959 66.894 15.0596 67.1927 15.0455C67.4874 15.0292 67.7628 15.0283 68.0249 15.041C68.2871 15.0538 68.5117 15.0768 68.7106 15.1168L68.9968 16.3282C68.5769 16.2406 68.1796 16.1872 67.8065 16.1744C67.4334 16.1615 67.0772 16.1744 66.7413 16.2255C66.4055 16.2766 66.0865 16.3534 65.7845 16.4558C65.0945 16.6909 64.5278 17.0607 64.0992 17.5578C63.6644 18.0567 63.3923 18.6492 63.2808 19.3393C63.1692 20.0295 63.2497 20.7718 63.5192 21.5803C63.6985 22.1138 63.947 22.5915 64.2668 23.0093C64.5867 23.4271 64.965 23.7617 65.4017 24.013C65.8385 24.2644 66.3286 24.4136 66.8642 24.4562C67.4038 24.5011 67.9822 24.4143 68.6073 24.2003C68.8381 24.1206 69.0593 24.03 69.2794 23.9229C69.4995 23.8159 69.7083 23.6917 69.9138 23.5549C70.1193 23.4181 70.3078 23.2557 70.4913 23.0744C70.6748 22.8932 70.847 22.6948 71.008 22.4793L71.4903 23.6068C71.3415 23.7921 71.1705 23.97 70.9734 24.1381C70.7763 24.3063 70.5617 24.459 70.3311 24.6026C70.1006 24.7462 69.8588 24.8726 69.6073 24.9882C69.3628 25.0919 69.108 25.195 68.8459 25.2832Z" fill="black"/>
<path d="M79.1249 22.8127C78.3358 22.9536 77.6048 22.9474 76.9275 22.802C76.2502 22.6566 75.648 22.3897 75.1272 21.9997C74.6064 21.6097 74.1714 21.1256 73.8291 20.5355C73.4868 19.9454 73.2495 19.2829 73.1241 18.536C72.9512 17.5228 73.0054 16.5924 73.289 15.7409C73.5726 14.8894 74.0449 14.1784 74.7059 13.6078C75.3669 13.0373 76.1925 12.6677 77.1706 12.4921C77.5008 12.4325 77.8315 12.3996 78.1484 12.3908C78.4693 12.3842 78.7747 12.3952 79.0709 12.4223C79.3648 12.4533 79.6377 12.4934 79.8934 12.5449C80.1491 12.5965 80.3695 12.6543 80.5603 12.7269L80.6559 13.9665C80.2562 13.8162 79.8728 13.7018 79.5074 13.6297C79.142 13.5575 78.7889 13.519 78.4482 13.5142C78.1075 13.5094 77.7791 13.5383 77.4677 13.5928C76.7492 13.7212 76.1369 13.9957 75.6324 14.4226C75.128 14.8495 74.7686 15.3917 74.5496 16.0573C74.333 16.7189 74.2979 17.469 74.4382 18.3094C74.5338 18.8691 74.7064 19.3775 74.9538 19.8386C75.2052 20.302 75.5269 20.6891 75.9206 21.006C76.3144 21.3229 76.7734 21.5445 77.2978 21.671C77.8222 21.7975 78.4092 21.8059 79.0572 21.69C79.298 21.648 79.5315 21.5911 79.764 21.5177C79.9964 21.4443 80.2255 21.3583 80.4479 21.2472C80.668 21.1401 80.8854 21.0102 81.0915 20.8632C81.2999 20.7122 81.501 20.5463 81.6953 20.3554L81.9994 21.545C81.8234 21.7041 81.6275 21.8517 81.4055 21.9895C81.1858 22.1234 80.9526 22.2442 80.7018 22.3495C80.4509 22.4549 80.1928 22.5454 79.9273 22.6211C79.6636 22.703 79.397 22.7622 79.1249 22.8127Z" fill="black"/>
<path d="M85.0321 21.8525C85.0293 21.2877 85.0252 20.7435 85.0199 20.2198C85.0146 19.6961 85.0124 19.1211 85.007 18.4964L84.9849 15.089C84.9785 14.4478 84.9769 13.8625 84.9699 13.3326C84.9629 12.8026 84.9611 12.2544 84.9582 11.6896L86.2183 11.6763C86.2228 12.2473 86.2246 12.7956 86.2316 13.3255C86.2386 13.8555 86.2402 14.4408 86.2449 15.0757L86.2777 19.6315L86.3847 19.6293L88.5656 16.4802C89.1053 15.7071 89.6526 14.9117 90.2107 14.1066C90.7711 13.2975 91.3452 12.4645 91.9434 11.6081L93.0516 11.5924C93.0545 12.1572 93.0602 12.7077 93.0632 13.2354C93.0663 13.763 93.0718 14.3506 93.0783 14.9918L93.1003 18.3992C93.1034 19.0279 93.1119 19.6012 93.1133 20.1226C93.1186 20.6463 93.1227 21.1905 93.1255 21.7553L91.8694 21.7709C91.8666 21.2061 91.8625 20.6619 91.8595 20.1342C91.8565 19.6066 91.852 19.0355 91.8449 18.4046L91.8106 13.8055L91.7037 13.8077L89.5234 16.9464C88.8639 17.9003 88.2565 18.7727 87.7076 19.5618C87.1586 20.3509 86.6321 21.1104 86.1324 21.8322L85.0321 21.8525Z" fill="black"/>
<path d="M95.6886 21.9125C95.9343 21.6873 96.2172 21.4251 96.5287 21.1316C96.8442 20.8403 97.1643 20.541 97.4929 20.2361C97.8215 19.9311 98.1284 19.6455 98.4176 19.3816L100.301 17.6231L100.543 18.2303C99.9063 18.1346 99.3821 17.971 98.9725 17.7459C98.5629 17.5209 98.2486 17.2497 98.0272 16.9363C97.8058 16.623 97.6687 16.2732 97.6052 15.8966C97.544 15.516 97.5431 15.1224 97.6089 14.714C97.7106 14.0501 97.9203 13.5385 98.2338 13.1771C98.5474 12.8156 98.9763 12.5843 99.5127 12.4786C100.053 12.3752 100.7 12.3808 101.463 12.4961C101.925 12.5654 102.371 12.6359 102.794 12.699C103.218 12.7621 103.611 12.8234 103.971 12.8767C104.331 12.9301 104.647 12.9788 104.92 13.0189C104.83 13.5785 104.75 14.1221 104.665 14.6468C104.584 15.1739 104.496 15.75 104.396 16.3831L103.874 19.7537C103.777 20.3725 103.691 20.9447 103.61 21.4614C103.53 21.9782 103.448 22.5155 103.359 23.0751L102.101 22.8825C102.19 22.3229 102.272 21.7856 102.352 21.2688C102.433 20.752 102.523 20.1822 102.616 19.561L103.11 16.3765C103.21 15.7433 103.301 15.1632 103.377 14.6442C103.46 14.1234 103.54 13.5798 103.632 13.0162L104.193 13.9979L101.349 13.5673C101.111 13.5312 100.86 13.5088 100.599 13.5023C100.339 13.4958 100.09 13.5333 99.8591 13.613C99.6283 13.6927 99.4239 13.846 99.2544 14.0672C99.0849 14.2884 98.965 14.6072 98.9026 15.0282C98.7873 15.78 98.9153 16.3477 99.2911 16.7233C99.6646 17.103 100.29 17.3567 101.17 17.4909L103.128 17.789L102.963 18.8471L100.616 18.4899L101.534 17.9874L99.3762 20.0395C99.0212 20.3718 98.664 20.7081 98.2959 21.0541C97.9279 21.4001 97.5466 21.7598 97.1483 22.1309L95.6886 21.9125Z" fill="black"/>
<path d="M131.067 28.72C130.167 30.3485 128.827 31.4206 127.046 31.9361C125.264 32.4516 123.567 32.2609 121.947 31.3658C120.327 30.4707 119.263 29.131 118.753 27.3445C118.243 25.558 118.44 23.8547 119.34 22.2262C120.242 20.5936 121.588 19.5198 123.37 19.0043C125.151 18.4888 126.853 18.6818 128.473 19.5769C130.093 20.472 131.156 21.8117 131.662 23.5959C132.169 25.3801 131.973 27.0897 131.067 28.72ZM130.22 28.2538C130.991 26.859 131.157 25.4033 130.725 23.8747C130.291 22.3501 129.381 21.2045 127.993 20.4379C126.606 19.6713 125.151 19.5088 123.631 19.9464C122.109 20.3879 120.963 21.3061 120.192 22.7008C119.426 24.0876 119.256 25.5411 119.69 27.0657C120.124 28.5903 121.034 29.7359 122.422 30.5025C123.809 31.2691 125.264 31.4316 126.786 30.9901C128.31 30.5548 129.454 29.6406 130.22 28.2538ZM124.376 23.4193C124.266 23.6212 124.097 23.758 123.867 23.8274C123.637 23.8968 123.425 23.8704 123.216 23.7556C123.015 23.6454 122.882 23.473 122.814 23.2425C122.749 23.0142 122.773 22.7992 122.886 22.5933C123.001 22.3835 123.173 22.249 123.401 22.1836C123.629 22.1181 123.841 22.1445 124.046 22.2571C124.255 22.3719 124.388 22.5443 124.455 22.7685C124.519 22.9967 124.496 23.2118 124.376 23.4193ZM121.457 25.8776L122.212 25.8604C122.203 27.0139 122.67 27.8563 123.608 28.375C124.547 28.8936 125.501 28.8424 126.471 28.2214L126.867 28.8743C126.236 29.2919 125.61 29.5265 124.99 29.5842C124.37 29.6419 123.76 29.5086 123.168 29.1784C122.565 28.8477 122.13 28.4007 121.851 27.8471C121.571 27.2873 121.44 26.6328 121.457 25.8776ZM128.876 25.9133C128.766 26.1152 128.597 26.252 128.367 26.3214C128.137 26.3908 127.925 26.3644 127.716 26.2496C127.515 26.1394 127.382 25.967 127.314 25.7365C127.249 25.5082 127.273 25.2932 127.386 25.0873C127.501 24.8775 127.674 24.743 127.901 24.6776C128.129 24.6121 128.341 24.6385 128.546 24.7511C128.755 24.8659 128.89 25.0343 128.955 25.2625C129.017 25.4845 128.992 25.7035 128.876 25.9133Z" fill="black"/>
</g>
<defs>
<clipPath id="clip0_2067_36682">
<rect width="179" height="180" fill="white"/>
</clipPath>
</defs>
</svg>
