<svg width="24" height="25" viewBox="0 0 24 25" fill="none" xmlns="http://www.w3.org/2000/svg">
<g clip-path="url(#clip0_1765_32564)">
<path d="M11.135 5C11.5199 4.33333 12.4821 4.33333 12.867 5L21.5273 20C21.9122 20.6667 21.431 21.5 20.6612 21.5H3.34072C2.57092 21.5 2.0898 20.6667 2.4747 20L11.135 5Z" fill="#C3FF5C"/>
<path d="M12.8632 17.1626C12.8422 17.1053 12.8147 17.0512 12.7816 16.9999C12.7457 16.9491 12.7056 16.9011 12.6628 16.8559C12.4414 16.6355 12.125 16.5395 11.8183 16.5996C11.7564 16.6127 11.6958 16.6313 11.6371 16.656C11.5821 16.677 11.5294 16.7045 11.4805 16.7376C11.4287 16.7721 11.3807 16.8117 11.3365 16.8564C11.2484 16.944 11.1785 17.0479 11.1305 17.1626C11.11 17.2199 11.0932 17.2782 11.0806 17.3378C11.068 17.3975 11.0615 17.4585 11.0615 17.5191C11.0634 17.8327 11.22 18.1258 11.4805 18.3006C11.5294 18.3337 11.5821 18.3607 11.6371 18.3817C11.6958 18.4059 11.7564 18.425 11.8183 18.4376C11.9381 18.4628 12.0616 18.4628 12.1814 18.4376C12.2415 18.4255 12.3002 18.4069 12.3566 18.3817C12.4134 18.3607 12.468 18.3332 12.5188 18.3006C12.5696 18.2642 12.6176 18.2246 12.6628 18.1818C12.8389 18.0061 12.9377 17.7675 12.9377 17.5191C12.9382 17.3965 12.9126 17.2749 12.8632 17.1626Z" fill="#1D1D1D"/>
<path d="M11.8482 9.2394C11.5164 9.27947 11.2144 9.45004 11.0085 9.71287C10.8025 9.97571 10.7093 10.3098 10.7493 10.6416L11.323 15.3759C11.35 15.5982 11.4843 15.7935 11.6828 15.8979C11.8813 16.0018 12.118 16.0018 12.3166 15.8979C12.5151 15.794 12.6493 15.5987 12.6763 15.3759L13.25 10.6416C13.2617 10.541 13.2617 10.4394 13.25 10.3387C13.2099 10.0069 13.0394 9.70495 12.7765 9.49897C12.5142 9.29299 12.18 9.19979 11.8482 9.2394Z" fill="#1D1D1D"/>
<path d="M22.3881 18.9061L13.9042 3.93428C13.6489 3.48317 13.2411 3.13738 12.7541 2.95843C12.2671 2.77948 11.7326 2.77948 11.2461 2.95843C10.7591 3.13692 10.3513 3.4827 10.0959 3.93381L1.61158 18.9065C1.22758 19.5841 1.2327 20.4146 1.62509 21.0875C2.01702 21.7605 2.73748 22.1743 3.5162 22.1743H20.4844C21.2632 22.1743 21.9832 21.7605 22.3755 21.0875C22.7675 20.4146 22.7726 19.5837 22.3881 18.9061ZM20.7543 20.1424C20.6997 20.2403 20.5958 20.2999 20.484 20.2981H3.51573C3.40436 20.2981 3.30183 20.2389 3.24544 20.1429C3.18952 20.0469 3.18859 19.9281 3.24358 19.8316L11.7279 4.85933C11.7834 4.761 11.8873 4.70088 12.0001 4.70088C12.1129 4.70088 12.2168 4.76146 12.2722 4.85979L20.7561 19.8321C20.8125 19.9276 20.812 20.0474 20.7543 20.1424Z" fill="#1D1D1D"/>
</g>
<defs>
<clipPath id="clip0_1765_32564">
<rect width="24" height="24" fill="white" transform="translate(0 0.5)"/>
</clipPath>
</defs>
</svg>
