<svg width="30" height="30" viewBox="0 0 30 30" fill="none" xmlns="http://www.w3.org/2000/svg">
<path d="M21.5517 28.1303H8.47916C7.26477 28.1303 6.27637 27.1424 6.27637 25.9275V4.11665C6.27637 2.90206 7.26472 1.91406 8.47916 1.91406H21.5517C22.7663 1.91406 23.7541 2.90201 23.7541 4.11665V25.9275C23.7541 27.1423 22.7663 28.1303 21.5517 28.1303ZM8.47916 3.00669C7.86702 3.00669 7.36874 3.50473 7.36874 4.11691V25.9278C7.36874 26.5401 7.86698 27.0382 8.47916 27.0382H21.5517C22.1634 27.0382 22.6617 26.5402 22.6617 25.9278V4.11691C22.6617 3.50477 22.1635 3.00669 21.5517 3.00669H8.47916Z" fill="black"/>
<path d="M6.82324 6.28516H23.2085V7.37753H6.82324V6.28516Z" fill="black"/>
<path d="M6.82324 22.668H23.2085V23.7603H6.82324V22.668Z" fill="black"/>
<path d="M13.377 24.8516H16.6541V25.9439H13.377V24.8516Z" fill="black"/>
</svg>
