<svg width="30" height="30" viewBox="0 0 30 30" fill="none" xmlns="http://www.w3.org/2000/svg">
<path d="M15 1.63672C12.5215 1.6365 10.1201 2.49913 8.20858 4.07632C6.29669 5.65378 4.99377 7.84742 4.5232 10.281C4.05259 12.7144 4.44394 15.2358 5.63003 17.4123C8.16437 22.5546 14.2706 27.8817 14.5291 28.116L14.603 28.1806L15.0126 28.3531L15.4252 28.1806L15.5021 28.116C15.7884 27.8666 22.5844 21.9327 24.7833 16.566L24.8417 16.4245L24.9463 16.1534V16.1532C25.7885 13.9904 25.9011 11.6116 25.267 9.37881C24.633 7.14602 23.2868 5.18156 21.4336 3.78446C19.5804 2.38702 17.3214 1.6331 15.0002 1.63761L15 1.63672ZM23.7946 15.7122L23.6498 16.0817C21.8021 20.5498 16.3982 25.6461 15.0279 26.8992C13.7162 25.72 8.84187 21.1322 6.72323 16.8427C5.69652 14.9794 5.32882 12.8242 5.67997 10.726C6.03115 8.62767 7.0802 6.70957 8.65761 5.28206C10.2351 3.85476 12.2481 3.00159 14.3707 2.86115C16.4935 2.72068 18.6015 3.30083 20.3533 4.50795C22.1051 5.71486 23.398 7.47812 24.0226 9.51175C24.6472 11.5452 24.5668 13.7303 23.7949 15.7126L23.7946 15.7122Z" fill="black"/>
<path d="M14.9998 6.23828C13.3902 6.23828 11.8464 6.87772 10.7083 8.01589C9.57011 9.15428 8.93066 10.698 8.93066 12.3077C8.93066 13.9173 9.57011 15.461 10.7083 16.5992C11.8464 17.7374 13.3901 18.3768 14.9998 18.3768C16.6095 18.3768 18.1532 17.7374 19.2914 16.5992C20.4296 15.461 21.069 13.9173 21.069 12.3077C21.0666 10.6986 20.4263 9.15643 19.2888 8.0187C18.1511 6.88097 16.6089 6.24087 14.9998 6.23828ZM14.9998 17.151C13.7171 17.151 12.487 16.6417 11.5799 15.7348C10.6729 14.828 10.1629 13.5981 10.1623 12.3155C10.1619 11.0328 10.6707 9.80247 11.5771 8.89497C12.4833 7.98747 13.713 7.47713 14.9958 7.47581C16.2783 7.47474 17.509 7.98315 18.4168 8.88914C19.3247 9.79515 19.8357 11.0246 19.8374 12.3073C19.8374 13.5907 19.3279 14.8219 18.4208 15.73C17.5137 16.6382 16.2834 17.1494 14.9998 17.1509V17.151Z" fill="black"/>
</svg>
