<svg width="60" height="60" viewBox="0 0 60 60" fill="none" xmlns="http://www.w3.org/2000/svg">
<path d="M36.1865 12.3924V23.4572H28.8461C26.0663 23.4572 23.8099 25.7104 23.8099 28.4934V31.6849H8.17164L1.50781 38.9168V12.3924C1.50781 9.61257 3.761 7.35938 6.54079 7.35938H31.1504C33.9333 7.35938 36.1865 9.61257 36.1865 12.3924Z" stroke="#1D1D1D" stroke-width="1.8" stroke-linecap="round" stroke-linejoin="round"/>
<path d="M58.4944 28.4932V55.0177L51.8274 47.7826H28.8487C26.0689 47.7826 23.8125 45.5294 23.8125 42.7464V28.4932C23.8125 25.7102 26.0689 23.457 28.8487 23.457H53.4582C56.2412 23.457 58.4944 25.7102 58.4944 28.4932Z" fill="#C3FF5C" stroke="#1D1D1D" stroke-width="1.8" stroke-linecap="round" stroke-linejoin="round"/>
<path d="M31.9336 29.9102H49.6623" stroke="#1D1D1D" stroke-width="1.8" stroke-linecap="round" stroke-linejoin="round"/>
<path d="M31.9336 35.5156H49.6623" stroke="#1D1D1D" stroke-width="1.8" stroke-linecap="round" stroke-linejoin="round"/>
<path d="M31.9336 41.1172H49.6623" stroke="#1D1D1D" stroke-width="1.8" stroke-linecap="round" stroke-linejoin="round"/>
<path d="M14.9102 16.0749V14.3898C14.9102 13.0876 15.9665 12.0312 17.2687 12.0312H20.2814C21.5836 12.0312 22.6399 13.0876 22.6399 14.3898V15.9504C22.6399 16.9972 21.791 17.8461 20.7442 17.8461C19.6974 17.8461 18.8485 18.6951 18.8485 19.7419V22.4547" stroke="#1D1D1D" stroke-width="1.8" stroke-linecap="round" stroke-linejoin="round"/>
<path d="M18.9004 27C19.1765 27 19.4004 26.7761 19.4004 26.5C19.4004 26.2239 19.1765 26 18.9004 26C18.6242 26 18.4004 26.2239 18.4004 26.5C18.4004 26.7761 18.6242 27 18.9004 27Z" stroke="#1D1D1D" stroke-width="1.8" stroke-linecap="round" stroke-linejoin="round"/>
</svg>
