<svg width="60" height="60" viewBox="0 0 60 60" fill="none" xmlns="http://www.w3.org/2000/svg">
<path d="M30.0745 19.3484L23.3938 22.8611L24.6695 15.4216L19.2656 10.1543L26.7342 9.06878L30.0745 2.30078L33.4149 9.06878L40.8834 10.1543L35.4784 15.4216L36.7541 22.8611L30.0745 19.3484Z" fill="#C3FF5C" stroke="#1D1D1D" stroke-width="2" stroke-miterlimit="10" stroke-linecap="round" stroke-linejoin="round"/>
<path d="M48.7491 22.7866L44.7508 24.8882L45.514 20.4355L42.2788 17.2832L46.7494 16.633L48.7491 12.582L50.7478 16.633L55.2184 17.2832L51.9832 20.4355L52.7475 24.8882L48.7491 22.7866Z" fill="#C3FF5C" stroke="#1D1D1D" stroke-width="2" stroke-miterlimit="10" stroke-linecap="round" stroke-linejoin="round"/>
<path d="M11.5217 22.7866L7.52335 24.8882L8.28654 20.4355L5.05249 17.2832L9.52197 16.633L11.5217 12.582L13.5203 16.633L17.9909 17.2832L14.7569 20.4355L15.5201 24.8882L11.5217 22.7866Z" fill="#C3FF5C" stroke="#1D1D1D" stroke-width="2" stroke-miterlimit="10" stroke-linecap="round" stroke-linejoin="round"/>
<path d="M14.2544 56.5852H7.00411C5.92647 56.5852 5.05249 55.7112 5.05249 54.6336V39.5141C5.05249 38.4365 5.92647 37.5625 7.00411 37.5625H14.2544C15.3321 37.5625 16.206 38.4365 16.206 39.5141V54.6336C16.206 55.7112 15.3321 56.5852 14.2544 56.5852Z" stroke="#1D1D1D" stroke-width="2" stroke-miterlimit="10" stroke-linecap="round" stroke-linejoin="round"/>
<path d="M36.7965 38.9062H30.0732" stroke="#1D1D1D" stroke-width="2" stroke-miterlimit="10" stroke-linecap="round" stroke-linejoin="round"/>
<path d="M18.7429 38.9062H16.2061V54.5349C17.0968 54.5696 17.9518 54.8169 18.7094 55.241C19.4658 55.664 19.9963 56.3679 20.6196 57.0046C21.9378 58.3519 24.158 58.1539 25.0219 58.1539H36.7965" stroke="#1D1D1D" stroke-width="2" stroke-miterlimit="10" stroke-linecap="round" stroke-linejoin="round"/>
<path d="M36.7966 38.9062H41.4776C42.8059 38.9062 43.8836 39.9839 43.8836 41.3122C43.8836 42.6405 42.8059 43.7182 41.4776 43.7182H36.7966" stroke="#1D1D1D" stroke-width="2" stroke-miterlimit="10" stroke-linecap="round" stroke-linejoin="round"/>
<path d="M36.7966 43.7188H40.9561C42.2844 43.7188 43.3621 44.7964 43.3621 46.1247C43.3621 47.453 42.2844 48.5307 40.9561 48.5307H36.7966" stroke="#1D1D1D" stroke-width="2" stroke-miterlimit="10" stroke-linecap="round" stroke-linejoin="round"/>
<path d="M36.7966 48.5273H40.3586C41.6869 48.5273 42.7645 49.605 42.7645 50.9333C42.7645 52.2616 41.6869 53.3393 40.3586 53.3393H36.7966" stroke="#1D1D1D" stroke-width="2" stroke-miterlimit="10" stroke-linecap="round" stroke-linejoin="round"/>
<path d="M36.7966 53.3398H39.8729C41.2012 53.3398 42.2788 54.4175 42.2788 55.7458C42.2788 57.0741 41.2012 58.1517 39.8729 58.1517H36.7966" stroke="#1D1D1D" stroke-width="2" stroke-miterlimit="10" stroke-linecap="round" stroke-linejoin="round"/>
<path d="M18.7429 38.9049L21.8886 36.5918C24.3057 34.8136 25.982 32.2063 26.5964 29.2688C26.8672 27.9718 28.0109 27.043 29.3358 27.043C30.8812 27.043 32.1346 28.2963 32.1346 29.8417C32.1346 32.9113 31.4598 35.9439 30.1594 38.7247L30.0744 38.9049" stroke="#1D1D1D" stroke-width="2" stroke-miterlimit="10" stroke-linecap="round" stroke-linejoin="round"/>
</svg>
