<svg width="60" height="60" viewBox="0 0 60 60" fill="none" xmlns="http://www.w3.org/2000/svg">
<path d="M39.3478 2.33203H20.53C19.2234 2.33203 17.9712 2.85092 17.0478 3.77425L3.74227 17.0798C2.81894 18.0031 2.30005 19.2565 2.30005 20.562V39.3798C2.30005 40.6865 2.81894 41.9387 3.74227 42.862L17.0478 56.1676C17.9712 57.0909 19.2245 57.6098 20.53 57.6098H39.3478C40.6545 57.6098 41.9067 57.0909 42.83 56.1676L56.1356 42.862C57.0589 41.9387 57.5778 40.6854 57.5778 39.3798V20.5631C57.5778 19.2565 57.0589 18.0043 56.1356 17.0809L42.83 3.77425C41.9067 2.85092 40.6545 2.33203 39.3478 2.33203Z" stroke="#1D1D1D" stroke-width="2" stroke-miterlimit="10" stroke-linecap="round" stroke-linejoin="round"/>
<path d="M42.7717 26.4987C40.9294 25.915 38.933 26.7283 38.022 28.4323L35.2898 33.5445V27.9814V24.6314V17.2472C35.2898 16.1222 34.3778 15.2112 33.2538 15.2112C32.1288 15.2112 31.2178 16.1232 31.2178 17.2472V15.036C31.2178 13.911 30.3058 13 29.1817 13C28.0568 13 27.1457 13.912 27.1457 15.036V16.3795C27.1457 15.2545 26.2338 14.3435 25.1097 14.3435C23.9857 14.3435 23.0737 15.2555 23.0737 16.3795V21.381C23.0737 20.256 22.1618 19.345 21.0377 19.345C19.9127 19.345 19.0017 20.257 19.0017 21.381V24.7753V28.3198V35.9115C19.0017 42.1071 24.0244 47.1308 30.221 47.1308C33.3663 47.1308 36.2792 45.4756 37.8892 42.7748L37.9095 42.7406C38.7025 41.41 39.3267 39.9863 39.7675 38.5017L43.2835 26.6601L42.7717 26.4987Z" fill="#C3FF5C"/>
<path d="M19 28.3186V21.3798C19 20.2548 19.912 19.3438 21.036 19.3438C22.161 19.3438 23.072 20.2557 23.072 21.3798V27.6731" stroke="#1D1D1D" stroke-width="2" stroke-miterlimit="10" stroke-linecap="round" stroke-linejoin="round"/>
<path d="M23.0718 23.3186V16.3798C23.0718 15.2548 23.9837 14.3438 25.1078 14.3438C26.2328 14.3438 27.1438 15.2557 27.1438 16.3798V26.9674" stroke="#1D1D1D" stroke-width="2" stroke-miterlimit="10" stroke-linecap="round" stroke-linejoin="round"/>
<path d="M27.145 21.9748V15.036C27.145 13.911 28.057 13 29.181 13C30.306 13 31.217 13.912 31.217 15.036V21.9748" stroke="#1D1D1D" stroke-width="2" stroke-miterlimit="10" stroke-linecap="round" stroke-linejoin="round"/>
<path d="M31.2178 27.9812V17.2469C31.2178 16.122 32.1297 15.2109 33.2538 15.2109C34.3787 15.2109 35.2898 16.1229 35.2898 17.2469V27.9812" stroke="#1D1D1D" stroke-width="2" stroke-miterlimit="10" stroke-linecap="round" stroke-linejoin="round"/>
<path d="M19 24.7728V35.9099C19 42.1056 24.0227 47.1292 30.2192 47.1292C33.3645 47.1292 36.2775 45.474 37.8875 42.7732L37.9078 42.739C38.7008 41.4084 39.325 39.9847 39.7658 38.5001L43.2818 26.6585L42.7719 26.4971C40.9295 25.9134 38.9331 26.7267 38.0221 28.4307L35.2899 33.5429V24.6289" stroke="#1D1D1D" stroke-width="2" stroke-miterlimit="10" stroke-linecap="round" stroke-linejoin="round"/>
</svg>
