<svg width="60" height="60" viewBox="0 0 60 60" fill="none" xmlns="http://www.w3.org/2000/svg">
<path d="M2.8464 15.7933C0.914553 13.8901 2.21817 9.43688 5.75679 5.84268C9.2971 2.24847 13.7318 0.875802 15.6636 2.77901C16.6017 3.70367 16.7769 5.22961 16.3019 6.96776C15.7983 8.80866 14.5722 10.882 12.7515 12.7313C11.2441 14.2606 9.57332 15.3891 8.00528 16.0324C5.88985 16.8965 3.95632 16.8847 2.8464 15.7933Z" fill="#C3FF5C" stroke="#1D1D1D" stroke-width="2" stroke-miterlimit="10" stroke-linecap="round" stroke-linejoin="round"/>
<path d="M20.2398 19.3615C19.684 19.9257 19.0507 20.3653 18.3753 20.682C17.6814 21.0054 16.942 21.1974 16.1925 21.2597C15.0355 21.3574 13.8565 21.1418 12.7954 20.618L12.7937 20.6163C12.1958 20.3215 11.6349 19.9274 11.1347 19.4356C11.0556 19.3582 10.9781 19.2773 10.9023 19.1948L8.00537 16.0317C9.5751 15.3884 11.2459 14.2616 12.7516 12.7306C14.5723 10.883 15.8001 8.80796 16.302 6.96875L19.8019 9.92125C20.5649 10.563 21.1375 11.3394 21.5199 12.1866C22.5793 14.5311 22.1733 17.3977 20.2398 19.3615Z" fill="#C3FF5C" stroke="#1D1D1D" stroke-width="2" stroke-miterlimit="10" stroke-linecap="round" stroke-linejoin="round"/>
<path d="M34.2326 32.5737C33.7088 33.1043 33.0217 33.3721 32.3328 33.3771C31.6423 33.3822 30.9517 33.1245 30.4212 32.6024L24.1035 26.3824C24.5397 26.0051 24.9692 25.6026 25.3886 25.1765C26.2728 24.2787 27.0527 23.3389 27.7146 22.389C27.7162 22.3856 27.7196 22.3823 27.7213 22.3789L27.7314 22.389L34.2023 28.7622C35.2617 29.8065 35.2769 31.5126 34.2326 32.5737Z" stroke="#1D1D1D" stroke-width="2" stroke-miterlimit="10" stroke-linecap="round" stroke-linejoin="round"/>
<path d="M30.0589 17.5823C29.6463 19.1065 28.8513 20.7554 27.7212 22.3757C27.7195 22.379 27.7161 22.3824 27.7144 22.3858C27.0525 23.3357 26.2727 24.2755 25.3885 25.1732C24.9691 25.5993 24.5396 26.0019 24.1034 26.3792C19.7058 30.1906 14.6699 31.4791 12.3591 29.2037C10.8937 27.7603 10.8432 25.2019 11.9582 22.3858C12.1873 21.8047 12.4685 21.2119 12.7953 20.6156C13.8564 21.1394 15.0353 21.355 16.1924 21.2573C16.9419 21.195 17.6813 21.003 18.3752 20.6796C19.0506 20.363 19.6839 19.9234 20.2397 19.3592C22.1732 17.3953 22.5791 14.5287 21.5197 12.1842C24.6508 10.6431 27.6016 10.4916 29.2185 12.0832C30.4497 13.2975 30.6821 15.3001 30.0589 17.5823Z" fill="#C3FF5C" stroke="#1D1D1D" stroke-width="2" stroke-miterlimit="10" stroke-linecap="round" stroke-linejoin="round"/>
<path d="M44.7169 24.0524V54.8558C44.7169 55.7754 43.9708 56.5216 43.0512 56.5216H14.7843C14.3464 56.5216 13.9253 56.3481 13.6137 56.0416L5.57647 48.1036C5.25983 47.7904 5.0813 47.3626 5.0813 46.9179V24.0524C5.0813 23.1328 5.82743 22.3867 6.74703 22.3867H11.9581C10.8431 25.2028 10.8937 27.7612 12.359 29.2046C14.6698 31.48 19.7057 30.1916 24.1033 26.3801C24.5395 26.0028 24.969 25.6003 25.3884 25.1742C26.2726 24.2765 27.0524 23.3366 27.7144 22.3867H43.0512C43.9708 22.3867 44.7169 23.1328 44.7169 24.0524Z" stroke="#1D1D1D" stroke-width="2" stroke-miterlimit="10" stroke-linecap="round" stroke-linejoin="round"/>
<path d="M56.7206 45.832L44.7169 49.0135V24.0545C44.7169 23.1349 43.9708 22.3888 43.0512 22.3888H27.7144C27.716 22.3854 27.7194 22.382 27.7211 22.3787C28.8512 20.7584 29.6462 19.1095 30.0588 17.5853L47.976 12.8374C48.8653 12.6016 49.7764 13.1304 50.0122 14.0214L57.9047 43.7957C58.1405 44.685 57.6099 45.5962 56.7206 45.832Z" stroke="#1D1D1D" stroke-width="2" stroke-miterlimit="10" stroke-linecap="round" stroke-linejoin="round"/>
<path d="M9.23486 46.5664H15.374V53.1283" stroke="#1D1D1D" stroke-width="2" stroke-miterlimit="10" stroke-linecap="round" stroke-linejoin="round"/>
</svg>
