<svg width="60" height="60" viewBox="0 0 60 60" fill="none" xmlns="http://www.w3.org/2000/svg">
<path d="M54.0678 33.3767V52.313C54.0678 55.5958 51.408 58.2556 48.1252 58.2556H14.3793C9.55444 58.2556 5.64282 54.344 5.64282 49.5192V13.6694C5.64282 11.8088 7.15081 10.3008 9.01142 10.3008H31.8464C31.7888 10.7404 31.7594 11.1894 31.7594 11.6442C31.7594 17.3201 36.361 21.9216 42.0356 21.9216C42.085 21.9216 42.1344 21.9216 42.1837 21.9193V31.8487H52.5399C53.3838 31.8487 54.0678 32.5328 54.0678 33.3767Z" stroke="#1D1D1D" stroke-width="2" stroke-miterlimit="10" stroke-linecap="round" stroke-linejoin="round"/>
<path d="M48.0453 58.2534C44.8001 58.2534 42.1697 55.5935 42.1697 52.3107V31.8477" stroke="#1D1D1D" stroke-width="2" stroke-miterlimit="10" stroke-linecap="round" stroke-linejoin="round"/>
<path d="M52.3131 11.6434C52.3131 17.2699 47.7915 21.8409 42.1838 21.9184C42.1345 21.9208 42.0851 21.9208 42.0357 21.9208C36.3611 21.9208 31.7595 17.3192 31.7595 11.6434C31.7595 11.1885 31.7889 10.7395 31.8465 10.3C32.5047 5.25882 36.8159 1.36719 42.0357 1.36719C47.7116 1.36719 52.3131 5.96756 52.3131 11.6434Z" fill="#C3FF5C" stroke="#1D1D1D" stroke-width="2" stroke-miterlimit="10" stroke-linecap="round" stroke-linejoin="round"/>
<path d="M11.9158 37.5728V30.0234L17.5928 37.5728V30.0234" stroke="#1D1D1D" stroke-width="2" stroke-miterlimit="10" stroke-linecap="round" stroke-linejoin="round"/>
<path d="M25.1997 30.2578H20.4595V37.5733H25.1997" stroke="#1D1D1D" stroke-width="2" stroke-miterlimit="10" stroke-linecap="round" stroke-linejoin="round"/>
<path d="M23.9715 33.7969H20.4595" stroke="#1D1D1D" stroke-width="2" stroke-miterlimit="10" stroke-linecap="round" stroke-linejoin="round"/>
<path d="M26.6042 30.2573L28.8868 37.5728L31.2281 30.2573L33.5683 37.5728L35.8508 30.0234" stroke="#1D1D1D" stroke-width="2" stroke-miterlimit="10" stroke-linecap="round" stroke-linejoin="round"/>
</svg>
