<svg width="60" height="60" viewBox="0 0 60 60" fill="none" xmlns="http://www.w3.org/2000/svg">
<path d="M57.3576 29.9994C57.3576 45.1082 45.1077 57.3581 29.9989 57.3581C24.135 57.3581 18.6997 55.5137 14.2471 52.372C14.2448 52.3697 14.238 52.3651 14.238 52.3651L2.64014 56.1931L6.23553 43.5647C6.23553 43.5647 6.23325 43.5625 6.23325 43.5602C3.94652 39.5635 2.64014 34.9331 2.64014 29.9994C2.64014 14.8905 14.89 2.64062 29.9989 2.64062C45.1077 2.64062 57.3576 14.8905 57.3576 29.9994Z" fill="#C3FF5C" stroke="#1D1D1D" stroke-width="2" stroke-miterlimit="10" stroke-linecap="round" stroke-linejoin="round"/>
<path d="M57 32.5C57 46.0301 44.9107 57 30 57C24.213 57 18.849 55.3483 14.4548 52.5349C14.4525 52.5328 14.4458 52.5287 14.4458 52.5287L3 55.9567L6.54825 44.6479C6.54825 44.6479 6.546 44.6459 6.546 44.6438C4.28925 41.0648 3 36.9182 3 32.5C3 18.9699 15.0893 8 30 8C44.9107 8 57 18.9699 57 32.5Z" fill="white" stroke="#1D1D1D" stroke-width="2" stroke-miterlimit="10" stroke-linecap="round" stroke-linejoin="round"/>
<path d="M16 30.0985C16 29.007 16.8859 28.1211 17.9774 28.1211H20.0201C21.1116 28.1211 21.9975 29.007 21.9975 30.0985V30.4089C21.9975 31.0793 21.6573 31.7041 21.0958 32.068L17.6037 34.3321C16.6031 34.9807 16 36.092 16 37.2844H21.9975" stroke="#1D1D1D" stroke-width="2" stroke-miterlimit="10" stroke-linecap="round" stroke-linejoin="round"/>
<path d="M28.7877 37.2831V28.4896C28.7877 28.369 28.6354 28.3176 28.5623 28.4125L23.6049 34.8391C23.5416 34.9221 23.601 35.0407 23.7038 35.0407H30.1719" stroke="#1D1D1D" stroke-width="2" stroke-miterlimit="10" stroke-linecap="round" stroke-linejoin="round"/>
<path d="M35.1155 27L31.7539 39.3924" stroke="#1D1D1D" stroke-width="2" stroke-miterlimit="10" stroke-linecap="round" stroke-linejoin="round"/>
<path d="M37.158 28.1211H42.9577V29.7742C40.9546 31.2533 39.5506 33.4027 38.9989 35.831L38.6687 37.2824" stroke="#1D1D1D" stroke-width="2" stroke-miterlimit="10" stroke-linecap="round" stroke-linejoin="round"/>
</svg>
