<svg width="272" height="272" viewBox="0 0 272 272" fill="none" xmlns="http://www.w3.org/2000/svg">
<g clip-path="url(#clip0_1950_34300)">
<path d="M203.772 203.773C241.232 166.313 241.232 105.578 203.772 68.1179C166.312 30.6579 105.577 30.6579 68.1174 68.1179C30.6574 105.578 30.6574 166.313 68.1174 203.773C105.577 241.233 166.312 241.233 203.772 203.773Z" fill="#FFD000"/>
<path d="M112.577 50.5483L120.623 70.9501L120.718 71.1909L120.969 71.2524L142.27 76.4648L125.354 90.4219L125.155 90.5865L125.174 90.8445L126.797 112.711L108.297 100.936L108.079 100.797L107.839 100.895L87.5414 109.199L93.0261 87.9626L93.0908 87.712L92.9236 87.5145L78.7552 70.7776L100.644 69.4306L100.902 69.4147L101.038 69.1946L112.577 50.5483Z" fill="#C3FF5C" stroke="#1D1D1D"/>
<path d="M196.746 109.251L196.946 109.416L197.196 109.348L218.353 103.591L210.314 123.992L210.219 124.233L210.361 124.45L222.377 142.795L200.488 141.455L200.23 141.44L200.068 141.641L186.333 158.736L180.845 137.503L180.78 137.253L180.538 137.161L160.036 129.38L178.532 117.601L178.75 117.462L178.763 117.204L179.827 95.2974L196.746 109.251Z" fill="#C3FF5C" stroke="#1D1D1D"/>
<path d="M157.005 148.864C153.777 155.298 148.133 159.703 141.714 161.519C136.002 163.137 129.684 162.706 123.965 159.837C118.242 156.969 114.119 152.167 111.999 146.62C109.613 140.392 109.767 133.231 112.995 126.797L157.005 148.864Z" fill="#111C33" stroke="#111C33" stroke-width="7" stroke-miterlimit="10" stroke-linecap="round" stroke-linejoin="round"/>
<path d="M141.714 161.521C136.002 163.139 129.684 162.708 123.965 159.839C118.242 156.97 114.119 152.169 111.999 146.622C117.703 144.562 124.208 144.768 130.055 147.697C135.893 150.626 139.95 155.719 141.714 161.521Z" fill="#D03E1D" stroke="#111C33" stroke-width="4" stroke-miterlimit="10" stroke-linecap="round" stroke-linejoin="round"/>
<path opacity="0.2" d="M206.499 88.9994C204.881 84.6662 205.821 85.8384 204.652 83.5576C195.623 65.9287 165.413 38.5921 123.605 50.5357C122.856 50.7492 122.983 51.9327 123.792 51.914C136.875 51.5993 147.058 54.7866 162.777 61.9699C188.454 73.7001 197.435 93.6922 202.559 96.2165C204.611 97.2277 209.345 96.6173 206.499 88.9994Z" fill="white"/>
<path opacity="0.2" d="M57.9623 99.7765C57.6852 97.2972 55.1234 96.1474 53.1684 97.7915C48.7939 101.466 39.7529 125.102 52.8613 154.483C53.2171 155.277 54.3818 154.693 54.2096 153.914C48.3557 127.435 58.5241 104.81 57.9623 99.7765Z" fill="white"/>
<path opacity="0.2" d="M114.036 78.567C111.755 79.4658 109.841 81.4134 107.624 82.5444C105.313 83.7204 102.834 84.5219 100.456 85.5369C99.7629 85.8328 100.19 86.8103 100.812 86.844C103.613 87.0125 106.197 86.2148 108.725 85.0275C117.987 80.6793 115.234 78.0951 114.036 78.567Z" fill="white"/>
<path opacity="0.2" d="M117.991 85.0098C113.564 88.2907 115.246 87.6315 106.658 93.6876C106.014 94.1407 106.152 95.3991 107.1 95.3242C113.149 94.8523 117.976 90.7326 119.59 86.2383C119.894 85.3881 118.748 84.448 117.991 85.0098Z" fill="white"/>
<path opacity="0.2" d="M193.454 116.867C192.769 117.103 187.716 121.852 182.308 123.661C181.694 123.867 181.589 124.859 182.308 125.017C189.675 126.601 195.173 121.474 195.409 118.358C195.484 117.388 194.357 116.556 193.454 116.867Z" fill="white"/>
<path opacity="0.2" d="M197.84 125.629C195.967 126.367 189.859 131.116 187.589 132.228C187.166 132.438 187.394 133.067 187.821 133.078C190.346 133.138 192.293 133.198 194.6 131.898C196.375 130.895 198.675 129.108 199.353 127.138C199.641 126.307 198.701 125.292 197.84 125.629Z" fill="white"/>
<path opacity="0.4" d="M219.105 164.073C218.997 163.687 218.986 163.859 219.162 162.358C219.562 158.957 214.102 155.616 210.918 160.125C210.945 160.088 210.798 160.346 210.619 160.44C208.892 160.605 205.99 166.009 205.091 167.702C184.81 206.053 136.392 226.173 88.8643 198.11C72.5425 188.473 66.4865 179.983 58.2132 169.399C56.3219 166.979 57.5653 175.361 66.1344 187.616C93.6657 226.989 150.826 238.105 194.533 201.585C206.45 191.623 221.199 171.582 219.105 164.073Z" fill="#FFD000"/>
</g>
<defs>
<clipPath id="clip0_1950_34300">
<rect width="271.31" height="271.31" fill="white" transform="translate(0.290039 0.289062)"/>
</clipPath>
</defs>
</svg>
