<svg width="249" height="162" viewBox="0 0 249 162" fill="none" xmlns="http://www.w3.org/2000/svg">
<g clip-path="url(#clip0_1945_34514)">
<path d="M32.0877 41.4297C32.2736 41.4466 33.158 41.5258 34.7297 41.6784C36.3071 41.8254 37.5013 41.9554 38.3238 42.0629C38.4365 42.6678 38.459 43.1879 38.4027 43.6232C38.2956 44.7199 38.1041 46.3028 37.8337 48.3719C37.5633 50.441 37.3661 52.0239 37.2535 53.1206C37.3211 53.1489 37.4168 53.1828 37.5464 53.2167C37.676 53.2507 37.7774 53.2846 37.8675 53.3185C37.9576 53.3524 38.0478 53.392 38.1435 53.4429C38.2393 53.4938 38.3182 53.5673 38.3858 53.6577C38.4477 53.7425 38.4928 53.8499 38.521 53.9686C38.0816 54.1778 37.6309 54.2739 37.1633 54.2569C37.1521 54.2852 37.1352 54.37 37.1183 54.517C37.1014 54.664 37.0845 54.7544 37.0732 54.794C37.0676 54.8279 37.0507 54.9127 37.0281 55.0428C37.0056 55.1728 36.9887 55.2632 36.9774 55.3198C36.9662 55.3763 36.9436 55.4554 36.9155 55.5685C36.8873 55.6816 36.8648 55.7664 36.8366 55.8342C36.8141 55.9021 36.7859 55.9812 36.7521 56.0716C36.7239 56.1678 36.6845 56.2469 36.6451 56.326C36.6056 56.3995 36.5606 56.4787 36.5155 56.5522C36.4592 56.5352 36.3465 56.5126 36.1831 56.473C36.0198 56.4335 35.9127 56.4108 35.862 56.3995C35.7775 55.6872 35.7832 54.8392 35.8789 53.8443C35.4114 53.799 34.7185 53.7086 33.8059 53.5616C32.8933 53.4203 32.0651 53.3129 31.3328 53.245C30.6005 53.1772 29.9019 53.1715 29.2485 53.2224C28.8767 53.2054 28.4992 53.1941 28.1218 53.1885C28.088 54.093 27.8458 54.8618 27.3895 55.4894C27.3669 55.4611 27.2937 55.365 27.1641 55.2067C27.0346 55.0484 26.9501 54.941 26.905 54.8901C26.9275 54.534 26.967 54.1326 27.0233 53.686L26.7642 53.6125C26.7867 53.3581 26.8712 53.1263 27.0177 52.9228C27.1641 52.7136 27.3162 52.5497 27.4852 52.4309C27.6542 52.3122 27.8514 52.1596 28.0824 51.99C28.3077 51.8147 28.488 51.6621 28.6175 51.5264C29.3724 50.6276 29.9921 49.7343 30.4878 48.8468C30.9779 47.9592 31.299 47.0321 31.4511 46.0654C31.5469 45.7262 31.6145 45.3417 31.6595 44.9121C31.7046 44.4825 31.7271 44.0924 31.7328 43.7419C31.7384 43.3914 31.7666 43.0013 31.8229 42.5716C31.8793 42.142 31.9581 41.7576 32.0877 41.4297ZM33.0172 42.6734C32.9947 44.4033 32.7017 46.0823 32.1384 47.7048C31.575 49.3273 30.7582 50.7745 29.6879 52.0352C29.9921 52.0635 30.5103 52.1257 31.237 52.2105C31.9637 52.2953 32.5271 52.3631 32.9327 52.414C33.3327 52.4649 33.834 52.527 34.4312 52.6118C35.0283 52.6966 35.5747 52.7758 36.0705 52.8493C36.4817 50.0453 36.9042 46.7551 37.3211 42.973C37.2253 42.9674 36.8817 42.9391 36.3014 42.8769C35.7212 42.8204 35.3212 42.7808 35.1072 42.7639C34.8931 42.7469 34.572 42.7299 34.1551 42.7017C33.7383 42.6904 33.3608 42.6734 33.0172 42.6734Z" fill="#C3FF5C" stroke="#C3FF5C" stroke-width="0.5" stroke-miterlimit="10"/>
<path d="M41.9967 49.5958C42.0361 49.4884 42.0756 49.3753 42.1206 49.2453C42.2615 48.8382 42.3798 48.5499 42.4756 48.3747C42.5601 48.1994 42.7291 47.9337 42.9769 47.5832C43.2361 47.2214 43.4952 46.9274 43.7431 46.7013C43.9853 46.4865 44.1881 46.3395 44.3515 46.249C44.5261 46.1473 44.774 46.0568 45.0838 45.9777C45.4049 45.8929 45.6978 45.8477 45.9682 45.8477C46.2274 45.8533 46.5147 45.8929 46.8414 45.9777C47.1681 46.0625 47.4104 46.1416 47.5737 46.2208C47.7371 46.2999 47.9117 46.396 48.0976 46.5204C48.3117 46.673 48.4976 46.8709 48.6666 47.1083C48.8525 47.3627 48.9708 47.5606 49.0159 47.7019C49.0778 47.8489 49.1229 48.0863 49.1567 48.4142C49.1792 48.7421 49.1792 48.9852 49.1454 49.1379C49.1116 49.2905 49.044 49.4714 48.9314 49.6862C48.8131 49.9124 48.6779 50.1046 48.5258 50.2629C48.3793 50.3816 48.2441 50.4777 48.1258 50.5455C48.0019 50.6134 47.7934 50.6869 47.5061 50.7717C47.2583 50.8225 47.0555 50.8621 46.9034 50.8904C46.7513 50.9186 46.4696 50.9356 46.0527 50.9356C45.664 50.9412 45.3824 50.9412 45.2134 50.9356C45.0444 50.9299 44.8754 50.913 44.7064 50.896C44.5599 50.8791 44.3064 50.8395 43.9628 50.783C43.6135 50.7264 43.3882 50.6869 43.2811 50.6699C43.1741 50.6473 43.0783 50.636 42.9882 50.6247C42.9488 50.619 42.8981 50.6134 42.8417 50.6077C42.8136 50.7151 42.791 50.8169 42.7629 50.9186C42.7347 51.0543 42.7122 51.3144 42.6953 51.7044C42.6784 52.0945 42.6783 52.3546 42.6896 52.4789C42.7009 52.6203 42.7234 52.7616 42.7629 52.9142C42.7854 53.0443 42.8474 53.2478 42.9431 53.5418C43.0276 53.7961 43.1234 53.9884 43.2192 54.1297C43.3318 54.3049 43.4276 54.4293 43.5177 54.5085C43.5853 54.5876 43.7318 54.695 43.9628 54.8363C44.1881 54.989 44.3909 55.1077 44.5712 55.1925C44.7514 55.2716 44.9655 55.3338 45.2077 55.3734C45.4669 55.4356 45.6528 55.4639 45.7485 55.4582C45.8274 55.4695 45.9851 55.4412 46.2217 55.3734C46.4302 55.3169 46.571 55.266 46.6442 55.2264C46.7175 55.1812 46.7794 55.1247 46.8414 55.0512C46.9034 54.9833 46.9935 54.8533 47.1174 54.6667C47.2357 54.4689 47.3202 54.3106 47.3709 54.1919C47.4216 54.0788 47.4723 53.9714 47.5061 53.8809L47.5625 53.7227C47.6075 53.57 47.6977 53.457 47.8329 53.3948C47.9681 53.3269 48.1089 53.3156 48.2497 53.3608C48.3906 53.4061 48.4976 53.5022 48.5596 53.6435C48.6215 53.7848 48.6328 53.9318 48.5877 54.0788L48.5258 54.271C48.4694 54.401 48.4075 54.548 48.3286 54.7007C48.2554 54.8533 48.1427 55.0512 47.9962 55.2886C47.8441 55.543 47.7146 55.7296 47.5963 55.8483C47.478 55.967 47.354 56.0744 47.2188 56.1705C47.0724 56.2779 46.8301 56.3853 46.4809 56.4871C46.1372 56.5719 45.8725 56.6115 45.6978 56.6115C45.5345 56.6058 45.2979 56.5662 44.9824 56.5041C44.6557 56.4362 44.3684 56.3514 44.1261 56.244C43.8895 56.1083 43.6417 55.967 43.3769 55.7974C43.0896 55.6052 42.8811 55.4412 42.7459 55.3112C42.6276 55.1868 42.4981 55.0173 42.346 54.7968C42.1826 54.5593 42.0474 54.271 41.9291 53.9149C41.8052 53.587 41.7263 53.3269 41.6981 53.1347C41.6531 52.9595 41.6249 52.7842 41.6024 52.6146C41.5855 52.4281 41.5855 52.1058 41.608 51.6536C41.6249 51.2013 41.6587 50.8791 41.6981 50.6925C41.7319 50.5116 41.777 50.3307 41.8221 50.1441C41.8277 50.1046 41.839 50.065 41.8559 50.0254C41.8615 49.9858 41.8671 49.9519 41.8671 49.9237C41.8784 49.8049 41.9178 49.6975 41.9967 49.5958ZM43.2023 49.4827C43.2924 49.494 43.3825 49.511 43.4727 49.5392C43.5741 49.5505 43.7938 49.5901 44.1261 49.6467C44.4585 49.7032 44.6951 49.7428 44.8472 49.7597C44.9937 49.7767 45.1401 49.788 45.2753 49.788C45.4162 49.788 45.6753 49.7823 46.0527 49.7767C46.4245 49.7823 46.6668 49.7767 46.7794 49.7597C46.8921 49.7428 47.0442 49.7088 47.2526 49.6523C47.4329 49.6071 47.5568 49.5675 47.6132 49.5392C47.6582 49.5053 47.7202 49.4488 47.7991 49.3753C47.8554 49.3301 47.9117 49.2566 47.9624 49.1548C48.0188 49.0361 48.0526 48.9513 48.0751 48.8948C48.0807 48.8382 48.0751 48.7139 48.0638 48.5103C48.0469 48.3068 48.03 48.1768 48.0131 48.1203C47.9793 48.0637 47.9117 47.9563 47.8047 47.815C47.7033 47.6624 47.5963 47.5549 47.478 47.4814C47.3371 47.3797 47.2188 47.3062 47.1118 47.2553C47.0048 47.2044 46.8245 47.1479 46.5597 47.0914C46.3119 47.0179 46.1034 46.984 45.9344 46.9953C45.7711 46.9896 45.5739 47.0179 45.3429 47.0857C45.112 47.1536 44.9486 47.2044 44.8528 47.2497C44.7514 47.3062 44.6106 47.4136 44.4191 47.5776C44.2275 47.7358 44.036 47.962 43.8445 48.2503C43.6304 48.5499 43.4952 48.7704 43.4389 48.9061C43.3769 49.0022 43.3037 49.2 43.2023 49.4827Z" fill="#C3FF5C" stroke="#C3FF5C" stroke-width="0.5" stroke-miterlimit="10"/>
<path d="M56.3504 46.3581L56.6434 46.5503C57.9165 47.3304 58.4066 48.8907 58.1249 51.2312C57.9052 53.012 57.2123 54.5101 56.0406 55.7142C54.9928 56.924 53.9732 57.4667 52.9761 57.3424C52.0353 57.2293 51.3424 56.6922 50.8861 55.7425C50.4185 54.7645 50.2946 53.3851 50.5143 51.5986C50.7791 49.4052 51.3987 47.2343 52.3733 45.0804C53.3253 43.0283 54.3337 41.5189 55.3871 40.5465C56.4011 39.5968 57.3757 39.1784 58.2996 39.2915C58.8798 39.365 59.3249 39.6194 59.6234 40.0547C59.922 40.5069 60.029 41.1005 59.9389 41.8411C59.8657 42.4347 59.5277 43.1244 58.9305 43.8989C58.3052 44.696 57.5447 45.4309 56.6434 46.1037L56.3504 46.3581ZM56.7842 51.3951V51.3725C56.9194 50.2475 56.8518 49.3091 56.5758 48.5628C56.311 47.777 55.9505 47.353 55.4998 47.2965C55.4604 47.2909 55.4209 47.2965 55.3815 47.3022C55.3421 47.3135 55.2914 47.3248 55.235 47.353C55.1787 47.3757 55.1224 47.4039 55.0717 47.4322C55.021 47.4605 54.9477 47.5 54.8632 47.5566C54.7787 47.6131 54.6999 47.664 54.6266 47.7092C54.5534 47.7601 54.4576 47.8336 54.3393 47.924C54.221 48.0145 54.114 48.0936 54.0295 48.1615C53.945 48.2293 53.8211 48.3254 53.6633 48.4441C53.5056 48.5628 53.3704 48.6646 53.2577 48.7494C52.8916 48.9925 52.5367 49.2186 52.1874 49.4278L52.1029 49.4787L52.0691 49.5917C51.8888 50.2192 51.748 50.9202 51.6579 51.6834C51.4889 53.0572 51.5508 54.12 51.8381 54.8775C52.148 55.686 52.6155 56.1269 53.2408 56.2061C54.0802 56.3078 54.8407 55.8442 55.5111 54.8097C56.204 53.8091 56.6265 52.6671 56.7842 51.3951ZM52.3113 48.3197L52.8972 47.9579C55.3815 46.1885 56.9532 44.8939 57.6179 44.0685C58.3503 43.2318 58.7503 42.5365 58.8179 41.9824C58.8742 41.5302 58.8179 41.1627 58.6489 40.88C58.4798 40.5974 58.2095 40.4334 57.832 40.3826C57.0095 40.2808 56.1138 40.8914 55.1449 42.2142C54.2098 43.4919 53.3422 45.3066 52.5423 47.6527L52.3113 48.3197Z" fill="#C3FF5C" stroke="#C3FF5C" stroke-width="0.5" stroke-miterlimit="10"/>
<path d="M64.9638 58.0604C64.8567 58.1848 64.7215 58.247 64.5582 58.2413H64.2427C63.9723 58.247 63.6399 58.1904 63.2512 58.0547C62.8625 57.936 62.5189 57.7664 62.2091 57.5403C61.9274 57.3311 61.6964 57.1333 61.5161 56.9467C61.3246 56.7375 61.1049 56.3927 60.857 55.9122C60.6035 55.4429 60.4345 55.0698 60.3444 54.7872C60.2599 54.4932 60.2317 53.99 60.2543 53.2777C60.2599 52.5824 60.2993 52.0905 60.3782 51.7853C60.4627 51.5139 60.6204 51.1465 60.8401 50.6942C61.0598 50.2419 61.2908 49.8575 61.5218 49.5409C61.7527 49.2243 61.9668 48.9813 62.1696 48.8117C62.3837 48.6364 62.6879 48.4385 63.0879 48.2181C63.516 47.9976 64.0117 47.8789 64.5807 47.8506C65.1384 47.8223 65.5384 47.8336 65.7862 47.8958C66.0228 47.9693 66.3552 48.1276 66.7833 48.3707C67.2002 48.6251 67.5044 48.8399 67.6959 49.0208C67.8875 49.2017 68.0846 49.4448 68.2818 49.7614C68.479 50.078 68.6142 50.3607 68.693 50.615C68.7775 50.8808 68.8451 51.2878 68.8902 51.8362C68.9296 52.3676 68.9184 52.8481 68.8508 53.2777C68.8001 53.6791 68.7381 54.0183 68.6649 54.2953C68.6029 54.5723 68.4677 54.9454 68.2593 55.4203C68.0508 55.9065 67.8311 56.3022 67.6114 56.5962C67.3692 56.9071 67.065 57.1898 66.6988 57.4385C66.3327 57.6929 66.0454 57.8512 65.8313 57.9247C65.6285 57.9982 65.3412 58.0378 64.9638 58.0604ZM62.733 56.551C62.9076 56.4492 63.0822 56.4436 63.2569 56.534L63.5442 56.6923C63.6963 56.7658 63.8709 56.828 64.0624 56.8789C64.2483 56.9128 64.5075 56.9297 64.8342 56.9241C65.1666 56.9184 65.3863 56.8902 65.4933 56.8506C65.6172 56.811 65.82 56.6923 66.1073 56.5001C66.3834 56.3192 66.6031 56.1157 66.7608 55.8952C66.9185 55.6747 67.0875 55.3581 67.2622 54.9568C67.4424 54.5441 67.5607 54.2331 67.6114 54.024C67.6621 53.8035 67.7185 53.5039 67.7692 53.1308C67.8142 52.7803 67.8199 52.3845 67.7861 51.9379C67.7635 51.497 67.7185 51.1973 67.6621 51.0277C67.6058 50.8468 67.5044 50.6377 67.3523 50.4002C67.2058 50.1628 67.065 49.9819 66.9411 49.8575C66.8171 49.7331 66.5749 49.5748 66.2256 49.3826C65.8876 49.1848 65.6398 49.0604 65.482 49.0095C65.3356 48.9756 65.0483 48.9699 64.6201 48.9869C64.2145 49.0095 63.8596 49.1 63.5498 49.2639C63.2174 49.4392 62.9865 49.5805 62.8569 49.6879C62.7217 49.8123 62.5583 49.9988 62.3668 50.2589C62.1696 50.5133 61.9781 50.8355 61.7809 51.2256C61.5837 51.6157 61.4598 51.9096 61.4147 52.1075C61.364 52.3054 61.3302 52.6955 61.3077 53.289C61.3021 53.8713 61.3302 54.2614 61.3922 54.4536C61.4486 54.6628 61.5781 54.9568 61.7866 55.3468C61.995 55.7426 62.164 56.0083 62.2879 56.1552C62.395 56.2853 62.5471 56.421 62.733 56.551Z" fill="#C3FF5C" stroke="#C3FF5C" stroke-width="0.5" stroke-miterlimit="10"/>
<path d="M77.6616 52.9705L77.132 53.3549C76.1011 54.1577 75.1322 54.7739 74.214 55.2092C73.3239 55.6332 72.6479 55.8198 72.1972 55.7632C71.6451 55.6954 71.2564 55.3901 71.0311 54.8531C70.7776 54.2651 70.6987 53.6093 70.7889 52.8801C70.9128 51.8512 71.2226 50.7205 71.7071 49.4881C71.9324 48.9284 72.1859 48.527 72.4676 48.2953C72.7493 48.0578 73.0591 47.9617 73.4028 48.0069C73.4873 48.0183 73.5549 48.0974 73.6112 48.2387C73.6844 48.4366 73.707 48.6571 73.6788 48.9002C73.6337 49.2507 73.414 49.7142 73.0084 50.2965C72.4282 51.1332 72.0958 51.8738 72.0169 52.5239C71.9719 52.9083 71.9888 53.2871 72.062 53.6715C72.1071 53.8863 72.1972 54.0616 72.3212 54.2029C72.4507 54.3443 72.6085 54.4234 72.7944 54.446C73.4647 54.5308 74.3379 54.2199 75.397 53.5189C76.4955 52.8235 77.2109 52.1734 77.5545 51.5685C77.8925 50.9636 78.0784 50.4831 78.1235 50.1213C78.1404 49.963 78.146 49.816 78.1291 49.6747C78.1235 49.5616 78.1291 49.4485 78.1404 49.3355C78.1686 49.1263 78.27 48.8776 78.4502 48.5949C78.5967 48.3631 78.7544 48.2557 78.9347 48.2783C79.1938 48.3122 79.3572 48.3801 79.4192 48.4818C79.4361 48.5044 79.4473 48.5553 79.4586 48.6345C79.4699 48.7136 79.4755 48.8267 79.4699 48.985C79.4699 49.1376 79.453 49.3129 79.4304 49.5051C79.3797 49.9064 79.2164 50.794 78.9291 52.1564C78.8671 52.4674 78.8108 52.7613 78.7713 53.044C78.6192 53.9372 78.315 55.2488 77.87 56.9674C77.7348 57.4988 77.5996 57.9793 77.4644 58.4146C77.3348 58.8499 77.2278 59.1722 77.1546 59.387C77.0813 59.6018 77.025 59.7205 76.9968 59.7544C76.8954 59.8788 76.7659 59.9353 76.6025 59.9127C76.3377 59.8788 76.1631 59.8279 76.0786 59.7488C75.9941 59.6753 75.9603 59.5679 75.9716 59.4265C75.9941 59.2343 76.0392 59.0704 76.1011 58.9347C76.2307 58.669 76.6983 56.8995 77.4982 53.6376L77.6616 52.9705Z" fill="#C3FF5C" stroke="#C3FF5C" stroke-width="0.5" stroke-miterlimit="10"/>
<path d="M82.4103 54.9174L82.7202 54.9004C84.2243 54.7874 85.6608 53.8715 87.0184 52.1416C87.6212 51.3841 88.1451 50.8584 88.5789 50.5644C89.007 50.2987 89.4351 50.1913 89.8576 50.2421C89.9872 50.2591 90.1168 50.3496 90.2463 50.5078C90.3703 50.6548 90.4266 50.8188 90.4041 50.994C90.3815 51.1975 90.1111 51.3502 89.6098 51.4463C89.2436 51.5198 88.8943 51.6724 88.562 51.8986C88.2465 52.1303 87.6663 52.7013 86.8269 53.6171C86.2072 54.2955 85.6664 54.7591 85.2158 55.0079C85.2101 55.0079 85.1988 55.0078 85.1932 55.0135C85.1876 55.0192 85.1707 55.0248 85.1594 55.0305C85.1481 55.0361 85.1369 55.0474 85.12 55.0587C85.1031 55.07 85.0918 55.0813 85.0805 55.0926C85.0693 55.104 85.058 55.1209 85.0468 55.1379C85.0355 55.1548 85.0242 55.1831 85.0186 55.2057C85.0129 55.234 85.0073 55.2622 85.0017 55.2849C84.996 55.3188 84.9961 55.347 84.9961 55.3753C84.9961 55.3979 85.0017 55.4205 85.0073 55.4432C85.0129 55.4658 85.0242 55.4827 85.0299 55.5053C85.0355 55.5223 85.0467 55.5393 85.0524 55.5506C85.058 55.5619 85.0749 55.5732 85.0862 55.5845C85.1031 55.5958 85.1087 55.6071 85.12 55.6128C85.1313 55.6184 85.1425 55.6354 85.165 55.6523C85.5256 55.9576 85.8861 56.5286 86.2354 57.3653C86.7931 58.6599 87.2494 59.4965 87.6043 59.8697C87.9874 60.2654 88.4549 60.4972 88.9957 60.5594L89.3281 60.5876C89.3619 60.5933 89.3844 60.5933 89.407 60.5989C89.4126 60.6215 89.4126 60.6385 89.407 60.6611C89.3844 60.8477 89.2436 61.0399 88.9901 61.2434C88.731 61.4469 88.3085 61.5148 87.7339 61.4413C87.3057 61.3904 86.9227 61.1247 86.5903 60.6555C86.241 60.1467 85.8636 59.3439 85.4636 58.2415C85.227 57.5575 84.9848 57.0317 84.7425 56.6586C84.4778 56.2459 84.151 56.0141 83.7623 55.9689C83.6722 55.9576 83.4243 56.0028 83.0244 56.1046C82.8554 56.1442 82.7258 56.1781 82.63 56.2063C82.5399 56.2346 82.4441 56.2798 82.3484 56.342C82.2526 56.4042 82.1794 56.4834 82.1287 56.5738C82.0498 56.7321 81.9484 57.2409 81.8245 58.0945C81.6949 58.9199 81.6048 59.5813 81.5428 60.0845C81.5203 60.271 81.4132 60.4293 81.2273 60.565C81.0245 60.7007 80.8217 60.7516 80.6189 60.729C80.4161 60.7063 80.2697 60.6272 80.1739 60.4972C80.0781 60.3615 80.0387 60.2371 80.05 60.1184C80.0781 59.881 80.2359 59.2987 80.5288 58.3772C81.0527 56.653 81.7174 53.7981 82.5174 49.8068C82.5737 49.4959 82.7202 49.2246 82.9624 48.9984C83.1877 48.7836 83.4074 48.6875 83.6384 48.7158C83.7173 48.7271 83.7792 48.7893 83.8299 48.908C83.8975 49.0663 83.9144 49.2754 83.8806 49.5298C83.8525 49.7503 83.7905 49.9934 83.6947 50.2648C83.1427 51.6555 82.7314 53.0857 82.461 54.5612L82.4103 54.9174Z" fill="#C3FF5C" stroke="#C3FF5C" stroke-width="0.5" stroke-miterlimit="10"/>
<path d="M97.8288 56.6205L97.226 57.5137C96.319 58.9384 95.4346 60.0238 94.584 60.7531C93.7559 61.471 93.0123 61.7876 92.3588 61.7085C92.0039 61.6632 91.6602 61.3749 91.3222 60.8322C90.9842 60.2782 90.8772 59.4641 91.0124 58.3843C91.1251 57.4685 91.4912 56.1287 92.1109 54.3705C92.6292 52.9176 92.9334 51.8661 93.0292 51.2216C93.2038 50.9616 93.4348 50.8429 93.7221 50.8825C93.9136 50.9051 94.0601 50.9955 94.1615 51.1538C94.2685 51.3178 94.3079 51.4817 94.291 51.6343C94.2347 52.0809 94.0037 52.7085 93.5981 53.5225C92.77 55.1959 92.2799 56.6601 92.1278 57.9151C91.9701 59.2041 92.2179 59.8881 92.8714 59.9729C93.5193 60.0521 94.3699 59.5546 95.4177 58.4861C96.4373 57.4402 97.4063 55.9308 98.3132 53.9635C98.6681 53.2173 98.9385 52.7424 99.1301 52.5332C99.2709 52.3806 99.4512 52.3127 99.654 52.341C99.8004 52.358 99.9075 52.4201 99.9582 52.5162C100.009 52.618 100.02 52.7933 99.992 53.0533C99.9751 53.1325 99.8849 53.3642 99.7272 53.7487C99.1357 55.3033 98.7526 56.7958 98.578 58.226C98.3639 59.9955 98.4935 61.1827 98.978 61.7989C99.0456 61.8894 99.0963 61.9742 99.1413 62.0533C99.1808 62.1325 99.2089 62.189 99.2202 62.2229C99.2315 62.2568 99.2371 62.2794 99.2371 62.2851C99.2258 62.3812 99.1244 62.4773 98.9273 62.5678C98.685 62.6865 98.4766 62.7317 98.3076 62.7091C97.964 62.6695 97.7105 62.3134 97.5527 61.6519C97.3725 60.9113 97.3725 59.8259 97.5471 58.4069L97.5922 58.0508C97.6034 57.9434 97.6203 57.8303 97.6429 57.7173L97.8288 56.6205Z" fill="#C3FF5C" stroke="#C3FF5C" stroke-width="0.5" stroke-miterlimit="10"/>
<path d="M103.755 61.0242C103.868 60.9167 103.997 60.8659 104.144 60.8715C104.29 60.8772 104.414 60.9337 104.516 61.0468C104.617 61.1598 104.668 61.2899 104.656 61.4425L104.64 61.9061C104.623 62.2735 104.566 62.5675 104.471 62.7993C104.409 62.9915 104.313 63.2176 104.189 63.472C104.065 63.7547 103.902 64.0317 103.704 64.3087C103.519 64.5857 103.209 64.908 102.775 65.2867L102.195 65.7842C102.088 65.8803 101.958 65.9255 101.806 65.9142C101.648 65.9029 101.524 65.8351 101.44 65.7107C101.35 65.5863 101.316 65.445 101.333 65.2924C101.35 65.1397 101.412 65.0097 101.519 64.9136L102.105 64.4161C102.465 64.1052 102.713 63.8508 102.848 63.6529C102.995 63.4268 103.119 63.2063 103.226 62.9915C103.333 62.7484 103.423 62.5449 103.485 62.3866C103.535 62.2848 103.564 62.1152 103.564 61.8891L103.581 61.4255C103.586 61.2672 103.642 61.1316 103.755 61.0242Z" fill="#C3FF5C" stroke="#C3FF5C" stroke-width="0.5" stroke-miterlimit="10"/>
<path d="M117.968 59.2807L118.278 59.2637C119.782 59.1507 121.219 58.2348 122.576 56.5049C123.179 55.7474 123.703 55.2216 124.137 54.9277C124.565 54.662 124.993 54.5545 125.415 54.6054C125.545 54.6224 125.675 54.7128 125.81 54.8711C125.934 55.0181 125.99 55.1821 125.968 55.3573C125.945 55.5608 125.675 55.7135 125.173 55.8096C124.807 55.8831 124.458 56.0357 124.125 56.2618C123.81 56.4936 123.23 57.0646 122.39 57.9804C121.771 58.6588 121.236 59.1224 120.785 59.3711C120.779 59.3711 120.768 59.3711 120.762 59.3768C120.751 59.3824 120.74 59.3881 120.729 59.3937C120.717 59.3994 120.706 59.4107 120.689 59.422C120.672 59.4333 120.661 59.4446 120.65 59.4559C120.638 59.4672 120.627 59.4842 120.616 59.5012C120.605 59.5181 120.593 59.5464 120.588 59.569C120.582 59.5973 120.576 59.6255 120.571 59.6481C120.565 59.6821 120.565 59.7103 120.565 59.7386C120.565 59.7612 120.571 59.7838 120.576 59.8064C120.582 59.829 120.588 59.846 120.599 59.8686C120.605 59.8856 120.616 59.9025 120.621 59.9138C120.627 59.9252 120.638 59.9365 120.655 59.9478C120.672 59.9591 120.678 59.9704 120.689 59.976C120.7 59.9817 120.712 59.9986 120.734 60.0156C121.095 60.3209 121.455 60.8919 121.804 61.7285C122.362 63.0231 122.818 63.8598 123.173 64.2329C123.556 64.6287 124.024 64.8605 124.565 64.9226L124.897 64.9509C124.931 64.9566 124.954 64.9566 124.976 64.9622C124.982 64.9848 124.982 65.0018 124.976 65.0244C124.954 65.211 124.813 65.4032 124.559 65.6067C124.3 65.8102 123.878 65.878 123.303 65.8045C122.875 65.7537 122.492 65.488 122.159 65.0187C121.804 64.51 121.433 63.7072 121.033 62.6048C120.796 61.9208 120.554 61.395 120.312 61.0219C120.047 60.6092 119.72 60.3774 119.331 60.3322C119.241 60.3209 118.993 60.3661 118.593 60.4679C118.424 60.5074 118.295 60.5414 118.199 60.5696C118.109 60.5979 118.013 60.6431 117.917 60.7053C117.822 60.7675 117.748 60.8466 117.698 60.9371C117.619 61.0954 117.517 61.5985 117.394 62.4578C117.264 63.2832 117.174 63.9446 117.112 64.4478C117.089 64.6343 116.982 64.7926 116.796 64.9283C116.594 65.064 116.391 65.1148 116.188 65.0922C115.985 65.0696 115.839 64.9905 115.743 64.8605C115.647 64.7248 115.608 64.6004 115.619 64.4817C115.647 64.2442 115.805 63.662 116.098 62.7405C116.622 61.0162 117.287 58.1613 118.086 54.1701C118.143 53.8592 118.289 53.5878 118.532 53.3617C118.757 53.1469 118.982 53.0508 119.208 53.079C119.286 53.0904 119.348 53.1525 119.399 53.2713C119.467 53.4295 119.484 53.6387 119.45 53.8931C119.422 54.1136 119.36 54.3567 119.264 54.628C118.712 56.0187 118.301 57.449 118.03 58.9245L117.968 59.2807Z" fill="#C3FF5C" stroke="#C3FF5C" stroke-width="0.5" stroke-miterlimit="10"/>
<path d="M134.057 64.1379C133.95 64.2849 133.86 64.3979 133.798 64.4884C133.73 64.5901 133.646 64.7089 133.527 64.8389C133.415 64.9859 133.156 65.2346 132.744 65.5964C132.328 65.9526 132.012 66.1844 131.792 66.2918C131.59 66.3935 131.387 66.4783 131.184 66.5462C130.981 66.614 130.784 66.6649 130.598 66.6988C130.39 66.7271 130.153 66.7271 129.888 66.6932C129.607 66.6705 129.314 66.5801 128.998 66.4162C128.705 66.2861 128.491 66.1618 128.35 66.0487C128.21 65.9356 128.074 65.8169 127.939 65.6812C127.804 65.5569 127.669 65.376 127.539 65.1442C127.381 64.8954 127.269 64.5845 127.212 64.2114C127.151 63.8496 127.122 63.5613 127.128 63.3464C127.139 63.1486 127.184 62.9111 127.263 62.6454C127.348 62.3854 127.432 62.1592 127.522 61.967C127.612 61.7805 127.781 61.5261 128.035 61.2208C128.288 60.9268 128.508 60.712 128.694 60.582C128.857 60.4802 129.032 60.3785 129.218 60.288C129.404 60.1976 129.64 60.0958 129.939 59.9884C130.271 59.8923 130.643 59.8414 131.049 59.8471C131.46 59.8584 131.787 59.9262 132.029 60.0619C132.243 60.1693 132.564 60.4746 132.992 60.9777C132.947 60.7007 132.913 60.4802 132.885 60.3106C132.835 60.0619 132.761 59.7453 132.654 59.3665C132.536 58.9991 132.429 58.7107 132.339 58.4959C132.249 58.2811 132.136 58.1002 132.001 57.9476C131.899 57.8119 131.697 57.631 131.387 57.4048C131.077 57.1787 130.807 57.0261 130.576 56.9413C130.316 56.8678 130.108 56.8169 129.945 56.7773C129.781 56.7547 129.624 56.7434 129.466 56.7378C129.336 56.7378 129.083 56.7886 128.717 56.8961C128.452 56.9752 128.277 57.0487 128.187 57.1109L128.052 57.2579C127.962 57.3709 127.838 57.4331 127.691 57.4444C127.545 57.4557 127.41 57.4105 127.297 57.3031C127.179 57.1957 127.117 57.0657 127.111 56.9074C127.105 56.7491 127.15 56.619 127.263 56.506L127.404 56.3364C127.579 56.1272 127.922 55.952 128.435 55.7993C128.914 55.658 129.274 55.5845 129.517 55.5901C129.719 55.6015 129.922 55.6184 130.131 55.6467C130.345 55.6863 130.609 55.7541 130.936 55.8502C131.268 55.9633 131.635 56.1611 132.023 56.4551C132.412 56.7434 132.694 57.0091 132.863 57.2466C133.026 57.467 133.178 57.7158 133.325 57.9871C133.454 58.2585 133.578 58.609 133.702 59.033C133.826 59.457 133.911 59.8131 133.956 60.1071C134.001 60.3841 134.057 60.7742 134.13 61.283C134.198 61.7918 134.249 62.1423 134.288 62.3401C134.327 62.5493 134.361 62.7641 134.389 62.9903C134.418 63.2221 134.44 63.3803 134.451 63.4708V63.4934C134.502 63.6121 134.463 63.7648 134.339 63.9457L134.057 64.1379ZM133.189 63.4595C133.139 63.3295 133.088 63.1994 133.032 63.0751C132.958 62.9055 132.874 62.7359 132.778 62.555C132.694 62.3854 132.48 62.1027 132.13 61.707C131.826 61.3452 131.623 61.136 131.516 61.0795C131.432 61.0286 131.263 61.0003 131.004 60.9947C130.722 60.989 130.469 61.0173 130.243 61.0908C129.99 61.1586 129.798 61.2265 129.663 61.3056C129.528 61.3847 129.398 61.4639 129.28 61.5543C129.179 61.6109 129.032 61.7579 128.841 61.9896C128.638 62.2214 128.508 62.391 128.457 62.4928C128.401 62.6115 128.345 62.7641 128.283 62.962C128.232 63.1542 128.21 63.3125 128.21 63.4199C128.198 63.5273 128.21 63.7195 128.26 63.9852C128.311 64.234 128.367 64.4206 128.441 64.5393C128.525 64.6919 128.615 64.7993 128.705 64.8615C128.784 64.9406 128.88 65.0198 128.976 65.0989C129.071 65.1781 129.24 65.2685 129.466 65.3816C129.669 65.4777 129.849 65.5342 130.007 65.5625C130.181 65.5851 130.328 65.5795 130.452 65.5455C130.581 65.5342 130.722 65.506 130.874 65.4494C131.021 65.3986 131.173 65.3307 131.336 65.2572C131.46 65.1894 131.708 65.0028 132.074 64.7032C132.418 64.3923 132.632 64.1944 132.711 64.104C132.789 64.0022 132.863 63.9061 132.925 63.81C133.004 63.7252 133.094 63.6065 133.189 63.4595Z" fill="#C3FF5C" stroke="#C3FF5C" stroke-width="0.5" stroke-miterlimit="10"/>
<path d="M138.536 61.8098L138.845 61.7928C140.349 61.6797 141.786 60.7639 143.144 59.034C143.746 58.2765 144.27 57.7507 144.704 57.4568C145.132 57.191 145.56 57.0836 145.983 57.1345C146.112 57.1515 146.242 57.2363 146.377 57.4002C146.501 57.5472 146.557 57.7112 146.535 57.8864C146.512 58.0899 146.242 58.2426 145.741 58.3387C145.374 58.4122 145.025 58.5648 144.693 58.7909C144.377 59.0227 143.797 59.5937 142.958 60.5095C142.338 61.1879 141.803 61.6515 141.352 61.9002C141.347 61.9002 141.335 61.9002 141.33 61.9059C141.324 61.9115 141.307 61.9172 141.296 61.9228C141.285 61.9285 141.273 61.9398 141.256 61.9511C141.24 61.9624 141.228 61.9737 141.217 61.985C141.206 61.9963 141.194 62.0133 141.183 62.0302C141.172 62.0472 141.161 62.0755 141.155 62.0981C141.149 62.1264 141.144 62.1546 141.138 62.1772C141.133 62.2112 141.133 62.2394 141.133 62.2677C141.133 62.2903 141.138 62.3129 141.144 62.3355C141.149 62.3581 141.155 62.3808 141.166 62.3977C141.172 62.4147 141.183 62.4316 141.189 62.4429C141.194 62.4542 141.211 62.4655 141.223 62.4769C141.234 62.4882 141.245 62.4995 141.256 62.5051C141.268 62.5108 141.279 62.5277 141.302 62.539C141.662 62.8443 142.023 63.4153 142.372 64.252C142.93 65.5466 143.386 66.3833 143.741 66.7564C144.124 67.1521 144.591 67.3782 145.132 67.4461L145.465 67.4743C145.498 67.48 145.521 67.48 145.543 67.4857C145.549 67.5083 145.549 67.5252 145.543 67.5478C145.521 67.7344 145.38 67.9266 145.127 68.1301C144.867 68.3336 144.445 68.4015 143.87 68.328C143.442 68.2771 143.059 68.0114 142.727 67.5422C142.372 67.0334 142 66.2306 141.6 65.1282C141.363 64.4498 141.121 63.9184 140.879 63.5453C140.614 63.1326 140.288 62.9008 139.899 62.85C139.809 62.8387 139.561 62.8839 139.161 62.9913C138.992 63.0309 138.862 63.0648 138.767 63.0931C138.676 63.1213 138.581 63.1666 138.485 63.2287C138.389 63.2909 138.316 63.3701 138.265 63.4605C138.186 63.6188 138.085 64.1276 137.961 64.9813C137.831 65.8066 137.741 66.4681 137.679 66.9712C137.657 67.1578 137.55 67.316 137.364 67.4517C137.161 67.5874 136.958 67.6383 136.755 67.6157C136.553 67.5931 136.406 67.5139 136.31 67.3839C136.215 67.2482 136.175 67.1238 136.186 67.0051C136.215 66.7677 136.372 66.1854 136.665 65.2639C137.189 63.5397 137.854 60.6848 138.654 56.6936C138.71 56.3826 138.857 56.1113 139.099 55.8851C139.324 55.6703 139.55 55.5742 139.775 55.6025C139.854 55.6138 139.916 55.676 139.966 55.7947C140.034 55.953 140.051 56.1622 140.017 56.4166C139.989 56.637 139.927 56.8801 139.831 57.1515C139.279 58.5422 138.868 59.9725 138.598 61.448L138.536 61.8098Z" fill="#C3FF5C" stroke="#C3FF5C" stroke-width="0.5" stroke-miterlimit="10"/>
<path d="M151.937 68.7467C151.83 68.871 151.695 68.9332 151.532 68.9276H151.216C150.946 68.9332 150.613 68.8767 150.225 68.741C149.836 68.6223 149.492 68.4527 149.182 68.2266C148.901 68.0174 148.664 67.8195 148.49 67.633C148.298 67.4238 148.078 67.079 147.83 66.5984C147.577 66.1292 147.408 65.7561 147.318 65.4734C147.233 65.1795 147.205 64.6763 147.228 63.964C147.233 63.2743 147.273 62.7768 147.352 62.4715C147.436 62.2002 147.594 61.8327 147.814 61.3805C148.039 60.9282 148.264 60.5438 148.495 60.2272C148.726 59.9106 148.94 59.6732 149.143 59.4979C149.357 59.3227 149.661 59.1248 150.061 58.9043C150.489 58.6839 150.985 58.5651 151.554 58.5369C152.106 58.5086 152.512 58.5256 152.76 58.5821C152.996 58.6556 153.329 58.8139 153.757 59.057C154.174 59.3114 154.478 59.5262 154.669 59.7071C154.861 59.888 155.058 60.1311 155.255 60.4477C155.452 60.7643 155.588 61.0469 155.666 61.2957C155.751 61.5614 155.819 61.9684 155.864 62.5168C155.903 63.0482 155.892 63.5287 155.824 63.9583C155.773 64.3597 155.711 64.6989 155.638 64.9759C155.576 65.2529 155.441 65.6261 155.233 66.1009C155.024 66.5871 154.805 66.9828 154.585 67.2768C154.343 67.5877 154.038 67.8704 153.672 68.1192C153.306 68.3735 153.019 68.5318 152.805 68.6053C152.602 68.6788 152.315 68.7241 151.937 68.7467ZM149.706 67.2372C149.881 67.1355 150.056 67.1298 150.23 67.2203L150.518 67.3786C150.675 67.4521 150.844 67.5143 151.036 67.5651C151.222 67.6047 151.481 67.616 151.808 67.6104C152.14 67.6047 152.36 67.5764 152.467 67.5369C152.591 67.4973 152.793 67.3786 153.081 67.1864C153.357 67.0055 153.576 66.8019 153.734 66.5815C153.892 66.361 154.061 66.0444 154.236 65.643C154.416 65.2303 154.534 64.9194 154.585 64.7102C154.641 64.4898 154.692 64.1901 154.743 63.817C154.788 63.4665 154.793 63.0708 154.759 62.6242C154.737 62.1832 154.692 61.8836 154.636 61.714C154.579 61.5331 154.478 61.3239 154.326 61.0865C154.179 60.8491 154.038 60.6681 153.914 60.5494C153.791 60.4251 153.548 60.2668 153.199 60.0746C152.861 59.8767 152.613 59.7523 152.455 59.7014C152.309 59.6675 152.022 59.6619 151.588 59.6788C151.182 59.7014 150.827 59.7919 150.518 59.9558C150.185 60.1311 149.954 60.2724 149.825 60.3798C149.689 60.5042 149.526 60.6908 149.329 60.9508C149.132 61.2052 148.94 61.5274 148.743 61.9175C148.546 62.3076 148.428 62.6016 148.377 62.7994C148.326 62.9973 148.292 63.3874 148.27 63.981C148.264 64.5632 148.292 64.9533 148.354 65.1455C148.411 65.3547 148.54 65.6487 148.749 66.0387C148.957 66.4345 149.126 66.7002 149.25 66.8472C149.368 66.9715 149.52 67.1016 149.706 67.2372Z" fill="#C3FF5C" stroke="#C3FF5C" stroke-width="0.5" stroke-miterlimit="10"/>
<path d="M164.601 64.8212L164.021 65.7144C163.108 67.1391 162.229 68.2188 161.367 68.9538C160.534 69.6717 159.784 69.9883 159.131 69.9035C158.776 69.8583 158.432 69.57 158.094 69.0273C157.756 68.4732 157.649 67.6592 157.785 66.5794C157.897 65.6636 158.263 64.3294 158.883 62.5656C159.401 61.1127 159.706 60.0612 159.801 59.4167C159.976 59.1567 160.207 59.0379 160.494 59.0775C160.691 59.1001 160.838 59.1906 160.934 59.3489C161.041 59.5128 161.08 59.6768 161.063 59.8294C161.007 60.276 160.776 60.9035 160.37 61.7176C159.542 63.391 159.052 64.8552 158.9 66.1102C158.742 67.3991 158.99 68.0888 159.644 68.168C160.291 68.2471 161.142 67.7553 162.201 66.6812C163.226 65.6353 164.19 64.1315 165.085 62.1585C165.44 61.4123 165.711 60.9374 165.902 60.7283C166.049 60.5756 166.223 60.5078 166.426 60.5361C166.573 60.553 166.674 60.6152 166.73 60.7113C166.781 60.8131 166.792 60.994 166.764 61.2484C166.747 61.3275 166.657 61.5593 166.499 61.9437C165.908 63.4984 165.525 64.9908 165.35 66.4211C165.136 68.1906 165.266 69.3778 165.75 69.994C165.818 70.0844 165.868 70.1692 165.914 70.2484C165.953 70.3275 165.981 70.384 165.992 70.418C166.004 70.4519 166.009 70.4745 166.009 70.4802C165.998 70.5763 165.897 70.6724 165.7 70.7628C165.457 70.8759 165.249 70.9268 165.08 70.9041C164.736 70.8646 164.483 70.5084 164.325 69.8413C164.145 69.1008 164.145 68.0153 164.319 66.5964L164.364 66.2402C164.376 66.1328 164.393 66.0197 164.415 65.9067L164.601 64.8212ZM167.998 54.8319C168.071 54.9393 168.094 55.1146 168.06 55.3577C168.049 55.4538 168.004 55.5838 167.925 55.7477C167.835 55.923 167.728 56.1095 167.592 56.3018C167.451 56.494 167.282 56.6805 167.091 56.8727C166.905 57.048 166.702 57.2006 166.483 57.3193C166.325 57.4098 166.145 57.4946 165.93 57.5624C165.711 57.6246 165.491 57.6755 165.26 57.7207C165.046 57.7546 164.826 57.7829 164.612 57.7942C164.393 57.7999 164.19 57.7942 164.004 57.7716C163.694 57.732 163.395 57.6529 163.119 57.5342C162.843 57.4155 162.584 57.2572 162.365 57.0706C162.139 56.884 161.948 56.6692 161.779 56.4261C161.61 56.183 161.474 55.923 161.373 55.646C161.345 55.5725 161.317 55.482 161.289 55.3746C161.26 55.2616 161.244 55.1485 161.232 55.0467C161.215 54.9337 161.204 54.8376 161.198 54.7528C161.193 54.6906 161.193 54.651 161.193 54.6284C161.21 54.4758 161.244 54.3627 161.283 54.2835C161.322 54.2044 161.373 54.1422 161.424 54.097C161.469 54.0631 161.514 54.0405 161.559 54.0291C161.627 54.0178 161.689 54.0122 161.739 54.0178C161.874 54.0348 161.981 54.0744 162.06 54.1422C162.1 54.1818 162.122 54.2383 162.117 54.3175C162.1 54.6567 162.122 54.9789 162.173 55.2898C162.235 55.6064 162.342 55.8891 162.505 56.1322C162.669 56.3753 162.888 56.5844 163.176 56.7653C163.463 56.9406 163.812 57.0536 164.218 57.0989C164.319 57.1102 164.443 57.1158 164.578 57.1102C164.714 57.1045 164.854 57.0876 164.995 57.0593C165.136 57.0367 165.271 56.9971 165.401 56.9519C165.559 56.9067 165.694 56.8558 165.812 56.7936C166.004 56.6918 166.173 56.5618 166.319 56.4092C166.46 56.2622 166.59 56.1039 166.702 55.9343C166.809 55.7647 166.899 55.6008 166.984 55.4255C167.063 55.2672 167.13 55.1259 167.187 54.9959C167.249 54.8489 167.322 54.7584 167.406 54.7132C167.497 54.6623 167.581 54.6397 167.66 54.651C167.823 54.6793 167.936 54.7358 167.998 54.8319Z" fill="#C3FF5C" stroke="#C3FF5C" stroke-width="0.5" stroke-miterlimit="10"/>
<path d="M183.625 63.7705C183.388 63.7253 183.146 63.9571 182.904 64.4489C181.332 67.2416 180.177 69.1241 179.428 70.0909C179.355 70.17 179.254 70.2944 179.141 70.4527C178.831 70.9162 178.532 71.3006 178.251 71.6229C177.975 71.9564 177.761 72.1882 177.614 72.3126C177.462 72.4765 177.361 72.55 177.299 72.5444C177.102 72.5218 176.978 72.4426 176.921 72.3126C176.859 72.1939 176.842 71.996 176.876 71.7133C176.921 71.3515 177.276 70.8653 177.952 70.2548C178.673 69.5029 179.625 68.2083 180.803 66.3653C181.929 64.6581 182.865 63.1204 183.602 61.741C183.698 61.4979 183.805 61.3792 183.918 61.3961C183.986 61.4018 184.115 61.464 184.307 61.577C184.47 61.7014 184.566 61.8088 184.594 61.9049C184.639 62.0745 184.695 62.7359 184.769 63.8779C184.876 66.0827 185.062 67.8408 185.326 69.1524C185.585 70.5488 185.923 71.5042 186.357 72.0243C186.521 72.1882 186.616 72.2956 186.644 72.3408C186.656 72.3408 186.667 72.3408 186.667 72.3352C186.639 72.5444 186.571 72.7366 186.453 72.9005C186.335 73.0645 186.228 73.1662 186.143 73.1945C186.047 73.2284 185.828 73.2284 185.495 73.1888C185.366 73.0645 185.146 72.68 184.836 72.0356C184.459 71.278 184.16 69.2429 183.952 65.9414C183.912 65.0425 183.856 64.4319 183.788 64.1153L183.766 63.7988L183.625 63.7705Z" fill="#C3FF5C" stroke="#C3FF5C" stroke-width="0.5" stroke-miterlimit="10"/>
<path d="M195.77 65.3706C195.917 65.3367 196.052 65.3593 196.176 65.4441C196.3 65.5289 196.379 65.6476 196.407 65.8002C196.441 65.9529 196.413 66.0999 196.328 66.2299L196.176 66.439C196.092 66.586 195.979 66.7669 195.838 66.9761C195.697 67.1853 195.585 67.3549 195.494 67.4962C195.404 67.6375 195.235 67.9032 194.982 68.299C194.728 68.6947 194.492 69.0791 194.261 69.4522C194.041 69.8084 193.872 70.0967 193.748 70.3228C193.619 70.5377 193.393 70.9164 193.078 71.4648C192.864 71.8492 192.695 72.1658 192.559 72.4089C192.61 72.5276 192.661 72.635 192.706 72.7368L192.779 72.946C192.83 73.076 192.824 73.2173 192.757 73.3643C192.695 73.5113 192.599 73.6187 192.469 73.6752C192.283 73.7657 192.109 73.7431 191.945 73.6131C191.912 73.6809 191.883 73.7374 191.867 73.7883C191.613 74.2858 191.354 74.7946 191.078 75.3147C190.813 75.8122 190.531 76.3492 190.233 76.9372C189.929 77.5251 189.748 77.8756 189.681 77.9943C189.63 78.0961 189.568 78.2318 189.495 78.3957C189.461 78.4749 189.433 78.5427 189.41 78.6049L189.394 78.7292C189.377 78.8875 189.303 79.0119 189.185 79.0967C189.067 79.1872 188.932 79.2211 188.785 79.2041C188.639 79.1872 188.52 79.1137 188.425 78.9893C188.334 78.8649 188.295 78.7236 188.312 78.5766L188.329 78.4522C188.363 78.2996 188.425 78.113 188.515 77.8926C188.588 77.7286 188.661 77.5816 188.734 77.4516C188.802 77.3329 188.982 76.9824 189.287 76.3945C189.591 75.8065 189.867 75.2581 190.126 74.7494C190.391 74.2575 190.644 73.76 190.898 73.2625C191.078 72.8781 191.23 72.5672 191.354 72.3411C191.224 72.0414 191.129 71.7927 191.061 71.6005C190.982 71.4026 190.903 71.2048 190.83 71.0012C190.751 70.7751 190.672 70.549 190.588 70.3172C190.52 70.0967 190.402 69.7179 190.222 69.1809C190.041 68.6438 189.906 68.2255 189.816 67.9146C189.703 67.6036 189.574 67.2588 189.427 66.8913L189.219 66.3147C189.174 66.1677 189.174 66.0264 189.23 65.8794C189.287 65.7324 189.388 65.6306 189.529 65.5741C189.67 65.5176 189.81 65.5176 189.946 65.5741C190.081 65.6306 190.177 65.738 190.239 65.8907L190.453 66.4673C190.599 66.8404 190.723 67.1853 190.83 67.5132C190.943 67.8524 191.084 68.282 191.253 68.8021C191.433 69.3392 191.551 69.7179 191.613 69.9497C191.681 70.1702 191.754 70.3907 191.838 70.5999C191.895 70.7808 191.957 70.9504 192.024 71.1086C192.075 71.0295 192.109 70.9617 192.126 70.9051C192.452 70.3342 192.678 69.9384 192.813 69.7179C192.931 69.4918 193.112 69.1978 193.343 68.836C193.568 68.4573 193.804 68.0615 194.064 67.6602C194.323 67.2588 194.497 66.9874 194.599 66.8404C194.7 66.6991 194.813 66.5295 194.937 66.3316C195.061 66.1338 195.173 65.9642 195.269 65.8172L195.416 65.608C195.511 65.4893 195.624 65.4045 195.77 65.3706Z" fill="#C3FF5C" stroke="#C3FF5C" stroke-width="0.5" stroke-miterlimit="10"/>
<path d="M204.874 68.5916L204.344 68.976C203.313 69.7788 202.344 70.395 201.426 70.8303C200.531 71.2543 199.86 71.4409 199.41 71.3843C198.857 71.3165 198.469 71.0112 198.238 70.4741C197.99 69.8862 197.905 69.2304 197.996 68.5012C198.119 67.4723 198.429 66.3416 198.914 65.1092C199.139 64.5495 199.393 64.1481 199.674 63.9164C199.956 63.6789 200.266 63.5828 200.609 63.628C200.694 63.6393 200.762 63.7185 200.818 63.8598C200.891 64.0577 200.914 64.2782 200.885 64.5213C200.84 64.8718 200.621 65.3353 200.215 65.912C199.635 66.7486 199.302 67.4892 199.224 68.1393C199.179 68.5238 199.195 68.9025 199.269 69.287C199.314 69.5018 199.404 69.677 199.528 69.8184C199.657 69.9597 199.815 70.0388 200.001 70.0615C200.671 70.1463 201.545 69.8353 202.609 69.1343C203.708 68.439 204.423 67.7888 204.767 67.1839C205.105 66.579 205.291 66.0985 205.336 65.7367C205.353 65.5784 205.358 65.4314 205.341 65.2901C205.336 65.177 205.341 65.064 205.353 64.9509C205.381 64.7417 205.482 64.493 205.657 64.2103C205.803 63.9785 205.967 63.8768 206.141 63.8937C206.4 63.9277 206.564 63.9955 206.631 64.0973C206.648 64.1199 206.66 64.1708 206.671 64.2499C206.682 64.329 206.682 64.4421 206.682 64.6004C206.682 64.753 206.665 64.9283 206.643 65.1205C206.592 65.5219 206.429 66.4094 206.141 67.7719C206.079 68.0828 206.023 68.3768 205.984 68.6594C205.826 69.5527 205.527 70.8642 205.082 72.5828C204.947 73.1142 204.812 73.5947 204.677 74.03C204.547 74.4654 204.44 74.7876 204.367 75.0024C204.294 75.2172 204.237 75.336 204.209 75.3699C204.108 75.4943 203.978 75.5508 203.815 75.5282C203.55 75.4943 203.375 75.4434 203.291 75.3642C203.206 75.2907 203.173 75.1833 203.184 75.0476C203.206 74.8554 203.251 74.6915 203.313 74.5558C203.443 74.2845 203.911 72.5206 204.711 69.2587L204.874 68.5916Z" fill="#C3FF5C" stroke="#C3FF5C" stroke-width="0.5" stroke-miterlimit="10"/>
<path d="M208.491 65.2617C208.671 65.3239 208.947 65.4313 209.319 65.584C209.291 65.8723 209.24 66.3019 209.172 66.8729C209.105 67.4495 209.048 67.9074 209.014 68.2636C208.975 68.6141 208.953 69.0381 208.936 69.5356C208.919 70.0274 208.936 70.4853 208.975 70.898C208.975 70.9546 208.964 71.1468 208.953 71.4747C208.936 71.8025 208.93 72.0287 208.936 72.153C208.941 72.2774 208.958 72.4583 208.992 72.6845C209.026 72.9162 209.082 73.1198 209.155 73.3007C209.206 73.4759 209.279 73.702 209.369 73.9904C209.443 74.1882 209.578 74.3409 209.764 74.4483C209.955 74.5557 210.158 74.6122 210.372 74.6066C210.586 74.6009 210.783 74.55 210.958 74.4426C211.133 74.3069 211.29 74.1487 211.437 73.9677C211.583 73.7868 211.747 73.5494 211.927 73.2498C212.113 72.9502 212.231 72.7523 212.287 72.6618C212.361 71.8139 212.468 70.8585 212.609 69.8069C212.755 68.7554 212.93 67.8113 213.144 66.9803C213.29 66.969 213.555 66.9577 213.949 66.9351C214 67.2347 214.023 67.5456 214.034 67.8792C214.039 68.2127 214.028 68.5123 214.006 68.7724C213.983 69.0324 213.944 69.349 213.882 69.7165C213.82 70.0896 213.763 70.3836 213.713 70.5984C213.662 70.8189 213.594 71.1298 213.499 71.5368C213.403 71.9439 213.341 72.2378 213.296 72.4244C213.183 72.8936 213.228 73.3742 213.425 73.8603C213.623 74.3465 213.915 74.714 214.304 74.9627C214.575 75.0588 214.845 75.0701 215.11 75.0023C215.38 74.9288 215.611 74.8044 215.814 74.6122C216.011 74.4257 216.186 74.2052 216.332 73.9508C216.479 73.6964 216.58 73.4307 216.642 73.1537C217.172 70.785 217.543 68.9703 217.757 67.7096C217.943 67.2121 218.095 66.7938 218.208 66.4432C218.58 66.5846 218.828 66.6807 218.952 66.7316C218.912 67.2347 218.839 67.7718 218.732 68.3597C218.625 68.942 218.529 69.4395 218.433 69.8409C218.338 70.2479 218.202 70.7906 218.033 71.4747C217.859 72.1587 217.741 72.6618 217.667 72.9784C217.65 73.1989 217.667 73.4194 217.707 73.6512C217.746 73.8773 217.797 74.0752 217.853 74.2448C217.91 74.4144 218 74.6179 218.124 74.8497C218.248 75.0814 218.349 75.2623 218.422 75.3924C218.501 75.5224 218.619 75.709 218.783 75.9633C218.946 76.2177 219.059 76.3873 219.121 76.4778C219.087 76.5287 219.019 76.6304 218.924 76.7831C218.822 76.9357 218.755 77.0375 218.721 77.0884C218.535 77.0375 218.371 76.9583 218.219 76.8566C218.073 76.7492 217.938 76.6135 217.814 76.4495C217.695 76.2799 217.588 76.1273 217.51 75.9916C217.425 75.8503 217.329 75.675 217.222 75.4546C217.11 75.2397 217.025 75.0701 216.969 74.9627C216.755 75.2737 216.484 75.5111 216.163 75.6694C215.842 75.8277 215.504 75.9068 215.149 75.9125C214.794 75.9181 214.451 75.8842 214.113 75.8051C213.775 75.7316 213.442 75.6185 213.116 75.4715C212.885 75.1267 212.614 74.7705 212.321 74.4087C212.13 74.8553 211.826 75.1776 211.414 75.3698C211.003 75.562 210.575 75.6242 210.13 75.562C209.685 75.4998 209.285 75.3358 208.93 75.0758C208.417 74.5557 208.136 73.7981 208.096 72.8032C208.079 72.6845 208.046 72.464 208 72.1474C207.955 71.8308 207.916 71.5821 207.882 71.4068C207.877 70.9263 207.893 70.3949 207.933 69.8126C207.972 69.2303 208.017 68.7554 208.062 68.388C208.107 68.0205 208.181 67.4778 208.282 66.7485C208.389 66.0079 208.457 65.5161 208.491 65.2617Z" fill="#C3FF5C" stroke="#C3FF5C" stroke-width="0.5" stroke-miterlimit="10"/>
<path d="M221.932 71.6952C221.971 71.5878 222.011 71.4747 222.056 71.3447C222.197 70.9376 222.315 70.6493 222.411 70.4741C222.495 70.2988 222.664 70.0331 222.912 69.6826C223.171 69.3208 223.43 69.0268 223.678 68.8007C223.92 68.5859 224.123 68.4389 224.287 68.3428C224.461 68.241 224.709 68.1506 225.019 68.0714C225.34 67.9866 225.633 67.9414 225.903 67.9414C226.157 67.9471 226.45 67.9866 226.776 68.0714C227.103 68.1562 227.345 68.2354 227.509 68.3145C227.672 68.3937 227.847 68.4898 228.033 68.6141C228.247 68.7668 228.433 68.959 228.602 69.2021C228.788 69.4565 228.906 69.6543 228.951 69.7957C229.013 69.9427 229.058 70.1801 229.092 70.508C229.114 70.8359 229.114 71.079 229.081 71.2316C229.047 71.3842 228.979 71.5652 228.866 71.78C228.748 72.0061 228.613 72.1983 228.461 72.3566C228.314 72.4753 228.179 72.5714 228.061 72.6393C227.937 72.7071 227.729 72.7806 227.441 72.8654C227.193 72.9163 226.991 72.9559 226.838 72.9841C226.686 73.0124 226.405 73.0293 225.988 73.0293C225.599 73.035 225.317 73.035 225.148 73.0293C224.979 73.0237 224.81 73.0067 224.641 72.9898C224.495 72.9728 224.247 72.9332 223.898 72.8767C223.549 72.8202 223.323 72.7806 223.216 72.7636C223.109 72.741 223.013 72.7297 222.923 72.7184C222.884 72.7128 222.833 72.7071 222.777 72.7015C222.749 72.8089 222.726 72.9106 222.698 73.0124C222.67 73.1481 222.647 73.4081 222.63 73.7982C222.613 74.1883 222.613 74.4483 222.625 74.5727C222.636 74.714 222.658 74.8553 222.698 75.008C222.72 75.138 222.782 75.3415 222.878 75.6355C222.963 75.8899 223.058 76.0821 223.154 76.2178C223.267 76.393 223.363 76.5174 223.453 76.5966C223.52 76.6757 223.667 76.7831 223.898 76.9188C224.123 77.0714 224.326 77.1902 224.506 77.275C224.686 77.3541 224.901 77.4163 225.143 77.4559C225.408 77.518 225.588 77.5463 225.684 77.5407C225.762 77.552 225.92 77.5237 226.157 77.4559C226.365 77.3993 226.506 77.3484 226.579 77.3089C226.653 77.2636 226.715 77.2071 226.776 77.1336C226.838 77.0601 226.929 76.9358 227.053 76.7492C227.171 76.5513 227.255 76.393 227.306 76.2743C227.362 76.1613 227.407 76.0538 227.441 75.9634L227.498 75.8051C227.543 75.6525 227.633 75.5394 227.768 75.4772C227.903 75.4094 228.044 75.4037 228.185 75.4433C228.326 75.4885 228.433 75.5846 228.495 75.726C228.557 75.8673 228.568 76.0143 228.523 76.1613L228.461 76.3535C228.405 76.4835 228.343 76.6305 228.264 76.7831C228.19 76.9358 228.078 77.1336 227.931 77.3711C227.785 77.6255 227.65 77.812 227.531 77.9307C227.413 78.0494 227.289 78.1569 227.154 78.253C227.007 78.3604 226.765 78.4678 226.416 78.5695C226.072 78.6543 225.808 78.6939 225.633 78.6939C225.47 78.6883 225.233 78.6487 224.917 78.5865C224.591 78.5187 224.303 78.4339 224.061 78.3265C223.819 78.2134 223.565 78.0721 223.306 77.9025C223.019 77.7103 222.811 77.5463 222.675 77.4219C222.557 77.2976 222.428 77.1223 222.275 76.9018C222.112 76.6644 221.977 76.3761 221.859 76.0199C221.735 75.692 221.656 75.432 221.628 75.2454C221.583 75.0645 221.554 74.8949 221.532 74.7253C221.515 74.5388 221.515 74.2165 221.537 73.7643C221.554 73.312 221.588 72.9898 221.628 72.8032C221.661 72.6223 221.706 72.4414 221.752 72.2548C221.757 72.2153 221.768 72.1757 221.785 72.1361C221.791 72.0966 221.797 72.0626 221.797 72.0344C221.813 71.9043 221.853 71.7969 221.932 71.6952ZM223.137 71.5821C223.227 71.5934 223.318 71.6104 223.408 71.633C223.509 71.6443 223.729 71.6839 224.061 71.7404C224.394 71.7969 224.63 71.8365 224.782 71.8535C224.929 71.8704 225.075 71.8817 225.21 71.8817C225.351 71.8817 225.61 71.8761 225.988 71.8704C226.36 71.8761 226.602 71.8704 226.715 71.8535C226.822 71.8365 226.979 71.8026 227.188 71.7461C227.374 71.7008 227.492 71.6613 227.548 71.633C227.593 71.5991 227.655 71.5425 227.734 71.469C227.79 71.4238 227.847 71.3503 227.898 71.2486C227.948 71.1298 227.988 71.045 228.01 70.9885C228.016 70.932 228.01 70.8076 227.999 70.6041C227.982 70.4006 227.965 70.2706 227.948 70.214C227.914 70.1575 227.847 70.0501 227.74 69.9087C227.638 69.7561 227.531 69.6487 227.413 69.5752C227.272 69.4734 227.154 69.3999 227.047 69.3491C226.94 69.2982 226.76 69.2417 226.495 69.1851C226.247 69.1116 226.039 69.0777 225.864 69.089C225.701 69.0834 225.503 69.1116 225.272 69.1795C225.041 69.2473 224.878 69.2982 224.782 69.3434C224.681 69.4 224.54 69.5074 224.348 69.6713C224.157 69.8296 223.965 70.0557 223.774 70.344C223.56 70.6437 223.425 70.8641 223.368 70.9998C223.312 71.1016 223.239 71.2994 223.137 71.5821Z" fill="#C3FF5C" stroke="#C3FF5C" stroke-width="0.5" stroke-miterlimit="10"/>
<path d="M28.4879 72.5534L28.7808 72.7456C30.054 73.5257 30.5441 75.086 30.2624 77.4265C30.0427 79.2073 29.3498 80.7054 28.1781 81.9095C27.1303 83.1193 26.1106 83.662 25.1135 83.5377C24.1727 83.4246 23.4798 82.8876 23.0235 81.9378C22.556 80.9598 22.432 79.5804 22.6517 77.794C22.9165 75.6005 23.5362 73.4296 24.5107 71.2757C25.4628 69.2236 26.4712 67.7085 27.5246 66.7418C28.5386 65.7921 29.5132 65.3737 30.437 65.4868C31.0173 65.5603 31.4623 65.8147 31.7609 66.25C32.0594 66.7022 32.1665 67.2958 32.0763 68.0364C32.0031 68.63 31.6651 69.3141 31.068 70.0942C30.4427 70.8913 29.6822 71.6262 28.7808 72.299L28.4879 72.5534ZM28.916 77.5848V77.5622C29.0512 76.4372 28.9836 75.4987 28.7076 74.7525C28.4428 73.9667 28.0823 73.5427 27.6316 73.4862C27.5922 73.4805 27.5528 73.4862 27.5133 73.4918C27.4739 73.5031 27.4232 73.5144 27.3669 73.5427C27.3105 73.5653 27.2542 73.5936 27.2035 73.6218C27.1528 73.6501 27.0796 73.6897 26.9951 73.7462C26.9106 73.8027 26.8317 73.8536 26.7585 73.8989C26.6852 73.9497 26.5895 74.0232 26.4712 74.1137C26.3529 74.2041 26.2458 74.2833 26.1613 74.3511C26.0768 74.419 25.9529 74.5151 25.7951 74.6338C25.6374 74.7525 25.5022 74.8543 25.3895 74.9391C25.0234 75.1878 24.6685 75.4139 24.3192 75.6174L24.2347 75.6683L24.2009 75.7757C24.0206 76.4032 23.8798 77.1043 23.7897 77.8675C23.6207 79.2412 23.6826 80.304 23.9699 81.0615C24.2798 81.87 24.7473 82.3109 25.3726 82.3844C26.212 82.4862 26.9725 82.0226 27.6429 80.988C28.3414 79.9987 28.7639 78.8624 28.916 77.5848ZM24.4431 74.5094L25.029 74.1419C27.5133 72.3725 29.085 71.0779 29.7498 70.2525C30.4821 69.4158 30.8821 68.7205 30.9497 68.1664C31.006 67.7142 30.9497 67.3467 30.7807 67.0641C30.6117 66.7814 30.3413 66.6118 29.9638 66.5666C29.1414 66.4648 28.2457 67.0754 27.2767 68.3982C26.3416 69.6759 25.474 71.4906 24.6741 73.8367L24.4431 74.5094Z" fill="#C3FF5C" stroke="#C3FF5C" stroke-width="0.5" stroke-miterlimit="10"/>
<path d="M36.3747 77.9312L37.0169 78.1573C37.7774 78.3948 38.3407 78.7848 38.7069 79.3219C39.0674 79.859 39.2082 80.4752 39.1237 81.1705C38.9829 82.3068 38.4421 83.1944 37.4901 83.8389C37 84.1724 36.4761 84.4042 35.9184 84.5286C35.4057 84.6529 34.8424 84.6755 34.2227 84.6021C33.4397 84.5059 32.7637 84.2289 32.1947 83.771C31.6708 83.3414 31.4342 82.923 31.4793 82.5217C31.4962 82.386 31.5356 82.2955 31.5976 82.2503C31.6595 82.2051 31.7722 82.1938 31.93 82.2107C31.9694 82.2333 32.0145 82.2842 32.0821 82.3464C32.4201 82.7421 32.8031 83.0531 33.2313 83.2792C33.6481 83.5053 34.0763 83.641 34.51 83.6975C35.2818 83.7936 35.986 83.6071 36.6282 83.1379C37.383 82.663 37.8168 81.9733 37.9238 81.0744C37.9971 80.4582 37.8562 79.9211 37.5013 79.4519C37.1521 79.0223 36.7577 78.7792 36.3071 78.7227C35.9916 78.6831 35.4226 78.7679 34.6114 78.9714C34.4762 79.011 34.3241 79.0166 34.1664 78.9997C34.0425 78.9827 33.958 78.9318 33.9185 78.847C33.8791 78.7622 33.8678 78.5926 33.9016 78.3439C33.9129 78.2421 33.9749 78.163 34.0875 78.1065C34.2622 78.016 34.6114 77.9312 35.1353 77.8408C36.9267 77.5411 37.9013 76.7157 38.0703 75.3646C38.121 74.9463 38.0196 74.5845 37.7661 74.2792C37.5464 73.9796 37.2535 73.81 36.8929 73.7647C36.2845 73.6912 35.5973 73.94 34.8311 74.5223C34.3805 74.8049 34.0706 74.9406 33.896 74.918C33.7552 74.9011 33.6594 74.8671 33.6256 74.8162C33.5862 74.7654 33.5749 74.6749 33.5918 74.5449C33.6143 74.3583 33.7383 74.1661 33.9692 73.957C34.2002 73.7478 34.5438 73.5443 35.0114 73.3464C35.8113 72.9224 36.5493 72.7528 37.2197 72.8376C37.9407 72.9281 38.4928 73.2107 38.8815 73.6856C39.2589 74.1605 39.4167 74.624 39.366 75.065C39.2195 76.2522 38.4421 77.1115 37.0338 77.6485L36.3747 77.9312Z" fill="#C3FF5C" stroke="#C3FF5C" stroke-width="0.5" stroke-miterlimit="10"/>
<path d="M43.7542 74.3484C44.0584 74.2523 44.3626 74.1901 44.6668 74.1506C44.9653 74.111 45.2808 74.1053 45.6019 74.1223C45.923 74.1449 46.2216 74.2354 46.4976 74.388C46.7736 74.5406 46.9877 74.7668 47.1511 75.0551C47.2412 75.0607 47.4215 75.0777 47.6975 75.1003C47.9679 75.1286 48.1538 75.1455 48.244 75.1568C48.1426 78.5375 47.8215 81.8051 47.2863 84.9426C47.2131 84.9483 47.0666 84.9653 46.8413 84.9879C46.6159 85.0105 46.4694 85.0331 46.3962 85.0444C46.4525 84.4621 46.4976 84.0042 46.5201 83.665C46.5427 83.3258 46.5652 82.9075 46.5765 82.41C46.5877 81.9068 46.5821 81.4489 46.5652 81.0306C45.9624 81.5111 45.478 81.9012 45.1174 82.1952C44.7569 82.4891 44.3231 82.8622 43.8218 83.3089C43.3148 83.7555 42.8641 84.1795 42.4698 84.5808C42.3965 84.6883 42.312 84.7674 42.2219 84.8126C42.1261 84.8579 42.0247 84.8748 41.9177 84.8522C41.8107 84.8296 41.7093 84.807 41.6191 84.773C41.529 84.7391 41.4276 84.6939 41.298 84.6374C41.1741 84.5752 41.0783 84.5356 41.0164 84.513C41.0445 84.496 41.1065 84.4678 41.2023 84.4225C41.298 84.3773 41.36 84.3491 41.3882 84.3321C41.5741 84.0438 41.8107 83.7555 42.1036 83.4615C42.3965 83.1732 42.6726 82.9244 42.9317 82.7209C43.1908 82.5174 43.4838 82.2743 43.7992 81.9973C44.1147 81.7203 44.3795 81.4546 44.5879 81.2002C44.233 81.155 43.8837 81.0758 43.5457 80.9514C43.2077 80.8327 42.881 80.6688 42.5768 80.4766C42.2726 80.2844 42.0078 80.0243 41.7994 79.7134C41.5853 79.4024 41.4558 79.0633 41.4051 78.6901C41.1572 77.8195 41.3262 76.8811 41.9177 75.8748C42.481 75.1738 43.1007 74.665 43.7542 74.3484ZM44.1879 75.4112C43.9739 75.5073 43.7542 75.6035 43.5401 75.6939C42.4979 76.5871 42.1092 77.4521 42.3627 78.3057C42.4754 78.8371 42.7627 79.2724 43.219 79.606C43.6753 79.9395 44.1654 80.0921 44.6837 80.0582C45.5118 79.883 46.2328 79.5042 46.8525 78.9219C46.8581 78.8937 46.8751 78.8202 46.9032 78.7014C46.937 78.5827 46.9539 78.5036 46.9596 78.464C46.9652 78.4244 46.9877 78.3509 47.0102 78.2379C47.0384 78.1248 47.0553 78.04 47.061 77.9948C47.0666 77.9496 47.0779 77.8704 47.1004 77.763C47.1173 77.6612 47.1342 77.5764 47.1342 77.5199C47.1398 77.4634 47.1398 77.3842 47.1455 77.2938C47.1511 77.2033 47.1511 77.1242 47.1455 77.0563C47.1398 76.9885 47.1286 76.915 47.1173 76.8359C47.106 76.7567 47.0891 76.6719 47.0722 76.5984C46.9426 76.4288 46.7455 76.197 46.4807 75.8974C46.2159 75.5978 46.0357 75.3886 45.9343 75.2643C45.5737 75.2134 45.2526 75.1964 44.9766 75.2077C44.7062 75.2077 44.4414 75.2812 44.1879 75.4112Z" fill="#C3FF5C" stroke="#C3FF5C" stroke-width="0.5" stroke-miterlimit="10"/>
<path d="M50.6891 76.1413C50.7736 76.017 50.8919 75.9435 51.0383 75.9208C51.1848 75.8982 51.3144 75.9322 51.4383 76.0226C51.5622 76.1131 51.6355 76.2318 51.6524 76.3788L51.6918 76.684C51.7256 76.9441 51.7087 77.2381 51.6411 77.5716C51.596 77.8486 51.5341 78.2839 51.4608 78.8719C51.3763 79.4428 51.3256 79.8329 51.2975 80.0364C51.2862 80.2513 51.2693 80.4774 51.2524 80.7148C51.2411 80.794 51.2355 80.9014 51.2355 81.0371C51.3087 80.8844 51.3932 80.7092 51.489 80.5056C51.7312 79.9799 51.9791 79.5333 52.2382 79.1602C52.4974 78.7927 52.7058 78.527 52.8635 78.3744C52.9987 78.2161 53.2241 78.0126 53.5395 77.7638C53.8832 77.4812 54.1986 77.272 54.4859 77.1306C54.7732 76.978 55.0493 76.8819 55.3084 76.848C55.5844 76.7971 55.821 76.7914 56.0182 76.831C56.2323 76.8706 56.4463 76.9667 56.6604 77.1193C56.8745 77.272 57.0209 77.4303 57.1054 77.5999C57.1787 77.7469 57.2744 78.0408 57.3815 78.4874C57.466 78.8945 57.511 79.2111 57.5336 79.4428C57.5448 79.6746 57.5561 80.0025 57.573 80.4265C57.5786 80.5848 57.5899 80.7374 57.6068 80.8788C57.7139 80.647 57.8941 80.3474 58.142 79.9686C58.4293 79.522 58.6377 79.2167 58.7786 79.0528C58.9138 78.8945 59.0997 78.7079 59.3306 78.5044C59.5898 78.2783 59.8095 78.12 59.9897 78.0239C60.1813 77.9108 60.401 77.8317 60.6488 77.7921C60.9756 77.7469 61.291 77.8373 61.6009 78.0521C61.8994 78.2613 62.1135 78.5383 62.2487 78.8832C62.3332 79.1658 62.3895 79.4033 62.429 79.6011C62.4459 79.7877 62.4628 80.1551 62.474 80.6979C62.4966 81.2575 62.5078 81.6589 62.4966 81.9133C62.4853 82.1677 62.4797 82.5408 62.474 83.0383C62.4515 83.5358 62.4346 83.9541 62.4177 84.2877C62.4008 84.6269 62.3726 84.9604 62.3332 85.294C62.305 85.6162 62.2881 85.8989 62.2712 86.1363C62.2543 86.3737 62.2487 86.5546 62.2487 86.6621V86.8373C62.2431 86.9956 62.1867 87.1256 62.0797 87.233C61.9727 87.3404 61.8487 87.3857 61.7023 87.3857C61.5558 87.38 61.4319 87.3235 61.3305 87.2104C61.2291 87.0974 61.1727 86.9617 61.1671 86.809L61.184 86.6564C61.184 86.532 61.1896 86.3398 61.1953 86.0854C61.2122 85.831 61.2347 85.5258 61.2572 85.1752C61.2967 84.853 61.3248 84.5308 61.3361 84.2085C61.3474 83.8863 61.3643 83.4849 61.3868 83.0044C61.4037 82.5239 61.4206 82.1564 61.4206 81.902C61.4262 81.6589 61.415 81.2745 61.3981 80.7431C61.3812 80.2117 61.3586 79.8781 61.3361 79.7368C61.3248 79.6237 61.291 79.4711 61.2347 79.2789C61.1953 79.1658 61.1164 79.0697 61.0037 78.9906C60.9192 78.9227 60.8573 78.8945 60.8178 78.9058C60.6995 78.9171 60.5925 78.9567 60.5024 79.0132C60.3784 79.081 60.2207 79.1997 60.0348 79.3637C59.8207 79.5389 59.6686 79.6859 59.5672 79.8103C59.4658 79.9347 59.2856 80.1947 59.0264 80.5961C58.7673 80.9975 58.6039 81.2858 58.5251 81.4554C58.4518 81.6476 58.3448 81.9359 58.2096 82.3147C58.0744 82.6991 57.9561 83.0948 57.8547 83.5019C57.7307 83.9711 57.6575 84.2538 57.635 84.3499C57.5899 84.5025 57.5223 84.6947 57.4378 84.9265C57.3589 85.1583 57.297 85.3279 57.2575 85.4353C57.2463 85.4353 57.2294 85.4409 57.2181 85.4523C57.2012 85.4636 57.173 85.4749 57.1223 85.4918C57.0716 85.5088 57.0266 85.5201 56.9759 85.5371C56.9252 85.554 56.8632 85.5653 56.8012 85.5766C56.7336 85.5879 56.6717 85.5936 56.6153 85.5936C56.559 85.5936 56.5083 85.5879 56.452 85.5823C56.4013 85.5766 56.3506 85.5597 56.3111 85.5371C56.2661 85.5088 56.2379 85.4749 56.2097 85.4296C56.1872 85.3844 56.1759 85.3279 56.1872 85.26C56.1985 85.1526 56.2041 85.0905 56.1985 85.0791C56.1928 85.0678 56.1985 85.0509 56.2154 85.0226C56.2323 84.9943 56.2548 84.9548 56.2773 84.9039C56.3168 84.7852 56.3562 84.6382 56.39 84.4686C56.4238 84.2877 56.4632 84.0389 56.497 83.7337C56.5196 83.4227 56.5365 83.0779 56.5421 82.6991C56.5365 82.3034 56.5308 81.9303 56.5308 81.5854C56.5308 81.2575 56.5252 80.8844 56.5083 80.4661C56.4914 80.0421 56.4745 79.7425 56.452 79.5616C56.4463 79.3863 56.4069 79.1206 56.3337 78.7588C56.2773 78.4705 56.2266 78.2783 56.1759 78.1878C56.1534 78.1595 56.1083 78.1087 56.0351 78.0352C55.9619 77.9843 55.8886 77.956 55.821 77.9447C55.7591 77.9221 55.652 77.9278 55.5056 77.9673C55.3253 77.9899 55.1338 78.0521 54.931 78.1539C54.7282 78.2557 54.4972 78.4139 54.2324 78.6401C53.9339 78.8719 53.7311 79.0584 53.624 79.1884C53.5226 79.2845 53.3593 79.4937 53.1339 79.8159C52.9142 80.1325 52.6889 80.5283 52.4692 81.0031C52.2326 81.4893 52.0805 81.8342 52.0073 82.0377C51.9453 82.2186 51.8439 82.5521 51.6974 83.0383C51.5735 83.5358 51.489 83.8807 51.4439 84.0729C51.3989 84.2651 51.3538 84.5138 51.3031 84.8191C51.2524 85.1244 51.2186 85.3448 51.2017 85.4749C51.1961 85.5031 51.1961 85.5314 51.2017 85.571C51.2017 85.6049 51.2073 85.6727 51.2073 85.7745C51.2073 85.8763 51.1792 85.9441 51.1285 85.9893C51.0721 86.0345 50.9989 86.0685 50.9031 86.108C50.8074 86.1476 50.6609 86.125 50.4694 86.0458C50.2102 85.961 50.0525 85.8536 49.9962 85.7349C49.9398 85.6162 49.9455 85.5144 50.0243 85.441L50.1145 85.3279C50.1201 85.1526 50.1257 85.0056 50.1314 84.8813C50.137 84.7399 50.1426 84.4742 50.1539 84.0729C50.1652 83.6715 50.1652 83.3606 50.1652 83.1457C50.1595 82.9253 50.1652 82.5182 50.1708 81.9246C50.1764 81.331 50.1933 80.907 50.2102 80.6526C50.2271 80.4095 50.244 80.1778 50.2553 79.9516C50.2835 79.7255 50.3398 79.3185 50.4243 78.7249C50.4975 78.1256 50.5595 77.6734 50.6102 77.3737C50.6496 77.1646 50.6665 76.9893 50.6553 76.848L50.6102 76.571C50.5708 76.407 50.6046 76.2657 50.6891 76.1413Z" fill="#C3FF5C" stroke="#C3FF5C" stroke-width="0.5" stroke-miterlimit="10"/>
<path d="M66.1524 76.7539C66.2538 76.7652 66.4059 76.7822 66.5974 76.8104C66.789 76.8387 66.9411 76.85 67.0425 76.867C67.003 77.2288 66.9073 77.9637 66.7439 79.0604C66.5862 80.1572 66.5017 80.8977 66.5073 81.2709C66.834 81.1578 67.3129 81.0787 67.9382 81.0278C68.5635 80.9769 68.9916 80.926 69.2226 80.8808C70.0732 80.8978 71.0027 81.2143 71.9998 81.8475C72.6082 82.9555 72.7153 83.8996 72.3266 84.6741C71.7745 85.6861 70.8281 86.4775 69.4873 87.0485C69.4479 87.0655 69.3014 87.105 69.0536 87.1729C68.8057 87.2407 68.648 87.2803 68.5747 87.3029C68.5015 87.3199 68.355 87.3538 68.1353 87.4047C67.91 87.4555 67.7523 87.4782 67.6565 87.4782C67.5607 87.4782 67.4143 87.4782 67.2227 87.4782C67.0312 87.4782 66.8735 87.4612 66.7552 87.4216C66.6312 87.382 66.496 87.3255 66.3496 87.252C66.2031 87.1785 66.0623 87.0881 65.9383 86.9863C65.5046 86.2683 65.2567 85.556 65.1947 84.855C65.1778 81.7344 65.4989 79.0435 66.1524 76.7539ZM66.3665 82.8368C66.282 83.5039 66.22 84.0918 66.1806 84.6006C66.2256 84.7985 66.2707 84.9568 66.2989 85.0699C66.3327 85.1886 66.3777 85.3243 66.4397 85.4938C66.5017 85.6634 66.5749 85.8048 66.6594 85.9292C66.7439 86.0535 66.8453 86.1666 66.958 86.274C67.6847 86.3079 68.3832 86.1666 69.0648 85.8444C69.7465 85.5278 70.445 85.0812 71.1717 84.5102C71.2393 84.3123 71.29 84.1145 71.3238 83.9166C71.352 83.7187 71.3633 83.5209 71.3464 83.323C71.3295 83.1251 71.2731 82.9386 71.1717 82.769C71.0703 82.5994 70.9295 82.458 70.7436 82.3506C70.2478 82.1697 69.7521 82.0623 69.2564 82.0171C68.7606 81.9719 68.2593 82.0227 67.7523 82.1584C67.2453 82.3054 66.7833 82.5315 66.3665 82.8368Z" fill="#C3FF5C" stroke="#C3FF5C" stroke-width="0.5" stroke-miterlimit="10"/>
<path d="M96.1782 82.2615C95.5585 83.1208 94.6628 84.585 93.4854 86.6598C93.2207 87.112 92.9559 87.5417 92.6968 87.9544C92.6066 88.1183 92.4264 88.4575 92.1672 88.9833C91.7673 89.7521 91.4067 90.3231 91.0913 90.6906C90.7702 91.1146 90.5336 91.3181 90.3871 91.3011C90.0378 91.2559 89.7956 91.1768 89.666 91.058C89.5534 90.9563 89.4576 90.6566 89.3675 90.1705C89.2661 89.6956 89.1703 88.5706 89.0689 86.8068C88.9393 84.7886 88.8379 83.5448 88.7647 83.07L88.6633 82.3803L88.3366 82.9626C87.7845 83.9971 87.2831 84.9977 86.8268 85.9588C86.1621 87.3664 85.5368 88.5028 84.9509 89.3677C84.3763 90.2157 83.9763 90.7188 83.7623 90.8658C83.5707 91.0241 83.4074 91.092 83.2722 91.075C83.137 91.058 83.0187 90.9619 82.9229 90.781C82.8384 90.6114 82.799 90.4588 82.8102 90.3288C82.8497 90.2044 82.8891 90.1196 82.9285 90.0857C83.5876 89.396 84.1791 88.6497 84.6974 87.847C85.2157 87.0159 85.8917 85.7609 86.7141 84.0819C87.5254 82.5103 88.0774 81.1987 88.376 80.1472C88.438 79.9211 88.5225 79.7572 88.6351 79.661C88.7478 79.5706 88.9168 79.5423 89.1309 79.5649C89.3844 79.5932 89.5365 79.6667 89.5872 79.7798C89.6604 79.8815 89.7224 80.0963 89.7731 80.4355C89.835 80.7691 89.8632 81.0574 89.8463 81.2948V81.2835C89.8463 81.5888 89.8745 82.2559 89.9252 83.2904C89.9646 84.2798 89.9759 84.9751 89.9759 85.3878C89.9984 85.9701 90.0604 86.7446 90.1674 87.7C90.173 87.7848 90.1787 87.8979 90.1843 88.0335C90.1956 88.1522 90.2068 88.2427 90.2125 88.3049C90.2237 88.3671 90.2294 88.4519 90.2463 88.5593C90.2575 88.6723 90.2688 88.7572 90.2857 88.8137C90.297 88.8759 90.3139 88.9494 90.3308 89.0285C90.3477 89.1303 90.3589 89.2038 90.3815 89.2546C90.4096 89.3055 90.4322 89.3564 90.4603 89.4073C90.4829 89.4808 90.5167 89.5316 90.5617 89.5656C90.5955 89.5995 90.635 89.6164 90.68 89.6221C90.7251 89.6278 90.7702 89.6221 90.8096 89.6051C90.849 89.5825 90.8941 89.5373 90.9448 89.4751C90.9842 89.4412 91.0124 89.4073 91.0349 89.379C91.0631 89.3507 91.1025 89.2886 91.1476 89.1981C91.1814 89.1303 91.2039 89.0907 91.2208 89.0624C91.2377 89.0342 91.2659 88.9833 91.2997 88.8928C91.3448 88.8137 91.3673 88.7685 91.3729 88.7571L92.4038 86.7615C92.5897 86.4223 92.7869 86.0888 92.9897 85.7609L94.353 83.3696C95.0966 82.1146 95.6599 81.21 96.043 80.656C96.4148 80.085 96.657 79.7458 96.7697 79.6441C96.8486 79.531 96.9274 79.4745 96.995 79.4858C97.2091 79.5141 97.4457 79.6102 97.6992 79.7798C97.7781 79.8476 97.84 79.9041 97.8964 79.9607C97.9358 80.0398 97.964 80.0963 97.9752 80.1246C97.9809 80.2094 97.9809 80.2659 97.9752 80.2886C97.9696 80.4582 97.9076 81.1761 97.8006 82.4368L97.5358 85.6479C97.4513 86.6824 97.4006 87.5643 97.3894 88.2936C97.3781 89.0907 97.4401 89.7465 97.5809 90.2609C97.795 90.911 97.8851 91.3972 97.8457 91.7195C97.8062 92.053 97.6992 92.2678 97.5189 92.3639C97.2823 92.46 97.0739 92.494 96.8824 92.4713C96.5444 92.4318 96.319 92.0134 96.2064 91.222C96.0655 90.4418 96.1613 88.2201 96.4937 84.5624C96.5951 83.4035 96.612 82.6799 96.55 82.3859L96.4599 81.8262L96.1782 82.2615Z" fill="#C3FF5C" stroke="#C3FF5C" stroke-width="0.5" stroke-miterlimit="10"/>
<path d="M107.09 87.3708L106.487 88.264C105.58 89.6886 104.696 90.774 103.845 91.5033C103.017 92.2213 102.273 92.5379 101.62 92.4587C101.265 92.4135 100.921 92.1252 100.583 91.5824C100.245 91.0284 100.138 90.2087 100.274 89.1346C100.386 88.2188 100.752 86.8846 101.372 85.1208C101.89 83.6679 102.195 82.6164 102.29 81.9719C102.465 81.7062 102.696 81.5931 102.983 81.6327C103.175 81.6553 103.321 81.7458 103.423 81.9041C103.53 82.068 103.569 82.2319 103.552 82.3902C103.496 82.8368 103.265 83.4644 102.859 84.2784C102.031 85.9518 101.541 87.416 101.389 88.671C101.231 89.96 101.479 90.6497 102.133 90.7288C102.78 90.808 103.625 90.3105 104.679 89.242C105.699 88.1961 106.668 86.6867 107.574 84.7194C107.929 83.9732 108.2 83.4983 108.391 83.2891C108.532 83.1308 108.712 83.0686 108.915 83.0912C109.062 83.1082 109.163 83.1704 109.219 83.2665C109.27 83.3682 109.287 83.5492 109.253 83.8036C109.236 83.8827 109.152 84.1145 108.988 84.4989C108.397 86.0536 108.014 87.546 107.839 88.9706C107.625 90.7401 107.755 91.9329 108.239 92.5435C108.307 92.634 108.358 92.7188 108.403 92.7979C108.442 92.877 108.47 92.9336 108.481 92.9675C108.493 93.0014 108.498 93.024 108.498 93.0297C108.487 93.1258 108.386 93.2219 108.189 93.3123C107.946 93.4254 107.738 93.4763 107.569 93.4537C107.225 93.4141 106.972 93.0579 106.814 92.3909C106.634 91.6503 106.634 90.5649 106.808 89.1459L106.853 88.7897C106.865 88.6823 106.882 88.5693 106.904 88.4505L107.09 87.3708Z" fill="#C3FF5C" stroke="#C3FF5C" stroke-width="0.5" stroke-miterlimit="10"/>
<path d="M113.264 88.3236L113.569 88.3067C115.073 88.1936 116.504 87.2721 117.867 85.5479C118.47 84.7904 118.993 84.2646 119.427 83.9706C119.855 83.7049 120.284 83.5975 120.706 83.6484C120.836 83.6654 120.965 83.7558 121.095 83.9141C121.219 84.0611 121.275 84.225 121.252 84.4003C121.23 84.6038 120.965 84.7564 120.458 84.8525C120.092 84.926 119.743 85.0787 119.41 85.3048C119.095 85.5366 118.515 86.1076 117.675 87.0234C117.056 87.7018 116.515 88.1654 116.064 88.4141C116.058 88.4141 116.047 88.4141 116.042 88.4198C116.03 88.4254 116.019 88.4311 116.008 88.4367C115.997 88.4424 115.985 88.4537 115.968 88.465C115.951 88.4763 115.94 88.4876 115.929 88.5046C115.918 88.5159 115.906 88.5328 115.895 88.5498C115.884 88.5667 115.873 88.5894 115.867 88.6176C115.861 88.6459 115.856 88.6742 115.85 88.6968C115.844 88.7307 115.844 88.759 115.844 88.7872C115.844 88.8098 115.85 88.8324 115.856 88.8551C115.861 88.8777 115.873 88.8946 115.878 88.9172C115.884 88.9342 115.895 88.9512 115.901 88.9625C115.906 88.9738 115.923 88.9851 115.935 88.9964C115.951 89.0077 115.957 89.019 115.963 89.0247C115.968 89.0303 115.985 89.0473 116.008 89.0586C116.368 89.3695 116.729 89.9348 117.078 90.7715C117.636 92.0661 118.092 92.9028 118.447 93.2759C118.83 93.6716 119.298 93.8978 119.838 93.9656L120.171 93.9939C120.205 93.9995 120.227 93.9995 120.25 94.0052C120.255 94.0278 120.255 94.0504 120.25 94.0674C120.227 94.2539 120.086 94.4461 119.833 94.6497C119.574 94.8532 119.151 94.921 118.577 94.8475C118.148 94.7966 117.765 94.5309 117.433 94.0617C117.084 93.5529 116.706 92.7502 116.312 91.6478C116.075 90.9694 115.833 90.438 115.591 90.0649C115.326 89.6522 114.999 89.4204 114.611 89.3752C114.521 89.3638 114.273 89.4091 113.873 89.5108C113.704 89.5504 113.574 89.5843 113.484 89.6126C113.394 89.6409 113.298 89.6861 113.202 89.7483C113.107 89.8105 113.033 89.8896 112.983 89.9801C112.904 90.1384 112.802 90.6415 112.678 91.5008C112.555 92.3262 112.459 92.9876 112.397 93.4907C112.374 93.6773 112.267 93.8356 112.081 93.9713C111.879 94.1069 111.676 94.1578 111.473 94.1352C111.27 94.1126 111.124 94.0335 111.028 93.9034C110.932 93.7677 110.893 93.6434 110.904 93.5247C110.932 93.2872 111.09 92.7049 111.383 91.7835C111.907 90.0592 112.571 87.2043 113.371 83.2131C113.428 82.9022 113.58 82.6308 113.816 82.4047C114.042 82.1899 114.261 82.0937 114.492 82.122C114.571 82.1333 114.633 82.1955 114.684 82.3142C114.752 82.4782 114.768 82.6817 114.735 82.9361C114.706 83.1566 114.645 83.3997 114.549 83.671C113.997 85.0561 113.585 86.492 113.315 87.9675L113.264 88.3236Z" fill="#C3FF5C" stroke="#C3FF5C" stroke-width="0.5" stroke-miterlimit="10"/>
<path d="M129.528 86.9895C129.55 87.1478 129.522 87.2891 129.438 87.4135C129.353 87.5378 129.235 87.6113 129.083 87.634C128.931 87.6566 128.801 87.6283 128.694 87.5435L128.547 87.4417C128.463 87.3739 128.356 87.2948 128.232 87.2043C128.125 87.1365 127.973 87.0404 127.787 86.9216C127.595 86.8142 127.46 86.7407 127.37 86.6955C127.269 86.6559 127.162 86.622 127.038 86.5938C126.936 86.5655 126.79 86.5429 126.604 86.5203C126.429 86.4976 126.283 86.4977 126.165 86.509C126.046 86.5203 125.922 86.5429 125.793 86.5655C125.686 86.5938 125.5 86.6786 125.241 86.8199C124.982 86.9499 124.773 87.0856 124.621 87.2326C124.435 87.3965 124.294 87.5378 124.187 87.6453C124.091 87.7696 123.996 87.911 123.9 88.0579C123.821 88.188 123.669 88.4763 123.461 88.9286C123.246 89.3808 123.117 89.6804 123.072 89.8274C123.038 90.0083 123.004 90.1892 122.976 90.3701C122.948 90.551 122.931 90.7263 122.92 90.8959C122.914 91.0711 122.92 91.2747 122.942 91.5121C122.976 91.7721 123.049 92.0605 123.162 92.3714C123.275 92.6993 123.365 92.9311 123.444 93.0667C123.517 93.2024 123.607 93.3324 123.703 93.4568C123.782 93.5473 123.911 93.666 124.086 93.8073C124.261 93.926 124.497 94.0391 124.79 94.1522C125.1 94.2483 125.325 94.3105 125.466 94.3387C125.641 94.3613 125.804 94.3783 125.962 94.4009C126.091 94.4009 126.266 94.3953 126.474 94.3783C126.655 94.3557 126.835 94.2935 127.021 94.1861C127.212 94.073 127.336 93.9882 127.398 93.943C127.472 93.8695 127.539 93.7904 127.607 93.7056C127.669 93.6321 127.736 93.5303 127.81 93.4059L127.933 93.2137C128.018 93.0837 128.131 93.0046 128.283 92.9819C128.435 92.9537 128.57 92.9819 128.688 93.0667C128.807 93.1515 128.88 93.2703 128.908 93.4229C128.936 93.5755 128.908 93.7169 128.824 93.8525L128.7 94.0448C128.598 94.2087 128.508 94.3387 128.424 94.4348C128.333 94.5366 128.243 94.6384 128.148 94.7458C128.012 94.8701 127.798 95.0115 127.505 95.1754C127.201 95.3507 126.897 95.4581 126.598 95.492C126.322 95.5259 126.086 95.5429 125.872 95.5372C125.686 95.5146 125.494 95.492 125.308 95.4694C125.094 95.4298 124.813 95.3507 124.452 95.2263C124.052 95.0963 123.725 94.9323 123.466 94.7401C123.207 94.5479 123.01 94.3613 122.863 94.1804C122.717 94.0221 122.593 93.8469 122.497 93.649C122.396 93.4512 122.272 93.1515 122.131 92.7445C122.002 92.3601 121.917 92.0039 121.878 91.676C121.838 91.3595 121.827 91.0824 121.844 90.8394C121.855 90.6245 121.878 90.4097 121.911 90.1892C121.945 89.9688 121.99 89.7483 122.041 89.5222C122.092 89.3017 122.238 88.9342 122.475 88.4254C122.711 87.9166 122.886 87.5718 122.999 87.3852C123.123 87.2156 123.252 87.0517 123.382 86.9047C123.523 86.7351 123.697 86.5542 123.911 86.3676C124.142 86.1528 124.429 85.9662 124.767 85.7966C125.094 85.6214 125.359 85.514 125.556 85.4688C125.725 85.4179 125.9 85.384 126.069 85.367C126.249 85.3613 126.463 85.3613 126.717 85.3726C126.953 85.4009 127.15 85.4348 127.308 85.4631C127.455 85.5083 127.601 85.5592 127.753 85.6101C127.905 85.6836 128.102 85.7853 128.328 85.9097C128.542 86.0454 128.716 86.1585 128.846 86.2546C128.964 86.3394 129.077 86.4242 129.178 86.5033L129.302 86.6107C129.432 86.7068 129.505 86.8312 129.528 86.9895Z" fill="#C3FF5C" stroke="#C3FF5C" stroke-width="0.5" stroke-miterlimit="10"/>
<path d="M143.442 83.9518C143.859 83.9122 144.552 83.9857 145.521 84.1723C146.49 84.3588 147.183 84.4549 147.594 84.4662C147.724 84.4889 147.881 84.4832 148.067 84.4549C148.253 84.4267 148.416 84.3927 148.557 84.3588C148.698 84.3249 148.845 84.3306 148.997 84.3814C149.149 84.4323 149.278 84.5341 149.38 84.6924C149.307 84.975 149.233 85.252 149.16 85.5291C148.738 85.546 148.264 85.5347 147.746 85.4895C147.228 85.4443 146.76 85.3934 146.343 85.3368C145.927 85.2803 145.459 85.2294 144.941 85.1842C145.239 85.5799 145.527 86.0039 145.797 86.4562C146.067 86.9028 146.332 87.4059 146.591 87.9543C146.85 88.5027 147.053 88.9606 147.211 89.3224C147.369 89.6842 147.577 90.193 147.847 90.8375C148.14 91.5667 148.298 92.5165 148.326 93.6811C148.597 94.7439 148.174 95.9085 147.053 97.1748C146.591 97.8249 146.022 98.3224 145.335 98.6672C144.648 99.0121 143.966 99.0799 143.29 98.8708C142.856 98.7125 142.451 98.4807 142.079 98.1754C141.707 97.8701 141.386 97.5196 141.116 97.1296C140.851 96.7338 140.631 96.3042 140.457 95.835C140.282 95.3657 140.175 94.8852 140.13 94.399C140.085 93.9185 140.102 93.4267 140.192 92.9348C140.276 92.443 140.434 91.9851 140.665 91.5611C141.144 90.8884 141.718 90.3117 142.394 89.8425C143.07 89.3733 143.786 89.0567 144.546 88.8984C145.138 88.7401 145.741 88.7514 146.355 88.921C146.095 88.6892 145.853 88.4235 145.639 88.1239C145.425 87.8299 145.183 87.4568 144.912 87.0102C144.648 86.5636 144.456 86.2583 144.344 86.0944C144.282 85.9926 144.186 85.8287 144.045 85.6082C143.904 85.3877 143.791 85.2125 143.713 85.0711C143.634 84.9298 143.56 84.7602 143.499 84.5454C143.437 84.3532 143.42 84.1497 143.442 83.9518ZM141.189 93.1101C141.138 93.6019 141.161 94.1051 141.256 94.6139C141.352 95.1226 141.516 95.6032 141.747 96.0498C141.972 96.4964 142.282 96.8808 142.665 97.2031C143.048 97.5253 143.482 97.7288 143.955 97.8249C144.129 97.8249 144.31 97.8023 144.484 97.7514C144.659 97.7005 144.822 97.644 144.958 97.5762C145.098 97.5083 145.25 97.4122 145.408 97.2878C145.572 97.1635 145.707 97.0504 145.814 96.9543C145.921 96.8582 146.05 96.7225 146.203 96.5473C146.355 96.3777 146.473 96.242 146.552 96.1459C146.631 96.0498 146.749 95.9028 146.895 95.7162C146.952 95.6541 146.986 95.6088 147.014 95.5749C147.177 94.8965 147.205 94.1955 147.11 93.4776C147.008 92.7596 146.822 91.9681 146.546 91.0975C146.479 90.8827 146.36 90.6961 146.186 90.5492C146.011 90.4022 145.803 90.2552 145.572 90.1139C145.335 89.9725 145.16 89.8425 145.053 89.7181C144.687 89.8595 144.366 89.9951 144.084 90.1252C143.803 90.2552 143.487 90.4248 143.144 90.634C142.8 90.8431 142.507 91.0636 142.265 91.2841C142.023 91.5102 141.803 91.7816 141.606 92.0982C141.403 92.4147 141.268 92.7539 141.189 93.1101Z" fill="#C3FF5C" stroke="#C3FF5C" stroke-width="0.5" stroke-miterlimit="10"/>
<path d="M151.295 96.597C151.273 96.7666 151.261 96.9079 151.261 97.0209C151.233 97.3601 151.211 97.8237 151.188 98.4173C151.165 99.0505 151.149 99.6441 151.137 100.198C151.12 100.752 151.109 101.125 151.098 101.329C151.087 101.515 151.07 101.758 151.047 102.058C151.025 102.352 151.008 102.55 150.996 102.657L150.98 102.799C150.963 102.957 150.889 103.081 150.771 103.177C150.653 103.273 150.518 103.313 150.371 103.296C150.225 103.279 150.106 103.206 150.016 103.087C149.926 102.963 149.892 102.827 149.909 102.669L149.926 102.527C149.937 102.448 149.954 102.262 149.971 101.979C149.988 101.696 150.005 101.459 150.005 101.284C150.016 101.097 150.028 100.729 150.044 100.175C150.061 99.6101 150.078 99.0222 150.101 98.4173C150.123 97.7841 150.151 97.2923 150.18 96.9418C150.197 96.6874 150.236 96.3143 150.298 95.8225C150.32 95.6246 150.349 95.4041 150.377 95.1554C150.506 94.3187 150.608 93.7308 150.692 93.3859C150.771 93.0411 150.963 92.5436 151.261 91.8991C151.571 91.2603 151.808 90.825 151.982 90.6045C152.163 90.3671 152.444 90.107 152.827 89.813C153.227 89.5078 153.7 89.2929 154.258 89.1573C154.788 89.0329 155.16 88.9933 155.39 89.0272C155.633 89.0442 155.943 89.1346 156.331 89.3099C156.714 89.4851 157.047 89.6887 157.323 89.9204C157.576 90.1522 157.835 90.4632 158.095 90.8476C158.371 91.2207 158.562 91.5203 158.663 91.7464C158.799 91.9895 158.934 92.504 159.069 93.2841C159.216 94.0699 159.261 94.5957 159.21 94.8614C159.182 95.1158 159.086 95.438 158.934 95.8281C158.765 96.2634 158.494 96.6648 158.128 97.0266C157.762 97.3771 157.464 97.6089 157.233 97.7276C157.03 97.8294 156.652 97.9198 156.106 98.0159C155.571 98.0894 155.058 98.0894 154.568 98.0159C154.117 97.9481 153.774 97.8746 153.543 97.7955C153.312 97.722 152.957 97.558 152.472 97.3093C151.988 97.0549 151.594 96.8174 151.295 96.597ZM151.498 95.1328L151.594 95.3306C151.633 95.4211 151.757 95.5341 151.954 95.6755C152.174 95.862 152.506 96.0599 152.957 96.2691C153.391 96.4952 153.7 96.6365 153.886 96.6931C154.072 96.7496 154.371 96.8118 154.776 96.874C155.143 96.9305 155.543 96.9305 155.971 96.8627C156.41 96.7948 156.692 96.727 156.804 96.6761C156.917 96.6196 157.109 96.4556 157.385 96.1843C157.649 95.9186 157.835 95.6529 157.954 95.3815C158.066 95.0819 158.14 94.8558 158.156 94.6918C158.173 94.5335 158.128 94.1378 158.016 93.499C157.892 92.8319 157.796 92.4192 157.723 92.2666C157.638 92.08 157.486 91.8313 157.255 91.5147C157.024 91.2037 156.81 90.9607 156.613 90.7911C156.427 90.6271 156.196 90.4858 155.909 90.3558C155.621 90.2257 155.413 90.1522 155.289 90.1409C155.165 90.124 154.895 90.1635 154.484 90.2596C154.1 90.3501 153.762 90.5084 153.481 90.7289C153.171 90.9493 152.957 91.1359 152.839 91.2942C152.715 91.4638 152.517 91.8313 152.264 92.3853C151.994 92.9506 151.825 93.3689 151.757 93.6459C151.678 93.9343 151.594 94.4261 151.498 95.1328Z" fill="#C3FF5C" stroke="#C3FF5C" stroke-width="0.5" stroke-miterlimit="10"/>
<path d="M166.1 100.103C165.992 100.228 165.857 100.29 165.694 100.284L165.378 100.29C165.108 100.296 164.776 100.239 164.387 100.103C163.998 99.9847 163.655 99.8151 163.345 99.5889C163.063 99.3798 162.832 99.1819 162.646 98.9953C162.455 98.7862 162.235 98.4413 161.987 97.9551C161.734 97.4859 161.565 97.1128 161.475 96.8301C161.39 96.5362 161.362 96.033 161.384 95.3207C161.39 94.631 161.429 94.1335 161.508 93.8282C161.593 93.5569 161.751 93.1894 161.97 92.7372C162.196 92.2849 162.421 91.9005 162.652 91.5839C162.883 91.2673 163.097 91.0299 163.3 90.8546C163.514 90.6794 163.818 90.4815 164.218 90.261C164.646 90.0462 165.142 89.9218 165.711 89.8936C166.269 89.8653 166.668 89.8766 166.916 89.9388C167.153 90.0123 167.48 90.1706 167.913 90.4137C168.33 90.6681 168.635 90.8829 168.826 91.0638C169.018 91.2447 169.215 91.4878 169.412 91.8044C169.609 92.121 169.744 92.4036 169.823 92.658C169.908 92.9237 169.975 93.3308 170.02 93.8791C170.06 94.4105 170.048 94.8911 169.981 95.3207C169.93 95.7221 169.868 96.0613 169.795 96.3383C169.733 96.6153 169.598 96.9884 169.389 97.4633C169.181 97.9495 168.961 98.3452 168.742 98.6392C168.499 98.9501 168.195 99.2328 167.829 99.4872C167.463 99.7416 167.175 99.8999 166.961 99.9733C166.77 100.036 166.477 100.075 166.1 100.103ZM163.874 98.5883C164.049 98.4865 164.224 98.4809 164.398 98.5713L164.686 98.7296C164.838 98.8031 165.012 98.8653 165.204 98.9162C165.39 98.9558 165.649 98.9671 165.976 98.9614C166.308 98.9558 166.528 98.9275 166.635 98.8879C166.759 98.8483 166.961 98.7296 167.249 98.5374C167.525 98.3565 167.744 98.153 167.902 97.9325C168.06 97.712 168.229 97.3955 168.404 96.9941C168.584 96.5814 168.702 96.2705 168.753 96.0613C168.804 95.8408 168.86 95.5412 168.911 95.1681C168.956 94.8176 168.961 94.4218 168.927 93.9752C168.905 93.5343 168.86 93.2347 168.804 93.0651C168.747 92.8841 168.646 92.675 168.494 92.4375C168.347 92.2001 168.206 92.0192 168.082 91.9005C167.959 91.7761 167.716 91.6178 167.367 91.42C167.029 91.2221 166.781 91.0977 166.623 91.0468C166.477 91.0129 166.19 91.0073 165.762 91.0242C165.356 91.0468 165.001 91.1373 164.691 91.2956C164.359 91.4708 164.128 91.6122 163.998 91.7196C163.863 91.844 163.7 92.0305 163.508 92.2849C163.311 92.5393 163.119 92.8615 162.922 93.2516C162.725 93.6417 162.601 93.9357 162.556 94.1392C162.505 94.3314 162.472 94.7271 162.449 95.3207C162.443 95.903 162.472 96.2874 162.534 96.4853C162.59 96.6945 162.72 96.9884 162.928 97.3785C163.136 97.7742 163.305 98.0399 163.429 98.1869C163.536 98.3226 163.683 98.4583 163.874 98.5883Z" fill="#C3FF5C" stroke="#C3FF5C" stroke-width="0.5" stroke-miterlimit="10"/>
<path d="M178.983 95.2254C179.034 95.1915 179.073 95.1462 179.107 95.0954C179.146 95.0219 179.192 94.9258 179.231 94.8014C179.27 94.677 179.327 94.4735 179.4 94.1795C179.473 93.8856 179.53 93.6368 179.575 93.422C179.62 93.2072 179.704 92.8284 179.822 92.2857C180.059 91.1946 180.425 90.6745 180.915 90.7367C181.124 90.7593 181.259 90.8215 181.327 90.9119C181.394 91.0024 181.417 91.1607 181.389 91.3755C181.377 91.4829 181.304 91.7204 181.174 92.0878C180.386 94.3435 179.896 96.2543 179.704 97.8202C179.49 99.584 179.625 100.771 180.104 101.393C180.172 101.478 180.228 101.557 180.268 101.636C180.307 101.715 180.335 101.772 180.346 101.806C180.358 101.84 180.363 101.862 180.363 101.868C180.352 101.97 180.245 102.066 180.053 102.151C179.811 102.264 179.603 102.315 179.434 102.292C179.051 102.247 178.792 101.806 178.656 100.98C178.521 100.155 178.555 98.9057 178.758 97.2323C178.786 97.0005 178.747 96.8196 178.634 96.6952C178.566 96.6161 178.482 96.5709 178.386 96.5596C177.834 96.4917 177.164 96.4521 176.364 96.4352C175.552 96.4126 174.967 96.4465 174.6 96.5313C174.161 96.6161 173.879 96.7178 173.744 96.8422C173.609 96.9722 173.474 97.2832 173.333 97.7807C173.203 98.2273 173.113 98.7021 173.051 99.1996L172.888 100.522C172.848 100.845 172.764 101.065 172.64 101.184C172.516 101.303 172.324 101.348 172.071 101.314C171.874 101.291 171.744 101.212 171.671 101.071C171.598 100.935 171.581 100.698 171.626 100.364C171.688 99.8724 171.817 99.2562 172.032 98.5099C172.42 97.1023 172.933 94.6657 173.575 91.2059C173.648 90.8045 173.71 90.5671 173.75 90.4766C173.784 90.4031 173.885 90.324 174.054 90.2335C174.217 90.1431 174.386 90.1092 174.561 90.1318C174.747 90.1544 174.871 90.194 174.921 90.2562C174.972 90.3127 174.989 90.4088 174.978 90.5388C174.961 90.6406 174.826 91.1324 174.572 92.0087C174.291 93.0489 174.11 93.8629 174.037 94.4509C174.009 94.7053 174.031 94.9201 174.116 95.1067C174.2 95.2932 174.341 95.395 174.538 95.4176C174.989 95.4741 175.817 95.4798 177.017 95.4345C177.141 95.4345 177.293 95.4346 177.473 95.4289C177.654 95.4232 177.794 95.4176 177.89 95.4176C177.986 95.4176 178.099 95.4119 178.234 95.4006C178.363 95.395 178.47 95.3837 178.538 95.3667C178.611 95.3498 178.685 95.3328 178.763 95.3158C178.865 95.2932 178.932 95.265 178.983 95.2254Z" fill="#C3FF5C" stroke="#C3FF5C" stroke-width="0.5" stroke-miterlimit="10"/>
<path d="M190.34 94.4543C190.363 94.6126 190.334 94.7539 190.25 94.8783C190.165 95.0027 190.047 95.0762 189.895 95.0988C189.743 95.1214 189.613 95.0931 189.506 95.0083L189.36 94.9066C189.275 94.8387 189.168 94.7596 189.044 94.6692C188.937 94.6013 188.785 94.5052 188.594 94.3865C188.402 94.2791 188.267 94.2056 188.177 94.1604C188.075 94.1208 187.968 94.0869 187.844 94.0586C187.743 94.0303 187.597 94.0077 187.411 93.9851C187.236 93.9625 187.09 93.9625 186.971 93.9738C186.853 93.9851 186.729 94.0077 186.599 94.0303C186.492 94.0586 186.306 94.1434 186.047 94.2847C185.788 94.4147 185.58 94.5504 185.428 94.6974C185.242 94.8614 185.101 95.0027 184.994 95.1101C184.898 95.2345 184.802 95.3758 184.707 95.5228C184.628 95.6528 184.476 95.9411 184.267 96.3934C184.053 96.8457 183.924 97.1453 183.879 97.2923C183.845 97.4732 183.811 97.6541 183.783 97.835C183.755 98.0159 183.738 98.1911 183.726 98.3607C183.721 98.536 183.726 98.7395 183.749 98.9769C183.783 99.237 183.856 99.5253 183.969 99.8362C184.081 100.164 184.171 100.396 184.25 100.532C184.324 100.667 184.414 100.797 184.509 100.922C184.588 101.012 184.718 101.131 184.893 101.272C185.067 101.391 185.304 101.504 185.597 101.617C185.907 101.713 186.132 101.775 186.273 101.804C186.447 101.826 186.611 101.843 186.768 101.866C186.898 101.866 187.073 101.86 187.281 101.843C187.461 101.821 187.642 101.758 187.828 101.651C188.019 101.538 188.143 101.453 188.199 101.408C188.273 101.334 188.34 101.255 188.408 101.17C188.47 101.097 188.537 100.995 188.611 100.871L188.734 100.679C188.819 100.549 188.932 100.475 189.084 100.447C189.236 100.419 189.371 100.447 189.489 100.532C189.608 100.616 189.681 100.735 189.709 100.888C189.737 101.04 189.709 101.182 189.625 101.317L189.501 101.51C189.399 101.674 189.309 101.804 189.225 101.9C189.134 102.001 189.044 102.103 188.949 102.211C188.813 102.335 188.599 102.476 188.306 102.64C188.002 102.816 187.698 102.923 187.399 102.957C187.123 102.991 186.887 103.008 186.673 103.002C186.487 102.979 186.295 102.957 186.109 102.934C185.895 102.895 185.614 102.816 185.253 102.691C184.853 102.561 184.526 102.397 184.267 102.205C184.008 102.013 183.811 101.826 183.664 101.645C183.518 101.487 183.394 101.312 183.298 101.114C183.197 100.916 183.079 100.616 182.932 100.209C182.803 99.8249 182.718 99.4688 182.679 99.1409C182.639 98.8243 182.628 98.5473 182.645 98.3042C182.656 98.0894 182.679 97.8746 182.712 97.6541C182.746 97.4336 182.791 97.2131 182.842 96.987C182.893 96.7665 183.039 96.399 183.276 95.8903C183.512 95.3815 183.687 95.0366 183.8 94.8501C183.924 94.6805 184.053 94.5165 184.183 94.3695C184.324 94.1999 184.498 94.019 184.712 93.8325C184.943 93.6176 185.231 93.4311 185.569 93.2615C185.895 93.0862 186.16 92.9788 186.357 92.9336C186.526 92.8827 186.701 92.8488 186.87 92.8318C187.05 92.8262 187.264 92.8262 187.518 92.8375C187.76 92.8658 187.951 92.8997 188.109 92.9336C188.256 92.9788 188.402 93.0297 188.554 93.0806C188.706 93.1541 188.903 93.2558 189.129 93.3802C189.343 93.5159 189.518 93.6289 189.647 93.725C189.765 93.8098 189.878 93.8946 189.979 93.9738L190.103 94.0812C190.244 94.1717 190.317 94.296 190.34 94.4543Z" fill="#C3FF5C" stroke="#C3FF5C" stroke-width="0.5" stroke-miterlimit="10"/>
<path d="M199.579 101.798C199.472 101.945 199.381 102.064 199.319 102.149C199.252 102.251 199.167 102.369 199.049 102.499C198.942 102.646 198.677 102.895 198.266 103.257C197.849 103.613 197.528 103.845 197.314 103.952C197.111 104.054 196.908 104.139 196.706 104.207C196.503 104.275 196.306 104.325 196.12 104.359C195.911 104.388 195.675 104.388 195.41 104.354C195.128 104.331 194.83 104.241 194.52 104.077C194.227 103.941 194.013 103.822 193.872 103.709C193.731 103.596 193.596 103.477 193.461 103.342C193.326 103.212 193.19 103.037 193.061 102.805C192.903 102.556 192.79 102.245 192.734 101.866C192.672 101.504 192.644 101.216 192.65 101.007C192.661 100.809 192.706 100.572 192.785 100.306C192.869 100.046 192.954 99.8198 193.044 99.6333C193.134 99.441 193.303 99.1923 193.557 98.887C193.81 98.5931 194.03 98.3782 194.216 98.2482C194.379 98.1464 194.554 98.0447 194.74 97.9542C194.925 97.8638 195.168 97.762 195.461 97.6546C195.793 97.5585 196.165 97.5076 196.57 97.5133C196.982 97.5246 197.308 97.5924 197.551 97.7281C197.765 97.8355 198.086 98.1464 198.514 98.6496C198.469 98.3726 198.435 98.1521 198.407 97.9825C198.356 97.7338 198.283 97.4172 198.176 97.0384C198.058 96.6709 197.951 96.377 197.86 96.1678C197.77 95.953 197.658 95.7721 197.522 95.6194C197.421 95.4838 197.218 95.3028 196.908 95.0767C196.599 94.8506 196.328 94.698 196.097 94.6132C195.838 94.5397 195.624 94.4831 195.466 94.4492C195.303 94.4266 195.145 94.4153 194.987 94.4096C194.858 94.4096 194.604 94.4605 194.238 94.5679C193.973 94.6471 193.799 94.7206 193.709 94.7828L193.573 94.9297C193.483 95.0428 193.359 95.105 193.213 95.1163C193.066 95.1276 192.931 95.0824 192.819 94.975C192.7 94.8675 192.638 94.7375 192.633 94.5792C192.621 94.4209 192.672 94.2909 192.785 94.1778L192.926 94.0082C193.1 93.7991 193.444 93.6238 193.956 93.4712C194.435 93.3299 194.796 93.2564 195.038 93.262C195.241 93.2733 195.444 93.2903 195.652 93.3186C195.866 93.3581 196.131 93.426 196.458 93.5221C196.79 93.6351 197.156 93.833 197.545 94.127C197.934 94.4153 198.215 94.681 198.384 94.9128C198.548 95.1333 198.7 95.382 198.846 95.6534C198.976 95.9247 199.1 96.2752 199.224 96.6992C199.348 97.1232 199.432 97.4794 199.477 97.7677C199.522 98.0447 199.579 98.4348 199.652 98.9436C199.719 99.4524 199.776 99.8029 199.81 100.001C199.849 100.204 199.883 100.425 199.911 100.651C199.939 100.877 199.962 101.041 199.973 101.131V101.154C200.024 101.273 199.984 101.42 199.86 101.606L199.579 101.798ZM198.717 101.12C198.666 100.99 198.615 100.86 198.553 100.736C198.48 100.566 198.396 100.396 198.3 100.216C198.215 100.046 198.001 99.7633 197.652 99.3676C197.348 99.0057 197.145 98.7966 197.038 98.74C196.953 98.6892 196.784 98.6609 196.525 98.6552C196.244 98.6496 195.99 98.6778 195.765 98.7513C195.511 98.8192 195.32 98.887 195.185 98.9662C195.049 99.0397 194.92 99.1245 194.801 99.2149C194.7 99.2714 194.554 99.4184 194.362 99.6502C194.159 99.882 194.03 100.052 193.979 100.153C193.923 100.272 193.866 100.43 193.804 100.623C193.754 100.815 193.731 100.973 193.731 101.08C193.72 101.188 193.731 101.38 193.782 101.646C193.833 101.895 193.889 102.081 193.962 102.2C194.047 102.347 194.137 102.46 194.227 102.522C194.306 102.601 194.402 102.68 194.497 102.76C194.593 102.839 194.762 102.929 194.987 103.042C195.19 103.138 195.37 103.195 195.528 103.223C195.703 103.246 195.849 103.24 195.973 103.206C196.108 103.195 196.244 103.161 196.396 103.11C196.542 103.059 196.694 102.997 196.858 102.918C196.982 102.85 197.229 102.663 197.596 102.364C197.939 102.053 198.153 101.855 198.232 101.765C198.311 101.663 198.384 101.567 198.446 101.471C198.531 101.386 198.621 101.273 198.717 101.12Z" fill="#C3FF5C" stroke="#C3FF5C" stroke-width="0.5" stroke-miterlimit="10"/>
<path d="M209.257 98.9441C209.307 98.9102 209.347 98.865 209.381 98.8141C209.42 98.7406 209.465 98.6445 209.505 98.5201C209.544 98.3958 209.6 98.1922 209.674 97.8983C209.747 97.6043 209.803 97.3556 209.848 97.1407C209.893 96.9259 209.978 96.5471 210.096 96.0044C210.333 94.9134 210.699 94.3933 211.189 94.4554C211.397 94.4781 211.533 94.5402 211.6 94.6307C211.668 94.7211 211.69 94.8794 211.662 95.0943C211.651 95.2017 211.578 95.4391 211.448 95.8066C210.659 98.0622 210.169 99.973 209.978 101.539C209.764 103.303 209.899 104.49 210.378 105.112C210.445 105.197 210.502 105.276 210.541 105.355C210.581 105.434 210.609 105.491 210.62 105.525C210.631 105.558 210.637 105.581 210.637 105.587C210.626 105.688 210.519 105.785 210.327 105.869C210.085 105.988 209.876 106.033 209.707 106.011C209.324 105.965 209.065 105.525 208.93 104.699C208.795 103.874 208.829 102.624 209.031 100.951C209.06 100.719 209.02 100.544 208.908 100.414C208.84 100.335 208.755 100.29 208.66 100.278C208.108 100.21 207.437 100.171 206.637 100.154C205.826 100.131 205.235 100.165 204.874 100.25C204.435 100.335 204.153 100.437 204.018 100.561C203.883 100.691 203.747 101.002 203.607 101.499C203.477 101.946 203.387 102.421 203.325 102.918L203.161 104.241C203.122 104.563 203.038 104.784 202.914 104.903C202.79 105.021 202.598 105.067 202.345 105.033C202.153 105.01 202.018 104.931 201.945 104.79C201.871 104.654 201.855 104.416 201.9 104.083C201.962 103.591 202.097 102.975 202.305 102.229C202.694 100.821 203.207 98.3845 203.849 94.9247C203.922 94.5233 203.984 94.2858 204.023 94.1954C204.057 94.1219 204.159 94.0427 204.328 93.9523C204.491 93.8618 204.66 93.8279 204.835 93.8505C205.02 93.8731 205.144 93.9127 205.195 93.9749C205.246 94.0314 205.268 94.1275 205.251 94.2576C205.235 94.3593 205.099 94.8512 204.846 95.7274C204.559 96.7676 204.384 97.5817 204.311 98.1696C204.283 98.424 204.305 98.6389 204.39 98.8254C204.474 99.012 204.615 99.1137 204.812 99.1363C205.263 99.1929 206.091 99.1985 207.291 99.1476C207.415 99.1476 207.567 99.1476 207.747 99.142C207.927 99.1363 208.068 99.1307 208.164 99.1307C208.26 99.1307 208.372 99.125 208.508 99.1137C208.643 99.1081 208.744 99.0968 208.812 99.0798C208.885 99.0628 208.958 99.0459 209.037 99.0289C209.138 99.012 209.206 98.9781 209.257 98.9441Z" fill="#C3FF5C" stroke="#C3FF5C" stroke-width="0.5" stroke-miterlimit="10"/>
<path d="M215.893 101.782C215.791 101.669 215.741 101.534 215.741 101.381C215.741 101.223 215.797 101.087 215.915 100.974C216.033 100.861 216.163 100.804 216.304 100.81H216.631C216.833 100.81 216.98 100.804 217.076 100.804C217.171 100.787 217.278 100.776 217.408 100.759C217.504 100.742 217.678 100.703 217.943 100.64C218.169 100.572 218.36 100.482 218.518 100.369C218.659 100.273 218.833 100.086 219.03 99.8093C219.228 99.5379 219.357 99.3175 219.414 99.1592C219.47 99.0065 219.509 98.6278 219.532 98.0229C219.566 97.418 219.56 96.9827 219.509 96.7226C219.459 96.4626 219.34 96.0894 219.149 95.6146C218.957 95.168 218.771 94.8457 218.574 94.6479C218.405 94.467 218.169 94.3256 217.859 94.2182C217.56 94.1108 217.25 94.0882 216.924 94.1447C216.58 94.2013 216.298 94.2861 216.067 94.4048C215.831 94.5518 215.594 94.727 215.352 94.9305C215.11 95.1453 214.963 95.2923 214.912 95.3771C214.879 95.445 214.845 95.5693 214.805 95.7616L214.715 96.1742C214.681 96.3325 214.603 96.4512 214.479 96.536C214.355 96.6208 214.22 96.6491 214.073 96.6095C213.932 96.5756 213.814 96.4908 213.729 96.3665C213.645 96.2364 213.617 96.0951 213.656 95.9425L213.746 95.5298C213.814 95.1849 213.904 94.9249 214.017 94.7496C214.118 94.5744 214.327 94.3482 214.642 94.0656C214.946 93.7942 215.256 93.5737 215.572 93.4098C215.904 93.2232 216.304 93.0932 216.771 93.0254C217.267 92.9293 217.752 92.9632 218.214 93.1384C218.681 93.2911 219.053 93.5285 219.329 93.8451C219.616 94.1334 219.881 94.5687 220.129 95.1397C220.371 95.6937 220.518 96.146 220.58 96.4965C220.642 96.8413 220.653 97.3671 220.619 98.0737C220.585 98.7917 220.523 99.2835 220.439 99.5605C220.343 99.8206 220.163 100.132 219.898 100.505C219.622 100.883 219.352 101.16 219.087 101.341C218.839 101.511 218.546 101.647 218.208 101.743C217.904 101.816 217.684 101.867 217.549 101.89C217.414 101.912 217.284 101.935 217.155 101.958C217.036 101.969 216.85 101.974 216.602 101.974L216.27 101.952C216.118 101.946 215.994 101.895 215.893 101.782ZM215.532 105.508C215.459 105.372 215.403 105.231 215.38 105.084C215.369 104.869 215.453 104.677 215.645 104.507C215.831 104.338 216.028 104.281 216.225 104.332C216.383 104.377 216.518 104.468 216.631 104.592C216.743 104.722 216.805 104.875 216.828 105.05C216.867 105.366 216.777 105.632 216.563 105.847L216.45 105.96C216.343 106.073 216.214 106.13 216.062 106.124C215.91 106.124 215.78 106.062 215.684 105.949C215.572 105.824 215.521 105.677 215.532 105.508Z" fill="#C3FF5C" stroke="#C3FF5C" stroke-width="0.5" stroke-miterlimit="10"/>
<path d="M23.3727 127.925C23.3727 127.925 19.0801 123.95 19.835 118.088C20.5898 112.225 23.3727 108.065 23.3727 108.065C23.3727 108.065 11.5201 106.714 7.52609 105.419C3.53204 104.124 0.32666 102.536 0.32666 102.536C0.32666 102.536 8.47249 67.4007 14.1566 45.9748C19.8406 24.5489 23.3727 18.3134 23.3727 18.3134C23.3727 18.3134 25.7106 16.1877 56.9644 17.0357C88.2183 17.8894 154.917 24.5885 176.51 25.7248C198.103 26.8611 246.476 36.2625 248.335 40.3781C250.194 44.4937 244.876 77.4748 241.846 90.1042C238.815 102.734 225.554 139.757 221.199 142.736C216.845 145.715 203.392 150.82 153.954 140.893C104.516 130.966 49.196 115.205 45.4104 114.922C41.6248 114.639 35.6196 123.193 23.3727 127.925Z" stroke="#C3FF5C" stroke-width="1.5" stroke-miterlimit="10"/>
<path d="M228.066 144.047C222.85 152.928 217.093 150.249 217.093 150.249" stroke="#C3FF5C" stroke-width="1.5" stroke-miterlimit="10"/>
<path d="M218.625 161.722C230.618 159.46 235.125 145.141 235.125 145.141" stroke="#C3FF5C" stroke-width="1.5" stroke-miterlimit="10"/>
<path d="M14.3762 18.3296C19.2209 9.2391 25.0852 11.6757 25.0852 11.6757" stroke="#C3FF5C" stroke-width="1.5" stroke-miterlimit="10"/>
<path d="M23.0796 0.277344C11.1932 3.03614 7.28369 17.5311 7.28369 17.5311" stroke="#C3FF5C" stroke-width="1.5" stroke-miterlimit="10"/>
<path d="M240.538 127.636C239.367 127.173 237.964 127.812 237.508 128.976C237.051 130.135 237.626 131.503 238.753 132.012C239.339 132.278 240.003 132.379 240.645 132.374C241.198 132.368 241.795 132.272 242.274 131.978C242.831 131.639 243.175 131.034 243.147 130.372C243.119 129.722 242.826 129.095 242.465 128.563C241.693 127.421 240.482 126.579 239.124 126.325C238.826 126.268 238.522 126.41 238.437 126.715C238.364 126.986 238.527 127.348 238.826 127.404C239.705 127.568 240.493 127.992 241.113 128.648C241.412 128.965 241.654 129.332 241.84 129.728C241.93 129.915 242.003 130.124 242.026 130.327C242.048 130.553 241.997 130.723 241.902 130.842C241.919 130.819 241.755 130.983 241.806 130.943C241.727 131.006 241.637 131.056 241.547 131.096C241.586 131.079 241.429 131.141 241.389 131.153C241.276 131.187 241.158 131.215 241.045 131.232C240.724 131.283 240.229 131.26 239.851 131.187C239.434 131.107 238.995 130.966 238.725 130.616C238.522 130.355 238.437 130.005 238.482 129.643C238.578 128.84 239.496 128.428 240.24 128.722C240.522 128.835 240.854 128.597 240.927 128.332C241.017 128.009 240.82 127.749 240.538 127.636Z" fill="#C3FF5C"/>
<path d="M120.621 112.574C119.01 112.512 118.047 114.016 117.76 115.424C117.472 116.809 117.427 118.51 118.869 119.251C120.08 119.873 121.517 119.511 122.418 118.527C123.455 117.402 123.815 115.74 123.579 114.253C123.455 113.468 123.072 112.699 122.339 112.32C121.624 111.947 120.796 111.992 120.018 112.083C119.72 112.117 119.461 112.314 119.461 112.642C119.461 112.919 119.72 113.236 120.018 113.202C120.525 113.145 121.072 113.072 121.568 113.213C122.024 113.343 122.283 113.694 122.407 114.135C122.7 115.175 122.497 116.419 121.923 117.329C121.466 118.058 120.661 118.606 119.776 118.397C119.416 118.312 119.072 118.126 118.881 117.792C118.616 117.334 118.666 116.741 118.734 116.238C118.875 115.209 119.297 113.637 120.61 113.688C121.342 113.728 121.342 112.603 120.621 112.574Z" fill="#C3FF5C"/>
</g>
<defs>
<clipPath id="clip0_1945_34514">
<rect width="249" height="162" fill="white"/>
</clipPath>
</defs>
</svg>
