<svg width="73" height="60" viewBox="0 0 73 60" fill="none" xmlns="http://www.w3.org/2000/svg">
<path d="M19.9281 38.2223L27.8962 19.5195L23.1049 19.5195L22.0112 19.5195L18.2199 29.3272L18.1991 29.3062L16.4596 33.6804L16.0222 30.8062C15.0431 27.3552 11.8871 23.558 8.39778 21.7118L8.44986 21.9111C8.39778 21.8797 8.3457 21.8482 8.2832 21.8167L13.1891 40.2258L19.074 40.2258L19.1261 40.1104L19.1886 40.1104L19.9281 38.2223Z" fill="#00569F"/>
<path d="M68.091 31.7209L65.362 19.4062L62.4352 19.4062L61.1228 19.4062C59.8104 19.4062 58.8313 19.5216 58.2897 20.9062L50.1133 40.123L50.8736 40.123L55.9982 40.123L57.0919 36.672L64.0601 36.672L64.7163 40.123L69.945 40.123L68.091 31.7209ZM61.5603 25.0496L61.8832 27.0007C61.8832 27.0007 62.9039 31.8678 63.1643 33.2104L58.6126 33.2104C59.0501 32.0566 60.7895 27.116 60.7895 27.116C60.7895 27.116 61.227 25.8573 61.5603 25.0496Z" fill="#00569F"/>
<path d="M30.9479 19.4141L29.9584 19.4141L26.4795 40.1204L32.0311 40.1204L35.4058 19.4141L30.9479 19.4141Z" fill="#00569F"/>
<path d="M50.8837 33.3345C50.8837 30.922 49.4672 29.0758 46.1966 27.5863C44.2385 26.5478 43.0407 25.9709 43.0407 24.9429C43.0407 24.0199 44.0197 23.0968 46.1966 23.0968C48.0507 23.0968 49.3526 23.4429 50.3317 23.9045L50.8733 24.1352L51.7483 19.6457C50.6546 19.1842 48.9152 18.7227 46.7383 18.7227C41.2908 18.7227 37.3641 21.5968 37.3641 25.7401C37.3641 28.845 40.093 30.4604 42.2699 31.4884C43.7698 32.2017 44.5405 32.7471 44.8843 33.3241L44.5614 32.9884C44.7489 33.1877 44.8947 33.3555 44.9884 33.5338C45.0717 33.7331 45.103 33.9324 45.103 34.1422C45.103 35.5269 43.3636 36.2087 41.8324 36.2087C39.6555 36.2087 38.4577 35.8625 36.6037 35.0548L35.8434 34.7087L35.083 39.4289C35.0934 39.4289 35.0934 39.429 35.1038 39.4394L35.083 39.5443C36.3954 40.1213 38.791 40.6982 41.2908 40.6982C44.7801 40.6982 47.6132 39.6597 49.2485 37.8241L49.186 37.7611C50.2796 36.5758 50.8837 35.0758 50.8837 33.3345Z" fill="#00569F"/>
<path d="M15.8556 30.6825C15.8764 30.7244 15.8868 30.7664 15.9076 30.8084L15.7097 29.9272L13.9495 21.137C13.6266 19.7524 12.6371 19.4062 11.4393 19.4062L1.30469 19.4062L4.78356 20.5286C9.07487 22.2594 12.6371 25.0391 14.6682 28.2804C15.1681 29.1195 15.5847 30.0007 15.9076 30.9028L15.8556 30.6825Z" fill="#F79510"/>
</svg>
