<svg width="144" height="34" viewBox="0 0 144 34" fill="none" xmlns="http://www.w3.org/2000/svg">
<g clip-path="url(#clip0_1434_5904)">
<path d="M135.37 13.4238C133.223 12.8756 132.754 12.6038 132.754 12.17V12.089C132.754 11.6552 133.142 11.4216 134.005 11.4216C135.801 11.4216 138.536 12.17 140.796 13.4238L143.607 8.12264C141.033 6.55421 137.555 5.64844 134.043 5.64844C128.498 5.64844 124.749 8.27996 124.749 12.9948V13.071C124.749 17.5093 128.066 18.9634 133.455 20.2982C135.602 20.8512 135.991 21.1229 135.991 21.5567V21.6378C135.991 22.1479 135.559 22.3433 134.702 22.3433C132.28 22.3433 129.393 21.5567 126.815 19.9454L123.811 25.013C126.858 27.0581 130.602 28.1165 134.744 28.1165C140.521 28.1165 143.995 25.4039 143.995 20.732V20.651C144 16.2556 140.758 14.7586 135.37 13.4238Z" fill="#555555"/>
<path d="M122.659 0C120.853 0.567302 119.251 2.14049 118.536 4.04739L118.043 6.15928H112.995L109.597 17.4672L105.886 6.15928H96.7109L98.1232 9.64414C96.3128 7.19377 93.4123 5.64919 89.3223 5.64919C84.9763 5.64919 81.4787 7.89456 79.6777 11.3365L81.2417 6.15928H72.891L70.6256 14.8738L68.0095 6.07824H60.9431L58.3649 14.7975L56.1801 6.15928H48.9573H47.7062H40.0948V8.43326C38.5355 6.8267 36.6967 5.64442 33.5735 5.64442C29.9573 5.64442 26.8057 7.78968 25.3934 11.3127V9.80623H25.4028C25.4028 9.77762 25.3934 9.74902 25.3934 9.72042V4.79108H25.4028C25.4028 4.76248 25.3934 4.73388 25.3934 4.70527C25.3934 2.5028 26.8294 0.634044 28.8152 0.00476725H19.4645C17.8341 0.51963 16.5735 1.86876 16.1706 3.55637V6.09254H20.9336C18.6209 6.09254 16.6872 7.70387 16.1706 9.87297V15.5317C16.1706 19.0642 15.2986 20.7852 12.6967 20.7852C10.0948 20.7852 9.21801 18.9403 9.21801 15.3267V6.16882H0V15.8082C0 25.4523 3.9763 28.1506 12.6114 28.1506C20.0521 28.1506 24.1564 26.2056 25.1517 19.3169C26.4265 23.1784 29.7915 25.562 34.0853 25.562C37.0521 25.562 39.0427 23.9888 40.2512 22.6158V23.2451C40.2512 26.2294 38.4929 27.9599 35.1754 27.9599C32.2464 27.9599 29.8673 27.1733 27.4834 25.9195L24.7488 31.3017C28.1848 33.0275 31.8531 33.9714 36.5782 33.9714C41.3412 33.9714 44.2701 32.7557 46.1801 30.8298C48.1327 28.8704 48.9526 26.1579 48.9526 22.1915V10.3592L54.1422 27.7644H61.5213L64.455 18.5684L67.3033 27.7597H74.7204L78.436 15.4459C78.3791 15.9274 78.3507 16.4184 78.3507 16.919V17C78.3507 23.6741 83.0758 28.1125 90.0663 28.1125C94.673 28.1125 97.6777 26.1865 99.7867 23.4405L95.0237 19.6268C93.6208 21.0808 92.2891 21.8245 90.6872 21.8245C88.7725 21.8245 87.2891 20.8424 86.6682 18.9593H100.37C100.408 18.4874 100.408 17.9391 100.408 17.4672C100.408 16.5233 100.332 15.608 100.185 14.7308L105.066 26.7729C104.597 27.0112 104.128 27.0875 103.621 27.0875C102.801 27.0875 101.318 26.5774 99.7156 25.6764L97.1374 31.7642C99.5213 33.1038 102.289 34.0048 105.374 34.0048C110.294 34.0048 112.559 31.7308 114.626 26.1102L122.005 6.16882H126.825L127.194 4.84352H127.204C127.209 4.81492 127.209 4.78632 127.218 4.75294C127.739 2.52187 129.559 0.634044 131.611 0H122.659V0ZM21.019 4.80062C20.9905 4.80062 20.9621 4.79108 20.9336 4.79108H21.019V4.80062ZM40.2891 15.6604C40.2891 17.5482 38.9242 19.0404 36.7346 19.0404C34.5877 19.0404 33.1801 17.5864 33.1801 15.7414V15.6604C33.1801 13.7773 34.545 12.2471 36.7346 12.2471C38.8815 12.2471 40.2891 13.7392 40.2891 15.5841V15.6604ZM86.5545 15.0359C86.8294 13.0718 87.8815 11.8132 89.3649 11.8132C90.9242 11.8132 92.1374 12.9907 92.3318 15.0359H86.5545ZM122.986 4.85306C122.957 4.85306 122.934 4.84352 122.905 4.84352H122.991L122.986 4.85306Z" fill="#555555"/>
</g>
<defs>
<clipPath id="clip0_1434_5904">
<rect width="144" height="34" fill="white"/>
</clipPath>
</defs>
</svg>
