<svg width="80" height="80" viewBox="0 0 80 80" fill="none" xmlns="http://www.w3.org/2000/svg">
<path d="M20.3744 54.2336C20.2587 53.9829 19.9616 53.8735 19.7109 53.9892C19.4601 54.1049 19.3507 54.402 19.4664 54.6527L20.3744 54.2336ZM60.5197 54.6802C60.6506 54.4371 60.5597 54.1339 60.3165 54.0029C60.0734 53.872 59.7702 53.963 59.6393 54.2061L60.5197 54.6802ZM17.5503 63.8776C17.3133 64.0192 17.2359 64.3262 17.3775 64.5633C17.5192 64.8003 17.8262 64.8777 18.0632 64.736L17.5503 63.8776ZM24.8228 67.1543C24.6444 67.365 24.6707 67.6805 24.8815 67.8589C25.0923 68.0373 25.4078 68.0111 25.5861 67.8003L24.8228 67.1543ZM34.5808 69.4789C34.519 69.748 34.687 70.0163 34.9561 70.0782C35.2252 70.1401 35.4935 69.9721 35.5554 69.7029L34.5808 69.4789ZM43.5227 63.3929L43.4675 62.8959L43.5227 63.3929ZM44.4442 69.7017C44.5054 69.971 44.7733 70.1397 45.0426 70.0785C45.3119 70.0172 45.4805 69.7493 45.4193 69.4801L44.4442 69.7017ZM50.2159 61.861L50.045 61.3911L50.045 61.3911L50.2159 61.861ZM54.4079 67.7932C54.5824 68.0073 54.8974 68.0393 55.1114 67.8648C55.3254 67.6903 55.3574 67.3753 55.1829 67.1613L54.4079 67.7932ZM54.7954 59.6277L54.5276 59.2055L54.5276 59.2055L54.7954 59.6277ZM62.287 64.7348C62.5234 64.8776 62.8307 64.8016 62.9734 64.5652C63.1162 64.3288 63.0402 64.0215 62.8038 63.8788L62.287 64.7348ZM19.4664 54.6527C20.1837 56.2069 21.947 58.4188 24.9373 60.3093L25.4717 59.464C22.6155 57.6583 20.9976 55.584 20.3744 54.2336L19.4664 54.6527ZM24.948 59.4574L17.5503 63.8776L18.0632 64.736L25.4609 60.3159L24.948 59.4574ZM24.9373 60.3093C26.2529 61.141 27.8083 61.9121 29.6206 62.5388L29.9474 61.5937C28.2079 60.9922 26.7222 60.2546 25.4717 59.464L24.9373 60.3093ZM29.4024 61.7433L24.8228 67.1543L25.5861 67.8003L30.1657 62.3893L29.4024 61.7433ZM29.6206 62.5388C31.5839 63.2177 33.8472 63.7267 36.4322 63.9605L36.5223 62.9645C34.0153 62.7378 31.8317 62.2453 29.9474 61.5937L29.6206 62.5388ZM36.4322 63.9605C37.4535 64.0529 38.5249 64.1023 39.6477 64.1023V63.1023C38.5542 63.1023 37.5129 63.0541 36.5223 62.9645L36.4322 63.9605ZM35.9899 63.3505L34.5808 69.4789L35.5554 69.7029L36.9645 63.5746L35.9899 63.3505ZM39.6477 64.1023C41.0296 64.1023 42.3391 64.0274 43.5779 63.8898L43.4675 62.8959C42.2661 63.0294 40.9934 63.1023 39.6477 63.1023V64.1023ZM43.0351 63.5037L44.4442 69.7017L45.4193 69.4801L44.0102 63.282L43.0351 63.5037ZM43.5779 63.8898C46.1489 63.6042 48.4138 63.0483 50.3867 62.3309L50.045 61.3911C48.1476 62.081 45.9605 62.619 43.4675 62.8959L43.5779 63.8898ZM49.8283 62.1769L54.4079 67.7932L55.1829 67.1613L50.6034 61.545L49.8283 62.1769ZM50.3867 62.3309C52.1856 61.6767 53.7408 60.8887 55.0632 60.0499L54.5276 59.2055C53.2655 60.006 51.7752 60.7619 50.045 61.3911L50.3867 62.3309ZM55.0632 60.0499C57.9386 58.2261 59.7264 56.1535 60.5197 54.6802L59.6393 54.2061C58.9411 55.5027 57.2851 57.4564 54.5276 59.2055L55.0632 60.0499ZM54.537 60.0557L62.287 64.7348L62.8038 63.8788L55.0538 59.1997L54.537 60.0557Z" fill="#888888"/>
<path d="M57.9659 37.5341L57.9992 38.033L57.9659 37.5341ZM55.8749 32.8073C52.0579 32.6339 46.1682 32.0142 40.5362 31.9262C37.7053 31.882 34.9029 31.97 32.4016 32.3162C29.9077 32.6613 27.6712 33.2683 26.0006 34.2893L26.522 35.1426C28.0218 34.226 30.1008 33.6441 32.5387 33.3067C34.9691 32.9704 37.7151 32.8823 40.5206 32.9261C46.1613 33.0142 51.8966 33.6276 55.8295 33.8063L55.8749 32.8073ZM26.0006 34.2893C22.7773 36.2591 19.6572 39.1137 17.4745 41.6082C16.3838 42.8548 15.5124 44.0281 14.9775 44.9714C14.712 45.4396 14.5142 45.8772 14.4234 46.254C14.3409 46.596 14.3048 47.0688 14.635 47.399L15.3421 46.6919C15.4081 46.7579 15.328 46.7684 15.3955 46.4884C15.4546 46.2432 15.601 45.8992 15.8473 45.4647C16.3362 44.6026 17.1601 43.4861 18.2271 42.2667C20.3597 39.8294 23.4044 37.0478 26.522 35.1426L26.0006 34.2893ZM14.635 47.399C14.949 47.713 15.2946 47.9268 15.6848 48.0126C16.0748 48.0984 16.4587 48.0452 16.8301 47.9126C17.5404 47.6589 18.3119 47.0704 19.176 46.3791L18.5513 45.5982C17.6541 46.316 17.0164 46.7842 16.4937 46.9709C16.2486 47.0584 16.0601 47.0713 15.8996 47.036C15.7394 47.0007 15.5566 46.9063 15.3421 46.6919L14.635 47.399ZM19.176 46.3791C21.0897 44.8481 24.3921 39.4238 32.2933 38.7367L32.2067 37.7405C23.9034 38.4625 20.1603 44.311 18.5513 45.5982L19.176 46.3791ZM32.2933 38.7367C36.3223 38.3864 41.3157 38.3047 46.0253 38.2638C50.7206 38.2231 55.1464 38.2232 57.9992 38.033L57.9327 37.0352C55.1178 37.2229 50.7368 37.2229 46.0166 37.2639C41.3107 37.3047 36.28 37.3863 32.2067 37.7405L32.2933 38.7367ZM57.9992 38.033C60.613 37.8587 63.1209 37.7684 64.9094 37.5002C65.7986 37.3668 66.5782 37.1811 67.123 36.8828C67.4 36.7311 67.6518 36.5314 67.8149 36.2603C67.9859 35.9761 68.0341 35.655 67.9676 35.3224L66.987 35.5185C67.0085 35.6262 66.9907 35.6905 66.958 35.7448C66.9175 35.8121 66.8281 35.9042 66.6427 36.0057C66.2627 36.2138 65.6333 36.3804 64.7611 36.5112C63.0269 36.7714 60.603 36.8572 57.9327 37.0352L57.9992 38.033ZM67.9676 35.3224C67.8414 34.6913 67.4243 34.252 66.8277 33.9504C66.251 33.6589 65.4685 33.474 64.508 33.34C62.5842 33.0716 59.7297 32.9825 55.8749 32.8073L55.8295 33.8063C59.7246 33.9833 62.5066 34.0704 64.3698 34.3304C65.3027 34.4606 65.9514 34.628 66.3765 34.8429C66.7817 35.0477 66.9371 35.2689 66.987 35.5185L67.9676 35.3224Z" fill="#888888"/>
<path d="M18.3069 18.8636C18.3069 18.5875 18.083 18.3636 17.8069 18.3636C17.5307 18.3636 17.3069 18.5875 17.3069 18.8636L18.3069 18.8636ZM11.1137 25.0568C10.8376 25.0568 10.6137 25.2807 10.6137 25.5568C10.6137 25.833 10.8376 26.0568 11.1137 26.0568L11.1137 25.0568ZM17.3069 18.8636C17.3069 22.284 14.5341 25.0568 11.1137 25.0568L11.1137 26.0568C15.0864 26.0568 18.3069 22.8363 18.3069 18.8636L17.3069 18.8636Z" fill="#888888"/>
<path d="M17.3068 18.8636C17.3068 18.5875 17.5306 18.3636 17.8068 18.3636C18.0829 18.3636 18.3068 18.5875 18.3068 18.8636L17.3068 18.8636ZM24.4999 25.0568C24.7761 25.0568 24.9999 25.2807 24.9999 25.5568C24.9999 25.833 24.7761 26.0568 24.4999 26.0568L24.4999 25.0568ZM18.3068 18.8636C18.3068 22.284 21.0795 25.0568 24.4999 25.0568L24.4999 26.0568C20.5273 26.0568 17.3068 22.8363 17.3068 18.8636L18.3068 18.8636Z" fill="#888888"/>
<path d="M17.3069 32.25C17.3069 32.5261 17.5307 32.75 17.8069 32.75C18.083 32.75 18.3069 32.5261 18.3069 32.25L17.3069 32.25ZM24.5001 26.0568C24.7762 26.0568 25.0001 25.833 25.0001 25.5568C25.0001 25.2807 24.7762 25.0568 24.5001 25.0568L24.5001 26.0568ZM18.3069 32.25C18.3069 28.8296 21.0797 26.0568 24.5001 26.0568L24.5001 25.0568C20.5274 25.0568 17.3069 28.2773 17.3069 32.25L18.3069 32.25Z" fill="#888888"/>
<path d="M18.3069 32.25C18.3069 32.5261 18.083 32.75 17.8069 32.75C17.5307 32.75 17.3069 32.5261 17.3069 32.25L18.3069 32.25ZM11.1137 26.0568C10.8376 26.0568 10.6137 25.833 10.6137 25.5568C10.6137 25.2807 10.8376 25.0568 11.1137 25.0568L11.1137 26.0568ZM17.3069 32.25C17.3069 28.8296 14.5341 26.0568 11.1137 26.0568L11.1137 25.0568C15.0864 25.0568 18.3069 28.2773 18.3069 32.25L17.3069 32.25Z" fill="#888888"/>
<path d="M42.2615 10.4091C42.2615 10.133 42.0376 9.90912 41.7615 9.90912C41.4853 9.90912 41.2615 10.133 41.2615 10.4091L42.2615 10.4091ZM35.0683 16.6023C34.7921 16.6023 34.5683 16.8262 34.5683 17.1023C34.5683 17.3784 34.7921 17.6023 35.0683 17.6023L35.0683 16.6023ZM41.2615 10.4091C41.2615 13.8295 38.4887 16.6023 35.0683 16.6023L35.0683 17.6023C39.041 17.6023 42.2615 14.3818 42.2615 10.4091L41.2615 10.4091Z" fill="#888888"/>
<path d="M41.2615 10.4091C41.2615 10.133 41.4853 9.90912 41.7615 9.90912C42.0376 9.90912 42.2615 10.133 42.2615 10.4091L41.2615 10.4091ZM48.4547 16.6023C48.7308 16.6023 48.9547 16.8262 48.9547 17.1023C48.9547 17.3784 48.7308 17.6023 48.4547 17.6023L48.4547 16.6023ZM42.2615 10.4091C42.2615 13.8295 45.0343 16.6023 48.4547 16.6023L48.4547 17.6023C44.482 17.6023 41.2615 14.3818 41.2615 10.4091L42.2615 10.4091Z" fill="#888888"/>
<path d="M41.2615 23.7955C41.2615 24.0716 41.4853 24.2955 41.7615 24.2955C42.0376 24.2955 42.2615 24.0716 42.2615 23.7955L41.2615 23.7955ZM48.4547 17.6023C48.7308 17.6023 48.9547 17.3784 48.9547 17.1023C48.9547 16.8262 48.7308 16.6023 48.4547 16.6023L48.4547 17.6023ZM42.2615 23.7955C42.2615 20.3751 45.0343 17.6023 48.4547 17.6023L48.4547 16.6023C44.482 16.6023 41.2615 19.8228 41.2615 23.7955L42.2615 23.7955Z" fill="#888888"/>
<path d="M42.2615 23.7955C42.2615 24.0716 42.0376 24.2955 41.7615 24.2955C41.4853 24.2955 41.2615 24.0716 41.2615 23.7955L42.2615 23.7955ZM35.0683 17.6023C34.7922 17.6023 34.5683 17.3784 34.5683 17.1023C34.5683 16.8262 34.7922 16.6023 35.0683 16.6023L35.0683 17.6023ZM41.2615 23.7955C41.2615 20.3751 38.4887 17.6023 35.0683 17.6023L35.0683 16.6023C39.041 16.6023 42.2615 19.8228 42.2615 23.7955L41.2615 23.7955Z" fill="#888888"/>
<path d="M62.6932 12.5227C62.6932 12.2466 62.4694 12.0227 62.1932 12.0227C61.9171 12.0227 61.6932 12.2466 61.6932 12.5227L62.6932 12.5227ZM55.5 18.7159C55.2239 18.7159 55 18.9397 55 19.2159C55 19.492 55.2239 19.7159 55.5 19.7159L55.5 18.7159ZM61.6932 12.5227C61.6932 15.9431 58.9205 18.7159 55.5 18.7159L55.5 19.7159C59.4727 19.7159 62.6932 16.4954 62.6932 12.5227L61.6932 12.5227Z" fill="#888888"/>
<path d="M61.6932 12.5227C61.6932 12.2466 61.9171 12.0227 62.1932 12.0227C62.4694 12.0227 62.6932 12.2466 62.6932 12.5227L61.6932 12.5227ZM68.8864 18.7159C69.1626 18.7159 69.3864 18.9397 69.3864 19.2159C69.3864 19.492 69.1626 19.7159 68.8864 19.7159L68.8864 18.7159ZM62.6932 12.5227C62.6932 15.9431 65.466 18.7159 68.8864 18.7159L68.8864 19.7159C64.9137 19.7159 61.6932 16.4954 61.6932 12.5227L62.6932 12.5227Z" fill="#888888"/>
<path d="M61.6932 25.9091C61.6932 26.1852 61.9171 26.4091 62.1932 26.4091C62.4694 26.4091 62.6932 26.1852 62.6932 25.9091L61.6932 25.9091ZM68.8864 19.7159C69.1626 19.7159 69.3864 19.492 69.3864 19.2159C69.3864 18.9397 69.1626 18.7159 68.8864 18.7159L68.8864 19.7159ZM62.6932 25.9091C62.6932 22.4887 65.466 19.7159 68.8864 19.7159L68.8864 18.7159C64.9137 18.7159 61.6932 21.9364 61.6932 25.9091L62.6932 25.9091Z" fill="#888888"/>
<path d="M62.6932 25.9091C62.6932 26.1852 62.4694 26.4091 62.1932 26.4091C61.9171 26.4091 61.6932 26.1852 61.6932 25.9091L62.6932 25.9091ZM55.5001 19.7159C55.2239 19.7159 55.0001 19.492 55.0001 19.2159C55.0001 18.9397 55.2239 18.7159 55.5001 18.7159L55.5001 19.7159ZM61.6932 25.9091C61.6932 22.4887 58.9205 19.7159 55.5001 19.7159L55.5001 18.7159C59.4727 18.7159 62.6932 21.9364 62.6932 25.9091L61.6932 25.9091Z" fill="#888888"/>
</svg>
