<svg width="80" height="80" viewBox="0 0 80 80" fill="none" xmlns="http://www.w3.org/2000/svg">
<path d="M31.3954 51.5033C31.3954 54.2593 29.1612 56.4935 26.4052 56.4935C23.6492 56.4935 21.415 54.2593 21.415 51.5033C21.415 48.7473 23.6492 46.5131 26.4052 46.5131C29.1612 46.5131 31.3954 48.7473 31.3954 51.5033Z" stroke="#888888"/>
<path d="M72.1798 51.5033C72.1798 54.2593 69.9457 56.4935 67.1897 56.4935C64.4336 56.4935 62.1995 54.2593 62.1995 51.5033C62.1995 48.7472 64.4336 46.5131 67.1897 46.5131C69.9457 46.5131 72.1798 48.7472 72.1798 51.5033Z" stroke="#888888"/>
<line x1="16.7092" y1="22.5065" x2="59.1079" y2="22.5065" stroke="#888888" stroke-linecap="round"/>
<path d="M59.3464 31.1111L73.4641 31.1111L78.17 41.5686L78.17 51.5032L72.4183 51.5032" stroke="#888888" stroke-linecap="round"/>
<line x1="10.4346" y1="27.7353" x2="32.964" y2="27.7353" stroke="#888888" stroke-linecap="round"/>
<line x1="2.59155" y1="35.5784" x2="40.2844" y2="35.5784" stroke="#888888" stroke-linecap="round"/>
<line x1="10.4346" y1="43.4216" x2="33.4869" y2="43.4216" stroke="#888888" stroke-linecap="round"/>
<line x1="16.1863" y1="51.2647" x2="20.415" y2="51.2647" stroke="#888888" stroke-linecap="round"/>
<line x1="59.585" y1="22.9836" x2="59.585" y2="51.2647" stroke="#888888" stroke-linecap="round"/>
<line x1="31.8726" y1="51.2647" x2="61.7222" y2="51.2647" stroke="#888888" stroke-linecap="round"/>
</svg>
