<svg width="80" height="80" viewBox="0 0 80 80" fill="none" xmlns="http://www.w3.org/2000/svg">
<g clip-path="url(#clip0_1416_26322)">
<path d="M27.0882 59.9118C27.0882 63.3879 24.2703 66.2059 20.7941 66.2059C17.318 66.2059 14.5 63.3879 14.5 59.9118C14.5 56.4356 17.318 53.6177 20.7941 53.6177C24.2703 53.6177 27.0882 56.4356 27.0882 59.9118Z" stroke="#888888"/>
<path d="M68.4411 59.9118C68.4411 63.3879 65.6232 66.2059 62.147 66.2059C58.6709 66.2059 55.8529 63.3879 55.8529 59.9118C55.8529 56.4356 58.6709 53.6177 62.147 53.6177C65.6232 53.6177 68.4411 56.4356 68.4411 59.9118Z" stroke="#888888"/>
<path d="M52.4412 34.6765L69.9118 34.6765L75.7353 47.6177L75.7353 59.5" stroke="#888888" stroke-linecap="round" stroke-linejoin="round"/>
<path d="M52 34.7L52 59.5" stroke="#888888" stroke-linecap="round"/>
<line x1="27.5" y1="59.5" x2="55.5" y2="59.5" stroke="#888888" stroke-linecap="round"/>
<line x1="8.5" y1="59.5" x2="14.5" y2="59.5" stroke="#888888" stroke-linecap="round"/>
<line x1="8.5" y1="59.5" x2="8.5" y2="34.5" stroke="#888888" stroke-linecap="round"/>
<line x1="68.5" y1="59.5" x2="75.5" y2="59.5" stroke="#888888" stroke-linecap="round"/>
<path d="M20.0903 14.8169C22.327 12.5698 26.3147 15.406 27.9904 17.9281C29.8273 20.6938 30.1336 24.1514 30.1336 24.1514C30.1336 24.1514 24.9235 23.7869 21.9882 21.0973C19.053 18.4077 18.5673 16.3463 20.0903 14.8169Z" stroke="#888888" stroke-miterlimit="10"/>
<path d="M40.177 14.8169C37.9403 12.5698 33.9526 15.406 32.2769 17.9281C30.44 20.6938 30.1337 24.1514 30.1337 24.1514C30.1337 24.1514 35.3438 23.7869 38.2791 21.0973C41.2143 18.4077 41.6991 16.3463 40.177 14.8169Z" stroke="#888888" stroke-miterlimit="10"/>
<path d="M23.6851 30.8771L30.1338 24.1522L36.7905 30.8771" stroke="#888888" stroke-miterlimit="10"/>
<path d="M53.2039 34H7.79611C6.80426 34 6 33.2834 6 32.3998V25.6002C6 24.7166 6.80426 24 7.79611 24H53.2039C54.1957 24 55 24.7166 55 25.6002V32.3998C54.999 33.2843 54.1957 34 53.2039 34Z" stroke="#888888" stroke-miterlimit="10"/>
<path d="M30.1337 24.1522V60" stroke="#888888" stroke-miterlimit="10"/>
<path d="M67 38H56V47.5H71L67 38Z" stroke="#888888" stroke-linejoin="round"/>
</g>
<defs>
<clipPath id="clip0_1416_26322">
<rect width="72" height="72" fill="white" transform="translate(4 4)"/>
</clipPath>
</defs>
</svg>
