<svg width="80" height="80" viewBox="0 0 80 80" fill="none" xmlns="http://www.w3.org/2000/svg">
<g clip-path="url(#clip0_234_2697)">
<path d="M39.2656 27.3763L38.8902 27.7066C38.9851 27.8145 39.1219 27.8763 39.2656 27.8763C39.4093 27.8763 39.546 27.8145 39.6409 27.7066L39.2656 27.3763ZM25.5153 49.3071L25.8616 48.9464L25.5153 49.3071ZM39.2656 61.6432L38.9 61.9844C38.9946 62.0857 39.127 62.1432 39.2656 62.1432C39.4042 62.1432 39.5365 62.0857 39.6311 61.9844L39.2656 61.6432ZM55.371 24.635L55.0985 25.0542L55.371 24.635ZM53.0158 49.3071L53.3621 49.6678L53.0158 49.3071ZM39.6409 27.046C38.3331 25.5599 35.9447 23.7031 32.9886 22.7867C30.0139 21.8646 26.4576 21.8953 22.8876 24.2158L23.4326 25.0542C26.7161 22.92 29.956 22.8936 32.6925 23.7419C35.4475 24.5959 37.6851 26.3372 38.8902 27.7066L39.6409 27.046ZM22.8876 24.2158C19.3022 26.5463 17.3308 30.5034 17.5417 35.0871C17.7523 39.663 20.1314 44.8316 25.1691 49.6678L25.8616 48.9464C20.9619 44.2427 18.7367 39.3026 18.5407 35.0411C18.345 30.7874 20.1647 27.1784 23.4326 25.0542L22.8876 24.2158ZM25.1691 49.6678C28.6053 52.9665 31.6508 55.629 34.0348 57.679C36.4366 59.7443 38.1252 61.1542 38.9 61.9844L39.6311 61.302C38.8068 60.4188 37.047 58.9503 34.6868 56.9207C32.3088 54.8758 29.2788 52.2269 25.8616 48.9464L25.1691 49.6678ZM39.6409 27.7066C40.846 26.3372 43.0836 24.5959 45.8387 23.7419C48.5751 22.8936 51.815 22.92 55.0985 25.0542L55.6435 24.2158C52.0736 21.8953 48.5173 21.8646 45.5426 22.7867C42.5864 23.7031 40.198 25.5599 38.8902 27.046L39.6409 27.7066ZM55.0985 25.0542C58.3664 27.1784 60.1862 30.7874 59.9905 35.0411C59.7944 39.3026 57.5692 44.2427 52.6695 48.9464L53.3621 49.6678C58.3997 44.8316 60.7789 39.663 60.9894 35.0871C61.2003 30.5034 59.2289 26.5463 55.6435 24.2158L55.0985 25.0542ZM52.6695 48.9464C49.2524 52.2269 46.2224 54.8758 43.8443 56.9208C41.4841 58.9503 39.7244 60.4188 38.9 61.302L39.6311 61.9844C40.4059 61.1542 42.0945 59.7443 44.4963 57.679C46.8803 55.629 49.9259 52.9665 53.3621 49.6678L52.6695 48.9464Z" fill="#888888"/>
<line x1="39.1997" y1="1" x2="39.1997" y2="11.4" stroke="#888888"/>
<line x1="39.1996" y1="68.6001" x2="39.1996" y2="79.0001" stroke="#888888"/>
<line y1="-0.5" x2="10.4" y2="-0.5" transform="matrix(-0.707106 0.707108 -0.707106 -0.707108 67.5776 12.4231)" stroke="#888888"/>
<line y1="-0.5" x2="10.4" y2="-0.5" transform="matrix(-0.707106 0.707107 -0.707106 -0.707107 19.7774 60.2233)" stroke="#888888"/>
<line y1="-0.5" x2="10.4" y2="-0.5" transform="matrix(-0.707106 -0.707107 0.707106 -0.707107 67.5776 67.5774)" stroke="#888888"/>
<line x1="19.4239" y1="20.1307" x2="12.0699" y2="12.7767" stroke="#888888"/>
<line x1="79" y1="40.5" x2="68.6" y2="40.5" stroke="#888888"/>
<line x1="11.3999" y1="40.5" x2="0.999903" y2="40.5" stroke="#888888"/>
</g>
<defs>
<clipPath id="clip0_234_2697">
<rect width="78" height="78" fill="white" transform="translate(1 1)"/>
</clipPath>
</defs>
</svg>
