<svg width="40" height="40" viewBox="0 0 40 40" fill="none" xmlns="http://www.w3.org/2000/svg">
<circle cx="20" cy="20" r="19.5" stroke="#1D1D1D"/>
<path d="M27.6014 17.1155V16.6588C27.6014 12.4724 24.2076 9.07861 20.0211 9.07861V9.07861C15.8347 9.07861 12.4409 12.4724 12.4409 16.6588V17.1155" stroke="#1D1D1D"/>
<path d="M22.0303 30.4497L23.4916 30.4497V30.4497C25.7613 30.4497 27.6013 28.6097 27.6013 26.3399L27.6013 25.7006" stroke="#1D1D1D"/>
<mask id="path-4-inside-1_1434_10949" fill="white">
<path d="M9.75293 20.1676C9.75293 18.3864 11.1969 16.9424 12.9782 16.9424H14.1969V25.8303H12.9782C11.1969 25.8303 9.75293 24.3863 9.75293 22.6051V20.1676Z"/>
</mask>
<path d="M14.1969 16.9424H15.1969V15.9424H14.1969V16.9424ZM14.1969 25.8303V26.8303H15.1969V25.8303H14.1969ZM12.9782 17.9424H14.1969V15.9424H12.9782V17.9424ZM13.1969 16.9424V25.8303H15.1969V16.9424H13.1969ZM14.1969 24.8303H12.9782V26.8303H14.1969V24.8303ZM10.7529 22.6051V20.1676H8.75293V22.6051H10.7529ZM12.9782 24.8303C11.7492 24.8303 10.7529 23.8341 10.7529 22.6051H8.75293C8.75293 24.9386 10.6446 26.8303 12.9782 26.8303V24.8303ZM12.9782 15.9424C10.6446 15.9424 8.75293 17.8341 8.75293 20.1676H10.7529C10.7529 18.9387 11.7492 17.9424 12.9782 17.9424V15.9424Z" fill="#1D1D1D" mask="url(#path-4-inside-1_1434_10949)"/>
<mask id="path-6-inside-2_1434_10949" fill="white">
<path d="M30.3569 20.1676C30.3569 18.3864 28.9129 16.9424 27.1317 16.9424H25.913V25.8303H27.1317C28.9129 25.8303 30.3569 24.3863 30.3569 22.6051V20.1676Z"/>
</mask>
<path d="M25.913 16.9424H24.913V15.9424H25.913V16.9424ZM25.913 25.8303V26.8303H24.913V25.8303H25.913ZM27.1317 17.9424H25.913V15.9424H27.1317V17.9424ZM26.913 16.9424V25.8303H24.913V16.9424H26.913ZM25.913 24.8303H27.1317V26.8303H25.913V24.8303ZM29.3569 22.6051V20.1676H31.3569V22.6051H29.3569ZM27.1317 24.8303C28.3607 24.8303 29.3569 23.8341 29.3569 22.6051H31.3569C31.3569 24.9386 29.4652 26.8303 27.1317 26.8303V24.8303ZM27.1317 15.9424C29.4652 15.9424 31.3569 17.8341 31.3569 20.1676H29.3569C29.3569 18.9387 28.3607 17.9424 27.1317 17.9424V15.9424Z" fill="#1D1D1D" mask="url(#path-6-inside-2_1434_10949)"/>
<mask id="path-8-inside-3_1434_10949" fill="white">
<rect x="19.1794" y="29.3315" width="3.36665" height="2.28932" rx="0.948604"/>
</mask>
<rect x="19.1794" y="29.3315" width="3.36665" height="2.28932" rx="0.948604" stroke="#1D1D1D" stroke-width="2" mask="url(#path-8-inside-3_1434_10949)"/>
</svg>
