<svg width="52" height="52" viewBox="0 0 52 52" fill="none" xmlns="http://www.w3.org/2000/svg">
<path d="M15.8394 21.8524C15.3692 21.3451 14.5764 21.3151 14.069 21.7853C13.5617 22.2555 13.5317 23.0483 14.0019 23.5557L23.6843 34.0023C23.9156 34.252 24.2391 34.3965 24.5796 34.4032C24.5877 34.4032 24.5953 34.4037 24.6033 34.4037C24.9353 34.4037 25.2539 34.2717 25.4892 34.0368L49.7585 9.76745C50.2476 9.27843 50.2476 8.4852 49.7585 7.99567C49.2691 7.50665 48.4763 7.50665 47.9868 7.99567L24.6372 31.3453L15.8394 21.8524Z" fill="#A0DF35"/>
<path d="M30.017 2.40527H7.53103C4.76782 2.40527 2.52002 4.65307 2.52002 7.41629V44.4898C2.52002 47.253 4.76782 49.5008 7.53103 49.5008H44.6045C47.3677 49.5008 49.6155 47.253 49.6155 44.4898V32.1953C49.6155 31.5036 49.0545 30.9425 48.3627 30.9425C47.671 30.9425 47.1099 31.5036 47.1099 32.1953V44.4898C47.1099 45.8713 45.986 46.9953 44.6044 46.9953H7.53092C6.14937 46.9953 5.02541 45.8714 5.02541 44.4898V7.41743C5.02541 6.03588 6.14931 4.91193 7.53092 4.91193H30.0169C30.7086 4.91193 31.2697 4.35087 31.2697 3.65911C31.2697 2.96696 30.7091 2.4063 30.0169 2.4063L30.017 2.40527Z" fill="#A0DF35"/>
</svg>
