<svg width="44" height="44" viewBox="0 0 44 44" fill="none" xmlns="http://www.w3.org/2000/svg">
<path d="M33.9293 15.7782C30.5793 15.7782 27.8635 13.0624 27.8635 9.7124H23.3173V27.3163C23.3173 29.3634 21.6596 31.0211 19.6126 31.0211C17.5655 31.0211 15.9078 29.3634 15.9078 27.3163C15.9078 25.2693 17.5655 23.6116 19.6126 23.6116C19.9956 23.6116 20.432 23.6712 20.7805 23.778V19.1439C20.4006 19.0905 20.0113 19.0622 19.6126 19.0622C15.0538 19.0622 11.3585 22.7576 11.3585 27.3163C11.3585 31.8751 15.0538 35.5704 19.6126 35.5704C24.1713 35.5704 27.8667 31.8751 27.8667 27.3163V18.001C29.5213 19.3511 31.6311 20.158 33.9324 20.158V15.7782H33.9293Z" fill="#FF0B53"/>
<path d="M32.642 14.4913C29.292 14.4913 26.5762 11.7755 26.5762 8.42554H22.03V26.0295C22.03 28.0765 20.3723 29.7342 18.3253 29.7342C16.2782 29.7342 14.6205 28.0765 14.6205 26.0295C14.6205 23.9824 16.2782 22.3247 18.3253 22.3247C18.7083 22.3247 19.1447 22.3844 19.4932 22.4911V17.857C19.1133 17.8036 18.724 17.7754 18.3253 17.7754C13.7665 17.7754 10.0712 21.4707 10.0712 26.0295C10.0712 30.5882 13.7665 34.2836 18.3253 34.2836C22.884 34.2836 26.5794 30.5882 26.5794 26.0295V16.711C28.234 18.0611 30.3438 18.868 32.6451 18.868V14.4913H32.642Z" fill="#00F0E9"/>
<path d="M32.642 15.6403C31.1758 15.3232 29.9074 14.4755 29.0472 13.3107C27.8792 12.4504 27.0347 11.182 26.7176 9.71582H23.3173V27.3198C23.3173 29.3668 21.6596 31.0245 19.6126 31.0245C18.2594 31.0245 17.0757 30.2993 16.429 29.213C15.3458 28.5662 14.6174 27.3825 14.6174 26.0294C14.6174 23.9823 16.2751 22.3246 18.3222 22.3246C18.7052 22.3246 19.1416 22.3843 19.4901 22.491V19.0657C14.9879 19.1316 11.3585 22.8018 11.3585 27.3198C11.3585 29.2695 12.0366 31.0622 13.1669 32.475C14.5797 33.6084 16.3725 34.2835 18.3222 34.2835C22.8809 34.2835 26.5763 30.5881 26.5763 26.0294V16.7109C28.2309 18.061 30.3407 18.8679 32.642 18.8679V15.6403V15.6403Z" fill="#262C38"/>
</svg>
