<svg width="40" height="40" viewBox="0 0 40 40" fill="none" xmlns="http://www.w3.org/2000/svg">
<path d="M0 20C0 8.9543 8.9543 0 20 0C31.0457 0 40 8.9543 40 20C40 31.0457 31.0457 40 20 40C8.9543 40 0 31.0457 0 20Z" fill="#F2F2F2"/>
<path d="M20 14.6846C21.6274 14.6846 22.7252 15.3876 23.3511 15.975L25.7971 13.5868C24.2949 12.1905 22.34 11.3335 20 11.3335C16.6104 11.3335 13.683 13.2787 12.2578 16.1098L15.06 18.2861C15.763 16.1965 17.7082 14.6846 20 14.6846Z" fill="#EA4335"/>
<path d="M28.32 20.1928C28.32 19.4802 28.2622 18.9602 28.137 18.4209H20V21.6372H24.7763C24.68 22.4365 24.16 23.6402 23.0044 24.449L25.7393 26.5676C27.3763 25.0557 28.32 22.8313 28.32 20.1928Z" fill="#4285F4"/>
<path d="M15.0693 21.7143C14.8863 21.175 14.7804 20.5973 14.7804 20.0002C14.7804 19.4032 14.8863 18.8254 15.0597 18.2862L12.2575 16.1099C11.67 17.2847 11.333 18.6039 11.333 20.0002C11.333 21.3965 11.67 22.7158 12.2575 23.8906L15.0693 21.7143Z" fill="#FBBC05"/>
<path d="M19.9992 28.6669C22.3392 28.6669 24.3036 27.8966 25.7385 26.5677L23.0036 24.4492C22.2718 24.9595 21.2896 25.3158 19.9992 25.3158C17.7073 25.3158 15.7622 23.804 15.0688 21.7144L12.2666 23.8907C13.6918 26.7218 16.6096 28.6669 19.9992 28.6669Z" fill="#34A853"/>
</svg>
