<svg width="40" height="40" viewBox="0 0 40 40" fill="none" xmlns="http://www.w3.org/2000/svg">
<path d="M0 20C0 8.9543 8.9543 0 20 0C31.0457 0 40 8.9543 40 20C40 31.0457 31.0457 40 20 40C8.9543 40 0 31.0457 0 20Z" fill="#F2F2F2"/>
<path d="M22.1633 24.5338L25.1522 27.4193C25.7645 28.0091 25.7645 28.967 25.1522 29.5574C24.5405 30.1478 23.5491 30.1478 22.9381 29.5574L19.9995 26.722L17.0633 29.5574C16.7572 29.8523 16.356 29.9999 15.9549 29.9999C15.5543 29.9999 15.1538 29.8523 14.8477 29.5574C14.236 28.967 14.236 28.0097 14.847 27.4193L17.8362 24.5338C16.7479 24.2945 15.6983 23.8782 14.7315 23.2927C13.9999 22.8475 13.7801 21.9146 14.2411 21.2077C14.7008 20.4999 15.6676 20.2869 16.4005 20.7322C18.5893 22.0612 21.409 22.0616 23.599 20.7322C24.332 20.2869 25.2984 20.4999 25.7591 21.2077C26.22 21.9139 25.9996 22.8475 25.268 23.2927C24.3012 23.8789 23.2516 24.2945 22.1633 24.5338Z" fill="#F68634"/>
<path fill-rule="evenodd" clip-rule="evenodd" d="M19.9863 20.3211C17.0377 20.3211 14.6396 18.0066 14.6396 15.1613C14.6396 12.3151 17.0377 10 19.9863 10C22.9355 10 25.3329 12.3151 25.3329 15.1613C25.3329 18.0066 22.9355 20.3211 19.9863 20.3211ZM19.9863 13.0247C18.7664 13.0247 17.7725 13.9829 17.7725 15.1613C17.7725 16.3388 18.7664 17.2976 19.9863 17.2976C21.207 17.2976 22.2 16.3388 22.2 15.1613C22.2 13.9829 21.207 13.0247 19.9863 13.0247Z" fill="#F68634"/>
</svg>
