<svg width="44" height="44" viewBox="0 0 44 44" fill="none" xmlns="http://www.w3.org/2000/svg">
<path fill-rule="evenodd" clip-rule="evenodd" d="M34.9356 16.1469C35.1368 15.5239 34.9356 15.0708 34.0443 15.0708H31.0827C30.3352 15.0708 29.9901 15.4672 29.7889 15.8921C29.7889 15.8921 28.2649 19.5168 26.1372 21.8672C25.4471 22.5468 25.1309 22.7734 24.7571 22.7734C24.5558 22.7734 24.2971 22.5468 24.2971 21.9239V16.1186C24.2971 15.3823 24.0671 15.0425 23.4345 15.0425H18.7765C18.3165 15.0425 18.029 15.3823 18.029 15.7221C18.029 16.4301 19.0928 16.6 19.2078 18.5823V22.8867C19.2078 23.8212 19.0353 23.9911 18.6615 23.9911C17.6552 23.9911 15.2112 20.338 13.7448 16.1752C13.4572 15.354 13.1698 15.0425 12.4222 15.0425H9.43187C8.56931 15.0425 8.42554 15.439 8.42554 15.8637C8.42554 16.6283 9.43187 20.4796 13.1122 25.5769C15.5563 29.06 19.0353 30.929 22.1694 30.929C24.0671 30.929 24.2971 30.5043 24.2971 29.7964V27.1628C24.2971 26.3132 24.4696 26.1716 25.0734 26.1716C25.5047 26.1716 26.281 26.3981 28.0349 28.0689C30.0476 30.0512 30.3926 30.9574 31.514 30.9574H34.4755C35.3381 30.9574 35.7407 30.5326 35.5107 29.7113C35.2519 28.8902 34.2743 27.7008 33.0091 26.2848C32.3191 25.492 31.284 24.6141 30.9677 24.1893C30.5364 23.623 30.6514 23.3964 30.9677 22.8867C30.939 22.8867 34.5618 17.846 34.9356 16.1469Z" fill="#4680C2"/>
</svg>
