<svg width="40" height="40" viewBox="0 0 40 40" fill="none" xmlns="http://www.w3.org/2000/svg">
<path d="M29.3617 23.5507C29.1523 23.277 28.8673 23.0722 28.5412 22.9608L28.3112 22.8495C28.2886 22.8495 25.813 21.6279 25.3417 21.4575C24.9924 21.3316 24.2726 21.0864 23.7311 21.8771C23.4898 22.2483 22.7587 23.0907 22.4207 23.4732C22.3909 23.5063 22.3683 23.5216 22.3683 23.5255C22.2921 23.5136 22.2192 23.4871 22.1529 23.4473C22.0787 23.4102 21.9713 23.3658 21.8447 23.3101C20.7438 22.8654 19.7263 22.2377 18.8348 21.4542C17.9447 20.6443 17.1805 19.7057 16.5673 18.6704L16.515 18.6114C16.5528 18.5657 16.5939 18.5219 16.6376 18.4815C16.7861 18.337 16.9458 18.1434 17.0983 17.9618L17.3137 17.7093C17.4933 17.4965 17.6431 17.2606 17.7591 17.008L17.8148 16.8934C18.0136 16.501 18.001 16.035 17.7816 15.6539C17.7147 15.524 17.2732 14.4661 16.9505 13.6939L16.4792 12.5618C16.0822 11.6226 15.5698 11.504 15.0946 11.5H15.0316H14.1819C13.59 11.5093 13.0292 11.7651 12.6342 12.2052L12.556 12.2868C11.5359 13.2883 10.9731 14.6663 11.001 16.0953C11.001 18.1216 12.3001 20.0484 12.8569 20.7874L12.9198 20.8802C14.1593 22.6248 16.7761 25.7838 20.3918 27.3202C21.2051 27.6655 22.0369 27.9684 22.882 28.2256C23.4719 28.4092 24.087 28.5013 24.7048 28.5C25.0779 28.4993 25.4504 28.4695 25.8183 28.4112C26.7052 28.2813 28.6837 27.3308 29.1589 26.0502C29.4671 25.1965 29.6415 24.0346 29.3591 23.5673L29.3617 23.5507Z" stroke="#1D1D1D" stroke-width="1.2" stroke-miterlimit="10"/>
<path d="M7.19646 7.29717C4.33114 10.0721 2.49755 13.7408 1.99804 17.6979C1.49854 21.655 2.36196 25.6642 4.44724 29.0641L2.06038 36.7577C1.99103 36.9899 2.05493 37.2416 2.22636 37.4123C2.39546 37.5845 2.64638 37.6484 2.87626 37.5783L10.7312 35.2265C14.1965 37.2798 18.244 38.1284 22.2416 37.6406C26.2399 37.1528 29.964 35.3558 32.834 32.5295C35.0814 30.3335 36.7014 27.5765 37.5267 24.5444C38.3519 21.5124 38.3519 18.3143 37.5267 15.2822C36.7014 12.2501 35.0814 9.49389 32.834 7.29717C29.4092 3.94559 24.8076 2.06836 20.0152 2.06836C15.2228 2.06836 10.6213 3.94481 7.19646 7.29717Z" stroke="#1D1D1D" stroke-width="1.2" stroke-miterlimit="10"/>
</svg>
