<svg width="24" height="24" viewBox="0 0 24 24" fill="none" xmlns="http://www.w3.org/2000/svg">
<path d="M4.4842 19.0508H2.22266" stroke="#1D1D1D" stroke-width="1.27059" stroke-miterlimit="10" stroke-linecap="round" stroke-linejoin="round"/>
<path d="M2.41602 5.70703H13.8977V12.0897H21.4025L22.9742 13.9494V19.049H20.162" stroke="#1D1D1D" stroke-width="1.27059" stroke-miterlimit="10" stroke-linecap="round" stroke-linejoin="round"/>
<path d="M15.2867 19.0508H9.35938" stroke="#1D1D1D" stroke-width="1.27059" stroke-miterlimit="10" stroke-linecap="round" stroke-linejoin="round"/>
<path d="M13.8984 7.00586H17.5679C18.5161 7.00586 19.3755 7.56295 19.763 8.42745L21.4033 12.0889H13.8984V7.00586V7.00586Z" stroke="#1D1D1D" stroke-width="1.27059" stroke-miterlimit="10" stroke-linecap="round" stroke-linejoin="round"/>
<path d="M1.41211 9.76562H6.35329" stroke="#1D1D1D" stroke-width="1.27059" stroke-miterlimit="10" stroke-linecap="round" stroke-linejoin="round"/>
<path d="M0.707031 13.2949H5.64821" stroke="#1D1D1D" stroke-width="1.27059" stroke-miterlimit="10" stroke-linecap="round" stroke-linejoin="round"/>
<path d="M9.36086 19.049C9.36086 20.3955 8.26977 21.4866 6.92395 21.4866C5.57741 21.4866 4.48633 20.3955 4.48633 19.049C4.48633 17.7031 5.57741 16.6113 6.92395 16.6113C8.26977 16.6113 9.36086 17.7031 9.36086 19.049Z" stroke="#1D1D1D" stroke-width="1.27059" stroke-miterlimit="10" stroke-linecap="round" stroke-linejoin="round"/>
<path d="M18.6589 21.2999C19.9027 20.7847 20.4934 19.3587 19.9781 18.1149C19.4629 16.8711 18.037 16.2804 16.7931 16.7956C15.5493 17.3109 14.9587 18.7368 15.4739 19.9806C15.9891 21.2244 17.4151 21.8151 18.6589 21.2999Z" stroke="#1D1D1D" stroke-width="1.27059" stroke-miterlimit="10" stroke-linecap="round" stroke-linejoin="round"/>
</svg>
