<svg width="24" height="24" viewBox="0 0 24 24" fill="none" xmlns="http://www.w3.org/2000/svg">
<path d="M19.2429 20.1577C19.2429 20.5086 19.5273 20.793 19.8782 20.793C20.2291 20.793 20.5135 20.5086 20.5135 20.1577H19.2429ZM3.48971 20.1577C3.48971 20.5086 3.77414 20.793 4.125 20.793C4.47586 20.793 4.76029 20.5086 4.76029 20.1577H3.48971ZM9.27883 15.6392H14.7244V14.3686H9.27883V15.6392ZM14.7244 15.6392C17.2199 15.6392 19.2429 17.6622 19.2429 20.1577H20.5135C20.5135 16.9605 17.9216 14.3686 14.7244 14.3686V15.6392ZM9.27883 14.3686C6.08158 14.3686 3.48971 16.9605 3.48971 20.1577H4.76029C4.76029 17.6622 6.78331 15.6392 9.27883 15.6392V14.3686Z" fill="#1D1D1D"/>
<rect x="8.35795" y="4.16459" width="7.18947" height="8.45362" rx="3.59474" stroke="#1D1D1D" stroke-width="1.27059"/>
</svg>
