<svg width="24" height="24" viewBox="0 0 24 24" fill="none" xmlns="http://www.w3.org/2000/svg">
<path d="M1.4258 6.22072C1.41553 6.29087 1.41211 6.36273 1.41211 6.43459V6.20703L1.4258 6.22072Z" stroke="#1D1D1D" stroke-width="1.27059" stroke-miterlimit="10" stroke-linecap="round" stroke-linejoin="round"/>
<path d="M15.1749 14.5794C15.1698 15.3527 15.4795 16.0508 15.9859 16.5555C16.4855 17.0551 17.1768 17.3648 17.9415 17.3648H20.5747V19.5138C20.5747 20.3436 19.9023 21.016 19.0725 21.016H2.91432C2.08451 21.016 1.41211 20.3436 1.41211 19.5138V6.43359C1.41211 7.47385 2.25389 8.31563 3.29415 8.31563H19.4711C20.0802 8.31563 20.5747 8.8101 20.5747 9.41919V11.8333H18.0117C16.4804 11.8333 15.1869 13.0481 15.1749 14.5794Z" stroke="#1D1D1D" stroke-width="1.27059" stroke-miterlimit="10" stroke-linecap="round" stroke-linejoin="round"/>
<path d="M3.29415 4.55078H11.469L5.08037 8.31486H3.29415C2.25389 8.31486 1.41211 7.47308 1.41211 6.43282C1.41211 6.36096 1.41553 6.2891 1.4258 6.21895C1.4737 5.78437 1.67046 5.39599 1.96303 5.10171C2.30351 4.76123 2.77402 4.55078 3.29415 4.55078Z" stroke="#1D1D1D" stroke-width="1.27059" stroke-miterlimit="10" stroke-linecap="round" stroke-linejoin="round"/>
<path d="M17.9136 5.53115V8.31486L15.5098 4.55078H16.935C17.4756 4.55078 17.9136 4.99049 17.9136 5.53115Z" stroke="#1D1D1D" stroke-width="1.27059" stroke-miterlimit="10" stroke-linecap="round" stroke-linejoin="round"/>
<path d="M17.9122 8.31611H5.08008L11.4687 4.55203L14.4047 2.82227L15.5083 4.55203L17.9122 8.31611Z" stroke="#1D1D1D" stroke-width="1.27059" stroke-miterlimit="10" stroke-linecap="round" stroke-linejoin="round"/>
<path d="M22.5894 12.7459V16.4535C22.5894 16.9566 22.1805 17.3655 21.6774 17.3655H17.9424C17.1776 17.3655 16.4864 17.0558 15.9868 16.5562C15.4804 16.0515 15.1707 15.3534 15.1758 14.58C15.1861 13.0488 16.4813 11.834 18.0126 11.834H21.6774C22.1822 11.834 22.5894 12.2412 22.5894 12.7459Z" stroke="#1D1D1D" stroke-width="1.27059" stroke-miterlimit="10" stroke-linecap="round" stroke-linejoin="round"/>
<path d="M17.9121 15.461C18.3921 15.461 18.7813 15.0718 18.7813 14.5918C18.7813 14.1118 18.3921 13.7227 17.9121 13.7227C17.4321 13.7227 17.043 14.1118 17.043 14.5918C17.043 15.0718 17.4321 15.461 17.9121 15.461Z" stroke="#1D1D1D" stroke-width="1.27059" stroke-miterlimit="10" stroke-linecap="round" stroke-linejoin="round"/>
</svg>
