<svg width="34" height="34" viewBox="0 0 34 34" fill="none" xmlns="http://www.w3.org/2000/svg">
<path d="M4.70196 15.3382C4.47686 13.8364 5.64002 12.4859 7.15858 12.4859H26.8397C28.3583 12.4859 29.5214 13.8364 29.2963 15.3382L27.529 27.1292C27.3468 28.3453 26.3021 29.245 25.0724 29.245H8.92588C7.69617 29.245 6.65154 28.3453 6.46926 27.1292L4.70196 15.3382Z" stroke="#1D1D1D" stroke-width="1.8"/>
<path d="M22.2362 16.5246C22.2362 17.0217 22.6391 17.4246 23.1362 17.4246C23.6332 17.4246 24.0362 17.0217 24.0362 16.5246H22.2362ZM10.5619 16.5246C10.5619 17.0217 10.9649 17.4246 11.4619 17.4246C11.959 17.4246 12.3619 17.0217 12.3619 16.5246H10.5619ZM22.2362 10.8371V16.5246H24.0362V10.8371H22.2362ZM12.3619 16.5246V10.8371H10.5619V16.5246H12.3619ZM17.2991 5.9C20.0258 5.9 22.2362 8.11043 22.2362 10.8371H24.0362C24.0362 7.11632 21.0199 4.1 17.2991 4.1V5.9ZM17.2991 4.1C13.5782 4.1 10.5619 7.11632 10.5619 10.8371H12.3619C12.3619 8.11043 14.5723 5.9 17.2991 5.9V4.1Z" fill="#1D1D1D"/>
</svg>
