<svg width="16" height="16" viewBox="0 0 16 16" fill="none" xmlns="http://www.w3.org/2000/svg">
<path d="M8.13268 13.6212C10.8857 13.6212 12.714 11.6247 13.3024 9.64932C13.4075 9.31308 13.7437 9.12394 14.08 9.22902C14.4162 9.33409 14.6053 9.67033 14.5003 10.0066C13.7857 12.4443 11.5371 14.8821 8.13268 14.8821C4.16082 14.8821 1.47089 11.4356 1.47089 8.22029C1.47089 5.00498 4.16045 1.57952 8.1323 1.57952C10.2758 1.57952 11.9991 2.63027 13.0919 3.80712L13.0498 1.74764C13.0498 1.39038 13.323 1.11719 13.6803 1.11719C14.0165 1.11719 14.3107 1.39038 14.3107 1.74764L14.3738 5.53036C14.3738 5.69848 14.3107 5.8666 14.1847 5.99269C14.0586 6.11878 13.8904 6.18183 13.7223 6.18183L9.9396 6.11878C9.58234 6.11878 9.30915 5.82457 9.30915 5.48833C9.30915 5.15209 9.60336 4.85788 9.9396 4.85788H12.3353C11.4737 3.84915 9.98163 2.84043 8.1323 2.84043C4.89597 2.84043 2.73142 5.63543 2.73142 8.24131C2.73142 10.8262 4.89635 13.6212 8.13268 13.6212Z" fill="#99BA5F"/>
</svg>
