<svg width="50" height="22" viewBox="0 0 50 22" fill="none" xmlns="http://www.w3.org/2000/svg">
<path d="M13.3314 15C13.5147 14.67 13.7014 14.335 13.8914 13.995C14.0814 13.655 14.2814 13.3 14.4914 12.93L15.4914 11.155V11.5L14.6114 10.03C14.408 9.69333 14.2014 9.35167 13.9914 9.005C13.7847 8.65833 13.5597 8.28 13.3164 7.87H14.9114C15.078 8.16333 15.2414 8.45 15.4014 8.73C15.5614 9.01 15.713 9.27833 15.8564 9.535L16.4164 10.515H16.5264L17.0664 9.525C17.2064 9.26833 17.353 9 17.5064 8.72C17.6597 8.44 17.813 8.15667 17.9664 7.87H19.5114C19.2947 8.26 19.0847 8.63167 18.8814 8.985C18.6814 9.335 18.4964 9.65833 18.3264 9.955L17.3714 11.63V11.245L18.3514 12.805C18.5947 13.1883 18.8264 13.5567 19.0464 13.91C19.2664 14.26 19.4947 14.6233 19.7314 15H18.0814C17.9114 14.7133 17.7514 14.4433 17.6014 14.19C17.4514 13.9367 17.308 13.6933 17.1714 13.46L16.4864 12.295H16.3714L15.7314 13.465C15.5947 13.7117 15.458 13.9583 15.3214 14.205C15.188 14.4517 15.043 14.7167 14.8864 15H13.3314ZM22.2936 15C22.2936 14.6133 22.2936 14.2383 22.2936 13.875C22.2936 13.5117 22.2936 13.1083 22.2936 12.665V10.255C22.2936 9.79833 22.2936 9.385 22.2936 9.015C22.2936 8.645 22.2936 8.26333 22.2936 7.87H23.6636C23.6636 8.26333 23.6636 8.64667 23.6636 9.02C23.6636 9.39 23.6636 9.805 23.6636 10.265V12.66H23.7636L25.0486 10.795C25.3719 10.3283 25.6986 9.855 26.0286 9.375C26.3619 8.895 26.7086 8.39333 27.0686 7.87H28.2586C28.2586 8.26333 28.2586 8.645 28.2586 9.015C28.2586 9.385 28.2586 9.79833 28.2586 10.255V12.665C28.2586 13.1083 28.2586 13.5117 28.2586 13.875C28.2586 14.2383 28.2586 14.6133 28.2586 15H26.8886C26.8886 14.61 26.8886 14.2333 26.8886 13.87C26.8886 13.5067 26.8886 13.1033 26.8886 12.66V10.205H26.7936L25.4986 12.07C25.1052 12.6367 24.7436 13.1567 24.4136 13.63C24.0869 14.1033 23.7736 14.56 23.4736 15H22.2936ZM33.0631 15C33.0631 14.6133 33.0631 14.2383 33.0631 13.875C33.0631 13.5117 33.0631 13.1083 33.0631 12.665V10.47C33.0631 10.0133 33.0631 9.6 33.0631 9.23C33.0631 8.86 33.0631 8.47833 33.0631 8.085L33.5981 9.095H32.6831C32.2998 9.095 31.9581 9.095 31.6581 9.095C31.3614 9.095 31.0798 9.095 30.8131 9.095V7.87H36.7031V9.095C36.4364 9.095 36.1548 9.095 35.8581 9.095C35.5614 9.095 35.2198 9.095 34.8331 9.095H33.9181L34.4581 8.085C34.4581 8.47833 34.4581 8.86 34.4581 9.23C34.4581 9.6 34.4581 10.0133 34.4581 10.47V12.665C34.4581 13.1083 34.4581 13.5117 34.4581 13.875C34.4581 14.2383 34.4581 14.6133 34.4581 15H33.0631Z" fill="#F3743D"/>
<path d="M2 2H48V-2H2V2ZM48 2V20H52V2H48ZM48 20H2V24H48V20ZM2 20V2H-2V20H2ZM2 20H2H-2C-2 22.2091 -0.209137 24 2 24V20ZM48 20V24C50.2091 24 52 22.2091 52 20H48ZM48 2H52C52 -0.20914 50.2091 -2 48 -2V2ZM2 -2C-0.209138 -2 -2 -0.20914 -2 2H2V2V-2Z" fill="#F3743D"/>
</svg>
