<svg width="50" height="22" viewBox="0 0 50 22" fill="none" xmlns="http://www.w3.org/2000/svg">
<path d="M12.3463 15C12.3463 14.6133 12.3463 14.2383 12.3463 13.875C12.3463 13.5117 12.3463 13.1083 12.3463 12.665V10.255C12.3463 9.79833 12.3463 9.385 12.3463 9.015C12.3463 8.645 12.3463 8.26333 12.3463 7.87H13.5763C13.943 8.39333 14.2896 8.89167 14.6163 9.365C14.9463 9.83833 15.2746 10.31 15.6013 10.78L16.8863 12.625H16.9913V10.255C16.9913 9.79833 16.9913 9.385 16.9913 9.015C16.9913 8.645 16.9913 8.26333 16.9913 7.87H18.3113C18.3113 8.26333 18.3113 8.645 18.3113 9.015C18.3113 9.385 18.3113 9.79833 18.3113 10.255V12.665C18.3113 13.1083 18.3113 13.5117 18.3113 13.875C18.3113 14.2383 18.3113 14.6133 18.3113 15H17.0963C16.7963 14.5667 16.4813 14.115 16.1513 13.645C15.8213 13.1717 15.4596 12.6533 15.0663 12.09L13.7663 10.225H13.6613V12.665C13.6613 13.1083 13.6613 13.5117 13.6613 13.875C13.6613 14.2383 13.6613 14.6133 13.6613 15H12.3463ZM21.3658 15C21.3658 14.6133 21.3658 14.2383 21.3658 13.875C21.3658 13.5117 21.3658 13.1083 21.3658 12.665V10.25C21.3658 9.79667 21.3658 9.385 21.3658 9.015C21.3658 8.645 21.3658 8.26333 21.3658 7.87H25.9958V9.035C25.6825 9.035 25.3442 9.035 24.9808 9.035C24.6208 9.035 24.1958 9.035 23.7058 9.035H21.9858L22.7358 8.085C22.7358 8.47833 22.7358 8.86167 22.7358 9.235C22.7358 9.605 22.7358 10.0167 22.7358 10.47V12.445C22.7358 12.8883 22.7358 13.2917 22.7358 13.655C22.7358 14.0183 22.7358 14.395 22.7358 14.785L22.0758 13.835H23.8108C24.2208 13.835 24.6092 13.835 24.9758 13.835C25.3425 13.835 25.6942 13.835 26.0308 13.835V15H21.3658ZM22.4208 11.95V10.845H23.7508C24.1975 10.845 24.5808 10.845 24.9008 10.845C25.2208 10.845 25.5292 10.845 25.8258 10.845V11.95C25.5125 11.95 25.1958 11.95 24.8758 11.95C24.5558 11.95 24.1792 11.95 23.7458 11.95H22.4208ZM30.2229 15C30.1295 14.6467 30.0279 14.27 29.9179 13.87C29.8079 13.4667 29.7045 13.0933 29.6079 12.75L29.0029 10.51C28.8962 10.1133 28.7779 9.68 28.6479 9.21C28.5179 8.73667 28.3962 8.29 28.2829 7.87H29.8529C29.9595 8.33 30.0712 8.815 30.1879 9.325C30.3045 9.83167 30.4162 10.3167 30.5229 10.78L31.1079 13.34H31.2179L31.8079 10.745C31.8745 10.4483 31.9462 10.135 32.0229 9.805C32.0995 9.475 32.1745 9.145 32.2479 8.815C32.3245 8.485 32.3962 8.17 32.4629 7.87H33.9829C34.0929 8.33 34.2062 8.81 34.3229 9.31C34.4395 9.80667 34.5529 10.2883 34.6629 10.755L35.2679 13.34H35.3779L35.9729 10.74C36.0762 10.2933 36.1845 9.815 36.2979 9.305C36.4145 8.795 36.5229 8.31667 36.6229 7.87H38.1979C38.0812 8.29333 37.9579 8.73833 37.8279 9.205C37.7012 9.67167 37.5829 10.1017 37.4729 10.495L36.8479 12.75C36.7479 13.1033 36.6429 13.48 36.5329 13.88C36.4229 14.28 36.3195 14.6533 36.2229 15H34.5029C34.3962 14.57 34.2829 14.1183 34.1629 13.645C34.0462 13.1717 33.9362 12.7233 33.8329 12.3L33.2229 9.865H33.1129L32.5229 12.3C32.4229 12.72 32.3145 13.17 32.1979 13.65C32.0845 14.1267 31.9762 14.5767 31.8729 15H30.2229Z" fill="#6B8CFF"/>
<path d="M2 2H48V-2H2V2ZM48 2V20H52V2H48ZM48 20H2V24H48V20ZM2 20V2H-2V20H2ZM2 20H2H-2C-2 22.2091 -0.209137 24 2 24V20ZM48 20V24C50.2091 24 52 22.2091 52 20H48ZM48 2H52C52 -0.20914 50.2091 -2 48 -2V2ZM2 -2C-0.209138 -2 -2 -0.20914 -2 2H2V2V-2Z" fill="#6B8CFF"/>
</svg>
