<svg width="50" height="22" viewBox="0 0 50 22" fill="none" xmlns="http://www.w3.org/2000/svg">
<path d="M0 2C0 0.89543 0.895431 0 2 0H48C49.1046 0 50 0.895431 50 2V20C50 21.1046 49.1046 22 48 22H2C0.895432 22 0 21.1046 0 20V2Z" fill="#EC294C"/>
<path d="M11.4452 13.072V11.74C11.7892 11.74 12.1192 11.74 12.4352 11.74C12.7552 11.74 13.0552 11.74 13.3352 11.74C13.6152 11.74 13.9152 11.74 14.2352 11.74C14.5552 11.74 14.8852 11.74 15.2252 11.74V13.072C14.8852 13.072 14.5552 13.072 14.2352 13.072C13.9152 13.072 13.6152 13.072 13.3352 13.072C13.0552 13.072 12.7552 13.072 12.4352 13.072C12.1192 13.072 11.7892 13.072 11.4452 13.072ZM16.5488 10.516L16.1828 9.286C16.7108 9.022 17.2368 8.76 17.7608 8.5C18.2888 8.236 18.8168 7.972 19.3448 7.708L19.2908 9.13C18.8348 9.362 18.3788 9.594 17.9228 9.826C17.4668 10.054 17.0088 10.284 16.5488 10.516ZM18.5348 16C18.5348 15.568 18.5348 15.15 18.5348 14.746C18.5348 14.342 18.5348 13.892 18.5348 13.396V10.918C18.5348 10.502 18.5348 10.086 18.5348 9.67C18.5348 9.254 18.5348 8.836 18.5348 8.416L19.3448 7.708L20.1068 7.756C20.1068 8.22 20.1068 8.692 20.1068 9.172C20.1068 9.648 20.1068 10.132 20.1068 10.624V13.396C20.1068 13.892 20.1068 14.342 20.1068 14.746C20.1068 15.15 20.1068 15.568 20.1068 16H18.5348ZM24.5208 16.15C24.2488 16.15 23.9788 16.132 23.7108 16.096C23.4468 16.064 23.1928 16.02 22.9488 15.964C22.7088 15.904 22.4828 15.834 22.2708 15.754C22.0588 15.674 21.8668 15.592 21.6948 15.508L21.8208 14.062C22.0368 14.178 22.2548 14.282 22.4748 14.374C22.6948 14.466 22.9128 14.544 23.1288 14.608C23.3488 14.672 23.5628 14.722 23.7708 14.758C23.9788 14.794 24.1788 14.812 24.3708 14.812C24.9428 14.812 25.3628 14.682 25.6308 14.422C25.9028 14.158 26.0388 13.79 26.0388 13.318C26.0388 12.974 25.9688 12.698 25.8288 12.49C25.6888 12.278 25.4948 12.124 25.2468 12.028C25.0028 11.928 24.7228 11.878 24.4068 11.878C24.1428 11.878 23.8828 11.91 23.6268 11.974C23.3748 12.034 23.1168 12.15 22.8528 12.322L22.1688 12.274V10.924C22.1688 10.356 22.1688 9.808 22.1688 9.28C22.1688 8.748 22.1688 8.238 22.1688 7.75H27.2088V9.106C26.7368 9.106 26.2608 9.106 25.7808 9.106C25.3008 9.106 24.8228 9.106 24.3468 9.106H23.1528L23.6688 8.608C23.6688 8.924 23.6668 9.242 23.6628 9.562C23.6588 9.878 23.6528 10.192 23.6448 10.504V10.96H23.7708C23.9828 10.856 24.2048 10.778 24.4368 10.726C24.6728 10.67 24.9108 10.642 25.1508 10.642C25.6148 10.642 26.0348 10.74 26.4108 10.936C26.7908 11.128 27.0928 11.42 27.3168 11.812C27.5408 12.2 27.6528 12.686 27.6528 13.27C27.6528 13.842 27.5368 14.344 27.3048 14.776C27.0768 15.208 26.7308 15.546 26.2668 15.79C25.8028 16.03 25.2208 16.15 24.5208 16.15ZM30.4798 16C30.7358 15.56 30.9878 15.128 31.2358 14.704C31.4838 14.276 31.7678 13.79 32.0878 13.246L33.8278 10.27C34.0478 9.898 34.2478 9.556 34.4278 9.244C34.6118 8.928 34.7878 8.626 34.9558 8.338C35.1278 8.046 35.3018 7.748 35.4778 7.444H36.8458C36.6698 7.748 36.4958 8.046 36.3238 8.338C36.1558 8.626 35.9798 8.928 35.7958 9.244C35.6118 9.556 35.4118 9.898 35.1958 10.27L33.4558 13.246C33.1358 13.79 32.8518 14.276 32.6038 14.704C32.3558 15.128 32.1018 15.56 31.8418 16H30.4798ZM30.8698 11.608C30.4098 11.608 30.0038 11.522 29.6518 11.35C29.3038 11.174 29.0298 10.924 28.8298 10.6C28.6338 10.276 28.5358 9.89 28.5358 9.442C28.5358 9.03 28.6338 8.662 28.8298 8.338C29.0298 8.01 29.3058 7.752 29.6578 7.564C30.0098 7.372 30.4158 7.276 30.8758 7.276C31.3358 7.276 31.7398 7.372 32.0878 7.564C32.4398 7.752 32.7138 8.01 32.9098 8.338C33.1098 8.662 33.2098 9.03 33.2098 9.442C33.2098 9.89 33.1098 10.276 32.9098 10.6C32.7138 10.924 32.4398 11.174 32.0878 11.35C31.7398 11.522 31.3338 11.608 30.8698 11.608ZM30.8698 10.63C31.2458 10.63 31.5378 10.526 31.7458 10.318C31.9538 10.11 32.0578 9.822 32.0578 9.454C32.0578 9.226 32.0098 9.022 31.9138 8.842C31.8218 8.662 31.6878 8.52 31.5118 8.416C31.3358 8.312 31.1238 8.26 30.8758 8.26C30.5078 8.26 30.2158 8.372 29.9998 8.596C29.7878 8.82 29.6818 9.106 29.6818 9.454C29.6818 9.822 29.7878 10.11 29.9998 10.318C30.2158 10.526 30.5058 10.63 30.8698 10.63ZM36.4618 16.15C35.9978 16.15 35.5898 16.064 35.2378 15.892C34.8898 15.716 34.6158 15.466 34.4158 15.142C34.2198 14.814 34.1218 14.428 34.1218 13.984C34.1218 13.572 34.2198 13.204 34.4158 12.88C34.6158 12.552 34.8918 12.294 35.2438 12.106C35.5958 11.914 36.0018 11.818 36.4618 11.818C36.9258 11.818 37.3318 11.914 37.6798 12.106C38.0318 12.294 38.3058 12.552 38.5018 12.88C38.6978 13.204 38.7958 13.572 38.7958 13.984C38.7958 14.428 38.6978 14.814 38.5018 15.142C38.3058 15.466 38.0318 15.716 37.6798 15.892C37.3278 16.064 36.9218 16.15 36.4618 16.15ZM36.4618 15.172C36.8338 15.172 37.1238 15.068 37.3318 14.86C37.5438 14.648 37.6498 14.36 37.6498 13.996C37.6498 13.768 37.6018 13.564 37.5058 13.384C37.4098 13.204 37.2738 13.062 37.0978 12.958C36.9218 12.854 36.7098 12.802 36.4618 12.802C36.0938 12.802 35.8018 12.914 35.5858 13.138C35.3738 13.358 35.2678 13.644 35.2678 13.996C35.2678 14.36 35.3738 14.648 35.5858 14.86C35.8018 15.068 36.0938 15.172 36.4618 15.172Z" fill="white"/>
</svg>
