<svg width="40" height="40" viewBox="0 0 40 40" fill="none" xmlns="http://www.w3.org/2000/svg">
<circle cx="20" cy="20" r="19.4" stroke="#1D1D1D" stroke-width="1.2"/>
<path d="M28.0671 29.9633L28.0665 12.6626L24.4503 8.91406H13.0839C12.8261 8.91406 12.6006 9.13961 12.6006 9.39737V29.9633V31.1429L14.146 28.7838L15.6915 31.1429L17.2369 28.7838L18.7824 31.1429L20.3278 28.7838L21.8732 31.1429L23.4187 28.7838L24.9641 31.1429L26.5211 28.7838L28.0665 31.1429L28.0671 29.9633Z" stroke="#1D1D1D" stroke-width="0.8" stroke-miterlimit="10" stroke-linejoin="round"/>
<path d="M18.7114 23.837C18.7114 24.0579 18.8905 24.237 19.1114 24.237C19.3323 24.237 19.5114 24.0579 19.5114 23.837H18.7114ZM19.1114 15.8359V15.4359C18.8905 15.4359 18.7114 15.615 18.7114 15.8359H19.1114ZM18.1914 19.7915C17.9705 19.7915 17.7914 19.9706 17.7914 20.1915C17.7914 20.4124 17.9705 20.5915 18.1914 20.5915V19.7915ZM19.5114 23.837V15.8359H18.7114V23.837H19.5114ZM19.1114 15.8359C19.1114 16.2359 19.1114 16.2359 19.1114 16.2359C19.1114 16.2359 19.1114 16.2359 19.1114 16.2359C19.1114 16.2359 19.1115 16.2359 19.1115 16.2359C19.1115 16.2359 19.1115 16.2359 19.1115 16.2359C19.1115 16.2359 19.1115 16.2359 19.1115 16.2359C19.1116 16.2359 19.1116 16.2359 19.1116 16.2359C19.1116 16.2359 19.1116 16.2359 19.1117 16.2359C19.1117 16.2359 19.1117 16.2359 19.1117 16.2359C19.1118 16.2359 19.1118 16.2359 19.1118 16.2359C19.1118 16.2359 19.1119 16.2359 19.1119 16.2359C19.1119 16.2359 19.112 16.2359 19.112 16.2359C19.112 16.2359 19.1121 16.2359 19.1121 16.2359C19.1122 16.2359 19.1122 16.2359 19.1122 16.2359C19.1123 16.2359 19.1123 16.2359 19.1124 16.2359C19.1124 16.2359 19.1125 16.2359 19.1125 16.2359C19.1126 16.2359 19.1126 16.2359 19.1127 16.2359C19.1127 16.2359 19.1128 16.2359 19.1128 16.2359C19.1129 16.2359 19.1129 16.2359 19.113 16.2359C19.1131 16.2359 19.1131 16.2359 19.1132 16.2359C19.1132 16.2359 19.1133 16.2359 19.1134 16.2359C19.1134 16.2359 19.1135 16.2359 19.1136 16.2359C19.1137 16.2359 19.1137 16.2359 19.1138 16.2359C19.1139 16.2359 19.1139 16.2359 19.114 16.2359C19.1141 16.2359 19.1142 16.2359 19.1143 16.2359C19.1143 16.2359 19.1144 16.2359 19.1145 16.2359C19.1146 16.2359 19.1147 16.2359 19.1147 16.2359C19.1148 16.2359 19.1149 16.2359 19.115 16.2359C19.1151 16.2359 19.1152 16.2359 19.1153 16.2359C19.1154 16.2359 19.1155 16.2359 19.1156 16.2359C19.1157 16.2359 19.1158 16.2359 19.1159 16.2359C19.116 16.2359 19.1161 16.2359 19.1162 16.2359C19.1163 16.2359 19.1164 16.2359 19.1165 16.2359C19.1166 16.2359 19.1167 16.2359 19.1168 16.2359C19.1169 16.2359 19.117 16.2359 19.1171 16.2359C19.1173 16.2359 19.1174 16.2359 19.1175 16.2359C19.1176 16.2359 19.1177 16.2359 19.1179 16.2359C19.118 16.2359 19.1181 16.2359 19.1182 16.2359C19.1183 16.2359 19.1185 16.2359 19.1186 16.2359C19.1187 16.2359 19.1189 16.2359 19.119 16.2359C19.1191 16.2359 19.1193 16.2359 19.1194 16.2359C19.1195 16.2359 19.1197 16.2359 19.1198 16.2359C19.1199 16.2359 19.1201 16.2359 19.1202 16.2359C19.1204 16.2359 19.1205 16.2359 19.1206 16.2359C19.1208 16.2359 19.1209 16.2359 19.1211 16.2359C19.1212 16.2359 19.1214 16.2359 19.1215 16.2359C19.1217 16.2359 19.1218 16.2359 19.122 16.2359C19.1222 16.2359 19.1223 16.2359 19.1225 16.2359C19.1226 16.2359 19.1228 16.2359 19.123 16.2359C19.1231 16.2359 19.1233 16.2359 19.1235 16.2359C19.1236 16.2359 19.1238 16.2359 19.124 16.2359C19.1241 16.2359 19.1243 16.2359 19.1245 16.2359C19.1247 16.2359 19.1248 16.2359 19.125 16.2359C19.1252 16.2359 19.1254 16.2359 19.1256 16.2359C19.1257 16.2359 19.1259 16.2359 19.1261 16.2359C19.1263 16.2359 19.1265 16.2359 19.1267 16.2359C19.1268 16.2359 19.127 16.2359 19.1272 16.2359C19.1274 16.2359 19.1276 16.2359 19.1278 16.2359C19.128 16.2359 19.1282 16.2359 19.1284 16.2359C19.1286 16.2359 19.1288 16.2359 19.129 16.2359C19.1292 16.2359 19.1294 16.2359 19.1296 16.2359C19.1298 16.2359 19.13 16.2359 19.1303 16.2359C19.1305 16.2359 19.1307 16.2359 19.1309 16.2359C19.1311 16.2359 19.1313 16.2359 19.1315 16.2359C19.1318 16.2359 19.132 16.2359 19.1322 16.2359C19.1324 16.2359 19.1326 16.2359 19.1329 16.2359C19.1331 16.2359 19.1333 16.2359 19.1336 16.2359C19.1338 16.2359 19.134 16.2359 19.1343 16.2359C19.1345 16.2359 19.1347 16.2359 19.135 16.2359C19.1352 16.2359 19.1354 16.2359 19.1357 16.2359C19.1359 16.2359 19.1362 16.2359 19.1364 16.2359C19.1366 16.2359 19.1369 16.2359 19.1371 16.2359C19.1374 16.2359 19.1376 16.2359 19.1379 16.2359C19.1381 16.2359 19.1384 16.2359 19.1387 16.2359C19.1389 16.2359 19.1392 16.2359 19.1394 16.2359C19.1397 16.2359 19.1399 16.2359 19.1402 16.2359C19.1405 16.2359 19.1407 16.2359 19.141 16.2359C19.1413 16.2359 19.1415 16.2359 19.1418 16.2359C19.1421 16.2359 19.1424 16.2359 19.1426 16.2359C19.1429 16.2359 19.1432 16.2359 19.1435 16.2359C19.1437 16.2359 19.144 16.2359 19.1443 16.2359C19.1446 16.2359 19.1449 16.2359 19.1452 16.2359C19.1454 16.2359 19.1457 16.2359 19.146 16.2359C19.1463 16.2359 19.1466 16.2359 19.1469 16.2359C19.1472 16.2359 19.1475 16.2359 19.1478 16.2359C19.1481 16.2359 19.1484 16.2359 19.1487 16.2359C19.149 16.2359 19.1493 16.2359 19.1496 16.2359C19.1499 16.2359 19.1502 16.2359 19.1505 16.2359C19.1508 16.2359 19.1511 16.2359 19.1515 16.2359C19.1518 16.2359 19.1521 16.2359 19.1524 16.2359C19.1527 16.2359 19.153 16.2359 19.1534 16.2359C19.1537 16.2359 19.154 16.2359 19.1543 16.2359C19.1547 16.2359 19.155 16.2359 19.1553 16.2359C19.1556 16.2359 19.156 16.2359 19.1563 16.2359C19.1566 16.2359 19.157 16.2359 19.1573 16.2359C19.1576 16.2359 19.158 16.2359 19.1583 16.2359C19.1587 16.2359 19.159 16.2359 19.1594 16.2359C19.1597 16.2359 19.16 16.2359 19.1604 16.2359C19.1607 16.2359 19.1611 16.2359 19.1615 16.2359C19.1618 16.2359 19.1622 16.2359 19.1625 16.2359C19.1629 16.2359 19.1632 16.2359 19.1636 16.2359C19.164 16.2359 19.1643 16.2359 19.1647 16.2359C19.165 16.2359 19.1654 16.2359 19.1658 16.2359C19.1662 16.2359 19.1665 16.2359 19.1669 16.2359C19.1673 16.2359 19.1676 16.2359 19.168 16.2359C19.1684 16.2359 19.1688 16.2359 19.1692 16.2359C19.1695 16.2359 19.1699 16.2359 19.1703 16.2359C19.1707 16.2359 19.1711 16.2359 19.1715 16.2359C19.1719 16.2359 19.1723 16.2359 19.1726 16.2359C19.173 16.2359 19.1734 16.2359 19.1738 16.2359C19.1742 16.2359 19.1746 16.2359 19.175 16.2359C19.1754 16.2359 19.1758 16.2359 19.1762 16.2359C19.1766 16.2359 19.1771 16.2359 19.1775 16.2359C19.1779 16.2359 19.1783 16.2359 19.1787 16.2359C19.1791 16.2359 19.1795 16.2359 19.1799 16.2359C19.1804 16.2359 19.1808 16.2359 19.1812 16.2359C19.1816 16.2359 19.1821 16.2359 19.1825 16.2359C19.1829 16.2359 19.1833 16.2359 19.1838 16.2359C19.1842 16.2359 19.1846 16.2359 19.1851 16.2359C19.1855 16.2359 19.1859 16.2359 19.1864 16.2359C19.1868 16.2359 19.1873 16.2359 19.1877 16.2359C19.1881 16.2359 19.1886 16.2359 19.189 16.2359C19.1895 16.2359 19.1899 16.2359 19.1904 16.2359C19.1908 16.2359 19.1913 16.2359 19.1917 16.2359C19.1922 16.2359 19.1926 16.2359 19.1931 16.2359C19.1936 16.2359 19.194 16.2359 19.1945 16.2359C19.195 16.2359 19.1954 16.2359 19.1959 16.2359C19.1964 16.2359 19.1968 16.2359 19.1973 16.2359C19.1978 16.2359 19.1982 16.2359 19.1987 16.2359C19.1992 16.2359 19.1997 16.2359 19.2002 16.2359C19.2006 16.2359 19.2011 16.2359 19.2016 16.2359C19.2021 16.2359 19.2026 16.2359 19.2031 16.2359C19.2036 16.2359 19.204 16.2359 19.2045 16.2359C19.205 16.2359 19.2055 16.2359 19.206 16.2359C19.2065 16.2359 19.207 16.2359 19.2075 16.2359C19.208 16.2359 19.2085 16.2359 19.209 16.2359C19.2095 16.2359 19.2101 16.2359 19.2106 16.2359C19.2111 16.2359 19.2116 16.2359 19.2121 16.2359C19.2126 16.2359 19.2131 16.2359 19.2137 16.2359C19.2142 16.2359 19.2147 16.2359 19.2152 16.2359C19.2157 16.2359 19.2163 16.2359 19.2168 16.2359C19.2173 16.2359 19.2179 16.2359 19.2184 16.2359C19.2189 16.2359 19.2195 16.2359 19.22 16.2359C19.2205 16.2359 19.2211 16.2359 19.2216 16.2359C19.2221 16.2359 19.2227 16.2359 19.2232 16.2359C19.2238 16.2359 19.2243 16.2359 19.2249 16.2359C19.2254 16.2359 19.226 16.2359 19.2265 16.2359C19.2271 16.2359 19.2276 16.2359 19.2282 16.2359C19.2288 16.2359 19.2293 16.2359 19.2299 16.2359C19.2304 16.2359 19.231 16.2359 19.2316 16.2359C19.2321 16.2359 19.2327 16.2359 19.2333 16.2359C19.2339 16.2359 19.2344 16.2359 19.235 16.2359C19.2356 16.2359 19.2362 16.2359 19.2367 16.2359C19.2373 16.2359 19.2379 16.2359 19.2385 16.2359C19.2391 16.2359 19.2397 16.2359 19.2402 16.2359C19.2408 16.2359 19.2414 16.2359 19.242 16.2359C19.2426 16.2359 19.2432 16.2359 19.2438 16.2359C19.2444 16.2359 19.245 16.2359 19.2456 16.2359C19.2462 16.2359 19.2468 16.2359 19.2474 16.2359C19.248 16.2359 19.2486 16.2359 19.2492 16.2359C19.2499 16.2359 19.2505 16.2359 19.2511 16.2359C19.2517 16.2359 19.2523 16.2359 19.2529 16.2359C19.2536 16.2359 19.2542 16.2359 19.2548 16.2359C19.2554 16.2359 19.2561 16.2359 19.2567 16.2359C19.2573 16.2359 19.258 16.2359 19.2586 16.2359C19.2592 16.2359 19.2599 16.2359 19.2605 16.2359C19.2611 16.2359 19.2618 16.2359 19.2624 16.2359C19.2631 16.2359 19.2637 16.2359 19.2644 16.2359C19.265 16.2359 19.2656 16.2359 19.2663 16.2359C19.267 16.2359 19.2676 16.2359 19.2683 16.2359C19.2689 16.2359 19.2696 16.2359 19.2702 16.2359C19.2709 16.2359 19.2716 16.2359 19.2722 16.2359C19.2729 16.2359 19.2736 16.2359 19.2742 16.2359C19.2749 16.2359 19.2756 16.2359 19.2763 16.2359C19.2769 16.2359 19.2776 16.2359 19.2783 16.2359C19.279 16.2359 19.2796 16.2359 19.2803 16.2359C19.281 16.2359 19.2817 16.2359 19.2824 16.2359C19.2831 16.2359 19.2838 16.2359 19.2845 16.2359C19.2852 16.2359 19.2858 16.2359 19.2865 16.2359C19.2872 16.2359 19.2879 16.2359 19.2886 16.2359C19.2893 16.2359 19.2901 16.2359 19.2908 16.2359C19.2915 16.2359 19.2922 16.2359 19.2929 16.2359C19.2936 16.2359 19.2943 16.2359 19.295 16.2359C19.2957 16.2359 19.2965 16.2359 19.2972 16.2359C19.2979 16.2359 19.2986 16.2359 19.2994 16.2359C19.3001 16.2359 19.3008 16.2359 19.3015 16.2359C19.3023 16.2359 19.303 16.2359 19.3037 16.2359C19.3045 16.2359 19.3052 16.2359 19.306 16.2359C19.3067 16.2359 19.3074 16.2359 19.3082 16.2359C19.3089 16.2359 19.3097 16.2359 19.3104 16.2359C19.3112 16.2359 19.3119 16.2359 19.3127 16.2359C19.3134 16.2359 19.3142 16.2359 19.3149 16.2359C19.3157 16.2359 19.3165 16.2359 19.3172 16.2359C19.318 16.2359 19.3188 16.2359 19.3195 16.2359C19.3203 16.2359 19.3211 16.2359 19.3218 16.2359C19.3226 16.2359 19.3234 16.2359 19.3242 16.2359C19.3249 16.2359 19.3257 16.2359 19.3265 16.2359C19.3273 16.2359 19.3281 16.2359 19.3289 16.2359C19.3296 16.2359 19.3304 16.2359 19.3312 16.2359C19.332 16.2359 19.3328 16.2359 19.3336 16.2359C19.3344 16.2359 19.3352 16.2359 19.336 16.2359C19.3368 16.2359 19.3376 16.2359 19.3384 16.2359C19.3392 16.2359 19.34 16.2359 19.3408 16.2359C19.3417 16.2359 19.3425 16.2359 19.3433 16.2359C19.3441 16.2359 19.3449 16.2359 19.3457 16.2359C19.3466 16.2359 19.3474 16.2359 19.3482 16.2359C19.349 16.2359 19.3499 16.2359 19.3507 16.2359C19.3515 16.2359 19.3524 16.2359 19.3532 16.2359C19.354 16.2359 19.3549 16.2359 19.3557 16.2359C19.3565 16.2359 19.3574 16.2359 19.3582 16.2359C19.3591 16.2359 19.3599 16.2359 19.3608 16.2359C19.3616 16.2359 19.3625 16.2359 19.3633 16.2359C19.3642 16.2359 19.365 16.2359 19.3659 16.2359C19.3668 16.2359 19.3676 16.2359 19.3685 16.2359C19.3694 16.2359 19.3702 16.2359 19.3711 16.2359C19.372 16.2359 19.3728 16.2359 19.3737 16.2359C19.3746 16.2359 19.3755 16.2359 19.3763 16.2359C19.3772 16.2359 19.3781 16.2359 19.379 16.2359C19.3799 16.2359 19.3808 16.2359 19.3817 16.2359C19.3825 16.2359 19.3834 16.2359 19.3843 16.2359C19.3852 16.2359 19.3861 16.2359 19.387 16.2359C19.3879 16.2359 19.3888 16.2359 19.3897 16.2359C19.3906 16.2359 19.3915 16.2359 19.3924 16.2359C19.3934 16.2359 19.3943 16.2359 19.3952 16.2359C19.3961 16.2359 19.397 16.2359 19.3979 16.2359C19.3988 16.2359 19.3998 16.2359 19.4007 16.2359C19.4016 16.2359 19.4025 16.2359 19.4035 16.2359C19.4044 16.2359 19.4053 16.2359 19.4063 16.2359C19.4072 16.2359 19.4081 16.2359 19.4091 16.2359C19.41 16.2359 19.411 16.2359 19.4119 16.2359C19.4128 16.2359 19.4138 16.2359 19.4147 16.2359C19.4157 16.2359 19.4166 16.2359 19.4176 16.2359C19.4186 16.2359 19.4195 16.2359 19.4205 16.2359C19.4214 16.2359 19.4224 16.2359 19.4234 16.2359C19.4243 16.2359 19.4253 16.2359 19.4263 16.2359C19.4272 16.2359 19.4282 16.2359 19.4292 16.2359C19.4301 16.2359 19.4311 16.2359 19.4321 16.2359C19.4331 16.2359 19.4341 16.2359 19.435 16.2359C19.436 16.2359 19.437 16.2359 19.438 16.2359C19.439 16.2359 19.44 16.2359 19.441 16.2359C19.442 16.2359 19.443 16.2359 19.444 16.2359C19.445 16.2359 19.446 16.2359 19.447 16.2359C19.448 16.2359 19.449 16.2359 19.45 16.2359C19.451 16.2359 19.452 16.2359 19.4531 16.2359C19.4541 16.2359 19.4551 16.2359 19.4561 16.2359C19.4571 16.2359 19.4581 16.2359 19.4592 16.2359C19.4602 16.2359 19.4612 16.2359 19.4623 16.2359C19.4633 16.2359 19.4643 16.2359 19.4654 16.2359C19.4664 16.2359 19.4674 16.2359 19.4685 16.2359C19.4695 16.2359 19.4706 16.2359 19.4716 16.2359C19.4727 16.2359 19.4737 16.2359 19.4748 16.2359C19.4758 16.2359 19.4769 16.2359 19.4779 16.2359C19.479 16.2359 19.48 16.2359 19.4811 16.2359C19.4822 16.2359 19.4832 16.2359 19.4843 16.2359C19.4854 16.2359 19.4864 16.2359 19.4875 16.2359C19.4886 16.2359 19.4896 16.2359 19.4907 16.2359C19.4918 16.2359 19.4929 16.2359 19.494 16.2359C19.4951 16.2359 19.4961 16.2359 19.4972 16.2359C19.4983 16.2359 19.4994 16.2359 19.5005 16.2359C19.5016 16.2359 19.5027 16.2359 19.5038 16.2359C19.5049 16.2359 19.506 16.2359 19.5071 16.2359C19.5082 16.2359 19.5093 16.2359 19.5104 16.2359C19.5115 16.2359 19.5126 16.2359 19.5137 16.2359C19.5149 16.2359 19.516 16.2359 19.5171 16.2359C19.5182 16.2359 19.5193 16.2359 19.5205 16.2359C19.5216 16.2359 19.5227 16.2359 19.5239 16.2359C19.525 16.2359 19.5261 16.2359 19.5272 16.2359C19.5284 16.2359 19.5295 16.2359 19.5307 16.2359C19.5318 16.2359 19.533 16.2359 19.5341 16.2359C19.5352 16.2359 19.5364 16.2359 19.5375 16.2359C19.5387 16.2359 19.5399 16.2359 19.541 16.2359C19.5422 16.2359 19.5433 16.2359 19.5445 16.2359C19.5457 16.2359 19.5468 16.2359 19.548 16.2359C19.5492 16.2359 19.5503 16.2359 19.5515 16.2359C19.5527 16.2359 19.5538 16.2359 19.555 16.2359C19.5562 16.2359 19.5574 16.2359 19.5586 16.2359C19.5598 16.2359 19.5609 16.2359 19.5621 16.2359C19.5633 16.2359 19.5645 16.2359 19.5657 16.2359C19.5669 16.2359 19.5681 16.2359 19.5693 16.2359C19.5705 16.2359 19.5717 16.2359 19.5729 16.2359C19.5741 16.2359 19.5753 16.2359 19.5765 16.2359C19.5777 16.2359 19.579 16.2359 19.5802 16.2359C19.5814 16.2359 19.5826 16.2359 19.5838 16.2359C19.5851 16.2359 19.5863 16.2359 19.5875 16.2359C19.5887 16.2359 19.59 16.2359 19.5912 16.2359C19.5924 16.2359 19.5937 16.2359 19.5949 16.2359C19.5961 16.2359 19.5974 16.2359 19.5986 16.2359C19.5999 16.2359 19.6011 16.2359 19.6024 16.2359C19.6036 16.2359 19.6049 16.2359 19.6061 16.2359C19.6074 16.2359 19.6086 16.2359 19.6099 16.2359C19.6112 16.2359 19.6124 16.2359 19.6137 16.2359C19.615 16.2359 19.6162 16.2359 19.6175 16.2359C19.6188 16.2359 19.62 16.2359 19.6213 16.2359C19.6226 16.2359 19.6239 16.2359 19.6252 16.2359C19.6264 16.2359 19.6277 16.2359 19.629 16.2359C19.6303 16.2359 19.6316 16.2359 19.6329 16.2359C19.6342 16.2359 19.6355 16.2359 19.6368 16.2359C19.6381 16.2359 19.6394 16.2359 19.6407 16.2359C19.642 16.2359 19.6433 16.2359 19.6446 16.2359C19.6459 16.2359 19.6472 16.2359 19.6485 16.2359C19.6499 16.2359 19.6512 16.2359 19.6525 16.2359C19.6538 16.2359 19.6552 16.2359 19.6565 16.2359C19.6578 16.2359 19.6591 16.2359 19.6605 16.2359C19.6618 16.2359 19.6631 16.2359 19.6645 16.2359C19.6658 16.2359 19.6672 16.2359 19.6685 16.2359C19.6698 16.2359 19.6712 16.2359 19.6725 16.2359C19.6739 16.2359 19.6752 16.2359 19.6766 16.2359C19.678 16.2359 19.6793 16.2359 19.6807 16.2359C19.682 16.2359 19.6834 16.2359 19.6848 16.2359C19.6861 16.2359 19.6875 16.2359 19.6889 16.2359C19.6902 16.2359 19.6916 16.2359 19.693 16.2359C19.6944 16.2359 19.6958 16.2359 19.6971 16.2359C19.6985 16.2359 19.6999 16.2359 19.7013 16.2359C19.7027 16.2359 19.7041 16.2359 19.7055 16.2359C19.7069 16.2359 19.7083 16.2359 19.7097 16.2359C19.7111 16.2359 19.7125 16.2359 19.7139 16.2359C19.7153 16.2359 19.7167 16.2359 19.7181 16.2359C19.7195 16.2359 19.7209 16.2359 19.7224 16.2359C19.7238 16.2359 19.7252 16.2359 19.7266 16.2359C19.728 16.2359 19.7295 16.2359 19.7309 16.2359C19.7323 16.2359 19.7338 16.2359 19.7352 16.2359C19.7366 16.2359 19.7381 16.2359 19.7395 16.2359C19.7409 16.2359 19.7424 16.2359 19.7438 16.2359C19.7453 16.2359 19.7467 16.2359 19.7482 16.2359C19.7496 16.2359 19.7511 16.2359 19.7526 16.2359C19.754 16.2359 19.7555 16.2359 19.7569 16.2359C19.7584 16.2359 19.7599 16.2359 19.7613 16.2359C19.7628 16.2359 19.7643 16.2359 19.7658 16.2359C19.7672 16.2359 19.7687 16.2359 19.7702 16.2359C19.7717 16.2359 19.7732 16.2359 19.7746 16.2359C19.7761 16.2359 19.7776 16.2359 19.7791 16.2359C19.7806 16.2359 19.7821 16.2359 19.7836 16.2359C19.7851 16.2359 19.7866 16.2359 19.7881 16.2359C19.7896 16.2359 19.7911 16.2359 19.7926 16.2359C19.7941 16.2359 19.7957 16.2359 19.7972 16.2359C19.7987 16.2359 19.8002 16.2359 19.8017 16.2359C19.8033 16.2359 19.8048 16.2359 19.8063 16.2359C19.8078 16.2359 19.8094 16.2359 19.8109 16.2359C19.8124 16.2359 19.814 16.2359 19.8155 16.2359C19.8171 16.2359 19.8186 16.2359 19.8201 16.2359C19.8217 16.2359 19.8232 16.2359 19.8248 16.2359C19.8263 16.2359 19.8279 16.2359 19.8295 16.2359C19.831 16.2359 19.8326 16.2359 19.8341 16.2359C19.8357 16.2359 19.8373 16.2359 19.8388 16.2359C19.8404 16.2359 19.842 16.2359 19.8436 16.2359C19.8451 16.2359 19.8467 16.2359 19.8483 16.2359C19.8499 16.2359 19.8515 16.2359 19.853 16.2359C19.8546 16.2359 19.8562 16.2359 19.8578 16.2359C19.8594 16.2359 19.861 16.2359 19.8626 16.2359C19.8642 16.2359 19.8658 16.2359 19.8674 16.2359C19.869 16.2359 19.8706 16.2359 19.8722 16.2359C19.8739 16.2359 19.8755 16.2359 19.8771 16.2359C19.8787 16.2359 19.8803 16.2359 19.8819 16.2359C19.8836 16.2359 19.8852 16.2359 19.8868 16.2359C19.8885 16.2359 19.8901 16.2359 19.8917 16.2359C19.8934 16.2359 19.895 16.2359 19.8966 16.2359C19.8983 16.2359 19.8999 16.2359 19.9016 16.2359C19.9032 16.2359 19.9049 16.2359 19.9065 16.2359C19.9082 16.2359 19.9098 16.2359 19.9115 16.2359C19.9132 16.2359 19.9148 16.2359 19.9165 16.2359C19.9181 16.2359 19.9198 16.2359 19.9215 16.2359C19.9232 16.2359 19.9248 16.2359 19.9265 16.2359C19.9282 16.2359 19.9299 16.2359 19.9316 16.2359C19.9332 16.2359 19.9349 16.2359 19.9366 16.2359C19.9383 16.2359 19.94 16.2359 19.9417 16.2359C19.9434 16.2359 19.9451 16.2359 19.9468 16.2359C19.9485 16.2359 19.9502 16.2359 19.9519 16.2359C19.9536 16.2359 19.9553 16.2359 19.957 16.2359C19.9588 16.2359 19.9605 16.2359 19.9622 16.2359C19.9639 16.2359 19.9656 16.2359 19.9674 16.2359C19.9691 16.2359 19.9708 16.2359 19.9726 16.2359C19.9743 16.2359 19.976 16.2359 19.9778 16.2359C19.9795 16.2359 19.9812 16.2359 19.983 16.2359C19.9847 16.2359 19.9865 16.2359 19.9882 16.2359C19.99 16.2359 19.9917 16.2359 19.9935 16.2359C19.9953 16.2359 19.997 16.2359 19.9988 16.2359C20.0005 16.2359 20.0023 16.2359 20.0041 16.2359C20.0059 16.2359 20.0076 16.2359 20.0094 16.2359C20.0112 16.2359 20.013 16.2359 20.0147 16.2359C20.0165 16.2359 20.0183 16.2359 20.0201 16.2359C20.0219 16.2359 20.0237 16.2359 20.0255 16.2359C20.0273 16.2359 20.0291 16.2359 20.0309 16.2359C20.0327 16.2359 20.0345 16.2359 20.0363 16.2359C20.0381 16.2359 20.0399 16.2359 20.0417 16.2359C20.0435 16.2359 20.0453 16.2359 20.0472 16.2359C20.049 16.2359 20.0508 16.2359 20.0526 16.2359C20.0545 16.2359 20.0563 16.2359 20.0581 16.2359C20.0599 16.2359 20.0618 16.2359 20.0636 16.2359C20.0655 16.2359 20.0673 16.2359 20.0691 16.2359C20.071 16.2359 20.0728 16.2359 20.0747 16.2359C20.0765 16.2359 20.0784 16.2359 20.0803 16.2359C20.0821 16.2359 20.084 16.2359 20.0858 16.2359C20.0877 16.2359 20.0896 16.2359 20.0914 16.2359C20.0933 16.2359 20.0952 16.2359 20.0971 16.2359C20.0989 16.2359 20.1008 16.2359 20.1027 16.2359C20.1046 16.2359 20.1065 16.2359 20.1084 16.2359C20.1102 16.2359 20.1121 16.2359 20.114 16.2359C20.1159 16.2359 20.1178 16.2359 20.1197 16.2359C20.1216 16.2359 20.1235 16.2359 20.1254 16.2359C20.1274 16.2359 20.1293 16.2359 20.1312 16.2359C20.1331 16.2359 20.135 16.2359 20.1369 16.2359C20.1389 16.2359 20.1408 16.2359 20.1427 16.2359C20.1446 16.2359 20.1466 16.2359 20.1485 16.2359C20.1504 16.2359 20.1524 16.2359 20.1543 16.2359C20.1563 16.2359 20.1582 16.2359 20.1601 16.2359C20.1621 16.2359 20.164 16.2359 20.166 16.2359C20.1679 16.2359 20.1699 16.2359 20.1719 16.2359C20.1738 16.2359 20.1758 16.2359 20.1777 16.2359C20.1797 16.2359 20.1817 16.2359 20.1837 16.2359C20.1856 16.2359 20.1876 16.2359 20.1896 16.2359C20.1916 16.2359 20.1935 16.2359 20.1955 16.2359C20.1975 16.2359 20.1995 16.2359 20.2015 16.2359C20.2035 16.2359 20.2055 16.2359 20.2075 16.2359C20.2095 16.2359 20.2115 16.2359 20.2135 16.2359C20.2155 16.2359 20.2175 16.2359 20.2195 16.2359C20.2215 16.2359 20.2235 16.2359 20.2256 16.2359C20.2276 16.2359 20.2296 16.2359 20.2316 16.2359C20.2336 16.2359 20.2357 16.2359 20.2377 16.2359C20.2397 16.2359 20.2418 16.2359 20.2438 16.2359C20.2458 16.2359 20.2479 16.2359 20.2499 16.2359C20.252 16.2359 20.254 16.2359 20.2561 16.2359C20.2581 16.2359 20.2602 16.2359 20.2622 16.2359C20.2643 16.2359 20.2663 16.2359 20.2684 16.2359C20.2705 16.2359 20.2725 16.2359 20.2746 16.2359C20.2767 16.2359 20.2788 16.2359 20.2808 16.2359C20.2829 16.2359 20.285 16.2359 20.2871 16.2359C20.2892 16.2359 20.2912 16.2359 20.2933 16.2359C20.2954 16.2359 20.2975 16.2359 20.2996 16.2359C20.3017 16.2359 20.3038 16.2359 20.3059 16.2359C20.308 16.2359 20.3101 16.2359 20.3122 16.2359C20.3143 16.2359 20.3165 16.2359 20.3186 16.2359C20.3207 16.2359 20.3228 16.2359 20.3249 16.2359C20.3271 16.2359 20.3292 16.2359 20.3313 16.2359C20.3334 16.2359 20.3356 16.2359 20.3377 16.2359C20.3398 16.2359 20.342 16.2359 20.3441 16.2359C20.3463 16.2359 20.3484 16.2359 20.3506 16.2359C20.3527 16.2359 20.3549 16.2359 20.357 16.2359C20.3592 16.2359 20.3613 16.2359 20.3635 16.2359C20.3657 16.2359 20.3678 16.2359 20.37 16.2359C20.3722 16.2359 20.3743 16.2359 20.3765 16.2359C20.3787 16.2359 20.3809 16.2359 20.3831 16.2359C20.3852 16.2359 20.3874 16.2359 20.3896 16.2359C20.3918 16.2359 20.394 16.2359 20.3962 16.2359C20.3984 16.2359 20.4006 16.2359 20.4028 16.2359C20.405 16.2359 20.4072 16.2359 20.4094 16.2359C20.4116 16.2359 20.4138 16.2359 20.4161 16.2359C20.4183 16.2359 20.4205 16.2359 20.4227 16.2359C20.4249 16.2359 20.4272 16.2359 20.4294 16.2359C20.4316 16.2359 20.4339 16.2359 20.4361 16.2359C20.4383 16.2359 20.4406 16.2359 20.4428 16.2359C20.4451 16.2359 20.4473 16.2359 20.4496 16.2359C20.4518 16.2359 20.4541 16.2359 20.4563 16.2359C20.4586 16.2359 20.4609 16.2359 20.4631 16.2359C20.4654 16.2359 20.4676 16.2359 20.4699 16.2359C20.4722 16.2359 20.4745 16.2359 20.4767 16.2359C20.479 16.2359 20.4813 16.2359 20.4836 16.2359C20.4859 16.2359 20.4882 16.2359 20.4905 16.2359C20.4927 16.2359 20.495 16.2359 20.4973 16.2359C20.4996 16.2359 20.5019 16.2359 20.5042 16.2359C20.5065 16.2359 20.5089 16.2359 20.5112 16.2359C20.5135 16.2359 20.5158 16.2359 20.5181 16.2359C20.5204 16.2359 20.5228 16.2359 20.5251 16.2359C20.5274 16.2359 20.5297 16.2359 20.5321 16.2359C20.5344 16.2359 20.5367 16.2359 20.5391 16.2359C20.5414 16.2359 20.5438 16.2359 20.5461 16.2359C20.5485 16.2359 20.5508 16.2359 20.5532 16.2359C20.5555 16.2359 20.5579 16.2359 20.5602 16.2359C20.5626 16.2359 20.565 16.2359 20.5673 16.2359C20.5697 16.2359 20.5721 16.2359 20.5744 16.2359C20.5768 16.2359 20.5792 16.2359 20.5816 16.2359C20.5839 16.2359 20.5863 16.2359 20.5887 16.2359C20.5911 16.2359 20.5935 16.2359 20.5959 16.2359C20.5983 16.2359 20.6007 16.2359 20.6031 16.2359C20.6055 16.2359 20.6079 16.2359 20.6103 16.2359C20.6127 16.2359 20.6151 16.2359 20.6175 16.2359C20.62 16.2359 20.6224 16.2359 20.6248 16.2359C20.6272 16.2359 20.6296 16.2359 20.6321 16.2359C20.6345 16.2359 20.6369 16.2359 20.6394 16.2359C20.6418 16.2359 20.6443 16.2359 20.6467 16.2359C20.6491 16.2359 20.6516 16.2359 20.654 16.2359C20.6565 16.2359 20.6589 16.2359 20.6614 16.2359C20.6639 16.2359 20.6663 16.2359 20.6688 16.2359C20.6713 16.2359 20.6737 16.2359 20.6762 16.2359C20.6787 16.2359 20.6811 16.2359 20.6836 16.2359C20.6861 16.2359 20.6886 16.2359 20.6911 16.2359C20.6936 16.2359 20.696 16.2359 20.6985 16.2359C20.701 16.2359 20.7035 16.2359 20.706 16.2359C20.7085 16.2359 20.711 16.2359 20.7135 16.2359C20.716 16.2359 20.7186 16.2359 20.7211 16.2359C20.7236 16.2359 20.7261 16.2359 20.7286 16.2359C20.7311 16.2359 20.7337 16.2359 20.7362 16.2359C20.7387 16.2359 20.7413 16.2359 20.7438 16.2359C20.7463 16.2359 20.7489 16.2359 20.7514 16.2359C20.754 16.2359 20.7565 16.2359 20.7591 16.2359C20.7616 16.2359 20.7642 16.2359 20.7667 16.2359C20.7693 16.2359 20.7718 16.2359 20.7744 16.2359C20.777 16.2359 20.7795 16.2359 20.7821 16.2359C20.7847 16.2359 20.7872 16.2359 20.7898 16.2359C20.7924 16.2359 20.795 16.2359 20.7976 16.2359C20.8002 16.2359 20.8027 16.2359 20.8053 16.2359C20.8079 16.2359 20.8105 16.2359 20.8131 16.2359C20.8157 16.2359 20.8183 16.2359 20.8209 16.2359C20.8236 16.2359 20.8262 16.2359 20.8288 16.2359C20.8314 16.2359 20.834 16.2359 20.8366 16.2359C20.8393 16.2359 20.8419 16.2359 20.8445 16.2359C20.8471 16.2359 20.8498 16.2359 20.8524 16.2359C20.855 16.2359 20.8577 16.2359 20.8603 16.2359C20.863 16.2359 20.8656 16.2359 20.8683 16.2359C20.8709 16.2359 20.8736 16.2359 20.8762 16.2359C20.8789 16.2359 20.8815 16.2359 20.8842 16.2359C20.8869 16.2359 20.8895 16.2359 20.8922 16.2359C20.8949 16.2359 20.8976 16.2359 20.9002 16.2359C20.9029 16.2359 20.9056 16.2359 20.9083 16.2359V15.4359C20.9056 15.4359 20.9029 15.4359 20.9002 15.4359C20.8976 15.4359 20.8949 15.4359 20.8922 15.4359C20.8895 15.4359 20.8869 15.4359 20.8842 15.4359C20.8815 15.4359 20.8789 15.4359 20.8762 15.4359C20.8736 15.4359 20.8709 15.4359 20.8683 15.4359C20.8656 15.4359 20.863 15.4359 20.8603 15.4359C20.8577 15.4359 20.855 15.4359 20.8524 15.4359C20.8498 15.4359 20.8471 15.4359 20.8445 15.4359C20.8419 15.4359 20.8393 15.4359 20.8366 15.4359C20.834 15.4359 20.8314 15.4359 20.8288 15.4359C20.8262 15.4359 20.8236 15.4359 20.8209 15.4359C20.8183 15.4359 20.8157 15.4359 20.8131 15.4359C20.8105 15.4359 20.8079 15.4359 20.8053 15.4359C20.8027 15.4359 20.8002 15.4359 20.7976 15.4359C20.795 15.4359 20.7924 15.4359 20.7898 15.4359C20.7872 15.4359 20.7847 15.4359 20.7821 15.4359C20.7795 15.4359 20.777 15.4359 20.7744 15.4359C20.7718 15.4359 20.7693 15.4359 20.7667 15.4359C20.7642 15.4359 20.7616 15.4359 20.7591 15.4359C20.7565 15.4359 20.754 15.4359 20.7514 15.4359C20.7489 15.4359 20.7463 15.4359 20.7438 15.4359C20.7413 15.4359 20.7387 15.4359 20.7362 15.4359C20.7337 15.4359 20.7311 15.4359 20.7286 15.4359C20.7261 15.4359 20.7236 15.4359 20.7211 15.4359C20.7186 15.4359 20.716 15.4359 20.7135 15.4359C20.711 15.4359 20.7085 15.4359 20.706 15.4359C20.7035 15.4359 20.701 15.4359 20.6985 15.4359C20.696 15.4359 20.6936 15.4359 20.6911 15.4359C20.6886 15.4359 20.6861 15.4359 20.6836 15.4359C20.6811 15.4359 20.6787 15.4359 20.6762 15.4359C20.6737 15.4359 20.6713 15.4359 20.6688 15.4359C20.6663 15.4359 20.6639 15.4359 20.6614 15.4359C20.6589 15.4359 20.6565 15.4359 20.654 15.4359C20.6516 15.4359 20.6491 15.4359 20.6467 15.4359C20.6443 15.4359 20.6418 15.4359 20.6394 15.4359C20.6369 15.4359 20.6345 15.4359 20.6321 15.4359C20.6296 15.4359 20.6272 15.4359 20.6248 15.4359C20.6224 15.4359 20.62 15.4359 20.6175 15.4359C20.6151 15.4359 20.6127 15.4359 20.6103 15.4359C20.6079 15.4359 20.6055 15.4359 20.6031 15.4359C20.6007 15.4359 20.5983 15.4359 20.5959 15.4359C20.5935 15.4359 20.5911 15.4359 20.5887 15.4359C20.5863 15.4359 20.5839 15.4359 20.5816 15.4359C20.5792 15.4359 20.5768 15.4359 20.5744 15.4359C20.5721 15.4359 20.5697 15.4359 20.5673 15.4359C20.565 15.4359 20.5626 15.4359 20.5602 15.4359C20.5579 15.4359 20.5555 15.4359 20.5532 15.4359C20.5508 15.4359 20.5485 15.4359 20.5461 15.4359C20.5438 15.4359 20.5414 15.4359 20.5391 15.4359C20.5367 15.4359 20.5344 15.4359 20.5321 15.4359C20.5297 15.4359 20.5274 15.4359 20.5251 15.4359C20.5228 15.4359 20.5204 15.4359 20.5181 15.4359C20.5158 15.4359 20.5135 15.4359 20.5112 15.4359C20.5089 15.4359 20.5065 15.4359 20.5042 15.4359C20.5019 15.4359 20.4996 15.4359 20.4973 15.4359C20.495 15.4359 20.4927 15.4359 20.4905 15.4359C20.4882 15.4359 20.4859 15.4359 20.4836 15.4359C20.4813 15.4359 20.479 15.4359 20.4767 15.4359C20.4745 15.4359 20.4722 15.4359 20.4699 15.4359C20.4676 15.4359 20.4654 15.4359 20.4631 15.4359C20.4609 15.4359 20.4586 15.4359 20.4563 15.4359C20.4541 15.4359 20.4518 15.4359 20.4496 15.4359C20.4473 15.4359 20.4451 15.4359 20.4428 15.4359C20.4406 15.4359 20.4383 15.4359 20.4361 15.4359C20.4339 15.4359 20.4316 15.4359 20.4294 15.4359C20.4272 15.4359 20.4249 15.4359 20.4227 15.4359C20.4205 15.4359 20.4183 15.4359 20.4161 15.4359C20.4138 15.4359 20.4116 15.4359 20.4094 15.4359C20.4072 15.4359 20.405 15.4359 20.4028 15.4359C20.4006 15.4359 20.3984 15.4359 20.3962 15.4359C20.394 15.4359 20.3918 15.4359 20.3896 15.4359C20.3874 15.4359 20.3852 15.4359 20.3831 15.4359C20.3809 15.4359 20.3787 15.4359 20.3765 15.4359C20.3743 15.4359 20.3722 15.4359 20.37 15.4359C20.3678 15.4359 20.3657 15.4359 20.3635 15.4359C20.3613 15.4359 20.3592 15.4359 20.357 15.4359C20.3549 15.4359 20.3527 15.4359 20.3506 15.4359C20.3484 15.4359 20.3463 15.4359 20.3441 15.4359C20.342 15.4359 20.3398 15.4359 20.3377 15.4359C20.3356 15.4359 20.3334 15.4359 20.3313 15.4359C20.3292 15.4359 20.3271 15.4359 20.3249 15.4359C20.3228 15.4359 20.3207 15.4359 20.3186 15.4359C20.3165 15.4359 20.3143 15.4359 20.3122 15.4359C20.3101 15.4359 20.308 15.4359 20.3059 15.4359C20.3038 15.4359 20.3017 15.4359 20.2996 15.4359C20.2975 15.4359 20.2954 15.4359 20.2933 15.4359C20.2912 15.4359 20.2892 15.4359 20.2871 15.4359C20.285 15.4359 20.2829 15.4359 20.2808 15.4359C20.2788 15.4359 20.2767 15.4359 20.2746 15.4359C20.2725 15.4359 20.2705 15.4359 20.2684 15.4359C20.2663 15.4359 20.2643 15.4359 20.2622 15.4359C20.2602 15.4359 20.2581 15.4359 20.2561 15.4359C20.254 15.4359 20.252 15.4359 20.2499 15.4359C20.2479 15.4359 20.2458 15.4359 20.2438 15.4359C20.2418 15.4359 20.2397 15.4359 20.2377 15.4359C20.2357 15.4359 20.2336 15.4359 20.2316 15.4359C20.2296 15.4359 20.2276 15.4359 20.2256 15.4359C20.2235 15.4359 20.2215 15.4359 20.2195 15.4359C20.2175 15.4359 20.2155 15.4359 20.2135 15.4359C20.2115 15.4359 20.2095 15.4359 20.2075 15.4359C20.2055 15.4359 20.2035 15.4359 20.2015 15.4359C20.1995 15.4359 20.1975 15.4359 20.1955 15.4359C20.1935 15.4359 20.1916 15.4359 20.1896 15.4359C20.1876 15.4359 20.1856 15.4359 20.1837 15.4359C20.1817 15.4359 20.1797 15.4359 20.1777 15.4359C20.1758 15.4359 20.1738 15.4359 20.1719 15.4359C20.1699 15.4359 20.1679 15.4359 20.166 15.4359C20.164 15.4359 20.1621 15.4359 20.1601 15.4359C20.1582 15.4359 20.1563 15.4359 20.1543 15.4359C20.1524 15.4359 20.1504 15.4359 20.1485 15.4359C20.1466 15.4359 20.1446 15.4359 20.1427 15.4359C20.1408 15.4359 20.1389 15.4359 20.1369 15.4359C20.135 15.4359 20.1331 15.4359 20.1312 15.4359C20.1293 15.4359 20.1274 15.4359 20.1254 15.4359C20.1235 15.4359 20.1216 15.4359 20.1197 15.4359C20.1178 15.4359 20.1159 15.4359 20.114 15.4359C20.1121 15.4359 20.1102 15.4359 20.1084 15.4359C20.1065 15.4359 20.1046 15.4359 20.1027 15.4359C20.1008 15.4359 20.0989 15.4359 20.0971 15.4359C20.0952 15.4359 20.0933 15.4359 20.0914 15.4359C20.0896 15.4359 20.0877 15.4359 20.0858 15.4359C20.084 15.4359 20.0821 15.4359 20.0803 15.4359C20.0784 15.4359 20.0765 15.4359 20.0747 15.4359C20.0728 15.4359 20.071 15.4359 20.0691 15.4359C20.0673 15.4359 20.0655 15.4359 20.0636 15.4359C20.0618 15.4359 20.0599 15.4359 20.0581 15.4359C20.0563 15.4359 20.0545 15.4359 20.0526 15.4359C20.0508 15.4359 20.049 15.4359 20.0472 15.4359C20.0453 15.4359 20.0435 15.4359 20.0417 15.4359C20.0399 15.4359 20.0381 15.4359 20.0363 15.4359C20.0345 15.4359 20.0327 15.4359 20.0309 15.4359C20.0291 15.4359 20.0273 15.4359 20.0255 15.4359C20.0237 15.4359 20.0219 15.4359 20.0201 15.4359C20.0183 15.4359 20.0165 15.4359 20.0147 15.4359C20.013 15.4359 20.0112 15.4359 20.0094 15.4359C20.0076 15.4359 20.0059 15.4359 20.0041 15.4359C20.0023 15.4359 20.0005 15.4359 19.9988 15.4359C19.997 15.4359 19.9953 15.4359 19.9935 15.4359C19.9917 15.4359 19.99 15.4359 19.9882 15.4359C19.9865 15.4359 19.9847 15.4359 19.983 15.4359C19.9812 15.4359 19.9795 15.4359 19.9778 15.4359C19.976 15.4359 19.9743 15.4359 19.9726 15.4359C19.9708 15.4359 19.9691 15.4359 19.9674 15.4359C19.9656 15.4359 19.9639 15.4359 19.9622 15.4359C19.9605 15.4359 19.9588 15.4359 19.957 15.4359C19.9553 15.4359 19.9536 15.4359 19.9519 15.4359C19.9502 15.4359 19.9485 15.4359 19.9468 15.4359C19.9451 15.4359 19.9434 15.4359 19.9417 15.4359C19.94 15.4359 19.9383 15.4359 19.9366 15.4359C19.9349 15.4359 19.9332 15.4359 19.9316 15.4359C19.9299 15.4359 19.9282 15.4359 19.9265 15.4359C19.9248 15.4359 19.9232 15.4359 19.9215 15.4359C19.9198 15.4359 19.9181 15.4359 19.9165 15.4359C19.9148 15.4359 19.9132 15.4359 19.9115 15.4359C19.9098 15.4359 19.9082 15.4359 19.9065 15.4359C19.9049 15.4359 19.9032 15.4359 19.9016 15.4359C19.8999 15.4359 19.8983 15.4359 19.8966 15.4359C19.895 15.4359 19.8934 15.4359 19.8917 15.4359C19.8901 15.4359 19.8885 15.4359 19.8868 15.4359C19.8852 15.4359 19.8836 15.4359 19.8819 15.4359C19.8803 15.4359 19.8787 15.4359 19.8771 15.4359C19.8755 15.4359 19.8739 15.4359 19.8722 15.4359C19.8706 15.4359 19.869 15.4359 19.8674 15.4359C19.8658 15.4359 19.8642 15.4359 19.8626 15.4359C19.861 15.4359 19.8594 15.4359 19.8578 15.4359C19.8562 15.4359 19.8546 15.4359 19.853 15.4359C19.8515 15.4359 19.8499 15.4359 19.8483 15.4359C19.8467 15.4359 19.8451 15.4359 19.8436 15.4359C19.842 15.4359 19.8404 15.4359 19.8388 15.4359C19.8373 15.4359 19.8357 15.4359 19.8341 15.4359C19.8326 15.4359 19.831 15.4359 19.8295 15.4359C19.8279 15.4359 19.8263 15.4359 19.8248 15.4359C19.8232 15.4359 19.8217 15.4359 19.8201 15.4359C19.8186 15.4359 19.8171 15.4359 19.8155 15.4359C19.814 15.4359 19.8124 15.4359 19.8109 15.4359C19.8094 15.4359 19.8078 15.4359 19.8063 15.4359C19.8048 15.4359 19.8033 15.4359 19.8017 15.4359C19.8002 15.4359 19.7987 15.4359 19.7972 15.4359C19.7957 15.4359 19.7941 15.4359 19.7926 15.4359C19.7911 15.4359 19.7896 15.4359 19.7881 15.4359C19.7866 15.4359 19.7851 15.4359 19.7836 15.4359C19.7821 15.4359 19.7806 15.4359 19.7791 15.4359C19.7776 15.4359 19.7761 15.4359 19.7746 15.4359C19.7732 15.4359 19.7717 15.4359 19.7702 15.4359C19.7687 15.4359 19.7672 15.4359 19.7658 15.4359C19.7643 15.4359 19.7628 15.4359 19.7613 15.4359C19.7599 15.4359 19.7584 15.4359 19.7569 15.4359C19.7555 15.4359 19.754 15.4359 19.7526 15.4359C19.7511 15.4359 19.7496 15.4359 19.7482 15.4359C19.7467 15.4359 19.7453 15.4359 19.7438 15.4359C19.7424 15.4359 19.7409 15.4359 19.7395 15.4359C19.7381 15.4359 19.7366 15.4359 19.7352 15.4359C19.7338 15.4359 19.7323 15.4359 19.7309 15.4359C19.7295 15.4359 19.728 15.4359 19.7266 15.4359C19.7252 15.4359 19.7238 15.4359 19.7224 15.4359C19.7209 15.4359 19.7195 15.4359 19.7181 15.4359C19.7167 15.4359 19.7153 15.4359 19.7139 15.4359C19.7125 15.4359 19.7111 15.4359 19.7097 15.4359C19.7083 15.4359 19.7069 15.4359 19.7055 15.4359C19.7041 15.4359 19.7027 15.4359 19.7013 15.4359C19.6999 15.4359 19.6985 15.4359 19.6971 15.4359C19.6958 15.4359 19.6944 15.4359 19.693 15.4359C19.6916 15.4359 19.6902 15.4359 19.6889 15.4359C19.6875 15.4359 19.6861 15.4359 19.6848 15.4359C19.6834 15.4359 19.682 15.4359 19.6807 15.4359C19.6793 15.4359 19.678 15.4359 19.6766 15.4359C19.6752 15.4359 19.6739 15.4359 19.6725 15.4359C19.6712 15.4359 19.6698 15.4359 19.6685 15.4359C19.6672 15.4359 19.6658 15.4359 19.6645 15.4359C19.6631 15.4359 19.6618 15.4359 19.6605 15.4359C19.6591 15.4359 19.6578 15.4359 19.6565 15.4359C19.6552 15.4359 19.6538 15.4359 19.6525 15.4359C19.6512 15.4359 19.6499 15.4359 19.6485 15.4359C19.6472 15.4359 19.6459 15.4359 19.6446 15.4359C19.6433 15.4359 19.642 15.4359 19.6407 15.4359C19.6394 15.4359 19.6381 15.4359 19.6368 15.4359C19.6355 15.4359 19.6342 15.4359 19.6329 15.4359C19.6316 15.4359 19.6303 15.4359 19.629 15.4359C19.6277 15.4359 19.6264 15.4359 19.6252 15.4359C19.6239 15.4359 19.6226 15.4359 19.6213 15.4359C19.62 15.4359 19.6188 15.4359 19.6175 15.4359C19.6162 15.4359 19.615 15.4359 19.6137 15.4359C19.6124 15.4359 19.6112 15.4359 19.6099 15.4359C19.6086 15.4359 19.6074 15.4359 19.6061 15.4359C19.6049 15.4359 19.6036 15.4359 19.6024 15.4359C19.6011 15.4359 19.5999 15.4359 19.5986 15.4359C19.5974 15.4359 19.5961 15.4359 19.5949 15.4359C19.5937 15.4359 19.5924 15.4359 19.5912 15.4359C19.59 15.4359 19.5887 15.4359 19.5875 15.4359C19.5863 15.4359 19.5851 15.4359 19.5838 15.4359C19.5826 15.4359 19.5814 15.4359 19.5802 15.4359C19.579 15.4359 19.5777 15.4359 19.5765 15.4359C19.5753 15.4359 19.5741 15.4359 19.5729 15.4359C19.5717 15.4359 19.5705 15.4359 19.5693 15.4359C19.5681 15.4359 19.5669 15.4359 19.5657 15.4359C19.5645 15.4359 19.5633 15.4359 19.5621 15.4359C19.5609 15.4359 19.5598 15.4359 19.5586 15.4359C19.5574 15.4359 19.5562 15.4359 19.555 15.4359C19.5538 15.4359 19.5527 15.4359 19.5515 15.4359C19.5503 15.4359 19.5492 15.4359 19.548 15.4359C19.5468 15.4359 19.5457 15.4359 19.5445 15.4359C19.5433 15.4359 19.5422 15.4359 19.541 15.4359C19.5399 15.4359 19.5387 15.4359 19.5375 15.4359C19.5364 15.4359 19.5352 15.4359 19.5341 15.4359C19.533 15.4359 19.5318 15.4359 19.5307 15.4359C19.5295 15.4359 19.5284 15.4359 19.5272 15.4359C19.5261 15.4359 19.525 15.4359 19.5239 15.4359C19.5227 15.4359 19.5216 15.4359 19.5205 15.4359C19.5193 15.4359 19.5182 15.4359 19.5171 15.4359C19.516 15.4359 19.5149 15.4359 19.5137 15.4359C19.5126 15.4359 19.5115 15.4359 19.5104 15.4359C19.5093 15.4359 19.5082 15.4359 19.5071 15.4359C19.506 15.4359 19.5049 15.4359 19.5038 15.4359C19.5027 15.4359 19.5016 15.4359 19.5005 15.4359C19.4994 15.4359 19.4983 15.4359 19.4972 15.4359C19.4961 15.4359 19.4951 15.4359 19.494 15.4359C19.4929 15.4359 19.4918 15.4359 19.4907 15.4359C19.4896 15.4359 19.4886 15.4359 19.4875 15.4359C19.4864 15.4359 19.4854 15.4359 19.4843 15.4359C19.4832 15.4359 19.4822 15.4359 19.4811 15.4359C19.48 15.4359 19.479 15.4359 19.4779 15.4359C19.4769 15.4359 19.4758 15.4359 19.4748 15.4359C19.4737 15.4359 19.4727 15.4359 19.4716 15.4359C19.4706 15.4359 19.4695 15.4359 19.4685 15.4359C19.4674 15.4359 19.4664 15.4359 19.4654 15.4359C19.4643 15.4359 19.4633 15.4359 19.4623 15.4359C19.4612 15.4359 19.4602 15.4359 19.4592 15.4359C19.4581 15.4359 19.4571 15.4359 19.4561 15.4359C19.4551 15.4359 19.4541 15.4359 19.4531 15.4359C19.452 15.4359 19.451 15.4359 19.45 15.4359C19.449 15.4359 19.448 15.4359 19.447 15.4359C19.446 15.4359 19.445 15.4359 19.444 15.4359C19.443 15.4359 19.442 15.4359 19.441 15.4359C19.44 15.4359 19.439 15.4359 19.438 15.4359C19.437 15.4359 19.436 15.4359 19.435 15.4359C19.4341 15.4359 19.4331 15.4359 19.4321 15.4359C19.4311 15.4359 19.4301 15.4359 19.4292 15.4359C19.4282 15.4359 19.4272 15.4359 19.4263 15.4359C19.4253 15.4359 19.4243 15.4359 19.4234 15.4359C19.4224 15.4359 19.4214 15.4359 19.4205 15.4359C19.4195 15.4359 19.4186 15.4359 19.4176 15.4359C19.4166 15.4359 19.4157 15.4359 19.4147 15.4359C19.4138 15.4359 19.4128 15.4359 19.4119 15.4359C19.411 15.4359 19.41 15.4359 19.4091 15.4359C19.4081 15.4359 19.4072 15.4359 19.4063 15.4359C19.4053 15.4359 19.4044 15.4359 19.4035 15.4359C19.4025 15.4359 19.4016 15.4359 19.4007 15.4359C19.3998 15.4359 19.3988 15.4359 19.3979 15.4359C19.397 15.4359 19.3961 15.4359 19.3952 15.4359C19.3943 15.4359 19.3934 15.4359 19.3924 15.4359C19.3915 15.4359 19.3906 15.4359 19.3897 15.4359C19.3888 15.4359 19.3879 15.4359 19.387 15.4359C19.3861 15.4359 19.3852 15.4359 19.3843 15.4359C19.3834 15.4359 19.3825 15.4359 19.3817 15.4359C19.3808 15.4359 19.3799 15.4359 19.379 15.4359C19.3781 15.4359 19.3772 15.4359 19.3763 15.4359C19.3755 15.4359 19.3746 15.4359 19.3737 15.4359C19.3728 15.4359 19.372 15.4359 19.3711 15.4359C19.3702 15.4359 19.3694 15.4359 19.3685 15.4359C19.3676 15.4359 19.3668 15.4359 19.3659 15.4359C19.365 15.4359 19.3642 15.4359 19.3633 15.4359C19.3625 15.4359 19.3616 15.4359 19.3608 15.4359C19.3599 15.4359 19.3591 15.4359 19.3582 15.4359C19.3574 15.4359 19.3565 15.4359 19.3557 15.4359C19.3549 15.4359 19.354 15.4359 19.3532 15.4359C19.3524 15.4359 19.3515 15.4359 19.3507 15.4359C19.3499 15.4359 19.349 15.4359 19.3482 15.4359C19.3474 15.4359 19.3466 15.4359 19.3457 15.4359C19.3449 15.4359 19.3441 15.4359 19.3433 15.4359C19.3425 15.4359 19.3417 15.4359 19.3408 15.4359C19.34 15.4359 19.3392 15.4359 19.3384 15.4359C19.3376 15.4359 19.3368 15.4359 19.336 15.4359C19.3352 15.4359 19.3344 15.4359 19.3336 15.4359C19.3328 15.4359 19.332 15.4359 19.3312 15.4359C19.3304 15.4359 19.3296 15.4359 19.3289 15.4359C19.3281 15.4359 19.3273 15.4359 19.3265 15.4359C19.3257 15.4359 19.3249 15.4359 19.3242 15.4359C19.3234 15.4359 19.3226 15.4359 19.3218 15.4359C19.3211 15.4359 19.3203 15.4359 19.3195 15.4359C19.3188 15.4359 19.318 15.4359 19.3172 15.4359C19.3165 15.4359 19.3157 15.4359 19.3149 15.4359C19.3142 15.4359 19.3134 15.4359 19.3127 15.4359C19.3119 15.4359 19.3112 15.4359 19.3104 15.4359C19.3097 15.4359 19.3089 15.4359 19.3082 15.4359C19.3074 15.4359 19.3067 15.4359 19.306 15.4359C19.3052 15.4359 19.3045 15.4359 19.3037 15.4359C19.303 15.4359 19.3023 15.4359 19.3015 15.4359C19.3008 15.4359 19.3001 15.4359 19.2994 15.4359C19.2986 15.4359 19.2979 15.4359 19.2972 15.4359C19.2965 15.4359 19.2957 15.4359 19.295 15.4359C19.2943 15.4359 19.2936 15.4359 19.2929 15.4359C19.2922 15.4359 19.2915 15.4359 19.2908 15.4359C19.2901 15.4359 19.2893 15.4359 19.2886 15.4359C19.2879 15.4359 19.2872 15.4359 19.2865 15.4359C19.2858 15.4359 19.2852 15.4359 19.2845 15.4359C19.2838 15.4359 19.2831 15.4359 19.2824 15.4359C19.2817 15.4359 19.281 15.4359 19.2803 15.4359C19.2796 15.4359 19.279 15.4359 19.2783 15.4359C19.2776 15.4359 19.2769 15.4359 19.2763 15.4359C19.2756 15.4359 19.2749 15.4359 19.2742 15.4359C19.2736 15.4359 19.2729 15.4359 19.2722 15.4359C19.2716 15.4359 19.2709 15.4359 19.2702 15.4359C19.2696 15.4359 19.2689 15.4359 19.2683 15.4359C19.2676 15.4359 19.267 15.4359 19.2663 15.4359C19.2656 15.4359 19.265 15.4359 19.2644 15.4359C19.2637 15.4359 19.2631 15.4359 19.2624 15.4359C19.2618 15.4359 19.2611 15.4359 19.2605 15.4359C19.2599 15.4359 19.2592 15.4359 19.2586 15.4359C19.258 15.4359 19.2573 15.4359 19.2567 15.4359C19.2561 15.4359 19.2554 15.4359 19.2548 15.4359C19.2542 15.4359 19.2536 15.4359 19.2529 15.4359C19.2523 15.4359 19.2517 15.4359 19.2511 15.4359C19.2505 15.4359 19.2499 15.4359 19.2492 15.4359C19.2486 15.4359 19.248 15.4359 19.2474 15.4359C19.2468 15.4359 19.2462 15.4359 19.2456 15.4359C19.245 15.4359 19.2444 15.4359 19.2438 15.4359C19.2432 15.4359 19.2426 15.4359 19.242 15.4359C19.2414 15.4359 19.2408 15.4359 19.2402 15.4359C19.2397 15.4359 19.2391 15.4359 19.2385 15.4359C19.2379 15.4359 19.2373 15.4359 19.2367 15.4359C19.2362 15.4359 19.2356 15.4359 19.235 15.4359C19.2344 15.4359 19.2339 15.4359 19.2333 15.4359C19.2327 15.4359 19.2321 15.4359 19.2316 15.4359C19.231 15.4359 19.2304 15.4359 19.2299 15.4359C19.2293 15.4359 19.2288 15.4359 19.2282 15.4359C19.2276 15.4359 19.2271 15.4359 19.2265 15.4359C19.226 15.4359 19.2254 15.4359 19.2249 15.4359C19.2243 15.4359 19.2238 15.4359 19.2232 15.4359C19.2227 15.4359 19.2221 15.4359 19.2216 15.4359C19.2211 15.4359 19.2205 15.4359 19.22 15.4359C19.2195 15.4359 19.2189 15.4359 19.2184 15.4359C19.2179 15.4359 19.2173 15.4359 19.2168 15.4359C19.2163 15.4359 19.2157 15.4359 19.2152 15.4359C19.2147 15.4359 19.2142 15.4359 19.2137 15.4359C19.2131 15.4359 19.2126 15.4359 19.2121 15.4359C19.2116 15.4359 19.2111 15.4359 19.2106 15.4359C19.2101 15.4359 19.2095 15.4359 19.209 15.4359C19.2085 15.4359 19.208 15.4359 19.2075 15.4359C19.207 15.4359 19.2065 15.4359 19.206 15.4359C19.2055 15.4359 19.205 15.4359 19.2045 15.4359C19.204 15.4359 19.2036 15.4359 19.2031 15.4359C19.2026 15.4359 19.2021 15.4359 19.2016 15.4359C19.2011 15.4359 19.2006 15.4359 19.2002 15.4359C19.1997 15.4359 19.1992 15.4359 19.1987 15.4359C19.1982 15.4359 19.1978 15.4359 19.1973 15.4359C19.1968 15.4359 19.1964 15.4359 19.1959 15.4359C19.1954 15.4359 19.195 15.4359 19.1945 15.4359C19.194 15.4359 19.1936 15.4359 19.1931 15.4359C19.1926 15.4359 19.1922 15.4359 19.1917 15.4359C19.1913 15.4359 19.1908 15.4359 19.1904 15.4359C19.1899 15.4359 19.1895 15.4359 19.189 15.4359C19.1886 15.4359 19.1881 15.4359 19.1877 15.4359C19.1873 15.4359 19.1868 15.4359 19.1864 15.4359C19.1859 15.4359 19.1855 15.4359 19.1851 15.4359C19.1846 15.4359 19.1842 15.4359 19.1838 15.4359C19.1833 15.4359 19.1829 15.4359 19.1825 15.4359C19.1821 15.4359 19.1816 15.4359 19.1812 15.4359C19.1808 15.4359 19.1804 15.4359 19.1799 15.4359C19.1795 15.4359 19.1791 15.4359 19.1787 15.4359C19.1783 15.4359 19.1779 15.4359 19.1775 15.4359C19.1771 15.4359 19.1766 15.4359 19.1762 15.4359C19.1758 15.4359 19.1754 15.4359 19.175 15.4359C19.1746 15.4359 19.1742 15.4359 19.1738 15.4359C19.1734 15.4359 19.173 15.4359 19.1726 15.4359C19.1723 15.4359 19.1719 15.4359 19.1715 15.4359C19.1711 15.4359 19.1707 15.4359 19.1703 15.4359C19.1699 15.4359 19.1695 15.4359 19.1692 15.4359C19.1688 15.4359 19.1684 15.4359 19.168 15.4359C19.1676 15.4359 19.1673 15.4359 19.1669 15.4359C19.1665 15.4359 19.1662 15.4359 19.1658 15.4359C19.1654 15.4359 19.165 15.4359 19.1647 15.4359C19.1643 15.4359 19.164 15.4359 19.1636 15.4359C19.1632 15.4359 19.1629 15.4359 19.1625 15.4359C19.1622 15.4359 19.1618 15.4359 19.1615 15.4359C19.1611 15.4359 19.1607 15.4359 19.1604 15.4359C19.16 15.4359 19.1597 15.4359 19.1594 15.4359C19.159 15.4359 19.1587 15.4359 19.1583 15.4359C19.158 15.4359 19.1576 15.4359 19.1573 15.4359C19.157 15.4359 19.1566 15.4359 19.1563 15.4359C19.156 15.4359 19.1556 15.4359 19.1553 15.4359C19.155 15.4359 19.1547 15.4359 19.1543 15.4359C19.154 15.4359 19.1537 15.4359 19.1534 15.4359C19.153 15.4359 19.1527 15.4359 19.1524 15.4359C19.1521 15.4359 19.1518 15.4359 19.1515 15.4359C19.1511 15.4359 19.1508 15.4359 19.1505 15.4359C19.1502 15.4359 19.1499 15.4359 19.1496 15.4359C19.1493 15.4359 19.149 15.4359 19.1487 15.4359C19.1484 15.4359 19.1481 15.4359 19.1478 15.4359C19.1475 15.4359 19.1472 15.4359 19.1469 15.4359C19.1466 15.4359 19.1463 15.4359 19.146 15.4359C19.1457 15.4359 19.1454 15.4359 19.1452 15.4359C19.1449 15.4359 19.1446 15.4359 19.1443 15.4359C19.144 15.4359 19.1437 15.4359 19.1435 15.4359C19.1432 15.4359 19.1429 15.4359 19.1426 15.4359C19.1424 15.4359 19.1421 15.4359 19.1418 15.4359C19.1415 15.4359 19.1413 15.4359 19.141 15.4359C19.1407 15.4359 19.1405 15.4359 19.1402 15.4359C19.1399 15.4359 19.1397 15.4359 19.1394 15.4359C19.1392 15.4359 19.1389 15.4359 19.1387 15.4359C19.1384 15.4359 19.1381 15.4359 19.1379 15.4359C19.1376 15.4359 19.1374 15.4359 19.1371 15.4359C19.1369 15.4359 19.1366 15.4359 19.1364 15.4359C19.1362 15.4359 19.1359 15.4359 19.1357 15.4359C19.1354 15.4359 19.1352 15.4359 19.135 15.4359C19.1347 15.4359 19.1345 15.4359 19.1343 15.4359C19.134 15.4359 19.1338 15.4359 19.1336 15.4359C19.1333 15.4359 19.1331 15.4359 19.1329 15.4359C19.1326 15.4359 19.1324 15.4359 19.1322 15.4359C19.132 15.4359 19.1318 15.4359 19.1315 15.4359C19.1313 15.4359 19.1311 15.4359 19.1309 15.4359C19.1307 15.4359 19.1305 15.4359 19.1303 15.4359C19.13 15.4359 19.1298 15.4359 19.1296 15.4359C19.1294 15.4359 19.1292 15.4359 19.129 15.4359C19.1288 15.4359 19.1286 15.4359 19.1284 15.4359C19.1282 15.4359 19.128 15.4359 19.1278 15.4359C19.1276 15.4359 19.1274 15.4359 19.1272 15.4359C19.127 15.4359 19.1268 15.4359 19.1267 15.4359C19.1265 15.4359 19.1263 15.4359 19.1261 15.4359C19.1259 15.4359 19.1257 15.4359 19.1256 15.4359C19.1254 15.4359 19.1252 15.4359 19.125 15.4359C19.1248 15.4359 19.1247 15.4359 19.1245 15.4359C19.1243 15.4359 19.1241 15.4359 19.124 15.4359C19.1238 15.4359 19.1236 15.4359 19.1235 15.4359C19.1233 15.4359 19.1231 15.4359 19.123 15.4359C19.1228 15.4359 19.1226 15.4359 19.1225 15.4359C19.1223 15.4359 19.1222 15.4359 19.122 15.4359C19.1218 15.4359 19.1217 15.4359 19.1215 15.4359C19.1214 15.4359 19.1212 15.4359 19.1211 15.4359C19.1209 15.4359 19.1208 15.4359 19.1206 15.4359C19.1205 15.4359 19.1204 15.4359 19.1202 15.4359C19.1201 15.4359 19.1199 15.4359 19.1198 15.4359C19.1197 15.4359 19.1195 15.4359 19.1194 15.4359C19.1193 15.4359 19.1191 15.4359 19.119 15.4359C19.1189 15.4359 19.1187 15.4359 19.1186 15.4359C19.1185 15.4359 19.1183 15.4359 19.1182 15.4359C19.1181 15.4359 19.118 15.4359 19.1179 15.4359C19.1177 15.4359 19.1176 15.4359 19.1175 15.4359C19.1174 15.4359 19.1173 15.4359 19.1171 15.4359C19.117 15.4359 19.1169 15.4359 19.1168 15.4359C19.1167 15.4359 19.1166 15.4359 19.1165 15.4359C19.1164 15.4359 19.1163 15.4359 19.1162 15.4359C19.1161 15.4359 19.116 15.4359 19.1159 15.4359C19.1158 15.4359 19.1157 15.4359 19.1156 15.4359C19.1155 15.4359 19.1154 15.4359 19.1153 15.4359C19.1152 15.4359 19.1151 15.4359 19.115 15.4359C19.1149 15.4359 19.1148 15.4359 19.1147 15.4359C19.1147 15.4359 19.1146 15.4359 19.1145 15.4359C19.1144 15.4359 19.1143 15.4359 19.1143 15.4359C19.1142 15.4359 19.1141 15.4359 19.114 15.4359C19.1139 15.4359 19.1139 15.4359 19.1138 15.4359C19.1137 15.4359 19.1137 15.4359 19.1136 15.4359C19.1135 15.4359 19.1134 15.4359 19.1134 15.4359C19.1133 15.4359 19.1132 15.4359 19.1132 15.4359C19.1131 15.4359 19.1131 15.4359 19.113 15.4359C19.1129 15.4359 19.1129 15.4359 19.1128 15.4359C19.1128 15.4359 19.1127 15.4359 19.1127 15.4359C19.1126 15.4359 19.1126 15.4359 19.1125 15.4359C19.1125 15.4359 19.1124 15.4359 19.1124 15.4359C19.1123 15.4359 19.1123 15.4359 19.1122 15.4359C19.1122 15.4359 19.1122 15.4359 19.1121 15.4359C19.1121 15.4359 19.112 15.4359 19.112 15.4359C19.112 15.4359 19.1119 15.4359 19.1119 15.4359C19.1119 15.4359 19.1118 15.4359 19.1118 15.4359C19.1118 15.4359 19.1118 15.4359 19.1117 15.4359C19.1117 15.4359 19.1117 15.4359 19.1117 15.4359C19.1116 15.4359 19.1116 15.4359 19.1116 15.4359C19.1116 15.4359 19.1116 15.4359 19.1115 15.4359C19.1115 15.4359 19.1115 15.4359 19.1115 15.4359C19.1115 15.4359 19.1115 15.4359 19.1115 15.4359C19.1115 15.4359 19.1114 15.4359 19.1114 15.4359C19.1114 15.4359 19.1114 15.4359 19.1114 15.4359C19.1114 15.4359 19.1114 15.4359 19.1114 15.8359ZM20.9083 16.2359C21.5143 16.2359 21.9777 16.4205 22.2879 16.7242C22.5968 17.0265 22.7954 17.4876 22.7954 18.123H23.5954C23.5954 17.3154 23.3383 16.633 22.8475 16.1525C22.3582 15.6734 21.678 15.4359 20.9083 15.4359V16.2359ZM22.7954 18.123C22.7954 18.7227 22.5559 19.1279 22.2393 19.3905C21.9114 19.6626 21.4868 19.7915 21.1269 19.7915V20.5915C21.6566 20.5915 22.2662 20.4077 22.7501 20.0063C23.2454 19.5954 23.5954 18.9664 23.5954 18.123H22.7954ZM21.1269 19.7915C21.1252 19.7915 21.1235 19.7915 21.1217 19.7915C21.12 19.7915 21.1182 19.7915 21.1165 19.7915C21.1147 19.7915 21.1129 19.7915 21.1112 19.7915C21.1094 19.7915 21.1076 19.7915 21.1059 19.7915C21.1041 19.7915 21.1023 19.7915 21.1005 19.7915C21.0988 19.7915 21.097 19.7915 21.0952 19.7915C21.0934 19.7915 21.0916 19.7915 21.0898 19.7915C21.088 19.7915 21.0862 19.7915 21.0844 19.7915C21.0826 19.7915 21.0808 19.7915 21.079 19.7915C21.0772 19.7915 21.0753 19.7915 21.0735 19.7915C21.0717 19.7915 21.0699 19.7915 21.068 19.7915C21.0662 19.7915 21.0644 19.7915 21.0625 19.7915C21.0607 19.7915 21.0588 19.7915 21.057 19.7915C21.0551 19.7915 21.0533 19.7915 21.0514 19.7915C21.0496 19.7915 21.0477 19.7915 21.0459 19.7915C21.044 19.7915 21.0421 19.7915 21.0403 19.7915C21.0384 19.7915 21.0365 19.7915 21.0346 19.7915C21.0327 19.7915 21.0309 19.7915 21.029 19.7915C21.0271 19.7915 21.0252 19.7915 21.0233 19.7915C21.0214 19.7915 21.0195 19.7915 21.0176 19.7915C21.0157 19.7915 21.0138 19.7915 21.0119 19.7915C21.01 19.7915 21.008 19.7915 21.0061 19.7915C21.0042 19.7915 21.0023 19.7915 21.0003 19.7915C20.9984 19.7915 20.9965 19.7915 20.9946 19.7915C20.9926 19.7915 20.9907 19.7915 20.9887 19.7915C20.9868 19.7915 20.9848 19.7915 20.9829 19.7915C20.9809 19.7915 20.979 19.7915 20.977 19.7915C20.9751 19.7915 20.9731 19.7915 20.9711 19.7915C20.9692 19.7915 20.9672 19.7915 20.9652 19.7915C20.9633 19.7915 20.9613 19.7915 20.9593 19.7915C20.9573 19.7915 20.9553 19.7915 20.9534 19.7915C20.9514 19.7915 20.9494 19.7915 20.9474 19.7915C20.9454 19.7915 20.9434 19.7915 20.9414 19.7915C20.9394 19.7915 20.9374 19.7915 20.9354 19.7915C20.9334 19.7915 20.9313 19.7915 20.9293 19.7915C20.9273 19.7915 20.9253 19.7915 20.9233 19.7915C20.9212 19.7915 20.9192 19.7915 20.9172 19.7915C20.9151 19.7915 20.9131 19.7915 20.9111 19.7915C20.909 19.7915 20.907 19.7915 20.905 19.7915C20.9029 19.7915 20.9009 19.7915 20.8988 19.7915C20.8968 19.7915 20.8947 19.7915 20.8926 19.7915C20.8906 19.7915 20.8885 19.7915 20.8865 19.7915C20.8844 19.7915 20.8823 19.7915 20.8802 19.7915C20.8782 19.7915 20.8761 19.7915 20.874 19.7915C20.8719 19.7915 20.8699 19.7915 20.8678 19.7915C20.8657 19.7915 20.8636 19.7915 20.8615 19.7915C20.8594 19.7915 20.8573 19.7915 20.8552 19.7915C20.8531 19.7915 20.851 19.7915 20.8489 19.7915C20.8468 19.7915 20.8447 19.7915 20.8426 19.7915C20.8405 19.7915 20.8383 19.7915 20.8362 19.7915C20.8341 19.7915 20.832 19.7915 20.8299 19.7915C20.8277 19.7915 20.8256 19.7915 20.8235 19.7915C20.8213 19.7915 20.8192 19.7915 20.8171 19.7915C20.8149 19.7915 20.8128 19.7915 20.8106 19.7915C20.8085 19.7915 20.8064 19.7915 20.8042 19.7915C20.8021 19.7915 20.7999 19.7915 20.7977 19.7915C20.7956 19.7915 20.7934 19.7915 20.7913 19.7915C20.7891 19.7915 20.7869 19.7915 20.7848 19.7915C20.7826 19.7915 20.7804 19.7915 20.7783 19.7915C20.7761 19.7915 20.7739 19.7915 20.7717 19.7915C20.7695 19.7915 20.7674 19.7915 20.7652 19.7915C20.763 19.7915 20.7608 19.7915 20.7586 19.7915C20.7564 19.7915 20.7542 19.7915 20.752 19.7915C20.7498 19.7915 20.7476 19.7915 20.7454 19.7915C20.7432 19.7915 20.741 19.7915 20.7388 19.7915C20.7366 19.7915 20.7344 19.7915 20.7321 19.7915C20.7299 19.7915 20.7277 19.7915 20.7255 19.7915C20.7233 19.7915 20.721 19.7915 20.7188 19.7915C20.7166 19.7915 20.7144 19.7915 20.7121 19.7915C20.7099 19.7915 20.7077 19.7915 20.7054 19.7915C20.7032 19.7915 20.7009 19.7915 20.6987 19.7915C20.6965 19.7915 20.6942 19.7915 20.692 19.7915C20.6897 19.7915 20.6875 19.7915 20.6852 19.7915C20.683 19.7915 20.6807 19.7915 20.6784 19.7915C20.6762 19.7915 20.6739 19.7915 20.6717 19.7915C20.6694 19.7915 20.6671 19.7915 20.6648 19.7915C20.6626 19.7915 20.6603 19.7915 20.658 19.7915C20.6558 19.7915 20.6535 19.7915 20.6512 19.7915C20.6489 19.7915 20.6466 19.7915 20.6443 19.7915C20.6421 19.7915 20.6398 19.7915 20.6375 19.7915C20.6352 19.7915 20.6329 19.7915 20.6306 19.7915C20.6283 19.7915 20.626 19.7915 20.6237 19.7915C20.6214 19.7915 20.6191 19.7915 20.6168 19.7915C20.6145 19.7915 20.6122 19.7915 20.6099 19.7915C20.6076 19.7915 20.6053 19.7915 20.6029 19.7915C20.6006 19.7915 20.5983 19.7915 20.596 19.7915C20.5937 19.7915 20.5913 19.7915 20.589 19.7915C20.5867 19.7915 20.5844 19.7915 20.582 19.7915C20.5797 19.7915 20.5774 19.7915 20.5751 19.7915C20.5727 19.7915 20.5704 19.7915 20.568 19.7915C20.5657 19.7915 20.5634 19.7915 20.561 19.7915C20.5587 19.7915 20.5563 19.7915 20.554 19.7915C20.5516 19.7915 20.5493 19.7915 20.5469 19.7915C20.5446 19.7915 20.5422 19.7915 20.5399 19.7915C20.5375 19.7915 20.5352 19.7915 20.5328 19.7915C20.5304 19.7915 20.5281 19.7915 20.5257 19.7915C20.5234 19.7915 20.521 19.7915 20.5186 19.7915C20.5162 19.7915 20.5139 19.7915 20.5115 19.7915C20.5091 19.7915 20.5068 19.7915 20.5044 19.7915C20.502 19.7915 20.4996 19.7915 20.4972 19.7915C20.4949 19.7915 20.4925 19.7915 20.4901 19.7915C20.4877 19.7915 20.4853 19.7915 20.4829 19.7915C20.4805 19.7915 20.4782 19.7915 20.4758 19.7915C20.4734 19.7915 20.471 19.7915 20.4686 19.7915C20.4662 19.7915 20.4638 19.7915 20.4614 19.7915C20.459 19.7915 20.4566 19.7915 20.4542 19.7915C20.4518 19.7915 20.4494 19.7915 20.447 19.7915C20.4445 19.7915 20.4421 19.7915 20.4397 19.7915C20.4373 19.7915 20.4349 19.7915 20.4325 19.7915C20.4301 19.7915 20.4276 19.7915 20.4252 19.7915C20.4228 19.7915 20.4204 19.7915 20.418 19.7915C20.4155 19.7915 20.4131 19.7915 20.4107 19.7915C20.4083 19.7915 20.4058 19.7915 20.4034 19.7915C20.401 19.7915 20.3985 19.7915 20.3961 19.7915C20.3937 19.7915 20.3912 19.7915 20.3888 19.7915C20.3864 19.7915 20.3839 19.7915 20.3815 19.7915C20.3791 19.7915 20.3766 19.7915 20.3742 19.7915C20.3717 19.7915 20.3693 19.7915 20.3668 19.7915C20.3644 19.7915 20.3619 19.7915 20.3595 19.7915C20.357 19.7915 20.3546 19.7915 20.3521 19.7915C20.3497 19.7915 20.3472 19.7915 20.3448 19.7915C20.3423 19.7915 20.3399 19.7915 20.3374 19.7915C20.3349 19.7915 20.3325 19.7915 20.33 19.7915C20.3276 19.7915 20.3251 19.7915 20.3226 19.7915C20.3202 19.7915 20.3177 19.7915 20.3152 19.7915C20.3128 19.7915 20.3103 19.7915 20.3078 19.7915C20.3054 19.7915 20.3029 19.7915 20.3004 19.7915C20.2979 19.7915 20.2955 19.7915 20.293 19.7915C20.2905 19.7915 20.288 19.7915 20.2856 19.7915C20.2831 19.7915 20.2806 19.7915 20.2781 19.7915C20.2756 19.7915 20.2732 19.7915 20.2707 19.7915C20.2682 19.7915 20.2657 19.7915 20.2632 19.7915C20.2607 19.7915 20.2582 19.7915 20.2558 19.7915C20.2533 19.7915 20.2508 19.7915 20.2483 19.7915C20.2458 19.7915 20.2433 19.7915 20.2408 19.7915C20.2383 19.7915 20.2358 19.7915 20.2333 19.7915C20.2308 19.7915 20.2283 19.7915 20.2258 19.7915C20.2233 19.7915 20.2208 19.7915 20.2183 19.7915C20.2158 19.7915 20.2133 19.7915 20.2108 19.7915C20.2083 19.7915 20.2058 19.7915 20.2033 19.7915C20.2008 19.7915 20.1983 19.7915 20.1958 19.7915C20.1933 19.7915 20.1908 19.7915 20.1883 19.7915C20.1858 19.7915 20.1833 19.7915 20.1807 19.7915C20.1782 19.7915 20.1757 19.7915 20.1732 19.7915C20.1707 19.7915 20.1682 19.7915 20.1657 19.7915C20.1632 19.7915 20.1606 19.7915 20.1581 19.7915C20.1556 19.7915 20.1531 19.7915 20.1506 19.7915C20.148 19.7915 20.1455 19.7915 20.143 19.7915C20.1405 19.7915 20.138 19.7915 20.1354 19.7915C20.1329 19.7915 20.1304 19.7915 20.1279 19.7915C20.1253 19.7915 20.1228 19.7915 20.1203 19.7915C20.1178 19.7915 20.1152 19.7915 20.1127 19.7915C20.1102 19.7915 20.1077 19.7915 20.1051 19.7915C20.1026 19.7915 20.1001 19.7915 20.0975 19.7915C20.095 19.7915 20.0925 19.7915 20.09 19.7915C20.0874 19.7915 20.0849 19.7915 20.0824 19.7915C20.0798 19.7915 20.0773 19.7915 20.0748 19.7915C20.0722 19.7915 20.0697 19.7915 20.0671 19.7915C20.0646 19.7915 20.0621 19.7915 20.0595 19.7915C20.057 19.7915 20.0545 19.7915 20.0519 19.7915C20.0494 19.7915 20.0469 19.7915 20.0443 19.7915C20.0418 19.7915 20.0392 19.7915 20.0367 19.7915C20.0342 19.7915 20.0316 19.7915 20.0291 19.7915C20.0265 19.7915 20.024 19.7915 20.0214 19.7915C20.0189 19.7915 20.0164 19.7915 20.0138 19.7915C20.0113 19.7915 20.0087 19.7915 20.0062 19.7915C20.0036 19.7915 20.0011 19.7915 19.9985 19.7915C19.996 19.7915 19.9935 19.7915 19.9909 19.7915C19.9884 19.7915 19.9858 19.7915 19.9833 19.7915C19.9807 19.7915 19.9782 19.7915 19.9756 19.7915C19.9731 19.7915 19.9705 19.7915 19.968 19.7915C19.9654 19.7915 19.9629 19.7915 19.9603 19.7915C19.9578 19.7915 19.9552 19.7915 19.9527 19.7915C19.9501 19.7915 19.9476 19.7915 19.945 19.7915C19.9425 19.7915 19.9399 19.7915 19.9374 19.7915C19.9348 19.7915 19.9323 19.7915 19.9297 19.7915C19.9272 19.7915 19.9246 19.7915 19.9221 19.7915C19.9195 19.7915 19.917 19.7915 19.9144 19.7915C19.9119 19.7915 19.9093 19.7915 19.9068 19.7915C19.9042 19.7915 19.9017 19.7915 19.8991 19.7915C19.8966 19.7915 19.894 19.7915 19.8915 19.7915C19.8889 19.7915 19.8863 19.7915 19.8838 19.7915C19.8812 19.7915 19.8787 19.7915 19.8761 19.7915C19.8736 19.7915 19.871 19.7915 19.8685 19.7915C19.8659 19.7915 19.8634 19.7915 19.8608 19.7915C19.8583 19.7915 19.8557 19.7915 19.8532 19.7915C19.8506 19.7915 19.8481 19.7915 19.8455 19.7915C19.8429 19.7915 19.8404 19.7915 19.8378 19.7915C19.8353 19.7915 19.8327 19.7915 19.8302 19.7915C19.8276 19.7915 19.8251 19.7915 19.8225 19.7915C19.82 19.7915 19.8174 19.7915 19.8149 19.7915C19.8123 19.7915 19.8098 19.7915 19.8072 19.7915C19.8047 19.7915 19.8021 19.7915 19.7996 19.7915C19.797 19.7915 19.7945 19.7915 19.7919 19.7915C19.7894 19.7915 19.7868 19.7915 19.7843 19.7915C19.7817 19.7915 19.7792 19.7915 19.7766 19.7915C19.7741 19.7915 19.7715 19.7915 19.769 19.7915C19.7664 19.7915 19.7639 19.7915 19.7613 19.7915C19.7588 19.7915 19.7562 19.7915 19.7537 19.7915C19.7511 19.7915 19.7486 19.7915 19.746 19.7915C19.7435 19.7915 19.7409 19.7915 19.7384 19.7915C19.7358 19.7915 19.7333 19.7915 19.7307 19.7915C19.7282 19.7915 19.7256 19.7915 19.7231 19.7915C19.7206 19.7915 19.718 19.7915 19.7155 19.7915C19.7129 19.7915 19.7104 19.7915 19.7078 19.7915C19.7053 19.7915 19.7027 19.7915 19.7002 19.7915C19.6977 19.7915 19.6951 19.7915 19.6926 19.7915C19.69 19.7915 19.6875 19.7915 19.685 19.7915C19.6824 19.7915 19.6799 19.7915 19.6773 19.7915C19.6748 19.7915 19.6723 19.7915 19.6697 19.7915C19.6672 19.7915 19.6646 19.7915 19.6621 19.7915C19.6596 19.7915 19.657 19.7915 19.6545 19.7915C19.652 19.7915 19.6494 19.7915 19.6469 19.7915C19.6444 19.7915 19.6418 19.7915 19.6393 19.7915C19.6368 19.7915 19.6342 19.7915 19.6317 19.7915C19.6292 19.7915 19.6266 19.7915 19.6241 19.7915C19.6216 19.7915 19.619 19.7915 19.6165 19.7915C19.614 19.7915 19.6115 19.7915 19.6089 19.7915C19.6064 19.7915 19.6039 19.7915 19.6014 19.7915C19.5988 19.7915 19.5963 19.7915 19.5938 19.7915C19.5913 19.7915 19.5887 19.7915 19.5862 19.7915C19.5837 19.7915 19.5812 19.7915 19.5787 19.7915C19.5761 19.7915 19.5736 19.7915 19.5711 19.7915C19.5686 19.7915 19.5661 19.7915 19.5635 19.7915C19.561 19.7915 19.5585 19.7915 19.556 19.7915C19.5535 19.7915 19.551 19.7915 19.5485 19.7915C19.5459 19.7915 19.5434 19.7915 19.5409 19.7915C19.5384 19.7915 19.5359 19.7915 19.5334 19.7915C19.5309 19.7915 19.5284 19.7915 19.5259 19.7915C19.5234 19.7915 19.5209 19.7915 19.5183 19.7915C19.5158 19.7915 19.5133 19.7915 19.5108 19.7915C19.5083 19.7915 19.5058 19.7915 19.5033 19.7915C19.5008 19.7915 19.4983 19.7915 19.4958 19.7915C19.4933 19.7915 19.4908 19.7915 19.4883 19.7915C19.4859 19.7915 19.4834 19.7915 19.4809 19.7915C19.4784 19.7915 19.4759 19.7915 19.4734 19.7915C19.4709 19.7915 19.4684 19.7915 19.4659 19.7915C19.4634 19.7915 19.4609 19.7915 19.4585 19.7915C19.456 19.7915 19.4535 19.7915 19.451 19.7915C19.4485 19.7915 19.446 19.7915 19.4436 19.7915C19.4411 19.7915 19.4386 19.7915 19.4361 19.7915C19.4336 19.7915 19.4312 19.7915 19.4287 19.7915C19.4262 19.7915 19.4237 19.7915 19.4213 19.7915C19.4188 19.7915 19.4163 19.7915 19.4139 19.7915C19.4114 19.7915 19.4089 19.7915 19.4065 19.7915C19.404 19.7915 19.4015 19.7915 19.3991 19.7915C19.3966 19.7915 19.3941 19.7915 19.3917 19.7915C19.3892 19.7915 19.3867 19.7915 19.3843 19.7915C19.3818 19.7915 19.3794 19.7915 19.3769 19.7915C19.3745 19.7915 19.372 19.7915 19.3696 19.7915C19.3671 19.7915 19.3647 19.7915 19.3622 19.7915C19.3598 19.7915 19.3573 19.7915 19.3549 19.7915C19.3524 19.7915 19.35 19.7915 19.3475 19.7915C19.3451 19.7915 19.3427 19.7915 19.3402 19.7915C19.3378 19.7915 19.3353 19.7915 19.3329 19.7915C19.3305 19.7915 19.328 19.7915 19.3256 19.7915C19.3232 19.7915 19.3207 19.7915 19.3183 19.7915C19.3159 19.7915 19.3135 19.7915 19.311 19.7915C19.3086 19.7915 19.3062 19.7915 19.3038 19.7915C19.3013 19.7915 19.2989 19.7915 19.2965 19.7915C19.2941 19.7915 19.2917 19.7915 19.2892 19.7915C19.2868 19.7915 19.2844 19.7915 19.282 19.7915C19.2796 19.7915 19.2772 19.7915 19.2748 19.7915C19.2724 19.7915 19.27 19.7915 19.2676 19.7915C19.2652 19.7915 19.2628 19.7915 19.2604 19.7915C19.258 19.7915 19.2556 19.7915 19.2532 19.7915C19.2508 19.7915 19.2484 19.7915 19.246 19.7915C19.2436 19.7915 19.2412 19.7915 19.2388 19.7915C19.2364 19.7915 19.234 19.7915 19.2316 19.7915C19.2293 19.7915 19.2269 19.7915 19.2245 19.7915C19.2221 19.7915 19.2197 19.7915 19.2174 19.7915C19.215 19.7915 19.2126 19.7915 19.2102 19.7915C19.2079 19.7915 19.2055 19.7915 19.2031 19.7915C19.2008 19.7915 19.1984 19.7915 19.196 19.7915C19.1937 19.7915 19.1913 19.7915 19.189 19.7915C19.1866 19.7915 19.1842 19.7915 19.1819 19.7915C19.1795 19.7915 19.1772 19.7915 19.1748 19.7915C19.1725 19.7915 19.1701 19.7915 19.1678 19.7915C19.1654 19.7915 19.1631 19.7915 19.1607 19.7915C19.1584 19.7915 19.1561 19.7915 19.1537 19.7915C19.1514 19.7915 19.1491 19.7915 19.1467 19.7915C19.1444 19.7915 19.1421 19.7915 19.1397 19.7915C19.1374 19.7915 19.1351 19.7915 19.1328 19.7915C19.1304 19.7915 19.1281 19.7915 19.1258 19.7915C19.1235 19.7915 19.1212 19.7915 19.1188 19.7915C19.1165 19.7915 19.1142 19.7915 19.1119 19.7915C19.1096 19.7915 19.1073 19.7915 19.105 19.7915C19.1027 19.7915 19.1004 19.7915 19.0981 19.7915C19.0958 19.7915 19.0935 19.7915 19.0912 19.7915C19.0889 19.7915 19.0866 19.7915 19.0843 19.7915C19.082 19.7915 19.0797 19.7915 19.0775 19.7915C19.0752 19.7915 19.0729 19.7915 19.0706 19.7915C19.0683 19.7915 19.0661 19.7915 19.0638 19.7915C19.0615 19.7915 19.0592 19.7915 19.057 19.7915C19.0547 19.7915 19.0524 19.7915 19.0502 19.7915C19.0479 19.7915 19.0456 19.7915 19.0434 19.7915C19.0411 19.7915 19.0389 19.7915 19.0366 19.7915C19.0344 19.7915 19.0321 19.7915 19.0299 19.7915C19.0276 19.7915 19.0254 19.7915 19.0231 19.7915C19.0209 19.7915 19.0186 19.7915 19.0164 19.7915C19.0142 19.7915 19.0119 19.7915 19.0097 19.7915C19.0075 19.7915 19.0052 19.7915 19.003 19.7915C19.0008 19.7915 18.9986 19.7915 18.9964 19.7915C18.9941 19.7915 18.9919 19.7915 18.9897 19.7915C18.9875 19.7915 18.9853 19.7915 18.9831 19.7915C18.9809 19.7915 18.9787 19.7915 18.9764 19.7915C18.9742 19.7915 18.972 19.7915 18.9698 19.7915C18.9677 19.7915 18.9655 19.7915 18.9633 19.7915C18.9611 19.7915 18.9589 19.7915 18.9567 19.7915C18.9545 19.7915 18.9523 19.7915 18.9502 19.7915C18.948 19.7915 18.9458 19.7915 18.9436 19.7915C18.9414 19.7915 18.9393 19.7915 18.9371 19.7915C18.9349 19.7915 18.9328 19.7915 18.9306 19.7915C18.9285 19.7915 18.9263 19.7915 18.9241 19.7915C18.922 19.7915 18.9198 19.7915 18.9177 19.7915C18.9155 19.7915 18.9134 19.7915 18.9112 19.7915C18.9091 19.7915 18.907 19.7915 18.9048 19.7915C18.9027 19.7915 18.9006 19.7915 18.8984 19.7915C18.8963 19.7915 18.8942 19.7915 18.892 19.7915C18.8899 19.7915 18.8878 19.7915 18.8857 19.7915C18.8836 19.7915 18.8815 19.7915 18.8793 19.7915C18.8772 19.7915 18.8751 19.7915 18.873 19.7915C18.8709 19.7915 18.8688 19.7915 18.8667 19.7915C18.8646 19.7915 18.8625 19.7915 18.8604 19.7915C18.8583 19.7915 18.8563 19.7915 18.8542 19.7915C18.8521 19.7915 18.85 19.7915 18.8479 19.7915C18.8458 19.7915 18.8438 19.7915 18.8417 19.7915C18.8396 19.7915 18.8376 19.7915 18.8355 19.7915C18.8334 19.7915 18.8314 19.7915 18.8293 19.7915C18.8273 19.7915 18.8252 19.7915 18.8232 19.7915C18.8211 19.7915 18.8191 19.7915 18.817 19.7915C18.815 19.7915 18.8129 19.7915 18.8109 19.7915C18.8089 19.7915 18.8068 19.7915 18.8048 19.7915C18.8028 19.7915 18.8007 19.7915 18.7987 19.7915C18.7967 19.7915 18.7947 19.7915 18.7927 19.7915C18.7906 19.7915 18.7886 19.7915 18.7866 19.7915C18.7846 19.7915 18.7826 19.7915 18.7806 19.7915C18.7786 19.7915 18.7766 19.7915 18.7746 19.7915C18.7726 19.7915 18.7706 19.7915 18.7686 19.7915C18.7667 19.7915 18.7647 19.7915 18.7627 19.7915C18.7607 19.7915 18.7587 19.7915 18.7568 19.7915C18.7548 19.7915 18.7528 19.7915 18.7509 19.7915C18.7489 19.7915 18.7469 19.7915 18.745 19.7915C18.743 19.7915 18.7411 19.7915 18.7391 19.7915C18.7372 19.7915 18.7352 19.7915 18.7333 19.7915C18.7313 19.7915 18.7294 19.7915 18.7275 19.7915C18.7255 19.7915 18.7236 19.7915 18.7217 19.7915C18.7198 19.7915 18.7178 19.7915 18.7159 19.7915C18.714 19.7915 18.7121 19.7915 18.7102 19.7915C18.7083 19.7915 18.7064 19.7915 18.7045 19.7915C18.7026 19.7915 18.7007 19.7915 18.6988 19.7915C18.6969 19.7915 18.695 19.7915 18.6931 19.7915C18.6912 19.7915 18.6893 19.7915 18.6874 19.7915C18.6856 19.7915 18.6837 19.7915 18.6818 19.7915C18.6799 19.7915 18.6781 19.7915 18.6762 19.7915C18.6744 19.7915 18.6725 19.7915 18.6706 19.7915C18.6688 19.7915 18.6669 19.7915 18.6651 19.7915C18.6632 19.7915 18.6614 19.7915 18.6596 19.7915C18.6577 19.7915 18.6559 19.7915 18.6541 19.7915C18.6522 19.7915 18.6504 19.7915 18.6486 19.7915C18.6468 19.7915 18.6449 19.7915 18.6431 19.7915C18.6413 19.7915 18.6395 19.7915 18.6377 19.7915C18.6359 19.7915 18.6341 19.7915 18.6323 19.7915C18.6305 19.7915 18.6287 19.7915 18.6269 19.7915C18.6251 19.7915 18.6234 19.7915 18.6216 19.7915C18.6198 19.7915 18.618 19.7915 18.6163 19.7915C18.6145 19.7915 18.6127 19.7915 18.611 19.7915C18.6092 19.7915 18.6074 19.7915 18.6057 19.7915C18.6039 19.7915 18.6022 19.7915 18.6004 19.7915C18.5987 19.7915 18.597 19.7915 18.5952 19.7915C18.5935 19.7915 18.5918 19.7915 18.59 19.7915C18.5883 19.7915 18.5866 19.7915 18.5849 19.7915C18.5831 19.7915 18.5814 19.7915 18.5797 19.7915C18.578 19.7915 18.5763 19.7915 18.5746 19.7915C18.5729 19.7915 18.5712 19.7915 18.5695 19.7915C18.5678 19.7915 18.5661 19.7915 18.5645 19.7915C18.5628 19.7915 18.5611 19.7915 18.5594 19.7915C18.5578 19.7915 18.5561 19.7915 18.5544 19.7915C18.5528 19.7915 18.5511 19.7915 18.5495 19.7915C18.5478 19.7915 18.5462 19.7915 18.5445 19.7915C18.5429 19.7915 18.5412 19.7915 18.5396 19.7915C18.538 19.7915 18.5363 19.7915 18.5347 19.7915C18.5331 19.7915 18.5314 19.7915 18.5298 19.7915C18.5282 19.7915 18.5266 19.7915 18.525 19.7915C18.5234 19.7915 18.5218 19.7915 18.5202 19.7915C18.5186 19.7915 18.517 19.7915 18.5154 19.7915C18.5138 19.7915 18.5122 19.7915 18.5107 19.7915C18.5091 19.7915 18.5075 19.7915 18.5059 19.7915C18.5044 19.7915 18.5028 19.7915 18.5012 19.7915C18.4997 19.7915 18.4981 19.7915 18.4966 19.7915C18.495 19.7915 18.4935 19.7915 18.492 19.7915C18.4904 19.7915 18.4889 19.7915 18.4873 19.7915C18.4858 19.7915 18.4843 19.7915 18.4828 19.7915C18.4813 19.7915 18.4797 19.7915 18.4782 19.7915C18.4767 19.7915 18.4752 19.7915 18.4737 19.7915C18.4722 19.7915 18.4707 19.7915 18.4692 19.7915C18.4677 19.7915 18.4663 19.7915 18.4648 19.7915C18.4633 19.7915 18.4618 19.7915 18.4604 19.7915C18.4589 19.7915 18.4574 19.7915 18.456 19.7915C18.4545 19.7915 18.453 19.7915 18.4516 19.7915C18.4501 19.7915 18.4487 19.7915 18.4473 19.7915C18.4458 19.7915 18.4444 19.7915 18.443 19.7915C18.4415 19.7915 18.4401 19.7915 18.4387 19.7915C18.4373 19.7915 18.4359 19.7915 18.4345 19.7915C18.4331 19.7915 18.4316 19.7915 18.4303 19.7915C18.4289 19.7915 18.4275 19.7915 18.4261 19.7915C18.4247 19.7915 18.4233 19.7915 18.4219 19.7915C18.4206 19.7915 18.4192 19.7915 18.4178 19.7915C18.4165 19.7915 18.4151 19.7915 18.4137 19.7915C18.4124 19.7915 18.411 19.7915 18.4097 19.7915C18.4083 19.7915 18.407 19.7915 18.4057 19.7915C18.4043 19.7915 18.403 19.7915 18.4017 19.7915C18.4004 19.7915 18.3991 19.7915 18.3977 19.7915C18.3964 19.7915 18.3951 19.7915 18.3938 19.7915C18.3925 19.7915 18.3912 19.7915 18.3899 19.7915C18.3886 19.7915 18.3874 19.7915 18.3861 19.7915C18.3848 19.7915 18.3835 19.7915 18.3823 19.7915C18.381 19.7915 18.3797 19.7915 18.3785 19.7915C18.3772 19.7915 18.376 19.7915 18.3747 19.7915C18.3735 19.7915 18.3722 19.7915 18.371 19.7915C18.3698 19.7915 18.3685 19.7915 18.3673 19.7915C18.3661 19.7915 18.3649 19.7915 18.3637 19.7915C18.3625 19.7915 18.3613 19.7915 18.3601 19.7915C18.3589 19.7915 18.3577 19.7915 18.3565 19.7915C18.3553 19.7915 18.3541 19.7915 18.3529 19.7915C18.3517 19.7915 18.3506 19.7915 18.3494 19.7915C18.3482 19.7915 18.3471 19.7915 18.3459 19.7915C18.3448 19.7915 18.3436 19.7915 18.3425 19.7915C18.3413 19.7915 18.3402 19.7915 18.3391 19.7915C18.3379 19.7915 18.3368 19.7915 18.3357 19.7915C18.3346 19.7915 18.3335 19.7915 18.3323 19.7915C18.3312 19.7915 18.3301 19.7915 18.329 19.7915C18.3279 19.7915 18.3269 19.7915 18.3258 19.7915C18.3247 19.7915 18.3236 19.7915 18.3225 19.7915C18.3215 19.7915 18.3204 19.7915 18.3193 19.7915C18.3183 19.7915 18.3172 19.7915 18.3162 19.7915C18.3151 19.7915 18.3141 19.7915 18.313 19.7915C18.312 19.7915 18.311 19.7915 18.31 19.7915C18.3089 19.7915 18.3079 19.7915 18.3069 19.7915C18.3059 19.7915 18.3049 19.7915 18.3039 19.7915C18.3029 19.7915 18.3019 19.7915 18.3009 19.7915C18.2999 19.7915 18.2989 19.7915 18.298 19.7915C18.297 19.7915 18.296 19.7915 18.295 19.7915C18.2941 19.7915 18.2931 19.7915 18.2922 19.7915C18.2912 19.7915 18.2903 19.7915 18.2893 19.7915C18.2884 19.7915 18.2875 19.7915 18.2865 19.7915C18.2856 19.7915 18.2847 19.7915 18.2838 19.7915C18.2829 19.7915 18.282 19.7915 18.2811 19.7915C18.2802 19.7915 18.2793 19.7915 18.2784 19.7915C18.2775 19.7915 18.2766 19.7915 18.2757 19.7915C18.2748 19.7915 18.274 19.7915 18.2731 19.7915C18.2723 19.7915 18.2714 19.7915 18.2705 19.7915C18.2697 19.7915 18.2689 19.7915 18.268 19.7915C18.2672 19.7915 18.2663 19.7915 18.2655 19.7915C18.2647 19.7915 18.2639 19.7915 18.2631 19.7915C18.2622 19.7915 18.2614 19.7915 18.2606 19.7915C18.2598 19.7915 18.2591 19.7915 18.2583 19.7915C18.2575 19.7915 18.2567 19.7915 18.2559 19.7915C18.2552 19.7915 18.2544 19.7915 18.2536 19.7915C18.2529 19.7915 18.2521 19.7915 18.2514 19.7915C18.2506 19.7915 18.2499 19.7915 18.2491 19.7915C18.2484 19.7915 18.2477 19.7915 18.247 19.7915C18.2462 19.7915 18.2455 19.7915 18.2448 19.7915C18.2441 19.7915 18.2434 19.7915 18.2427 19.7915C18.242 19.7915 18.2413 19.7915 18.2407 19.7915C18.24 19.7915 18.2393 19.7915 18.2386 19.7915C18.238 19.7915 18.2373 19.7915 18.2366 19.7915C18.236 19.7915 18.2353 19.7915 18.2347 19.7915C18.2341 19.7915 18.2334 19.7915 18.2328 19.7915C18.2322 19.7915 18.2316 19.7915 18.2309 19.7915C18.2303 19.7915 18.2297 19.7915 18.2291 19.7915C18.2285 19.7915 18.2279 19.7915 18.2273 19.7915C18.2268 19.7915 18.2262 19.7915 18.2256 19.7915C18.225 19.7915 18.2245 19.7915 18.2239 19.7915C18.2233 19.7915 18.2228 19.7915 18.2223 19.7915C18.2217 19.7915 18.2212 19.7915 18.2206 19.7915C18.2201 19.7915 18.2196 19.7915 18.2191 19.7915C18.2185 19.7915 18.218 19.7915 18.2175 19.7915C18.217 19.7915 18.2165 19.7915 18.216 19.7915C18.2156 19.7915 18.2151 19.7915 18.2146 19.7915C18.2141 19.7915 18.2137 19.7915 18.2132 19.7915C18.2127 19.7915 18.2123 19.7915 18.2118 19.7915C18.2114 19.7915 18.2109 19.7915 18.2105 19.7915C18.2101 19.7915 18.2097 19.7915 18.2092 19.7915C18.2088 19.7915 18.2084 19.7915 18.208 19.7915C18.2076 19.7915 18.2072 19.7915 18.2068 19.7915C18.2064 19.7915 18.206 19.7915 18.2057 19.7915C18.2053 19.7915 18.2049 19.7915 18.2046 19.7915C18.2042 19.7915 18.2038 19.7915 18.2035 19.7915C18.2032 19.7915 18.2028 19.7915 18.2025 19.7915C18.2022 19.7915 18.2018 19.7915 18.2015 19.7915C18.2012 19.7915 18.2009 19.7915 18.2006 19.7915C18.2003 19.7915 18.2 19.7915 18.1997 19.7915C18.1994 19.7915 18.1991 19.7915 18.1989 19.7915C18.1986 19.7915 18.1983 19.7915 18.1981 19.7915C18.1978 19.7915 18.1975 19.7915 18.1973 19.7915C18.1971 19.7915 18.1968 19.7915 18.1966 19.7915C18.1964 19.7915 18.1961 19.7915 18.1959 19.7915C18.1957 19.7915 18.1955 19.7915 18.1953 19.7915C18.1951 19.7915 18.1949 19.7915 18.1947 19.7915C18.1946 19.7915 18.1944 19.7915 18.1942 19.7915C18.194 19.7915 18.1939 19.7915 18.1937 19.7915C18.1936 19.7915 18.1934 19.7915 18.1933 19.7915C18.1931 19.7915 18.193 19.7915 18.1929 19.7915C18.1928 19.7915 18.1927 19.7915 18.1925 19.7915C18.1924 19.7915 18.1923 19.7915 18.1922 19.7915C18.1922 19.7915 18.1921 19.7915 18.192 19.7915C18.1919 19.7915 18.1918 19.7915 18.1918 19.7915C18.1917 19.7915 18.1917 19.7915 18.1916 19.7915C18.1916 19.7915 18.1915 19.7915 18.1915 19.7915C18.1915 19.7915 18.1914 19.7915 18.1914 19.7915C18.1914 19.7915 18.1914 19.7915 18.1914 20.1915C18.1914 20.5915 18.1914 20.5915 18.1914 20.5915C18.1914 20.5915 18.1915 20.5915 18.1915 20.5915C18.1915 20.5915 18.1916 20.5915 18.1916 20.5915C18.1917 20.5915 18.1917 20.5915 18.1918 20.5915C18.1918 20.5915 18.1919 20.5915 18.192 20.5915C18.1921 20.5915 18.1922 20.5915 18.1922 20.5915C18.1923 20.5915 18.1924 20.5915 18.1925 20.5915C18.1927 20.5915 18.1928 20.5915 18.1929 20.5915C18.193 20.5915 18.1931 20.5915 18.1933 20.5915C18.1934 20.5915 18.1936 20.5915 18.1937 20.5915C18.1939 20.5915 18.194 20.5915 18.1942 20.5915C18.1944 20.5915 18.1946 20.5915 18.1947 20.5915C18.1949 20.5915 18.1951 20.5915 18.1953 20.5915C18.1955 20.5915 18.1957 20.5915 18.1959 20.5915C18.1961 20.5915 18.1964 20.5915 18.1966 20.5915C18.1968 20.5915 18.1971 20.5915 18.1973 20.5915C18.1975 20.5915 18.1978 20.5915 18.1981 20.5915C18.1983 20.5915 18.1986 20.5915 18.1989 20.5915C18.1991 20.5915 18.1994 20.5915 18.1997 20.5915C18.2 20.5915 18.2003 20.5915 18.2006 20.5915C18.2009 20.5915 18.2012 20.5915 18.2015 20.5915C18.2018 20.5915 18.2022 20.5915 18.2025 20.5915C18.2028 20.5915 18.2032 20.5915 18.2035 20.5915C18.2038 20.5915 18.2042 20.5915 18.2046 20.5915C18.2049 20.5915 18.2053 20.5915 18.2057 20.5915C18.206 20.5915 18.2064 20.5915 18.2068 20.5915C18.2072 20.5915 18.2076 20.5915 18.208 20.5915C18.2084 20.5915 18.2088 20.5915 18.2092 20.5915C18.2097 20.5915 18.2101 20.5915 18.2105 20.5915C18.2109 20.5915 18.2114 20.5915 18.2118 20.5915C18.2123 20.5915 18.2127 20.5915 18.2132 20.5915C18.2137 20.5915 18.2141 20.5915 18.2146 20.5915C18.2151 20.5915 18.2156 20.5915 18.216 20.5915C18.2165 20.5915 18.217 20.5915 18.2175 20.5915C18.218 20.5915 18.2185 20.5915 18.2191 20.5915C18.2196 20.5915 18.2201 20.5915 18.2206 20.5915C18.2212 20.5915 18.2217 20.5915 18.2223 20.5915C18.2228 20.5915 18.2233 20.5915 18.2239 20.5915C18.2245 20.5915 18.225 20.5915 18.2256 20.5915C18.2262 20.5915 18.2268 20.5915 18.2273 20.5915C18.2279 20.5915 18.2285 20.5915 18.2291 20.5915C18.2297 20.5915 18.2303 20.5915 18.2309 20.5915C18.2316 20.5915 18.2322 20.5915 18.2328 20.5915C18.2334 20.5915 18.2341 20.5915 18.2347 20.5915C18.2353 20.5915 18.236 20.5915 18.2366 20.5915C18.2373 20.5915 18.238 20.5915 18.2386 20.5915C18.2393 20.5915 18.24 20.5915 18.2407 20.5915C18.2413 20.5915 18.242 20.5915 18.2427 20.5915C18.2434 20.5915 18.2441 20.5915 18.2448 20.5915C18.2455 20.5915 18.2462 20.5915 18.247 20.5915C18.2477 20.5915 18.2484 20.5915 18.2491 20.5915C18.2499 20.5915 18.2506 20.5915 18.2514 20.5915C18.2521 20.5915 18.2529 20.5915 18.2536 20.5915C18.2544 20.5915 18.2552 20.5915 18.2559 20.5915C18.2567 20.5915 18.2575 20.5915 18.2583 20.5915C18.2591 20.5915 18.2598 20.5915 18.2606 20.5915C18.2614 20.5915 18.2622 20.5915 18.2631 20.5915C18.2639 20.5915 18.2647 20.5915 18.2655 20.5915C18.2663 20.5915 18.2672 20.5915 18.268 20.5915C18.2689 20.5915 18.2697 20.5915 18.2705 20.5915C18.2714 20.5915 18.2723 20.5915 18.2731 20.5915C18.274 20.5915 18.2748 20.5915 18.2757 20.5915C18.2766 20.5915 18.2775 20.5915 18.2784 20.5915C18.2793 20.5915 18.2802 20.5915 18.2811 20.5915C18.282 20.5915 18.2829 20.5915 18.2838 20.5915C18.2847 20.5915 18.2856 20.5915 18.2865 20.5915C18.2875 20.5915 18.2884 20.5915 18.2893 20.5915C18.2903 20.5915 18.2912 20.5915 18.2922 20.5915C18.2931 20.5915 18.2941 20.5915 18.295 20.5915C18.296 20.5915 18.297 20.5915 18.298 20.5915C18.2989 20.5915 18.2999 20.5915 18.3009 20.5915C18.3019 20.5915 18.3029 20.5915 18.3039 20.5915C18.3049 20.5915 18.3059 20.5915 18.3069 20.5915C18.3079 20.5915 18.3089 20.5915 18.31 20.5915C18.311 20.5915 18.312 20.5915 18.313 20.5915C18.3141 20.5915 18.3151 20.5915 18.3162 20.5915C18.3172 20.5915 18.3183 20.5915 18.3193 20.5915C18.3204 20.5915 18.3215 20.5915 18.3225 20.5915C18.3236 20.5915 18.3247 20.5915 18.3258 20.5915C18.3269 20.5915 18.3279 20.5915 18.329 20.5915C18.3301 20.5915 18.3312 20.5915 18.3323 20.5915C18.3335 20.5915 18.3346 20.5915 18.3357 20.5915C18.3368 20.5915 18.3379 20.5915 18.3391 20.5915C18.3402 20.5915 18.3413 20.5915 18.3425 20.5915C18.3436 20.5915 18.3448 20.5915 18.3459 20.5915C18.3471 20.5915 18.3482 20.5915 18.3494 20.5915C18.3506 20.5915 18.3517 20.5915 18.3529 20.5915C18.3541 20.5915 18.3553 20.5915 18.3565 20.5915C18.3577 20.5915 18.3589 20.5915 18.3601 20.5915C18.3613 20.5915 18.3625 20.5915 18.3637 20.5915C18.3649 20.5915 18.3661 20.5915 18.3673 20.5915C18.3685 20.5915 18.3698 20.5915 18.371 20.5915C18.3722 20.5915 18.3735 20.5915 18.3747 20.5915C18.376 20.5915 18.3772 20.5915 18.3785 20.5915C18.3797 20.5915 18.381 20.5915 18.3823 20.5915C18.3835 20.5915 18.3848 20.5915 18.3861 20.5915C18.3874 20.5915 18.3886 20.5915 18.3899 20.5915C18.3912 20.5915 18.3925 20.5915 18.3938 20.5915C18.3951 20.5915 18.3964 20.5915 18.3977 20.5915C18.3991 20.5915 18.4004 20.5915 18.4017 20.5915C18.403 20.5915 18.4043 20.5915 18.4057 20.5915C18.407 20.5915 18.4083 20.5915 18.4097 20.5915C18.411 20.5915 18.4124 20.5915 18.4137 20.5915C18.4151 20.5915 18.4165 20.5915 18.4178 20.5915C18.4192 20.5915 18.4206 20.5915 18.4219 20.5915C18.4233 20.5915 18.4247 20.5915 18.4261 20.5915C18.4275 20.5915 18.4289 20.5915 18.4303 20.5915C18.4316 20.5915 18.4331 20.5915 18.4345 20.5915C18.4359 20.5915 18.4373 20.5915 18.4387 20.5915C18.4401 20.5915 18.4415 20.5915 18.443 20.5915C18.4444 20.5915 18.4458 20.5915 18.4473 20.5915C18.4487 20.5915 18.4501 20.5915 18.4516 20.5915C18.453 20.5915 18.4545 20.5915 18.456 20.5915C18.4574 20.5915 18.4589 20.5915 18.4604 20.5915C18.4618 20.5915 18.4633 20.5915 18.4648 20.5915C18.4663 20.5915 18.4677 20.5915 18.4692 20.5915C18.4707 20.5915 18.4722 20.5915 18.4737 20.5915C18.4752 20.5915 18.4767 20.5915 18.4782 20.5915C18.4797 20.5915 18.4813 20.5915 18.4828 20.5915C18.4843 20.5915 18.4858 20.5915 18.4873 20.5915C18.4889 20.5915 18.4904 20.5915 18.492 20.5915C18.4935 20.5915 18.495 20.5915 18.4966 20.5915C18.4981 20.5915 18.4997 20.5915 18.5012 20.5915C18.5028 20.5915 18.5044 20.5915 18.5059 20.5915C18.5075 20.5915 18.5091 20.5915 18.5107 20.5915C18.5122 20.5915 18.5138 20.5915 18.5154 20.5915C18.517 20.5915 18.5186 20.5915 18.5202 20.5915C18.5218 20.5915 18.5234 20.5915 18.525 20.5915C18.5266 20.5915 18.5282 20.5915 18.5298 20.5915C18.5314 20.5915 18.5331 20.5915 18.5347 20.5915C18.5363 20.5915 18.538 20.5915 18.5396 20.5915C18.5412 20.5915 18.5429 20.5915 18.5445 20.5915C18.5462 20.5915 18.5478 20.5915 18.5495 20.5915C18.5511 20.5915 18.5528 20.5915 18.5544 20.5915C18.5561 20.5915 18.5578 20.5915 18.5594 20.5915C18.5611 20.5915 18.5628 20.5915 18.5645 20.5915C18.5661 20.5915 18.5678 20.5915 18.5695 20.5915C18.5712 20.5915 18.5729 20.5915 18.5746 20.5915C18.5763 20.5915 18.578 20.5915 18.5797 20.5915C18.5814 20.5915 18.5831 20.5915 18.5849 20.5915C18.5866 20.5915 18.5883 20.5915 18.59 20.5915C18.5918 20.5915 18.5935 20.5915 18.5952 20.5915C18.597 20.5915 18.5987 20.5915 18.6004 20.5915C18.6022 20.5915 18.6039 20.5915 18.6057 20.5915C18.6074 20.5915 18.6092 20.5915 18.611 20.5915C18.6127 20.5915 18.6145 20.5915 18.6163 20.5915C18.618 20.5915 18.6198 20.5915 18.6216 20.5915C18.6234 20.5915 18.6251 20.5915 18.6269 20.5915C18.6287 20.5915 18.6305 20.5915 18.6323 20.5915C18.6341 20.5915 18.6359 20.5915 18.6377 20.5915C18.6395 20.5915 18.6413 20.5915 18.6431 20.5915C18.6449 20.5915 18.6468 20.5915 18.6486 20.5915C18.6504 20.5915 18.6522 20.5915 18.6541 20.5915C18.6559 20.5915 18.6577 20.5915 18.6596 20.5915C18.6614 20.5915 18.6632 20.5915 18.6651 20.5915C18.6669 20.5915 18.6688 20.5915 18.6706 20.5915C18.6725 20.5915 18.6744 20.5915 18.6762 20.5915C18.6781 20.5915 18.6799 20.5915 18.6818 20.5915C18.6837 20.5915 18.6856 20.5915 18.6874 20.5915C18.6893 20.5915 18.6912 20.5915 18.6931 20.5915C18.695 20.5915 18.6969 20.5915 18.6988 20.5915C18.7007 20.5915 18.7026 20.5915 18.7045 20.5915C18.7064 20.5915 18.7083 20.5915 18.7102 20.5915C18.7121 20.5915 18.714 20.5915 18.7159 20.5915C18.7178 20.5915 18.7198 20.5915 18.7217 20.5915C18.7236 20.5915 18.7255 20.5915 18.7275 20.5915C18.7294 20.5915 18.7313 20.5915 18.7333 20.5915C18.7352 20.5915 18.7372 20.5915 18.7391 20.5915C18.7411 20.5915 18.743 20.5915 18.745 20.5915C18.7469 20.5915 18.7489 20.5915 18.7509 20.5915C18.7528 20.5915 18.7548 20.5915 18.7568 20.5915C18.7587 20.5915 18.7607 20.5915 18.7627 20.5915C18.7647 20.5915 18.7667 20.5915 18.7686 20.5915C18.7706 20.5915 18.7726 20.5915 18.7746 20.5915C18.7766 20.5915 18.7786 20.5915 18.7806 20.5915C18.7826 20.5915 18.7846 20.5915 18.7866 20.5915C18.7886 20.5915 18.7906 20.5915 18.7927 20.5915C18.7947 20.5915 18.7967 20.5915 18.7987 20.5915C18.8007 20.5915 18.8028 20.5915 18.8048 20.5915C18.8068 20.5915 18.8089 20.5915 18.8109 20.5915C18.8129 20.5915 18.815 20.5915 18.817 20.5915C18.8191 20.5915 18.8211 20.5915 18.8232 20.5915C18.8252 20.5915 18.8273 20.5915 18.8293 20.5915C18.8314 20.5915 18.8334 20.5915 18.8355 20.5915C18.8376 20.5915 18.8396 20.5915 18.8417 20.5915C18.8438 20.5915 18.8458 20.5915 18.8479 20.5915C18.85 20.5915 18.8521 20.5915 18.8542 20.5915C18.8563 20.5915 18.8583 20.5915 18.8604 20.5915C18.8625 20.5915 18.8646 20.5915 18.8667 20.5915C18.8688 20.5915 18.8709 20.5915 18.873 20.5915C18.8751 20.5915 18.8772 20.5915 18.8793 20.5915C18.8815 20.5915 18.8836 20.5915 18.8857 20.5915C18.8878 20.5915 18.8899 20.5915 18.892 20.5915C18.8942 20.5915 18.8963 20.5915 18.8984 20.5915C18.9006 20.5915 18.9027 20.5915 18.9048 20.5915C18.907 20.5915 18.9091 20.5915 18.9112 20.5915C18.9134 20.5915 18.9155 20.5915 18.9177 20.5915C18.9198 20.5915 18.922 20.5915 18.9241 20.5915C18.9263 20.5915 18.9285 20.5915 18.9306 20.5915C18.9328 20.5915 18.9349 20.5915 18.9371 20.5915C18.9393 20.5915 18.9414 20.5915 18.9436 20.5915C18.9458 20.5915 18.948 20.5915 18.9502 20.5915C18.9523 20.5915 18.9545 20.5915 18.9567 20.5915C18.9589 20.5915 18.9611 20.5915 18.9633 20.5915C18.9655 20.5915 18.9677 20.5915 18.9698 20.5915C18.972 20.5915 18.9742 20.5915 18.9764 20.5915C18.9787 20.5915 18.9809 20.5915 18.9831 20.5915C18.9853 20.5915 18.9875 20.5915 18.9897 20.5915C18.9919 20.5915 18.9941 20.5915 18.9964 20.5915C18.9986 20.5915 19.0008 20.5915 19.003 20.5915C19.0052 20.5915 19.0075 20.5915 19.0097 20.5915C19.0119 20.5915 19.0142 20.5915 19.0164 20.5915C19.0186 20.5915 19.0209 20.5915 19.0231 20.5915C19.0254 20.5915 19.0276 20.5915 19.0299 20.5915C19.0321 20.5915 19.0344 20.5915 19.0366 20.5915C19.0389 20.5915 19.0411 20.5915 19.0434 20.5915C19.0456 20.5915 19.0479 20.5915 19.0502 20.5915C19.0524 20.5915 19.0547 20.5915 19.057 20.5915C19.0592 20.5915 19.0615 20.5915 19.0638 20.5915C19.0661 20.5915 19.0683 20.5915 19.0706 20.5915C19.0729 20.5915 19.0752 20.5915 19.0775 20.5915C19.0797 20.5915 19.082 20.5915 19.0843 20.5915C19.0866 20.5915 19.0889 20.5915 19.0912 20.5915C19.0935 20.5915 19.0958 20.5915 19.0981 20.5915C19.1004 20.5915 19.1027 20.5915 19.105 20.5915C19.1073 20.5915 19.1096 20.5915 19.1119 20.5915C19.1142 20.5915 19.1165 20.5915 19.1188 20.5915C19.1212 20.5915 19.1235 20.5915 19.1258 20.5915C19.1281 20.5915 19.1304 20.5915 19.1328 20.5915C19.1351 20.5915 19.1374 20.5915 19.1397 20.5915C19.1421 20.5915 19.1444 20.5915 19.1467 20.5915C19.1491 20.5915 19.1514 20.5915 19.1537 20.5915C19.1561 20.5915 19.1584 20.5915 19.1607 20.5915C19.1631 20.5915 19.1654 20.5915 19.1678 20.5915C19.1701 20.5915 19.1725 20.5915 19.1748 20.5915C19.1772 20.5915 19.1795 20.5915 19.1819 20.5915C19.1842 20.5915 19.1866 20.5915 19.189 20.5915C19.1913 20.5915 19.1937 20.5915 19.196 20.5915C19.1984 20.5915 19.2008 20.5915 19.2031 20.5915C19.2055 20.5915 19.2079 20.5915 19.2102 20.5915C19.2126 20.5915 19.215 20.5915 19.2174 20.5915C19.2197 20.5915 19.2221 20.5915 19.2245 20.5915C19.2269 20.5915 19.2293 20.5915 19.2316 20.5915C19.234 20.5915 19.2364 20.5915 19.2388 20.5915C19.2412 20.5915 19.2436 20.5915 19.246 20.5915C19.2484 20.5915 19.2508 20.5915 19.2532 20.5915C19.2556 20.5915 19.258 20.5915 19.2604 20.5915C19.2628 20.5915 19.2652 20.5915 19.2676 20.5915C19.27 20.5915 19.2724 20.5915 19.2748 20.5915C19.2772 20.5915 19.2796 20.5915 19.282 20.5915C19.2844 20.5915 19.2868 20.5915 19.2892 20.5915C19.2917 20.5915 19.2941 20.5915 19.2965 20.5915C19.2989 20.5915 19.3013 20.5915 19.3038 20.5915C19.3062 20.5915 19.3086 20.5915 19.311 20.5915C19.3135 20.5915 19.3159 20.5915 19.3183 20.5915C19.3207 20.5915 19.3232 20.5915 19.3256 20.5915C19.328 20.5915 19.3305 20.5915 19.3329 20.5915C19.3353 20.5915 19.3378 20.5915 19.3402 20.5915C19.3427 20.5915 19.3451 20.5915 19.3475 20.5915C19.35 20.5915 19.3524 20.5915 19.3549 20.5915C19.3573 20.5915 19.3598 20.5915 19.3622 20.5915C19.3647 20.5915 19.3671 20.5915 19.3696 20.5915C19.372 20.5915 19.3745 20.5915 19.3769 20.5915C19.3794 20.5915 19.3818 20.5915 19.3843 20.5915C19.3867 20.5915 19.3892 20.5915 19.3917 20.5915C19.3941 20.5915 19.3966 20.5915 19.3991 20.5915C19.4015 20.5915 19.404 20.5915 19.4065 20.5915C19.4089 20.5915 19.4114 20.5915 19.4139 20.5915C19.4163 20.5915 19.4188 20.5915 19.4213 20.5915C19.4237 20.5915 19.4262 20.5915 19.4287 20.5915C19.4312 20.5915 19.4336 20.5915 19.4361 20.5915C19.4386 20.5915 19.4411 20.5915 19.4436 20.5915C19.446 20.5915 19.4485 20.5915 19.451 20.5915C19.4535 20.5915 19.456 20.5915 19.4585 20.5915C19.4609 20.5915 19.4634 20.5915 19.4659 20.5915C19.4684 20.5915 19.4709 20.5915 19.4734 20.5915C19.4759 20.5915 19.4784 20.5915 19.4809 20.5915C19.4834 20.5915 19.4859 20.5915 19.4883 20.5915C19.4908 20.5915 19.4933 20.5915 19.4958 20.5915C19.4983 20.5915 19.5008 20.5915 19.5033 20.5915C19.5058 20.5915 19.5083 20.5915 19.5108 20.5915C19.5133 20.5915 19.5158 20.5915 19.5183 20.5915C19.5209 20.5915 19.5234 20.5915 19.5259 20.5915C19.5284 20.5915 19.5309 20.5915 19.5334 20.5915C19.5359 20.5915 19.5384 20.5915 19.5409 20.5915C19.5434 20.5915 19.5459 20.5915 19.5485 20.5915C19.551 20.5915 19.5535 20.5915 19.556 20.5915C19.5585 20.5915 19.561 20.5915 19.5635 20.5915C19.5661 20.5915 19.5686 20.5915 19.5711 20.5915C19.5736 20.5915 19.5761 20.5915 19.5787 20.5915C19.5812 20.5915 19.5837 20.5915 19.5862 20.5915C19.5887 20.5915 19.5913 20.5915 19.5938 20.5915C19.5963 20.5915 19.5988 20.5915 19.6014 20.5915C19.6039 20.5915 19.6064 20.5915 19.6089 20.5915C19.6115 20.5915 19.614 20.5915 19.6165 20.5915C19.619 20.5915 19.6216 20.5915 19.6241 20.5915C19.6266 20.5915 19.6292 20.5915 19.6317 20.5915C19.6342 20.5915 19.6368 20.5915 19.6393 20.5915C19.6418 20.5915 19.6444 20.5915 19.6469 20.5915C19.6494 20.5915 19.652 20.5915 19.6545 20.5915C19.657 20.5915 19.6596 20.5915 19.6621 20.5915C19.6646 20.5915 19.6672 20.5915 19.6697 20.5915C19.6723 20.5915 19.6748 20.5915 19.6773 20.5915C19.6799 20.5915 19.6824 20.5915 19.685 20.5915C19.6875 20.5915 19.69 20.5915 19.6926 20.5915C19.6951 20.5915 19.6977 20.5915 19.7002 20.5915C19.7027 20.5915 19.7053 20.5915 19.7078 20.5915C19.7104 20.5915 19.7129 20.5915 19.7155 20.5915C19.718 20.5915 19.7206 20.5915 19.7231 20.5915C19.7256 20.5915 19.7282 20.5915 19.7307 20.5915C19.7333 20.5915 19.7358 20.5915 19.7384 20.5915C19.7409 20.5915 19.7435 20.5915 19.746 20.5915C19.7486 20.5915 19.7511 20.5915 19.7537 20.5915C19.7562 20.5915 19.7588 20.5915 19.7613 20.5915C19.7639 20.5915 19.7664 20.5915 19.769 20.5915C19.7715 20.5915 19.7741 20.5915 19.7766 20.5915C19.7792 20.5915 19.7817 20.5915 19.7843 20.5915C19.7868 20.5915 19.7894 20.5915 19.7919 20.5915C19.7945 20.5915 19.797 20.5915 19.7996 20.5915C19.8021 20.5915 19.8047 20.5915 19.8072 20.5915C19.8098 20.5915 19.8123 20.5915 19.8149 20.5915C19.8174 20.5915 19.82 20.5915 19.8225 20.5915C19.8251 20.5915 19.8276 20.5915 19.8302 20.5915C19.8327 20.5915 19.8353 20.5915 19.8378 20.5915C19.8404 20.5915 19.8429 20.5915 19.8455 20.5915C19.8481 20.5915 19.8506 20.5915 19.8532 20.5915C19.8557 20.5915 19.8583 20.5915 19.8608 20.5915C19.8634 20.5915 19.8659 20.5915 19.8685 20.5915C19.871 20.5915 19.8736 20.5915 19.8761 20.5915C19.8787 20.5915 19.8812 20.5915 19.8838 20.5915C19.8863 20.5915 19.8889 20.5915 19.8915 20.5915C19.894 20.5915 19.8966 20.5915 19.8991 20.5915C19.9017 20.5915 19.9042 20.5915 19.9068 20.5915C19.9093 20.5915 19.9119 20.5915 19.9144 20.5915C19.917 20.5915 19.9195 20.5915 19.9221 20.5915C19.9246 20.5915 19.9272 20.5915 19.9297 20.5915C19.9323 20.5915 19.9348 20.5915 19.9374 20.5915C19.9399 20.5915 19.9425 20.5915 19.945 20.5915C19.9476 20.5915 19.9501 20.5915 19.9527 20.5915C19.9552 20.5915 19.9578 20.5915 19.9603 20.5915C19.9629 20.5915 19.9654 20.5915 19.968 20.5915C19.9705 20.5915 19.9731 20.5915 19.9756 20.5915C19.9782 20.5915 19.9807 20.5915 19.9833 20.5915C19.9858 20.5915 19.9884 20.5915 19.9909 20.5915C19.9935 20.5915 19.996 20.5915 19.9985 20.5915C20.0011 20.5915 20.0036 20.5915 20.0062 20.5915C20.0087 20.5915 20.0113 20.5915 20.0138 20.5915C20.0164 20.5915 20.0189 20.5915 20.0214 20.5915C20.024 20.5915 20.0265 20.5915 20.0291 20.5915C20.0316 20.5915 20.0342 20.5915 20.0367 20.5915C20.0392 20.5915 20.0418 20.5915 20.0443 20.5915C20.0469 20.5915 20.0494 20.5915 20.0519 20.5915C20.0545 20.5915 20.057 20.5915 20.0595 20.5915C20.0621 20.5915 20.0646 20.5915 20.0671 20.5915C20.0697 20.5915 20.0722 20.5915 20.0748 20.5915C20.0773 20.5915 20.0798 20.5915 20.0824 20.5915C20.0849 20.5915 20.0874 20.5915 20.09 20.5915C20.0925 20.5915 20.095 20.5915 20.0975 20.5915C20.1001 20.5915 20.1026 20.5915 20.1051 20.5915C20.1077 20.5915 20.1102 20.5915 20.1127 20.5915C20.1152 20.5915 20.1178 20.5915 20.1203 20.5915C20.1228 20.5915 20.1253 20.5915 20.1279 20.5915C20.1304 20.5915 20.1329 20.5915 20.1354 20.5915C20.138 20.5915 20.1405 20.5915 20.143 20.5915C20.1455 20.5915 20.148 20.5915 20.1506 20.5915C20.1531 20.5915 20.1556 20.5915 20.1581 20.5915C20.1606 20.5915 20.1632 20.5915 20.1657 20.5915C20.1682 20.5915 20.1707 20.5915 20.1732 20.5915C20.1757 20.5915 20.1782 20.5915 20.1807 20.5915C20.1833 20.5915 20.1858 20.5915 20.1883 20.5915C20.1908 20.5915 20.1933 20.5915 20.1958 20.5915C20.1983 20.5915 20.2008 20.5915 20.2033 20.5915C20.2058 20.5915 20.2083 20.5915 20.2108 20.5915C20.2133 20.5915 20.2158 20.5915 20.2183 20.5915C20.2208 20.5915 20.2233 20.5915 20.2258 20.5915C20.2283 20.5915 20.2308 20.5915 20.2333 20.5915C20.2358 20.5915 20.2383 20.5915 20.2408 20.5915C20.2433 20.5915 20.2458 20.5915 20.2483 20.5915C20.2508 20.5915 20.2533 20.5915 20.2558 20.5915C20.2582 20.5915 20.2607 20.5915 20.2632 20.5915C20.2657 20.5915 20.2682 20.5915 20.2707 20.5915C20.2732 20.5915 20.2756 20.5915 20.2781 20.5915C20.2806 20.5915 20.2831 20.5915 20.2856 20.5915C20.288 20.5915 20.2905 20.5915 20.293 20.5915C20.2955 20.5915 20.2979 20.5915 20.3004 20.5915C20.3029 20.5915 20.3054 20.5915 20.3078 20.5915C20.3103 20.5915 20.3128 20.5915 20.3152 20.5915C20.3177 20.5915 20.3202 20.5915 20.3226 20.5915C20.3251 20.5915 20.3276 20.5915 20.33 20.5915C20.3325 20.5915 20.3349 20.5915 20.3374 20.5915C20.3399 20.5915 20.3423 20.5915 20.3448 20.5915C20.3472 20.5915 20.3497 20.5915 20.3521 20.5915C20.3546 20.5915 20.357 20.5915 20.3595 20.5915C20.3619 20.5915 20.3644 20.5915 20.3668 20.5915C20.3693 20.5915 20.3717 20.5915 20.3742 20.5915C20.3766 20.5915 20.3791 20.5915 20.3815 20.5915C20.3839 20.5915 20.3864 20.5915 20.3888 20.5915C20.3912 20.5915 20.3937 20.5915 20.3961 20.5915C20.3985 20.5915 20.401 20.5915 20.4034 20.5915C20.4058 20.5915 20.4083 20.5915 20.4107 20.5915C20.4131 20.5915 20.4155 20.5915 20.418 20.5915C20.4204 20.5915 20.4228 20.5915 20.4252 20.5915C20.4276 20.5915 20.4301 20.5915 20.4325 20.5915C20.4349 20.5915 20.4373 20.5915 20.4397 20.5915C20.4421 20.5915 20.4445 20.5915 20.447 20.5915C20.4494 20.5915 20.4518 20.5915 20.4542 20.5915C20.4566 20.5915 20.459 20.5915 20.4614 20.5915C20.4638 20.5915 20.4662 20.5915 20.4686 20.5915C20.471 20.5915 20.4734 20.5915 20.4758 20.5915C20.4782 20.5915 20.4805 20.5915 20.4829 20.5915C20.4853 20.5915 20.4877 20.5915 20.4901 20.5915C20.4925 20.5915 20.4949 20.5915 20.4972 20.5915C20.4996 20.5915 20.502 20.5915 20.5044 20.5915C20.5068 20.5915 20.5091 20.5915 20.5115 20.5915C20.5139 20.5915 20.5162 20.5915 20.5186 20.5915C20.521 20.5915 20.5234 20.5915 20.5257 20.5915C20.5281 20.5915 20.5304 20.5915 20.5328 20.5915C20.5352 20.5915 20.5375 20.5915 20.5399 20.5915C20.5422 20.5915 20.5446 20.5915 20.5469 20.5915C20.5493 20.5915 20.5516 20.5915 20.554 20.5915C20.5563 20.5915 20.5587 20.5915 20.561 20.5915C20.5634 20.5915 20.5657 20.5915 20.568 20.5915C20.5704 20.5915 20.5727 20.5915 20.5751 20.5915C20.5774 20.5915 20.5797 20.5915 20.582 20.5915C20.5844 20.5915 20.5867 20.5915 20.589 20.5915C20.5913 20.5915 20.5937 20.5915 20.596 20.5915C20.5983 20.5915 20.6006 20.5915 20.6029 20.5915C20.6053 20.5915 20.6076 20.5915 20.6099 20.5915C20.6122 20.5915 20.6145 20.5915 20.6168 20.5915C20.6191 20.5915 20.6214 20.5915 20.6237 20.5915C20.626 20.5915 20.6283 20.5915 20.6306 20.5915C20.6329 20.5915 20.6352 20.5915 20.6375 20.5915C20.6398 20.5915 20.6421 20.5915 20.6443 20.5915C20.6466 20.5915 20.6489 20.5915 20.6512 20.5915C20.6535 20.5915 20.6558 20.5915 20.658 20.5915C20.6603 20.5915 20.6626 20.5915 20.6648 20.5915C20.6671 20.5915 20.6694 20.5915 20.6717 20.5915C20.6739 20.5915 20.6762 20.5915 20.6784 20.5915C20.6807 20.5915 20.683 20.5915 20.6852 20.5915C20.6875 20.5915 20.6897 20.5915 20.692 20.5915C20.6942 20.5915 20.6965 20.5915 20.6987 20.5915C20.7009 20.5915 20.7032 20.5915 20.7054 20.5915C20.7077 20.5915 20.7099 20.5915 20.7121 20.5915C20.7144 20.5915 20.7166 20.5915 20.7188 20.5915C20.721 20.5915 20.7233 20.5915 20.7255 20.5915C20.7277 20.5915 20.7299 20.5915 20.7321 20.5915C20.7344 20.5915 20.7366 20.5915 20.7388 20.5915C20.741 20.5915 20.7432 20.5915 20.7454 20.5915C20.7476 20.5915 20.7498 20.5915 20.752 20.5915C20.7542 20.5915 20.7564 20.5915 20.7586 20.5915C20.7608 20.5915 20.763 20.5915 20.7652 20.5915C20.7674 20.5915 20.7695 20.5915 20.7717 20.5915C20.7739 20.5915 20.7761 20.5915 20.7783 20.5915C20.7804 20.5915 20.7826 20.5915 20.7848 20.5915C20.7869 20.5915 20.7891 20.5915 20.7913 20.5915C20.7934 20.5915 20.7956 20.5915 20.7977 20.5915C20.7999 20.5915 20.8021 20.5915 20.8042 20.5915C20.8064 20.5915 20.8085 20.5915 20.8106 20.5915C20.8128 20.5915 20.8149 20.5915 20.8171 20.5915C20.8192 20.5915 20.8213 20.5915 20.8235 20.5915C20.8256 20.5915 20.8277 20.5915 20.8299 20.5915C20.832 20.5915 20.8341 20.5915 20.8362 20.5915C20.8383 20.5915 20.8405 20.5915 20.8426 20.5915C20.8447 20.5915 20.8468 20.5915 20.8489 20.5915C20.851 20.5915 20.8531 20.5915 20.8552 20.5915C20.8573 20.5915 20.8594 20.5915 20.8615 20.5915C20.8636 20.5915 20.8657 20.5915 20.8678 20.5915C20.8699 20.5915 20.8719 20.5915 20.874 20.5915C20.8761 20.5915 20.8782 20.5915 20.8802 20.5915C20.8823 20.5915 20.8844 20.5915 20.8865 20.5915C20.8885 20.5915 20.8906 20.5915 20.8926 20.5915C20.8947 20.5915 20.8968 20.5915 20.8988 20.5915C20.9009 20.5915 20.9029 20.5915 20.905 20.5915C20.907 20.5915 20.909 20.5915 20.9111 20.5915C20.9131 20.5915 20.9151 20.5915 20.9172 20.5915C20.9192 20.5915 20.9212 20.5915 20.9233 20.5915C20.9253 20.5915 20.9273 20.5915 20.9293 20.5915C20.9313 20.5915 20.9334 20.5915 20.9354 20.5915C20.9374 20.5915 20.9394 20.5915 20.9414 20.5915C20.9434 20.5915 20.9454 20.5915 20.9474 20.5915C20.9494 20.5915 20.9514 20.5915 20.9534 20.5915C20.9553 20.5915 20.9573 20.5915 20.9593 20.5915C20.9613 20.5915 20.9633 20.5915 20.9652 20.5915C20.9672 20.5915 20.9692 20.5915 20.9711 20.5915C20.9731 20.5915 20.9751 20.5915 20.977 20.5915C20.979 20.5915 20.9809 20.5915 20.9829 20.5915C20.9848 20.5915 20.9868 20.5915 20.9887 20.5915C20.9907 20.5915 20.9926 20.5915 20.9946 20.5915C20.9965 20.5915 20.9984 20.5915 21.0003 20.5915C21.0023 20.5915 21.0042 20.5915 21.0061 20.5915C21.008 20.5915 21.01 20.5915 21.0119 20.5915C21.0138 20.5915 21.0157 20.5915 21.0176 20.5915C21.0195 20.5915 21.0214 20.5915 21.0233 20.5915C21.0252 20.5915 21.0271 20.5915 21.029 20.5915C21.0309 20.5915 21.0327 20.5915 21.0346 20.5915C21.0365 20.5915 21.0384 20.5915 21.0403 20.5915C21.0421 20.5915 21.044 20.5915 21.0459 20.5915C21.0477 20.5915 21.0496 20.5915 21.0514 20.5915C21.0533 20.5915 21.0551 20.5915 21.057 20.5915C21.0588 20.5915 21.0607 20.5915 21.0625 20.5915C21.0644 20.5915 21.0662 20.5915 21.068 20.5915C21.0699 20.5915 21.0717 20.5915 21.0735 20.5915C21.0753 20.5915 21.0772 20.5915 21.079 20.5915C21.0808 20.5915 21.0826 20.5915 21.0844 20.5915C21.0862 20.5915 21.088 20.5915 21.0898 20.5915C21.0916 20.5915 21.0934 20.5915 21.0952 20.5915C21.097 20.5915 21.0988 20.5915 21.1005 20.5915C21.1023 20.5915 21.1041 20.5915 21.1059 20.5915C21.1076 20.5915 21.1094 20.5915 21.1112 20.5915C21.1129 20.5915 21.1147 20.5915 21.1165 20.5915C21.1182 20.5915 21.12 20.5915 21.1217 20.5915C21.1235 20.5915 21.1252 20.5915 21.1269 20.5915V19.7915Z" fill="#1D1D1D"/>
<path d="M18.1914 22.017C17.9705 22.017 17.7914 22.1961 17.7914 22.417C17.7914 22.6379 17.9705 22.817 18.1914 22.817V22.017ZM21.4376 22.817C21.6585 22.817 21.8376 22.6379 21.8376 22.417C21.8376 22.1961 21.6585 22.017 21.4376 22.017V22.817ZM18.1914 22.817H21.4376V22.017H18.1914V22.817Z" fill="#1D1D1D"/>
<path d="M24.4502 8.91406V12.6626H28.0669" stroke="#1D1D1D" stroke-width="0.8" stroke-miterlimit="10" stroke-linejoin="round"/>
</svg>
