<svg width="44" height="36" viewBox="0 0 44 36" fill="none" xmlns="http://www.w3.org/2000/svg">
<path d="M16.8333 24.5138C21.4101 24.5138 25.1203 20.7943 25.1203 16.2061C25.1203 11.6179 21.4101 7.89844 16.8333 7.89844C12.2565 7.89844 8.54633 11.6179 8.54633 16.2061C8.54633 20.7943 12.2565 24.5138 16.8333 24.5138Z" fill="#EE0005"/>
<path d="M27.1231 24.5138C31.6999 24.5138 35.4101 20.7943 35.4101 16.2061C35.4101 11.6179 31.6999 7.89844 27.1231 7.89844C22.5463 7.89844 18.8361 11.6179 18.8361 16.2061C18.8361 20.7943 22.5463 24.5138 27.1231 24.5138Z" fill="#F9A000"/>
<path d="M18.8423 16.2069C18.8423 18.844 20.0665 21.1915 21.9813 22.7146C23.8961 21.1915 25.1203 18.844 25.1203 16.2069C25.1203 13.5698 23.8961 11.2223 21.9813 9.69922C20.0665 11.2223 18.8423 13.5698 18.8423 16.2069Z" fill="#FF6300"/>
<path d="M10.3541 26.2958L10.4106 26.579C10.4734 26.4783 10.5613 26.3965 10.6743 26.3273C10.7873 26.258 10.9191 26.2266 11.0635 26.2266C11.39 26.2266 11.6097 26.3524 11.7227 26.5979C11.8859 26.3524 12.1245 26.2266 12.4384 26.2266C12.6958 26.2266 12.8904 26.2958 13.0348 26.4343C13.1792 26.5727 13.2483 26.7741 13.2483 27.0447V28.5489H12.6895V27.1706C12.6895 27.0322 12.6519 26.9189 12.5828 26.8371C12.5138 26.7552 12.4133 26.7175 12.2877 26.7175C12.1371 26.7175 12.0178 26.7741 11.9425 26.8811C11.8671 26.9881 11.8232 27.1266 11.8232 27.2902V28.5489H11.2644V27.1266C11.2644 26.8496 11.1389 26.7175 10.8877 26.7175C10.7433 26.7175 10.6241 26.7741 10.5362 26.8811C10.4483 26.9944 10.4106 27.1517 10.4106 27.3594V28.5426H9.85187V26.2958H10.3541Z" fill="#1D1D1D"/>
<path d="M15.6214 26.2962H16.0923V28.5431H15.6214L15.5586 28.2787C15.3766 28.499 15.1443 28.6123 14.8492 28.6123C14.5416 28.6123 14.2779 28.5053 14.0582 28.285C13.8385 28.0648 13.7255 27.7752 13.7255 27.4165C13.7255 27.0578 13.8385 26.7683 14.0645 26.548C14.2905 26.3277 14.5479 26.2207 14.8492 26.2207C15.1569 26.2207 15.3954 26.3277 15.5586 26.5354L15.6214 26.2962ZM15.3891 26.9193C15.2636 26.7934 15.1129 26.7242 14.9308 26.7242C14.7488 26.7242 14.5918 26.7871 14.4725 26.9193C14.347 27.0452 14.2905 27.2151 14.2905 27.4228C14.2905 27.6305 14.3533 27.8004 14.4725 27.9263C14.5981 28.0522 14.7488 28.1214 14.9308 28.1214C15.1129 28.1214 15.2699 28.0585 15.3891 27.9263C15.5147 27.8004 15.5712 27.6305 15.5712 27.4228C15.5712 27.2151 15.5147 27.0452 15.3891 26.9193Z" fill="#1D1D1D"/>
<path d="M17.8563 28.0769C17.9253 28.0329 17.963 27.9699 17.963 27.8818C17.963 27.8 17.9253 27.7308 17.85 27.6867C17.7747 27.6426 17.6428 27.6112 17.4545 27.5923C17.1971 27.5608 16.9899 27.4853 16.8455 27.3657C16.7011 27.2461 16.6258 27.0825 16.6258 26.8874C16.6258 26.686 16.7074 26.5224 16.8769 26.4028C17.0464 26.2832 17.2599 26.2266 17.511 26.2266C17.7809 26.2266 17.9881 26.2895 18.1451 26.4154C18.302 26.5412 18.3962 26.7112 18.4276 26.9315L17.9253 27.0133C17.9065 26.8937 17.8625 26.8056 17.7872 26.7426C17.7119 26.6797 17.6177 26.6482 17.5047 26.6482C17.4043 26.6482 17.3164 26.6671 17.2536 26.7112C17.1845 26.7552 17.1531 26.8119 17.1531 26.8811C17.1531 27.0447 17.3226 27.1454 17.6554 27.1769C18.2204 27.2336 18.4966 27.4601 18.4966 27.844C18.4966 28.0643 18.4087 28.2468 18.2392 28.3916C18.0697 28.5363 17.8437 28.6056 17.5675 28.6056C17.2724 28.6056 17.0338 28.5301 16.8455 28.379C16.6572 28.228 16.5504 28.0266 16.5253 27.7811L17.0401 27.6867C17.0715 27.8315 17.128 27.9447 17.2034 28.0203C17.285 28.0958 17.4043 28.1336 17.5612 28.1336C17.6868 28.1461 17.7809 28.121 17.8563 28.0769Z" fill="#1D1D1D"/>
<path d="M19.093 25.7168H19.6518V26.2958H20.0912V26.7301H19.6518V27.7874C19.6518 27.9951 19.7397 28.1021 19.9154 28.1021C19.9782 28.1021 20.0347 28.0895 20.0975 28.0706V28.549C20.0285 28.5741 19.9217 28.5867 19.7962 28.5867C19.5827 28.5867 19.4132 28.5301 19.2814 28.4105C19.1495 28.2909 19.0867 28.1084 19.0867 27.863V26.7364H18.7415V26.3021H19.0867V25.7168H19.093Z" fill="#1D1D1D"/>
<path d="M22.6966 27.5739H20.9576C20.9764 27.7438 21.0455 27.8822 21.1585 27.9829C21.2715 28.0836 21.4096 28.134 21.5854 28.134C21.8616 28.134 22.05 28.0144 22.1567 27.7752L22.6778 27.9389C22.5836 28.1529 22.4455 28.3228 22.2509 28.4361C22.0625 28.5557 21.8365 28.6123 21.5854 28.6123C21.2276 28.6123 20.9388 28.499 20.7253 28.2787C20.5119 28.0585 20.4052 27.769 20.4052 27.4165C20.4052 27.0704 20.5182 26.7871 20.7504 26.5606C20.9827 26.334 21.259 26.2207 21.5917 26.2207C21.9119 26.2207 22.1818 26.3214 22.389 26.5228C22.6024 26.7242 22.7029 27.0074 22.7029 27.3725V27.5739H22.6966ZM21.5854 26.6801C21.4285 26.6801 21.2966 26.7242 21.1962 26.8123C21.0894 26.9004 21.0204 27.02 20.9827 27.1648H22.163C22.1128 26.8438 21.9244 26.6801 21.5854 26.6801Z" fill="#1D1D1D"/>
<path d="M24.5174 26.2655L24.417 26.7501C24.3605 26.7312 24.304 26.7186 24.2349 26.7186C24.0968 26.7186 23.9838 26.7753 23.8896 26.8949C23.7954 27.0144 23.7452 27.1592 23.7452 27.3354V28.5501H23.1865V26.3033H23.6887L23.7452 26.5991C23.7954 26.4921 23.8645 26.404 23.965 26.3347C24.0654 26.2655 24.1847 26.234 24.3228 26.234C24.3982 26.2277 24.4609 26.2403 24.5174 26.2655Z" fill="#1D1D1D"/>
<path d="M26.4071 27.7056L26.9408 27.8881C26.7713 28.3727 26.4134 28.6182 25.8735 28.6182C25.5408 28.6182 25.2583 28.5112 25.0323 28.2909C24.8062 28.0706 24.6932 27.7811 24.6932 27.4224C24.6932 27.0636 24.8062 26.7741 25.0323 26.5538C25.2583 26.3336 25.5408 26.2266 25.8735 26.2266C26.156 26.2266 26.3883 26.2958 26.5704 26.428C26.7524 26.5664 26.8717 26.7615 26.9219 27.0133L26.4071 27.114C26.3758 27.0007 26.313 26.9063 26.2188 26.8308C26.1246 26.7552 26.0053 26.7238 25.8735 26.7238C25.6852 26.7238 25.5345 26.7867 25.4278 26.9189C25.3148 27.051 25.2583 27.2147 25.2583 27.4224C25.2583 27.6238 25.3148 27.7937 25.4278 27.9259C25.5408 28.058 25.6914 28.121 25.8735 28.121C26.1435 28.1147 26.3193 27.9825 26.4071 27.7056Z" fill="#1D1D1D"/>
<path d="M29.1946 26.2962H29.6655V28.5431H29.1946L29.1318 28.2787C28.9498 28.499 28.7175 28.6123 28.4224 28.6123C28.1148 28.6123 27.8511 28.5053 27.6314 28.285C27.4116 28.0648 27.2986 27.7752 27.2986 27.4165C27.2986 27.0578 27.4116 26.7683 27.6377 26.548C27.8637 26.3277 28.1211 26.2207 28.4224 26.2207C28.73 26.2207 28.9686 26.3277 29.1318 26.5354L29.1946 26.2962ZM28.9623 26.9193C28.8368 26.7934 28.6861 26.7242 28.504 26.7242C28.322 26.7242 28.165 26.7871 28.0457 26.9193C27.9202 27.0452 27.8637 27.2151 27.8637 27.4228C27.8637 27.6305 27.9264 27.8004 28.0457 27.9263C28.1713 28.0522 28.322 28.1214 28.504 28.1214C28.6861 28.1214 28.843 28.0585 28.9623 27.9263C29.0879 27.8004 29.1444 27.6305 29.1444 27.4228C29.1444 27.2151 29.0879 27.0452 28.9623 26.9193Z" fill="#1D1D1D"/>
<path d="M31.5864 26.2655L31.4859 26.7501C31.4294 26.7312 31.3729 26.7186 31.3039 26.7186C31.1658 26.7186 31.0527 26.7753 30.9586 26.8949C30.8644 27.0144 30.8142 27.1592 30.8142 27.3354V28.5501H30.2554V26.3033H30.7577L30.8142 26.5991C30.8644 26.4921 30.9335 26.404 31.0339 26.3347C31.1344 26.2655 31.2536 26.234 31.3918 26.234C31.4671 26.2277 31.5299 26.2403 31.5864 26.2655Z" fill="#1D1D1D"/>
<path d="M34.11 25.4844V28.5494H33.6392L33.5764 28.2851C33.3943 28.5054 33.162 28.6186 32.8795 28.6186C32.5719 28.6186 32.3082 28.5116 32.0948 28.2914C31.8813 28.0711 31.7683 27.7816 31.7683 27.4228C31.7683 27.0641 31.875 26.7746 32.0948 26.5543C32.3145 26.334 32.5719 26.227 32.8607 26.227C33.162 26.227 33.388 26.3277 33.5387 26.5228V25.4844H34.11ZM33.4132 26.9193C33.2939 26.7935 33.1432 26.7242 32.9611 26.7242C32.7791 26.7242 32.6284 26.7872 32.5091 26.9193C32.3898 27.0452 32.3333 27.2151 32.3333 27.4228C32.3333 27.6305 32.3898 27.8005 32.5091 27.9263C32.6284 28.0522 32.7791 28.1214 32.9611 28.1214C33.1432 28.1214 33.2939 28.0585 33.4132 27.9263C33.5324 27.8005 33.5889 27.6305 33.5889 27.4228C33.5952 27.2151 33.5324 27.0452 33.4132 26.9193Z" fill="#1D1D1D"/>
<path d="M34.4618 21.1465H34.8196V21.2157H34.6815V21.6185H34.6062V21.2157H34.4681V21.1465H34.4618Z" fill="#F9A000"/>
<path d="M35.1399 21.3731L35.322 21.1465H35.3848V21.6185H35.3094V21.2724L35.1399 21.4863L34.9704 21.2724V21.6122H34.8951V21.1465H34.9579L35.1399 21.3731Z" fill="#F9A000"/>
</svg>
