<svg width="44" height="36" viewBox="0 0 44 36" fill="none" xmlns="http://www.w3.org/2000/svg">
<path d="M15.8726 11.6875C15.8726 15.7721 15.8726 19.819 15.8726 23.8847C14.6547 23.8847 13.4367 23.8847 12.1811 23.8847C12.1811 23.7589 12.1811 23.6393 12.1811 23.5134C12.1811 21.3295 12.1811 19.1519 12.1811 16.9679C12.1811 16.7791 12.1874 16.584 11.9551 16.5525C11.7166 16.5211 11.6789 16.7225 11.6224 16.8924C10.9506 19.1078 10.2726 21.3169 9.60714 23.5386C9.52553 23.8155 9.4188 23.9288 9.11118 23.9162C8.45198 23.891 7.79279 23.8973 7.1336 23.9162C6.88876 23.9225 6.78831 23.8407 6.71925 23.6078C6.05378 21.3924 5.37575 19.177 4.704 16.9616C4.67889 16.8798 4.67261 16.7854 4.62239 16.7288C4.55333 16.6532 4.43405 16.5463 4.35871 16.5651C4.26454 16.5903 4.18293 16.7099 4.1327 16.8106C4.09503 16.8861 4.12015 16.9931 4.12015 17.0875C4.12015 19.2148 4.12015 21.3484 4.12015 23.4756C4.12015 23.6015 4.12015 23.7274 4.12015 23.8784C2.87082 23.8784 1.64661 23.8784 0.397278 23.8784C0.397278 19.8316 0.397278 15.7847 0.397278 11.7064C0.497726 11.7001 0.610731 11.6875 0.717457 11.6875C1.92912 11.6875 3.14705 11.6875 4.35871 11.6875C5.29414 11.6875 5.92822 12.1532 6.19817 13.0469C6.7632 14.9099 7.32822 16.7728 7.89952 18.6358C7.94346 18.7868 8.01252 18.9379 8.06903 19.0826C8.10669 19.0826 8.14436 19.0889 8.18203 19.0889C8.24481 18.9442 8.32642 18.8057 8.37037 18.6609C8.92911 16.8358 9.48158 15.0169 10.034 13.1917C10.3605 12.1155 10.9318 11.6875 12.0493 11.6875C13.1982 11.6875 14.3533 11.6875 15.5022 11.6875C15.634 11.6875 15.7471 11.6875 15.8726 11.6875Z" fill="#21A94F"/>
<path d="M17.662 23.9167C17.662 19.8195 17.662 15.7726 17.662 11.7069C18.8862 11.7069 20.0916 11.7069 21.3535 11.7069C21.3535 11.8265 21.3535 11.9461 21.3535 12.0656C21.3535 14.2244 21.3535 16.3831 21.3535 18.5482C21.3535 18.6426 21.3284 18.7496 21.366 18.8251C21.41 18.9195 21.4979 19.0265 21.592 19.0454C21.6611 19.0642 21.7992 18.9824 21.8432 18.9132C21.9624 18.7055 22.0566 18.4789 22.1571 18.2649C23.0234 16.402 23.8898 14.5454 24.7436 12.6761C25.0575 11.9964 25.566 11.6754 26.3006 11.6817C27.3239 11.688 28.3535 11.6817 29.3768 11.6817C29.4898 11.6817 29.6028 11.6817 29.7347 11.6817C29.7347 15.7601 29.7347 19.8132 29.7347 23.8852C28.5167 23.8852 27.3051 23.8852 26.0557 23.8852C26.0557 23.7342 26.0557 23.6146 26.0557 23.4887C26.0557 21.33 26.0557 19.1712 26.0557 17.0062C26.0557 16.9244 26.0808 16.83 26.0495 16.7545C26.0055 16.6412 25.9553 16.4587 25.8611 16.4335C25.7669 16.4083 25.61 16.5531 25.566 16.6475C25.2647 17.258 24.9822 17.8747 24.6934 18.4978C24.0028 19.9894 23.3059 21.481 22.6216 22.9726C22.3329 23.602 21.862 23.9167 21.1651 23.9104C20.1167 23.9041 19.0745 23.9104 18.0261 23.9104C17.9131 23.9167 17.8001 23.9167 17.662 23.9167Z" fill="#21A94F"/>
<path d="M31.1721 11.6949C31.3102 11.6949 31.4232 11.6949 31.5362 11.6949C34.1416 11.6949 36.747 11.6886 39.3523 11.7012C40.8716 11.7075 42.1147 12.2865 42.9559 13.5956C43.3452 14.1935 43.6088 14.8481 43.5649 15.5907C43.5523 15.811 43.5523 16.0313 43.5774 16.2516C43.6088 16.5096 43.5084 16.5915 43.2698 16.5915C42.5353 16.5852 41.807 16.5977 41.0725 16.5915C39.5846 16.5852 38.0967 16.6544 36.6151 16.5537C34.355 16.3963 32.5972 15.3579 31.5613 13.2621C31.3353 12.7837 31.1909 12.274 31.1721 11.6949Z" fill="url(#paint0_linear_420_8369)"/>
<path d="M35.3469 19.9958C35.3469 21.3363 35.3469 22.6454 35.3469 23.9734C34.1039 23.9734 32.8922 23.9734 31.6617 23.9734C31.6617 21.7391 31.6617 19.5175 31.6617 17.2832C35.573 17.2832 39.4653 17.2832 43.4016 17.2832C43.3703 17.3776 43.3514 17.4657 43.3138 17.5412C42.5478 19.1021 41.2985 19.9391 39.5595 19.9706C38.2662 19.9958 36.9667 19.9769 35.6734 19.9769C35.573 19.9769 35.4851 19.9895 35.3469 19.9958Z" fill="#21A94F"/>
<defs>
<linearGradient id="paint0_linear_420_8369" x1="31.1738" y1="14.1521" x2="43.5854" y2="14.1521" gradientUnits="userSpaceOnUse">
<stop stop-color="#00D9FF"/>
<stop offset="1" stop-color="#0097FF"/>
</linearGradient>
</defs>
</svg>
