<svg width="44" height="36" viewBox="0 0 44 36" fill="none" xmlns="http://www.w3.org/2000/svg">
<g clip-path="url(#clip0_420_8367)">
<path d="M12.0117 22.9346L16.8144 11.7129L13.9265 11.7129L13.2673 11.7129L10.9821 17.5975L10.9695 17.5849L9.92111 20.2094L9.65743 18.4849C9.0673 16.4143 7.16506 14.136 5.06192 13.0283L5.09331 13.1479C5.06192 13.129 5.03053 13.1101 4.99286 13.0912L7.94981 24.1367L11.4969 24.1367L11.5283 24.0674L11.566 24.0674L12.0117 22.9346Z" fill="#00569F"/>
<path d="M41.0413 19.0314L39.3965 11.6426L37.6323 11.6426L36.8413 11.6426C36.0503 11.6426 35.4602 11.7118 35.1337 12.5426L30.2054 24.0726L30.6637 24.0726L33.7525 24.0726L34.4117 22.002L38.6117 22.002L39.0072 24.0726L42.1588 24.0726L41.0413 19.0314ZM37.105 15.0286L37.2996 16.1992C37.2996 16.1992 37.9149 19.1195 38.0718 19.9251L35.3283 19.9251C35.592 19.2328 36.6404 16.2685 36.6404 16.2685C36.6404 16.2685 36.9041 15.5132 37.105 15.0286Z" fill="#00569F"/>
<path d="M18.6537 11.6504L18.0573 11.6504L15.9605 24.0742L19.3066 24.0742L21.3407 11.6504L18.6537 11.6504Z" fill="#00569F"/>
<path d="M30.67 20.0015C30.67 18.554 29.8162 17.4463 27.8449 16.5526C26.6647 15.9295 25.9427 15.5833 25.9427 14.9665C25.9427 14.4127 26.5328 13.8589 27.8449 13.8588C28.9624 13.8588 29.7472 14.0665 30.3373 14.3435L30.6638 14.4819L31.1911 11.7882C30.5319 11.5113 29.4835 11.2344 28.1714 11.2344C24.888 11.2344 22.5212 12.9589 22.5212 15.4449C22.5212 17.3078 24.166 18.277 25.4781 18.8938C26.3822 19.3218 26.8467 19.6491 27.0539 19.9952L26.8593 19.7938C26.9723 19.9134 27.0602 20.0141 27.1167 20.1211C27.1669 20.2407 27.1857 20.3602 27.1857 20.4861C27.1857 21.3169 26.1373 21.726 25.2145 21.726C23.9023 21.726 23.1804 21.5183 22.0629 21.0337L21.6046 20.826L21.1463 23.6582C21.1526 23.6582 21.1526 23.6582 21.1589 23.6644L21.1463 23.7274C21.9373 24.0735 23.3813 24.4197 24.888 24.4197C26.9911 24.4197 28.6987 23.7966 29.6844 22.6952L29.6467 22.6575C30.3059 21.9463 30.67 21.0463 30.67 20.0015Z" fill="#00569F"/>
<path d="M9.55695 18.4083C9.56951 18.4335 9.57578 18.4587 9.58834 18.4838L9.46906 17.9552L8.40807 12.681C8.21345 11.8503 7.61704 11.6426 6.89507 11.6426L0.78656 11.6426L2.88342 12.316C5.46996 13.3545 7.61704 15.0223 8.84125 16.9671C9.1426 17.4706 9.39372 17.9992 9.58834 18.5405L9.55695 18.4083Z" fill="#F79510"/>
</g>
<defs>
<clipPath id="clip0_420_8367">
<rect width="44" height="36" fill="white"/>
</clipPath>
</defs>
</svg>
