<svg width="44" height="36" viewBox="0 0 44 36" fill="none" xmlns="http://www.w3.org/2000/svg">
<path d="M39.4126 36H4.58744C2.05202 36 0 33.3818 0 30.1469V5.85315C0 2.61818 2.05202 0 4.58744 0H39.4126C41.948 0 44 2.61818 44 5.85315V30.1469C44 33.3818 41.948 36 39.4126 36Z" fill="black"/>
<path d="M16.8334 24.5138C21.4102 24.5138 25.1204 20.7943 25.1204 16.2061C25.1204 11.6179 21.4102 7.89844 16.8334 7.89844C12.2566 7.89844 8.54639 11.6179 8.54639 16.2061C8.54639 20.7943 12.2566 24.5138 16.8334 24.5138Z" fill="#EE0005"/>
<path d="M27.1232 24.5138C31.7 24.5138 35.4102 20.7943 35.4102 16.2061C35.4102 11.6179 31.7 7.89844 27.1232 7.89844C22.5464 7.89844 18.8362 11.6179 18.8362 16.2061C18.8362 20.7943 22.5464 24.5138 27.1232 24.5138Z" fill="#F9A000"/>
<path d="M18.8424 16.2069C18.8424 18.844 20.0666 21.1915 21.9814 22.7146C23.8962 21.1915 25.1205 18.844 25.1205 16.2069C25.1205 13.5698 23.8962 11.2223 21.9814 9.69922C20.0666 11.2223 18.8424 13.5698 18.8424 16.2069Z" fill="#FF6300"/>
<path d="M10.3542 26.2958L10.4107 26.579C10.4735 26.4783 10.5613 26.3965 10.6744 26.3273C10.7874 26.258 10.9192 26.2266 11.0636 26.2266C11.39 26.2266 11.6098 26.3524 11.7228 26.5979C11.886 26.3524 12.1246 26.2266 12.4385 26.2266C12.6959 26.2266 12.8905 26.2958 13.0349 26.4343C13.1793 26.5727 13.2483 26.7741 13.2483 27.0447V28.5489H12.6896V27.1706C12.6896 27.0322 12.6519 26.9189 12.5829 26.8371C12.5138 26.7552 12.4134 26.7175 12.2878 26.7175C12.1371 26.7175 12.0178 26.7741 11.9425 26.8811C11.8672 26.9881 11.8232 27.1266 11.8232 27.2902V28.5489H11.2645V27.1266C11.2645 26.8496 11.1389 26.7175 10.8878 26.7175C10.7434 26.7175 10.6241 26.7741 10.5362 26.8811C10.4483 26.9944 10.4107 27.1517 10.4107 27.3594V28.5426H9.85193V26.2958H10.3542Z" fill="#1D1D1D"/>
<path d="M15.6215 26.2962H16.0924V28.5431H15.6215L15.5588 28.2787C15.3767 28.499 15.1444 28.6123 14.8494 28.6123C14.5417 28.6123 14.2781 28.5053 14.0583 28.285C13.8386 28.0648 13.7256 27.7752 13.7256 27.4165C13.7256 27.0578 13.8386 26.7683 14.0646 26.548C14.2906 26.3277 14.548 26.2207 14.8494 26.2207C15.157 26.2207 15.3955 26.3277 15.5588 26.5354L15.6215 26.2962ZM15.3893 26.9193C15.2637 26.7934 15.113 26.7242 14.931 26.7242C14.7489 26.7242 14.592 26.7871 14.4727 26.9193C14.3471 27.0452 14.2906 27.2151 14.2906 27.4228C14.2906 27.6305 14.3534 27.8004 14.4727 27.9263C14.5982 28.0522 14.7489 28.1214 14.931 28.1214C15.113 28.1214 15.27 28.0585 15.3893 27.9263C15.5148 27.8004 15.5713 27.6305 15.5713 27.4228C15.5713 27.2151 15.5148 27.0452 15.3893 26.9193Z" fill="#1D1D1D"/>
<path d="M17.8563 28.0769C17.9254 28.0329 17.9631 27.9699 17.9631 27.8818C17.9631 27.8 17.9254 27.7308 17.8501 27.6867C17.7747 27.6426 17.6429 27.6112 17.4545 27.5923C17.1971 27.5608 16.99 27.4853 16.8456 27.3657C16.7012 27.2461 16.6258 27.0825 16.6258 26.8874C16.6258 26.686 16.7075 26.5224 16.877 26.4028C17.0465 26.2832 17.2599 26.2266 17.511 26.2266C17.781 26.2266 17.9882 26.2895 18.1451 26.4154C18.3021 26.5412 18.3962 26.7112 18.4276 26.9315L17.9254 27.0133C17.9066 26.8937 17.8626 26.8056 17.7873 26.7426C17.7119 26.6797 17.6178 26.6482 17.5048 26.6482C17.4043 26.6482 17.3164 26.6671 17.2536 26.7112C17.1846 26.7552 17.1532 26.8119 17.1532 26.8811C17.1532 27.0447 17.3227 27.1454 17.6554 27.1769C18.2205 27.2336 18.4967 27.4601 18.4967 27.844C18.4967 28.0643 18.4088 28.2468 18.2393 28.3916C18.0698 28.5363 17.8438 28.6056 17.5675 28.6056C17.2725 28.6056 17.0339 28.5301 16.8456 28.379C16.6572 28.228 16.5505 28.0266 16.5254 27.7811L17.0402 27.6867C17.0716 27.8315 17.1281 27.9447 17.2034 28.0203C17.285 28.0958 17.4043 28.1336 17.5613 28.1336C17.6868 28.1461 17.781 28.121 17.8563 28.0769Z" fill="#1D1D1D"/>
<path d="M19.0931 25.7168H19.6519V26.2958H20.0914V26.7301H19.6519V27.7874C19.6519 27.9951 19.7398 28.1021 19.9156 28.1021C19.9783 28.1021 20.0349 28.0895 20.0976 28.0706V28.549C20.0286 28.5741 19.9218 28.5867 19.7963 28.5867C19.5828 28.5867 19.4133 28.5301 19.2815 28.4105C19.1496 28.2909 19.0869 28.1084 19.0869 27.863V26.7364H18.7416V26.3021H19.0869V25.7168H19.0931Z" fill="#1D1D1D"/>
<path d="M22.6966 27.5739H20.9576C20.9764 27.7438 21.0455 27.8822 21.1585 27.9829C21.2715 28.0836 21.4096 28.134 21.5854 28.134C21.8616 28.134 22.05 28.0144 22.1567 27.7752L22.6778 27.9389C22.5836 28.1529 22.4455 28.3228 22.2509 28.4361C22.0625 28.5557 21.8365 28.6123 21.5854 28.6123C21.2276 28.6123 20.9388 28.499 20.7253 28.2787C20.5119 28.0585 20.4052 27.769 20.4052 27.4165C20.4052 27.0704 20.5182 26.7871 20.7504 26.5606C20.9827 26.334 21.259 26.2207 21.5917 26.2207C21.9119 26.2207 22.1818 26.3214 22.389 26.5228C22.6024 26.7242 22.7029 27.0074 22.7029 27.3725V27.5739H22.6966ZM21.5854 26.6801C21.4285 26.6801 21.2966 26.7242 21.1962 26.8123C21.0894 26.9004 21.0204 27.02 20.9827 27.1648H22.163C22.1128 26.8438 21.9244 26.6801 21.5854 26.6801Z" fill="#1D1D1D"/>
<path d="M24.5175 26.2655L24.417 26.7501C24.3605 26.7312 24.304 26.7186 24.235 26.7186C24.0969 26.7186 23.9839 26.7753 23.8897 26.8949C23.7955 27.0144 23.7453 27.1592 23.7453 27.3354V28.5501H23.1865V26.3033H23.6888L23.7453 26.5991C23.7955 26.4921 23.8646 26.404 23.965 26.3347C24.0655 26.2655 24.1848 26.234 24.3229 26.234C24.3982 26.2277 24.461 26.2403 24.5175 26.2655Z" fill="#1D1D1D"/>
<path d="M26.4073 27.7056L26.9409 27.8881C26.7714 28.3727 26.4135 28.6182 25.8736 28.6182C25.5409 28.6182 25.2584 28.5112 25.0324 28.2909C24.8064 28.0706 24.6934 27.7811 24.6934 27.4224C24.6934 27.0636 24.8064 26.7741 25.0324 26.5538C25.2584 26.3336 25.5409 26.2266 25.8736 26.2266C26.1561 26.2266 26.3884 26.2958 26.5705 26.428C26.7526 26.5664 26.8718 26.7615 26.9221 27.0133L26.4073 27.114C26.3759 27.0007 26.3131 26.9063 26.2189 26.8308C26.1248 26.7552 26.0055 26.7238 25.8736 26.7238C25.6853 26.7238 25.5346 26.7867 25.4279 26.9189C25.3149 27.051 25.2584 27.2147 25.2584 27.4224C25.2584 27.6238 25.3149 27.7937 25.4279 27.9259C25.5409 28.058 25.6916 28.121 25.8736 28.121C26.1436 28.1147 26.3194 27.9825 26.4073 27.7056Z" fill="#1D1D1D"/>
<path d="M29.1947 26.2962H29.6655V28.5431H29.1947L29.1319 28.2787C28.9498 28.499 28.7175 28.6123 28.4225 28.6123C28.1148 28.6123 27.8512 28.5053 27.6314 28.285C27.4117 28.0648 27.2987 27.7752 27.2987 27.4165C27.2987 27.0578 27.4117 26.7683 27.6377 26.548C27.8637 26.3277 28.1211 26.2207 28.4225 26.2207C28.7301 26.2207 28.9687 26.3277 29.1319 26.5354L29.1947 26.2962ZM28.9624 26.9193C28.8368 26.7934 28.6861 26.7242 28.5041 26.7242C28.322 26.7242 28.1651 26.7871 28.0458 26.9193C27.9202 27.0452 27.8637 27.2151 27.8637 27.4228C27.8637 27.6305 27.9265 27.8004 28.0458 27.9263C28.1713 28.0522 28.322 28.1214 28.5041 28.1214C28.6861 28.1214 28.8431 28.0585 28.9624 27.9263C29.0879 27.8004 29.1444 27.6305 29.1444 27.4228C29.1444 27.2151 29.0879 27.0452 28.9624 26.9193Z" fill="#1D1D1D"/>
<path d="M31.5864 26.2655L31.486 26.7501C31.4295 26.7312 31.373 26.7186 31.3039 26.7186C31.1658 26.7186 31.0528 26.7753 30.9586 26.8949C30.8645 27.0144 30.8142 27.1592 30.8142 27.3354V28.5501H30.2555V26.3033H30.7577L30.8142 26.5991C30.8645 26.4921 30.9335 26.404 31.034 26.3347C31.1344 26.2655 31.2537 26.234 31.3918 26.234C31.4672 26.2277 31.5299 26.2403 31.5864 26.2655Z" fill="#1D1D1D"/>
<path d="M34.1101 25.4844V28.5494H33.6393L33.5765 28.2851C33.3944 28.5054 33.1622 28.6186 32.8796 28.6186C32.572 28.6186 32.3083 28.5116 32.0949 28.2914C31.8814 28.0711 31.7684 27.7816 31.7684 27.4228C31.7684 27.0641 31.8752 26.7746 32.0949 26.5543C32.3146 26.334 32.572 26.227 32.8608 26.227C33.1622 26.227 33.3882 26.3277 33.5388 26.5228V25.4844H34.1101ZM33.4133 26.9193C33.294 26.7935 33.1433 26.7242 32.9613 26.7242C32.7792 26.7242 32.6285 26.7872 32.5092 26.9193C32.39 27.0452 32.3335 27.2151 32.3335 27.4228C32.3335 27.6305 32.39 27.8005 32.5092 27.9263C32.6285 28.0522 32.7792 28.1214 32.9613 28.1214C33.1433 28.1214 33.294 28.0585 33.4133 27.9263C33.5326 27.8005 33.5891 27.6305 33.5891 27.4228C33.5953 27.2151 33.5326 27.0452 33.4133 26.9193Z" fill="#1D1D1D"/>
<path d="M34.4618 21.1465H34.8196V21.2157H34.6815V21.6185H34.6062V21.2157H34.4681V21.1465H34.4618Z" fill="#F9A000"/>
<path d="M35.14 21.3731L35.322 21.1465H35.3848V21.6185H35.3095V21.2724L35.14 21.4863L34.9705 21.2724V21.6122H34.8951V21.1465H34.9579L35.14 21.3731Z" fill="#F9A000"/>
</svg>
