<svg width="44" height="36" viewBox="0 0 44 36" fill="none" xmlns="http://www.w3.org/2000/svg">
<g clip-path="url(#clip0_420_8367)">
<path d="M39.4126 36L4.58745 36C2.05202 36 2.91833e-06 33.3818 2.63552e-06 30.1469L5.11698e-07 5.85315C2.28889e-07 2.61818 2.05202 -1.79393e-07 4.58744 -4.01047e-07L39.4126 -3.44555e-06C41.948 -3.66721e-06 44 2.61818 44 5.85314L44 30.1469C44 33.3818 41.948 36 39.4126 36Z" fill="black"/>
<path d="M12.0118 22.9346L16.8144 11.7129L13.9265 11.7129L13.2674 11.7129L10.9822 17.5975L10.9696 17.5849L9.92117 20.2094L9.65749 18.4849C9.06736 16.4143 7.16512 14.136 5.06198 13.0283L5.09337 13.1479C5.06198 13.129 5.03059 13.1101 4.99292 13.0912L7.94987 24.1367L11.497 24.1367L11.5283 24.0674L11.566 24.0674L12.0118 22.9346Z" fill="#00569F"/>
<path d="M41.0414 19.0314L39.3966 11.6426L37.6325 11.6426L36.8414 11.6426C36.0504 11.6426 35.4603 11.7118 35.1338 12.5426L30.2056 24.0726L30.6639 24.0726L33.7527 24.0726L34.4118 22.002L38.6118 22.002L39.0074 24.0726L42.1589 24.0726L41.0414 19.0314ZM37.1051 15.0286L37.2997 16.1992C37.2997 16.1992 37.915 19.1195 38.0719 19.9251L35.3284 19.9251C35.5921 19.2328 36.6405 16.2685 36.6405 16.2685C36.6405 16.2685 36.9042 15.5132 37.1051 15.0286Z" fill="#00569F"/>
<path d="M18.6538 11.6504L18.0574 11.6504L15.9606 24.0742L19.3068 24.0742L21.3408 11.6504L18.6538 11.6504Z" fill="#00569F"/>
<path d="M30.6701 20.0015C30.6701 18.554 29.8163 17.4463 27.845 16.5526C26.6647 15.9295 25.9428 15.5833 25.9428 14.9665C25.9428 14.4127 26.5329 13.8589 27.845 13.8588C28.9625 13.8588 29.7472 14.0665 30.3374 14.3435L30.6638 14.4819L31.1912 11.7882C30.532 11.5113 29.4836 11.2344 28.1715 11.2344C24.8881 11.2344 22.5212 12.9589 22.5212 15.4449C22.5212 17.3078 24.1661 18.277 25.4782 18.8938C26.3822 19.3218 26.8468 19.6491 27.054 19.9952L26.8594 19.7938C26.9724 19.9134 27.0602 20.0141 27.1167 20.1211C27.167 20.2407 27.1858 20.3602 27.1858 20.4861C27.1858 21.3169 26.1374 21.726 25.2145 21.726C23.9024 21.726 23.1804 21.5183 22.063 21.0337L21.6047 20.826L21.1464 23.6582C21.1526 23.6582 21.1526 23.6582 21.1589 23.6644L21.1464 23.7274C21.9374 24.0735 23.3813 24.4197 24.8881 24.4197C26.9912 24.4197 28.6988 23.7966 29.6845 22.6952L29.6468 22.6575C30.306 21.9463 30.6701 21.0463 30.6701 20.0015Z" fill="#00569F"/>
<path d="M9.55701 18.4083C9.56957 18.4335 9.57584 18.4587 9.5884 18.4838L9.46912 17.9552L8.40813 12.681C8.21351 11.8503 7.6171 11.6426 6.89513 11.6426L0.786621 11.6426L2.88348 12.316C5.47002 13.3545 7.6171 15.0223 8.84131 16.9671C9.14266 17.4706 9.39378 17.9992 9.5884 18.5405L9.55701 18.4083Z" fill="#F79510"/>
</g>
<defs>
<clipPath id="clip0_420_8367">
<rect width="44" height="36" fill="white"/>
</clipPath>
</defs>
</svg>
