<svg width="30" height="30" viewBox="0 0 30 30" fill="none" xmlns="http://www.w3.org/2000/svg">
<path d="M25.8124 8.63511H23.8987V5.11594C23.8987 4.83261 23.669 4.60287 23.3857 4.60287H20.6569L19.5644 2.71066C19.4224 2.46485 19.1083 2.38112 18.8625 2.52245L16.6675 3.78972L13.8898 1.01136C13.7934 0.914913 13.6627 0.861328 13.5268 0.861328C13.3908 0.861328 13.2602 0.915582 13.1637 1.01203L9.5729 4.60287H5.25197C3.85743 4.60287 2.72278 5.73752 2.72278 7.13206V25.0929C2.72278 26.2269 3.6451 27.1499 4.77976 27.1499H25.8131C26.947 27.1499 27.87 26.2276 27.87 25.0929V10.6921C27.87 9.5581 26.947 8.63511 25.8124 8.63511ZM26.8425 20.275H20.4874C19.1739 20.275 18.1056 19.2067 18.1056 17.8932C18.1056 16.5797 19.1739 15.5113 20.4874 15.5113H26.8425V20.275ZM22.8713 5.62968V8.43952L21.249 5.62968H22.8713ZM18.9315 3.66849L21.7989 8.63511H10.3291L18.9315 3.66849ZM13.5268 2.10114L15.7472 4.32155L8.27481 8.63577H6.99213L13.5268 2.10114ZM5.25197 5.62968H8.54608L5.54066 8.63511H5.25197C4.42342 8.63511 3.74959 7.96128 3.74959 7.13273C3.74959 6.30418 4.42342 5.62968 5.25197 5.62968ZM25.8124 26.1238H4.77909C4.21109 26.1238 3.74892 25.6616 3.74892 25.0936V9.16626C4.16889 9.47772 4.68933 9.66192 5.2513 9.66192H22.6864H22.6877H22.6891H25.8117C26.3797 9.66192 26.8419 10.1241 26.8419 10.6921V14.4839H20.4867C18.6073 14.4839 17.0781 16.013 17.0781 17.8925C17.0781 19.772 18.6073 21.3012 20.4867 21.3012H26.8419V25.0929C26.8425 25.6616 26.3804 26.1238 25.8124 26.1238ZM19.0071 17.8932C19.0071 18.7097 19.6709 19.3734 20.4874 19.3734C21.3039 19.3734 21.9677 18.7097 21.9677 17.8932C21.9677 17.0767 21.3039 16.4129 20.4874 16.4129C19.6709 16.4129 19.0071 17.0767 19.0071 17.8932ZM20.9409 17.8932C20.9409 18.143 20.7379 18.3466 20.4874 18.3466C20.2376 18.3466 20.034 18.1437 20.034 17.8932C20.034 17.6433 20.2376 17.4397 20.4874 17.4397C20.7373 17.4404 20.9409 17.6433 20.9409 17.8932Z" fill="#1D1D1D"/>
</svg>
