<svg width="30" height="30" viewBox="0 0 30 30" fill="none" xmlns="http://www.w3.org/2000/svg">
<path d="M23.5738 19.0195C23.2054 19.0195 22.8404 19.0999 22.5021 19.2486C22.1639 19.1006 21.7988 19.0195 21.4304 19.0195C19.9535 19.0195 18.7512 20.2218 18.7512 21.6988C18.7512 23.1757 19.9535 24.378 21.4304 24.378C21.7995 24.378 22.1639 24.2976 22.5021 24.1496C22.8404 24.2976 23.2048 24.378 23.5738 24.378C25.0508 24.378 26.2531 23.1757 26.2531 21.6988C26.2531 20.2218 25.0508 19.0195 23.5738 19.0195ZM21.4331 23.3063H21.4298C20.5436 23.3063 19.8222 22.5849 19.8222 21.6988C19.8222 20.8126 20.5436 20.0912 21.4298 20.0912H21.4331C21.0895 20.5487 20.8939 21.1113 20.8939 21.6988C20.8946 22.2855 21.0902 22.8488 21.4331 23.3063ZM23.5738 23.3063C23.2939 23.3063 23.0159 23.2313 22.7714 23.0899C22.2751 22.8019 21.967 22.2694 21.967 21.6988C21.967 21.1281 22.2751 20.5956 22.7714 20.3082C23.0172 20.1662 23.2945 20.0912 23.5745 20.0912C24.4607 20.0912 25.182 20.8126 25.182 21.6988C25.182 22.5849 24.46 23.3063 23.5738 23.3063Z" fill="#1D1D1D"/>
<path d="M6.42671 13.6615H8.5701C8.86615 13.6615 9.10594 13.4217 9.10594 13.1257C9.10594 12.8296 8.86615 12.5898 8.5701 12.5898H6.42671C6.13066 12.5898 5.89087 12.8296 5.89087 13.1257C5.89087 13.4217 6.13066 13.6615 6.42671 13.6615Z" fill="#1D1D1D"/>
<path d="M10.7135 13.6615H12.8568C13.1529 13.6615 13.3927 13.4217 13.3927 13.1257C13.3927 12.8296 13.1529 12.5898 12.8568 12.5898H10.7135C10.4174 12.5898 10.1776 12.8296 10.1776 13.1257C10.1776 13.4217 10.4174 13.6615 10.7135 13.6615Z" fill="#1D1D1D"/>
<path d="M15.0003 13.6615H17.1437C17.4398 13.6615 17.6796 13.4217 17.6796 13.1257C17.6796 12.8296 17.4398 12.5898 17.1437 12.5898H15.0003C14.7043 12.5898 14.4645 12.8296 14.4645 13.1257C14.4645 13.4217 14.7043 13.6615 15.0003 13.6615Z" fill="#1D1D1D"/>
<path d="M25.7171 15.8047H6.42671C6.13066 15.8047 5.89087 16.0445 5.89087 16.3405C5.89087 16.6366 6.13066 16.8764 6.42671 16.8764H25.7171C26.0132 16.8764 26.253 16.6366 26.253 16.3405C26.253 16.0438 26.0132 15.8047 25.7171 15.8047Z" fill="#1D1D1D"/>
<path d="M26.7889 9.37395H26.7058L25.8344 4.77237C25.6723 3.91703 24.8324 3.35171 23.963 3.50577L2.92097 7.32032C2.49363 7.39802 2.1239 7.63513 1.88076 7.98946C1.64231 8.33642 1.55389 8.75505 1.63159 9.16765L3.74751 20.338V24.9135C3.74751 25.7997 4.46889 26.521 5.35505 26.521H26.7889C27.675 26.521 28.3964 25.7997 28.3964 24.9135V10.9815C28.3964 10.0947 27.675 9.37395 26.7889 9.37395ZM2.68453 8.96805C2.66042 8.83811 2.68788 8.70615 2.76357 8.59631C2.84394 8.47976 2.96786 8.40072 3.11187 8.37527L24.1539 4.56071C24.188 4.55469 24.2215 4.55134 24.2543 4.55134C24.5088 4.55134 24.7346 4.72482 24.7815 4.97198L25.6154 9.37395H5.35505C4.46889 9.37395 3.74751 10.0953 3.74751 10.9815V14.5797L2.68453 8.96805ZM27.3247 24.9135C27.3247 25.2089 27.0843 25.4493 26.7889 25.4493H5.35505C5.05966 25.4493 4.8192 25.2089 4.8192 24.9135V10.9815C4.8192 10.6861 5.05966 10.4456 5.35505 10.4456H26.7889C27.0843 10.4456 27.3247 10.6861 27.3247 10.9815V24.9135Z" fill="#1D1D1D"/>
</svg>
