<svg width="22" height="22" viewBox="0 0 22 22" fill="none" xmlns="http://www.w3.org/2000/svg">
<path fill-rule="evenodd" clip-rule="evenodd" d="M5.64648 4.41118C5.64648 3.09462 6.71376 2.02734 8.03032 2.02734H17.7824C19.0989 2.02734 20.1662 3.09462 20.1662 4.41118V14.1632C20.1662 15.4798 19.0989 16.547 17.7824 16.547H15.1638V15.3912H17.7824C18.4606 15.3912 19.0104 14.8414 19.0104 14.1632V4.41118C19.0104 3.73295 18.4606 3.18314 17.7824 3.18314H8.03032C7.35209 3.18314 6.80228 3.73295 6.80228 4.41118V7.02978H5.64648V4.41118Z" fill="#1D1D1D"/>
<path fill-rule="evenodd" clip-rule="evenodd" d="M13.4486 8.0933H3.69656C3.3375 8.0933 3.04642 8.38437 3.04642 8.74343V18.4955C3.04642 18.8545 3.3375 19.1456 3.69656 19.1456H13.4486C13.8077 19.1456 14.0987 18.8545 14.0987 18.4955V8.74343C14.0987 8.38437 13.8077 8.0933 13.4486 8.0933ZM3.69656 6.9375C2.69917 6.9375 1.89062 7.74604 1.89062 8.74343V18.4955C1.89062 19.4929 2.69917 20.3014 3.69656 20.3014H13.4486C14.446 20.3014 15.2545 19.4929 15.2545 18.4955V8.74343C15.2545 7.74604 14.446 6.9375 13.4486 6.9375H3.69656Z" fill="#1D1D1D"/>
</svg>
