<svg width="100" height="25" viewBox="0 0 100 25" fill="none" xmlns="http://www.w3.org/2000/svg">
<g clip-path="url(#clip0_1338_28887)">
<path d="M94.0077 10.0121C92.5168 9.63434 92.191 9.4471 92.191 9.14817V9.09232C92.191 8.79339 92.4609 8.63242 93.0599 8.63242C94.3072 8.63242 96.2063 9.14817 97.7762 10.0121L99.7279 6.35921C97.9407 5.27845 95.525 4.6543 93.0862 4.6543C89.2355 4.6543 86.6321 6.46761 86.6321 9.71647V9.76903C86.6321 12.8274 88.936 13.8293 92.6781 14.7491C94.169 15.1301 94.4389 15.3174 94.4389 15.6163V15.6722C94.4389 16.0237 94.1394 16.1583 93.5437 16.1583C91.8619 16.1583 89.8575 15.6163 88.0671 14.506L85.9805 17.9979C88.0967 19.4072 90.6968 20.1365 93.5733 20.1365C97.5853 20.1365 99.9977 18.2673 99.9977 15.048V14.9922C100.001 11.9634 97.7498 10.9319 94.0077 10.0121Z" fill="#C3FF5C"/>
<path d="M85.1797 0.761719C83.9257 1.15263 82.8133 2.23668 82.3163 3.55068L81.9741 5.00593H78.4689L76.1091 12.7979L73.5321 5.00593H67.1603L68.1411 7.40726C66.8839 5.71877 64.8697 4.65443 62.0294 4.65443C59.0113 4.65443 56.5824 6.20166 55.3317 8.57343L56.4178 5.00593H50.6187L49.0455 11.0109L47.2288 4.95008H42.3216L40.5312 10.9583L39.014 5.00593H33.9982H33.1293H27.8436V6.57287C26.7608 5.46583 25.4838 4.65115 23.3149 4.65115C20.8037 4.65115 18.6151 6.12939 17.6343 8.557V7.51895H17.6409C17.6409 7.49924 17.6343 7.47953 17.6343 7.45982V4.06313H17.6409C17.6409 4.04342 17.6343 4.02371 17.6343 4.004C17.6343 2.48634 18.6315 1.19862 20.0105 0.765004H13.517C12.3848 1.11978 11.5093 2.04944 11.2296 3.21232V4.95994H14.5373C12.9311 4.95994 11.5883 6.07026 11.2296 7.56494V11.4642C11.2296 13.8984 10.624 15.0843 8.81714 15.0843C7.01027 15.0843 6.40139 13.813 6.40139 11.323V5.0125H0V11.6547C0 18.3003 2.76132 20.1596 8.7579 20.1596C13.9251 20.1596 16.7753 18.8193 17.4664 14.0725C18.3518 16.7333 20.6885 18.3758 23.6703 18.3758C25.7306 18.3758 27.113 17.2918 27.9522 16.3457V16.7793C27.9522 18.8357 26.7312 20.0282 24.4273 20.0282C22.3934 20.0282 20.7412 19.4862 19.0857 18.6222L17.1867 22.331C19.5728 23.5201 22.1202 24.1706 25.4015 24.1706C28.7092 24.1706 30.7432 23.3329 32.0695 22.0058C33.4255 20.6556 33.9949 18.7865 33.9949 16.0534V7.9L37.5987 19.8935H42.7231L44.7604 13.5568L46.7384 19.8902H51.8891L54.4695 11.4051C54.43 11.7369 54.4102 12.0752 54.4102 12.4202V12.476C54.4102 17.075 57.6915 20.1333 62.5461 20.1333C65.7451 20.1333 67.8317 18.8062 69.2963 16.914L65.9887 14.286C65.0145 15.2879 64.0896 15.8004 62.9772 15.8004C61.6476 15.8004 60.6174 15.1237 60.1863 13.8261H69.7011C69.7275 13.5009 69.7275 13.1231 69.7275 12.7979C69.7275 12.1475 69.6748 11.5168 69.5728 10.9123L72.9627 19.2102C72.6369 19.3745 72.3111 19.427 71.9589 19.427C71.3895 19.427 70.3594 19.0755 69.247 18.4547L67.4566 22.6496C69.112 23.5727 71.0341 24.1936 73.1767 24.1936C76.5929 24.1936 78.1661 22.6266 79.6011 18.7536L84.7255 5.0125H88.0727L88.3294 4.09927H88.336C88.3392 4.07956 88.3392 4.05985 88.3458 4.03685C88.7079 2.49948 89.9717 1.19862 91.3968 0.761719H85.1797V0.761719ZM14.5965 4.0697C14.5767 4.0697 14.557 4.06313 14.5373 4.06313H14.5965V4.0697ZM27.9785 11.5529C27.9785 12.8538 27.0307 13.882 25.5101 13.882C24.0192 13.882 23.0417 12.8801 23.0417 11.6088V11.5529C23.0417 10.2553 23.9896 9.20086 25.5101 9.20086C27.0011 9.20086 27.9785 10.2291 27.9785 11.5004V11.5529ZM60.1073 11.1226C60.2982 9.76917 61.0288 8.90193 62.059 8.90193C63.1418 8.90193 63.9843 9.71332 64.1193 11.1226H60.1073ZM85.4068 4.10584C85.387 4.10584 85.3706 4.09927 85.3508 4.09927H85.4101L85.4068 4.10584Z" fill="#C3FF5C"/>
</g>
<defs>
<clipPath id="clip0_1338_28887">
<rect width="100" height="23.4286" fill="white" transform="translate(0 0.761719)"/>
</clipPath>
</defs>
</svg>
