<svg width="24" height="24" viewBox="0 0 24 24" fill="none" xmlns="http://www.w3.org/2000/svg">
<path d="M12.0154 6.29322L11.9993 6.2775L11.9825 6.29383L11.6339 5.94388C10.5839 4.88985 9.11228 4.23242 7.47868 4.23242C4.27339 4.23242 1.69883 6.75491 1.69883 9.83731C1.69883 13.4383 4.24769 16.5838 6.92434 18.8795C8.24971 20.0162 9.57754 20.9197 10.5751 21.5394C11.0734 21.8489 11.488 22.0867 11.7769 22.2466C11.8622 22.2939 11.9366 22.3343 11.9988 22.3677C12.0611 22.3343 12.1354 22.2939 12.2207 22.2466C12.5097 22.0867 12.9242 21.8489 13.4225 21.5394C14.4201 20.9197 15.7479 20.0162 17.0733 18.8795C19.75 16.5838 22.2988 13.4383 22.2988 9.83731C22.2988 6.75487 19.7247 4.23245 16.519 4.23284H16.519C14.8859 4.23284 13.4145 4.89023 12.364 5.94365L12.0154 6.29322Z" stroke="#1D1D1D"/>
</svg>
