<svg width="24" height="24" viewBox="0 0 24 24" fill="none" xmlns="http://www.w3.org/2000/svg">
<path d="M21.1642 22.0024C21.1642 22.2786 21.388 22.5024 21.6642 22.5024C21.9403 22.5024 22.1642 22.2786 22.1642 22.0024H21.1642ZM1.83203 22.0024C1.83203 22.2786 2.05589 22.5024 2.33203 22.5024C2.60817 22.5024 2.83203 22.2786 2.83203 22.0024H1.83203ZM8.32224 16.1777H15.674V15.1777H8.32224V16.1777ZM21.1642 21.6679V22.0024H22.1642V21.6679H21.1642ZM2.83203 22.0024V21.6679H1.83203V22.0024H2.83203ZM15.674 16.1777C18.7061 16.1777 21.1642 18.6358 21.1642 21.6679H22.1642C22.1642 18.0835 19.2584 15.1777 15.674 15.1777V16.1777ZM8.32224 15.1777C4.7378 15.1777 1.83203 18.0835 1.83203 21.6679H2.83203C2.83203 18.6358 5.29008 16.1777 8.32224 16.1777V15.1777Z" fill="#1D1D1D"/>
<rect x="7.24805" y="2.0957" width="9.38208" height="10.9334" rx="4.69104" stroke="#1D1D1D"/>
</svg>
