<svg width="18" height="18" viewBox="0 0 18 18" fill="none" xmlns="http://www.w3.org/2000/svg">
<path d="M7.15039 3.9231C7.72497 3.75155 8.32228 3.65234 8.93613 3.65234C13.4067 3.65234 17.0298 8.92275 17.0298 8.92275C17.0298 8.92275 16.1473 10.2063 14.715 11.5063" stroke="#555555" stroke-miterlimit="10" stroke-linecap="round" stroke-linejoin="round"/>
<path d="M10.4613 10.317C10.081 10.7304 9.53948 10.9887 8.93597 10.9887C7.79301 10.9887 6.86914 10.0628 6.86914 8.92192C6.86914 8.31634 7.12956 7.77069 7.54499 7.39453L10.4613 10.317Z" stroke="#555555" stroke-miterlimit="10" stroke-linecap="round" stroke-linejoin="round"/>
<path d="M12.9845 12.8478C11.794 13.6187 10.4093 14.1933 8.93561 14.1933C4.46506 14.1933 0.839844 8.92289 0.839844 8.92289C0.839844 8.92289 2.54084 6.45097 5.0479 4.89258L7.54463 7.39551C7.1292 7.77167 6.86878 8.31731 6.86878 8.92289C6.86878 10.0638 7.79265 10.9897 8.93561 10.9897C9.53912 10.9897 10.0806 10.7314 10.4609 10.318L12.9845 12.8478Z" stroke="#555555" stroke-miterlimit="10" stroke-linecap="round" stroke-linejoin="round"/>
<path d="M16.2996 16.169L12.9844 12.8477" stroke="#555555" stroke-miterlimit="10" stroke-linecap="round" stroke-linejoin="round"/>
<path d="M5.04801 4.89222L1.83203 1.66797" stroke="#555555" stroke-miterlimit="10" stroke-linecap="round" stroke-linejoin="round"/>
</svg>
